# MagicaVoxel @ Ephtracy

# group
o 

# material
mtllib centerConsoleBase.mtl
usemtl palette

# normals
vn -1 0 0
vn 1 0 0
vn 0 0 1
vn 0 0 -1
vn 0 -1 0
vn 0 1 0

# texcoords
vt 0.287109 0.5
vt 0.294922 0.5
vt 0.298828 0.5
vt 0.337891 0.5
vt 0.353516 0.5
vt 0.373047 0.5
vt 0.451172 0.5
vt 0.611328 0.5
vt 0.619141 0.5
vt 0.705078 0.5

# verts
v -1.8 0 0.3
v -1.8 0 0.0999999
v -1.8 0 -1.19209e-07
v -1.8 0 -0.4
v -1.8 0.6 0.3
v -1.8 0.6 0.0999999
v -1.8 0.7 0.0999999
v -1.8 0.7 -1.19209e-07
v -1.8 0.8 0.3
v -1.8 0.8 0.2
v -1.8 0.8 -1.19209e-07
v -1.8 0.8 -0.2
v -1.8 1 -1.19209e-07
v -1.8 1 -0.2
v -1.8 1 -0.4
v -1.8 1.1 0.0999999
v -1.8 1.1 -0.2
v -1.8 1.1 -0.3
v -1.8 1.1 -0.4
v -1.8 1.2 0.0999999
v -1.8 1.2 -0.3
v -1.8 1.3 0.3
v -1.8 1.3 0.2
v -1.8 1.4 0.3
v -1.8 1.4 0.0999999
v -1.8 1.6 0.3
v -1.8 1.6 -0.4
v -1.8 1.7 0.3
v -1.8 1.7 -0.4
v -1.8 1.9 0.3
v -1.8 1.9 -0.4
v -1.7 0 0.6
v -1.7 0 0.5
v -1.7 0 0.3
v -1.7 0 -0.4
v -1.7 0 -0.5
v -1.7 0 -0.6
v -1.7 0 -0.7
v -1.7 0.6 0.5
v -1.7 0.6 0.3
v -1.7 0.7 0.6
v -1.7 0.7 0.3
v -1.7 0.8 0.3
v -1.7 1 -0.4
v -1.7 1 -0.5
v -1.7 1 -0.6
v -1.7 1 -0.7
v -1.7 1.1 -0.4
v -1.7 1.1 -0.5
v -1.7 1.1 -0.6
v -1.7 1.1 -0.7
v -1.7 1.3 0.6
v -1.7 1.3 0.3
v -1.7 1.4 0.6
v -1.7 1.4 0.3
v -1.7 1.6 0.6
v -1.7 1.6 0.3
v -1.7 1.6 -0.4
v -1.7 1.6 -0.5
v -1.7 1.6 -0.6
v -1.7 1.6 -0.7
v -1.7 1.7 0.6
v -1.7 1.7 0.3
v -1.7 1.7 -0.4
v -1.7 1.7 -0.7
v -1.7 1.9 0.6
v -1.7 1.9 0.3
v -1.7 1.9 -0.4
v -1.7 1.9 -0.7
v -1.6 0 0.7
v -1.6 0 0.6
v -1.6 0 -0.7
v -1.6 0 -0.8
v -1.6 0.6 0.7
v -1.6 0.6 0.6
v -1.6 0.7 0.7
v -1.6 0.7 0.6
v -1.6 1 -0.7
v -1.6 1 -0.8
v -1.6 1.1 0.7
v -1.6 1.1 0.6
v -1.6 1.1 -0.7
v -1.6 1.1 -0.8
v -1.6 1.2 0.7
v -1.6 1.2 0.6
v -1.6 1.3 0.7
v -1.6 1.3 0.6
v -1.6 1.4 0.7
v -1.6 1.4 0.6
v -1.6 1.6 0.7
v -1.6 1.6 0.6
v -1.6 1.6 -0.7
v -1.6 1.6 -0.8
v -1.6 1.7 0.7
v -1.6 1.7 0.6
v -1.6 1.7 -0.7
v -1.6 1.7 -0.8
v -1.6 1.9 0.7
v -1.6 1.9 0.6
v -1.6 1.9 -0.7
v -1.6 1.9 -0.8
v -1.5 0 0.9
v -1.5 0 0.8
v -1.5 0 0.7
v -1.5 0 -0.8
v -1.5 0 -1
v -1.5 0.6 0.8
v -1.5 0.6 0.7
v -1.5 0.7 0.8
v -1.5 0.7 0.7
v -1.5 1 -0.8
v -1.5 1 -1
v -1.5 1.1 0.7
v -1.5 1.1 -0.8
v -1.5 1.1 -0.9
v -1.5 1.2 0.7
v -1.5 1.3 0.8
v -1.5 1.3 0.7
v -1.5 1.4 0.8
v -1.5 1.4 0.7
v -1.5 1.6 0.9
v -1.5 1.6 0.8
v -1.5 1.6 0.7
v -1.5 1.6 -0.8
v -1.5 1.6 -0.9
v -1.5 1.6 -1
v -1.5 1.7 0.9
v -1.5 1.7 0.7
v -1.5 1.7 -0.8
v -1.5 1.7 -1
v -1.5 1.9 0.9
v -1.5 1.9 0.7
v -1.5 1.9 0.3
v -1.5 1.9 -0.4
v -1.5 1.9 -0.8
v -1.5 1.9 -1
v -1.5 2.1 0.3
v -1.5 2.1 -0.4
v -1.5 2.4 0.3
v -1.5 2.4 -0.4
v -1.4 0 1
v -1.4 0 0.9
v -1.4 0 -1
v -1.4 0 -1.1
v -1.4 0.6 1
v -1.4 0.6 0.9
v -1.4 0.7 1
v -1.4 0.7 0.9
v -1.4 1 -1
v -1.4 1.1 -1
v -1.4 1.1 -1.1
v -1.4 1.3 1
v -1.4 1.3 0.9
v -1.4 1.4 1
v -1.4 1.4 0.9
v -1.4 1.6 1
v -1.4 1.6 0.9
v -1.4 1.6 -1
v -1.4 1.6 -1.1
v -1.4 1.7 1
v -1.4 1.7 0.9
v -1.4 1.7 -1
v -1.4 1.7 -1.1
v -1.4 1.9 1
v -1.4 1.9 0.9
v -1.4 1.9 0.5
v -1.4 1.9 0.3
v -1.4 1.9 -0.4
v -1.4 1.9 -0.6
v -1.4 1.9 -1
v -1.4 1.9 -1.1
v -1.4 2.1 0.5
v -1.4 2.1 0.3
v -1.4 2.1 -0.4
v -1.4 2.1 -0.6
v -1.4 2.4 0.5
v -1.4 2.4 0.3
v -1.4 2.4 -0.4
v -1.4 2.4 -0.6
v -1.3 1.9 0.6
v -1.3 1.9 0.5
v -1.3 1.9 -0.6
v -1.3 1.9 -0.7
v -1.3 2.1 0.6
v -1.3 2.1 0.5
v -1.3 2.1 -0.6
v -1.3 2.1 -0.7
v -1.3 2.4 0.6
v -1.3 2.4 0.5
v -1.3 2.4 -0.6
v -1.3 2.4 -0.7
v -1.2 0 1.1
v -1.2 0 1
v -1.2 0 -1.1
v -1.2 0 -1.2
v -1.2 0.6 1.1
v -1.2 0.6 1
v -1.2 0.7 1.1
v -1.2 0.7 1
v -1.2 1 -1.1
v -1.2 1.1 -1.1
v -1.2 1.1 -1.2
v -1.2 1.2 1.1
v -1.2 1.2 1
v -1.2 1.4 1.1
v -1.2 1.4 1
v -1.2 1.6 1.1
v -1.2 1.6 1
v -1.2 1.6 -1.1
v -1.2 1.6 -1.2
v -1.2 1.7 1.1
v -1.2 1.7 1
v -1.2 1.7 -1.1
v -1.2 1.7 -1.2
v -1.2 1.9 1.1
v -1.2 1.9 1
v -1.2 1.9 0.7
v -1.2 1.9 0.6
v -1.2 1.9 -0.7
v -1.2 1.9 -0.8
v -1.2 1.9 -1.1
v -1.2 1.9 -1.2
v -1.2 2.1 0.7
v -1.2 2.1 0.6
v -1.2 2.1 -0.7
v -1.2 2.1 -0.8
v -1.2 2.4 0.7
v -1.2 2.4 0.6
v -1.2 2.4 -0.7
v -1.2 2.4 -0.8
v -1.1 0 -1.2
v -1.1 0 -1.3
v -1.1 1.1 -1.2
v -1.1 1.6 -1.2
v -1.1 1.6 -1.3
v -1.1 1.7 -1.2
v -1.1 1.7 -1.3
v -1.1 1.9 0.8
v -1.1 1.9 0.7
v -1.1 1.9 -0.8
v -1.1 1.9 -0.9
v -1.1 1.9 -1.2
v -1.1 1.9 -1.3
v -1.1 2.1 0.8
v -1.1 2.1 0.7
v -1.1 2.1 -0.8
v -1.1 2.1 -0.9
v -1.1 2.4 0.8
v -1.1 2.4 0.7
v -1.1 2.4 -0.8
v -1.1 2.4 -0.9
v -1 0.2 1.2
v -1 0.2 1.1
v -1 0.6 1.1
v -1 0.7 1.1
v -1 1.2 1.1
v -1 1.3 1.1
v -1 1.6 1.1
v -1 1.7 1.2
v -1 1.7 1.1
v -1 1.9 0.9
v -1 1.9 0.8
v -1 1.9 -0.9
v -1 1.9 -1
v -1 2.1 0.9
v -1 2.1 0.8
v -1 2.1 -0.9
v -1 2.1 -1
v -1 2.4 0.9
v -1 2.4 0.8
v -1 2.4 0.7
v -1 2.4 0.6
v -1 2.4 -0.7
v -1 2.4 -0.8
v -1 2.4 -0.9
v -1 2.4 -1
v -1 9.3 0.7
v -1 9.3 0.6
v -1 9.3 -0.7
v -1 9.3 -0.8
v -0.8 0 -1.3
v -0.8 0 -1.4
v -0.8 0.3 1.1
v -0.8 0.3 1
v -0.8 0.6 -1.3
v -0.8 0.7 -1.3
v -0.8 0.7 -1.4
v -0.8 0.8 -1.3
v -0.8 0.8 -1.4
v -0.8 1.3 -1.3
v -0.8 1.3 -1.4
v -0.8 1.4 -1.3
v -0.8 1.4 -1.4
v -0.8 1.5 1.1
v -0.8 1.5 1
v -0.8 1.5 -1.3
v -0.8 1.6 -1.3
v -0.8 1.6 -1.4
v -0.8 1.7 -1.3
v -0.8 1.7 -1.4
v -0.8 1.9 1
v -0.8 1.9 0.9
v -0.8 1.9 -1
v -0.8 1.9 -1.1
v -0.8 1.9 -1.3
v -0.8 1.9 -1.4
v -0.8 2.1 1
v -0.8 2.1 0.9
v -0.8 2.1 -1
v -0.8 2.1 -1.1
v -0.8 2.4 1
v -0.8 2.4 0.9
v -0.8 2.4 -1
v -0.8 2.4 -1.1
v -0.7 0.5 1.2
v -0.7 0.5 1.1
v -0.7 0.6 1.2
v -0.7 0.6 1.1
v -0.7 0.7 1.2
v -0.7 0.7 1.1
v -0.7 0.9 1.2
v -0.7 0.9 1.1
v -0.7 1 1.2
v -0.7 1 1.1
v -0.7 1.4 1.2
v -0.7 1.4 1.1
v -0.6 0.4 1.2
v -0.6 0.4 1.1
v -0.6 0.5 1.2
v -0.6 0.5 1.1
v 1.19209e-07 0.3 1.2
v 1.19209e-07 0.3 1
v 1.19209e-07 1.6 1.2
v 1.19209e-07 1.6 1
v 1.19209e-07 2.4 0.7
v 1.19209e-07 2.4 0.6
v 1.19209e-07 2.4 -0.7
v 1.19209e-07 2.4 -0.8
v 1.19209e-07 9.3 0.7
v 1.19209e-07 9.3 0.6
v 1.19209e-07 9.3 -0.7
v 1.19209e-07 9.3 -0.8
v -0.9 0.3 1.2
v -0.9 0.3 1
v -0.9 1.6 1.2
v -0.9 1.6 1
v -0.9 2.4 0.7
v -0.9 2.4 0.6
v -0.9 2.4 -0.7
v -0.9 2.4 -0.8
v -0.9 9.3 0.7
v -0.9 9.3 0.6
v -0.9 9.3 -0.7
v -0.9 9.3 -0.8
v -0.5 0.7 1.2
v -0.5 0.7 1.1
v -0.5 0.9 1.2
v -0.5 0.9 1.1
v -0.4 0.5 1.2
v -0.4 0.5 1.1
v -0.4 0.6 1.2
v -0.4 0.6 1.1
v -0.3 0.4 1.2
v -0.3 0.4 1.1
v -0.3 0.5 1.2
v -0.3 0.5 1.1
v -0.2 1 1.2
v -0.2 1 1.1
v -0.2 1.4 1.2
v -0.2 1.4 1.1
v -0.0999998 0 -1.3
v -0.0999998 0 -1.4
v -0.0999998 0.3 1.1
v -0.0999998 0.3 1
v -0.0999998 0.6 -1.3
v -0.0999998 0.7 -1.3
v -0.0999998 0.7 -1.4
v -0.0999998 0.8 -1.3
v -0.0999998 0.8 -1.4
v -0.0999998 1.3 -1.3
v -0.0999998 1.3 -1.4
v -0.0999998 1.4 -1.3
v -0.0999998 1.4 -1.4
v -0.0999998 1.5 1.1
v -0.0999998 1.5 1
v -0.0999998 1.5 -1.3
v -0.0999998 1.6 -1.3
v -0.0999998 1.6 -1.4
v -0.0999998 1.7 -1.3
v -0.0999998 1.7 -1.4
v -0.0999998 1.9 1
v -0.0999998 1.9 0.9
v -0.0999998 1.9 -1
v -0.0999998 1.9 -1.1
v -0.0999998 1.9 -1.3
v -0.0999998 1.9 -1.4
v -0.0999998 2.1 1
v -0.0999998 2.1 0.9
v -0.0999998 2.1 -1
v -0.0999998 2.1 -1.1
v -0.0999998 2.4 1
v -0.0999998 2.4 0.9
v -0.0999998 2.4 -1
v -0.0999998 2.4 -1.1
v 0.1 0.2 1.2
v 0.1 0.2 1.1
v 0.1 1.7 1.2
v 0.1 1.7 1.1
v 0.1 1.9 0.9
v 0.1 1.9 0.8
v 0.1 1.9 -0.9
v 0.1 1.9 -1
v 0.1 2.1 0.9
v 0.1 2.1 0.8
v 0.1 2.1 -0.9
v 0.1 2.1 -1
v 0.1 2.4 0.9
v 0.1 2.4 0.8
v 0.1 2.4 0.7
v 0.1 2.4 0.6
v 0.1 2.4 -0.7
v 0.1 2.4 -0.8
v 0.1 2.4 -0.9
v 0.1 2.4 -1
v 0.1 9.3 0.7
v 0.1 9.3 0.6
v 0.1 9.3 -0.7
v 0.1 9.3 -0.8
v 0.2 0 -1.2
v 0.2 0 -1.3
v 0.2 1.6 -1.2
v 0.2 1.6 -1.3
v 0.2 1.7 -1.2
v 0.2 1.7 -1.3
v 0.2 1.9 0.8
v 0.2 1.9 0.7
v 0.2 1.9 -0.8
v 0.2 1.9 -0.9
v 0.2 1.9 -1.2
v 0.2 1.9 -1.3
v 0.2 2.1 0.8
v 0.2 2.1 0.7
v 0.2 2.1 -0.8
v 0.2 2.1 -0.9
v 0.2 2.4 0.8
v 0.2 2.4 0.7
v 0.2 2.4 -0.8
v 0.2 2.4 -0.9
v 0.3 0 1.1
v 0.3 0 1
v 0.3 0 -1.1
v 0.3 0 -1.2
v 0.3 1.6 -1.1
v 0.3 1.6 -1.2
v 0.3 1.7 -1.1
v 0.3 1.7 -1.2
v 0.3 1.9 1.1
v 0.3 1.9 1
v 0.3 1.9 0.7
v 0.3 1.9 0.6
v 0.3 1.9 -0.7
v 0.3 1.9 -0.8
v 0.3 1.9 -1.1
v 0.3 1.9 -1.2
v 0.3 2.1 0.7
v 0.3 2.1 0.6
v 0.3 2.1 -0.7
v 0.3 2.1 -0.8
v 0.3 2.4 0.7
v 0.3 2.4 0.6
v 0.3 2.4 -0.7
v 0.3 2.4 -0.8
v 0.4 1.9 0.6
v 0.4 1.9 0.5
v 0.4 1.9 -0.6
v 0.4 1.9 -0.7
v 0.4 2.1 0.6
v 0.4 2.1 0.5
v 0.4 2.1 -0.6
v 0.4 2.1 -0.7
v 0.4 2.4 0.6
v 0.4 2.4 0.5
v 0.4 2.4 -0.6
v 0.4 2.4 -0.7
v 0.5 0 1
v 0.5 0 0.9
v 0.5 0 -1
v 0.5 0 -1.1
v 0.5 1.6 -1
v 0.5 1.6 -1.1
v 0.5 1.7 -1
v 0.5 1.7 -1.1
v 0.5 1.9 1
v 0.5 1.9 0.9
v 0.5 1.9 0.5
v 0.5 1.9 0.3
v 0.5 1.9 -0.4
v 0.5 1.9 -0.6
v 0.5 1.9 -1
v 0.5 1.9 -1.1
v 0.5 2.1 0.5
v 0.5 2.1 0.3
v 0.5 2.1 -0.4
v 0.5 2.1 -0.6
v 0.5 2.4 0.5
v 0.5 2.4 0.3
v 0.5 2.4 -0.4
v 0.5 2.4 -0.6
v 0.6 0 0.9
v 0.6 0 0.7
v 0.6 0 -0.8
v 0.6 0 -1
v 0.6 1.6 -0.8
v 0.6 1.6 -1
v 0.6 1.7 0.7
v 0.6 1.7 -0.8
v 0.6 1.7 -1
v 0.6 1.9 0.9
v 0.6 1.9 0.7
v 0.6 1.9 0.3
v 0.6 1.9 -0.4
v 0.6 1.9 -0.8
v 0.6 1.9 -1
v 0.6 2.1 0.3
v 0.6 2.1 -0.4
v 0.6 2.4 0.3
v 0.6 2.4 -0.4
v 0.7 0 0.7
v 0.7 0 0.6
v 0.7 0 -0.7
v 0.7 0 -0.8
v 0.7 0.7 0.6
v 0.7 0.8 0.6
v 0.7 0.9 0.6
v 0.7 1 0.6
v 0.7 1.1 0.6
v 0.7 1.2 0.6
v 0.7 1.3 0.6
v 0.7 1.4 0.6
v 0.7 1.5 0.6
v 0.7 1.6 0.6
v 0.7 1.6 -0.7
v 0.7 1.6 -0.8
v 0.7 1.7 0.7
v 0.7 1.7 0.6
v 0.7 1.7 -0.7
v 0.7 1.7 -0.8
v 0.7 1.9 0.7
v 0.7 1.9 0.6
v 0.7 1.9 -0.7
v 0.7 1.9 -0.8
v 0.8 0 0.6
v 0.8 0 0.3
v 0.8 0 -0.4
v 0.8 0 -0.7
v 0.8 0.5 -0.5
v 0.8 0.5 -0.6
v 0.8 0.6 -0.4
v 0.8 0.6 -0.5
v 0.8 0.6 -0.6
v 0.8 0.7 0.6
v 0.8 0.7 0.3
v 0.8 0.7 -0.4
v 0.8 0.7 -0.5
v 0.8 0.8 0.6
v 0.8 0.8 0.3
v 0.8 0.8 -0.4
v 0.8 0.9 0.6
v 0.8 0.9 0.3
v 0.8 1 0.6
v 0.8 1 0.3
v 0.8 1.1 0.6
v 0.8 1.1 0.3
v 0.8 1.2 0.6
v 0.8 1.2 0.3
v 0.8 1.3 0.6
v 0.8 1.3 0.3
v 0.8 1.4 0.6
v 0.8 1.4 0.3
v 0.8 1.5 0.6
v 0.8 1.5 0.3
v 0.8 1.5 -0.4
v 0.8 1.6 0.6
v 0.8 1.6 0.3
v 0.8 1.6 -0.4
v 0.8 1.6 -0.7
v 0.8 1.7 0.6
v 0.8 1.7 0.3
v 0.8 1.7 -0.4
v 0.8 1.7 -0.7
v 0.8 1.9 0.6
v 0.8 1.9 0.3
v 0.8 1.9 -0.4
v 0.8 1.9 -0.7
v 0.9 0 0.3
v 0.9 0 -0.4
v 0.9 0.7 0.3
v 0.9 0.7 -0.1
v 0.9 0.7 -0.3
v 0.9 0.7 -0.4
v 0.9 0.8 0.3
v 0.9 0.8 -1.19209e-07
v 0.9 0.8 -0.1
v 0.9 0.8 -0.3
v 0.9 0.8 -0.4
v 0.9 0.9 0.3
v 0.9 0.9 -1.19209e-07
v 0.9 0.9 -0.2
v 0.9 1 0.3
v 0.9 1 0.0999999
v 0.9 1 -1.19209e-07
v 0.9 1 -0.1
v 0.9 1.1 0.3
v 0.9 1.1 0.2
v 0.9 1.1 0.0999999
v 0.9 1.1 -1.19209e-07
v 0.9 1.2 0.3
v 0.9 1.2 0.2
v 0.9 1.2 0.0999999
v 0.9 1.2 -1.19209e-07
v 0.9 1.3 0.3
v 0.9 1.3 0.0999999
v 0.9 1.3 -1.19209e-07
v 0.9 1.3 -0.1
v 0.9 1.4 0.3
v 0.9 1.4 -1.19209e-07
v 0.9 1.4 -0.2
v 0.9 1.5 0.3
v 0.9 1.5 -1.19209e-07
v 0.9 1.5 -0.1
v 0.9 1.5 -0.3
v 0.9 1.5 -0.4
v 0.9 1.6 0.3
v 0.9 1.6 -0.1
v 0.9 1.6 -0.3
v 0.9 1.6 -0.4
v 0.9 1.7 0.3
v 0.9 1.7 -0.4
v 0.9 1.9 0.3
v 0.9 1.9 -0.4
v -1 0.2 1.2
v -1 1.7 1.2
v -0.9 0.3 1.2
v -0.9 1.6 1.2
v -0.7 0.5 1.2
v -0.7 0.6 1.2
v -0.7 0.7 1.2
v -0.7 0.9 1.2
v -0.7 1 1.2
v -0.7 1.4 1.2
v -0.6 0.4 1.2
v -0.6 0.5 1.2
v -0.5 0.7 1.2
v -0.5 0.9 1.2
v -0.4 0.5 1.2
v -0.4 0.6 1.2
v -0.3 0.4 1.2
v -0.3 0.5 1.2
v -0.2 1 1.2
v -0.2 1.4 1.2
v 1.19209e-07 0.3 1.2
v 1.19209e-07 1.6 1.2
v 0.1 0.2 1.2
v 0.1 1.7 1.2
v -1.2 0 1.1
v -1.2 0.6 1.1
v -1.2 0.7 1.1
v -1.2 1.2 1.1
v -1.2 1.4 1.1
v -1.2 1.6 1.1
v -1.2 1.7 1.1
v -1.2 1.9 1.1
v -1.1 1.3 1.1
v -1.1 1.4 1.1
v -1 0.2 1.1
v -1 0.6 1.1
v -1 0.7 1.1
v -1 1.2 1.1
v -1 1.3 1.1
v -1 1.6 1.1
v -1 1.7 1.1
v -0.8 0.3 1.1
v -0.8 1.5 1.1
v -0.7 0.3 1.1
v -0.7 0.4 1.1
v -0.7 0.5 1.1
v -0.7 0.6 1.1
v -0.7 0.7 1.1
v -0.7 0.9 1.1
v -0.7 1 1.1
v -0.7 1.4 1.1
v -0.6 0.4 1.1
v -0.6 0.5 1.1
v -0.5 0.7 1.1
v -0.5 0.9 1.1
v -0.4 0.5 1.1
v -0.4 0.6 1.1
v -0.3 0.4 1.1
v -0.3 0.5 1.1
v -0.3 0.7 1.1
v -0.3 0.9 1.1
v -0.2 0.3 1.1
v -0.2 0.9 1.1
v -0.2 1 1.1
v -0.2 1.4 1.1
v -0.0999998 0.3 1.1
v -0.0999998 1.5 1.1
v 0.1 0.2 1.1
v 0.1 1.7 1.1
v 0.3 0 1.1
v 0.3 1.9 1.1
v -1.4 0 1
v -1.4 0.6 1
v -1.4 0.7 1
v -1.4 1.3 1
v -1.4 1.4 1
v -1.4 1.6 1
v -1.4 1.7 1
v -1.4 1.9 1
v -1.3 1.2 1
v -1.3 1.3 1
v -1.2 0 1
v -1.2 0.6 1
v -1.2 0.7 1
v -1.2 1.2 1
v -1.2 1.4 1
v -1.2 1.6 1
v -1.2 1.7 1
v -1.2 1.9 1
v -0.9 0.3 1
v -0.9 1.6 1
v -0.8 0.3 1
v -0.8 1.5 1
v -0.8 1.9 1
v -0.8 2.1 1
v -0.8 2.4 1
v -0.0999998 0.3 1
v -0.0999998 1.5 1
v -0.0999998 1.9 1
v -0.0999998 2.1 1
v -0.0999998 2.4 1
v 1.19209e-07 0.3 1
v 1.19209e-07 1.6 1
v 0.3 0 1
v 0.3 1.9 1
v 0.5 0 1
v 0.5 1.9 1
v -1.5 0 0.9
v -1.5 1.6 0.9
v -1.5 1.7 0.9
v -1.5 1.9 0.9
v -1.4 0 0.9
v -1.4 0.6 0.9
v -1.4 0.7 0.9
v -1.4 1.3 0.9
v -1.4 1.4 0.9
v -1.4 1.6 0.9
v -1.4 1.7 0.9
v -1.4 1.9 0.9
v -1 1.9 0.9
v -1 2.1 0.9
v -1 2.4 0.9
v -0.8 1.9 0.9
v -0.8 2.1 0.9
v -0.8 2.4 0.9
v -0.0999998 1.9 0.9
v -0.0999998 2.1 0.9
v -0.0999998 2.4 0.9
v 0.1 1.9 0.9
v 0.1 2.1 0.9
v 0.1 2.4 0.9
v 0.5 0 0.9
v 0.5 1.9 0.9
v 0.6 0 0.9
v 0.6 1.9 0.9
v -1.1 1.9 0.8
v -1.1 2.1 0.8
v -1.1 2.4 0.8
v -1 1.9 0.8
v -1 2.1 0.8
v -1 2.4 0.8
v 0.1 1.9 0.8
v 0.1 2.1 0.8
v 0.1 2.4 0.8
v 0.2 1.9 0.8
v 0.2 2.1 0.8
v 0.2 2.4 0.8
v -1.6 0 0.7
v -1.6 0.6 0.7
v -1.6 0.7 0.7
v -1.6 1.1 0.7
v -1.6 1.2 0.7
v -1.6 1.3 0.7
v -1.6 1.4 0.7
v -1.6 1.6 0.7
v -1.6 1.7 0.7
v -1.6 1.9 0.7
v -1.5 0 0.7
v -1.5 0.6 0.7
v -1.5 0.7 0.7
v -1.5 1.1 0.7
v -1.5 1.2 0.7
v -1.5 1.3 0.7
v -1.5 1.4 0.7
v -1.5 1.6 0.7
v -1.5 1.7 0.7
v -1.5 1.9 0.7
v -1.2 1.9 0.7
v -1.2 2.1 0.7
v -1.2 2.4 0.7
v -1.1 1.9 0.7
v -1.1 2.1 0.7
v -1.1 2.4 0.7
v -1 2.4 0.7
v -1 9.3 0.7
v -0.9 2.4 0.7
v -0.9 9.3 0.7
v 1.19209e-07 2.4 0.7
v 1.19209e-07 9.3 0.7
v 0.1 2.4 0.7
v 0.1 9.3 0.7
v 0.2 1.9 0.7
v 0.2 2.1 0.7
v 0.2 2.4 0.7
v 0.3 1.9 0.7
v 0.3 2.1 0.7
v 0.3 2.4 0.7
v 0.6 0 0.7
v 0.6 1.7 0.7
v 0.6 1.9 0.7
v 0.7 0 0.7
v 0.7 1.7 0.7
v 0.7 1.9 0.7
v -1.7 0 0.6
v -1.7 0.7 0.6
v -1.7 1.3 0.6
v -1.7 1.4 0.6
v -1.7 1.6 0.6
v -1.7 1.7 0.6
v -1.7 1.9 0.6
v -1.6 0 0.6
v -1.6 0.6 0.6
v -1.6 0.7 0.6
v -1.6 1.1 0.6
v -1.6 1.2 0.6
v -1.6 1.3 0.6
v -1.6 1.4 0.6
v -1.6 1.6 0.6
v -1.6 1.7 0.6
v -1.6 1.9 0.6
v -1.3 1.9 0.6
v -1.3 2.1 0.6
v -1.3 2.4 0.6
v -1.2 1.9 0.6
v -1.2 2.1 0.6
v -1.2 2.4 0.6
v 0.3 1.9 0.6
v 0.3 2.1 0.6
v 0.3 2.4 0.6
v 0.4 1.9 0.6
v 0.4 2.1 0.6
v 0.4 2.4 0.6
v 0.7 0 0.6
v 0.7 0.7 0.6
v 0.7 0.8 0.6
v 0.7 0.9 0.6
v 0.7 1 0.6
v 0.7 1.1 0.6
v 0.7 1.2 0.6
v 0.7 1.3 0.6
v 0.7 1.4 0.6
v 0.7 1.5 0.6
v 0.7 1.6 0.6
v 0.7 1.7 0.6
v 0.7 1.9 0.6
v 0.8 0 0.6
v 0.8 0.7 0.6
v 0.8 0.8 0.6
v 0.8 0.9 0.6
v 0.8 1 0.6
v 0.8 1.1 0.6
v 0.8 1.2 0.6
v 0.8 1.3 0.6
v 0.8 1.4 0.6
v 0.8 1.5 0.6
v 0.8 1.6 0.6
v 0.8 1.7 0.6
v 0.8 1.9 0.6
v -1.4 1.9 0.5
v -1.4 2.1 0.5
v -1.4 2.4 0.5
v -1.3 1.9 0.5
v -1.3 2.1 0.5
v -1.3 2.4 0.5
v 0.4 1.9 0.5
v 0.4 2.1 0.5
v 0.4 2.4 0.5
v 0.5 1.9 0.5
v 0.5 2.1 0.5
v 0.5 2.4 0.5
v -1.8 0 0.3
v -1.8 0.6 0.3
v -1.8 0.8 0.3
v -1.8 1.3 0.3
v -1.8 1.4 0.3
v -1.8 1.6 0.3
v -1.8 1.7 0.3
v -1.8 1.9 0.3
v -1.7 0 0.3
v -1.7 0.6 0.3
v -1.7 0.7 0.3
v -1.7 0.8 0.3
v -1.7 1.3 0.3
v -1.7 1.4 0.3
v -1.7 1.6 0.3
v -1.7 1.7 0.3
v -1.7 1.9 0.3
v -1.5 1.9 0.3
v -1.5 2.1 0.3
v -1.5 2.4 0.3
v -1.4 1.9 0.3
v -1.4 2.1 0.3
v -1.4 2.4 0.3
v 0.5 1.9 0.3
v 0.5 2.1 0.3
v 0.5 2.4 0.3
v 0.6 1.9 0.3
v 0.6 2.1 0.3
v 0.6 2.4 0.3
v 0.8 0 0.3
v 0.8 0.7 0.3
v 0.8 0.8 0.3
v 0.8 0.9 0.3
v 0.8 1 0.3
v 0.8 1.1 0.3
v 0.8 1.2 0.3
v 0.8 1.3 0.3
v 0.8 1.4 0.3
v 0.8 1.5 0.3
v 0.8 1.6 0.3
v 0.8 1.7 0.3
v 0.8 1.9 0.3
v 0.9 0 0.3
v 0.9 0.7 0.3
v 0.9 0.8 0.3
v 0.9 0.9 0.3
v 0.9 1 0.3
v 0.9 1.1 0.3
v 0.9 1.2 0.3
v 0.9 1.3 0.3
v 0.9 1.4 0.3
v 0.9 1.5 0.3
v 0.9 1.6 0.3
v 0.9 1.7 0.3
v 0.9 1.9 0.3
v -1 2.4 -0.7
v -1 9.3 -0.7
v -0.9 2.4 -0.7
v -0.9 9.3 -0.7
v 1.19209e-07 2.4 -0.7
v 1.19209e-07 9.3 -0.7
v 0.1 2.4 -0.7
v 0.1 9.3 -0.7
v -1 2.4 0.6
v -1 9.3 0.6
v -0.9 2.4 0.6
v -0.9 9.3 0.6
v 1.19209e-07 2.4 0.6
v 1.19209e-07 9.3 0.6
v 0.1 2.4 0.6
v 0.1 9.3 0.6
v -1.8 0 -0.4
v -1.8 1 -0.4
v -1.8 1.1 -0.4
v -1.8 1.6 -0.4
v -1.8 1.7 -0.4
v -1.8 1.9 -0.4
v -1.7 0 -0.4
v -1.7 1 -0.4
v -1.7 1.1 -0.4
v -1.7 1.6 -0.4
v -1.7 1.7 -0.4
v -1.7 1.9 -0.4
v -1.5 1.9 -0.4
v -1.5 2.1 -0.4
v -1.5 2.4 -0.4
v -1.4 1.9 -0.4
v -1.4 2.1 -0.4
v -1.4 2.4 -0.4
v 0.5 1.9 -0.4
v 0.5 2.1 -0.4
v 0.5 2.4 -0.4
v 0.6 1.9 -0.4
v 0.6 2.1 -0.4
v 0.6 2.4 -0.4
v 0.8 0 -0.4
v 0.8 0.6 -0.4
v 0.8 0.7 -0.4
v 0.8 0.8 -0.4
v 0.8 1.5 -0.4
v 0.8 1.6 -0.4
v 0.8 1.7 -0.4
v 0.8 1.9 -0.4
v 0.9 0 -0.4
v 0.9 0.7 -0.4
v 0.9 0.8 -0.4
v 0.9 1.5 -0.4
v 0.9 1.6 -0.4
v 0.9 1.7 -0.4
v 0.9 1.9 -0.4
v -1.4 1.9 -0.6
v -1.4 2.1 -0.6
v -1.4 2.4 -0.6
v -1.3 1.9 -0.6
v -1.3 2.1 -0.6
v -1.3 2.4 -0.6
v 0.4 1.9 -0.6
v 0.4 2.1 -0.6
v 0.4 2.4 -0.6
v 0.5 1.9 -0.6
v 0.5 2.1 -0.6
v 0.5 2.4 -0.6
v -1.7 0 -0.7
v -1.7 1 -0.7
v -1.7 1.1 -0.7
v -1.7 1.6 -0.7
v -1.7 1.7 -0.7
v -1.7 1.9 -0.7
v -1.6 0 -0.7
v -1.6 1 -0.7
v -1.6 1.1 -0.7
v -1.6 1.6 -0.7
v -1.6 1.7 -0.7
v -1.6 1.9 -0.7
v -1.3 1.9 -0.7
v -1.3 2.1 -0.7
v -1.3 2.4 -0.7
v -1.2 1.9 -0.7
v -1.2 2.1 -0.7
v -1.2 2.4 -0.7
v 0.3 1.9 -0.7
v 0.3 2.1 -0.7
v 0.3 2.4 -0.7
v 0.4 1.9 -0.7
v 0.4 2.1 -0.7
v 0.4 2.4 -0.7
v 0.7 0 -0.7
v 0.7 1.6 -0.7
v 0.7 1.7 -0.7
v 0.7 1.9 -0.7
v 0.8 0 -0.7
v 0.8 1.6 -0.7
v 0.8 1.7 -0.7
v 0.8 1.9 -0.7
v -1.6 0 -0.8
v -1.6 1 -0.8
v -1.6 1.1 -0.8
v -1.6 1.6 -0.8
v -1.6 1.7 -0.8
v -1.6 1.9 -0.8
v -1.5 0 -0.8
v -1.5 1 -0.8
v -1.5 1.1 -0.8
v -1.5 1.6 -0.8
v -1.5 1.7 -0.8
v -1.5 1.9 -0.8
v -1.2 1.9 -0.8
v -1.2 2.1 -0.8
v -1.2 2.4 -0.8
v -1.1 1.9 -0.8
v -1.1 2.1 -0.8
v -1.1 2.4 -0.8
v -1 2.4 -0.8
v -1 9.3 -0.8
v -0.9 2.4 -0.8
v -0.9 9.3 -0.8
v 1.19209e-07 2.4 -0.8
v 1.19209e-07 9.3 -0.8
v 0.1 2.4 -0.8
v 0.1 9.3 -0.8
v 0.2 1.9 -0.8
v 0.2 2.1 -0.8
v 0.2 2.4 -0.8
v 0.3 1.9 -0.8
v 0.3 2.1 -0.8
v 0.3 2.4 -0.8
v 0.6 0 -0.8
v 0.6 1.6 -0.8
v 0.6 1.7 -0.8
v 0.6 1.9 -0.8
v 0.7 0 -0.8
v 0.7 1.6 -0.8
v 0.7 1.7 -0.8
v 0.7 1.9 -0.8
v -1.1 1.9 -0.9
v -1.1 2.1 -0.9
v -1.1 2.4 -0.9
v -1 1.9 -0.9
v -1 2.1 -0.9
v -1 2.4 -0.9
v 0.1 1.9 -0.9
v 0.1 2.1 -0.9
v 0.1 2.4 -0.9
v 0.2 1.9 -0.9
v 0.2 2.1 -0.9
v 0.2 2.4 -0.9
v -1.5 0 -1
v -1.5 1 -1
v -1.5 1.6 -1
v -1.5 1.7 -1
v -1.5 1.9 -1
v -1.4 0 -1
v -1.4 1 -1
v -1.4 1.1 -1
v -1.4 1.6 -1
v -1.4 1.7 -1
v -1.4 1.9 -1
v -1 1.9 -1
v -1 2.1 -1
v -1 2.4 -1
v -0.8 1.9 -1
v -0.8 2.1 -1
v -0.8 2.4 -1
v -0.0999998 1.9 -1
v -0.0999998 2.1 -1
v -0.0999998 2.4 -1
v 0.1 1.9 -1
v 0.1 2.1 -1
v 0.1 2.4 -1
v 0.5 0 -1
v 0.5 1.6 -1
v 0.5 1.7 -1
v 0.5 1.9 -1
v 0.6 0 -1
v 0.6 1.6 -1
v 0.6 1.7 -1
v 0.6 1.9 -1
v -1.4 0 -1.1
v -1.4 1.1 -1.1
v -1.4 1.6 -1.1
v -1.4 1.7 -1.1
v -1.4 1.9 -1.1
v -1.3 0 -1.1
v -1.3 1 -1.1
v -1.2 0 -1.1
v -1.2 1 -1.1
v -1.2 1.1 -1.1
v -1.2 1.6 -1.1
v -1.2 1.7 -1.1
v -1.2 1.9 -1.1
v -0.8 1.9 -1.1
v -0.8 2.1 -1.1
v -0.8 2.4 -1.1
v -0.0999998 1.9 -1.1
v -0.0999998 2.1 -1.1
v -0.0999998 2.4 -1.1
v 0.3 0 -1.1
v 0.3 1.6 -1.1
v 0.3 1.7 -1.1
v 0.3 1.9 -1.1
v 0.5 0 -1.1
v 0.5 1.6 -1.1
v 0.5 1.7 -1.1
v 0.5 1.9 -1.1
v -1.2 0 -1.2
v -1.2 1.1 -1.2
v -1.2 1.6 -1.2
v -1.2 1.7 -1.2
v -1.2 1.9 -1.2
v -1.1 0 -1.2
v -1.1 1.1 -1.2
v -1.1 1.6 -1.2
v -1.1 1.7 -1.2
v -1.1 1.9 -1.2
v 0.2 0 -1.2
v 0.2 1.6 -1.2
v 0.2 1.7 -1.2
v 0.2 1.9 -1.2
v 0.3 0 -1.2
v 0.3 1.6 -1.2
v 0.3 1.7 -1.2
v 0.3 1.9 -1.2
v -1.1 0 -1.3
v -1.1 1.6 -1.3
v -1.1 1.7 -1.3
v -1.1 1.9 -1.3
v -1 0.5 -1.3
v -1 0.6 -1.3
v -1 1.5 -1.3
v -1 1.6 -1.3
v -0.9 0.5 -1.3
v -0.9 0.6 -1.3
v -0.9 0.7 -1.3
v -0.9 0.8 -1.3
v -0.9 1.3 -1.3
v -0.9 1.4 -1.3
v -0.9 1.5 -1.3
v -0.9 1.6 -1.3
v -0.8 0 -1.3
v -0.8 0.6 -1.3
v -0.8 0.7 -1.3
v -0.8 0.8 -1.3
v -0.8 1.3 -1.3
v -0.8 1.4 -1.3
v -0.8 1.5 -1.3
v -0.8 1.6 -1.3
v -0.8 1.7 -1.3
v -0.8 1.9 -1.3
v -0.0999998 0 -1.3
v -0.0999998 0.6 -1.3
v -0.0999998 0.7 -1.3
v -0.0999998 0.8 -1.3
v -0.0999998 1.3 -1.3
v -0.0999998 1.4 -1.3
v -0.0999998 1.5 -1.3
v -0.0999998 1.6 -1.3
v -0.0999998 1.7 -1.3
v -0.0999998 1.9 -1.3
v 1.19209e-07 0.5 -1.3
v 1.19209e-07 0.6 -1.3
v 1.19209e-07 0.7 -1.3
v 1.19209e-07 0.8 -1.3
v 1.19209e-07 1.3 -1.3
v 1.19209e-07 1.4 -1.3
v 1.19209e-07 1.5 -1.3
v 1.19209e-07 1.6 -1.3
v 0.1 0.5 -1.3
v 0.1 0.6 -1.3
v 0.1 1.5 -1.3
v 0.1 1.6 -1.3
v 0.2 0 -1.3
v 0.2 1.6 -1.3
v 0.2 1.7 -1.3
v 0.2 1.9 -1.3
v -0.8 0 -1.4
v -0.8 0.7 -1.4
v -0.8 0.8 -1.4
v -0.8 1.3 -1.4
v -0.8 1.4 -1.4
v -0.8 1.6 -1.4
v -0.8 1.7 -1.4
v -0.8 1.9 -1.4
v -0.7 0.6 -1.4
v -0.7 0.7 -1.4
v -0.7 0.8 -1.4
v -0.7 0.9 -1.4
v -0.7 1.2 -1.4
v -0.7 1.3 -1.4
v -0.7 1.4 -1.4
v -0.7 1.5 -1.4
v -0.6 0.8 -1.4
v -0.6 0.9 -1.4
v -0.6 1.2 -1.4
v -0.6 1.3 -1.4
v -0.3 0.8 -1.4
v -0.3 0.9 -1.4
v -0.3 1.2 -1.4
v -0.3 1.3 -1.4
v -0.2 0.6 -1.4
v -0.2 0.7 -1.4
v -0.2 0.8 -1.4
v -0.2 0.9 -1.4
v -0.2 1.2 -1.4
v -0.2 1.3 -1.4
v -0.2 1.4 -1.4
v -0.2 1.5 -1.4
v -0.0999998 0 -1.4
v -0.0999998 0.7 -1.4
v -0.0999998 0.8 -1.4
v -0.0999998 1.3 -1.4
v -0.0999998 1.4 -1.4
v -0.0999998 1.6 -1.4
v -0.0999998 1.7 -1.4
v -0.0999998 1.9 -1.4
v -1.2 0 1.1
v 0.3 0 1.1
v -1.4 0 1
v -1.2 0 1
v 0.3 0 1
v 0.5 0 1
v -1.5 0 0.9
v -1.4 0 0.9
v 0.5 0 0.9
v 0.6 0 0.9
v -1.5 0 0.8
v -1.4 0 0.8
v -1.6 0 0.7
v -1.5 0 0.7
v 0.6 0 0.7
v 0.7 0 0.7
v -1.7 0 0.6
v -1.6 0 0.6
v 0.6 0 0.6
v 0.7 0 0.6
v 0.8 0 0.6
v -1.7 0 0.5
v -1.6 0 0.5
v -1.8 0 0.3
v -1.7 0 0.3
v 0.8 0 0.3
v 0.9 0 0.3
v -1.8 0 0.0999999
v -1.7 0 0.0999999
v -1.8 0 -1.19209e-07
v -1.7 0 -1.19209e-07
v -1.8 0 -0.4
v -1.7 0 -0.4
v 0.8 0 -0.4
v 0.9 0 -0.4
v -1.7 0 -0.5
v -1.6 0 -0.5
v -1.7 0 -0.6
v -1.6 0 -0.6
v -1.7 0 -0.7
v -1.6 0 -0.7
v 0.7 0 -0.7
v 0.8 0 -0.7
v -1.6 0 -0.8
v -1.5 0 -0.8
v 0.6 0 -0.8
v 0.7 0 -0.8
v -1.5 0 -1
v -1.4 0 -1
v -1.3 0 -1
v 0.5 0 -1
v 0.6 0 -1
v -1.4 0 -1.1
v -1.3 0 -1.1
v -1.2 0 -1.1
v -1.1 0 -1.1
v 0.3 0 -1.1
v 0.5 0 -1.1
v -1.2 0 -1.2
v -1.1 0 -1.2
v 0.2 0 -1.2
v 0.3 0 -1.2
v -1.1 0 -1.3
v -0.8 0 -1.3
v -0.0999998 0 -1.3
v 0.2 0 -1.3
v -0.8 0 -1.4
v -0.0999998 0 -1.4
v -1 0.2 1.2
v 0.1 0.2 1.2
v -1 0.2 1.1
v 0.1 0.2 1.1
v -0.6 0.4 1.2
v -0.3 0.4 1.2
v -0.6 0.4 1.1
v -0.3 0.4 1.1
v -0.7 0.5 1.2
v -0.6 0.5 1.2
v -0.7 0.5 1.1
v -0.6 0.5 1.1
v -0.7 0.7 1.2
v -0.5 0.7 1.2
v -0.7 0.7 1.1
v -0.5 0.7 1.1
v -0.7 1 1.2
v -0.2 1 1.2
v -0.7 1 1.1
v -0.2 1 1.1
v -0.9 1.6 1.2
v 1.19209e-07 1.6 1.2
v -0.9 1.6 1
v 1.19209e-07 1.6 1
v -0.9 0.3 1.2
v 1.19209e-07 0.3 1.2
v -0.8 0.3 1.1
v -0.7 0.3 1.1
v -0.2 0.3 1.1
v -0.0999998 0.3 1.1
v -0.9 0.3 1
v -0.8 0.3 1
v -0.0999998 0.3 1
v 1.19209e-07 0.3 1
v -0.4 0.5 1.2
v -0.3 0.5 1.2
v -0.4 0.5 1.1
v -0.3 0.5 1.1
v -0.7 0.6 1.2
v -0.4 0.6 1.2
v -0.7 0.6 1.1
v -0.4 0.6 1.1
v -0.7 0.9 1.2
v -0.5 0.9 1.2
v -0.7 0.9 1.1
v -0.5 0.9 1.1
v -0.7 1.4 1.2
v -0.2 1.4 1.2
v -0.7 1.4 1.1
v -0.2 1.4 1.1
v -0.8 1.5 1.1
v -0.0999998 1.5 1.1
v -0.8 1.5 1
v -0.0999998 1.5 1
v -1 1.7 1.2
v 0.1 1.7 1.2
v -1 1.7 1.1
v 0.1 1.7 1.1
v -1.2 1.9 1.1
v 0.3 1.9 1.1
v -1.4 1.9 1
v -1.2 1.9 1
v -0.8 1.9 1
v -0.0999998 1.9 1
v 0.3 1.9 1
v 0.5 1.9 1
v -1.5 1.9 0.9
v -1.4 1.9 0.9
v -1 1.9 0.9
v -0.8 1.9 0.9
v -0.0999998 1.9 0.9
v 0.1 1.9 0.9
v 0.5 1.9 0.9
v 0.6 1.9 0.9
v -1.1 1.9 0.8
v -1 1.9 0.8
v 0.1 1.9 0.8
v 0.2 1.9 0.8
v -1.6 1.9 0.7
v -1.5 1.9 0.7
v -1.2 1.9 0.7
v -1.1 1.9 0.7
v 0.2 1.9 0.7
v 0.3 1.9 0.7
v 0.6 1.9 0.7
v 0.7 1.9 0.7
v -1.7 1.9 0.6
v -1.6 1.9 0.6
v -1.3 1.9 0.6
v -1.2 1.9 0.6
v 0.3 1.9 0.6
v 0.4 1.9 0.6
v 0.7 1.9 0.6
v 0.8 1.9 0.6
v -1.4 1.9 0.5
v -1.3 1.9 0.5
v 0.4 1.9 0.5
v 0.5 1.9 0.5
v -1.8 1.9 0.3
v -1.7 1.9 0.3
v -1.5 1.9 0.3
v -1.4 1.9 0.3
v 0.5 1.9 0.3
v 0.6 1.9 0.3
v 0.8 1.9 0.3
v 0.9 1.9 0.3
v -1.8 1.9 -0.4
v -1.7 1.9 -0.4
v -1.5 1.9 -0.4
v -1.4 1.9 -0.4
v 0.5 1.9 -0.4
v 0.6 1.9 -0.4
v 0.8 1.9 -0.4
v 0.9 1.9 -0.4
v -1.4 1.9 -0.6
v -1.3 1.9 -0.6
v 0.4 1.9 -0.6
v 0.5 1.9 -0.6
v -1.7 1.9 -0.7
v -1.6 1.9 -0.7
v -1.3 1.9 -0.7
v -1.2 1.9 -0.7
v 0.3 1.9 -0.7
v 0.4 1.9 -0.7
v 0.7 1.9 -0.7
v 0.8 1.9 -0.7
v -1.6 1.9 -0.8
v -1.5 1.9 -0.8
v -1.2 1.9 -0.8
v -1.1 1.9 -0.8
v 0.2 1.9 -0.8
v 0.3 1.9 -0.8
v 0.6 1.9 -0.8
v 0.7 1.9 -0.8
v -1.1 1.9 -0.9
v -1 1.9 -0.9
v 0.1 1.9 -0.9
v 0.2 1.9 -0.9
v -1.5 1.9 -1
v -1.4 1.9 -1
v -1 1.9 -1
v -0.8 1.9 -1
v -0.0999998 1.9 -1
v 0.1 1.9 -1
v 0.5 1.9 -1
v 0.6 1.9 -1
v -1.4 1.9 -1.1
v -1.2 1.9 -1.1
v -0.8 1.9 -1.1
v -0.0999998 1.9 -1.1
v 0.3 1.9 -1.1
v 0.5 1.9 -1.1
v -1.2 1.9 -1.2
v -1.1 1.9 -1.2
v 0.2 1.9 -1.2
v 0.3 1.9 -1.2
v -1.1 1.9 -1.3
v -0.8 1.9 -1.3
v -0.0999998 1.9 -1.3
v 0.2 1.9 -1.3
v -0.8 1.9 -1.4
v -0.0999998 1.9 -1.4
v -0.8 2.4 1
v -0.0999998 2.4 1
v -1 2.4 0.9
v -0.8 2.4 0.9
v -0.0999998 2.4 0.9
v 0.1 2.4 0.9
v -1.1 2.4 0.8
v -1 2.4 0.8
v 0.1 2.4 0.8
v 0.2 2.4 0.8
v -1.2 2.4 0.7
v -1.1 2.4 0.7
v -1 2.4 0.7
v -0.9 2.4 0.7
v 1.19209e-07 2.4 0.7
v 0.1 2.4 0.7
v 0.2 2.4 0.7
v 0.3 2.4 0.7
v -1.3 2.4 0.6
v -1.2 2.4 0.6
v -1 2.4 0.6
v -0.9 2.4 0.6
v 1.19209e-07 2.4 0.6
v 0.1 2.4 0.6
v 0.3 2.4 0.6
v 0.4 2.4 0.6
v -1.4 2.4 0.5
v -1.3 2.4 0.5
v 0.4 2.4 0.5
v 0.5 2.4 0.5
v -1.5 2.4 0.3
v -1.4 2.4 0.3
v 0.5 2.4 0.3
v 0.6 2.4 0.3
v -1.5 2.4 -0.4
v -1.4 2.4 -0.4
v 0.5 2.4 -0.4
v 0.6 2.4 -0.4
v -1.4 2.4 -0.6
v -1.3 2.4 -0.6
v 0.4 2.4 -0.6
v 0.5 2.4 -0.6
v -1.3 2.4 -0.7
v -1.2 2.4 -0.7
v -1 2.4 -0.7
v -0.9 2.4 -0.7
v 1.19209e-07 2.4 -0.7
v 0.1 2.4 -0.7
v 0.3 2.4 -0.7
v 0.4 2.4 -0.7
v -1.2 2.4 -0.8
v -1.1 2.4 -0.8
v -1 2.4 -0.8
v -0.9 2.4 -0.8
v 1.19209e-07 2.4 -0.8
v 0.1 2.4 -0.8
v 0.2 2.4 -0.8
v 0.3 2.4 -0.8
v -1.1 2.4 -0.9
v -1 2.4 -0.9
v 0.1 2.4 -0.9
v 0.2 2.4 -0.9
v -1 2.4 -1
v -0.8 2.4 -1
v -0.0999998 2.4 -1
v 0.1 2.4 -1
v -0.8 2.4 -1.1
v -0.0999998 2.4 -1.1
v -1 9.3 0.7
v -0.9 9.3 0.7
v 1.19209e-07 9.3 0.7
v 0.1 9.3 0.7
v -1 9.3 0.6
v -0.9 9.3 0.6
v 1.19209e-07 9.3 0.6
v 0.1 9.3 0.6
v -1 9.3 -0.7
v -0.9 9.3 -0.7
v 1.19209e-07 9.3 -0.7
v 0.1 9.3 -0.7
v -1 9.3 -0.8
v -0.9 9.3 -0.8
v 1.19209e-07 9.3 -0.8
v 0.1 9.3 -0.8

# faces
f 5/7/1 2/7/1 1/7/1
f 6/4/1 3/4/1 2/4/1
f 6/7/1 2/7/1 5/7/1
f 7/4/1 6/4/1 5/4/1
f 7/4/1 3/4/1 6/4/1
f 8/7/1 4/7/1 3/7/1
f 8/4/1 3/4/1 7/4/1
f 9/4/1 7/4/1 5/4/1
f 10/4/1 7/4/1 9/4/1
f 11/7/1 4/7/1 8/7/1
f 11/7/1 8/7/1 7/7/1
f 12/7/1 4/7/1 11/7/1
f 13/7/1 11/7/1 7/7/1
f 13/4/1 12/4/1 11/4/1
f 14/7/1 4/7/1 12/7/1
f 14/4/1 12/4/1 13/4/1
f 15/7/1 4/7/1 14/7/1
f 16/4/1 7/4/1 10/4/1
f 16/7/1 13/7/1 7/7/1
f 16/7/1 14/7/1 13/7/1
f 17/4/1 15/4/1 14/4/1
f 17/7/1 14/7/1 16/7/1
f 18/4/1 15/4/1 17/4/1
f 19/4/1 15/4/1 18/4/1
f 20/4/1 16/4/1 10/4/1
f 20/4/1 17/4/1 16/4/1
f 20/4/1 18/4/1 17/4/1
f 21/7/1 19/7/1 18/7/1
f 21/4/1 18/4/1 20/4/1
f 22/7/1 10/7/1 9/7/1
f 23/4/1 20/4/1 10/4/1
f 23/7/1 10/7/1 22/7/1
f 24/4/1 23/4/1 22/4/1
f 25/7/1 21/7/1 20/7/1
f 25/4/1 23/4/1 24/4/1
f 25/4/1 20/4/1 23/4/1
f 26/7/1 25/7/1 24/7/1
f 27/7/1 19/7/1 21/7/1
f 27/7/1 25/7/1 26/7/1
f 27/7/1 21/7/1 25/7/1
f 28/1/1 27/1/1 26/1/1
f 29/1/1 27/1/1 28/1/1
f 30/7/1 29/7/1 28/7/1
f 31/7/1 29/7/1 30/7/1
f 39/4/1 33/4/1 32/4/1
f 39/7/1 34/7/1 33/7/1
f 40/7/1 34/7/1 39/7/1
f 41/4/1 39/4/1 32/4/1
f 41/4/1 40/4/1 39/4/1
f 42/4/1 40/4/1 41/4/1
f 43/7/1 42/7/1 41/7/1
f 44/7/1 36/7/1 35/7/1
f 45/4/1 37/4/1 36/4/1
f 45/7/1 36/7/1 44/7/1
f 46/7/1 38/7/1 37/7/1
f 46/4/1 37/4/1 45/4/1
f 47/7/1 38/7/1 46/7/1
f 48/4/1 45/4/1 44/4/1
f 48/4/1 46/4/1 45/4/1
f 48/4/1 47/4/1 46/4/1
f 49/4/1 47/4/1 48/4/1
f 50/4/1 47/4/1 49/4/1
f 51/4/1 47/4/1 50/4/1
f 52/7/1 43/7/1 41/7/1
f 53/7/1 43/7/1 52/7/1
f 54/4/1 53/4/1 52/4/1
f 55/4/1 53/4/1 54/4/1
f 56/7/1 55/7/1 54/7/1
f 57/7/1 55/7/1 56/7/1
f 58/7/1 49/7/1 48/7/1
f 59/4/1 50/4/1 49/4/1
f 59/7/1 49/7/1 58/7/1
f 60/7/1 51/7/1 50/7/1
f 60/4/1 50/4/1 59/4/1
f 61/7/1 51/7/1 60/7/1
f 62/1/1 57/1/1 56/1/1
f 63/1/1 57/1/1 62/1/1
f 64/1/1 59/1/1 58/1/1
f 64/1/1 60/1/1 59/1/1
f 64/1/1 61/1/1 60/1/1
f 65/1/1 61/1/1 64/1/1
f 66/7/1 63/7/1 62/7/1
f 67/7/1 63/7/1 66/7/1
f 68/7/1 65/7/1 64/7/1
f 69/7/1 65/7/1 68/7/1
f 74/7/1 71/7/1 70/7/1
f 75/7/1 71/7/1 74/7/1
f 76/4/1 75/4/1 74/4/1
f 77/4/1 75/4/1 76/4/1
f 78/7/1 73/7/1 72/7/1
f 79/7/1 73/7/1 78/7/1
f 80/7/1 77/7/1 76/7/1
f 81/7/1 77/7/1 80/7/1
f 82/4/1 79/4/1 78/4/1
f 83/4/1 79/4/1 82/4/1
f 84/4/1 81/4/1 80/4/1
f 85/4/1 81/4/1 84/4/1
f 86/7/1 85/7/1 84/7/1
f 87/7/1 85/7/1 86/7/1
f 88/4/1 87/4/1 86/4/1
f 89/4/1 87/4/1 88/4/1
f 90/7/1 89/7/1 88/7/1
f 91/7/1 89/7/1 90/7/1
f 92/7/1 83/7/1 82/7/1
f 93/7/1 83/7/1 92/7/1
f 94/1/1 91/1/1 90/1/1
f 95/1/1 91/1/1 94/1/1
f 96/1/1 93/1/1 92/1/1
f 97/1/1 93/1/1 96/1/1
f 98/7/1 95/7/1 94/7/1
f 99/7/1 95/7/1 98/7/1
f 100/7/1 97/7/1 96/7/1
f 101/7/1 97/7/1 100/7/1
f 107/4/1 103/4/1 102/4/1
f 107/7/1 104/7/1 103/7/1
f 108/7/1 104/7/1 107/7/1
f 109/4/1 107/4/1 102/4/1
f 109/4/1 108/4/1 107/4/1
f 110/4/1 108/4/1 109/4/1
f 111/7/1 106/7/1 105/7/1
f 112/7/1 106/7/1 111/7/1
f 113/7/1 110/7/1 109/7/1
f 114/4/1 112/4/1 111/4/1
f 115/4/1 112/4/1 114/4/1
f 116/7/1 113/7/1 109/7/1
f 117/4/1 109/4/1 102/4/1
f 117/7/1 116/7/1 109/7/1
f 118/7/1 116/7/1 117/7/1
f 119/4/1 117/4/1 102/4/1
f 119/4/1 118/4/1 117/4/1
f 120/4/1 118/4/1 119/4/1
f 121/4/1 119/4/1 102/4/1
f 122/7/1 120/7/1 119/7/1
f 122/4/1 119/4/1 121/4/1
f 123/7/1 120/7/1 122/7/1
f 124/7/1 115/7/1 114/7/1
f 125/4/1 112/4/1 115/4/1
f 125/7/1 115/7/1 124/7/1
f 126/4/1 112/4/1 125/4/1
f 127/1/1 123/1/1 122/1/1
f 127/1/1 122/1/1 121/1/1
f 128/1/1 123/1/1 127/1/1
f 129/1/1 126/1/1 125/1/1
f 129/1/1 125/1/1 124/1/1
f 130/1/1 126/1/1 129/1/1
f 131/7/1 128/7/1 127/7/1
f 132/7/1 128/7/1 131/7/1
f 135/7/1 130/7/1 129/7/1
f 136/7/1 130/7/1 135/7/1
f 137/5/1 134/5/1 133/5/1
f 138/5/1 134/5/1 137/5/1
f 139/7/1 138/7/1 137/7/1
f 140/7/1 138/7/1 139/7/1
f 145/7/1 142/7/1 141/7/1
f 146/7/1 142/7/1 145/7/1
f 147/4/1 146/4/1 145/4/1
f 148/4/1 146/4/1 147/4/1
f 149/4/1 144/4/1 143/4/1
f 150/4/1 144/4/1 149/4/1
f 151/4/1 144/4/1 150/4/1
f 152/7/1 148/7/1 147/7/1
f 153/7/1 148/7/1 152/7/1
f 154/4/1 153/4/1 152/4/1
f 155/4/1 153/4/1 154/4/1
f 156/7/1 155/7/1 154/7/1
f 157/7/1 155/7/1 156/7/1
f 158/7/1 151/7/1 150/7/1
f 159/7/1 151/7/1 158/7/1
f 160/1/1 157/1/1 156/1/1
f 161/1/1 157/1/1 160/1/1
f 162/1/1 159/1/1 158/1/1
f 163/1/1 159/1/1 162/1/1
f 164/7/1 161/7/1 160/7/1
f 165/7/1 161/7/1 164/7/1
f 170/7/1 163/7/1 162/7/1
f 171/7/1 163/7/1 170/7/1
f 172/5/1 167/5/1 166/5/1
f 173/5/1 167/5/1 172/5/1
f 174/5/1 169/5/1 168/5/1
f 175/5/1 169/5/1 174/5/1
f 176/7/1 173/7/1 172/7/1
f 177/7/1 173/7/1 176/7/1
f 178/7/1 175/7/1 174/7/1
f 179/7/1 175/7/1 178/7/1
f 184/5/1 181/5/1 180/5/1
f 185/5/1 181/5/1 184/5/1
f 186/5/1 183/5/1 182/5/1
f 187/5/1 183/5/1 186/5/1
f 188/7/1 185/7/1 184/7/1
f 189/7/1 185/7/1 188/7/1
f 190/7/1 187/7/1 186/7/1
f 191/7/1 187/7/1 190/7/1
f 196/7/1 193/7/1 192/7/1
f 197/7/1 193/7/1 196/7/1
f 198/4/1 197/4/1 196/4/1
f 199/4/1 197/4/1 198/4/1
f 200/4/1 195/4/1 194/4/1
f 201/4/1 195/4/1 200/4/1
f 202/4/1 195/4/1 201/4/1
f 203/7/1 199/7/1 198/7/1
f 204/7/1 199/7/1 203/7/1
f 205/4/1 204/4/1 203/4/1
f 206/4/1 204/4/1 205/4/1
f 207/7/1 206/7/1 205/7/1
f 208/7/1 206/7/1 207/7/1
f 209/7/1 202/7/1 201/7/1
f 210/7/1 202/7/1 209/7/1
f 211/1/1 208/1/1 207/1/1
f 212/1/1 208/1/1 211/1/1
f 213/1/1 210/1/1 209/1/1
f 214/1/1 210/1/1 213/1/1
f 215/7/1 212/7/1 211/7/1
f 216/7/1 212/7/1 215/7/1
f 221/7/1 214/7/1 213/7/1
f 222/7/1 214/7/1 221/7/1
f 223/5/1 218/5/1 217/5/1
f 224/5/1 218/5/1 223/5/1
f 225/5/1 220/5/1 219/5/1
f 226/5/1 220/5/1 225/5/1
f 227/7/1 224/7/1 223/7/1
f 228/7/1 224/7/1 227/7/1
f 229/7/1 226/7/1 225/7/1
f 230/7/1 226/7/1 229/7/1
f 233/7/1 232/7/1 231/7/1
f 234/7/1 232/7/1 233/7/1
f 235/7/1 232/7/1 234/7/1
f 236/1/1 235/1/1 234/1/1
f 237/1/1 235/1/1 236/1/1
f 242/7/1 237/7/1 236/7/1
f 243/7/1 237/7/1 242/7/1
f 244/5/1 239/5/1 238/5/1
f 245/5/1 239/5/1 244/5/1
f 246/5/1 241/5/1 240/5/1
f 247/5/1 241/5/1 246/5/1
f 248/7/1 245/7/1 244/7/1
f 249/7/1 245/7/1 248/7/1
f 250/7/1 247/7/1 246/7/1
f 251/7/1 247/7/1 250/7/1
f 254/9/1 253/9/1 252/9/1
f 255/9/1 254/9/1 252/9/1
f 256/9/1 255/9/1 252/9/1
f 257/9/1 256/9/1 252/9/1
f 258/9/1 257/9/1 252/9/1
f 259/9/1 258/9/1 252/9/1
f 260/9/1 258/9/1 259/9/1
f 265/5/1 262/5/1 261/5/1
f 266/5/1 262/5/1 265/5/1
f 267/5/1 264/5/1 263/5/1
f 268/5/1 264/5/1 267/5/1
f 269/7/1 266/7/1 265/7/1
f 270/7/1 266/7/1 269/7/1
f 275/7/1 268/7/1 267/7/1
f 276/7/1 268/7/1 275/7/1
f 277/7/1 272/7/1 271/7/1
f 278/7/1 272/7/1 277/7/1
f 279/7/1 274/7/1 273/7/1
f 280/7/1 274/7/1 279/7/1
f 285/7/1 282/7/1 281/7/1
f 286/7/1 282/7/1 285/7/1
f 287/7/1 282/7/1 286/7/1
f 288/9/1 287/9/1 286/9/1
f 289/9/1 287/9/1 288/9/1
f 290/7/1 289/7/1 288/7/1
f 291/7/1 289/7/1 290/7/1
f 292/9/1 291/9/1 290/9/1
f 293/9/1 291/9/1 292/9/1
f 294/9/1 284/9/1 283/9/1
f 295/9/1 284/9/1 294/9/1
f 296/7/1 293/7/1 292/7/1
f 297/7/1 293/7/1 296/7/1
f 298/7/1 293/7/1 297/7/1
f 299/1/1 298/1/1 297/1/1
f 300/1/1 298/1/1 299/1/1
f 305/7/1 300/7/1 299/7/1
f 306/7/1 300/7/1 305/7/1
f 307/5/1 302/5/1 301/5/1
f 308/5/1 302/5/1 307/5/1
f 309/5/1 304/5/1 303/5/1
f 310/5/1 304/5/1 309/5/1
f 311/7/1 308/7/1 307/7/1
f 312/7/1 308/7/1 311/7/1
f 313/7/1 310/7/1 309/7/1
f 314/7/1 310/7/1 313/7/1
f 317/10/1 316/10/1 315/10/1
f 318/10/1 316/10/1 317/10/1
f 321/3/1 320/3/1 319/3/1
f 322/3/1 320/3/1 321/3/1
f 325/5/1 324/5/1 323/5/1
f 326/5/1 324/5/1 325/5/1
f 329/10/1 328/10/1 327/10/1
f 330/10/1 328/10/1 329/10/1
f 333/9/1 332/9/1 331/9/1
f 334/9/1 332/9/1 333/9/1
f 339/7/1 336/7/1 335/7/1
f 340/7/1 336/7/1 339/7/1
f 341/7/1 338/7/1 337/7/1
f 342/7/1 338/7/1 341/7/1
f 343/9/2 344/9/2 345/9/2
f 345/9/2 344/9/2 346/9/2
f 347/7/2 348/7/2 351/7/2
f 351/7/2 348/7/2 352/7/2
f 349/7/2 350/7/2 353/7/2
f 353/7/2 350/7/2 354/7/2
f 355/3/2 356/3/2 357/3/2
f 357/3/2 356/3/2 358/3/2
f 359/10/2 360/10/2 361/10/2
f 361/10/2 360/10/2 362/10/2
f 363/10/2 364/10/2 365/10/2
f 365/10/2 364/10/2 366/10/2
f 367/5/2 368/5/2 369/5/2
f 369/5/2 368/5/2 370/5/2
f 371/7/2 372/7/2 375/7/2
f 375/7/2 372/7/2 376/7/2
f 376/7/2 372/7/2 377/7/2
f 376/9/2 377/9/2 378/9/2
f 378/9/2 377/9/2 379/9/2
f 378/7/2 379/7/2 380/7/2
f 380/7/2 379/7/2 381/7/2
f 380/9/2 381/9/2 382/9/2
f 382/9/2 381/9/2 383/9/2
f 373/9/2 374/9/2 384/9/2
f 384/9/2 374/9/2 385/9/2
f 382/7/2 383/7/2 386/7/2
f 386/7/2 383/7/2 387/7/2
f 387/7/2 383/7/2 388/7/2
f 387/1/2 388/1/2 389/1/2
f 389/1/2 388/1/2 390/1/2
f 389/7/2 390/7/2 395/7/2
f 395/7/2 390/7/2 396/7/2
f 391/5/2 392/5/2 397/5/2
f 397/5/2 392/5/2 398/5/2
f 393/5/2 394/5/2 399/5/2
f 399/5/2 394/5/2 400/5/2
f 397/7/2 398/7/2 401/7/2
f 401/7/2 398/7/2 402/7/2
f 399/7/2 400/7/2 403/7/2
f 403/7/2 400/7/2 404/7/2
f 405/9/2 406/9/2 407/9/2
f 407/9/2 406/9/2 408/9/2
f 409/5/2 410/5/2 413/5/2
f 413/5/2 410/5/2 414/5/2
f 411/5/2 412/5/2 415/5/2
f 415/5/2 412/5/2 416/5/2
f 413/7/2 414/7/2 417/7/2
f 417/7/2 414/7/2 418/7/2
f 415/7/2 416/7/2 423/7/2
f 423/7/2 416/7/2 424/7/2
f 419/7/2 420/7/2 425/7/2
f 425/7/2 420/7/2 426/7/2
f 421/7/2 422/7/2 427/7/2
f 427/7/2 422/7/2 428/7/2
f 429/7/2 430/7/2 431/7/2
f 431/7/2 430/7/2 432/7/2
f 431/1/2 432/1/2 433/1/2
f 433/1/2 432/1/2 434/1/2
f 433/7/2 434/7/2 439/7/2
f 439/7/2 434/7/2 440/7/2
f 435/5/2 436/5/2 441/5/2
f 441/5/2 436/5/2 442/5/2
f 437/5/2 438/5/2 443/5/2
f 443/5/2 438/5/2 444/5/2
f 441/7/2 442/7/2 445/7/2
f 445/7/2 442/7/2 446/7/2
f 443/7/2 444/7/2 447/7/2
f 447/7/2 444/7/2 448/7/2
f 451/7/2 452/7/2 453/7/2
f 453/7/2 452/7/2 454/7/2
f 453/1/2 454/1/2 455/1/2
f 455/1/2 454/1/2 456/1/2
f 449/7/2 450/7/2 457/7/2
f 457/7/2 450/7/2 458/7/2
f 455/7/2 456/7/2 463/7/2
f 463/7/2 456/7/2 464/7/2
f 459/5/2 460/5/2 465/5/2
f 465/5/2 460/5/2 466/5/2
f 461/5/2 462/5/2 467/5/2
f 467/5/2 462/5/2 468/5/2
f 465/7/2 466/7/2 469/7/2
f 469/7/2 466/7/2 470/7/2
f 467/7/2 468/7/2 471/7/2
f 471/7/2 468/7/2 472/7/2
f 473/5/2 474/5/2 477/5/2
f 477/5/2 474/5/2 478/5/2
f 475/5/2 476/5/2 479/5/2
f 479/5/2 476/5/2 480/5/2
f 477/7/2 478/7/2 481/7/2
f 481/7/2 478/7/2 482/7/2
f 479/7/2 480/7/2 483/7/2
f 483/7/2 480/7/2 484/7/2
f 487/7/2 488/7/2 489/7/2
f 489/7/2 488/7/2 490/7/2
f 489/1/2 490/1/2 491/1/2
f 491/1/2 490/1/2 492/1/2
f 485/7/2 486/7/2 493/7/2
f 493/7/2 486/7/2 494/7/2
f 491/7/2 492/7/2 499/7/2
f 499/7/2 492/7/2 500/7/2
f 495/5/2 496/5/2 501/5/2
f 501/5/2 496/5/2 502/5/2
f 497/5/2 498/5/2 503/5/2
f 503/5/2 498/5/2 504/5/2
f 501/7/2 502/7/2 505/7/2
f 505/7/2 502/7/2 506/7/2
f 503/7/2 504/7/2 507/7/2
f 507/7/2 504/7/2 508/7/2
f 511/7/2 512/7/2 513/7/2
f 513/7/2 512/7/2 514/7/2
f 509/7/2 510/7/2 515/7/2
f 513/1/2 514/1/2 516/1/2
f 516/1/2 514/1/2 517/1/2
f 509/7/2 515/7/2 518/7/2
f 518/7/2 515/7/2 519/7/2
f 516/7/2 517/7/2 522/7/2
f 522/7/2 517/7/2 523/7/2
f 520/5/2 521/5/2 524/5/2
f 524/5/2 521/5/2 525/5/2
f 524/7/2 525/7/2 526/7/2
f 526/7/2 525/7/2 527/7/2
f 528/1/2 529/1/2 532/1/2
f 528/1/2 532/1/2 533/1/2
f 528/1/2 533/1/2 534/1/2
f 528/1/2 534/1/2 535/1/2
f 528/1/2 535/1/2 536/1/2
f 528/1/2 536/1/2 537/1/2
f 528/1/2 537/1/2 538/1/2
f 528/1/2 538/1/2 539/1/2
f 528/1/2 539/1/2 540/1/2
f 528/1/2 540/1/2 541/1/2
f 530/7/2 531/7/2 542/7/2
f 542/7/2 531/7/2 543/7/2
f 528/1/2 541/1/2 544/1/2
f 544/1/2 541/1/2 545/1/2
f 542/1/2 543/1/2 546/1/2
f 546/1/2 543/1/2 547/1/2
f 544/7/2 545/7/2 548/7/2
f 548/7/2 545/7/2 549/7/2
f 546/7/2 547/7/2 550/7/2
f 550/7/2 547/7/2 551/7/2
f 554/7/2 555/7/2 556/7/2
f 556/7/2 555/7/2 557/7/2
f 554/7/2 556/7/2 558/7/2
f 556/9/2 557/9/2 559/9/2
f 558/7/2 556/7/2 559/7/2
f 557/7/2 555/7/2 560/7/2
f 559/9/2 557/9/2 560/9/2
f 552/7/2 553/7/2 561/7/2
f 561/7/2 553/7/2 562/7/2
f 558/9/2 559/9/2 563/9/2
f 559/7/2 560/7/2 564/7/2
f 563/9/2 559/9/2 564/9/2
f 561/9/2 562/9/2 565/9/2
f 565/9/2 562/9/2 566/9/2
f 563/7/2 564/7/2 567/7/2
f 565/7/2 566/7/2 568/7/2
f 568/7/2 566/7/2 569/7/2
f 568/9/2 569/9/2 570/9/2
f 570/9/2 569/9/2 571/9/2
f 570/7/2 571/7/2 572/7/2
f 572/7/2 571/7/2 573/7/2
f 572/9/2 573/9/2 574/9/2
f 574/9/2 573/9/2 575/9/2
f 574/7/2 575/7/2 576/7/2
f 576/7/2 575/7/2 577/7/2
f 576/9/2 577/9/2 578/9/2
f 578/9/2 577/9/2 579/9/2
f 578/7/2 579/7/2 580/7/2
f 580/7/2 579/7/2 581/7/2
f 567/7/2 564/7/2 582/7/2
f 580/9/2 581/9/2 583/9/2
f 583/9/2 581/9/2 584/9/2
f 582/7/2 564/7/2 585/7/2
f 560/7/2 555/7/2 586/7/2
f 585/7/2 564/7/2 586/7/2
f 564/7/2 560/7/2 586/7/2
f 583/1/2 584/1/2 587/1/2
f 587/1/2 584/1/2 588/1/2
f 585/1/2 586/1/2 589/1/2
f 589/1/2 586/1/2 590/1/2
f 587/7/2 588/7/2 591/7/2
f 591/7/2 588/7/2 592/7/2
f 589/7/2 590/7/2 593/7/2
f 593/7/2 590/7/2 594/7/2
f 595/7/2 596/7/2 597/7/2
f 597/7/2 596/7/2 598/7/2
f 598/7/2 596/7/2 599/7/2
f 599/7/2 596/7/2 600/7/2
f 597/9/2 598/9/2 601/9/2
f 601/9/2 598/9/2 602/9/2
f 598/7/2 599/7/2 603/7/2
f 602/9/2 598/9/2 603/9/2
f 599/9/2 600/9/2 604/9/2
f 603/7/2 599/7/2 604/7/2
f 604/9/2 600/9/2 605/9/2
f 601/7/2 602/7/2 606/7/2
f 602/9/2 603/9/2 607/9/2
f 606/7/2 602/7/2 607/7/2
f 603/9/2 604/9/2 607/9/2
f 607/9/2 604/9/2 608/9/2
f 606/9/2 607/9/2 609/9/2
f 609/9/2 607/9/2 610/9/2
f 607/7/2 608/7/2 611/7/2
f 610/9/2 607/9/2 611/9/2
f 611/7/2 608/7/2 612/7/2
f 609/7/2 610/7/2 613/7/2
f 613/7/2 610/7/2 614/7/2
f 610/9/2 611/9/2 615/9/2
f 614/7/2 610/7/2 615/7/2
f 611/9/2 612/9/2 615/9/2
f 615/9/2 612/9/2 616/9/2
f 613/9/2 614/9/2 617/9/2
f 614/7/2 615/7/2 618/7/2
f 617/9/2 614/9/2 618/9/2
f 615/7/2 616/7/2 618/7/2
f 618/7/2 616/7/2 619/7/2
f 616/9/2 612/9/2 620/9/2
f 619/7/2 616/7/2 620/7/2
f 618/7/2 619/7/2 621/7/2
f 617/7/2 618/7/2 621/7/2
f 619/9/2 620/9/2 622/9/2
f 621/7/2 619/7/2 622/7/2
f 620/9/2 612/9/2 623/9/2
f 622/9/2 620/9/2 623/9/2
f 612/7/2 608/7/2 624/7/2
f 623/9/2 612/9/2 624/9/2
f 622/9/2 623/9/2 625/9/2
f 621/9/2 622/9/2 625/9/2
f 623/7/2 624/7/2 626/7/2
f 625/9/2 623/9/2 626/9/2
f 608/9/2 604/9/2 627/9/2
f 626/7/2 624/7/2 627/7/2
f 624/7/2 608/7/2 627/7/2
f 625/7/2 626/7/2 628/7/2
f 626/9/2 627/9/2 629/9/2
f 628/7/2 626/7/2 629/7/2
f 629/9/2 627/9/2 630/9/2
f 604/7/2 605/7/2 631/7/2
f 630/9/2 627/9/2 631/9/2
f 627/9/2 604/9/2 631/9/2
f 631/7/2 605/7/2 632/7/2
f 629/9/2 630/9/2 633/9/2
f 628/9/2 629/9/2 633/9/2
f 630/7/2 631/7/2 634/7/2
f 633/9/2 630/9/2 634/9/2
f 631/9/2 632/9/2 635/9/2
f 634/7/2 631/7/2 635/7/2
f 635/9/2 632/9/2 636/9/2
f 633/1/2 634/1/2 637/1/2
f 634/1/2 635/1/2 637/1/2
f 635/1/2 636/1/2 637/1/2
f 637/1/2 636/1/2 638/1/2
f 637/7/2 638/7/2 639/7/2
f 639/7/2 638/7/2 640/7/2
f 643/9/3 642/9/3 641/9/3
f 644/9/3 642/9/3 643/9/3
f 652/10/3 646/10/3 645/10/3
f 653/3/3 648/3/3 647/3/3
f 654/3/3 648/3/3 653/3/3
f 655/10/3 652/10/3 651/10/3
f 655/10/3 646/10/3 652/10/3
f 656/10/3 646/10/3 655/10/3
f 657/10/3 655/10/3 651/10/3
f 658/10/3 655/10/3 657/10/3
f 659/5/3 650/5/3 649/5/3
f 660/5/3 650/5/3 659/5/3
f 661/9/3 643/9/3 641/9/3
f 662/9/3 642/9/3 644/9/3
f 663/9/3 661/9/3 641/9/3
f 663/9/3 662/9/3 661/9/3
f 664/9/3 642/9/3 662/9/3
f 664/9/3 662/9/3 663/9/3
f 673/4/3 669/4/3 668/4/3
f 674/7/3 670/7/3 669/7/3
f 674/4/3 669/4/3 673/4/3
f 675/7/3 666/7/3 665/7/3
f 676/4/3 667/4/3 666/4/3
f 676/7/3 666/7/3 675/7/3
f 677/7/3 668/7/3 667/7/3
f 677/4/3 667/4/3 676/4/3
f 678/4/3 673/4/3 668/4/3
f 678/7/3 668/7/3 677/7/3
f 679/7/3 674/7/3 673/7/3
f 679/4/3 673/4/3 678/4/3
f 680/7/3 670/7/3 674/7/3
f 680/7/3 674/7/3 679/7/3
f 680/1/3 671/1/3 670/1/3
f 681/7/3 672/7/3 671/7/3
f 681/1/3 671/1/3 680/1/3
f 684/9/3 683/9/3 682/9/3
f 685/9/3 683/9/3 684/9/3
f 686/9/3 683/9/3 685/9/3
f 687/9/3 683/9/3 686/9/3
f 688/9/3 683/9/3 687/9/3
f 689/9/3 683/9/3 688/9/3
f 690/9/3 683/9/3 689/9/3
f 691/9/3 683/9/3 690/9/3
f 692/6/3 685/6/3 684/6/3
f 692/8/3 686/8/3 685/8/3
f 693/8/3 686/8/3 692/8/3
f 694/8/3 688/8/3 687/8/3
f 695/9/3 690/9/3 689/9/3
f 697/8/3 694/8/3 687/8/3
f 698/6/3 692/6/3 684/6/3
f 699/8/3 697/8/3 696/8/3
f 700/2/3 695/2/3 694/2/3
f 700/8/3 694/8/3 697/8/3
f 700/8/3 697/8/3 699/8/3
f 701/9/3 690/9/3 695/9/3
f 701/2/3 695/2/3 700/2/3
f 702/6/3 699/6/3 698/6/3
f 702/6/3 698/6/3 684/6/3
f 702/6/3 701/6/3 700/6/3
f 702/6/3 700/6/3 699/6/3
f 703/9/3 690/9/3 701/9/3
f 703/6/3 701/6/3 702/6/3
f 704/9/3 690/9/3 703/9/3
f 705/9/3 683/9/3 691/9/3
f 706/9/3 704/9/3 703/9/3
f 706/9/3 705/9/3 704/9/3
f 706/9/3 703/9/3 702/9/3
f 707/9/3 683/9/3 705/9/3
f 707/9/3 705/9/3 706/9/3
f 708/7/3 675/7/3 665/7/3
f 709/7/3 672/7/3 681/7/3
f 710/7/3 708/7/3 665/7/3
f 710/7/3 709/7/3 708/7/3
f 711/7/3 672/7/3 709/7/3
f 711/7/3 709/7/3 710/7/3
f 720/7/3 715/7/3 714/7/3
f 721/4/3 716/4/3 715/4/3
f 721/7/3 715/7/3 720/7/3
f 722/7/3 713/7/3 712/7/3
f 723/4/3 714/4/3 713/4/3
f 723/7/3 713/7/3 722/7/3
f 724/7/3 720/7/3 714/7/3
f 724/4/3 714/4/3 723/4/3
f 725/4/3 721/4/3 720/4/3
f 725/7/3 720/7/3 724/7/3
f 726/4/3 716/4/3 721/4/3
f 726/4/3 721/4/3 725/4/3
f 726/7/3 717/7/3 716/7/3
f 727/1/3 718/1/3 717/1/3
f 727/7/3 717/7/3 726/7/3
f 728/7/3 719/7/3 718/7/3
f 728/1/3 718/1/3 727/1/3
f 729/7/3 719/7/3 728/7/3
f 732/7/3 731/7/3 730/7/3
f 733/7/3 731/7/3 732/7/3
f 738/7/3 731/7/3 733/7/3
f 739/5/3 735/5/3 734/5/3
f 740/7/3 736/7/3 735/7/3
f 740/5/3 735/5/3 739/5/3
f 741/7/3 736/7/3 740/7/3
f 742/7/3 738/7/3 737/7/3
f 743/7/3 731/7/3 738/7/3
f 743/7/3 738/7/3 742/7/3
f 746/7/3 745/7/3 744/7/3
f 747/7/3 745/7/3 746/7/3
f 752/4/3 749/4/3 748/4/3
f 753/4/3 749/4/3 752/4/3
f 754/4/3 749/4/3 753/4/3
f 755/4/3 749/4/3 754/4/3
f 756/4/3 749/4/3 755/4/3
f 757/1/3 750/1/3 749/1/3
f 757/4/3 749/4/3 756/4/3
f 758/7/3 751/7/3 750/7/3
f 758/1/3 750/1/3 757/1/3
f 759/7/3 751/7/3 758/7/3
f 763/5/3 761/5/3 760/5/3
f 764/7/3 762/7/3 761/7/3
f 764/5/3 761/5/3 763/5/3
f 765/7/3 762/7/3 764/7/3
f 769/5/3 767/5/3 766/5/3
f 770/7/3 768/7/3 767/7/3
f 770/5/3 767/5/3 769/5/3
f 771/7/3 768/7/3 770/7/3
f 774/7/3 773/7/3 772/7/3
f 775/7/3 773/7/3 774/7/3
f 779/5/3 777/5/3 776/5/3
f 780/7/3 778/7/3 777/7/3
f 780/5/3 777/5/3 779/5/3
f 781/7/3 778/7/3 780/7/3
f 785/5/3 783/5/3 782/5/3
f 786/7/3 784/7/3 783/7/3
f 786/5/3 783/5/3 785/5/3
f 787/7/3 784/7/3 786/7/3
f 798/7/3 789/7/3 788/7/3
f 799/4/3 790/4/3 789/4/3
f 799/7/3 789/7/3 798/7/3
f 800/7/3 791/7/3 790/7/3
f 800/4/3 790/4/3 799/4/3
f 801/4/3 792/4/3 791/4/3
f 801/7/3 791/7/3 800/7/3
f 802/7/3 793/7/3 792/7/3
f 802/4/3 792/4/3 801/4/3
f 803/4/3 794/4/3 793/4/3
f 803/7/3 793/7/3 802/7/3
f 804/7/3 795/7/3 794/7/3
f 804/4/3 794/4/3 803/4/3
f 805/1/3 796/1/3 795/1/3
f 805/7/3 795/7/3 804/7/3
f 806/7/3 797/7/3 796/7/3
f 806/1/3 796/1/3 805/1/3
f 807/7/3 797/7/3 806/7/3
f 811/5/3 809/5/3 808/5/3
f 812/7/3 810/7/3 809/7/3
f 812/5/3 809/5/3 811/5/3
f 813/7/3 810/7/3 812/7/3
f 816/7/3 815/7/3 814/7/3
f 817/7/3 815/7/3 816/7/3
f 820/7/3 819/7/3 818/7/3
f 821/7/3 819/7/3 820/7/3
f 825/5/3 823/5/3 822/5/3
f 826/7/3 824/7/3 823/7/3
f 826/5/3 823/5/3 825/5/3
f 827/7/3 824/7/3 826/7/3
f 831/1/3 829/1/3 828/1/3
f 832/7/3 830/7/3 829/7/3
f 832/1/3 829/1/3 831/1/3
f 833/7/3 830/7/3 832/7/3
f 841/4/3 835/4/3 834/4/3
f 842/4/3 835/4/3 841/4/3
f 843/7/3 836/7/3 835/7/3
f 843/4/3 835/4/3 842/4/3
f 844/7/3 836/7/3 843/7/3
f 845/7/3 836/7/3 844/7/3
f 846/4/3 837/4/3 836/4/3
f 846/7/3 836/7/3 845/7/3
f 847/7/3 838/7/3 837/7/3
f 847/4/3 837/4/3 846/4/3
f 848/1/3 839/1/3 838/1/3
f 848/7/3 838/7/3 847/7/3
f 849/7/3 840/7/3 839/7/3
f 849/1/3 839/1/3 848/1/3
f 850/7/3 840/7/3 849/7/3
f 854/5/3 852/5/3 851/5/3
f 855/7/3 853/7/3 852/7/3
f 855/5/3 852/5/3 854/5/3
f 856/7/3 853/7/3 855/7/3
f 860/5/3 858/5/3 857/5/3
f 861/7/3 859/7/3 858/7/3
f 861/5/3 858/5/3 860/5/3
f 862/7/3 859/7/3 861/7/3
f 876/7/3 864/7/3 863/7/3
f 877/9/3 865/9/3 864/9/3
f 877/7/3 864/7/3 876/7/3
f 878/7/3 866/7/3 865/7/3
f 878/9/3 865/9/3 877/9/3
f 879/9/3 867/9/3 866/9/3
f 879/7/3 866/7/3 878/7/3
f 880/7/3 868/7/3 867/7/3
f 880/9/3 867/9/3 879/9/3
f 881/9/3 869/9/3 868/9/3
f 881/7/3 868/7/3 880/7/3
f 882/7/3 870/7/3 869/7/3
f 882/9/3 869/9/3 881/9/3
f 883/9/3 871/9/3 870/9/3
f 883/7/3 870/7/3 882/7/3
f 884/7/3 872/7/3 871/7/3
f 884/9/3 871/9/3 883/9/3
f 885/9/3 873/9/3 872/9/3
f 885/7/3 872/7/3 884/7/3
f 886/1/3 874/1/3 873/1/3
f 886/9/3 873/9/3 885/9/3
f 887/7/3 875/7/3 874/7/3
f 887/1/3 874/1/3 886/1/3
f 888/7/3 875/7/3 887/7/3
f 892/5/3 890/5/3 889/5/3
f 893/7/3 891/7/3 890/7/3
f 893/5/3 890/5/3 892/5/3
f 894/7/3 891/7/3 893/7/3
f 898/5/3 896/5/3 895/5/3
f 899/7/3 897/7/3 896/7/3
f 899/5/3 896/5/3 898/5/3
f 900/7/3 897/7/3 899/7/3
f 909/7/3 902/7/3 901/7/3
f 910/4/3 903/4/3 902/4/3
f 910/7/3 902/7/3 909/7/3
f 911/4/3 903/4/3 910/4/3
f 912/7/3 904/7/3 903/7/3
f 912/4/3 903/4/3 911/4/3
f 913/4/3 905/4/3 904/4/3
f 913/7/3 904/7/3 912/7/3
f 914/7/3 906/7/3 905/7/3
f 914/4/3 905/4/3 913/4/3
f 915/1/3 907/1/3 906/1/3
f 915/7/3 906/7/3 914/7/3
f 916/7/3 908/7/3 907/7/3
f 916/1/3 907/1/3 915/1/3
f 917/7/3 908/7/3 916/7/3
f 921/5/3 919/5/3 918/5/3
f 922/7/3 920/7/3 919/7/3
f 922/5/3 919/5/3 921/5/3
f 923/7/3 920/7/3 922/7/3
f 927/5/3 925/5/3 924/5/3
f 928/7/3 926/7/3 925/7/3
f 928/5/3 925/5/3 927/5/3
f 929/7/3 926/7/3 928/7/3
f 943/7/3 931/7/3 930/7/3
f 944/9/3 932/9/3 931/9/3
f 944/7/3 931/7/3 943/7/3
f 945/7/3 933/7/3 932/7/3
f 945/9/3 932/9/3 944/9/3
f 946/9/3 934/9/3 933/9/3
f 946/7/3 933/7/3 945/7/3
f 947/7/3 935/7/3 934/7/3
f 947/9/3 934/9/3 946/9/3
f 948/9/3 936/9/3 935/9/3
f 948/7/3 935/7/3 947/7/3
f 949/7/3 937/7/3 936/7/3
f 949/9/3 936/9/3 948/9/3
f 950/9/3 938/9/3 937/9/3
f 950/7/3 937/7/3 949/7/3
f 951/7/3 939/7/3 938/7/3
f 951/9/3 938/9/3 950/9/3
f 952/9/3 940/9/3 939/9/3
f 952/7/3 939/7/3 951/7/3
f 953/1/3 941/1/3 940/1/3
f 953/9/3 940/9/3 952/9/3
f 954/7/3 942/7/3 941/7/3
f 954/1/3 941/1/3 953/1/3
f 955/7/3 942/7/3 954/7/3
f 958/7/3 957/7/3 956/7/3
f 959/7/3 957/7/3 958/7/3
f 962/7/3 961/7/3 960/7/3
f 963/7/3 961/7/3 962/7/3
f 964/7/4 965/7/4 966/7/4
f 966/7/4 965/7/4 967/7/4
f 968/7/4 969/7/4 970/7/4
f 970/7/4 969/7/4 971/7/4
f 972/7/4 973/7/4 978/7/4
f 973/4/4 974/4/4 979/4/4
f 978/7/4 973/7/4 979/7/4
f 974/7/4 975/7/4 980/7/4
f 979/4/4 974/4/4 980/4/4
f 975/1/4 976/1/4 981/1/4
f 980/7/4 975/7/4 981/7/4
f 976/7/4 977/7/4 982/7/4
f 981/1/4 976/1/4 982/1/4
f 982/7/4 977/7/4 983/7/4
f 984/5/4 985/5/4 987/5/4
f 985/7/4 986/7/4 988/7/4
f 987/5/4 985/5/4 988/5/4
f 988/7/4 986/7/4 989/7/4
f 990/5/4 991/5/4 993/5/4
f 991/7/4 992/7/4 994/7/4
f 993/5/4 991/5/4 994/5/4
f 994/7/4 992/7/4 995/7/4
f 996/7/4 997/7/4 1004/7/4
f 997/7/4 998/7/4 1004/7/4
f 998/9/4 999/9/4 1005/9/4
f 1004/7/4 998/7/4 1005/7/4
f 999/7/4 1000/7/4 1006/7/4
f 1005/9/4 999/9/4 1006/9/4
f 1000/9/4 1001/9/4 1007/9/4
f 1006/7/4 1000/7/4 1007/7/4
f 1001/1/4 1002/1/4 1008/1/4
f 1007/9/4 1001/9/4 1008/9/4
f 1002/7/4 1003/7/4 1009/7/4
f 1008/1/4 1002/1/4 1009/1/4
f 1009/7/4 1003/7/4 1010/7/4
f 1011/5/4 1012/5/4 1014/5/4
f 1012/7/4 1013/7/4 1015/7/4
f 1014/5/4 1012/5/4 1015/5/4
f 1015/7/4 1013/7/4 1016/7/4
f 1017/5/4 1018/5/4 1020/5/4
f 1018/7/4 1019/7/4 1021/7/4
f 1020/5/4 1018/5/4 1021/5/4
f 1021/7/4 1019/7/4 1022/7/4
f 1023/7/4 1024/7/4 1029/7/4
f 1024/4/4 1025/4/4 1030/4/4
f 1029/7/4 1024/7/4 1030/7/4
f 1025/7/4 1026/7/4 1031/7/4
f 1030/4/4 1025/4/4 1031/4/4
f 1026/1/4 1027/1/4 1032/1/4
f 1031/7/4 1026/7/4 1032/7/4
f 1027/7/4 1028/7/4 1033/7/4
f 1032/1/4 1027/1/4 1033/1/4
f 1033/7/4 1028/7/4 1034/7/4
f 1035/5/4 1036/5/4 1038/5/4
f 1036/7/4 1037/7/4 1039/7/4
f 1038/5/4 1036/5/4 1039/5/4
f 1039/7/4 1037/7/4 1040/7/4
f 1041/5/4 1042/5/4 1044/5/4
f 1042/7/4 1043/7/4 1045/7/4
f 1044/5/4 1042/5/4 1045/5/4
f 1045/7/4 1043/7/4 1046/7/4
f 1047/7/4 1048/7/4 1051/7/4
f 1048/1/4 1049/1/4 1052/1/4
f 1051/7/4 1048/7/4 1052/7/4
f 1049/7/4 1050/7/4 1053/7/4
f 1052/1/4 1049/1/4 1053/1/4
f 1053/7/4 1050/7/4 1054/7/4
f 1055/7/4 1056/7/4 1061/7/4
f 1056/4/4 1057/4/4 1062/4/4
f 1061/7/4 1056/7/4 1062/7/4
f 1057/7/4 1058/7/4 1063/7/4
f 1062/4/4 1057/4/4 1063/4/4
f 1058/1/4 1059/1/4 1064/1/4
f 1063/7/4 1058/7/4 1064/7/4
f 1059/7/4 1060/7/4 1065/7/4
f 1064/1/4 1059/1/4 1065/1/4
f 1065/7/4 1060/7/4 1066/7/4
f 1067/5/4 1068/5/4 1070/5/4
f 1068/7/4 1069/7/4 1071/7/4
f 1070/5/4 1068/5/4 1071/5/4
f 1071/7/4 1069/7/4 1072/7/4
f 1073/7/4 1074/7/4 1075/7/4
f 1075/7/4 1074/7/4 1076/7/4
f 1077/7/4 1078/7/4 1079/7/4
f 1079/7/4 1078/7/4 1080/7/4
f 1081/5/4 1082/5/4 1084/5/4
f 1082/7/4 1083/7/4 1085/7/4
f 1084/5/4 1082/5/4 1085/5/4
f 1085/7/4 1083/7/4 1086/7/4
f 1087/7/4 1088/7/4 1091/7/4
f 1088/1/4 1089/1/4 1092/1/4
f 1091/7/4 1088/7/4 1092/7/4
f 1089/7/4 1090/7/4 1093/7/4
f 1092/1/4 1089/1/4 1093/1/4
f 1093/7/4 1090/7/4 1094/7/4
f 1095/5/4 1096/5/4 1098/5/4
f 1096/7/4 1097/7/4 1099/7/4
f 1098/5/4 1096/5/4 1099/5/4
f 1099/7/4 1097/7/4 1100/7/4
f 1101/5/4 1102/5/4 1104/5/4
f 1102/7/4 1103/7/4 1105/7/4
f 1104/5/4 1102/5/4 1105/5/4
f 1105/7/4 1103/7/4 1106/7/4
f 1107/7/4 1108/7/4 1112/7/4
f 1108/4/4 1109/4/4 1113/4/4
f 1112/7/4 1108/7/4 1113/7/4
f 1113/4/4 1109/4/4 1114/4/4
f 1109/1/4 1110/1/4 1115/1/4
f 1114/4/4 1109/4/4 1115/4/4
f 1110/7/4 1111/7/4 1116/7/4
f 1115/1/4 1110/1/4 1116/1/4
f 1116/7/4 1111/7/4 1117/7/4
f 1118/5/4 1119/5/4 1121/5/4
f 1119/7/4 1120/7/4 1122/7/4
f 1121/5/4 1119/5/4 1122/5/4
f 1122/7/4 1120/7/4 1123/7/4
f 1124/5/4 1125/5/4 1127/5/4
f 1125/7/4 1126/7/4 1128/7/4
f 1127/5/4 1125/5/4 1128/5/4
f 1128/7/4 1126/7/4 1129/7/4
f 1130/7/4 1131/7/4 1134/7/4
f 1131/1/4 1132/1/4 1135/1/4
f 1134/7/4 1131/7/4 1135/7/4
f 1132/7/4 1133/7/4 1136/7/4
f 1135/1/4 1132/1/4 1136/1/4
f 1136/7/4 1133/7/4 1137/7/4
f 1138/4/4 1139/4/4 1143/4/4
f 1143/4/4 1139/4/4 1144/4/4
f 1143/7/4 1144/7/4 1145/7/4
f 1144/4/4 1139/4/4 1146/4/4
f 1145/7/4 1144/7/4 1146/7/4
f 1139/7/4 1140/7/4 1147/7/4
f 1146/4/4 1139/4/4 1147/4/4
f 1140/1/4 1141/1/4 1148/1/4
f 1147/7/4 1140/7/4 1148/7/4
f 1141/7/4 1142/7/4 1149/7/4
f 1148/1/4 1141/1/4 1149/1/4
f 1149/7/4 1142/7/4 1150/7/4
f 1151/5/4 1152/5/4 1154/5/4
f 1152/7/4 1153/7/4 1155/7/4
f 1154/5/4 1152/5/4 1155/5/4
f 1155/7/4 1153/7/4 1156/7/4
f 1157/7/4 1158/7/4 1161/7/4
f 1158/1/4 1159/1/4 1162/1/4
f 1161/7/4 1158/7/4 1162/7/4
f 1159/7/4 1160/7/4 1163/7/4
f 1162/1/4 1159/1/4 1163/1/4
f 1163/7/4 1160/7/4 1164/7/4
f 1165/4/4 1166/4/4 1170/4/4
f 1166/7/4 1167/7/4 1171/7/4
f 1170/4/4 1166/4/4 1171/4/4
f 1167/1/4 1168/1/4 1172/1/4
f 1171/7/4 1167/7/4 1172/7/4
f 1168/7/4 1169/7/4 1173/7/4
f 1172/1/4 1168/1/4 1173/1/4
f 1173/7/4 1169/7/4 1174/7/4
f 1175/7/4 1176/7/4 1179/7/4
f 1176/1/4 1177/1/4 1180/1/4
f 1179/7/4 1176/7/4 1180/7/4
f 1177/7/4 1178/7/4 1181/7/4
f 1180/1/4 1177/1/4 1181/1/4
f 1181/7/4 1178/7/4 1182/7/4
f 1183/7/4 1184/7/4 1187/7/4
f 1187/7/4 1184/7/4 1188/7/4
f 1188/7/4 1184/7/4 1189/7/4
f 1184/1/4 1185/1/4 1190/1/4
f 1189/7/4 1184/7/4 1190/7/4
f 1183/7/4 1187/7/4 1191/7/4
f 1187/9/4 1188/9/4 1191/9/4
f 1188/7/4 1189/7/4 1192/7/4
f 1191/9/4 1188/9/4 1192/9/4
f 1192/7/4 1189/7/4 1193/7/4
f 1193/7/4 1189/7/4 1194/7/4
f 1194/7/4 1189/7/4 1195/7/4
f 1195/7/4 1189/7/4 1196/7/4
f 1189/9/4 1190/9/4 1197/9/4
f 1196/7/4 1189/7/4 1197/7/4
f 1190/1/4 1185/1/4 1198/1/4
f 1197/9/4 1190/9/4 1198/9/4
f 1183/7/4 1191/7/4 1199/7/4
f 1191/7/4 1192/7/4 1199/7/4
f 1192/9/4 1193/9/4 1200/9/4
f 1199/7/4 1192/7/4 1200/7/4
f 1193/7/4 1194/7/4 1201/7/4
f 1200/9/4 1193/9/4 1201/9/4
f 1194/9/4 1195/9/4 1202/9/4
f 1201/7/4 1194/7/4 1202/7/4
f 1195/7/4 1196/7/4 1203/7/4
f 1202/9/4 1195/9/4 1203/9/4
f 1196/9/4 1197/9/4 1204/9/4
f 1203/7/4 1196/7/4 1204/7/4
f 1197/7/4 1198/7/4 1205/7/4
f 1204/9/4 1197/9/4 1205/9/4
f 1198/1/4 1185/1/4 1206/1/4
f 1205/7/4 1198/7/4 1206/7/4
f 1185/7/4 1186/7/4 1207/7/4
f 1206/1/4 1185/1/4 1207/1/4
f 1207/7/4 1186/7/4 1208/7/4
f 1209/7/4 1210/7/4 1219/7/4
f 1210/9/4 1211/9/4 1220/9/4
f 1219/7/4 1210/7/4 1220/7/4
f 1211/7/4 1212/7/4 1221/7/4
f 1220/9/4 1211/9/4 1221/9/4
f 1212/9/4 1213/9/4 1222/9/4
f 1221/7/4 1212/7/4 1222/7/4
f 1213/7/4 1214/7/4 1223/7/4
f 1222/9/4 1213/9/4 1223/9/4
f 1214/9/4 1215/9/4 1224/9/4
f 1223/7/4 1214/7/4 1224/7/4
f 1215/7/4 1216/7/4 1225/7/4
f 1224/9/4 1215/9/4 1225/9/4
f 1216/1/4 1217/1/4 1226/1/4
f 1225/7/4 1216/7/4 1226/7/4
f 1209/7/4 1219/7/4 1227/7/4
f 1219/9/4 1220/9/4 1227/9/4
f 1220/7/4 1221/7/4 1228/7/4
f 1227/9/4 1220/9/4 1228/9/4
f 1221/7/4 1222/7/4 1228/7/4
f 1224/7/4 1225/7/4 1228/7/4
f 1223/7/4 1224/7/4 1228/7/4
f 1222/7/4 1223/7/4 1228/7/4
f 1225/9/4 1226/9/4 1229/9/4
f 1228/7/4 1225/7/4 1229/7/4
f 1226/1/4 1217/1/4 1230/1/4
f 1229/9/4 1226/9/4 1230/9/4
f 1228/7/4 1229/7/4 1231/7/4
f 1227/7/4 1228/7/4 1231/7/4
f 1229/7/4 1230/7/4 1231/7/4
f 1209/7/4 1227/7/4 1231/7/4
f 1230/1/4 1217/1/4 1232/1/4
f 1231/7/4 1230/7/4 1232/7/4
f 1217/7/4 1218/7/4 1233/7/4
f 1232/1/4 1217/1/4 1233/1/4
f 1233/7/4 1218/7/4 1234/7/4
f 1235/7/4 1236/7/4 1243/7/4
f 1236/9/4 1237/9/4 1244/9/4
f 1243/7/4 1236/7/4 1244/7/4
f 1237/7/4 1238/7/4 1245/7/4
f 1244/9/4 1237/9/4 1245/9/4
f 1245/7/4 1238/7/4 1246/7/4
f 1246/7/4 1238/7/4 1247/7/4
f 1238/9/4 1239/9/4 1248/9/4
f 1247/7/4 1238/7/4 1248/7/4
f 1239/7/4 1240/7/4 1249/7/4
f 1248/9/4 1239/9/4 1249/9/4
f 1249/7/4 1240/7/4 1250/7/4
f 1244/7/4 1245/7/4 1251/7/4
f 1245/7/4 1246/7/4 1251/7/4
f 1246/9/4 1247/9/4 1252/9/4
f 1251/7/4 1246/7/4 1252/7/4
f 1247/7/4 1248/7/4 1253/7/4
f 1252/9/4 1247/9/4 1253/9/4
f 1248/7/4 1249/7/4 1253/7/4
f 1253/7/4 1249/7/4 1254/7/4
f 1244/7/4 1251/7/4 1255/7/4
f 1251/9/4 1252/9/4 1255/9/4
f 1252/7/4 1253/7/4 1256/7/4
f 1255/9/4 1252/9/4 1256/9/4
f 1253/9/4 1254/9/4 1257/9/4
f 1256/7/4 1253/7/4 1257/7/4
f 1254/7/4 1249/7/4 1258/7/4
f 1257/9/4 1254/9/4 1258/9/4
f 1235/7/4 1243/7/4 1259/7/4
f 1243/9/4 1244/9/4 1259/9/4
f 1255/7/4 1256/7/4 1260/7/4
f 1259/9/4 1244/9/4 1260/9/4
f 1244/7/4 1255/7/4 1260/7/4
f 1260/7/4 1256/7/4 1261/7/4
f 1256/9/4 1257/9/4 1262/9/4
f 1261/7/4 1256/7/4 1262/7/4
f 1257/7/4 1258/7/4 1263/7/4
f 1262/9/4 1257/9/4 1263/9/4
f 1258/7/4 1249/7/4 1264/7/4
f 1263/7/4 1258/7/4 1264/7/4
f 1249/9/4 1250/9/4 1265/9/4
f 1264/7/4 1249/7/4 1265/7/4
f 1250/7/4 1240/7/4 1266/7/4
f 1265/9/4 1250/9/4 1266/9/4
f 1235/7/4 1259/7/4 1267/7/4
f 1259/7/4 1260/7/4 1267/7/4
f 1260/9/4 1261/9/4 1268/9/4
f 1267/7/4 1260/7/4 1268/7/4
f 1262/7/4 1263/7/4 1269/7/4
f 1268/9/4 1261/9/4 1269/9/4
f 1261/7/4 1262/7/4 1269/7/4
f 1263/7/4 1264/7/4 1269/7/4
f 1264/9/4 1265/9/4 1270/9/4
f 1269/7/4 1264/7/4 1270/7/4
f 1265/7/4 1266/7/4 1271/7/4
f 1270/9/4 1265/9/4 1271/9/4
f 1266/7/4 1240/7/4 1272/7/4
f 1271/7/4 1266/7/4 1272/7/4
f 1240/1/4 1241/1/4 1272/1/4
f 1241/7/4 1242/7/4 1273/7/4
f 1272/1/4 1241/1/4 1273/1/4
f 1273/7/4 1242/7/4 1274/7/4
f 1278/7/5 1276/7/5 1275/7/5
f 1279/7/5 1276/7/5 1278/7/5
f 1282/7/5 1278/7/5 1277/7/5
f 1282/7/5 1280/7/5 1279/7/5
f 1282/7/5 1279/7/5 1278/7/5
f 1283/7/5 1280/7/5 1282/7/5
f 1285/4/5 1282/4/5 1281/4/5
f 1286/7/5 1284/7/5 1283/7/5
f 1286/4/5 1282/4/5 1285/4/5
f 1286/7/5 1283/7/5 1282/7/5
f 1288/7/5 1286/7/5 1285/7/5
f 1289/7/5 1284/7/5 1286/7/5
f 1289/7/5 1286/7/5 1288/7/5
f 1292/7/5 1288/7/5 1287/7/5
f 1292/7/5 1289/7/5 1288/7/5
f 1293/1/5 1290/1/5 1289/1/5
f 1293/7/5 1289/7/5 1292/7/5
f 1294/1/5 1290/1/5 1293/1/5
f 1296/4/5 1292/4/5 1291/4/5
f 1297/7/5 1295/7/5 1294/7/5
f 1297/4/5 1292/4/5 1296/4/5
f 1297/7/5 1293/7/5 1292/7/5
f 1297/7/5 1294/7/5 1293/7/5
f 1299/7/5 1297/7/5 1296/7/5
f 1300/7/5 1295/7/5 1297/7/5
f 1300/7/5 1297/7/5 1299/7/5
f 1302/7/5 1299/7/5 1298/7/5
f 1302/7/5 1301/7/5 1300/7/5
f 1302/7/5 1300/7/5 1299/7/5
f 1303/7/5 1301/7/5 1302/7/5
f 1304/4/5 1303/4/5 1302/4/5
f 1305/7/5 1301/7/5 1303/7/5
f 1305/4/5 1303/4/5 1304/4/5
f 1306/7/5 1305/7/5 1304/7/5
f 1307/7/5 1301/7/5 1305/7/5
f 1307/7/5 1305/7/5 1306/7/5
f 1308/7/5 1301/7/5 1307/7/5
f 1309/7/5 1301/7/5 1308/7/5
f 1310/7/5 1308/7/5 1307/7/5
f 1311/7/5 1308/7/5 1310/7/5
f 1312/4/5 1311/4/5 1310/4/5
f 1313/7/5 1308/7/5 1311/7/5
f 1313/4/5 1311/4/5 1312/4/5
f 1314/7/5 1313/7/5 1312/7/5
f 1315/7/5 1308/7/5 1313/7/5
f 1315/7/5 1313/7/5 1314/7/5
f 1316/7/5 1308/7/5 1315/7/5
f 1317/7/5 1308/7/5 1316/7/5
f 1318/7/5 1316/7/5 1315/7/5
f 1319/7/5 1316/7/5 1318/7/5
f 1320/7/5 1316/7/5 1319/7/5
f 1321/7/5 1316/7/5 1320/7/5
f 1322/7/5 1320/7/5 1319/7/5
f 1323/7/5 1320/7/5 1322/7/5
f 1324/7/5 1320/7/5 1323/7/5
f 1325/7/5 1320/7/5 1324/7/5
f 1326/7/5 1320/7/5 1325/7/5
f 1327/4/5 1324/4/5 1323/4/5
f 1328/7/5 1325/7/5 1324/7/5
f 1328/4/5 1324/4/5 1327/4/5
f 1329/7/5 1325/7/5 1328/7/5
f 1330/7/5 1325/7/5 1329/7/5
f 1331/7/5 1325/7/5 1330/7/5
f 1332/7/5 1325/7/5 1331/7/5
f 1333/4/5 1330/4/5 1329/4/5
f 1334/7/5 1331/7/5 1330/7/5
f 1334/4/5 1330/4/5 1333/4/5
f 1335/7/5 1331/7/5 1334/7/5
f 1336/7/5 1331/7/5 1335/7/5
f 1337/7/5 1335/7/5 1334/7/5
f 1338/7/5 1335/7/5 1337/7/5
f 1339/7/5 1335/7/5 1338/7/5
f 1340/7/5 1335/7/5 1339/7/5
f 1341/7/5 1339/7/5 1338/7/5
f 1342/7/5 1339/7/5 1341/7/5
f 1345/9/5 1344/9/5 1343/9/5
f 1346/9/5 1344/9/5 1345/9/5
f 1349/10/5 1348/10/5 1347/10/5
f 1350/10/5 1348/10/5 1349/10/5
f 1353/10/5 1352/10/5 1351/10/5
f 1354/10/5 1352/10/5 1353/10/5
f 1357/3/5 1356/3/5 1355/3/5
f 1358/3/5 1356/3/5 1357/3/5
f 1361/5/5 1360/5/5 1359/5/5
f 1362/5/5 1360/5/5 1361/5/5
f 1365/9/5 1364/9/5 1363/9/5
f 1366/9/5 1364/9/5 1365/9/5
f 1367/9/6 1368/9/6 1369/9/6
f 1369/9/6 1368/9/6 1370/9/6
f 1370/9/6 1368/9/6 1371/9/6
f 1371/9/6 1368/9/6 1372/9/6
f 1367/9/6 1369/9/6 1373/9/6
f 1373/9/6 1369/9/6 1374/9/6
f 1372/9/6 1368/9/6 1375/9/6
f 1375/9/6 1368/9/6 1376/9/6
f 1377/10/6 1378/10/6 1379/10/6
f 1379/10/6 1378/10/6 1380/10/6
f 1381/10/6 1382/10/6 1383/10/6
f 1383/10/6 1382/10/6 1384/10/6
f 1385/3/6 1386/3/6 1387/3/6
f 1387/3/6 1386/3/6 1388/3/6
f 1389/5/6 1390/5/6 1391/5/6
f 1391/5/6 1390/5/6 1392/5/6
f 1393/9/6 1394/9/6 1395/9/6
f 1395/9/6 1394/9/6 1396/9/6
f 1397/9/6 1398/9/6 1399/9/6
f 1399/9/6 1398/9/6 1400/9/6
f 1401/7/6 1402/7/6 1404/7/6
f 1404/7/6 1402/7/6 1405/7/6
f 1405/7/6 1402/7/6 1406/7/6
f 1406/7/6 1402/7/6 1407/7/6
f 1403/7/6 1404/7/6 1410/7/6
f 1404/7/6 1405/7/6 1410/7/6
f 1410/7/6 1405/7/6 1411/7/6
f 1411/7/6 1405/7/6 1412/7/6
f 1406/7/6 1407/7/6 1413/7/6
f 1407/7/6 1408/7/6 1413/7/6
f 1413/7/6 1408/7/6 1414/7/6
f 1414/7/6 1408/7/6 1415/7/6
f 1410/7/6 1411/7/6 1417/7/6
f 1409/7/6 1410/7/6 1417/7/6
f 1417/7/6 1411/7/6 1418/7/6
f 1415/7/6 1416/7/6 1419/7/6
f 1414/7/6 1415/7/6 1419/7/6
f 1419/7/6 1416/7/6 1420/7/6
f 1409/7/6 1417/7/6 1422/7/6
f 1422/7/6 1417/7/6 1423/7/6
f 1423/7/6 1417/7/6 1424/7/6
f 1420/7/6 1416/7/6 1425/7/6
f 1425/7/6 1416/7/6 1426/7/6
f 1426/7/6 1416/7/6 1427/7/6
f 1421/7/6 1422/7/6 1430/7/6
f 1422/7/6 1423/7/6 1430/7/6
f 1430/7/6 1423/7/6 1431/7/6
f 1431/7/6 1423/7/6 1432/7/6
f 1427/7/6 1428/7/6 1433/7/6
f 1426/7/6 1427/7/6 1433/7/6
f 1433/7/6 1428/7/6 1434/7/6
f 1434/7/6 1428/7/6 1435/7/6
f 1430/7/6 1431/7/6 1437/7/6
f 1429/7/6 1430/7/6 1437/7/6
f 1437/7/6 1431/7/6 1438/7/6
f 1435/7/6 1436/7/6 1439/7/6
f 1434/7/6 1435/7/6 1439/7/6
f 1439/7/6 1436/7/6 1440/7/6
f 1429/7/6 1437/7/6 1442/7/6
f 1442/7/6 1437/7/6 1443/7/6
f 1443/7/6 1437/7/6 1444/7/6
f 1440/7/6 1436/7/6 1445/7/6
f 1445/7/6 1436/7/6 1446/7/6
f 1446/7/6 1436/7/6 1447/7/6
f 1441/7/6 1442/7/6 1449/7/6
f 1442/7/6 1443/7/6 1449/7/6
f 1449/7/6 1443/7/6 1450/7/6
f 1450/7/6 1443/7/6 1451/7/6
f 1447/7/6 1448/7/6 1454/7/6
f 1446/7/6 1447/7/6 1454/7/6
f 1454/7/6 1448/7/6 1455/7/6
f 1455/7/6 1448/7/6 1456/7/6
f 1451/7/6 1452/7/6 1457/7/6
f 1450/7/6 1451/7/6 1457/7/6
f 1454/7/6 1455/7/6 1460/7/6
f 1453/7/6 1454/7/6 1460/7/6
f 1457/7/6 1458/7/6 1461/7/6
f 1450/7/6 1457/7/6 1461/7/6
f 1461/7/6 1458/7/6 1462/7/6
f 1462/7/6 1458/7/6 1463/7/6
f 1459/7/6 1460/7/6 1466/7/6
f 1460/7/6 1455/7/6 1467/7/6
f 1466/7/6 1460/7/6 1467/7/6
f 1467/7/6 1455/7/6 1468/7/6
f 1463/7/6 1464/7/6 1469/7/6
f 1462/7/6 1463/7/6 1469/7/6
f 1469/7/6 1464/7/6 1470/7/6
f 1470/7/6 1464/7/6 1471/7/6
f 1465/7/6 1466/7/6 1474/7/6
f 1466/7/6 1467/7/6 1474/7/6
f 1474/7/6 1467/7/6 1475/7/6
f 1475/7/6 1467/7/6 1476/7/6
f 1471/7/6 1472/7/6 1477/7/6
f 1470/7/6 1471/7/6 1477/7/6
f 1474/7/6 1475/7/6 1480/7/6
f 1473/7/6 1474/7/6 1480/7/6
f 1477/7/6 1478/7/6 1481/7/6
f 1470/7/6 1477/7/6 1481/7/6
f 1481/7/6 1478/7/6 1482/7/6
f 1482/7/6 1478/7/6 1483/7/6
f 1479/7/6 1480/7/6 1486/7/6
f 1480/7/6 1475/7/6 1487/7/6
f 1486/7/6 1480/7/6 1487/7/6
f 1487/7/6 1475/7/6 1488/7/6
f 1483/7/6 1484/7/6 1489/7/6
f 1482/7/6 1483/7/6 1489/7/6
f 1489/7/6 1484/7/6 1490/7/6
f 1490/7/6 1484/7/6 1491/7/6
f 1485/7/6 1486/7/6 1492/7/6
f 1486/7/6 1487/7/6 1492/7/6
f 1492/7/6 1487/7/6 1493/7/6
f 1493/7/6 1487/7/6 1494/7/6
f 1490/7/6 1491/7/6 1495/7/6
f 1492/7/6 1493/7/6 1495/7/6
f 1491/7/6 1492/7/6 1495/7/6
f 1495/7/6 1493/7/6 1496/7/6
f 1496/7/6 1493/7/6 1497/7/6
f 1497/7/6 1493/7/6 1498/7/6
f 1496/7/6 1497/7/6 1499/7/6
f 1499/7/6 1497/7/6 1500/7/6
f 1500/7/6 1497/7/6 1501/7/6
f 1501/7/6 1497/7/6 1502/7/6
f 1500/7/6 1501/7/6 1503/7/6
f 1503/7/6 1501/7/6 1504/7/6
f 1505/7/6 1506/7/6 1508/7/6
f 1508/7/6 1506/7/6 1509/7/6
f 1507/7/6 1508/7/6 1512/7/6
f 1509/7/6 1510/7/6 1512/7/6
f 1508/7/6 1509/7/6 1512/7/6
f 1512/7/6 1510/7/6 1513/7/6
f 1511/7/6 1512/7/6 1516/7/6
f 1513/7/6 1514/7/6 1516/7/6
f 1512/7/6 1513/7/6 1516/7/6
f 1516/7/6 1514/7/6 1517/7/6
f 1517/7/6 1514/7/6 1518/7/6
f 1518/7/6 1514/7/6 1519/7/6
f 1519/7/6 1514/7/6 1520/7/6
f 1520/7/6 1514/7/6 1521/7/6
f 1515/7/6 1516/7/6 1524/7/6
f 1516/7/6 1517/7/6 1524/7/6
f 1524/7/6 1517/7/6 1525/7/6
f 1518/7/6 1519/7/6 1526/7/6
f 1526/7/6 1519/7/6 1527/7/6
f 1520/7/6 1521/7/6 1528/7/6
f 1521/7/6 1522/7/6 1528/7/6
f 1528/7/6 1522/7/6 1529/7/6
f 1526/7/6 1527/7/6 1532/7/6
f 1529/7/6 1530/7/6 1532/7/6
f 1528/7/6 1529/7/6 1532/7/6
f 1527/7/6 1528/7/6 1532/7/6
f 1524/7/6 1525/7/6 1532/7/6
f 1525/7/6 1526/7/6 1532/7/6
f 1523/7/6 1524/7/6 1532/7/6
f 1532/7/6 1530/7/6 1533/7/6
f 1531/7/6 1532/7/6 1536/7/6
f 1533/7/6 1534/7/6 1536/7/6
f 1532/7/6 1533/7/6 1536/7/6
f 1536/7/6 1534/7/6 1537/7/6
f 1535/7/6 1536/7/6 1539/7/6
f 1537/7/6 1538/7/6 1539/7/6
f 1536/7/6 1537/7/6 1539/7/6
f 1539/7/6 1538/7/6 1540/7/6
f 1540/7/6 1538/7/6 1541/7/6
f 1541/7/6 1538/7/6 1542/7/6
f 1540/7/6 1541/7/6 1543/7/6
f 1543/7/6 1541/7/6 1544/7/6
f 1544/7/6 1541/7/6 1545/7/6
f 1545/7/6 1541/7/6 1546/7/6
f 1544/7/6 1545/7/6 1547/7/6
f 1547/7/6 1545/7/6 1548/7/6
f 1548/7/6 1545/7/6 1549/7/6
f 1549/7/6 1545/7/6 1550/7/6
f 1550/7/6 1545/7/6 1551/7/6
f 1551/7/6 1545/7/6 1552/7/6
f 1552/7/6 1545/7/6 1553/7/6
f 1553/7/6 1545/7/6 1554/7/6
f 1548/7/6 1549/7/6 1555/7/6
f 1555/7/6 1549/7/6 1556/7/6
f 1556/7/6 1549/7/6 1557/7/6
f 1550/7/6 1551/7/6 1558/7/6
f 1558/7/6 1551/7/6 1559/7/6
f 1552/7/6 1553/7/6 1560/7/6
f 1560/7/6 1553/7/6 1561/7/6
f 1561/7/6 1553/7/6 1562/7/6
f 1558/7/6 1559/7/6 1563/7/6
f 1556/7/6 1557/7/6 1563/7/6
f 1560/7/6 1561/7/6 1563/7/6
f 1559/7/6 1560/7/6 1563/7/6
f 1557/7/6 1558/7/6 1563/7/6
f 1563/7/6 1561/7/6 1564/7/6
f 1564/7/6 1561/7/6 1565/7/6
f 1565/7/6 1561/7/6 1566/7/6
f 1564/7/6 1565/7/6 1567/7/6
f 1567/7/6 1565/7/6 1568/7/6
f 1568/7/6 1565/7/6 1569/7/6
f 1569/7/6 1565/7/6 1570/7/6
f 1568/7/6 1569/7/6 1571/7/6
f 1571/7/6 1569/7/6 1572/7/6
f 1573/7/6 1574/7/6 1577/7/6
f 1577/7/6 1574/7/6 1578/7/6
f 1575/7/6 1576/7/6 1579/7/6
f 1579/7/6 1576/7/6 1580/7/6
f 1581/7/6 1582/7/6 1585/7/6
f 1585/7/6 1582/7/6 1586/7/6
f 1583/7/6 1584/7/6 1587/7/6
f 1587/7/6 1584/7/6 1588/7/6
