# MagicaVoxel @ Ephtracy

# group
o 

# material
mtllib chamberDoorbutton.mtl
usemtl palette

# normals
vn -1 0 0
vn 1 0 0
vn 0 0 1
vn 0 0 -1
vn 0 -1 0
vn 0 1 0

# texcoords
vt 0.294922 0.5
vt 0.298828 0.5
vt 0.353516 0.5
vt 0.361328 0.5
vt 0.373047 0.5
vt 0.619141 0.5
vt 0.642578 0.5

# verts
v -0.6 0 0.3
v -0.6 0 -2.98023e-08
v -0.6 1.7 0.3
v -0.6 1.7 -2.98023e-08
v -0.4 0.2 0.3
v -0.4 0.2 0.2
v -0.4 0.3 0.3
v -0.4 0.3 0.2
v -0.4 0.4 0.3
v -0.4 0.4 0.2
v -0.4 0.5 0.3
v -0.4 0.5 0.2
v -0.4 0.6 0.3
v -0.4 0.6 0.2
v -0.4 0.7 0.3
v -0.4 0.7 0.2
v -0.4 0.8 0.3
v -0.4 0.8 0.2
v -0.4 0.9 0.3
v -0.4 0.9 0.2
v -0.4 1.1 0.3
v -0.4 1.1 0.2
v -0.4 1.2 0.3
v -0.4 1.2 0.2
v -0.4 1.3 0.3
v -0.4 1.3 0.2
v -0.4 1.4 0.3
v -0.4 1.4 0.2
v -0.4 1.5 0.3
v -0.4 1.5 0.2
v 0.1 0.1 0.3
v 0.1 0.1 0.2
v 0.1 1.6 0.3
v 0.1 1.6 0.2
v -0.5 0.1 0.3
v -0.5 0.1 0.2
v -0.5 1.6 0.3
v -0.5 1.6 0.2
v 5.96046e-08 0.2 0.3
v 5.96046e-08 0.2 0.2
v 5.96046e-08 0.7 0.3
v 5.96046e-08 0.7 0.2
v 5.96046e-08 0.8 0.3
v 5.96046e-08 0.8 0.2
v 5.96046e-08 0.9 0.3
v 5.96046e-08 0.9 0.2
v 5.96046e-08 1.1 0.3
v 5.96046e-08 1.1 0.2
v 5.96046e-08 1.2 0.3
v 5.96046e-08 1.2 0.2
v 5.96046e-08 1.3 0.3
v 5.96046e-08 1.3 0.2
v 5.96046e-08 1.4 0.3
v 5.96046e-08 1.4 0.2
v 5.96046e-08 1.5 0.3
v 5.96046e-08 1.5 0.2
v 0.2 0 0.3
v 0.2 0 -2.98023e-08
v 0.2 1.7 0.3
v 0.2 1.7 -2.98023e-08
v -0.6 0 0.3
v -0.6 1.7 0.3
v -0.5 0.1 0.3
v -0.5 1.6 0.3
v -0.4 0.2 0.3
v -0.4 0.3 0.3
v -0.4 0.4 0.3
v -0.4 0.5 0.3
v -0.4 0.6 0.3
v -0.4 0.7 0.3
v -0.4 0.8 0.3
v -0.4 0.9 0.3
v -0.4 1.1 0.3
v -0.4 1.2 0.3
v -0.4 1.3 0.3
v -0.4 1.4 0.3
v -0.4 1.5 0.3
v -0.3 1.1 0.3
v -0.3 1.2 0.3
v -0.3 1.3 0.3
v -0.3 1.4 0.3
v -0.3 1.5 0.3
v -0.2 0.3 0.3
v -0.2 0.4 0.3
v -0.2 1.1 0.3
v -0.2 1.2 0.3
v -0.2 1.3 0.3
v -0.2 1.4 0.3
v -0.2 1.5 0.3
v -0.0999999 0.5 0.3
v -0.0999999 0.6 0.3
v -0.0999999 1.1 0.3
v -0.0999999 1.2 0.3
v -0.0999999 1.3 0.3
v -0.0999999 1.4 0.3
v -0.0999999 1.5 0.3
v 5.96046e-08 0.2 0.3
v 5.96046e-08 0.7 0.3
v 5.96046e-08 0.8 0.3
v 5.96046e-08 0.9 0.3
v 5.96046e-08 1.1 0.3
v 5.96046e-08 1.2 0.3
v 5.96046e-08 1.3 0.3
v 5.96046e-08 1.4 0.3
v 5.96046e-08 1.5 0.3
v 0.1 0.1 0.3
v 0.1 1.6 0.3
v 0.2 0 0.3
v 0.2 1.7 0.3
v -0.5 0.1 0.2
v -0.5 1.6 0.2
v -0.4 0.2 0.2
v -0.4 0.3 0.2
v -0.4 0.4 0.2
v -0.4 0.5 0.2
v -0.4 0.6 0.2
v -0.4 0.7 0.2
v -0.4 0.8 0.2
v -0.4 0.9 0.2
v -0.4 1.1 0.2
v -0.4 1.2 0.2
v -0.4 1.3 0.2
v -0.4 1.4 0.2
v -0.4 1.5 0.2
v -0.3 1.1 0.2
v -0.3 1.5 0.2
v -0.2 1.1 0.2
v -0.2 1.5 0.2
v -0.0999999 1.1 0.2
v -0.0999999 1.5 0.2
v 5.96046e-08 0.2 0.2
v 5.96046e-08 0.7 0.2
v 5.96046e-08 0.8 0.2
v 5.96046e-08 0.9 0.2
v 5.96046e-08 1.1 0.2
v 5.96046e-08 1.2 0.2
v 5.96046e-08 1.3 0.2
v 5.96046e-08 1.4 0.2
v 5.96046e-08 1.5 0.2
v 0.1 0.1 0.2
v 0.1 1.6 0.2
v -0.6 0 -2.98023e-08
v -0.6 1.7 -2.98023e-08
v 0.2 0 -2.98023e-08
v 0.2 1.7 -2.98023e-08
v -0.6 0 0.3
v 0.2 0 0.3
v -0.6 0 -2.98023e-08
v 0.2 0 -2.98023e-08
v -0.4 0.2 0.3
v 5.96046e-08 0.2 0.3
v -0.4 0.2 0.2
v 5.96046e-08 0.2 0.2
v -0.4 0.8 0.3
v 5.96046e-08 0.8 0.3
v -0.4 0.8 0.2
v 5.96046e-08 0.8 0.2
v -0.4 1.1 0.3
v -0.3 1.1 0.3
v -0.2 1.1 0.3
v -0.0999999 1.1 0.3
v 5.96046e-08 1.1 0.3
v -0.4 1.1 0.2
v -0.3 1.1 0.2
v -0.2 1.1 0.2
v -0.0999999 1.1 0.2
v 5.96046e-08 1.1 0.2
v -0.5 1.6 0.3
v 0.1 1.6 0.3
v -0.5 1.6 0.2
v 0.1 1.6 0.2
v -0.5 0.1 0.3
v 0.1 0.1 0.3
v -0.5 0.1 0.2
v 0.1 0.1 0.2
v -0.4 0.7 0.3
v 5.96046e-08 0.7 0.3
v -0.4 0.7 0.2
v 5.96046e-08 0.7 0.2
v -0.4 0.9 0.3
v 5.96046e-08 0.9 0.3
v -0.4 0.9 0.2
v 5.96046e-08 0.9 0.2
v -0.4 1.5 0.3
v -0.3 1.5 0.3
v -0.2 1.5 0.3
v -0.0999999 1.5 0.3
v 5.96046e-08 1.5 0.3
v -0.4 1.5 0.2
v -0.3 1.5 0.2
v -0.2 1.5 0.2
v -0.0999999 1.5 0.2
v 5.96046e-08 1.5 0.2
v -0.6 1.7 0.3
v 0.2 1.7 0.3
v -0.6 1.7 -2.98023e-08
v 0.2 1.7 -2.98023e-08

# faces
f 3/7/1 2/7/1 1/7/1
f 4/7/1 2/7/1 3/7/1
f 7/3/1 6/3/1 5/3/1
f 8/3/1 6/3/1 7/3/1
f 9/5/1 8/5/1 7/5/1
f 10/5/1 8/5/1 9/5/1
f 11/3/1 10/3/1 9/3/1
f 12/3/1 10/3/1 11/3/1
f 13/5/1 12/5/1 11/5/1
f 14/5/1 12/5/1 13/5/1
f 15/3/1 14/3/1 13/3/1
f 16/3/1 14/3/1 15/3/1
f 19/2/1 18/2/1 17/2/1
f 20/2/1 18/2/1 19/2/1
f 23/1/1 22/1/1 21/1/1
f 24/1/1 22/1/1 23/1/1
f 25/4/1 24/4/1 23/4/1
f 26/4/1 24/4/1 25/4/1
f 27/1/1 26/1/1 25/1/1
f 28/1/1 26/1/1 27/1/1
f 29/4/1 28/4/1 27/4/1
f 30/4/1 28/4/1 29/4/1
f 33/7/1 32/7/1 31/7/1
f 34/7/1 32/7/1 33/7/1
f 35/7/2 36/7/2 37/7/2
f 37/7/2 36/7/2 38/7/2
f 39/3/2 40/3/2 41/3/2
f 41/3/2 40/3/2 42/3/2
f 43/2/2 44/2/2 45/2/2
f 45/2/2 44/2/2 46/2/2
f 47/4/2 48/4/2 49/4/2
f 49/4/2 48/4/2 50/4/2
f 49/1/2 50/1/2 51/1/2
f 51/1/2 50/1/2 52/1/2
f 51/4/2 52/4/2 53/4/2
f 53/4/2 52/4/2 54/4/2
f 53/1/2 54/1/2 55/1/2
f 55/1/2 54/1/2 56/1/2
f 57/7/2 58/7/2 59/7/2
f 59/7/2 58/7/2 60/7/2
f 63/7/3 62/7/3 61/7/3
f 64/7/3 62/7/3 63/7/3
f 78/1/3 74/1/3 73/1/3
f 79/4/3 75/4/3 74/4/3
f 79/1/3 74/1/3 78/1/3
f 80/1/3 76/1/3 75/1/3
f 80/4/3 75/4/3 79/4/3
f 81/4/3 77/4/3 76/4/3
f 81/1/3 76/1/3 80/1/3
f 82/4/3 77/4/3 81/4/3
f 83/3/3 66/3/3 65/3/3
f 83/5/3 67/5/3 66/5/3
f 84/3/3 68/3/3 67/3/3
f 84/5/3 67/5/3 83/5/3
f 85/4/3 79/4/3 78/4/3
f 86/1/3 80/1/3 79/1/3
f 86/4/3 79/4/3 85/4/3
f 87/4/3 81/4/3 80/4/3
f 87/1/3 80/1/3 86/1/3
f 88/1/3 82/1/3 81/1/3
f 88/4/3 81/4/3 87/4/3
f 89/1/3 82/1/3 88/1/3
f 90/5/3 69/5/3 68/5/3
f 90/3/3 68/3/3 84/3/3
f 90/3/3 84/3/3 83/3/3
f 91/3/3 70/3/3 69/3/3
f 91/5/3 69/5/3 90/5/3
f 92/1/3 86/1/3 85/1/3
f 93/4/3 87/4/3 86/4/3
f 93/1/3 86/1/3 92/1/3
f 94/1/3 88/1/3 87/1/3
f 94/4/3 87/4/3 93/4/3
f 95/4/3 89/4/3 88/4/3
f 95/1/3 88/1/3 94/1/3
f 96/4/3 89/4/3 95/4/3
f 97/3/3 83/3/3 65/3/3
f 97/3/3 90/3/3 83/3/3
f 97/3/3 91/3/3 90/3/3
f 98/3/3 70/3/3 91/3/3
f 98/3/3 91/3/3 97/3/3
f 99/2/3 72/2/3 71/2/3
f 100/2/3 72/2/3 99/2/3
f 101/4/3 93/4/3 92/4/3
f 102/1/3 94/1/3 93/1/3
f 102/4/3 93/4/3 101/4/3
f 103/4/3 95/4/3 94/4/3
f 103/1/3 94/1/3 102/1/3
f 104/1/3 96/1/3 95/1/3
f 104/4/3 95/4/3 103/4/3
f 105/1/3 96/1/3 104/1/3
f 106/7/3 63/7/3 61/7/3
f 107/7/3 62/7/3 64/7/3
f 108/7/3 106/7/3 61/7/3
f 108/7/3 107/7/3 106/7/3
f 109/7/3 62/7/3 107/7/3
f 109/7/3 107/7/3 108/7/3
f 112/6/3 111/6/3 110/6/3
f 113/6/3 111/6/3 112/6/3
f 114/6/3 111/6/3 113/6/3
f 115/6/3 111/6/3 114/6/3
f 116/6/3 111/6/3 115/6/3
f 117/6/3 111/6/3 116/6/3
f 118/6/3 111/6/3 117/6/3
f 119/6/3 111/6/3 118/6/3
f 120/6/3 111/6/3 119/6/3
f 121/6/3 111/6/3 120/6/3
f 122/6/3 111/6/3 121/6/3
f 123/6/3 111/6/3 122/6/3
f 124/6/3 111/6/3 123/6/3
f 125/6/3 120/6/3 119/6/3
f 126/6/3 111/6/3 124/6/3
f 127/6/3 125/6/3 119/6/3
f 128/6/3 111/6/3 126/6/3
f 129/6/3 127/6/3 119/6/3
f 130/6/3 111/6/3 128/6/3
f 131/6/3 112/6/3 110/6/3
f 132/6/3 118/6/3 117/6/3
f 133/6/3 118/6/3 132/6/3
f 134/6/3 129/6/3 119/6/3
f 135/6/3 129/6/3 134/6/3
f 139/6/3 111/6/3 130/6/3
f 140/6/3 138/6/3 137/6/3
f 140/6/3 139/6/3 138/6/3
f 140/6/3 133/6/3 132/6/3
f 140/6/3 131/6/3 110/6/3
f 140/6/3 137/6/3 136/6/3
f 140/6/3 136/6/3 135/6/3
f 140/6/3 135/6/3 134/6/3
f 140/6/3 134/6/3 133/6/3
f 140/6/3 132/6/3 131/6/3
f 141/6/3 111/6/3 139/6/3
f 141/6/3 139/6/3 140/6/3
f 142/7/4 143/7/4 144/7/4
f 144/7/4 143/7/4 145/7/4
f 148/7/5 147/7/5 146/7/5
f 149/7/5 147/7/5 148/7/5
f 152/3/5 151/3/5 150/3/5
f 153/3/5 151/3/5 152/3/5
f 156/2/5 155/2/5 154/2/5
f 157/2/5 155/2/5 156/2/5
f 163/1/5 159/1/5 158/1/5
f 164/4/5 160/4/5 159/4/5
f 164/1/5 159/1/5 163/1/5
f 165/1/5 161/1/5 160/1/5
f 165/4/5 160/4/5 164/4/5
f 166/4/5 162/4/5 161/4/5
f 166/1/5 161/1/5 165/1/5
f 167/4/5 162/4/5 166/4/5
f 170/7/5 169/7/5 168/7/5
f 171/7/5 169/7/5 170/7/5
f 172/7/6 173/7/6 174/7/6
f 174/7/6 173/7/6 175/7/6
f 176/3/6 177/3/6 178/3/6
f 178/3/6 177/3/6 179/3/6
f 180/2/6 181/2/6 182/2/6
f 182/2/6 181/2/6 183/2/6
f 184/4/6 185/4/6 189/4/6
f 185/1/6 186/1/6 190/1/6
f 189/4/6 185/4/6 190/4/6
f 186/4/6 187/4/6 191/4/6
f 190/1/6 186/1/6 191/1/6
f 187/1/6 188/1/6 192/1/6
f 191/4/6 187/4/6 192/4/6
f 192/1/6 188/1/6 193/1/6
f 194/7/6 195/7/6 196/7/6
f 196/7/6 195/7/6 197/7/6
