# MagicaVoxel @ Ephtracy

# group
o 

# material
mtllib labtable2.mtl
usemtl palette

# normals
vn -1 0 0
vn 1 0 0
vn 0 0 1
vn 0 0 -1
vn 0 -1 0
vn 0 1 0

# texcoords
vt 0.333984 0.5
vt 0.349609 0.5
vt 0.357422 0.5
vt 0.361328 0.5
vt 0.619141 0.5
vt 0.642578 0.5
vt 0.830078 0.5
vt 0.861328 0.5
vt 0.888672 0.5
vt 0.927734 0.5
vt 0.931641 0.5

# verts
v -1.8 0 -0.8
v -1.8 0 -1.2
v -1.8 0.1 -0.7
v -1.8 0.1 -0.8
v -1.8 0.1 -1.2
v -1.8 0.3 -0.6
v -1.8 0.3 -0.7
v -1.8 0.4 -0.7
v -1.8 0.4 -0.8
v -1.8 0.7 -0.5
v -1.8 0.7 -0.6
v -1.8 0.8 -0.6
v -1.8 0.8 -0.7
v -1.8 1.5 -0.5
v -1.8 1.5 -0.6
v -1.7 1.2 0.5
v -1.7 1.2 -0.5
v -1.7 1.2 -0.6
v -1.7 1.2 -1.1
v -1.7 1.4 0.5
v -1.7 1.4 -0.5
v -1.7 1.4 -0.6
v -1.7 1.4 -1.1
v -1.6 0 0.4
v -1.6 0 0.2
v -1.6 0 -0.8
v -1.6 0 -1
v -1.6 1.2 0.4
v -1.6 1.2 0.2
v -1.6 1.2 -0.8
v -1.6 1.2 -1
v -1.5 0.9 0.2
v -1.5 0.9 -0.8
v -1.5 1.2 0.2
v -1.5 1.2 -0.8
v -1.3 1.4 0.1
v -1.3 1.4 -0.5
v -1.3 1.4 -0.6
v -1.3 1.4 -0.9
v -1.3 1.5 0.1
v -1.3 1.5 -0.5
v -1.3 1.5 -0.6
v -1.3 1.5 -0.7
v -1.3 2.3 -0.7
v -1.3 2.3 -0.9
v 0.2 1.4 0.2
v 0.2 1.4 -0.7
v 0.2 1.5 0.1
v 0.2 1.5 -0.6
v 0.2 1.6 0.1
v 0.2 1.6 -0.6
v 0.2 1.7 0.2
v 0.2 1.7 -0.7
v 0.2 1.8 0.2
v 0.2 1.8 -0.8
v 0.2 1.9 0.2
v 0.2 1.9 -0.8
v 0.2 2.2 0
v 0.2 2.2 -0.4
v 0.2 2.3 0
v 0.2 2.3 -0.4
v 0.3 1.4 0.3
v 0.3 1.4 0.2
v 0.3 1.4 -0.7
v 0.3 1.4 -0.9
v 0.3 1.7 0.3
v 0.3 1.7 0.2
v 0.3 1.7 -0.7
v 0.3 1.8 0.3
v 0.3 1.8 0.2
v 0.3 1.8 -0.7
v 0.3 1.8 -0.8
v 0.3 1.9 0.3
v 0.3 1.9 0.2
v 0.3 1.9 -0.7
v 0.3 1.9 -0.8
v 0.3 2.1 -0.1
v 0.3 2.1 -0.3
v 0.3 2.2 -0.1
v 0.3 2.2 -0.3
v 0.3 3.3 0.2
v 0.3 3.3 -0.7
v 0.3 3.4 0.2
v 0.3 3.4 -0.9
v 0.4 1.4 -0.9
v 0.4 1.4 -1
v 0.4 2.8 -0.1
v 0.4 2.8 -0.2
v 0.4 2.8 -0.3
v 0.4 2.9 -0.1
v 0.4 2.9 -0.2
v 0.4 2.9 -0.3
v 0.4 2.9 -0.7
v 0.4 3 -0.1
v 0.4 3 -0.2
v 0.4 3 -0.7
v 0.4 3.4 0.2
v 0.4 3.4 -0.9
v 0.4 3.4 -1
v 0.4 3.5 0.2
v 0.4 3.5 -0.9
v 0.5 0.1 -1.1
v 0.5 0.1 -1.2
v 0.5 0.2 -1.1
v 0.5 0.2 -1.2
v 0.5 1.5 0
v 0.5 1.5 -0.4
v 0.5 1.6 0
v 0.5 1.6 -0.4
v 0.5 2.2 0.3
v 0.5 2.2 0
v 0.5 2.2 -0.1
v 0.5 2.2 -0.3
v 0.5 2.2 -0.4
v 0.5 2.2 -0.7
v 0.5 2.3 0.3
v 0.5 2.3 0
v 0.5 2.3 -0.1
v 0.5 2.3 -0.3
v 0.5 2.3 -0.4
v 0.5 2.3 -0.7
v 0.5 2.7 -0.1
v 0.5 2.7 -0.3
v 0.5 2.8 0
v 0.5 2.8 -0.1
v 0.5 2.8 -0.2
v 0.5 2.8 -0.3
v 0.5 2.8 -0.4
v 0.5 2.9 -0.1
v 0.5 2.9 -0.3
v 0.5 2.9 -0.4
v 0.5 3 -0.1
v 0.5 3 -0.2
v 0.5 3 -0.3
v 0.5 3 -0.4
v 0.5 3.4 0
v 0.5 3.4 -0.1
v 0.5 3.4 -0.3
v 0.5 3.4 -0.4
v 0.6 0.2 -1.1
v 0.6 0.2 -1.2
v 0.6 1.2 -1.1
v 0.6 1.4 -1.1
v 0.6 1.5 -1
v 0.6 1.5 -1.1
v 0.6 1.6 -0.1
v 0.6 1.6 -0.3
v 0.6 1.6 -1
v 0.6 1.6 -1.2
v 0.6 1.7 -0.1
v 0.6 1.7 -0.3
v 0.6 1.8 -0.1
v 0.6 1.8 -0.3
v 0.6 2.1 0.2
v 0.6 2.1 -0.1
v 0.6 2.1 -0.3
v 0.6 2.1 -0.6
v 0.6 2.2 0.2
v 0.6 2.2 -0.1
v 0.6 2.2 -0.3
v 0.6 2.2 -0.6
v 0.6 2.6 -0.1
v 0.6 2.6 -0.3
v 0.6 2.7 0
v 0.6 2.7 -0.1
v 0.6 2.7 -0.3
v 0.6 2.7 -0.4
v 0.6 2.8 0.1
v 0.6 2.8 0
v 0.6 2.8 -0.1
v 0.6 2.8 -0.3
v 0.6 2.8 -0.4
v 0.6 2.8 -0.5
v 0.6 2.9 0.1
v 0.6 2.9 0
v 0.6 3 0.1
v 0.6 3 0
v 0.6 3.1 0.1
v 0.6 3.1 0
v 0.6 3.2 0.1
v 0.6 3.2 0
v 0.6 3.3 0.1
v 0.6 3.3 0
v 0.6 3.4 0.1
v 0.6 3.4 0
v 0.6 3.4 -0.4
v 0.6 3.4 -0.5
v 0.8 2.2 0.2
v 0.8 2.2 0
v 0.8 2.2 -0.4
v 0.8 2.2 -0.6
v 0.8 2.3 0.2
v 0.8 2.3 0
v 0.8 2.3 -0.4
v 0.8 2.3 -0.6
v 0.9 2.9 -0.4
v 0.9 2.9 -0.7
v 0.9 3 -0.4
v 0.9 3 -0.7
v 1 3.3 0.2
v 1 3.3 -0.7
v 1 3.4 0.2
v 1 3.4 -0.7
v 1.1 1.5 0.2
v 1.1 1.5 0.1
v 1.1 1.5 -0.6
v 1.1 1.5 -0.7
v 1.1 1.6 0.1
v 1.1 1.6 -0.6
v 1.1 1.7 0.2
v 1.1 1.7 -0.7
v 1.1 1.8 0.2
v 1.1 1.8 -0.7
v 1.1 1.9 0.2
v 1.1 1.9 -0.7
v 1.1 2.2 -0.1
v 1.1 2.2 -0.3
v 1.1 2.3 -0.1
v 1.1 2.3 -0.3
v 1.2 0 0.4
v 1.2 0 0.2
v 1.2 0 -0.8
v 1.2 0 -1
v 1.2 0.9 0.2
v 1.2 0.9 -0.8
v 1.2 1.2 0.4
v 1.2 1.2 -1
v -1.7 0 -0.8
v -1.7 0 -1.1
v -1.7 0.1 -0.7
v -1.7 0.1 -0.8
v -1.7 0.1 -1.1
v -1.7 0.3 -0.6
v -1.7 0.3 -0.7
v -1.7 0.4 -0.7
v -1.7 0.4 -0.8
v -1.7 0.7 -0.5
v -1.7 0.7 -0.6
v -1.7 0.8 -0.6
v -1.7 0.8 -0.7
v -1.7 1.2 -0.5
v -1.7 1.2 -0.6
v -1.4 0 0.4
v -1.4 0 0.2
v -1.4 0 -0.8
v -1.4 0 -1
v -1.4 0.9 0.2
v -1.4 0.9 -0.8
v -1.4 1.2 0.4
v -1.4 1.2 -1
v -0.3 1.4 0.1
v -0.3 1.4 -0.9
v -0.3 1.5 0.1
v -0.3 1.5 -0.7
v -0.3 2.3 -0.7
v -0.3 2.3 -0.9
v 0.3 1.5 0.2
v 0.3 1.5 0.1
v 0.3 1.5 -0.6
v 0.3 1.5 -0.7
v 0.3 1.6 0.1
v 0.3 1.6 -0.6
v 0.3 1.7 0.2
v 0.3 1.7 -0.7
v 0.3 1.8 0.2
v 0.3 1.8 -0.7
v 0.3 1.9 0.2
v 0.3 1.9 -0.7
v 0.3 2.2 -0.1
v 0.3 2.2 -0.3
v 0.3 2.3 -0.1
v 0.3 2.3 -0.3
v 0.4 3.3 0.2
v 0.4 3.3 -0.7
v 0.4 3.4 0.2
v 0.4 3.4 -0.7
v 0.5 2.9 -0.4
v 0.5 2.9 -0.7
v 0.5 3 -0.4
v 0.5 3 -0.7
v 0.6 0 -1.1
v 0.6 0 -1.2
v 0.6 0.1 -1.1
v 0.6 0.1 -1.2
v 0.6 2.2 0.2
v 0.6 2.2 0
v 0.6 2.2 -0.4
v 0.6 2.2 -0.6
v 0.6 2.3 0.2
v 0.6 2.3 0
v 0.6 2.3 -0.4
v 0.6 2.3 -0.6
v 0.7 0.1 -1.1
v 0.7 0.1 -1.2
v 0.7 1.2 -1.1
v 0.7 1.4 -1.1
v 0.7 1.5 -1
v 0.7 1.5 -1.1
v 0.7 1.6 -1
v 0.7 1.6 -1.2
v 0.8 1.6 -0.1
v 0.8 1.6 -0.3
v 0.8 1.7 -0.1
v 0.8 1.7 -0.3
v 0.8 1.8 -0.1
v 0.8 1.8 -0.3
v 0.8 2.1 0.2
v 0.8 2.1 -0.1
v 0.8 2.1 -0.3
v 0.8 2.1 -0.6
v 0.8 2.2 0.2
v 0.8 2.2 -0.1
v 0.8 2.2 -0.3
v 0.8 2.2 -0.6
v 0.8 2.6 -0.1
v 0.8 2.6 -0.3
v 0.8 2.7 0
v 0.8 2.7 -0.1
v 0.8 2.7 -0.3
v 0.8 2.7 -0.4
v 0.8 2.8 0.1
v 0.8 2.8 0
v 0.8 2.8 -0.1
v 0.8 2.8 -0.3
v 0.8 2.8 -0.4
v 0.8 2.8 -0.5
v 0.8 2.9 0.1
v 0.8 2.9 0
v 0.8 3 0.1
v 0.8 3 0
v 0.8 3.1 0.1
v 0.8 3.1 0
v 0.8 3.2 0.1
v 0.8 3.2 0
v 0.8 3.3 0.1
v 0.8 3.3 0
v 0.8 3.4 0.1
v 0.8 3.4 0
v 0.8 3.4 -0.4
v 0.8 3.4 -0.5
v 0.9 1.5 0
v 0.9 1.5 -0.4
v 0.9 1.6 0
v 0.9 1.6 -0.4
v 0.9 2.2 0.3
v 0.9 2.2 0
v 0.9 2.2 -0.1
v 0.9 2.2 -0.3
v 0.9 2.2 -0.4
v 0.9 2.2 -0.7
v 0.9 2.3 0.3
v 0.9 2.3 0
v 0.9 2.3 -0.1
v 0.9 2.3 -0.3
v 0.9 2.3 -0.4
v 0.9 2.3 -0.7
v 0.9 2.7 -0.1
v 0.9 2.7 -0.3
v 0.9 2.8 0
v 0.9 2.8 -0.1
v 0.9 2.8 -0.2
v 0.9 2.8 -0.3
v 0.9 2.8 -0.4
v 0.9 2.9 -0.1
v 0.9 2.9 -0.3
v 0.9 2.9 -0.4
v 0.9 3 -0.1
v 0.9 3 -0.2
v 0.9 3 -0.3
v 0.9 3 -0.4
v 0.9 3.4 0
v 0.9 3.4 -0.1
v 0.9 3.4 -0.3
v 0.9 3.4 -0.4
v 1 1.4 -0.9
v 1 1.4 -1
v 1 2.8 -0.1
v 1 2.8 -0.2
v 1 2.8 -0.3
v 1 2.9 -0.1
v 1 2.9 -0.2
v 1 2.9 -0.3
v 1 2.9 -0.7
v 1 3 -0.1
v 1 3 -0.2
v 1 3 -0.7
v 1 3.4 0.2
v 1 3.4 -0.9
v 1 3.4 -1
v 1 3.5 0.2
v 1 3.5 -0.9
v 1.1 1.4 0.3
v 1.1 1.4 0.2
v 1.1 1.4 -0.7
v 1.1 1.4 -0.9
v 1.1 1.7 0.3
v 1.1 1.7 0.2
v 1.1 1.7 -0.7
v 1.1 1.8 0.3
v 1.1 1.8 0.2
v 1.1 1.8 -0.7
v 1.1 1.8 -0.8
v 1.1 1.9 0.3
v 1.1 1.9 0.2
v 1.1 1.9 -0.7
v 1.1 1.9 -0.8
v 1.1 2.1 -0.1
v 1.1 2.1 -0.3
v 1.1 2.2 -0.1
v 1.1 2.2 -0.3
v 1.1 3.3 0.2
v 1.1 3.3 -0.7
v 1.1 3.4 0.2
v 1.1 3.4 -0.9
v 1.2 1.4 0.2
v 1.2 1.4 -0.7
v 1.2 1.5 0.1
v 1.2 1.5 -0.6
v 1.2 1.6 0.1
v 1.2 1.6 -0.6
v 1.2 1.7 0.2
v 1.2 1.7 -0.7
v 1.2 1.8 0.2
v 1.2 1.8 -0.8
v 1.2 1.9 0.2
v 1.2 1.9 -0.8
v 1.2 2.2 0
v 1.2 2.2 -0.4
v 1.2 2.3 0
v 1.2 2.3 -0.4
v 1.3 0.9 0.2
v 1.3 0.9 -0.8
v 1.3 1.2 0.2
v 1.3 1.2 -0.8
v 1.4 0 0.4
v 1.4 0 0.2
v 1.4 0 -0.8
v 1.4 0 -1
v 1.4 1.2 0.4
v 1.4 1.2 0.2
v 1.4 1.2 -0.8
v 1.4 1.2 -1
v 1.5 1.2 0.5
v 1.5 1.2 -1.1
v 1.5 1.4 0.5
v 1.5 1.4 -1.1
v -1.7 1.2 0.5
v -1.7 1.4 0.5
v 1.5 1.2 0.5
v 1.5 1.4 0.5
v -1.6 0 0.4
v -1.6 1.2 0.4
v -1.4 0 0.4
v -1.4 1.2 0.4
v 1.2 0 0.4
v 1.2 1.2 0.4
v 1.4 0 0.4
v 1.4 1.2 0.4
v 0.3 1.4 0.3
v 0.3 1.7 0.3
v 0.3 1.8 0.3
v 0.3 1.9 0.3
v 0.4 1.5 0.3
v 0.4 1.6 0.3
v 0.5 1.5 0.3
v 0.5 1.6 0.3
v 0.5 2.2 0.3
v 0.5 2.3 0.3
v 0.7 1.5 0.3
v 0.7 1.6 0.3
v 0.8 1.5 0.3
v 0.8 1.6 0.3
v 0.9 1.5 0.3
v 0.9 1.6 0.3
v 0.9 2.2 0.3
v 0.9 2.3 0.3
v 1 1.5 0.3
v 1 1.6 0.3
v 1.1 1.4 0.3
v 1.1 1.7 0.3
v 1.1 1.8 0.3
v 1.1 1.9 0.3
v 0.2 1.4 0.2
v 0.2 1.7 0.2
v 0.2 1.8 0.2
v 0.2 1.9 0.2
v 0.3 1.4 0.2
v 0.3 1.7 0.2
v 0.3 1.8 0.2
v 0.3 1.9 0.2
v 0.3 3.3 0.2
v 0.3 3.4 0.2
v 0.4 3.3 0.2
v 0.4 3.4 0.2
v 0.4 3.5 0.2
v 0.6 2.1 0.2
v 0.6 2.2 0.2
v 0.8 2.1 0.2
v 0.8 2.2 0.2
v 1 3.3 0.2
v 1 3.4 0.2
v 1 3.5 0.2
v 1.1 1.4 0.2
v 1.1 1.7 0.2
v 1.1 1.8 0.2
v 1.1 1.9 0.2
v 1.1 3.3 0.2
v 1.1 3.4 0.2
v 1.2 1.4 0.2
v 1.2 1.7 0.2
v 1.2 1.8 0.2
v 1.2 1.9 0.2
v -1.3 1.4 0.1
v -1.3 1.5 0.1
v -0.3 1.4 0.1
v -0.3 1.5 0.1
v 0.6 2.8 0.1
v 0.6 2.9 0.1
v 0.6 3 0.1
v 0.6 3.1 0.1
v 0.6 3.2 0.1
v 0.6 3.3 0.1
v 0.6 3.4 0.1
v 0.8 2.8 0.1
v 0.8 2.9 0.1
v 0.8 3 0.1
v 0.8 3.1 0.1
v 0.8 3.2 0.1
v 0.8 3.3 0.1
v 0.8 3.4 0.1
v 0.2 2.2 0
v 0.2 2.3 0
v 0.5 1.5 0
v 0.5 1.6 0
v 0.5 2.2 0
v 0.5 2.3 0
v 0.5 2.8 0
v 0.5 3.4 0
v 0.6 2.2 0
v 0.6 2.3 0
v 0.6 2.7 0
v 0.6 2.8 0
v 0.6 2.9 0
v 0.6 3 0
v 0.6 3.1 0
v 0.6 3.2 0
v 0.6 3.3 0
v 0.6 3.4 0
v 0.8 2.2 0
v 0.8 2.3 0
v 0.8 2.7 0
v 0.8 2.8 0
v 0.8 2.9 0
v 0.8 3 0
v 0.8 3.1 0
v 0.8 3.2 0
v 0.8 3.3 0
v 0.8 3.4 0
v 0.9 1.5 0
v 0.9 1.6 0
v 0.9 2.2 0
v 0.9 2.3 0
v 0.9 2.8 0
v 0.9 3.4 0
v 1.2 2.2 0
v 1.2 2.3 0
v 0.3 2.1 -0.1
v 0.3 2.2 -0.1
v 0.4 2.8 -0.1
v 0.4 2.9 -0.1
v 0.4 3 -0.1
v 0.5 2.7 -0.1
v 0.5 2.8 -0.1
v 0.5 2.9 -0.1
v 0.5 3 -0.1
v 0.6 1.6 -0.1
v 0.6 1.7 -0.1
v 0.6 1.8 -0.1
v 0.6 2.1 -0.1
v 0.6 2.2 -0.1
v 0.6 2.6 -0.1
v 0.6 2.7 -0.1
v 0.6 2.8 -0.1
v 0.8 1.6 -0.1
v 0.8 1.7 -0.1
v 0.8 1.8 -0.1
v 0.8 2.1 -0.1
v 0.8 2.2 -0.1
v 0.8 2.6 -0.1
v 0.8 2.7 -0.1
v 0.8 2.8 -0.1
v 0.9 2.7 -0.1
v 0.9 2.8 -0.1
v 0.9 2.9 -0.1
v 0.9 3 -0.1
v 1 2.8 -0.1
v 1 2.9 -0.1
v 1 3 -0.1
v 1.1 2.1 -0.1
v 1.1 2.2 -0.1
v 0.3 2.2 -0.3
v 0.3 2.3 -0.3
v 0.5 2.2 -0.3
v 0.5 2.3 -0.3
v 0.9 2.2 -0.3
v 0.9 2.3 -0.3
v 1.1 2.2 -0.3
v 1.1 2.3 -0.3
v -1.8 0.7 -0.5
v -1.8 1.5 -0.5
v -1.7 0.7 -0.5
v -1.7 1.2 -0.5
v -1.7 1.4 -0.5
v -1.3 1.4 -0.5
v -1.3 1.5 -0.5
v -1.8 0.3 -0.6
v -1.8 0.7 -0.6
v -1.7 0.3 -0.6
v -1.7 0.7 -0.6
v 0.6 2.2 -0.6
v 0.6 2.3 -0.6
v 0.8 2.2 -0.6
v 0.8 2.3 -0.6
v -1.8 0.1 -0.7
v -1.8 0.3 -0.7
v -1.7 0.1 -0.7
v -1.7 0.3 -0.7
v -1.3 1.5 -0.7
v -1.3 2.3 -0.7
v -1.2 1.6 -0.7
v -1.2 2.2 -0.7
v -1.1 1.6 -0.7
v -1.1 1.7 -0.7
v -1.1 1.8 -0.7
v -1.1 1.9 -0.7
v -1.1 2 -0.7
v -1.1 2.1 -0.7
v -1 1.6 -0.7
v -1 1.7 -0.7
v -0.9 2 -0.7
v -0.9 2.1 -0.7
v -0.8 1.8 -0.7
v -0.8 1.9 -0.7
v -0.7 1.7 -0.7
v -0.7 1.8 -0.7
v -0.7 2 -0.7
v -0.7 2.1 -0.7
v -0.6 1.9 -0.7
v -0.6 2 -0.7
v -0.5 1.7 -0.7
v -0.5 1.8 -0.7
v -0.5 1.9 -0.7
v -0.5 2.1 -0.7
v -0.4 1.6 -0.7
v -0.4 2.2 -0.7
v -0.3 1.5 -0.7
v -0.3 2.3 -0.7
v 0.3 1.5 -0.7
v 0.3 1.7 -0.7
v 0.3 1.8 -0.7
v 0.3 1.9 -0.7
v 0.3 3.3 -0.7
v 0.4 2.9 -0.7
v 0.4 3 -0.7
v 0.4 3.3 -0.7
v 0.4 3.4 -0.7
v 0.5 2.2 -0.7
v 0.5 2.3 -0.7
v 0.5 2.9 -0.7
v 0.5 3 -0.7
v 0.9 2.2 -0.7
v 0.9 2.3 -0.7
v 0.9 2.9 -0.7
v 0.9 3 -0.7
v 1 2.9 -0.7
v 1 3 -0.7
v 1 3.3 -0.7
v 1 3.4 -0.7
v 1.1 1.5 -0.7
v 1.1 1.7 -0.7
v 1.1 1.8 -0.7
v 1.1 1.9 -0.7
v 1.1 3.3 -0.7
v -1.8 0 -0.8
v -1.8 0.1 -0.8
v -1.7 0 -0.8
v -1.7 0.1 -0.8
v -1.6 0 -0.8
v -1.6 1.2 -0.8
v -1.5 0.9 -0.8
v -1.5 1.2 -0.8
v -1.4 0 -0.8
v -1.4 0.9 -0.8
v 1.2 0 -0.8
v 1.2 0.9 -0.8
v 1.3 0.9 -0.8
v 1.3 1.2 -0.8
v 1.4 0 -0.8
v 1.4 1.2 -0.8
v -1.7 0 -1.1
v -1.7 0.1 -1.1
v 0.5 0.1 -1.1
v 0.5 0.2 -1.1
v 0.6 0 -1.1
v 0.6 0.1 -1.1
v 0.6 0.2 -1.1
v 0.6 1.2 -1.1
v 0.6 1.4 -1.1
v 0.6 1.5 -1.1
v 0.7 0.1 -1.1
v 0.7 1.2 -1.1
v 0.7 1.4 -1.1
v 0.7 1.5 -1.1
v -1.6 0 0.2
v -1.6 1.2 0.2
v -1.5 0.9 0.2
v -1.5 1.2 0.2
v -1.4 0 0.2
v -1.4 0.9 0.2
v 0.3 1.5 0.2
v 0.3 1.7 0.2
v 0.3 1.8 0.2
v 0.3 1.9 0.2
v 0.4 1.5 0.2
v 0.4 1.6 0.2
v 0.5 1.5 0.2
v 0.5 1.6 0.2
v 0.6 2.2 0.2
v 0.6 2.3 0.2
v 0.7 1.5 0.2
v 0.7 1.6 0.2
v 0.8 1.5 0.2
v 0.8 1.6 0.2
v 0.8 2.2 0.2
v 0.8 2.3 0.2
v 0.9 1.5 0.2
v 0.9 1.6 0.2
v 1 1.5 0.2
v 1 1.6 0.2
v 1.1 1.5 0.2
v 1.1 1.7 0.2
v 1.1 1.8 0.2
v 1.1 1.9 0.2
v 1.2 0 0.2
v 1.2 0.9 0.2
v 1.3 0.9 0.2
v 1.3 1.2 0.2
v 1.4 0 0.2
v 1.4 1.2 0.2
v 0.3 2.2 -0.1
v 0.3 2.3 -0.1
v 0.5 2.2 -0.1
v 0.5 2.3 -0.1
v 0.9 2.2 -0.1
v 0.9 2.3 -0.1
v 1.1 2.2 -0.1
v 1.1 2.3 -0.1
v 0.3 2.1 -0.3
v 0.3 2.2 -0.3
v 0.4 2.8 -0.3
v 0.4 2.9 -0.3
v 0.5 2.7 -0.3
v 0.5 2.8 -0.3
v 0.5 2.9 -0.3
v 0.6 1.6 -0.3
v 0.6 1.7 -0.3
v 0.6 1.8 -0.3
v 0.6 2.1 -0.3
v 0.6 2.2 -0.3
v 0.6 2.6 -0.3
v 0.6 2.7 -0.3
v 0.6 2.8 -0.3
v 0.8 1.6 -0.3
v 0.8 1.7 -0.3
v 0.8 1.8 -0.3
v 0.8 2.1 -0.3
v 0.8 2.2 -0.3
v 0.8 2.6 -0.3
v 0.8 2.7 -0.3
v 0.8 2.8 -0.3
v 0.9 2.7 -0.3
v 0.9 2.8 -0.3
v 0.9 2.9 -0.3
v 1 2.8 -0.3
v 1 2.9 -0.3
v 1.1 2.1 -0.3
v 1.1 2.2 -0.3
v 0.2 2.2 -0.4
v 0.2 2.3 -0.4
v 0.5 1.5 -0.4
v 0.5 1.6 -0.4
v 0.5 2.2 -0.4
v 0.5 2.3 -0.4
v 0.5 2.8 -0.4
v 0.5 2.9 -0.4
v 0.5 3 -0.4
v 0.5 3.4 -0.4
v 0.6 2.2 -0.4
v 0.6 2.3 -0.4
v 0.6 2.7 -0.4
v 0.6 2.8 -0.4
v 0.6 3.4 -0.4
v 0.8 2.2 -0.4
v 0.8 2.3 -0.4
v 0.8 2.7 -0.4
v 0.8 2.8 -0.4
v 0.8 3.4 -0.4
v 0.9 1.5 -0.4
v 0.9 1.6 -0.4
v 0.9 2.2 -0.4
v 0.9 2.3 -0.4
v 0.9 2.8 -0.4
v 0.9 2.9 -0.4
v 0.9 3 -0.4
v 0.9 3.4 -0.4
v 1.2 2.2 -0.4
v 1.2 2.3 -0.4
v 0.6 2.8 -0.5
v 0.6 3.4 -0.5
v 0.8 2.8 -0.5
v 0.8 3.4 -0.5
v -1.8 0.8 -0.6
v -1.8 1.5 -0.6
v -1.7 0.8 -0.6
v -1.7 1.2 -0.6
v -1.7 1.4 -0.6
v -1.3 1.4 -0.6
v -1.3 1.5 -0.6
v 0.6 2.1 -0.6
v 0.6 2.2 -0.6
v 0.8 2.1 -0.6
v 0.8 2.2 -0.6
v -1.8 0.4 -0.7
v -1.8 0.8 -0.7
v -1.7 0.4 -0.7
v -1.7 0.8 -0.7
v 0.2 1.4 -0.7
v 0.2 1.7 -0.7
v 0.3 1.4 -0.7
v 0.3 1.7 -0.7
v 1.1 1.4 -0.7
v 1.1 1.7 -0.7
v 1.2 1.4 -0.7
v 1.2 1.7 -0.7
v -1.8 0.1 -0.8
v -1.8 0.4 -0.8
v -1.7 0.1 -0.8
v -1.7 0.4 -0.8
v 0.2 1.8 -0.8
v 0.2 1.9 -0.8
v 0.3 1.8 -0.8
v 0.3 1.9 -0.8
v 1.1 1.8 -0.8
v 1.1 1.9 -0.8
v 1.2 1.8 -0.8
v 1.2 1.9 -0.8
v -1.3 1.4 -0.9
v -1.3 2.3 -0.9
v -0.3 1.4 -0.9
v -0.3 2.3 -0.9
v 0.3 1.4 -0.9
v 0.3 3.4 -0.9
v 0.4 1.4 -0.9
v 0.4 3.4 -0.9
v 0.4 3.5 -0.9
v 1 1.4 -0.9
v 1 3.4 -0.9
v 1 3.5 -0.9
v 1.1 1.4 -0.9
v 1.1 3.4 -0.9
v -1.6 0 -1
v -1.6 1.2 -1
v -1.4 0 -1
v -1.4 1.2 -1
v 0.4 1.4 -1
v 0.4 3.4 -1
v 0.6 1.5 -1
v 0.6 1.6 -1
v 0.7 1.5 -1
v 0.7 1.6 -1
v 1 1.4 -1
v 1 3.4 -1
v 1.2 0 -1
v 1.2 1.2 -1
v 1.4 0 -1
v 1.4 1.2 -1
v -1.7 1.2 -1.1
v -1.7 1.4 -1.1
v 0.6 1.2 -1.1
v 0.6 1.4 -1.1
v 0.7 1.2 -1.1
v 0.7 1.4 -1.1
v 1.5 1.2 -1.1
v 1.5 1.4 -1.1
v -1.8 0 -1.2
v -1.8 0.1 -1.2
v 0.5 0.1 -1.2
v 0.5 0.2 -1.2
v 0.6 0 -1.2
v 0.6 0.1 -1.2
v 0.6 0.2 -1.2
v 0.6 1.6 -1.2
v 0.7 0.1 -1.2
v 0.7 1.6 -1.2
v -1.6 0 0.4
v -1.4 0 0.4
v 1.2 0 0.4
v 1.4 0 0.4
v -1.6 0 0.2
v -1.4 0 0.2
v 1.2 0 0.2
v 1.4 0 0.2
v -1.8 0 -0.8
v -1.7 0 -0.8
v -1.6 0 -0.8
v -1.4 0 -0.8
v 1.2 0 -0.8
v 1.4 0 -0.8
v -1.6 0 -1
v -1.4 0 -1
v 1.2 0 -1
v 1.4 0 -1
v -1.7 0 -1.1
v 0.6 0 -1.1
v -1.8 0 -1.2
v 0.6 0 -1.2
v -1.8 0.1 -0.7
v -1.7 0.1 -0.7
v -1.8 0.1 -0.8
v -1.7 0.1 -0.8
v 0.6 0.1 -1.1
v 0.7 0.1 -1.1
v 0.6 0.1 -1.2
v 0.7 0.1 -1.2
v -1.8 0.3 -0.6
v -1.7 0.3 -0.6
v -1.8 0.3 -0.7
v -1.7 0.3 -0.7
v -1.8 0.7 -0.5
v -1.7 0.7 -0.5
v -1.8 0.7 -0.6
v -1.7 0.7 -0.6
v -1.5 0.9 0.2
v -1.4 0.9 0.2
v 1.2 0.9 0.2
v 1.3 0.9 0.2
v -1.5 0.9 -0.8
v -1.4 0.9 -0.8
v 1.2 0.9 -0.8
v 1.3 0.9 -0.8
v -1.7 1.2 0.5
v 1.5 1.2 0.5
v -1.6 1.2 0.4
v -1.4 1.2 0.4
v 1.2 1.2 0.4
v 1.4 1.2 0.4
v -1.6 1.2 0.2
v -1.5 1.2 0.2
v 1.3 1.2 0.2
v 1.4 1.2 0.2
v -1.7 1.2 -0.5
v -1.7 1.2 -0.6
v -1.6 1.2 -0.8
v -1.5 1.2 -0.8
v 1.3 1.2 -0.8
v 1.4 1.2 -0.8
v -1.6 1.2 -1
v -1.4 1.2 -1
v 1.2 1.2 -1
v 1.4 1.2 -1
v -1.7 1.2 -1.1
v 0.6 1.2 -1.1
v 0.7 1.2 -1.1
v 1.5 1.2 -1.1
v 0.6 1.5 -1
v 0.7 1.5 -1
v 0.6 1.5 -1.1
v 0.7 1.5 -1.1
v 0.3 1.8 0.3
v 1.1 1.8 0.3
v 0.2 1.8 0.2
v 0.3 1.8 0.2
v 1.1 1.8 0.2
v 1.2 1.8 0.2
v 0.3 1.8 -0.7
v 1.1 1.8 -0.7
v 0.2 1.8 -0.8
v 0.3 1.8 -0.8
v 1.1 1.8 -0.8
v 1.2 1.8 -0.8
v 0.6 2.1 0.2
v 0.8 2.1 0.2
v 0.3 2.1 -0.1
v 0.6 2.1 -0.1
v 0.8 2.1 -0.1
v 1.1 2.1 -0.1
v 0.3 2.1 -0.3
v 0.6 2.1 -0.3
v 0.8 2.1 -0.3
v 1.1 2.1 -0.3
v 0.6 2.1 -0.6
v 0.8 2.1 -0.6
v 0.5 2.2 0.3
v 0.9 2.2 0.3
v 0.6 2.2 0.2
v 0.8 2.2 0.2
v 0.2 2.2 0
v 0.5 2.2 0
v 0.9 2.2 0
v 1.2 2.2 0
v 0.3 2.2 -0.1
v 0.6 2.2 -0.1
v 0.8 2.2 -0.1
v 1.1 2.2 -0.1
v 0.3 2.2 -0.3
v 0.6 2.2 -0.3
v 0.8 2.2 -0.3
v 1.1 2.2 -0.3
v 0.2 2.2 -0.4
v 0.5 2.2 -0.4
v 0.9 2.2 -0.4
v 1.2 2.2 -0.4
v 0.6 2.2 -0.6
v 0.8 2.2 -0.6
v 0.5 2.2 -0.7
v 0.9 2.2 -0.7
v 0.6 2.6 -0.1
v 0.8 2.6 -0.1
v 0.6 2.6 -0.3
v 0.8 2.6 -0.3
v 0.6 2.7 0
v 0.8 2.7 0
v 0.5 2.7 -0.1
v 0.6 2.7 -0.1
v 0.8 2.7 -0.1
v 0.9 2.7 -0.1
v 0.5 2.7 -0.3
v 0.6 2.7 -0.3
v 0.8 2.7 -0.3
v 0.9 2.7 -0.3
v 0.6 2.7 -0.4
v 0.8 2.7 -0.4
v 0.6 2.8 0.1
v 0.8 2.8 0.1
v 0.5 2.8 0
v 0.6 2.8 0
v 0.8 2.8 0
v 0.9 2.8 0
v 0.4 2.8 -0.1
v 0.5 2.8 -0.1
v 0.6 2.8 -0.1
v 0.8 2.8 -0.1
v 0.9 2.8 -0.1
v 1 2.8 -0.1
v 0.4 2.8 -0.2
v 0.5 2.8 -0.2
v 0.9 2.8 -0.2
v 1 2.8 -0.2
v 0.4 2.8 -0.3
v 0.5 2.8 -0.3
v 0.6 2.8 -0.3
v 0.8 2.8 -0.3
v 0.9 2.8 -0.3
v 1 2.8 -0.3
v 0.5 2.8 -0.4
v 0.6 2.8 -0.4
v 0.8 2.8 -0.4
v 0.9 2.8 -0.4
v 0.6 2.8 -0.5
v 0.8 2.8 -0.5
v 0.4 2.9 -0.3
v 0.5 2.9 -0.3
v 0.9 2.9 -0.3
v 1 2.9 -0.3
v 0.5 2.9 -0.4
v 0.9 2.9 -0.4
v 0.4 2.9 -0.7
v 0.5 2.9 -0.7
v 0.9 2.9 -0.7
v 1 2.9 -0.7
v 0.3 3.3 0.2
v 0.4 3.3 0.2
v 1 3.3 0.2
v 1.1 3.3 0.2
v 0.3 3.3 -0.7
v 0.4 3.3 -0.7
v 1 3.3 -0.7
v 1.1 3.3 -0.7
v 0.4 3.4 0.2
v 1 3.4 0.2
v 0.6 3.4 0.1
v 0.8 3.4 0.1
v 0.5 3.4 0
v 0.6 3.4 0
v 0.8 3.4 0
v 0.9 3.4 0
v 0.5 3.4 -0.1
v 0.9 3.4 -0.1
v 0.5 3.4 -0.3
v 0.9 3.4 -0.3
v 0.5 3.4 -0.4
v 0.6 3.4 -0.4
v 0.8 3.4 -0.4
v 0.9 3.4 -0.4
v 0.6 3.4 -0.5
v 0.8 3.4 -0.5
v 0.4 3.4 -0.7
v 1 3.4 -0.7
v -1.8 0.1 -0.8
v -1.7 0.1 -0.8
v -1.7 0.1 -1.1
v 0.5 0.1 -1.1
v -1.8 0.1 -1.2
v 0.5 0.1 -1.2
v 0.5 0.2 -1.1
v 0.6 0.2 -1.1
v 0.5 0.2 -1.2
v 0.6 0.2 -1.2
v -1.8 0.4 -0.7
v -1.7 0.4 -0.7
v -1.8 0.4 -0.8
v -1.7 0.4 -0.8
v -1.8 0.8 -0.6
v -1.7 0.8 -0.6
v -1.8 0.8 -0.7
v -1.7 0.8 -0.7
v -1.7 1.4 0.5
v 1.5 1.4 0.5
v 0.3 1.4 0.3
v 1.1 1.4 0.3
v 0.2 1.4 0.2
v 0.3 1.4 0.2
v 1.1 1.4 0.2
v 1.2 1.4 0.2
v -1.3 1.4 0.1
v -0.3 1.4 0.1
v -1.7 1.4 -0.5
v -1.3 1.4 -0.5
v -1.7 1.4 -0.6
v -1.3 1.4 -0.6
v 0.2 1.4 -0.7
v 0.3 1.4 -0.7
v 1.1 1.4 -0.7
v 1.2 1.4 -0.7
v -1.3 1.4 -0.9
v -0.3 1.4 -0.9
v 0.3 1.4 -0.9
v 0.4 1.4 -0.9
v 1 1.4 -0.9
v 1.1 1.4 -0.9
v 0.4 1.4 -1
v 1 1.4 -1
v -1.7 1.4 -1.1
v 0.6 1.4 -1.1
v 0.7 1.4 -1.1
v 1.5 1.4 -1.1
v 0.3 1.5 0.2
v 0.4 1.5 0.2
v 0.5 1.5 0.2
v 0.7 1.5 0.2
v 0.8 1.5 0.2
v 0.9 1.5 0.2
v 1 1.5 0.2
v 1.1 1.5 0.2
v -1.3 1.5 0.1
v -0.3 1.5 0.1
v 0.3 1.5 0.1
v 1.1 1.5 0.1
v -0.9 1.5 0
v -0.7 1.5 0
v 0.5 1.5 0
v 0.9 1.5 0
v -1.2 1.5 -0.1
v -1.1 1.5 -0.1
v -1 1.5 -0.1
v -0.9 1.5 -0.1
v -0.7 1.5 -0.1
v -0.6 1.5 -0.1
v -0.5 1.5 -0.1
v -0.4 1.5 -0.1
v -1.2 1.5 -0.2
v -1.1 1.5 -0.2
v -1 1.5 -0.2
v -0.6 1.5 -0.2
v -0.5 1.5 -0.2
v -0.4 1.5 -0.2
v -1.2 1.5 -0.3
v -1.1 1.5 -0.3
v -1 1.5 -0.3
v -0.9 1.5 -0.3
v -0.7 1.5 -0.3
v -0.6 1.5 -0.3
v -0.5 1.5 -0.3
v -0.4 1.5 -0.3
v -1.2 1.5 -0.4
v -1.1 1.5 -0.4
v -1 1.5 -0.4
v -0.9 1.5 -0.4
v -0.7 1.5 -0.4
v -0.6 1.5 -0.4
v -0.5 1.5 -0.4
v -0.4 1.5 -0.4
v 0.5 1.5 -0.4
v 0.9 1.5 -0.4
v -1.8 1.5 -0.5
v -1.3 1.5 -0.5
v -1.2 1.5 -0.5
v -1.1 1.5 -0.5
v -1 1.5 -0.5
v -0.9 1.5 -0.5
v -0.7 1.5 -0.5
v -0.6 1.5 -0.5
v -0.5 1.5 -0.5
v -0.4 1.5 -0.5
v -1.8 1.5 -0.6
v -1.3 1.5 -0.6
v -1.2 1.5 -0.6
v -1.1 1.5 -0.6
v -1 1.5 -0.6
v -0.9 1.5 -0.6
v -0.7 1.5 -0.6
v -0.6 1.5 -0.6
v -0.5 1.5 -0.6
v -0.4 1.5 -0.6
v 0.3 1.5 -0.6
v 1.1 1.5 -0.6
v -1.3 1.5 -0.7
v -0.3 1.5 -0.7
v 0.3 1.5 -0.7
v 1.1 1.5 -0.7
v 0.5 1.6 0
v 0.9 1.6 0
v 0.6 1.6 -0.1
v 0.8 1.6 -0.1
v 0.6 1.6 -0.3
v 0.8 1.6 -0.3
v 0.5 1.6 -0.4
v 0.9 1.6 -0.4
v 0.6 1.6 -1
v 0.7 1.6 -1
v 0.6 1.6 -1.2
v 0.7 1.6 -1.2
v 0.3 1.7 0.3
v 1.1 1.7 0.3
v 0.2 1.7 0.2
v 0.3 1.7 0.2
v 1.1 1.7 0.2
v 1.2 1.7 0.2
v 0.2 1.7 -0.7
v 0.3 1.7 -0.7
v 1.1 1.7 -0.7
v 1.2 1.7 -0.7
v 0.3 1.9 0.3
v 1.1 1.9 0.3
v 0.2 1.9 0.2
v 0.3 1.9 0.2
v 1.1 1.9 0.2
v 1.2 1.9 0.2
v 0.3 1.9 -0.7
v 1.1 1.9 -0.7
v 0.2 1.9 -0.8
v 0.3 1.9 -0.8
v 1.1 1.9 -0.8
v 1.2 1.9 -0.8
v 0.6 2.2 0.2
v 0.8 2.2 0.2
v 0.6 2.2 0
v 0.8 2.2 0
v 0.3 2.2 -0.1
v 0.5 2.2 -0.1
v 0.9 2.2 -0.1
v 1.1 2.2 -0.1
v 0.3 2.2 -0.3
v 0.5 2.2 -0.3
v 0.9 2.2 -0.3
v 1.1 2.2 -0.3
v 0.6 2.2 -0.4
v 0.8 2.2 -0.4
v 0.6 2.2 -0.6
v 0.8 2.2 -0.6
v 0.5 2.3 0.3
v 0.9 2.3 0.3
v 0.6 2.3 0.2
v 0.8 2.3 0.2
v 0.2 2.3 0
v 0.5 2.3 0
v 0.6 2.3 0
v 0.8 2.3 0
v 0.9 2.3 0
v 1.2 2.3 0
v 0.3 2.3 -0.1
v 0.5 2.3 -0.1
v 0.6 2.3 -0.1
v 0.8 2.3 -0.1
v 0.9 2.3 -0.1
v 1.1 2.3 -0.1
v 0.3 2.3 -0.3
v 0.5 2.3 -0.3
v 0.6 2.3 -0.3
v 0.8 2.3 -0.3
v 0.9 2.3 -0.3
v 1.1 2.3 -0.3
v 0.2 2.3 -0.4
v 0.5 2.3 -0.4
v 0.6 2.3 -0.4
v 0.8 2.3 -0.4
v 0.9 2.3 -0.4
v 1.2 2.3 -0.4
v 0.6 2.3 -0.6
v 0.8 2.3 -0.6
v -1.3 2.3 -0.7
v -0.3 2.3 -0.7
v 0.5 2.3 -0.7
v 0.9 2.3 -0.7
v -1.3 2.3 -0.9
v -0.3 2.3 -0.9
v 0.4 3 -0.1
v 0.5 3 -0.1
v 0.9 3 -0.1
v 1 3 -0.1
v 0.4 3 -0.2
v 0.5 3 -0.2
v 0.9 3 -0.2
v 1 3 -0.2
v 0.5 3 -0.3
v 0.9 3 -0.3
v 0.5 3 -0.4
v 0.9 3 -0.4
v 0.4 3 -0.7
v 0.5 3 -0.7
v 0.9 3 -0.7
v 1 3 -0.7
v 0.3 3.4 0.2
v 0.4 3.4 0.2
v 1 3.4 0.2
v 1.1 3.4 0.2
v 0.3 3.4 -0.9
v 0.4 3.4 -0.9
v 1 3.4 -0.9
v 1.1 3.4 -0.9
v 0.4 3.4 -1
v 1 3.4 -1
v 0.4 3.5 0.2
v 1 3.5 0.2
v 0.4 3.5 -0.9
v 1 3.5 -0.9

# faces
f 4/11/1 2/11/1 1/11/1
f 5/11/1 2/11/1 4/11/1
f 7/11/1 4/11/1 3/11/1
f 8/11/1 4/11/1 7/11/1
f 8/11/1 7/11/1 6/11/1
f 9/11/1 4/11/1 8/11/1
f 11/11/1 8/11/1 6/11/1
f 12/11/1 8/11/1 11/11/1
f 12/11/1 11/11/1 10/11/1
f 13/11/1 8/11/1 12/11/1
f 14/11/1 12/11/1 10/11/1
f 15/11/1 12/11/1 14/11/1
f 20/5/1 17/5/1 16/5/1
f 21/5/1 17/5/1 20/5/1
f 22/5/1 19/5/1 18/5/1
f 23/5/1 19/5/1 22/5/1
f 28/5/1 25/5/1 24/5/1
f 29/5/1 25/5/1 28/5/1
f 30/5/1 27/5/1 26/5/1
f 31/5/1 27/5/1 30/5/1
f 34/5/1 33/5/1 32/5/1
f 35/5/1 33/5/1 34/5/1
f 40/10/1 37/10/1 36/10/1
f 41/10/1 37/10/1 40/10/1
f 42/10/1 39/10/1 38/10/1
f 43/10/1 39/10/1 42/10/1
f 44/10/1 39/10/1 43/10/1
f 45/10/1 39/10/1 44/10/1
f 48/10/1 47/10/1 46/10/1
f 49/10/1 47/10/1 48/10/1
f 50/10/1 48/10/1 46/10/1
f 50/4/1 49/4/1 48/4/1
f 51/10/1 47/10/1 49/10/1
f 51/4/1 49/4/1 50/4/1
f 52/10/1 50/10/1 46/10/1
f 52/10/1 51/10/1 50/10/1
f 53/10/1 47/10/1 51/10/1
f 53/10/1 51/10/1 52/10/1
f 56/10/1 55/10/1 54/10/1
f 57/10/1 55/10/1 56/10/1
f 60/3/1 59/3/1 58/3/1
f 61/3/1 59/3/1 60/3/1
f 66/10/1 63/10/1 62/10/1
f 67/10/1 63/10/1 66/10/1
f 68/10/1 65/10/1 64/10/1
f 71/10/1 65/10/1 68/10/1
f 72/10/1 65/10/1 71/10/1
f 73/10/1 70/10/1 69/10/1
f 74/10/1 70/10/1 73/10/1
f 76/10/1 65/10/1 72/10/1
f 79/3/1 78/3/1 77/3/1
f 80/3/1 78/3/1 79/3/1
f 82/10/1 76/10/1 75/10/1
f 83/10/1 82/10/1 81/10/1
f 84/10/1 65/10/1 76/10/1
f 84/10/1 82/10/1 83/10/1
f 84/10/1 76/10/1 82/10/1
f 90/6/1 88/6/1 87/6/1
f 91/8/1 89/8/1 88/8/1
f 91/6/1 88/6/1 90/6/1
f 92/8/1 89/8/1 91/8/1
f 94/8/1 91/8/1 90/8/1
f 95/6/1 93/6/1 92/6/1
f 95/8/1 91/8/1 94/8/1
f 95/6/1 92/6/1 91/6/1
f 96/6/1 93/6/1 95/6/1
f 98/10/1 86/10/1 85/10/1
f 99/10/1 86/10/1 98/10/1
f 100/10/1 98/10/1 97/10/1
f 101/10/1 98/10/1 100/10/1
f 104/11/1 103/11/1 102/11/1
f 105/11/1 103/11/1 104/11/1
f 108/10/1 107/10/1 106/10/1
f 109/10/1 107/10/1 108/10/1
f 116/3/1 111/3/1 110/3/1
f 117/3/1 111/3/1 116/3/1
f 118/3/1 113/3/1 112/3/1
f 119/3/1 113/3/1 118/3/1
f 120/3/1 115/3/1 114/3/1
f 121/3/1 115/3/1 120/3/1
f 125/7/1 123/7/1 122/7/1
f 126/7/1 123/7/1 125/7/1
f 127/7/1 123/7/1 126/7/1
f 129/6/1 125/6/1 124/6/1
f 130/6/1 128/6/1 127/6/1
f 131/6/1 128/6/1 130/6/1
f 132/6/1 129/6/1 124/6/1
f 136/6/1 132/6/1 124/6/1
f 137/5/1 133/5/1 132/5/1
f 137/6/1 132/6/1 136/6/1
f 137/5/1 134/5/1 133/5/1
f 138/6/1 135/6/1 134/6/1
f 138/5/1 134/5/1 137/5/1
f 139/6/1 135/6/1 138/6/1
f 142/11/1 141/11/1 140/11/1
f 143/11/1 141/11/1 142/11/1
f 145/11/1 141/11/1 143/11/1
f 148/11/1 145/11/1 144/11/1
f 149/11/1 141/11/1 145/11/1
f 149/11/1 145/11/1 148/11/1
f 150/10/1 147/10/1 146/10/1
f 151/10/1 147/10/1 150/10/1
f 152/4/1 151/4/1 150/4/1
f 153/4/1 151/4/1 152/4/1
f 155/10/1 153/10/1 152/10/1
f 156/10/1 153/10/1 155/10/1
f 158/3/1 155/3/1 154/3/1
f 159/3/1 155/3/1 158/3/1
f 160/3/1 157/3/1 156/3/1
f 161/3/1 157/3/1 160/3/1
f 165/2/1 163/2/1 162/2/1
f 166/2/1 163/2/1 165/2/1
f 169/7/1 165/7/1 164/7/1
f 170/7/1 165/7/1 169/7/1
f 171/7/1 167/7/1 166/7/1
f 172/7/1 167/7/1 171/7/1
f 174/6/1 169/6/1 168/6/1
f 175/6/1 169/6/1 174/6/1
f 176/4/1 175/4/1 174/4/1
f 177/4/1 175/4/1 176/4/1
f 178/6/1 177/6/1 176/6/1
f 179/6/1 177/6/1 178/6/1
f 180/4/1 179/4/1 178/4/1
f 181/4/1 179/4/1 180/4/1
f 182/6/1 181/6/1 180/6/1
f 183/6/1 181/6/1 182/6/1
f 184/4/1 183/4/1 182/4/1
f 185/4/1 183/4/1 184/4/1
f 186/6/1 173/6/1 172/6/1
f 187/6/1 173/6/1 186/6/1
f 192/3/1 189/3/1 188/3/1
f 193/3/1 189/3/1 192/3/1
f 194/3/1 191/3/1 190/3/1
f 195/3/1 191/3/1 194/3/1
f 198/6/1 197/6/1 196/6/1
f 199/6/1 197/6/1 198/6/1
f 202/10/1 201/10/1 200/10/1
f 203/10/1 201/10/1 202/10/1
f 208/10/1 205/10/1 204/10/1
f 208/4/1 206/4/1 205/4/1
f 209/10/1 207/10/1 206/10/1
f 209/4/1 206/4/1 208/4/1
f 210/10/1 208/10/1 204/10/1
f 210/10/1 209/10/1 208/10/1
f 211/10/1 207/10/1 209/10/1
f 211/10/1 209/10/1 210/10/1
f 214/10/1 213/10/1 212/10/1
f 215/10/1 213/10/1 214/10/1
f 218/3/1 217/3/1 216/3/1
f 219/3/1 217/3/1 218/3/1
f 224/5/1 221/5/1 220/5/1
f 225/5/1 223/5/1 222/5/1
f 226/5/1 224/5/1 220/5/1
f 226/5/1 225/5/1 224/5/1
f 227/5/1 223/5/1 225/5/1
f 227/5/1 225/5/1 226/5/1
f 228/11/2 229/11/2 231/11/2
f 231/11/2 229/11/2 232/11/2
f 230/11/2 231/11/2 234/11/2
f 234/11/2 231/11/2 235/11/2
f 233/11/2 234/11/2 235/11/2
f 235/11/2 231/11/2 236/11/2
f 233/11/2 235/11/2 238/11/2
f 238/11/2 235/11/2 239/11/2
f 237/11/2 238/11/2 239/11/2
f 239/11/2 235/11/2 240/11/2
f 237/11/2 239/11/2 241/11/2
f 241/11/2 239/11/2 242/11/2
f 243/5/2 244/5/2 247/5/2
f 245/5/2 246/5/2 248/5/2
f 243/5/2 247/5/2 249/5/2
f 247/5/2 248/5/2 249/5/2
f 248/5/2 246/5/2 250/5/2
f 249/5/2 248/5/2 250/5/2
f 251/10/2 252/10/2 253/10/2
f 253/10/2 252/10/2 254/10/2
f 254/10/2 252/10/2 255/10/2
f 255/10/2 252/10/2 256/10/2
f 257/10/2 258/10/2 261/10/2
f 258/4/2 259/4/2 261/4/2
f 259/10/2 260/10/2 262/10/2
f 261/4/2 259/4/2 262/4/2
f 257/10/2 261/10/2 263/10/2
f 261/10/2 262/10/2 263/10/2
f 262/10/2 260/10/2 264/10/2
f 263/10/2 262/10/2 264/10/2
f 265/10/2 266/10/2 267/10/2
f 267/10/2 266/10/2 268/10/2
f 269/3/2 270/3/2 271/3/2
f 271/3/2 270/3/2 272/3/2
f 273/10/2 274/10/2 275/10/2
f 275/10/2 274/10/2 276/10/2
f 277/6/2 278/6/2 279/6/2
f 279/6/2 278/6/2 280/6/2
f 281/11/2 282/11/2 283/11/2
f 283/11/2 282/11/2 284/11/2
f 285/3/2 286/3/2 289/3/2
f 289/3/2 286/3/2 290/3/2
f 287/3/2 288/3/2 291/3/2
f 291/3/2 288/3/2 292/3/2
f 293/11/2 294/11/2 295/11/2
f 295/11/2 294/11/2 296/11/2
f 296/11/2 294/11/2 298/11/2
f 297/11/2 298/11/2 299/11/2
f 298/11/2 294/11/2 300/11/2
f 299/11/2 298/11/2 300/11/2
f 301/10/2 302/10/2 303/10/2
f 303/10/2 302/10/2 304/10/2
f 303/4/2 304/4/2 305/4/2
f 305/4/2 304/4/2 306/4/2
f 305/10/2 306/10/2 308/10/2
f 308/10/2 306/10/2 309/10/2
f 307/3/2 308/3/2 311/3/2
f 311/3/2 308/3/2 312/3/2
f 309/3/2 310/3/2 313/3/2
f 313/3/2 310/3/2 314/3/2
f 315/2/2 316/2/2 318/2/2
f 318/2/2 316/2/2 319/2/2
f 317/7/2 318/7/2 322/7/2
f 322/7/2 318/7/2 323/7/2
f 319/7/2 320/7/2 324/7/2
f 324/7/2 320/7/2 325/7/2
f 321/6/2 322/6/2 327/6/2
f 327/6/2 322/6/2 328/6/2
f 327/4/2 328/4/2 329/4/2
f 329/4/2 328/4/2 330/4/2
f 329/6/2 330/6/2 331/6/2
f 331/6/2 330/6/2 332/6/2
f 331/4/2 332/4/2 333/4/2
f 333/4/2 332/4/2 334/4/2
f 333/6/2 334/6/2 335/6/2
f 335/6/2 334/6/2 336/6/2
f 335/4/2 336/4/2 337/4/2
f 337/4/2 336/4/2 338/4/2
f 325/6/2 326/6/2 339/6/2
f 339/6/2 326/6/2 340/6/2
f 341/10/2 342/10/2 343/10/2
f 343/10/2 342/10/2 344/10/2
f 345/3/2 346/3/2 351/3/2
f 351/3/2 346/3/2 352/3/2
f 347/3/2 348/3/2 353/3/2
f 353/3/2 348/3/2 354/3/2
f 349/3/2 350/3/2 355/3/2
f 355/3/2 350/3/2 356/3/2
f 357/7/2 358/7/2 360/7/2
f 360/7/2 358/7/2 361/7/2
f 361/7/2 358/7/2 362/7/2
f 359/6/2 360/6/2 364/6/2
f 362/6/2 363/6/2 365/6/2
f 365/6/2 363/6/2 366/6/2
f 359/6/2 364/6/2 367/6/2
f 359/6/2 367/6/2 371/6/2
f 367/5/2 368/5/2 372/5/2
f 371/6/2 367/6/2 372/6/2
f 368/5/2 369/5/2 372/5/2
f 369/6/2 370/6/2 373/6/2
f 372/5/2 369/5/2 373/5/2
f 373/6/2 370/6/2 374/6/2
f 377/6/2 378/6/2 380/6/2
f 378/8/2 379/8/2 381/8/2
f 380/6/2 378/6/2 381/6/2
f 381/8/2 379/8/2 382/8/2
f 380/8/2 381/8/2 384/8/2
f 382/6/2 383/6/2 385/6/2
f 384/8/2 381/8/2 385/8/2
f 381/6/2 382/6/2 385/6/2
f 385/6/2 383/6/2 386/6/2
f 375/10/2 376/10/2 388/10/2
f 388/10/2 376/10/2 389/10/2
f 387/10/2 388/10/2 390/10/2
f 390/10/2 388/10/2 391/10/2
f 392/10/2 393/10/2 396/10/2
f 396/10/2 393/10/2 397/10/2
f 394/10/2 395/10/2 398/10/2
f 398/10/2 395/10/2 401/10/2
f 401/10/2 395/10/2 402/10/2
f 399/10/2 400/10/2 403/10/2
f 403/10/2 400/10/2 404/10/2
f 402/10/2 395/10/2 406/10/2
f 407/3/2 408/3/2 409/3/2
f 409/3/2 408/3/2 410/3/2
f 405/10/2 406/10/2 412/10/2
f 411/10/2 412/10/2 413/10/2
f 406/10/2 395/10/2 414/10/2
f 413/10/2 412/10/2 414/10/2
f 412/10/2 406/10/2 414/10/2
f 415/10/2 416/10/2 417/10/2
f 417/10/2 416/10/2 418/10/2
f 415/10/2 417/10/2 419/10/2
f 417/4/2 418/4/2 419/4/2
f 418/10/2 416/10/2 420/10/2
f 419/4/2 418/4/2 420/4/2
f 415/10/2 419/10/2 421/10/2
f 419/10/2 420/10/2 421/10/2
f 420/10/2 416/10/2 422/10/2
f 421/10/2 420/10/2 422/10/2
f 423/10/2 424/10/2 425/10/2
f 425/10/2 424/10/2 426/10/2
f 427/3/2 428/3/2 429/3/2
f 429/3/2 428/3/2 430/3/2
f 431/5/2 432/5/2 433/5/2
f 433/5/2 432/5/2 434/5/2
f 435/5/2 436/5/2 439/5/2
f 439/5/2 436/5/2 440/5/2
f 437/5/2 438/5/2 441/5/2
f 441/5/2 438/5/2 442/5/2
f 443/5/2 444/5/2 445/5/2
f 445/5/2 444/5/2 446/5/2
f 449/5/3 448/5/3 447/5/3
f 450/5/3 448/5/3 449/5/3
f 453/5/3 452/5/3 451/5/3
f 454/5/3 452/5/3 453/5/3
f 457/5/3 456/5/3 455/5/3
f 458/5/3 456/5/3 457/5/3
f 463/10/3 460/10/3 459/10/3
f 464/10/3 460/10/3 463/10/3
f 465/10/3 463/10/3 459/10/3
f 465/4/3 464/4/3 463/4/3
f 466/10/3 460/10/3 464/10/3
f 466/4/3 464/4/3 465/4/3
f 469/10/3 465/10/3 459/10/3
f 469/1/3 466/1/3 465/1/3
f 470/10/3 460/10/3 466/10/3
f 470/1/3 466/1/3 469/1/3
f 471/10/3 469/10/3 459/10/3
f 471/4/3 470/4/3 469/4/3
f 472/10/3 460/10/3 470/10/3
f 472/4/3 470/4/3 471/4/3
f 473/10/3 471/10/3 459/10/3
f 473/1/3 472/1/3 471/1/3
f 474/10/3 460/10/3 472/10/3
f 474/1/3 472/1/3 473/1/3
f 475/3/3 468/3/3 467/3/3
f 476/3/3 468/3/3 475/3/3
f 477/10/3 473/10/3 459/10/3
f 477/4/3 474/4/3 473/4/3
f 478/10/3 460/10/3 474/10/3
f 478/4/3 474/4/3 477/4/3
f 479/10/3 477/10/3 459/10/3
f 479/10/3 478/10/3 477/10/3
f 480/10/3 460/10/3 478/10/3
f 480/10/3 478/10/3 479/10/3
f 481/10/3 462/10/3 461/10/3
f 482/10/3 462/10/3 481/10/3
f 487/10/3 484/10/3 483/10/3
f 488/10/3 484/10/3 487/10/3
f 489/10/3 486/10/3 485/10/3
f 490/10/3 486/10/3 489/10/3
f 493/10/3 492/10/3 491/10/3
f 494/10/3 492/10/3 493/10/3
f 498/3/3 497/3/3 496/3/3
f 499/3/3 497/3/3 498/3/3
f 501/10/3 495/10/3 494/10/3
f 502/10/3 495/10/3 501/10/3
f 507/10/3 501/10/3 500/10/3
f 508/10/3 501/10/3 507/10/3
f 509/10/3 504/10/3 503/10/3
f 510/10/3 504/10/3 509/10/3
f 511/10/3 506/10/3 505/10/3
f 512/10/3 506/10/3 511/10/3
f 515/10/3 514/10/3 513/10/3
f 516/10/3 514/10/3 515/10/3
f 524/6/3 518/6/3 517/6/3
f 525/4/3 519/4/3 518/4/3
f 525/6/3 518/6/3 524/6/3
f 526/6/3 520/6/3 519/6/3
f 526/4/3 519/4/3 525/4/3
f 527/4/3 521/4/3 520/4/3
f 527/6/3 520/6/3 526/6/3
f 528/6/3 522/6/3 521/6/3
f 528/4/3 521/4/3 527/4/3
f 529/4/3 523/4/3 522/4/3
f 529/6/3 522/6/3 528/6/3
f 530/4/3 523/4/3 529/4/3
f 535/3/3 532/3/3 531/3/3
f 536/3/3 532/3/3 535/3/3
f 542/6/3 538/6/3 537/6/3
f 543/6/3 538/6/3 542/6/3
f 544/6/3 538/6/3 543/6/3
f 545/6/3 538/6/3 544/6/3
f 546/6/3 538/6/3 545/6/3
f 547/6/3 538/6/3 546/6/3
f 548/6/3 538/6/3 547/6/3
f 549/3/3 540/3/3 539/3/3
f 550/3/3 540/3/3 549/3/3
f 551/7/3 542/7/3 541/7/3
f 552/7/3 542/7/3 551/7/3
f 559/10/3 534/10/3 533/10/3
f 560/10/3 534/10/3 559/10/3
f 563/6/3 558/6/3 557/6/3
f 563/6/3 557/6/3 556/6/3
f 563/6/3 556/6/3 555/6/3
f 563/6/3 553/6/3 552/6/3
f 563/6/3 555/6/3 554/6/3
f 563/6/3 554/6/3 553/6/3
f 564/6/3 558/6/3 563/6/3
f 565/3/3 562/3/3 561/3/3
f 566/3/3 562/3/3 565/3/3
f 573/6/3 570/6/3 569/6/3
f 574/8/3 571/8/3 570/8/3
f 574/6/3 570/6/3 573/6/3
f 575/8/3 571/8/3 574/8/3
f 579/3/3 568/3/3 567/3/3
f 580/3/3 568/3/3 579/3/3
f 582/7/3 573/7/3 572/7/3
f 583/7/3 573/7/3 582/7/3
f 584/10/3 577/10/3 576/10/3
f 585/4/3 578/4/3 577/4/3
f 585/10/3 577/10/3 584/10/3
f 586/10/3 579/10/3 578/10/3
f 586/4/3 578/4/3 585/4/3
f 587/10/3 579/10/3 586/10/3
f 589/2/3 582/2/3 581/2/3
f 590/2/3 582/2/3 589/2/3
f 592/7/3 591/7/3 590/7/3
f 593/7/3 591/7/3 592/7/3
f 596/6/3 594/6/3 593/6/3
f 597/8/3 595/8/3 594/8/3
f 597/6/3 594/6/3 596/6/3
f 598/8/3 595/8/3 597/8/3
f 599/3/3 588/3/3 587/3/3
f 600/3/3 588/3/3 599/3/3
f 603/3/3 602/3/3 601/3/3
f 604/3/3 602/3/3 603/3/3
f 607/3/3 606/3/3 605/3/3
f 608/3/3 606/3/3 607/3/3
f 611/11/3 610/11/3 609/11/3
f 612/11/3 610/11/3 611/11/3
f 613/11/3 610/11/3 612/11/3
f 614/11/3 610/11/3 613/11/3
f 615/11/3 610/11/3 614/11/3
f 618/11/3 617/11/3 616/11/3
f 619/11/3 617/11/3 618/11/3
f 622/3/3 621/3/3 620/3/3
f 623/3/3 621/3/3 622/3/3
f 626/11/3 625/11/3 624/11/3
f 627/11/3 625/11/3 626/11/3
f 630/10/3 629/10/3 628/10/3
f 631/10/3 629/10/3 630/10/3
f 632/10/3 630/10/3 628/10/3
f 632/3/3 631/3/3 630/3/3
f 633/3/3 631/3/3 632/3/3
f 634/3/3 631/3/3 633/3/3
f 635/3/3 631/3/3 634/3/3
f 636/3/3 631/3/3 635/3/3
f 637/3/3 631/3/3 636/3/3
f 638/10/3 632/10/3 628/10/3
f 638/1/3 633/1/3 632/1/3
f 639/3/3 634/3/3 633/3/3
f 639/1/3 633/1/3 638/1/3
f 640/1/3 637/1/3 636/1/3
f 640/3/3 636/3/3 635/3/3
f 641/3/3 631/3/3 637/3/3
f 641/1/3 637/1/3 640/1/3
f 642/3/3 634/3/3 639/3/3
f 642/1/3 635/1/3 634/1/3
f 642/3/3 639/3/3 638/3/3
f 643/3/3 640/3/3 635/3/3
f 643/1/3 635/1/3 642/1/3
f 643/3/3 641/3/3 640/3/3
f 644/3/3 642/3/3 638/3/3
f 644/3/3 643/3/3 642/3/3
f 645/3/3 643/3/3 644/3/3
f 646/3/3 641/3/3 643/3/3
f 646/3/3 643/3/3 645/3/3
f 647/3/3 631/3/3 641/3/3
f 647/3/3 641/3/3 646/3/3
f 648/3/3 646/3/3 645/3/3
f 649/1/3 647/1/3 646/1/3
f 649/3/3 646/3/3 648/3/3
f 650/1/3 645/1/3 644/1/3
f 650/3/3 644/3/3 638/3/3
f 651/3/3 648/3/3 645/3/3
f 651/1/3 645/1/3 650/1/3
f 652/1/3 649/1/3 648/1/3
f 652/3/3 648/3/3 651/3/3
f 653/1/3 647/1/3 649/1/3
f 653/1/3 649/1/3 652/1/3
f 653/3/3 631/3/3 647/3/3
f 654/3/3 652/3/3 651/3/3
f 654/3/3 650/3/3 638/3/3
f 654/3/3 653/3/3 652/3/3
f 654/3/3 651/3/3 650/3/3
f 654/10/3 638/10/3 628/10/3
f 655/10/3 629/10/3 631/10/3
f 655/3/3 653/3/3 654/3/3
f 655/3/3 631/3/3 653/3/3
f 656/10/3 654/10/3 628/10/3
f 656/10/3 655/10/3 654/10/3
f 657/10/3 629/10/3 655/10/3
f 657/10/3 655/10/3 656/10/3
f 663/10/3 661/10/3 660/10/3
f 663/10/3 662/10/3 661/10/3
f 663/10/3 660/10/3 659/10/3
f 663/10/3 659/10/3 658/10/3
f 664/10/3 662/10/3 663/10/3
f 665/10/3 662/10/3 664/10/3
f 667/10/3 663/10/3 658/10/3
f 668/10/3 663/10/3 667/10/3
f 669/10/3 663/10/3 668/10/3
f 670/10/3 666/10/3 665/10/3
f 670/10/3 665/10/3 664/10/3
f 671/10/3 667/10/3 658/10/3
f 672/10/3 669/10/3 668/10/3
f 672/10/3 670/10/3 669/10/3
f 673/10/3 670/10/3 672/10/3
f 674/10/3 666/10/3 670/10/3
f 674/10/3 670/10/3 673/10/3
f 675/10/3 673/10/3 672/10/3
f 675/10/3 672/10/3 671/10/3
f 676/10/3 666/10/3 674/10/3
f 677/10/3 666/10/3 676/10/3
f 678/10/3 666/10/3 677/10/3
f 679/10/3 671/10/3 658/10/3
f 679/10/3 675/10/3 671/10/3
f 679/10/3 677/10/3 676/10/3
f 679/10/3 676/10/3 675/10/3
f 680/10/3 677/10/3 679/10/3
f 681/10/3 677/10/3 680/10/3
f 682/10/3 677/10/3 681/10/3
f 683/10/3 677/10/3 682/10/3
f 686/11/3 685/11/3 684/11/3
f 687/11/3 685/11/3 686/11/3
f 690/5/3 689/5/3 688/5/3
f 691/5/3 689/5/3 690/5/3
f 692/5/3 690/5/3 688/5/3
f 693/5/3 690/5/3 692/5/3
f 696/5/3 695/5/3 694/5/3
f 698/5/3 696/5/3 694/5/3
f 698/5/3 697/5/3 696/5/3
f 699/5/3 697/5/3 698/5/3
f 702/11/3 701/11/3 700/11/3
f 704/11/3 702/11/3 700/11/3
f 704/11/3 703/11/3 702/11/3
f 705/11/3 703/11/3 704/11/3
f 706/11/3 703/11/3 705/11/3
f 710/11/3 706/11/3 705/11/3
f 710/11/3 707/11/3 706/11/3
f 711/11/3 707/11/3 710/11/3
f 712/11/3 709/11/3 708/11/3
f 713/11/3 709/11/3 712/11/3
f 714/5/4 715/5/4 716/5/4
f 716/5/4 715/5/4 717/5/4
f 714/5/4 716/5/4 718/5/4
f 718/5/4 716/5/4 719/5/4
f 720/10/4 721/10/4 724/10/4
f 724/10/4 721/10/4 725/10/4
f 724/4/4 725/4/4 726/4/4
f 725/10/4 721/10/4 727/10/4
f 726/4/4 725/4/4 727/4/4
f 726/1/4 727/1/4 730/1/4
f 727/10/4 721/10/4 731/10/4
f 730/1/4 727/1/4 731/1/4
f 730/4/4 731/4/4 732/4/4
f 731/10/4 721/10/4 733/10/4
f 732/4/4 731/4/4 733/4/4
f 728/3/4 729/3/4 734/3/4
f 734/3/4 729/3/4 735/3/4
f 732/1/4 733/1/4 736/1/4
f 733/10/4 721/10/4 737/10/4
f 736/1/4 733/1/4 737/1/4
f 736/4/4 737/4/4 738/4/4
f 737/10/4 721/10/4 739/10/4
f 738/4/4 737/4/4 739/4/4
f 738/10/4 739/10/4 740/10/4
f 739/10/4 721/10/4 741/10/4
f 740/10/4 739/10/4 741/10/4
f 722/10/4 723/10/4 742/10/4
f 742/10/4 723/10/4 743/10/4
f 744/5/4 745/5/4 746/5/4
f 744/5/4 746/5/4 748/5/4
f 746/5/4 747/5/4 748/5/4
f 748/5/4 747/5/4 749/5/4
f 750/3/4 751/3/4 752/3/4
f 752/3/4 751/3/4 753/3/4
f 754/3/4 755/3/4 756/3/4
f 756/3/4 755/3/4 757/3/4
f 760/8/4 761/8/4 763/8/4
f 763/8/4 761/8/4 764/8/4
f 758/3/4 759/3/4 768/3/4
f 768/3/4 759/3/4 769/3/4
f 762/7/4 763/7/4 771/7/4
f 771/7/4 763/7/4 772/7/4
f 765/10/4 766/10/4 773/10/4
f 766/4/4 767/4/4 774/4/4
f 773/10/4 766/10/4 774/10/4
f 767/10/4 768/10/4 775/10/4
f 774/4/4 767/4/4 775/4/4
f 775/10/4 768/10/4 776/10/4
f 770/2/4 771/2/4 778/2/4
f 778/2/4 771/2/4 779/2/4
f 779/7/4 780/7/4 781/7/4
f 781/7/4 780/7/4 782/7/4
f 782/8/4 783/8/4 784/8/4
f 784/8/4 783/8/4 785/8/4
f 776/3/4 777/3/4 786/3/4
f 786/3/4 777/3/4 787/3/4
f 788/3/4 789/3/4 792/3/4
f 792/3/4 789/3/4 793/3/4
f 796/6/4 797/6/4 801/6/4
f 794/6/4 795/6/4 801/6/4
f 795/6/4 796/6/4 801/6/4
f 801/6/4 797/6/4 802/6/4
f 798/3/4 799/3/4 803/3/4
f 803/3/4 799/3/4 804/3/4
f 800/7/4 801/7/4 805/7/4
f 805/7/4 801/7/4 806/7/4
f 790/10/4 791/10/4 808/10/4
f 808/10/4 791/10/4 809/10/4
f 806/6/4 807/6/4 812/6/4
f 812/6/4 807/6/4 813/6/4
f 813/6/4 807/6/4 814/6/4
f 814/6/4 807/6/4 815/6/4
f 810/3/4 811/3/4 816/3/4
f 816/3/4 811/3/4 817/3/4
f 818/6/4 819/6/4 820/6/4
f 820/6/4 819/6/4 821/6/4
f 822/11/4 823/11/4 824/11/4
f 824/11/4 823/11/4 825/11/4
f 825/11/4 823/11/4 826/11/4
f 826/11/4 823/11/4 827/11/4
f 827/11/4 823/11/4 828/11/4
f 829/3/4 830/3/4 831/3/4
f 831/3/4 830/3/4 832/3/4
f 833/11/4 834/11/4 835/11/4
f 835/11/4 834/11/4 836/11/4
f 837/10/4 838/10/4 839/10/4
f 839/10/4 838/10/4 840/10/4
f 841/10/4 842/10/4 843/10/4
f 843/10/4 842/10/4 844/10/4
f 845/11/4 846/11/4 847/11/4
f 847/11/4 846/11/4 848/11/4
f 849/10/4 850/10/4 851/10/4
f 851/10/4 850/10/4 852/10/4
f 853/10/4 854/10/4 855/10/4
f 855/10/4 854/10/4 856/10/4
f 857/10/4 858/10/4 859/10/4
f 859/10/4 858/10/4 860/10/4
f 861/10/4 862/10/4 863/10/4
f 863/10/4 862/10/4 864/10/4
f 864/10/4 865/10/4 867/10/4
f 867/10/4 865/10/4 868/10/4
f 866/10/4 867/10/4 869/10/4
f 869/10/4 867/10/4 870/10/4
f 871/5/4 872/5/4 873/5/4
f 873/5/4 872/5/4 874/5/4
f 875/10/4 876/10/4 877/10/4
f 877/10/4 876/10/4 878/10/4
f 875/10/4 877/10/4 879/10/4
f 878/10/4 876/10/4 880/10/4
f 875/10/4 879/10/4 881/10/4
f 879/10/4 880/10/4 881/10/4
f 880/10/4 876/10/4 882/10/4
f 881/10/4 880/10/4 882/10/4
f 883/5/4 884/5/4 885/5/4
f 885/5/4 884/5/4 886/5/4
f 887/5/4 888/5/4 889/5/4
f 889/5/4 888/5/4 890/5/4
f 891/5/4 892/5/4 893/5/4
f 893/5/4 892/5/4 894/5/4
f 895/11/4 896/11/4 897/11/4
f 895/11/4 897/11/4 899/11/4
f 897/11/4 898/11/4 899/11/4
f 899/11/4 898/11/4 900/11/4
f 900/11/4 898/11/4 901/11/4
f 901/11/4 902/11/4 903/11/4
f 900/11/4 901/11/4 903/11/4
f 903/11/4 902/11/4 904/11/4
f 909/5/5 906/5/5 905/5/5
f 910/5/5 906/5/5 909/5/5
f 911/5/5 908/5/5 907/5/5
f 912/5/5 908/5/5 911/5/5
f 919/5/5 916/5/5 915/5/5
f 920/5/5 916/5/5 919/5/5
f 921/5/5 918/5/5 917/5/5
f 922/5/5 918/5/5 921/5/5
f 923/11/5 914/11/5 913/11/5
f 925/11/5 923/11/5 913/11/5
f 925/11/5 924/11/5 923/11/5
f 926/11/5 924/11/5 925/11/5
f 929/11/5 928/11/5 927/11/5
f 930/11/5 928/11/5 929/11/5
f 933/11/5 932/11/5 931/11/5
f 934/11/5 932/11/5 933/11/5
f 937/11/5 936/11/5 935/11/5
f 938/11/5 936/11/5 937/11/5
f 941/11/5 940/11/5 939/11/5
f 942/11/5 940/11/5 941/11/5
f 947/5/5 944/5/5 943/5/5
f 948/5/5 944/5/5 947/5/5
f 949/5/5 946/5/5 945/5/5
f 950/5/5 946/5/5 949/5/5
f 953/5/5 952/5/5 951/5/5
f 954/5/5 952/5/5 953/5/5
f 955/5/5 952/5/5 954/5/5
f 956/5/5 952/5/5 955/5/5
f 957/5/5 953/5/5 951/5/5
f 960/5/5 952/5/5 956/5/5
f 961/5/5 958/5/5 957/5/5
f 961/5/5 957/5/5 951/5/5
f 962/5/5 958/5/5 961/5/5
f 963/5/5 958/5/5 962/5/5
f 964/5/5 958/5/5 963/5/5
f 965/5/5 960/5/5 959/5/5
f 966/5/5 952/5/5 960/5/5
f 966/5/5 960/5/5 965/5/5
f 967/5/5 963/5/5 962/5/5
f 968/5/5 955/5/5 954/5/5
f 969/5/5 955/5/5 968/5/5
f 970/5/5 952/5/5 966/5/5
f 971/5/5 969/5/5 968/5/5
f 971/5/5 970/5/5 969/5/5
f 971/5/5 967/5/5 962/5/5
f 971/5/5 968/5/5 967/5/5
f 972/5/5 970/5/5 971/5/5
f 973/5/5 970/5/5 972/5/5
f 974/5/5 952/5/5 970/5/5
f 974/5/5 970/5/5 973/5/5
f 977/11/5 976/11/5 975/11/5
f 978/11/5 976/11/5 977/11/5
f 982/10/5 980/10/5 979/10/5
f 983/10/5 980/10/5 982/10/5
f 985/10/5 982/10/5 981/10/5
f 986/10/5 984/10/5 983/10/5
f 987/10/5 985/10/5 981/10/5
f 988/10/5 985/10/5 987/10/5
f 989/10/5 984/10/5 986/10/5
f 990/10/5 984/10/5 989/10/5
f 994/3/5 992/3/5 991/3/5
f 995/3/5 992/3/5 994/3/5
f 997/3/5 994/3/5 993/3/5
f 998/3/5 994/3/5 997/3/5
f 999/3/5 996/3/5 995/3/5
f 1000/3/5 996/3/5 999/3/5
f 1001/3/5 999/3/5 998/3/5
f 1002/3/5 999/3/5 1001/3/5
f 1005/3/5 1004/3/5 1003/3/5
f 1006/3/5 1004/3/5 1005/3/5
f 1008/3/5 1005/3/5 1003/3/5
f 1009/3/5 1004/3/5 1006/3/5
f 1011/3/5 1008/3/5 1007/3/5
f 1012/3/5 1005/3/5 1008/3/5
f 1012/3/5 1008/3/5 1011/3/5
f 1013/3/5 1010/3/5 1009/3/5
f 1013/3/5 1009/3/5 1006/3/5
f 1014/3/5 1010/3/5 1013/3/5
f 1015/3/5 1011/3/5 1007/3/5
f 1018/3/5 1010/3/5 1014/3/5
f 1019/3/5 1016/3/5 1015/3/5
f 1019/3/5 1015/3/5 1007/3/5
f 1020/3/5 1016/3/5 1019/3/5
f 1021/3/5 1018/3/5 1017/3/5
f 1022/3/5 1010/3/5 1018/3/5
f 1022/3/5 1018/3/5 1021/3/5
f 1023/3/5 1016/3/5 1020/3/5
f 1024/3/5 1021/3/5 1017/3/5
f 1025/3/5 1023/3/5 1020/3/5
f 1025/3/5 1024/3/5 1023/3/5
f 1026/3/5 1021/3/5 1024/3/5
f 1026/3/5 1024/3/5 1025/3/5
f 1029/2/5 1028/2/5 1027/2/5
f 1030/2/5 1028/2/5 1029/2/5
f 1034/7/5 1032/7/5 1031/7/5
f 1035/7/5 1032/7/5 1034/7/5
f 1037/7/5 1034/7/5 1033/7/5
f 1038/7/5 1034/7/5 1037/7/5
f 1039/7/5 1036/7/5 1035/7/5
f 1040/7/5 1036/7/5 1039/7/5
f 1041/7/5 1039/7/5 1038/7/5
f 1042/7/5 1039/7/5 1041/7/5
f 1046/6/5 1044/6/5 1043/6/5
f 1047/6/5 1044/6/5 1046/6/5
f 1050/6/5 1046/6/5 1045/6/5
f 1051/6/5 1046/6/5 1050/6/5
f 1052/6/5 1048/6/5 1047/6/5
f 1053/6/5 1048/6/5 1052/6/5
f 1055/6/5 1050/6/5 1049/6/5
f 1056/6/5 1050/6/5 1055/6/5
f 1057/6/5 1054/6/5 1053/6/5
f 1058/6/5 1054/6/5 1057/6/5
f 1059/8/5 1056/8/5 1055/8/5
f 1060/8/5 1056/8/5 1059/8/5
f 1063/8/5 1058/8/5 1057/8/5
f 1064/8/5 1058/8/5 1063/8/5
f 1065/6/5 1061/6/5 1060/6/5
f 1066/6/5 1061/6/5 1065/6/5
f 1067/6/5 1063/6/5 1062/6/5
f 1068/6/5 1063/6/5 1067/6/5
f 1069/6/5 1067/6/5 1066/6/5
f 1070/6/5 1067/6/5 1069/6/5
f 1075/6/5 1072/6/5 1071/6/5
f 1076/6/5 1074/6/5 1073/6/5
f 1077/6/5 1075/6/5 1071/6/5
f 1078/6/5 1075/6/5 1077/6/5
f 1079/6/5 1074/6/5 1076/6/5
f 1080/6/5 1074/6/5 1079/6/5
f 1085/10/5 1082/10/5 1081/10/5
f 1086/10/5 1082/10/5 1085/10/5
f 1087/10/5 1084/10/5 1083/10/5
f 1088/10/5 1084/10/5 1087/10/5
f 1091/10/5 1090/10/5 1089/10/5
f 1092/10/5 1090/10/5 1091/10/5
f 1093/10/5 1091/10/5 1089/10/5
f 1094/10/5 1091/10/5 1093/10/5
f 1095/10/5 1090/10/5 1092/10/5
f 1096/10/5 1090/10/5 1095/10/5
f 1097/10/5 1093/10/5 1089/10/5
f 1098/10/5 1090/10/5 1096/10/5
f 1099/10/5 1097/10/5 1089/10/5
f 1100/10/5 1090/10/5 1098/10/5
f 1101/10/5 1099/10/5 1089/10/5
f 1104/10/5 1090/10/5 1100/10/5
f 1105/10/5 1102/10/5 1101/10/5
f 1106/10/5 1104/10/5 1103/10/5
f 1107/10/5 1105/10/5 1101/10/5
f 1107/10/5 1106/10/5 1105/10/5
f 1107/10/5 1101/10/5 1089/10/5
f 1108/10/5 1104/10/5 1106/10/5
f 1108/10/5 1106/10/5 1107/10/5
f 1108/10/5 1090/10/5 1104/10/5
f 1109/11/6 1110/11/6 1111/11/6
f 1109/11/6 1111/11/6 1113/11/6
f 1111/11/6 1112/11/6 1113/11/6
f 1113/11/6 1112/11/6 1114/11/6
f 1115/11/6 1116/11/6 1117/11/6
f 1117/11/6 1116/11/6 1118/11/6
f 1119/11/6 1120/11/6 1121/11/6
f 1121/11/6 1120/11/6 1122/11/6
f 1123/11/6 1124/11/6 1125/11/6
f 1125/11/6 1124/11/6 1126/11/6
f 1127/5/6 1128/5/6 1129/5/6
f 1129/5/6 1128/5/6 1130/5/6
f 1127/5/6 1129/5/6 1131/5/6
f 1131/5/6 1129/5/6 1132/5/6
f 1130/5/6 1128/5/6 1133/5/6
f 1133/5/6 1128/5/6 1134/5/6
f 1127/5/6 1131/5/6 1135/5/6
f 1135/5/6 1131/5/6 1136/5/6
f 1127/5/6 1135/5/6 1137/5/6
f 1137/5/6 1135/5/6 1138/5/6
f 1136/5/6 1131/5/6 1141/5/6
f 1134/5/6 1128/5/6 1144/5/6
f 1139/5/6 1140/5/6 1145/5/6
f 1141/5/6 1142/5/6 1146/5/6
f 1136/5/6 1141/5/6 1146/5/6
f 1146/5/6 1142/5/6 1147/5/6
f 1143/5/6 1144/5/6 1150/5/6
f 1147/5/6 1148/5/6 1151/5/6
f 1145/5/6 1146/5/6 1151/5/6
f 1146/5/6 1147/5/6 1151/5/6
f 1149/5/6 1150/5/6 1152/5/6
f 1139/5/6 1145/5/6 1153/5/6
f 1151/5/6 1152/5/6 1153/5/6
f 1145/5/6 1151/5/6 1153/5/6
f 1153/5/6 1152/5/6 1154/5/6
f 1154/5/6 1152/5/6 1155/5/6
f 1152/5/6 1150/5/6 1156/5/6
f 1155/5/6 1152/5/6 1156/5/6
f 1144/5/6 1128/5/6 1156/5/6
f 1150/5/6 1144/5/6 1156/5/6
f 1157/10/6 1158/10/6 1167/10/6
f 1158/10/6 1159/10/6 1167/10/6
f 1163/10/6 1164/10/6 1167/10/6
f 1162/10/6 1163/10/6 1167/10/6
f 1161/10/6 1162/10/6 1167/10/6
f 1160/10/6 1161/10/6 1167/10/6
f 1159/10/6 1160/10/6 1167/10/6
f 1167/10/6 1164/10/6 1168/10/6
f 1165/10/6 1166/10/6 1169/10/6
f 1169/10/6 1166/10/6 1170/10/6
f 1167/10/6 1168/10/6 1171/10/6
f 1171/10/6 1168/10/6 1172/10/6
f 1165/10/6 1169/10/6 1173/10/6
f 1173/10/6 1169/10/6 1174/10/6
f 1174/10/6 1169/10/6 1175/10/6
f 1169/9/6 1170/9/6 1176/9/6
f 1175/10/6 1169/10/6 1176/10/6
f 1170/10/6 1166/10/6 1177/10/6
f 1176/9/6 1170/9/6 1177/9/6
f 1177/10/6 1166/10/6 1178/10/6
f 1178/10/6 1166/10/6 1179/10/6
f 1179/10/6 1166/10/6 1180/10/6
f 1165/10/6 1173/10/6 1181/10/6
f 1173/9/6 1174/9/6 1181/9/6
f 1174/10/6 1175/10/6 1182/10/6
f 1181/9/6 1174/9/6 1182/9/6
f 1175/9/6 1176/9/6 1183/9/6
f 1182/10/6 1175/10/6 1183/10/6
f 1176/9/6 1177/9/6 1183/9/6
f 1177/9/6 1178/9/6 1183/9/6
f 1178/10/6 1179/10/6 1184/10/6
f 1183/9/6 1178/9/6 1184/9/6
f 1179/9/6 1180/9/6 1185/9/6
f 1184/10/6 1179/10/6 1185/10/6
f 1180/10/6 1166/10/6 1186/10/6
f 1185/9/6 1180/9/6 1186/9/6
f 1181/10/6 1182/10/6 1187/10/6
f 1165/10/6 1181/10/6 1187/10/6
f 1185/10/6 1186/10/6 1187/10/6
f 1182/10/6 1183/10/6 1187/10/6
f 1183/10/6 1184/10/6 1187/10/6
f 1184/10/6 1185/10/6 1187/10/6
f 1187/10/6 1186/10/6 1188/10/6
f 1188/10/6 1186/10/6 1189/10/6
f 1189/10/6 1186/10/6 1190/10/6
f 1190/10/6 1186/10/6 1191/10/6
f 1191/10/6 1186/10/6 1192/10/6
f 1192/10/6 1186/10/6 1193/10/6
f 1186/10/6 1166/10/6 1194/10/6
f 1193/10/6 1186/10/6 1194/10/6
f 1165/10/6 1187/10/6 1195/10/6
f 1187/9/6 1188/9/6 1195/9/6
f 1188/10/6 1189/10/6 1196/10/6
f 1195/9/6 1188/9/6 1196/9/6
f 1189/9/6 1190/9/6 1197/9/6
f 1196/10/6 1189/10/6 1197/10/6
f 1190/10/6 1191/10/6 1198/10/6
f 1197/9/6 1190/9/6 1198/9/6
f 1191/9/6 1192/9/6 1199/9/6
f 1198/10/6 1191/10/6 1199/10/6
f 1192/10/6 1193/10/6 1200/10/6
f 1199/9/6 1192/9/6 1200/9/6
f 1193/9/6 1194/9/6 1201/9/6
f 1200/10/6 1193/10/6 1201/10/6
f 1194/10/6 1166/10/6 1202/10/6
f 1201/9/6 1194/9/6 1202/9/6
f 1167/10/6 1171/10/6 1203/10/6
f 1172/10/6 1168/10/6 1204/10/6
f 1198/10/6 1199/10/6 1206/10/6
f 1200/10/6 1201/10/6 1206/10/6
f 1199/10/6 1200/10/6 1206/10/6
f 1165/10/6 1195/10/6 1206/10/6
f 1201/10/6 1202/10/6 1206/10/6
f 1197/10/6 1198/10/6 1206/10/6
f 1196/10/6 1197/10/6 1206/10/6
f 1195/10/6 1196/10/6 1206/10/6
f 1206/10/6 1202/10/6 1207/10/6
f 1207/10/6 1202/10/6 1208/10/6
f 1208/10/6 1202/10/6 1209/10/6
f 1209/10/6 1202/10/6 1210/10/6
f 1210/10/6 1202/10/6 1211/10/6
f 1211/10/6 1202/10/6 1212/10/6
f 1212/10/6 1202/10/6 1213/10/6
f 1202/10/6 1166/10/6 1214/10/6
f 1213/10/6 1202/10/6 1214/10/6
f 1205/11/6 1206/11/6 1215/11/6
f 1206/10/6 1207/10/6 1216/10/6
f 1215/11/6 1206/11/6 1216/11/6
f 1207/9/6 1208/9/6 1217/9/6
f 1216/10/6 1207/10/6 1217/10/6
f 1208/10/6 1209/10/6 1218/10/6
f 1217/9/6 1208/9/6 1218/9/6
f 1209/9/6 1210/9/6 1219/9/6
f 1218/10/6 1209/10/6 1219/10/6
f 1210/10/6 1211/10/6 1220/10/6
f 1219/9/6 1210/9/6 1220/9/6
f 1211/9/6 1212/9/6 1221/9/6
f 1220/10/6 1211/10/6 1221/10/6
f 1212/10/6 1213/10/6 1222/10/6
f 1221/9/6 1212/9/6 1222/9/6
f 1213/9/6 1214/9/6 1223/9/6
f 1222/10/6 1213/10/6 1223/10/6
f 1214/10/6 1166/10/6 1224/10/6
f 1223/9/6 1214/9/6 1224/9/6
f 1203/10/6 1204/10/6 1225/10/6
f 1167/10/6 1203/10/6 1225/10/6
f 1204/10/6 1168/10/6 1226/10/6
f 1225/10/6 1204/10/6 1226/10/6
f 1223/10/6 1224/10/6 1227/10/6
f 1220/10/6 1221/10/6 1227/10/6
f 1222/10/6 1223/10/6 1227/10/6
f 1221/10/6 1222/10/6 1227/10/6
f 1219/10/6 1220/10/6 1227/10/6
f 1218/10/6 1219/10/6 1227/10/6
f 1217/10/6 1218/10/6 1227/10/6
f 1216/10/6 1217/10/6 1227/10/6
f 1224/10/6 1166/10/6 1228/10/6
f 1227/10/6 1224/10/6 1228/10/6
f 1225/10/6 1226/10/6 1229/10/6
f 1229/10/6 1226/10/6 1230/10/6
f 1231/10/6 1232/10/6 1233/10/6
f 1233/10/6 1232/10/6 1234/10/6
f 1231/10/6 1233/10/6 1235/10/6
f 1234/10/6 1232/10/6 1236/10/6
f 1231/10/6 1235/10/6 1237/10/6
f 1235/10/6 1236/10/6 1237/10/6
f 1236/10/6 1232/10/6 1238/10/6
f 1237/10/6 1236/10/6 1238/10/6
f 1239/11/6 1240/11/6 1241/11/6
f 1241/11/6 1240/11/6 1242/11/6
f 1243/10/6 1244/10/6 1246/10/6
f 1246/10/6 1244/10/6 1247/10/6
f 1245/10/6 1246/10/6 1249/10/6
f 1249/10/6 1246/10/6 1250/10/6
f 1247/10/6 1248/10/6 1251/10/6
f 1251/10/6 1248/10/6 1252/10/6
f 1253/10/6 1254/10/6 1256/10/6
f 1256/10/6 1254/10/6 1257/10/6
f 1255/10/6 1256/10/6 1259/10/6
f 1257/10/6 1258/10/6 1260/10/6
f 1255/10/6 1259/10/6 1261/10/6
f 1261/10/6 1259/10/6 1262/10/6
f 1260/10/6 1258/10/6 1263/10/6
f 1263/10/6 1258/10/6 1264/10/6
f 1265/3/6 1266/3/6 1267/3/6
f 1267/3/6 1266/3/6 1268/3/6
f 1269/3/6 1270/3/6 1273/3/6
f 1273/3/6 1270/3/6 1274/3/6
f 1271/3/6 1272/3/6 1275/3/6
f 1275/3/6 1272/3/6 1276/3/6
f 1277/3/6 1278/3/6 1279/3/6
f 1279/3/6 1278/3/6 1280/3/6
f 1281/3/6 1282/3/6 1283/3/6
f 1283/3/6 1282/3/6 1284/3/6
f 1281/3/6 1283/3/6 1286/3/6
f 1286/3/6 1283/3/6 1287/3/6
f 1284/3/6 1282/3/6 1288/3/6
f 1288/3/6 1282/3/6 1289/3/6
f 1286/3/6 1287/3/6 1291/3/6
f 1289/3/6 1290/3/6 1291/3/6
f 1288/3/6 1289/3/6 1291/3/6
f 1287/3/6 1288/3/6 1291/3/6
f 1285/3/6 1286/3/6 1291/3/6
f 1291/3/6 1290/3/6 1292/3/6
f 1292/3/6 1290/3/6 1293/3/6
f 1293/3/6 1290/3/6 1294/3/6
f 1294/3/6 1290/3/6 1295/3/6
f 1295/3/6 1290/3/6 1296/3/6
f 1285/3/6 1291/3/6 1297/3/6
f 1292/3/6 1293/3/6 1298/3/6
f 1293/4/6 1294/4/6 1299/4/6
f 1298/3/6 1293/3/6 1299/3/6
f 1294/3/6 1295/3/6 1300/3/6
f 1299/4/6 1294/4/6 1300/4/6
f 1300/3/6 1295/3/6 1301/3/6
f 1296/3/6 1290/3/6 1302/3/6
f 1300/3/6 1301/3/6 1303/3/6
f 1301/3/6 1302/3/6 1303/3/6
f 1298/3/6 1299/3/6 1303/3/6
f 1285/3/6 1297/3/6 1303/3/6
f 1299/3/6 1300/3/6 1303/3/6
f 1297/3/6 1298/3/6 1303/3/6
f 1303/3/6 1302/3/6 1304/3/6
f 1304/3/6 1302/3/6 1305/3/6
f 1305/3/6 1302/3/6 1306/3/6
f 1306/3/6 1302/3/6 1307/3/6
f 1302/3/6 1290/3/6 1308/3/6
f 1307/3/6 1302/3/6 1308/3/6
f 1304/3/6 1305/3/6 1309/3/6
f 1306/3/6 1307/3/6 1310/3/6
f 1304/3/6 1309/3/6 1313/3/6
f 1309/3/6 1310/3/6 1313/3/6
f 1310/3/6 1307/3/6 1314/3/6
f 1313/3/6 1310/3/6 1314/3/6
f 1311/10/6 1312/10/6 1315/10/6
f 1315/10/6 1312/10/6 1316/10/6
f 1317/8/6 1318/8/6 1321/8/6
f 1321/8/6 1318/8/6 1322/8/6
f 1319/8/6 1320/8/6 1323/8/6
f 1323/8/6 1320/8/6 1324/8/6
f 1321/6/6 1322/6/6 1325/6/6
f 1323/6/6 1324/6/6 1326/6/6
f 1321/6/6 1325/6/6 1327/6/6
f 1326/6/6 1324/6/6 1328/6/6
f 1321/6/6 1327/6/6 1329/6/6
f 1329/6/6 1327/6/6 1330/6/6
f 1328/6/6 1324/6/6 1331/6/6
f 1331/6/6 1324/6/6 1332/6/6
f 1333/10/6 1334/10/6 1337/10/6
f 1337/10/6 1334/10/6 1338/10/6
f 1335/10/6 1336/10/6 1339/10/6
f 1339/10/6 1336/10/6 1340/10/6
f 1338/10/6 1339/10/6 1341/10/6
f 1341/10/6 1339/10/6 1342/10/6
f 1343/10/6 1344/10/6 1345/10/6
f 1345/10/6 1344/10/6 1346/10/6
