# MagicaVoxel @ Ephtracy

# group
o 

# material
mtllib labtable2.mtl
usemtl palette

# normals
vn -1 0 0
vn 1 0 0
vn 0 0 1
vn 0 0 -1
vn 0 -1 0
vn 0 1 0

# texcoords
vt 0.333984 0.5
vt 0.349609 0.5
vt 0.357422 0.5
vt 0.361328 0.5
vt 0.619141 0.5
vt 0.642578 0.5
vt 0.830078 0.5
vt 0.861328 0.5
vt 0.888672 0.5
vt 0.927734 0.5
vt 0.931641 0.5

# verts
v -1.8 0 -0.8
v -1.8 0 -1.2
v -1.8 0.1 -0.7
v -1.8 0.1 -0.8
v -1.8 0.1 -1.2
v -1.8 0.3 -0.6
v -1.8 0.3 -0.7
v -1.8 0.4 -0.7
v -1.8 0.4 -0.8
v -1.8 0.7 -0.5
v -1.8 0.7 -0.6
v -1.8 0.8 -0.6
v -1.8 0.8 -0.7
v -1.8 1.5 -0.5
v -1.8 1.5 -0.6
v -1.7 1.2 0.5
v -1.7 1.2 -0.5
v -1.7 1.2 -0.6
v -1.7 1.2 -1.1
v -1.7 1.4 0.5
v -1.7 1.4 -0.5
v -1.7 1.4 -0.6
v -1.7 1.4 -1.1
v -1.6 0 0.4
v -1.6 0 0.2
v -1.6 0 -0.8
v -1.6 0 -1
v -1.6 1.2 0.4
v -1.6 1.2 0.2
v -1.6 1.2 -0.8
v -1.6 1.2 -1
v -1.5 0.9 0.2
v -1.5 0.9 -0.8
v -1.5 1.2 0.2
v -1.5 1.2 -0.8
v -1.3 1.4 0.1
v -1.3 1.4 -0.5
v -1.3 1.4 -0.6
v -1.3 1.4 -0.9
v -1.3 1.5 0.1
v -1.3 1.5 -0.5
v -1.3 1.5 -0.6
v -1.3 1.5 -0.7
v -1.3 2.3 -0.7
v -1.3 2.3 -0.9
v 0.2 1.4 0.2
v 0.2 1.4 -0.7
v 0.2 1.5 0.1
v 0.2 1.5 -0.6
v 0.2 1.6 0.1
v 0.2 1.6 -0.6
v 0.2 1.7 0.2
v 0.2 1.7 -0.7
v 0.2 1.8 0.2
v 0.2 1.8 -0.8
v 0.2 1.9 0.2
v 0.2 1.9 -0.8
v 0.3 1.4 0.3
v 0.3 1.4 0.2
v 0.3 1.4 -0.7
v 0.3 1.4 -0.9
v 0.3 1.7 0.3
v 0.3 1.7 0.2
v 0.3 1.7 -0.7
v 0.3 1.8 0.3
v 0.3 1.8 0.2
v 0.3 1.8 -0.7
v 0.3 1.8 -0.8
v 0.3 1.9 0.3
v 0.3 1.9 0.2
v 0.3 1.9 -0.7
v 0.3 1.9 -0.8
v 0.3 3.3 0.2
v 0.3 3.3 -0.7
v 0.3 3.4 0.2
v 0.3 3.4 -0.9
v 0.4 1.4 -0.9
v 0.4 1.4 -1
v 0.4 2.8 -0.1
v 0.4 2.8 -0.2
v 0.4 2.8 -0.3
v 0.4 2.9 -0.1
v 0.4 2.9 -0.2
v 0.4 2.9 -0.3
v 0.4 2.9 -0.7
v 0.4 3 -0.1
v 0.4 3 -0.2
v 0.4 3 -0.7
v 0.4 3.4 0.2
v 0.4 3.4 -0.9
v 0.4 3.4 -1
v 0.4 3.5 0.2
v 0.4 3.5 -0.9
v 0.5 0.1 -1.1
v 0.5 0.1 -1.2
v 0.5 0.2 -1.1
v 0.5 0.2 -1.2
v 0.5 1.5 0
v 0.5 1.5 -0.4
v 0.5 1.6 0
v 0.5 1.6 -0.4
v 0.5 2.7 -0.1
v 0.5 2.7 -0.3
v 0.5 2.8 0
v 0.5 2.8 -0.1
v 0.5 2.8 -0.2
v 0.5 2.8 -0.3
v 0.5 2.8 -0.4
v 0.5 2.9 -0.1
v 0.5 2.9 -0.3
v 0.5 2.9 -0.4
v 0.5 3 -0.1
v 0.5 3 -0.2
v 0.5 3 -0.3
v 0.5 3 -0.4
v 0.5 3.4 0
v 0.5 3.4 -0.1
v 0.5 3.4 -0.3
v 0.5 3.4 -0.4
v 0.6 0.2 -1.1
v 0.6 0.2 -1.2
v 0.6 1.2 -1.1
v 0.6 1.4 -1.1
v 0.6 1.5 -1
v 0.6 1.5 -1.1
v 0.6 1.6 -0.1
v 0.6 1.6 -0.3
v 0.6 1.6 -1
v 0.6 1.6 -1.2
v 0.6 1.7 -0.1
v 0.6 1.7 -0.3
v 0.6 1.8 -0.1
v 0.6 1.8 -0.3
v 0.6 2.1 -0.1
v 0.6 2.1 -0.3
v 0.6 2.6 -0.1
v 0.6 2.6 -0.3
v 0.6 2.7 0
v 0.6 2.7 -0.1
v 0.6 2.7 -0.3
v 0.6 2.7 -0.4
v 0.6 2.8 0.1
v 0.6 2.8 0
v 0.6 2.8 -0.1
v 0.6 2.8 -0.3
v 0.6 2.8 -0.4
v 0.6 2.8 -0.5
v 0.6 2.9 0.1
v 0.6 2.9 0
v 0.6 3 0.1
v 0.6 3 0
v 0.6 3.1 0.1
v 0.6 3.1 0
v 0.6 3.2 0.1
v 0.6 3.2 0
v 0.6 3.3 0.1
v 0.6 3.3 0
v 0.6 3.4 0.1
v 0.6 3.4 0
v 0.6 3.4 -0.4
v 0.6 3.4 -0.5
v 0.9 2.9 -0.4
v 0.9 2.9 -0.7
v 0.9 3 -0.4
v 0.9 3 -0.7
v 1 3.3 0.2
v 1 3.3 -0.7
v 1 3.4 0.2
v 1 3.4 -0.7
v 1.1 1.5 0.2
v 1.1 1.5 0.1
v 1.1 1.5 -0.6
v 1.1 1.5 -0.7
v 1.1 1.6 0.1
v 1.1 1.6 -0.6
v 1.1 1.7 0.2
v 1.1 1.7 -0.7
v 1.1 1.8 0.2
v 1.1 1.8 -0.7
v 1.1 1.9 0.2
v 1.1 1.9 -0.7
v 1.2 0 0.4
v 1.2 0 0.2
v 1.2 0 -0.8
v 1.2 0 -1
v 1.2 0.9 0.2
v 1.2 0.9 -0.8
v 1.2 1.2 0.4
v 1.2 1.2 -1
v -1.7 0 -0.8
v -1.7 0 -1.1
v -1.7 0.1 -0.7
v -1.7 0.1 -0.8
v -1.7 0.1 -1.1
v -1.7 0.3 -0.6
v -1.7 0.3 -0.7
v -1.7 0.4 -0.7
v -1.7 0.4 -0.8
v -1.7 0.7 -0.5
v -1.7 0.7 -0.6
v -1.7 0.8 -0.6
v -1.7 0.8 -0.7
v -1.7 1.2 -0.5
v -1.7 1.2 -0.6
v -1.4 0 0.4
v -1.4 0 0.2
v -1.4 0 -0.8
v -1.4 0 -1
v -1.4 0.9 0.2
v -1.4 0.9 -0.8
v -1.4 1.2 0.4
v -1.4 1.2 -1
v -0.3 1.4 0.1
v -0.3 1.4 -0.9
v -0.3 1.5 0.1
v -0.3 1.5 -0.7
v -0.3 2.3 -0.7
v -0.3 2.3 -0.9
v 0.3 1.5 0.2
v 0.3 1.5 0.1
v 0.3 1.5 -0.6
v 0.3 1.5 -0.7
v 0.3 1.6 0.1
v 0.3 1.6 -0.6
v 0.3 1.7 0.2
v 0.3 1.7 -0.7
v 0.3 1.8 0.2
v 0.3 1.8 -0.7
v 0.3 1.9 0.2
v 0.3 1.9 -0.7
v 0.4 3.3 0.2
v 0.4 3.3 -0.7
v 0.4 3.4 0.2
v 0.4 3.4 -0.7
v 0.5 2.9 -0.4
v 0.5 2.9 -0.7
v 0.5 3 -0.4
v 0.5 3 -0.7
v 0.6 0 -1.1
v 0.6 0 -1.2
v 0.6 0.1 -1.1
v 0.6 0.1 -1.2
v 0.7 0.1 -1.1
v 0.7 0.1 -1.2
v 0.7 1.2 -1.1
v 0.7 1.4 -1.1
v 0.7 1.5 -1
v 0.7 1.5 -1.1
v 0.7 1.6 -1
v 0.7 1.6 -1.2
v 0.8 1.6 -0.1
v 0.8 1.6 -0.3
v 0.8 1.7 -0.1
v 0.8 1.7 -0.3
v 0.8 1.8 -0.1
v 0.8 1.8 -0.3
v 0.8 2.1 -0.1
v 0.8 2.1 -0.3
v 0.8 2.6 -0.1
v 0.8 2.6 -0.3
v 0.8 2.7 0
v 0.8 2.7 -0.1
v 0.8 2.7 -0.3
v 0.8 2.7 -0.4
v 0.8 2.8 0.1
v 0.8 2.8 0
v 0.8 2.8 -0.1
v 0.8 2.8 -0.3
v 0.8 2.8 -0.4
v 0.8 2.8 -0.5
v 0.8 2.9 0.1
v 0.8 2.9 0
v 0.8 3 0.1
v 0.8 3 0
v 0.8 3.1 0.1
v 0.8 3.1 0
v 0.8 3.2 0.1
v 0.8 3.2 0
v 0.8 3.3 0.1
v 0.8 3.3 0
v 0.8 3.4 0.1
v 0.8 3.4 0
v 0.8 3.4 -0.4
v 0.8 3.4 -0.5
v 0.9 1.5 0
v 0.9 1.5 -0.4
v 0.9 1.6 0
v 0.9 1.6 -0.4
v 0.9 2.7 -0.1
v 0.9 2.7 -0.3
v 0.9 2.8 0
v 0.9 2.8 -0.1
v 0.9 2.8 -0.2
v 0.9 2.8 -0.3
v 0.9 2.8 -0.4
v 0.9 2.9 -0.1
v 0.9 2.9 -0.3
v 0.9 2.9 -0.4
v 0.9 3 -0.1
v 0.9 3 -0.2
v 0.9 3 -0.3
v 0.9 3 -0.4
v 0.9 3.4 0
v 0.9 3.4 -0.1
v 0.9 3.4 -0.3
v 0.9 3.4 -0.4
v 1 1.4 -0.9
v 1 1.4 -1
v 1 2.8 -0.1
v 1 2.8 -0.2
v 1 2.8 -0.3
v 1 2.9 -0.1
v 1 2.9 -0.2
v 1 2.9 -0.3
v 1 2.9 -0.7
v 1 3 -0.1
v 1 3 -0.2
v 1 3 -0.7
v 1 3.4 0.2
v 1 3.4 -0.9
v 1 3.4 -1
v 1 3.5 0.2
v 1 3.5 -0.9
v 1.1 1.4 0.3
v 1.1 1.4 0.2
v 1.1 1.4 -0.7
v 1.1 1.4 -0.9
v 1.1 1.7 0.3
v 1.1 1.7 0.2
v 1.1 1.7 -0.7
v 1.1 1.8 0.3
v 1.1 1.8 0.2
v 1.1 1.8 -0.7
v 1.1 1.8 -0.8
v 1.1 1.9 0.3
v 1.1 1.9 0.2
v 1.1 1.9 -0.7
v 1.1 1.9 -0.8
v 1.1 3.3 0.2
v 1.1 3.3 -0.7
v 1.1 3.4 0.2
v 1.1 3.4 -0.9
v 1.2 1.4 0.2
v 1.2 1.4 -0.7
v 1.2 1.5 0.1
v 1.2 1.5 -0.6
v 1.2 1.6 0.1
v 1.2 1.6 -0.6
v 1.2 1.7 0.2
v 1.2 1.7 -0.7
v 1.2 1.8 0.2
v 1.2 1.8 -0.8
v 1.2 1.9 0.2
v 1.2 1.9 -0.8
v 1.3 0.9 0.2
v 1.3 0.9 -0.8
v 1.3 1.2 0.2
v 1.3 1.2 -0.8
v 1.4 0 0.4
v 1.4 0 0.2
v 1.4 0 -0.8
v 1.4 0 -1
v 1.4 1.2 0.4
v 1.4 1.2 0.2
v 1.4 1.2 -0.8
v 1.4 1.2 -1
v 1.5 1.2 0.5
v 1.5 1.2 -1.1
v 1.5 1.4 0.5
v 1.5 1.4 -1.1
v -1.7 1.2 0.5
v -1.7 1.4 0.5
v 1.5 1.2 0.5
v 1.5 1.4 0.5
v -1.6 0 0.4
v -1.6 1.2 0.4
v -1.4 0 0.4
v -1.4 1.2 0.4
v 1.2 0 0.4
v 1.2 1.2 0.4
v 1.4 0 0.4
v 1.4 1.2 0.4
v 0.3 1.4 0.3
v 0.3 1.7 0.3
v 0.3 1.8 0.3
v 0.3 1.9 0.3
v 0.4 1.5 0.3
v 0.4 1.6 0.3
v 0.5 1.5 0.3
v 0.5 1.6 0.3
v 0.7 1.5 0.3
v 0.7 1.6 0.3
v 0.8 1.5 0.3
v 0.8 1.6 0.3
v 0.9 1.5 0.3
v 0.9 1.6 0.3
v 1 1.5 0.3
v 1 1.6 0.3
v 1.1 1.4 0.3
v 1.1 1.7 0.3
v 1.1 1.8 0.3
v 1.1 1.9 0.3
v 0.2 1.4 0.2
v 0.2 1.7 0.2
v 0.2 1.8 0.2
v 0.2 1.9 0.2
v 0.3 1.4 0.2
v 0.3 1.7 0.2
v 0.3 1.8 0.2
v 0.3 1.9 0.2
v 0.3 3.3 0.2
v 0.3 3.4 0.2
v 0.4 3.3 0.2
v 0.4 3.4 0.2
v 0.4 3.5 0.2
v 1 3.3 0.2
v 1 3.4 0.2
v 1 3.5 0.2
v 1.1 1.4 0.2
v 1.1 1.7 0.2
v 1.1 1.8 0.2
v 1.1 1.9 0.2
v 1.1 3.3 0.2
v 1.1 3.4 0.2
v 1.2 1.4 0.2
v 1.2 1.7 0.2
v 1.2 1.8 0.2
v 1.2 1.9 0.2
v -1.3 1.4 0.1
v -1.3 1.5 0.1
v -0.3 1.4 0.1
v -0.3 1.5 0.1
v 0.6 2.8 0.1
v 0.6 2.9 0.1
v 0.6 3 0.1
v 0.6 3.1 0.1
v 0.6 3.2 0.1
v 0.6 3.3 0.1
v 0.6 3.4 0.1
v 0.8 2.8 0.1
v 0.8 2.9 0.1
v 0.8 3 0.1
v 0.8 3.1 0.1
v 0.8 3.2 0.1
v 0.8 3.3 0.1
v 0.8 3.4 0.1
v 0.5 1.5 0
v 0.5 1.6 0
v 0.5 2.8 0
v 0.5 3.4 0
v 0.6 2.7 0
v 0.6 2.8 0
v 0.6 2.9 0
v 0.6 3 0
v 0.6 3.1 0
v 0.6 3.2 0
v 0.6 3.3 0
v 0.6 3.4 0
v 0.8 2.7 0
v 0.8 2.8 0
v 0.8 2.9 0
v 0.8 3 0
v 0.8 3.1 0
v 0.8 3.2 0
v 0.8 3.3 0
v 0.8 3.4 0
v 0.9 1.5 0
v 0.9 1.6 0
v 0.9 2.8 0
v 0.9 3.4 0
v 0.4 2.8 -0.1
v 0.4 2.9 -0.1
v 0.4 3 -0.1
v 0.5 2.7 -0.1
v 0.5 2.8 -0.1
v 0.5 2.9 -0.1
v 0.5 3 -0.1
v 0.6 1.6 -0.1
v 0.6 1.7 -0.1
v 0.6 1.8 -0.1
v 0.6 2.1 -0.1
v 0.6 2.6 -0.1
v 0.6 2.7 -0.1
v 0.6 2.8 -0.1
v 0.8 1.6 -0.1
v 0.8 1.7 -0.1
v 0.8 1.8 -0.1
v 0.8 2.1 -0.1
v 0.8 2.6 -0.1
v 0.8 2.7 -0.1
v 0.8 2.8 -0.1
v 0.9 2.7 -0.1
v 0.9 2.8 -0.1
v 0.9 2.9 -0.1
v 0.9 3 -0.1
v 1 2.8 -0.1
v 1 2.9 -0.1
v 1 3 -0.1
v -1.8 0.7 -0.5
v -1.8 1.5 -0.5
v -1.7 0.7 -0.5
v -1.7 1.2 -0.5
v -1.7 1.4 -0.5
v -1.3 1.4 -0.5
v -1.3 1.5 -0.5
v -1.8 0.3 -0.6
v -1.8 0.7 -0.6
v -1.7 0.3 -0.6
v -1.7 0.7 -0.6
v -1.8 0.1 -0.7
v -1.8 0.3 -0.7
v -1.7 0.1 -0.7
v -1.7 0.3 -0.7
v -1.3 1.5 -0.7
v -1.3 2.3 -0.7
v -1.2 1.6 -0.7
v -1.2 2.2 -0.7
v -1.1 1.6 -0.7
v -1.1 1.7 -0.7
v -1.1 1.8 -0.7
v -1.1 1.9 -0.7
v -1.1 2 -0.7
v -1.1 2.1 -0.7
v -1 1.6 -0.7
v -1 1.7 -0.7
v -0.9 2 -0.7
v -0.9 2.1 -0.7
v -0.8 1.8 -0.7
v -0.8 1.9 -0.7
v -0.7 1.7 -0.7
v -0.7 1.8 -0.7
v -0.7 2 -0.7
v -0.7 2.1 -0.7
v -0.6 1.9 -0.7
v -0.6 2 -0.7
v -0.5 1.7 -0.7
v -0.5 1.8 -0.7
v -0.5 1.9 -0.7
v -0.5 2.1 -0.7
v -0.4 1.6 -0.7
v -0.4 2.2 -0.7
v -0.3 1.5 -0.7
v -0.3 2.3 -0.7
v 0.3 1.5 -0.7
v 0.3 1.7 -0.7
v 0.3 1.8 -0.7
v 0.3 1.9 -0.7
v 0.3 3.3 -0.7
v 0.4 2.9 -0.7
v 0.4 3 -0.7
v 0.4 3.3 -0.7
v 0.4 3.4 -0.7
v 0.5 2.9 -0.7
v 0.5 3 -0.7
v 0.9 2.9 -0.7
v 0.9 3 -0.7
v 1 2.9 -0.7
v 1 3 -0.7
v 1 3.3 -0.7
v 1 3.4 -0.7
v 1.1 1.5 -0.7
v 1.1 1.7 -0.7
v 1.1 1.8 -0.7
v 1.1 1.9 -0.7
v 1.1 3.3 -0.7
v -1.8 0 -0.8
v -1.8 0.1 -0.8
v -1.7 0 -0.8
v -1.7 0.1 -0.8
v -1.6 0 -0.8
v -1.6 1.2 -0.8
v -1.5 0.9 -0.8
v -1.5 1.2 -0.8
v -1.4 0 -0.8
v -1.4 0.9 -0.8
v 1.2 0 -0.8
v 1.2 0.9 -0.8
v 1.3 0.9 -0.8
v 1.3 1.2 -0.8
v 1.4 0 -0.8
v 1.4 1.2 -0.8
v -1.7 0 -1.1
v -1.7 0.1 -1.1
v 0.5 0.1 -1.1
v 0.5 0.2 -1.1
v 0.6 0 -1.1
v 0.6 0.1 -1.1
v 0.6 0.2 -1.1
v 0.6 1.2 -1.1
v 0.6 1.4 -1.1
v 0.6 1.5 -1.1
v 0.7 0.1 -1.1
v 0.7 1.2 -1.1
v 0.7 1.4 -1.1
v 0.7 1.5 -1.1
v -1.6 0 0.2
v -1.6 1.2 0.2
v -1.5 0.9 0.2
v -1.5 1.2 0.2
v -1.4 0 0.2
v -1.4 0.9 0.2
v 0.3 1.5 0.2
v 0.3 1.7 0.2
v 0.3 1.8 0.2
v 0.3 1.9 0.2
v 0.4 1.5 0.2
v 0.4 1.6 0.2
v 0.5 1.5 0.2
v 0.5 1.6 0.2
v 0.7 1.5 0.2
v 0.7 1.6 0.2
v 0.8 1.5 0.2
v 0.8 1.6 0.2
v 0.9 1.5 0.2
v 0.9 1.6 0.2
v 1 1.5 0.2
v 1 1.6 0.2
v 1.1 1.5 0.2
v 1.1 1.7 0.2
v 1.1 1.8 0.2
v 1.1 1.9 0.2
v 1.2 0 0.2
v 1.2 0.9 0.2
v 1.3 0.9 0.2
v 1.3 1.2 0.2
v 1.4 0 0.2
v 1.4 1.2 0.2
v 0.4 2.8 -0.3
v 0.4 2.9 -0.3
v 0.5 2.7 -0.3
v 0.5 2.8 -0.3
v 0.5 2.9 -0.3
v 0.6 1.6 -0.3
v 0.6 1.7 -0.3
v 0.6 1.8 -0.3
v 0.6 2.1 -0.3
v 0.6 2.6 -0.3
v 0.6 2.7 -0.3
v 0.6 2.8 -0.3
v 0.8 1.6 -0.3
v 0.8 1.7 -0.3
v 0.8 1.8 -0.3
v 0.8 2.1 -0.3
v 0.8 2.6 -0.3
v 0.8 2.7 -0.3
v 0.8 2.8 -0.3
v 0.9 2.7 -0.3
v 0.9 2.8 -0.3
v 0.9 2.9 -0.3
v 1 2.8 -0.3
v 1 2.9 -0.3
v 0.5 1.5 -0.4
v 0.5 1.6 -0.4
v 0.5 2.8 -0.4
v 0.5 2.9 -0.4
v 0.5 3 -0.4
v 0.5 3.4 -0.4
v 0.6 2.7 -0.4
v 0.6 2.8 -0.4
v 0.6 3.4 -0.4
v 0.8 2.7 -0.4
v 0.8 2.8 -0.4
v 0.8 3.4 -0.4
v 0.9 1.5 -0.4
v 0.9 1.6 -0.4
v 0.9 2.8 -0.4
v 0.9 2.9 -0.4
v 0.9 3 -0.4
v 0.9 3.4 -0.4
v 0.6 2.8 -0.5
v 0.6 3.4 -0.5
v 0.8 2.8 -0.5
v 0.8 3.4 -0.5
v -1.8 0.8 -0.6
v -1.8 1.5 -0.6
v -1.7 0.8 -0.6
v -1.7 1.2 -0.6
v -1.7 1.4 -0.6
v -1.3 1.4 -0.6
v -1.3 1.5 -0.6
v -1.8 0.4 -0.7
v -1.8 0.8 -0.7
v -1.7 0.4 -0.7
v -1.7 0.8 -0.7
v 0.2 1.4 -0.7
v 0.2 1.7 -0.7
v 0.3 1.4 -0.7
v 0.3 1.7 -0.7
v 1.1 1.4 -0.7
v 1.1 1.7 -0.7
v 1.2 1.4 -0.7
v 1.2 1.7 -0.7
v -1.8 0.1 -0.8
v -1.8 0.4 -0.8
v -1.7 0.1 -0.8
v -1.7 0.4 -0.8
v 0.2 1.8 -0.8
v 0.2 1.9 -0.8
v 0.3 1.8 -0.8
v 0.3 1.9 -0.8
v 1.1 1.8 -0.8
v 1.1 1.9 -0.8
v 1.2 1.8 -0.8
v 1.2 1.9 -0.8
v -1.3 1.4 -0.9
v -1.3 2.3 -0.9
v -0.3 1.4 -0.9
v -0.3 2.3 -0.9
v 0.3 1.4 -0.9
v 0.3 3.4 -0.9
v 0.4 1.4 -0.9
v 0.4 3.4 -0.9
v 0.4 3.5 -0.9
v 1 1.4 -0.9
v 1 3.4 -0.9
v 1 3.5 -0.9
v 1.1 1.4 -0.9
v 1.1 3.4 -0.9
v -1.6 0 -1
v -1.6 1.2 -1
v -1.4 0 -1
v -1.4 1.2 -1
v 0.4 1.4 -1
v 0.4 3.4 -1
v 0.6 1.5 -1
v 0.6 1.6 -1
v 0.7 1.5 -1
v 0.7 1.6 -1
v 1 1.4 -1
v 1 3.4 -1
v 1.2 0 -1
v 1.2 1.2 -1
v 1.4 0 -1
v 1.4 1.2 -1
v -1.7 1.2 -1.1
v -1.7 1.4 -1.1
v 0.6 1.2 -1.1
v 0.6 1.4 -1.1
v 0.7 1.2 -1.1
v 0.7 1.4 -1.1
v 1.5 1.2 -1.1
v 1.5 1.4 -1.1
v -1.8 0 -1.2
v -1.8 0.1 -1.2
v 0.5 0.1 -1.2
v 0.5 0.2 -1.2
v 0.6 0 -1.2
v 0.6 0.1 -1.2
v 0.6 0.2 -1.2
v 0.6 1.6 -1.2
v 0.7 0.1 -1.2
v 0.7 1.6 -1.2
v -1.6 0 0.4
v -1.4 0 0.4
v 1.2 0 0.4
v 1.4 0 0.4
v -1.6 0 0.2
v -1.4 0 0.2
v 1.2 0 0.2
v 1.4 0 0.2
v -1.8 0 -0.8
v -1.7 0 -0.8
v -1.6 0 -0.8
v -1.4 0 -0.8
v 1.2 0 -0.8
v 1.4 0 -0.8
v -1.6 0 -1
v -1.4 0 -1
v 1.2 0 -1
v 1.4 0 -1
v -1.7 0 -1.1
v 0.6 0 -1.1
v -1.8 0 -1.2
v 0.6 0 -1.2
v -1.8 0.1 -0.7
v -1.7 0.1 -0.7
v -1.8 0.1 -0.8
v -1.7 0.1 -0.8
v 0.6 0.1 -1.1
v 0.7 0.1 -1.1
v 0.6 0.1 -1.2
v 0.7 0.1 -1.2
v -1.8 0.3 -0.6
v -1.7 0.3 -0.6
v -1.8 0.3 -0.7
v -1.7 0.3 -0.7
v -1.8 0.7 -0.5
v -1.7 0.7 -0.5
v -1.8 0.7 -0.6
v -1.7 0.7 -0.6
v -1.5 0.9 0.2
v -1.4 0.9 0.2
v 1.2 0.9 0.2
v 1.3 0.9 0.2
v -1.5 0.9 -0.8
v -1.4 0.9 -0.8
v 1.2 0.9 -0.8
v 1.3 0.9 -0.8
v -1.7 1.2 0.5
v 1.5 1.2 0.5
v -1.6 1.2 0.4
v -1.4 1.2 0.4
v 1.2 1.2 0.4
v 1.4 1.2 0.4
v -1.6 1.2 0.2
v -1.5 1.2 0.2
v 1.3 1.2 0.2
v 1.4 1.2 0.2
v -1.7 1.2 -0.5
v -1.7 1.2 -0.6
v -1.6 1.2 -0.8
v -1.5 1.2 -0.8
v 1.3 1.2 -0.8
v 1.4 1.2 -0.8
v -1.6 1.2 -1
v -1.4 1.2 -1
v 1.2 1.2 -1
v 1.4 1.2 -1
v -1.7 1.2 -1.1
v 0.6 1.2 -1.1
v 0.7 1.2 -1.1
v 1.5 1.2 -1.1
v 0.6 1.5 -1
v 0.7 1.5 -1
v 0.6 1.5 -1.1
v 0.7 1.5 -1.1
v 0.3 1.8 0.3
v 1.1 1.8 0.3
v 0.2 1.8 0.2
v 0.3 1.8 0.2
v 1.1 1.8 0.2
v 1.2 1.8 0.2
v 0.3 1.8 -0.7
v 1.1 1.8 -0.7
v 0.2 1.8 -0.8
v 0.3 1.8 -0.8
v 1.1 1.8 -0.8
v 1.2 1.8 -0.8
v 0.6 2.6 -0.1
v 0.8 2.6 -0.1
v 0.6 2.6 -0.3
v 0.8 2.6 -0.3
v 0.6 2.7 0
v 0.8 2.7 0
v 0.5 2.7 -0.1
v 0.6 2.7 -0.1
v 0.8 2.7 -0.1
v 0.9 2.7 -0.1
v 0.5 2.7 -0.3
v 0.6 2.7 -0.3
v 0.8 2.7 -0.3
v 0.9 2.7 -0.3
v 0.6 2.7 -0.4
v 0.8 2.7 -0.4
v 0.6 2.8 0.1
v 0.8 2.8 0.1
v 0.5 2.8 0
v 0.6 2.8 0
v 0.8 2.8 0
v 0.9 2.8 0
v 0.4 2.8 -0.1
v 0.5 2.8 -0.1
v 0.6 2.8 -0.1
v 0.8 2.8 -0.1
v 0.9 2.8 -0.1
v 1 2.8 -0.1
v 0.4 2.8 -0.2
v 0.5 2.8 -0.2
v 0.9 2.8 -0.2
v 1 2.8 -0.2
v 0.4 2.8 -0.3
v 0.5 2.8 -0.3
v 0.6 2.8 -0.3
v 0.8 2.8 -0.3
v 0.9 2.8 -0.3
v 1 2.8 -0.3
v 0.5 2.8 -0.4
v 0.6 2.8 -0.4
v 0.8 2.8 -0.4
v 0.9 2.8 -0.4
v 0.6 2.8 -0.5
v 0.8 2.8 -0.5
v 0.4 2.9 -0.3
v 0.5 2.9 -0.3
v 0.9 2.9 -0.3
v 1 2.9 -0.3
v 0.5 2.9 -0.4
v 0.9 2.9 -0.4
v 0.4 2.9 -0.7
v 0.5 2.9 -0.7
v 0.9 2.9 -0.7
v 1 2.9 -0.7
v 0.3 3.3 0.2
v 0.4 3.3 0.2
v 1 3.3 0.2
v 1.1 3.3 0.2
v 0.3 3.3 -0.7
v 0.4 3.3 -0.7
v 1 3.3 -0.7
v 1.1 3.3 -0.7
v 0.4 3.4 0.2
v 1 3.4 0.2
v 0.6 3.4 0.1
v 0.8 3.4 0.1
v 0.5 3.4 0
v 0.6 3.4 0
v 0.8 3.4 0
v 0.9 3.4 0
v 0.5 3.4 -0.1
v 0.9 3.4 -0.1
v 0.5 3.4 -0.3
v 0.9 3.4 -0.3
v 0.5 3.4 -0.4
v 0.6 3.4 -0.4
v 0.8 3.4 -0.4
v 0.9 3.4 -0.4
v 0.6 3.4 -0.5
v 0.8 3.4 -0.5
v 0.4 3.4 -0.7
v 1 3.4 -0.7
v -1.8 0.1 -0.8
v -1.7 0.1 -0.8
v -1.7 0.1 -1.1
v 0.5 0.1 -1.1
v -1.8 0.1 -1.2
v 0.5 0.1 -1.2
v 0.5 0.2 -1.1
v 0.6 0.2 -1.1
v 0.5 0.2 -1.2
v 0.6 0.2 -1.2
v -1.8 0.4 -0.7
v -1.7 0.4 -0.7
v -1.8 0.4 -0.8
v -1.7 0.4 -0.8
v -1.8 0.8 -0.6
v -1.7 0.8 -0.6
v -1.8 0.8 -0.7
v -1.7 0.8 -0.7
v -1.7 1.4 0.5
v 1.5 1.4 0.5
v 0.3 1.4 0.3
v 1.1 1.4 0.3
v 0.2 1.4 0.2
v 0.3 1.4 0.2
v 1.1 1.4 0.2
v 1.2 1.4 0.2
v -1.3 1.4 0.1
v -0.3 1.4 0.1
v -1.7 1.4 -0.5
v -1.3 1.4 -0.5
v -1.7 1.4 -0.6
v -1.3 1.4 -0.6
v 0.2 1.4 -0.7
v 0.3 1.4 -0.7
v 1.1 1.4 -0.7
v 1.2 1.4 -0.7
v -1.3 1.4 -0.9
v -0.3 1.4 -0.9
v 0.3 1.4 -0.9
v 0.4 1.4 -0.9
v 1 1.4 -0.9
v 1.1 1.4 -0.9
v 0.4 1.4 -1
v 1 1.4 -1
v -1.7 1.4 -1.1
v 0.6 1.4 -1.1
v 0.7 1.4 -1.1
v 1.5 1.4 -1.1
v 0.3 1.5 0.2
v 0.4 1.5 0.2
v 0.5 1.5 0.2
v 0.7 1.5 0.2
v 0.8 1.5 0.2
v 0.9 1.5 0.2
v 1 1.5 0.2
v 1.1 1.5 0.2
v -1.3 1.5 0.1
v -0.3 1.5 0.1
v 0.3 1.5 0.1
v 1.1 1.5 0.1
v -0.9 1.5 0
v -0.7 1.5 0
v 0.5 1.5 0
v 0.9 1.5 0
v -1.2 1.5 -0.1
v -1.1 1.5 -0.1
v -1 1.5 -0.1
v -0.9 1.5 -0.1
v -0.7 1.5 -0.1
v -0.6 1.5 -0.1
v -0.5 1.5 -0.1
v -0.4 1.5 -0.1
v -1.2 1.5 -0.2
v -1.1 1.5 -0.2
v -1 1.5 -0.2
v -0.6 1.5 -0.2
v -0.5 1.5 -0.2
v -0.4 1.5 -0.2
v -1.2 1.5 -0.3
v -1.1 1.5 -0.3
v -1 1.5 -0.3
v -0.9 1.5 -0.3
v -0.7 1.5 -0.3
v -0.6 1.5 -0.3
v -0.5 1.5 -0.3
v -0.4 1.5 -0.3
v -1.2 1.5 -0.4
v -1.1 1.5 -0.4
v -1 1.5 -0.4
v -0.9 1.5 -0.4
v -0.7 1.5 -0.4
v -0.6 1.5 -0.4
v -0.5 1.5 -0.4
v -0.4 1.5 -0.4
v 0.5 1.5 -0.4
v 0.9 1.5 -0.4
v -1.8 1.5 -0.5
v -1.3 1.5 -0.5
v -1.2 1.5 -0.5
v -1.1 1.5 -0.5
v -1 1.5 -0.5
v -0.9 1.5 -0.5
v -0.7 1.5 -0.5
v -0.6 1.5 -0.5
v -0.5 1.5 -0.5
v -0.4 1.5 -0.5
v -1.8 1.5 -0.6
v -1.3 1.5 -0.6
v -1.2 1.5 -0.6
v -1.1 1.5 -0.6
v -1 1.5 -0.6
v -0.9 1.5 -0.6
v -0.7 1.5 -0.6
v -0.6 1.5 -0.6
v -0.5 1.5 -0.6
v -0.4 1.5 -0.6
v 0.3 1.5 -0.6
v 1.1 1.5 -0.6
v -1.3 1.5 -0.7
v -0.3 1.5 -0.7
v 0.3 1.5 -0.7
v 1.1 1.5 -0.7
v 0.5 1.6 0
v 0.9 1.6 0
v 0.6 1.6 -0.1
v 0.8 1.6 -0.1
v 0.6 1.6 -0.3
v 0.8 1.6 -0.3
v 0.5 1.6 -0.4
v 0.9 1.6 -0.4
v 0.6 1.6 -1
v 0.7 1.6 -1
v 0.6 1.6 -1.2
v 0.7 1.6 -1.2
v 0.3 1.7 0.3
v 1.1 1.7 0.3
v 0.2 1.7 0.2
v 0.3 1.7 0.2
v 1.1 1.7 0.2
v 1.2 1.7 0.2
v 0.2 1.7 -0.7
v 0.3 1.7 -0.7
v 1.1 1.7 -0.7
v 1.2 1.7 -0.7
v 0.3 1.9 0.3
v 1.1 1.9 0.3
v 0.2 1.9 0.2
v 0.3 1.9 0.2
v 1.1 1.9 0.2
v 1.2 1.9 0.2
v 0.3 1.9 -0.7
v 1.1 1.9 -0.7
v 0.2 1.9 -0.8
v 0.3 1.9 -0.8
v 1.1 1.9 -0.8
v 1.2 1.9 -0.8
v 0.6 2.1 -0.1
v 0.8 2.1 -0.1
v 0.6 2.1 -0.3
v 0.8 2.1 -0.3
v -1.3 2.3 -0.7
v -0.3 2.3 -0.7
v -1.3 2.3 -0.9
v -0.3 2.3 -0.9
v 0.4 3 -0.1
v 0.5 3 -0.1
v 0.9 3 -0.1
v 1 3 -0.1
v 0.4 3 -0.2
v 0.5 3 -0.2
v 0.9 3 -0.2
v 1 3 -0.2
v 0.5 3 -0.3
v 0.9 3 -0.3
v 0.5 3 -0.4
v 0.9 3 -0.4
v 0.4 3 -0.7
v 0.5 3 -0.7
v 0.9 3 -0.7
v 1 3 -0.7
v 0.3 3.4 0.2
v 0.4 3.4 0.2
v 1 3.4 0.2
v 1.1 3.4 0.2
v 0.3 3.4 -0.9
v 0.4 3.4 -0.9
v 1 3.4 -0.9
v 1.1 3.4 -0.9
v 0.4 3.4 -1
v 1 3.4 -1
v 0.4 3.5 0.2
v 1 3.5 0.2
v 0.4 3.5 -0.9
v 1 3.5 -0.9

# faces
f 4/11/1 2/11/1 1/11/1
f 5/11/1 2/11/1 4/11/1
f 7/11/1 4/11/1 3/11/1
f 8/11/1 4/11/1 7/11/1
f 8/11/1 7/11/1 6/11/1
f 9/11/1 4/11/1 8/11/1
f 11/11/1 8/11/1 6/11/1
f 12/11/1 8/11/1 11/11/1
f 12/11/1 11/11/1 10/11/1
f 13/11/1 8/11/1 12/11/1
f 14/11/1 12/11/1 10/11/1
f 15/11/1 12/11/1 14/11/1
f 20/5/1 17/5/1 16/5/1
f 21/5/1 17/5/1 20/5/1
f 22/5/1 19/5/1 18/5/1
f 23/5/1 19/5/1 22/5/1
f 28/5/1 25/5/1 24/5/1
f 29/5/1 25/5/1 28/5/1
f 30/5/1 27/5/1 26/5/1
f 31/5/1 27/5/1 30/5/1
f 34/5/1 33/5/1 32/5/1
f 35/5/1 33/5/1 34/5/1
f 40/10/1 37/10/1 36/10/1
f 41/10/1 37/10/1 40/10/1
f 42/10/1 39/10/1 38/10/1
f 43/10/1 39/10/1 42/10/1
f 44/10/1 39/10/1 43/10/1
f 45/10/1 39/10/1 44/10/1
f 48/10/1 47/10/1 46/10/1
f 49/10/1 47/10/1 48/10/1
f 50/10/1 48/10/1 46/10/1
f 50/4/1 49/4/1 48/4/1
f 51/10/1 47/10/1 49/10/1
f 51/4/1 49/4/1 50/4/1
f 52/10/1 50/10/1 46/10/1
f 52/10/1 51/10/1 50/10/1
f 53/10/1 47/10/1 51/10/1
f 53/10/1 51/10/1 52/10/1
f 56/10/1 55/10/1 54/10/1
f 57/10/1 55/10/1 56/10/1
f 62/10/1 59/10/1 58/10/1
f 63/10/1 59/10/1 62/10/1
f 64/10/1 61/10/1 60/10/1
f 67/10/1 61/10/1 64/10/1
f 68/10/1 61/10/1 67/10/1
f 69/10/1 66/10/1 65/10/1
f 70/10/1 66/10/1 69/10/1
f 72/10/1 61/10/1 68/10/1
f 74/10/1 72/10/1 71/10/1
f 75/10/1 74/10/1 73/10/1
f 76/10/1 61/10/1 72/10/1
f 76/10/1 74/10/1 75/10/1
f 76/10/1 72/10/1 74/10/1
f 82/6/1 80/6/1 79/6/1
f 83/8/1 81/8/1 80/8/1
f 83/6/1 80/6/1 82/6/1
f 84/8/1 81/8/1 83/8/1
f 86/8/1 83/8/1 82/8/1
f 87/6/1 85/6/1 84/6/1
f 87/8/1 83/8/1 86/8/1
f 87/6/1 84/6/1 83/6/1
f 88/6/1 85/6/1 87/6/1
f 90/10/1 78/10/1 77/10/1
f 91/10/1 78/10/1 90/10/1
f 92/10/1 90/10/1 89/10/1
f 93/10/1 90/10/1 92/10/1
f 96/11/1 95/11/1 94/11/1
f 97/11/1 95/11/1 96/11/1
f 100/10/1 99/10/1 98/10/1
f 101/10/1 99/10/1 100/10/1
f 105/7/1 103/7/1 102/7/1
f 106/7/1 103/7/1 105/7/1
f 107/7/1 103/7/1 106/7/1
f 109/6/1 105/6/1 104/6/1
f 110/6/1 108/6/1 107/6/1
f 111/6/1 108/6/1 110/6/1
f 112/6/1 109/6/1 104/6/1
f 116/6/1 112/6/1 104/6/1
f 117/5/1 113/5/1 112/5/1
f 117/6/1 112/6/1 116/6/1
f 117/5/1 114/5/1 113/5/1
f 118/6/1 115/6/1 114/6/1
f 118/5/1 114/5/1 117/5/1
f 119/6/1 115/6/1 118/6/1
f 122/11/1 121/11/1 120/11/1
f 123/11/1 121/11/1 122/11/1
f 125/11/1 121/11/1 123/11/1
f 128/11/1 125/11/1 124/11/1
f 129/11/1 121/11/1 125/11/1
f 129/11/1 125/11/1 128/11/1
f 130/10/1 127/10/1 126/10/1
f 131/10/1 127/10/1 130/10/1
f 132/4/1 131/4/1 130/4/1
f 133/4/1 131/4/1 132/4/1
f 134/10/1 133/10/1 132/10/1
f 135/10/1 133/10/1 134/10/1
f 139/2/1 137/2/1 136/2/1
f 140/2/1 137/2/1 139/2/1
f 143/7/1 139/7/1 138/7/1
f 144/7/1 139/7/1 143/7/1
f 145/7/1 141/7/1 140/7/1
f 146/7/1 141/7/1 145/7/1
f 148/6/1 143/6/1 142/6/1
f 149/6/1 143/6/1 148/6/1
f 150/4/1 149/4/1 148/4/1
f 151/4/1 149/4/1 150/4/1
f 152/6/1 151/6/1 150/6/1
f 153/6/1 151/6/1 152/6/1
f 154/4/1 153/4/1 152/4/1
f 155/4/1 153/4/1 154/4/1
f 156/6/1 155/6/1 154/6/1
f 157/6/1 155/6/1 156/6/1
f 158/4/1 157/4/1 156/4/1
f 159/4/1 157/4/1 158/4/1
f 160/6/1 147/6/1 146/6/1
f 161/6/1 147/6/1 160/6/1
f 164/6/1 163/6/1 162/6/1
f 165/6/1 163/6/1 164/6/1
f 168/10/1 167/10/1 166/10/1
f 169/10/1 167/10/1 168/10/1
f 174/10/1 171/10/1 170/10/1
f 174/4/1 172/4/1 171/4/1
f 175/10/1 173/10/1 172/10/1
f 175/4/1 172/4/1 174/4/1
f 176/10/1 174/10/1 170/10/1
f 176/10/1 175/10/1 174/10/1
f 177/10/1 173/10/1 175/10/1
f 177/10/1 175/10/1 176/10/1
f 180/10/1 179/10/1 178/10/1
f 181/10/1 179/10/1 180/10/1
f 186/5/1 183/5/1 182/5/1
f 187/5/1 185/5/1 184/5/1
f 188/5/1 186/5/1 182/5/1
f 188/5/1 187/5/1 186/5/1
f 189/5/1 185/5/1 187/5/1
f 189/5/1 187/5/1 188/5/1
f 190/11/2 191/11/2 193/11/2
f 193/11/2 191/11/2 194/11/2
f 192/11/2 193/11/2 196/11/2
f 196/11/2 193/11/2 197/11/2
f 195/11/2 196/11/2 197/11/2
f 197/11/2 193/11/2 198/11/2
f 195/11/2 197/11/2 200/11/2
f 200/11/2 197/11/2 201/11/2
f 199/11/2 200/11/2 201/11/2
f 201/11/2 197/11/2 202/11/2
f 199/11/2 201/11/2 203/11/2
f 203/11/2 201/11/2 204/11/2
f 205/5/2 206/5/2 209/5/2
f 207/5/2 208/5/2 210/5/2
f 205/5/2 209/5/2 211/5/2
f 209/5/2 210/5/2 211/5/2
f 210/5/2 208/5/2 212/5/2
f 211/5/2 210/5/2 212/5/2
f 213/10/2 214/10/2 215/10/2
f 215/10/2 214/10/2 216/10/2
f 216/10/2 214/10/2 217/10/2
f 217/10/2 214/10/2 218/10/2
f 219/10/2 220/10/2 223/10/2
f 220/4/2 221/4/2 223/4/2
f 221/10/2 222/10/2 224/10/2
f 223/4/2 221/4/2 224/4/2
f 219/10/2 223/10/2 225/10/2
f 223/10/2 224/10/2 225/10/2
f 224/10/2 222/10/2 226/10/2
f 225/10/2 224/10/2 226/10/2
f 227/10/2 228/10/2 229/10/2
f 229/10/2 228/10/2 230/10/2
f 231/10/2 232/10/2 233/10/2
f 233/10/2 232/10/2 234/10/2
f 235/6/2 236/6/2 237/6/2
f 237/6/2 236/6/2 238/6/2
f 239/11/2 240/11/2 241/11/2
f 241/11/2 240/11/2 242/11/2
f 243/11/2 244/11/2 245/11/2
f 245/11/2 244/11/2 246/11/2
f 246/11/2 244/11/2 248/11/2
f 247/11/2 248/11/2 249/11/2
f 248/11/2 244/11/2 250/11/2
f 249/11/2 248/11/2 250/11/2
f 251/10/2 252/10/2 253/10/2
f 253/10/2 252/10/2 254/10/2
f 253/4/2 254/4/2 255/4/2
f 255/4/2 254/4/2 256/4/2
f 255/10/2 256/10/2 257/10/2
f 257/10/2 256/10/2 258/10/2
f 259/2/2 260/2/2 262/2/2
f 262/2/2 260/2/2 263/2/2
f 261/7/2 262/7/2 266/7/2
f 266/7/2 262/7/2 267/7/2
f 263/7/2 264/7/2 268/7/2
f 268/7/2 264/7/2 269/7/2
f 265/6/2 266/6/2 271/6/2
f 271/6/2 266/6/2 272/6/2
f 271/4/2 272/4/2 273/4/2
f 273/4/2 272/4/2 274/4/2
f 273/6/2 274/6/2 275/6/2
f 275/6/2 274/6/2 276/6/2
f 275/4/2 276/4/2 277/4/2
f 277/4/2 276/4/2 278/4/2
f 277/6/2 278/6/2 279/6/2
f 279/6/2 278/6/2 280/6/2
f 279/4/2 280/4/2 281/4/2
f 281/4/2 280/4/2 282/4/2
f 269/6/2 270/6/2 283/6/2
f 283/6/2 270/6/2 284/6/2
f 285/10/2 286/10/2 287/10/2
f 287/10/2 286/10/2 288/10/2
f 289/7/2 290/7/2 292/7/2
f 292/7/2 290/7/2 293/7/2
f 293/7/2 290/7/2 294/7/2
f 291/6/2 292/6/2 296/6/2
f 294/6/2 295/6/2 297/6/2
f 297/6/2 295/6/2 298/6/2
f 291/6/2 296/6/2 299/6/2
f 291/6/2 299/6/2 303/6/2
f 299/5/2 300/5/2 304/5/2
f 303/6/2 299/6/2 304/6/2
f 300/5/2 301/5/2 304/5/2
f 301/6/2 302/6/2 305/6/2
f 304/5/2 301/5/2 305/5/2
f 305/6/2 302/6/2 306/6/2
f 309/6/2 310/6/2 312/6/2
f 310/8/2 311/8/2 313/8/2
f 312/6/2 310/6/2 313/6/2
f 313/8/2 311/8/2 314/8/2
f 312/8/2 313/8/2 316/8/2
f 314/6/2 315/6/2 317/6/2
f 316/8/2 313/8/2 317/8/2
f 313/6/2 314/6/2 317/6/2
f 317/6/2 315/6/2 318/6/2
f 307/10/2 308/10/2 320/10/2
f 320/10/2 308/10/2 321/10/2
f 319/10/2 320/10/2 322/10/2
f 322/10/2 320/10/2 323/10/2
f 324/10/2 325/10/2 328/10/2
f 328/10/2 325/10/2 329/10/2
f 326/10/2 327/10/2 330/10/2
f 330/10/2 327/10/2 333/10/2
f 333/10/2 327/10/2 334/10/2
f 331/10/2 332/10/2 335/10/2
f 335/10/2 332/10/2 336/10/2
f 334/10/2 327/10/2 338/10/2
f 337/10/2 338/10/2 340/10/2
f 339/10/2 340/10/2 341/10/2
f 338/10/2 327/10/2 342/10/2
f 341/10/2 340/10/2 342/10/2
f 340/10/2 338/10/2 342/10/2
f 343/10/2 344/10/2 345/10/2
f 345/10/2 344/10/2 346/10/2
f 343/10/2 345/10/2 347/10/2
f 345/4/2 346/4/2 347/4/2
f 346/10/2 344/10/2 348/10/2
f 347/4/2 346/4/2 348/4/2
f 343/10/2 347/10/2 349/10/2
f 347/10/2 348/10/2 349/10/2
f 348/10/2 344/10/2 350/10/2
f 349/10/2 348/10/2 350/10/2
f 351/10/2 352/10/2 353/10/2
f 353/10/2 352/10/2 354/10/2
f 355/5/2 356/5/2 357/5/2
f 357/5/2 356/5/2 358/5/2
f 359/5/2 360/5/2 363/5/2
f 363/5/2 360/5/2 364/5/2
f 361/5/2 362/5/2 365/5/2
f 365/5/2 362/5/2 366/5/2
f 367/5/2 368/5/2 369/5/2
f 369/5/2 368/5/2 370/5/2
f 373/5/3 372/5/3 371/5/3
f 374/5/3 372/5/3 373/5/3
f 377/5/3 376/5/3 375/5/3
f 378/5/3 376/5/3 377/5/3
f 381/5/3 380/5/3 379/5/3
f 382/5/3 380/5/3 381/5/3
f 387/10/3 384/10/3 383/10/3
f 388/10/3 384/10/3 387/10/3
f 389/10/3 387/10/3 383/10/3
f 389/4/3 388/4/3 387/4/3
f 390/10/3 384/10/3 388/10/3
f 390/4/3 388/4/3 389/4/3
f 391/10/3 389/10/3 383/10/3
f 391/1/3 390/1/3 389/1/3
f 392/10/3 384/10/3 390/10/3
f 392/1/3 390/1/3 391/1/3
f 393/10/3 391/10/3 383/10/3
f 393/4/3 392/4/3 391/4/3
f 394/10/3 384/10/3 392/10/3
f 394/4/3 392/4/3 393/4/3
f 395/10/3 393/10/3 383/10/3
f 395/1/3 394/1/3 393/1/3
f 396/10/3 384/10/3 394/10/3
f 396/1/3 394/1/3 395/1/3
f 397/10/3 395/10/3 383/10/3
f 397/4/3 396/4/3 395/4/3
f 398/10/3 384/10/3 396/10/3
f 398/4/3 396/4/3 397/4/3
f 399/10/3 397/10/3 383/10/3
f 399/10/3 398/10/3 397/10/3
f 400/10/3 384/10/3 398/10/3
f 400/10/3 398/10/3 399/10/3
f 401/10/3 386/10/3 385/10/3
f 402/10/3 386/10/3 401/10/3
f 407/10/3 404/10/3 403/10/3
f 408/10/3 404/10/3 407/10/3
f 409/10/3 406/10/3 405/10/3
f 410/10/3 406/10/3 409/10/3
f 413/10/3 412/10/3 411/10/3
f 414/10/3 412/10/3 413/10/3
f 417/10/3 415/10/3 414/10/3
f 418/10/3 415/10/3 417/10/3
f 423/10/3 417/10/3 416/10/3
f 424/10/3 417/10/3 423/10/3
f 425/10/3 420/10/3 419/10/3
f 426/10/3 420/10/3 425/10/3
f 427/10/3 422/10/3 421/10/3
f 428/10/3 422/10/3 427/10/3
f 431/10/3 430/10/3 429/10/3
f 432/10/3 430/10/3 431/10/3
f 440/6/3 434/6/3 433/6/3
f 441/4/3 435/4/3 434/4/3
f 441/6/3 434/6/3 440/6/3
f 442/6/3 436/6/3 435/6/3
f 442/4/3 435/4/3 441/4/3
f 443/4/3 437/4/3 436/4/3
f 443/6/3 436/6/3 442/6/3
f 444/6/3 438/6/3 437/6/3
f 444/4/3 437/4/3 443/4/3
f 445/4/3 439/4/3 438/4/3
f 445/6/3 438/6/3 444/6/3
f 446/4/3 439/4/3 445/4/3
f 452/6/3 450/6/3 449/6/3
f 453/6/3 450/6/3 452/6/3
f 454/6/3 450/6/3 453/6/3
f 455/6/3 450/6/3 454/6/3
f 456/6/3 450/6/3 455/6/3
f 457/6/3 450/6/3 456/6/3
f 458/6/3 450/6/3 457/6/3
f 459/7/3 452/7/3 451/7/3
f 460/7/3 452/7/3 459/7/3
f 467/10/3 448/10/3 447/10/3
f 468/10/3 448/10/3 467/10/3
f 469/6/3 466/6/3 465/6/3
f 469/6/3 465/6/3 464/6/3
f 469/6/3 461/6/3 460/6/3
f 469/6/3 464/6/3 463/6/3
f 469/6/3 463/6/3 462/6/3
f 469/6/3 462/6/3 461/6/3
f 470/6/3 466/6/3 469/6/3
f 475/6/3 472/6/3 471/6/3
f 476/8/3 473/8/3 472/8/3
f 476/6/3 472/6/3 475/6/3
f 477/8/3 473/8/3 476/8/3
f 483/7/3 475/7/3 474/7/3
f 484/7/3 475/7/3 483/7/3
f 485/10/3 479/10/3 478/10/3
f 486/4/3 480/4/3 479/4/3
f 486/10/3 479/10/3 485/10/3
f 487/10/3 481/10/3 480/10/3
f 487/4/3 480/4/3 486/4/3
f 488/10/3 481/10/3 487/10/3
f 489/2/3 483/2/3 482/2/3
f 490/2/3 483/2/3 489/2/3
f 492/7/3 491/7/3 490/7/3
f 493/7/3 491/7/3 492/7/3
f 496/6/3 494/6/3 493/6/3
f 497/8/3 495/8/3 494/8/3
f 497/6/3 494/6/3 496/6/3
f 498/8/3 495/8/3 497/8/3
f 501/11/3 500/11/3 499/11/3
f 502/11/3 500/11/3 501/11/3
f 503/11/3 500/11/3 502/11/3
f 504/11/3 500/11/3 503/11/3
f 505/11/3 500/11/3 504/11/3
f 508/11/3 507/11/3 506/11/3
f 509/11/3 507/11/3 508/11/3
f 512/11/3 511/11/3 510/11/3
f 513/11/3 511/11/3 512/11/3
f 516/10/3 515/10/3 514/10/3
f 517/10/3 515/10/3 516/10/3
f 518/10/3 516/10/3 514/10/3
f 518/3/3 517/3/3 516/3/3
f 519/3/3 517/3/3 518/3/3
f 520/3/3 517/3/3 519/3/3
f 521/3/3 517/3/3 520/3/3
f 522/3/3 517/3/3 521/3/3
f 523/3/3 517/3/3 522/3/3
f 524/10/3 518/10/3 514/10/3
f 524/1/3 519/1/3 518/1/3
f 525/3/3 520/3/3 519/3/3
f 525/1/3 519/1/3 524/1/3
f 526/1/3 523/1/3 522/1/3
f 526/3/3 522/3/3 521/3/3
f 527/3/3 517/3/3 523/3/3
f 527/1/3 523/1/3 526/1/3
f 528/3/3 520/3/3 525/3/3
f 528/1/3 521/1/3 520/1/3
f 528/3/3 525/3/3 524/3/3
f 529/3/3 526/3/3 521/3/3
f 529/1/3 521/1/3 528/1/3
f 529/3/3 527/3/3 526/3/3
f 530/3/3 528/3/3 524/3/3
f 530/3/3 529/3/3 528/3/3
f 531/3/3 529/3/3 530/3/3
f 532/3/3 527/3/3 529/3/3
f 532/3/3 529/3/3 531/3/3
f 533/3/3 517/3/3 527/3/3
f 533/3/3 527/3/3 532/3/3
f 534/3/3 532/3/3 531/3/3
f 535/1/3 533/1/3 532/1/3
f 535/3/3 532/3/3 534/3/3
f 536/1/3 531/1/3 530/1/3
f 536/3/3 530/3/3 524/3/3
f 537/3/3 534/3/3 531/3/3
f 537/1/3 531/1/3 536/1/3
f 538/1/3 535/1/3 534/1/3
f 538/3/3 534/3/3 537/3/3
f 539/1/3 533/1/3 535/1/3
f 539/1/3 535/1/3 538/1/3
f 539/3/3 517/3/3 533/3/3
f 540/3/3 538/3/3 537/3/3
f 540/3/3 536/3/3 524/3/3
f 540/3/3 539/3/3 538/3/3
f 540/3/3 537/3/3 536/3/3
f 540/10/3 524/10/3 514/10/3
f 541/10/3 515/10/3 517/10/3
f 541/3/3 539/3/3 540/3/3
f 541/3/3 517/3/3 539/3/3
f 542/10/3 540/10/3 514/10/3
f 542/10/3 541/10/3 540/10/3
f 543/10/3 515/10/3 541/10/3
f 543/10/3 541/10/3 542/10/3
f 549/10/3 547/10/3 546/10/3
f 549/10/3 548/10/3 547/10/3
f 549/10/3 546/10/3 545/10/3
f 549/10/3 545/10/3 544/10/3
f 550/10/3 548/10/3 549/10/3
f 551/10/3 548/10/3 550/10/3
f 553/10/3 549/10/3 544/10/3
f 554/10/3 552/10/3 551/10/3
f 554/10/3 551/10/3 550/10/3
f 555/10/3 553/10/3 544/10/3
f 555/10/3 554/10/3 553/10/3
f 556/10/3 552/10/3 554/10/3
f 556/10/3 554/10/3 555/10/3
f 557/10/3 555/10/3 544/10/3
f 558/10/3 552/10/3 556/10/3
f 559/10/3 552/10/3 558/10/3
f 560/10/3 552/10/3 559/10/3
f 561/10/3 557/10/3 544/10/3
f 561/10/3 558/10/3 557/10/3
f 561/10/3 559/10/3 558/10/3
f 562/10/3 559/10/3 561/10/3
f 563/10/3 559/10/3 562/10/3
f 564/10/3 559/10/3 563/10/3
f 565/10/3 559/10/3 564/10/3
f 568/11/3 567/11/3 566/11/3
f 569/11/3 567/11/3 568/11/3
f 572/5/3 571/5/3 570/5/3
f 573/5/3 571/5/3 572/5/3
f 574/5/3 572/5/3 570/5/3
f 575/5/3 572/5/3 574/5/3
f 578/5/3 577/5/3 576/5/3
f 580/5/3 578/5/3 576/5/3
f 580/5/3 579/5/3 578/5/3
f 581/5/3 579/5/3 580/5/3
f 584/11/3 583/11/3 582/11/3
f 586/11/3 584/11/3 582/11/3
f 586/11/3 585/11/3 584/11/3
f 587/11/3 585/11/3 586/11/3
f 588/11/3 585/11/3 587/11/3
f 592/11/3 588/11/3 587/11/3
f 592/11/3 589/11/3 588/11/3
f 593/11/3 589/11/3 592/11/3
f 594/11/3 591/11/3 590/11/3
f 595/11/3 591/11/3 594/11/3
f 596/5/4 597/5/4 598/5/4
f 598/5/4 597/5/4 599/5/4
f 596/5/4 598/5/4 600/5/4
f 600/5/4 598/5/4 601/5/4
f 602/10/4 603/10/4 606/10/4
f 606/10/4 603/10/4 607/10/4
f 606/4/4 607/4/4 608/4/4
f 607/10/4 603/10/4 609/10/4
f 608/4/4 607/4/4 609/4/4
f 608/1/4 609/1/4 610/1/4
f 609/10/4 603/10/4 611/10/4
f 610/1/4 609/1/4 611/1/4
f 610/4/4 611/4/4 612/4/4
f 611/10/4 603/10/4 613/10/4
f 612/4/4 611/4/4 613/4/4
f 612/1/4 613/1/4 614/1/4
f 613/10/4 603/10/4 615/10/4
f 614/1/4 613/1/4 615/1/4
f 614/4/4 615/4/4 616/4/4
f 615/10/4 603/10/4 617/10/4
f 616/4/4 615/4/4 617/4/4
f 616/10/4 617/10/4 618/10/4
f 617/10/4 603/10/4 619/10/4
f 618/10/4 617/10/4 619/10/4
f 604/10/4 605/10/4 620/10/4
f 620/10/4 605/10/4 621/10/4
f 622/5/4 623/5/4 624/5/4
f 622/5/4 624/5/4 626/5/4
f 624/5/4 625/5/4 626/5/4
f 626/5/4 625/5/4 627/5/4
f 628/8/4 629/8/4 631/8/4
f 631/8/4 629/8/4 632/8/4
f 630/7/4 631/7/4 638/7/4
f 638/7/4 631/7/4 639/7/4
f 633/10/4 634/10/4 640/10/4
f 634/4/4 635/4/4 641/4/4
f 640/10/4 634/10/4 641/10/4
f 635/10/4 636/10/4 642/10/4
f 641/4/4 635/4/4 642/4/4
f 642/10/4 636/10/4 643/10/4
f 637/2/4 638/2/4 644/2/4
f 644/2/4 638/2/4 645/2/4
f 645/7/4 646/7/4 647/7/4
f 647/7/4 646/7/4 648/7/4
f 648/8/4 649/8/4 650/8/4
f 650/8/4 649/8/4 651/8/4
f 654/6/4 655/6/4 659/6/4
f 656/6/4 657/6/4 659/6/4
f 655/6/4 656/6/4 659/6/4
f 659/6/4 657/6/4 660/6/4
f 658/7/4 659/7/4 661/7/4
f 661/7/4 659/7/4 662/7/4
f 652/10/4 653/10/4 664/10/4
f 664/10/4 653/10/4 665/10/4
f 662/6/4 663/6/4 666/6/4
f 666/6/4 663/6/4 667/6/4
f 667/6/4 663/6/4 668/6/4
f 668/6/4 663/6/4 669/6/4
f 670/6/4 671/6/4 672/6/4
f 672/6/4 671/6/4 673/6/4
f 674/11/4 675/11/4 676/11/4
f 676/11/4 675/11/4 677/11/4
f 677/11/4 675/11/4 678/11/4
f 678/11/4 675/11/4 679/11/4
f 679/11/4 675/11/4 680/11/4
f 681/11/4 682/11/4 683/11/4
f 683/11/4 682/11/4 684/11/4
f 685/10/4 686/10/4 687/10/4
f 687/10/4 686/10/4 688/10/4
f 689/10/4 690/10/4 691/10/4
f 691/10/4 690/10/4 692/10/4
f 693/11/4 694/11/4 695/11/4
f 695/11/4 694/11/4 696/11/4
f 697/10/4 698/10/4 699/10/4
f 699/10/4 698/10/4 700/10/4
f 701/10/4 702/10/4 703/10/4
f 703/10/4 702/10/4 704/10/4
f 705/10/4 706/10/4 707/10/4
f 707/10/4 706/10/4 708/10/4
f 709/10/4 710/10/4 711/10/4
f 711/10/4 710/10/4 712/10/4
f 712/10/4 713/10/4 715/10/4
f 715/10/4 713/10/4 716/10/4
f 714/10/4 715/10/4 717/10/4
f 717/10/4 715/10/4 718/10/4
f 719/5/4 720/5/4 721/5/4
f 721/5/4 720/5/4 722/5/4
f 723/10/4 724/10/4 725/10/4
f 725/10/4 724/10/4 726/10/4
f 723/10/4 725/10/4 727/10/4
f 726/10/4 724/10/4 728/10/4
f 723/10/4 727/10/4 729/10/4
f 727/10/4 728/10/4 729/10/4
f 728/10/4 724/10/4 730/10/4
f 729/10/4 728/10/4 730/10/4
f 731/5/4 732/5/4 733/5/4
f 733/5/4 732/5/4 734/5/4
f 735/5/4 736/5/4 737/5/4
f 737/5/4 736/5/4 738/5/4
f 739/5/4 740/5/4 741/5/4
f 741/5/4 740/5/4 742/5/4
f 743/11/4 744/11/4 745/11/4
f 743/11/4 745/11/4 747/11/4
f 745/11/4 746/11/4 747/11/4
f 747/11/4 746/11/4 748/11/4
f 748/11/4 746/11/4 749/11/4
f 749/11/4 750/11/4 751/11/4
f 748/11/4 749/11/4 751/11/4
f 751/11/4 750/11/4 752/11/4
f 757/5/5 754/5/5 753/5/5
f 758/5/5 754/5/5 757/5/5
f 759/5/5 756/5/5 755/5/5
f 760/5/5 756/5/5 759/5/5
f 767/5/5 764/5/5 763/5/5
f 768/5/5 764/5/5 767/5/5
f 769/5/5 766/5/5 765/5/5
f 770/5/5 766/5/5 769/5/5
f 771/11/5 762/11/5 761/11/5
f 773/11/5 771/11/5 761/11/5
f 773/11/5 772/11/5 771/11/5
f 774/11/5 772/11/5 773/11/5
f 777/11/5 776/11/5 775/11/5
f 778/11/5 776/11/5 777/11/5
f 781/11/5 780/11/5 779/11/5
f 782/11/5 780/11/5 781/11/5
f 785/11/5 784/11/5 783/11/5
f 786/11/5 784/11/5 785/11/5
f 789/11/5 788/11/5 787/11/5
f 790/11/5 788/11/5 789/11/5
f 795/5/5 792/5/5 791/5/5
f 796/5/5 792/5/5 795/5/5
f 797/5/5 794/5/5 793/5/5
f 798/5/5 794/5/5 797/5/5
f 801/5/5 800/5/5 799/5/5
f 802/5/5 800/5/5 801/5/5
f 803/5/5 800/5/5 802/5/5
f 804/5/5 800/5/5 803/5/5
f 805/5/5 801/5/5 799/5/5
f 808/5/5 800/5/5 804/5/5
f 809/5/5 806/5/5 805/5/5
f 809/5/5 805/5/5 799/5/5
f 810/5/5 806/5/5 809/5/5
f 811/5/5 806/5/5 810/5/5
f 812/5/5 806/5/5 811/5/5
f 813/5/5 808/5/5 807/5/5
f 814/5/5 800/5/5 808/5/5
f 814/5/5 808/5/5 813/5/5
f 815/5/5 811/5/5 810/5/5
f 816/5/5 803/5/5 802/5/5
f 817/5/5 803/5/5 816/5/5
f 818/5/5 800/5/5 814/5/5
f 819/5/5 817/5/5 816/5/5
f 819/5/5 818/5/5 817/5/5
f 819/5/5 815/5/5 810/5/5
f 819/5/5 816/5/5 815/5/5
f 820/5/5 818/5/5 819/5/5
f 821/5/5 818/5/5 820/5/5
f 822/5/5 800/5/5 818/5/5
f 822/5/5 818/5/5 821/5/5
f 825/11/5 824/11/5 823/11/5
f 826/11/5 824/11/5 825/11/5
f 830/10/5 828/10/5 827/10/5
f 831/10/5 828/10/5 830/10/5
f 833/10/5 830/10/5 829/10/5
f 834/10/5 832/10/5 831/10/5
f 835/10/5 833/10/5 829/10/5
f 836/10/5 833/10/5 835/10/5
f 837/10/5 832/10/5 834/10/5
f 838/10/5 832/10/5 837/10/5
f 841/2/5 840/2/5 839/2/5
f 842/2/5 840/2/5 841/2/5
f 846/7/5 844/7/5 843/7/5
f 847/7/5 844/7/5 846/7/5
f 849/7/5 846/7/5 845/7/5
f 850/7/5 846/7/5 849/7/5
f 851/7/5 848/7/5 847/7/5
f 852/7/5 848/7/5 851/7/5
f 853/7/5 851/7/5 850/7/5
f 854/7/5 851/7/5 853/7/5
f 858/6/5 856/6/5 855/6/5
f 859/6/5 856/6/5 858/6/5
f 862/6/5 858/6/5 857/6/5
f 863/6/5 858/6/5 862/6/5
f 864/6/5 860/6/5 859/6/5
f 865/6/5 860/6/5 864/6/5
f 867/6/5 862/6/5 861/6/5
f 868/6/5 862/6/5 867/6/5
f 869/6/5 866/6/5 865/6/5
f 870/6/5 866/6/5 869/6/5
f 871/8/5 868/8/5 867/8/5
f 872/8/5 868/8/5 871/8/5
f 875/8/5 870/8/5 869/8/5
f 876/8/5 870/8/5 875/8/5
f 877/6/5 873/6/5 872/6/5
f 878/6/5 873/6/5 877/6/5
f 879/6/5 875/6/5 874/6/5
f 880/6/5 875/6/5 879/6/5
f 881/6/5 879/6/5 878/6/5
f 882/6/5 879/6/5 881/6/5
f 887/6/5 884/6/5 883/6/5
f 888/6/5 886/6/5 885/6/5
f 889/6/5 887/6/5 883/6/5
f 890/6/5 887/6/5 889/6/5
f 891/6/5 886/6/5 888/6/5
f 892/6/5 886/6/5 891/6/5
f 897/10/5 894/10/5 893/10/5
f 898/10/5 894/10/5 897/10/5
f 899/10/5 896/10/5 895/10/5
f 900/10/5 896/10/5 899/10/5
f 903/10/5 902/10/5 901/10/5
f 904/10/5 902/10/5 903/10/5
f 905/10/5 903/10/5 901/10/5
f 906/10/5 903/10/5 905/10/5
f 907/10/5 902/10/5 904/10/5
f 908/10/5 902/10/5 907/10/5
f 909/10/5 905/10/5 901/10/5
f 910/10/5 902/10/5 908/10/5
f 911/10/5 909/10/5 901/10/5
f 912/10/5 902/10/5 910/10/5
f 913/10/5 911/10/5 901/10/5
f 916/10/5 902/10/5 912/10/5
f 917/10/5 914/10/5 913/10/5
f 918/10/5 916/10/5 915/10/5
f 919/10/5 917/10/5 913/10/5
f 919/10/5 918/10/5 917/10/5
f 919/10/5 913/10/5 901/10/5
f 920/10/5 916/10/5 918/10/5
f 920/10/5 918/10/5 919/10/5
f 920/10/5 902/10/5 916/10/5
f 921/11/6 922/11/6 923/11/6
f 921/11/6 923/11/6 925/11/6
f 923/11/6 924/11/6 925/11/6
f 925/11/6 924/11/6 926/11/6
f 927/11/6 928/11/6 929/11/6
f 929/11/6 928/11/6 930/11/6
f 931/11/6 932/11/6 933/11/6
f 933/11/6 932/11/6 934/11/6
f 935/11/6 936/11/6 937/11/6
f 937/11/6 936/11/6 938/11/6
f 939/5/6 940/5/6 941/5/6
f 941/5/6 940/5/6 942/5/6
f 939/5/6 941/5/6 943/5/6
f 943/5/6 941/5/6 944/5/6
f 942/5/6 940/5/6 945/5/6
f 945/5/6 940/5/6 946/5/6
f 939/5/6 943/5/6 947/5/6
f 947/5/6 943/5/6 948/5/6
f 939/5/6 947/5/6 949/5/6
f 949/5/6 947/5/6 950/5/6
f 948/5/6 943/5/6 953/5/6
f 946/5/6 940/5/6 956/5/6
f 951/5/6 952/5/6 957/5/6
f 953/5/6 954/5/6 958/5/6
f 948/5/6 953/5/6 958/5/6
f 958/5/6 954/5/6 959/5/6
f 955/5/6 956/5/6 962/5/6
f 959/5/6 960/5/6 963/5/6
f 957/5/6 958/5/6 963/5/6
f 958/5/6 959/5/6 963/5/6
f 961/5/6 962/5/6 964/5/6
f 951/5/6 957/5/6 965/5/6
f 963/5/6 964/5/6 965/5/6
f 957/5/6 963/5/6 965/5/6
f 965/5/6 964/5/6 966/5/6
f 966/5/6 964/5/6 967/5/6
f 964/5/6 962/5/6 968/5/6
f 967/5/6 964/5/6 968/5/6
f 956/5/6 940/5/6 968/5/6
f 962/5/6 956/5/6 968/5/6
f 969/10/6 970/10/6 979/10/6
f 970/10/6 971/10/6 979/10/6
f 975/10/6 976/10/6 979/10/6
f 974/10/6 975/10/6 979/10/6
f 973/10/6 974/10/6 979/10/6
f 972/10/6 973/10/6 979/10/6
f 971/10/6 972/10/6 979/10/6
f 979/10/6 976/10/6 980/10/6
f 977/10/6 978/10/6 981/10/6
f 981/10/6 978/10/6 982/10/6
f 979/10/6 980/10/6 983/10/6
f 983/10/6 980/10/6 984/10/6
f 977/10/6 981/10/6 985/10/6
f 985/10/6 981/10/6 986/10/6
f 986/10/6 981/10/6 987/10/6
f 981/9/6 982/9/6 988/9/6
f 987/10/6 981/10/6 988/10/6
f 982/10/6 978/10/6 989/10/6
f 988/9/6 982/9/6 989/9/6
f 989/10/6 978/10/6 990/10/6
f 990/10/6 978/10/6 991/10/6
f 991/10/6 978/10/6 992/10/6
f 977/10/6 985/10/6 993/10/6
f 985/9/6 986/9/6 993/9/6
f 986/10/6 987/10/6 994/10/6
f 993/9/6 986/9/6 994/9/6
f 987/9/6 988/9/6 995/9/6
f 994/10/6 987/10/6 995/10/6
f 988/9/6 989/9/6 995/9/6
f 989/9/6 990/9/6 995/9/6
f 990/10/6 991/10/6 996/10/6
f 995/9/6 990/9/6 996/9/6
f 991/9/6 992/9/6 997/9/6
f 996/10/6 991/10/6 997/10/6
f 992/10/6 978/10/6 998/10/6
f 997/9/6 992/9/6 998/9/6
f 993/10/6 994/10/6 999/10/6
f 977/10/6 993/10/6 999/10/6
f 997/10/6 998/10/6 999/10/6
f 994/10/6 995/10/6 999/10/6
f 995/10/6 996/10/6 999/10/6
f 996/10/6 997/10/6 999/10/6
f 999/10/6 998/10/6 1000/10/6
f 1000/10/6 998/10/6 1001/10/6
f 1001/10/6 998/10/6 1002/10/6
f 1002/10/6 998/10/6 1003/10/6
f 1003/10/6 998/10/6 1004/10/6
f 1004/10/6 998/10/6 1005/10/6
f 998/10/6 978/10/6 1006/10/6
f 1005/10/6 998/10/6 1006/10/6
f 977/10/6 999/10/6 1007/10/6
f 999/9/6 1000/9/6 1007/9/6
f 1000/10/6 1001/10/6 1008/10/6
f 1007/9/6 1000/9/6 1008/9/6
f 1001/9/6 1002/9/6 1009/9/6
f 1008/10/6 1001/10/6 1009/10/6
f 1002/10/6 1003/10/6 1010/10/6
f 1009/9/6 1002/9/6 1010/9/6
f 1003/9/6 1004/9/6 1011/9/6
f 1010/10/6 1003/10/6 1011/10/6
f 1004/10/6 1005/10/6 1012/10/6
f 1011/9/6 1004/9/6 1012/9/6
f 1005/9/6 1006/9/6 1013/9/6
f 1012/10/6 1005/10/6 1013/10/6
f 1006/10/6 978/10/6 1014/10/6
f 1013/9/6 1006/9/6 1014/9/6
f 979/10/6 983/10/6 1015/10/6
f 984/10/6 980/10/6 1016/10/6
f 1010/10/6 1011/10/6 1018/10/6
f 1012/10/6 1013/10/6 1018/10/6
f 1011/10/6 1012/10/6 1018/10/6
f 977/10/6 1007/10/6 1018/10/6
f 1013/10/6 1014/10/6 1018/10/6
f 1009/10/6 1010/10/6 1018/10/6
f 1008/10/6 1009/10/6 1018/10/6
f 1007/10/6 1008/10/6 1018/10/6
f 1018/10/6 1014/10/6 1019/10/6
f 1019/10/6 1014/10/6 1020/10/6
f 1020/10/6 1014/10/6 1021/10/6
f 1021/10/6 1014/10/6 1022/10/6
f 1022/10/6 1014/10/6 1023/10/6
f 1023/10/6 1014/10/6 1024/10/6
f 1024/10/6 1014/10/6 1025/10/6
f 1014/10/6 978/10/6 1026/10/6
f 1025/10/6 1014/10/6 1026/10/6
f 1017/11/6 1018/11/6 1027/11/6
f 1018/10/6 1019/10/6 1028/10/6
f 1027/11/6 1018/11/6 1028/11/6
f 1019/9/6 1020/9/6 1029/9/6
f 1028/10/6 1019/10/6 1029/10/6
f 1020/10/6 1021/10/6 1030/10/6
f 1029/9/6 1020/9/6 1030/9/6
f 1021/9/6 1022/9/6 1031/9/6
f 1030/10/6 1021/10/6 1031/10/6
f 1022/10/6 1023/10/6 1032/10/6
f 1031/9/6 1022/9/6 1032/9/6
f 1023/9/6 1024/9/6 1033/9/6
f 1032/10/6 1023/10/6 1033/10/6
f 1024/10/6 1025/10/6 1034/10/6
f 1033/9/6 1024/9/6 1034/9/6
f 1025/9/6 1026/9/6 1035/9/6
f 1034/10/6 1025/10/6 1035/10/6
f 1026/10/6 978/10/6 1036/10/6
f 1035/9/6 1026/9/6 1036/9/6
f 1015/10/6 1016/10/6 1037/10/6
f 979/10/6 1015/10/6 1037/10/6
f 1016/10/6 980/10/6 1038/10/6
f 1037/10/6 1016/10/6 1038/10/6
f 1035/10/6 1036/10/6 1039/10/6
f 1032/10/6 1033/10/6 1039/10/6
f 1034/10/6 1035/10/6 1039/10/6
f 1033/10/6 1034/10/6 1039/10/6
f 1031/10/6 1032/10/6 1039/10/6
f 1030/10/6 1031/10/6 1039/10/6
f 1029/10/6 1030/10/6 1039/10/6
f 1028/10/6 1029/10/6 1039/10/6
f 1036/10/6 978/10/6 1040/10/6
f 1039/10/6 1036/10/6 1040/10/6
f 1037/10/6 1038/10/6 1041/10/6
f 1041/10/6 1038/10/6 1042/10/6
f 1043/10/6 1044/10/6 1045/10/6
f 1045/10/6 1044/10/6 1046/10/6
f 1043/10/6 1045/10/6 1047/10/6
f 1046/10/6 1044/10/6 1048/10/6
f 1043/10/6 1047/10/6 1049/10/6
f 1047/10/6 1048/10/6 1049/10/6
f 1048/10/6 1044/10/6 1050/10/6
f 1049/10/6 1048/10/6 1050/10/6
f 1051/11/6 1052/11/6 1053/11/6
f 1053/11/6 1052/11/6 1054/11/6
f 1055/10/6 1056/10/6 1058/10/6
f 1058/10/6 1056/10/6 1059/10/6
f 1057/10/6 1058/10/6 1061/10/6
f 1061/10/6 1058/10/6 1062/10/6
f 1059/10/6 1060/10/6 1063/10/6
f 1063/10/6 1060/10/6 1064/10/6
f 1065/10/6 1066/10/6 1068/10/6
f 1068/10/6 1066/10/6 1069/10/6
f 1067/10/6 1068/10/6 1071/10/6
f 1069/10/6 1070/10/6 1072/10/6
f 1067/10/6 1071/10/6 1073/10/6
f 1073/10/6 1071/10/6 1074/10/6
f 1072/10/6 1070/10/6 1075/10/6
f 1075/10/6 1070/10/6 1076/10/6
f 1077/10/6 1078/10/6 1079/10/6
f 1079/10/6 1078/10/6 1080/10/6
f 1081/10/6 1082/10/6 1083/10/6
f 1083/10/6 1082/10/6 1084/10/6
f 1085/8/6 1086/8/6 1089/8/6
f 1089/8/6 1086/8/6 1090/8/6
f 1087/8/6 1088/8/6 1091/8/6
f 1091/8/6 1088/8/6 1092/8/6
f 1089/6/6 1090/6/6 1093/6/6
f 1091/6/6 1092/6/6 1094/6/6
f 1089/6/6 1093/6/6 1095/6/6
f 1094/6/6 1092/6/6 1096/6/6
f 1089/6/6 1095/6/6 1097/6/6
f 1097/6/6 1095/6/6 1098/6/6
f 1096/6/6 1092/6/6 1099/6/6
f 1099/6/6 1092/6/6 1100/6/6
f 1101/10/6 1102/10/6 1105/10/6
f 1105/10/6 1102/10/6 1106/10/6
f 1103/10/6 1104/10/6 1107/10/6
f 1107/10/6 1104/10/6 1108/10/6
f 1106/10/6 1107/10/6 1109/10/6
f 1109/10/6 1107/10/6 1110/10/6
f 1111/10/6 1112/10/6 1113/10/6
f 1113/10/6 1112/10/6 1114/10/6
