# MagicaVoxel @ Ephtracy

# group
o 

# material
mtllib bench.mtl
usemtl palette

# normals
vn -1 0 0
vn 1 0 0
vn 0 0 1
vn 0 0 -1
vn 0 -1 0
vn 0 1 0

# texcoords
vt 0.349609 0.5
vt 0.361328 0.5
vt 0.365234 0.5
vt 0.373047 0.5

# verts
v -1.5 1.1 0.3
v -1.5 1.1 -0.9
v -1.5 1.5 0.3
v -1.5 1.5 -0.9
v -1.3 0.7 0.2
v -1.3 0.7 -0.7
v -1.3 1 0.2
v -1.3 1 -0.7
v -1.3 1.1 0.2
v -1.3 1.1 -0.7
v 2.5 0.7 0.2
v 2.5 0.7 -0.7
v 2.5 1 0.2
v 2.5 1 -0.7
v 2.5 1.1 0.2
v 2.5 1.1 -0.7
v 2.7 1.1 0.3
v 2.7 1.1 -0.9
v 2.7 1.5 0.3
v 2.7 1.5 -0.9
v -1.5 1.1 0.3
v -1.5 1.5 0.3
v 2.7 1.1 0.3
v 2.7 1.5 0.3
v -1.3 0.7 0.2
v -1.3 1 0.2
v -1.3 1.1 0.2
v -0.7 0.9 0.2
v -0.7 1 0.2
v 1.9 0.9 0.2
v 1.9 1 0.2
v 2.5 0.7 0.2
v 2.5 1 0.2
v 2.5 1.1 0.2
v -1.3 0.7 -0.7
v -1.3 1 -0.7
v -1.3 1.1 -0.7
v -0.6 0.9 -0.7
v -0.6 1 -0.7
v 1.9 0.9 -0.7
v 1.9 1 -0.7
v 2.5 0.7 -0.7
v 2.5 1 -0.7
v 2.5 1.1 -0.7
v -1.5 1.1 -0.9
v -1.5 1.5 -0.9
v 2.7 1.1 -0.9
v 2.7 1.5 -0.9
v -1.3 0.7 0.2
v 2.5 0.7 0.2
v -1.3 0.7 -0.7
v 2.5 0.7 -0.7
v -1.5 1.1 0.3
v 2.7 1.1 0.3
v -1.3 1.1 0.2
v 2.5 1.1 0.2
v -1.3 1.1 -0.7
v 2.5 1.1 -0.7
v -1.5 1.1 -0.9
v 2.7 1.1 -0.9
v -1.5 1.5 0.3
v 2.7 1.5 0.3
v -1.3 1.5 0.0999998
v 2.5 1.5 0.0999998
v -1.3 1.5 -0.7
v 2.5 1.5 -0.7
v -1.5 1.5 -0.9
v 2.7 1.5 -0.9

# faces
f 3/3/1 2/3/1 1/3/1
f 4/3/1 2/3/1 3/3/1
f 7/3/1 6/3/1 5/3/1
f 8/3/1 6/3/1 7/3/1
f 9/1/1 8/1/1 7/1/1
f 10/1/1 8/1/1 9/1/1
f 11/3/2 12/3/2 13/3/2
f 13/3/2 12/3/2 14/3/2
f 13/1/2 14/1/2 15/1/2
f 15/1/2 14/1/2 16/1/2
f 17/3/2 18/3/2 19/3/2
f 19/3/2 18/3/2 20/3/2
f 23/3/3 22/3/3 21/3/3
f 24/3/3 22/3/3 23/3/3
f 28/3/3 26/3/3 25/3/3
f 29/1/3 27/1/3 26/1/3
f 29/3/3 26/3/3 28/3/3
f 30/3/3 28/3/3 25/3/3
f 30/2/3 29/2/3 28/2/3
f 31/1/3 27/1/3 29/1/3
f 31/2/3 29/2/3 30/2/3
f 32/3/3 30/3/3 25/3/3
f 32/3/3 31/3/3 30/3/3
f 33/1/3 27/1/3 31/1/3
f 33/3/3 31/3/3 32/3/3
f 34/1/3 27/1/3 33/1/3
f 35/3/4 36/3/4 38/3/4
f 36/1/4 37/1/4 39/1/4
f 38/3/4 36/3/4 39/3/4
f 35/3/4 38/3/4 40/3/4
f 38/2/4 39/2/4 40/2/4
f 39/1/4 37/1/4 41/1/4
f 40/2/4 39/2/4 41/2/4
f 35/3/4 40/3/4 42/3/4
f 40/3/4 41/3/4 42/3/4
f 41/1/4 37/1/4 43/1/4
f 42/3/4 41/3/4 43/3/4
f 43/1/4 37/1/4 44/1/4
f 45/3/4 46/3/4 47/3/4
f 47/3/4 46/3/4 48/3/4
f 51/3/5 50/3/5 49/3/5
f 52/3/5 50/3/5 51/3/5
f 55/3/5 54/3/5 53/3/5
f 56/3/5 54/3/5 55/3/5
f 57/3/5 55/3/5 53/3/5
f 58/3/5 54/3/5 56/3/5
f 59/3/5 57/3/5 53/3/5
f 59/3/5 58/3/5 57/3/5
f 60/3/5 54/3/5 58/3/5
f 60/3/5 58/3/5 59/3/5
f 61/3/6 62/3/6 63/3/6
f 63/3/6 62/3/6 64/3/6
f 61/3/6 63/3/6 65/3/6
f 63/4/6 64/4/6 65/4/6
f 64/3/6 62/3/6 66/3/6
f 65/4/6 64/4/6 66/4/6
f 61/3/6 65/3/6 67/3/6
f 65/3/6 66/3/6 67/3/6
f 66/3/6 62/3/6 68/3/6
f 67/3/6 66/3/6 68/3/6
