# MagicaVoxel @ Ephtracy

# group
o 

# material
mtllib boxForClutter.mtl
usemtl palette

# normals
vn -1 0 0
vn 1 0 0
vn 0 0 1
vn 0 0 -1
vn 0 -1 0
vn 0 1 0

# texcoords
vt 0.298828 0.5
vt 0.349609 0.5
vt 0.353516 0.5
vt 0.373047 0.5
vt 0.455078 0.5
vt 0.458984 0.5

# verts
v -2.6 0.1 1.9
v -2.6 0.1 -1
v -2.6 0.2 2
v -2.6 0.2 1.9
v -2.6 0.2 -1
v -2.6 0.2 -1.1
v -2.6 0.5 1.2
v -2.6 0.5 1.1
v -2.6 0.5 0.7
v -2.6 0.5 0.6
v -2.6 0.5 0.2
v -2.6 0.5 0.0999999
v -2.6 0.5 -0.3
v -2.6 0.5 -0.4
v -2.6 1.8 1.2
v -2.6 1.8 1.1
v -2.6 1.8 0.7
v -2.6 1.8 0.6
v -2.6 1.8 0.2
v -2.6 1.8 0.0999999
v -2.6 1.8 -0.3
v -2.6 1.8 -0.4
v -2.6 2.1 2
v -2.6 2.1 1.9
v -2.6 2.1 -1
v -2.6 2.1 -1.1
v -2.6 2.2 1.9
v -2.6 2.2 -1
v -2.5 0.5 1.2
v -2.5 0.5 1.1
v -2.5 0.5 0.7
v -2.5 0.5 0.6
v -2.5 0.5 0.2
v -2.5 0.5 0.0999999
v -2.5 0.5 -0.3
v -2.5 0.5 -0.4
v -2.5 1.8 1.2
v -2.5 1.8 1.1
v -2.5 1.8 0.7
v -2.5 1.8 0.6
v -2.5 1.8 0.2
v -2.5 1.8 0.0999999
v -2.5 1.8 -0.3
v -2.5 1.8 -0.4
v -2.4 2.1 1.6
v -2.4 2.1 -0.7
v -2.4 2.2 1.6
v -2.4 2.2 -0.7
v -2.2 2.1 0.7
v -2.2 2.1 -0.7
v -2.2 2.2 0.7
v -2.2 2.2 -0.7
v -2 2.1 -2.38419e-07
v -2 2.1 -0.7
v -2 2.2 -2.38419e-07
v -2 2.2 -0.7
v 1.6 0.1 1.9
v 1.6 0.1 -1
v 1.6 0.2 2
v 1.6 0.2 1.9
v 1.6 0.2 1.8
v 1.6 0.2 -0.9
v 1.6 0.2 -1
v 1.6 0.2 -1.1
v 1.6 0.3 1.9
v 1.6 0.3 1.8
v 1.6 0.3 -0.9
v 1.6 0.3 -1
v 1.6 0.4 1.9
v 1.6 0.4 -1
v 1.6 0.5 1.9
v 1.6 0.5 -1
v 1.6 0.6 -1
v 1.6 0.7 -1
v 1.6 0.8 1.9
v 1.6 0.8 -1
v 1.6 0.9 -1
v 1.6 1 1.9
v 1.6 1.1 1.9
v 1.6 1.1 -1
v 1.6 1.2 1.9
v 1.6 1.4 -1
v 1.6 1.5 1.9
v 1.6 1.6 1.9
v 1.6 1.6 -1
v 1.6 1.7 1.9
v 1.6 1.7 -1
v 1.6 1.8 1.9
v 1.6 1.8 -1
v 1.6 1.9 -1
v 1.6 2 1.9
v 1.6 2 1.8
v 1.6 2 -0.9
v 1.6 2 -1
v 1.6 2.1 2
v 1.6 2.1 1.9
v 1.6 2.1 1.8
v 1.6 2.1 -0.9
v 1.6 2.1 -1
v 1.6 2.1 -1.1
v 1.6 2.2 1.9
v 1.6 2.2 -1
v 1.9 2.1 1.7
v 1.9 2.1 1.1
v 1.9 2.2 1.7
v 1.9 2.2 1.1
v 2.1 2.1 1.7
v 2.1 2.1 0.4
v 2.1 2.2 1.7
v 2.1 2.2 0.4
v 2.3 2.1 1.7
v 2.3 2.1 -0.7
v 2.3 2.2 1.7
v 2.3 2.2 -0.7
v -2.5 2.1 1.6
v -2.5 2.1 -0.7
v -2.5 2.2 1.6
v -2.5 2.2 -0.7
v -2.3 2.1 0.7
v -2.3 2.1 -0.7
v -2.3 2.2 0.7
v -2.3 2.2 -0.7
v -2.1 2.1 -2.38419e-07
v -2.1 2.1 -0.7
v -2.1 2.2 -2.38419e-07
v -2.1 2.2 -0.7
v -1.8 0.1 1.9
v -1.8 0.1 -1
v -1.8 0.2 2
v -1.8 0.2 1.9
v -1.8 0.2 1.8
v -1.8 0.2 -0.9
v -1.8 0.2 -1
v -1.8 0.2 -1.1
v -1.8 0.3 1.9
v -1.8 0.3 1.8
v -1.8 0.3 -0.9
v -1.8 0.3 -1
v -1.8 0.4 -1
v -1.8 0.5 -1
v -1.8 0.6 -1
v -1.8 0.7 -1
v -1.8 0.9 1.9
v -1.8 1 1.9
v -1.8 1.1 1.9
v -1.8 1.2 1.9
v -1.8 1.2 -1
v -1.8 1.4 -1
v -1.8 1.5 1.9
v -1.8 1.5 -1
v -1.8 1.7 -1
v -1.8 1.8 1.9
v -1.8 2 1.9
v -1.8 2 1.8
v -1.8 2 -0.9
v -1.8 2 -1
v -1.8 2.1 2
v -1.8 2.1 1.9
v -1.8 2.1 1.8
v -1.8 2.1 -0.9
v -1.8 2.1 -1
v -1.8 2.1 -1.1
v -1.8 2.2 1.9
v -1.8 2.2 -1
v 1.8 2.1 1.7
v 1.8 2.1 1.1
v 1.8 2.2 1.7
v 1.8 2.2 1.1
v 2 2.1 1.7
v 2 2.1 0.4
v 2 2.2 1.7
v 2 2.2 0.4
v 2.2 2.1 1.7
v 2.2 2.1 -0.7
v 2.2 2.2 1.7
v 2.2 2.2 -0.7
v 2.3 0.5 1.4
v 2.3 0.5 1.3
v 2.3 0.5 0.7
v 2.3 0.5 0.6
v 2.3 0.6 -2.38419e-07
v 2.3 0.6 -0.1
v 2.3 0.6 -0.6
v 2.3 0.6 -0.7
v 2.3 1.9 1.4
v 2.3 1.9 1.3
v 2.3 1.9 0.7
v 2.3 1.9 0.6
v 2.3 1.9 -2.38419e-07
v 2.3 1.9 -0.1
v 2.3 1.9 -0.6
v 2.3 1.9 -0.7
v 2.4 0.1 1.9
v 2.4 0.1 -1
v 2.4 0.2 2
v 2.4 0.2 1.9
v 2.4 0.2 -1
v 2.4 0.2 -1.1
v 2.4 0.5 1.4
v 2.4 0.5 1.3
v 2.4 0.5 0.7
v 2.4 0.5 0.6
v 2.4 0.6 -2.38419e-07
v 2.4 0.6 -0.1
v 2.4 0.6 -0.6
v 2.4 0.6 -0.7
v 2.4 1.9 1.4
v 2.4 1.9 1.3
v 2.4 1.9 0.7
v 2.4 1.9 0.6
v 2.4 1.9 -2.38419e-07
v 2.4 1.9 -0.1
v 2.4 1.9 -0.6
v 2.4 1.9 -0.7
v 2.4 2.1 2
v 2.4 2.1 1.9
v 2.4 2.1 -1
v 2.4 2.1 -1.1
v 2.4 2.2 1.9
v 2.4 2.2 -1
v -2.6 0.2 2
v -2.6 2.1 2
v -1.8 0.2 2
v -1.8 2.1 2
v 1.6 0.2 2
v 1.6 2.1 2
v 2.4 0.2 2
v 2.4 2.1 2
v -2.6 0.1 1.9
v -2.6 0.2 1.9
v -2.6 2.1 1.9
v -2.6 2.2 1.9
v -1.8 0.1 1.9
v -1.8 0.2 1.9
v -1.8 0.3 1.9
v -1.8 0.9 1.9
v -1.8 1 1.9
v -1.8 1.1 1.9
v -1.8 1.2 1.9
v -1.8 1.5 1.9
v -1.8 1.8 1.9
v -1.8 2 1.9
v -1.8 2.1 1.9
v -1.8 2.2 1.9
v -1.7 0.7 1.9
v -1.7 0.8 1.9
v -1.4 0.7 1.9
v -1.4 0.8 1.9
v -1.2 0.9 1.9
v -1.2 1 1.9
v -1.1 1.1 1.9
v -1.1 1.2 1.9
v -0.7 1.5 1.9
v -0.7 1.8 1.9
v -0.4 1 1.9
v -0.4 1.1 1.9
v -0.3 0.8 1.9
v -0.3 0.9 1.9
v 0.1 0.8 1.9
v 0.1 0.9 1.9
v 0.3 1 1.9
v 0.3 1.1 1.9
v 0.5 1.5 1.9
v 0.5 1.6 1.9
v 0.8 1.7 1.9
v 0.8 1.8 1.9
v 1 0.8 1.9
v 1 1 1.9
v 1.2 0.4 1.9
v 1.2 0.5 1.9
v 1.3 1.1 1.9
v 1.3 1.2 1.9
v 1.6 0.1 1.9
v 1.6 0.2 1.9
v 1.6 0.3 1.9
v 1.6 0.4 1.9
v 1.6 0.5 1.9
v 1.6 0.8 1.9
v 1.6 1 1.9
v 1.6 1.1 1.9
v 1.6 1.2 1.9
v 1.6 1.5 1.9
v 1.6 1.6 1.9
v 1.6 1.7 1.9
v 1.6 1.8 1.9
v 1.6 2 1.9
v 1.6 2.1 1.9
v 1.6 2.2 1.9
v 2.4 0.1 1.9
v 2.4 0.2 1.9
v 2.4 2.1 1.9
v 2.4 2.2 1.9
v -1.8 0.2 1.8
v -1.8 0.3 1.8
v -1.8 2 1.8
v -1.8 2.1 1.8
v 1.6 0.2 1.8
v 1.6 0.3 1.8
v 1.6 2 1.8
v 1.6 2.1 1.8
v 2.3 0.5 1.3
v 2.3 1.9 1.3
v 2.4 0.5 1.3
v 2.4 1.9 1.3
v -2.6 0.5 1.1
v -2.6 1.8 1.1
v -2.5 0.5 1.1
v -2.5 1.8 1.1
v 1.8 2.1 1.1
v 1.8 2.2 1.1
v 1.9 2.1 1.1
v 1.9 2.2 1.1
v -2.6 0.5 0.6
v -2.6 1.8 0.6
v -2.5 0.5 0.6
v -2.5 1.8 0.6
v 2.3 0.5 0.6
v 2.3 1.9 0.6
v 2.4 0.5 0.6
v 2.4 1.9 0.6
v 2 2.1 0.4
v 2 2.2 0.4
v 2.1 2.1 0.4
v 2.1 2.2 0.4
v -2.6 0.5 0.0999999
v -2.6 1.8 0.0999999
v -2.5 0.5 0.0999999
v -2.5 1.8 0.0999999
v 2.3 0.6 -0.1
v 2.3 1.9 -0.1
v 2.4 0.6 -0.1
v 2.4 1.9 -0.1
v -2.6 0.5 -0.4
v -2.6 1.8 -0.4
v -2.5 0.5 -0.4
v -2.5 1.8 -0.4
v -2.5 2.1 -0.7
v -2.5 2.2 -0.7
v -2.4 2.1 -0.7
v -2.4 2.2 -0.7
v -2.3 2.1 -0.7
v -2.3 2.2 -0.7
v -2.2 2.1 -0.7
v -2.2 2.2 -0.7
v -2.1 2.1 -0.7
v -2.1 2.2 -0.7
v -2 2.1 -0.7
v -2 2.2 -0.7
v 2.2 2.1 -0.7
v 2.2 2.2 -0.7
v 2.3 0.6 -0.7
v 2.3 1.9 -0.7
v 2.3 2.1 -0.7
v 2.3 2.2 -0.7
v 2.4 0.6 -0.7
v 2.4 1.9 -0.7
v 1.8 2.1 1.7
v 1.8 2.2 1.7
v 1.9 2.1 1.7
v 1.9 2.2 1.7
v 2 2.1 1.7
v 2 2.2 1.7
v 2.1 2.1 1.7
v 2.1 2.2 1.7
v 2.2 2.1 1.7
v 2.2 2.2 1.7
v 2.3 2.1 1.7
v 2.3 2.2 1.7
v -2.5 2.1 1.6
v -2.5 2.2 1.6
v -2.4 2.1 1.6
v -2.4 2.2 1.6
v 2.3 0.5 1.4
v 2.3 1.9 1.4
v 2.4 0.5 1.4
v 2.4 1.9 1.4
v -2.6 0.5 1.2
v -2.6 1.8 1.2
v -2.5 0.5 1.2
v -2.5 1.8 1.2
v -2.6 0.5 0.7
v -2.6 1.8 0.7
v -2.5 0.5 0.7
v -2.5 1.8 0.7
v -2.3 2.1 0.7
v -2.3 2.2 0.7
v -2.2 2.1 0.7
v -2.2 2.2 0.7
v 2.3 0.5 0.7
v 2.3 1.9 0.7
v 2.4 0.5 0.7
v 2.4 1.9 0.7
v -2.6 0.5 0.2
v -2.6 1.8 0.2
v -2.5 0.5 0.2
v -2.5 1.8 0.2
v -2.1 2.1 -2.38419e-07
v -2.1 2.2 -2.38419e-07
v -2 2.1 -2.38419e-07
v -2 2.2 -2.38419e-07
v 2.3 0.6 -2.38419e-07
v 2.3 1.9 -2.38419e-07
v 2.4 0.6 -2.38419e-07
v 2.4 1.9 -2.38419e-07
v -2.6 0.5 -0.3
v -2.6 1.8 -0.3
v -2.5 0.5 -0.3
v -2.5 1.8 -0.3
v 2.3 0.6 -0.6
v 2.3 1.9 -0.6
v 2.4 0.6 -0.6
v 2.4 1.9 -0.6
v -1.8 0.2 -0.9
v -1.8 0.3 -0.9
v -1.8 2 -0.9
v -1.8 2.1 -0.9
v 1.6 0.2 -0.9
v 1.6 0.3 -0.9
v 1.6 2 -0.9
v 1.6 2.1 -0.9
v -2.6 0.1 -1
v -2.6 0.2 -1
v -2.6 2.1 -1
v -2.6 2.2 -1
v -1.8 0.1 -1
v -1.8 0.2 -1
v -1.8 0.3 -1
v -1.8 0.4 -1
v -1.8 0.5 -1
v -1.8 0.6 -1
v -1.8 0.7 -1
v -1.8 1.2 -1
v -1.8 1.4 -1
v -1.8 1.5 -1
v -1.8 1.7 -1
v -1.8 2 -1
v -1.8 2.1 -1
v -1.8 2.2 -1
v -1.4 0.4 -1
v -1.4 0.5 -1
v -1.3 0.6 -1
v -1.3 0.7 -1
v -1.2 1.2 -1
v -1.2 1.4 -1
v -1 1.5 -1
v -1 1.7 -1
v 0.2 1.1 -1
v 0.2 1.4 -1
v 0.5 1.8 -1
v 0.5 1.9 -1
v 1 1.6 -1
v 1 1.7 -1
v 1.1 0.6 -1
v 1.1 0.7 -1
v 1.2 0.8 -1
v 1.2 0.9 -1
v 1.4 0.4 -1
v 1.4 0.5 -1
v 1.6 0.1 -1
v 1.6 0.2 -1
v 1.6 0.3 -1
v 1.6 0.4 -1
v 1.6 0.5 -1
v 1.6 0.6 -1
v 1.6 0.7 -1
v 1.6 0.8 -1
v 1.6 0.9 -1
v 1.6 1.1 -1
v 1.6 1.4 -1
v 1.6 1.6 -1
v 1.6 1.7 -1
v 1.6 1.8 -1
v 1.6 1.9 -1
v 1.6 2 -1
v 1.6 2.1 -1
v 1.6 2.2 -1
v 2.4 0.1 -1
v 2.4 0.2 -1
v 2.4 2.1 -1
v 2.4 2.2 -1
v -2.6 0.2 -1.1
v -2.6 2.1 -1.1
v -1.8 0.2 -1.1
v -1.8 2.1 -1.1
v 1.6 0.2 -1.1
v 1.6 2.1 -1.1
v 2.4 0.2 -1.1
v 2.4 2.1 -1.1
v -2.6 0.1 1.9
v -1.8 0.1 1.9
v 1.6 0.1 1.9
v 2.4 0.1 1.9
v -2.6 0.1 -1
v -1.8 0.1 -1
v 1.6 0.1 -1
v 2.4 0.1 -1
v -2.6 0.2 2
v -1.8 0.2 2
v 1.6 0.2 2
v 2.4 0.2 2
v -2.6 0.2 1.9
v -1.8 0.2 1.9
v 1.6 0.2 1.9
v 2.4 0.2 1.9
v -1.8 0.2 1.8
v 1.6 0.2 1.8
v -1.8 0.2 -0.9
v 1.6 0.2 -0.9
v -2.6 0.2 -1
v -1.8 0.2 -1
v 1.6 0.2 -1
v 2.4 0.2 -1
v -2.6 0.2 -1.1
v -1.8 0.2 -1.1
v 1.6 0.2 -1.1
v 2.4 0.2 -1.1
v -1.8 0.3 1.9
v 1.6 0.3 1.9
v -1.8 0.3 1.8
v 1.6 0.3 1.8
v -1.8 0.3 -0.9
v 1.6 0.3 -0.9
v -1.8 0.3 -1
v 1.6 0.3 -1
v -2.6 1.8 1.2
v -2.5 1.8 1.2
v -2.6 1.8 1.1
v -2.5 1.8 1.1
v -2.6 1.8 0.7
v -2.5 1.8 0.7
v -2.6 1.8 0.6
v -2.5 1.8 0.6
v -2.6 1.8 0.2
v -2.5 1.8 0.2
v -2.6 1.8 0.0999999
v -2.5 1.8 0.0999999
v -2.6 1.8 -0.3
v -2.5 1.8 -0.3
v -2.6 1.8 -0.4
v -2.5 1.8 -0.4
v 2.3 1.9 1.4
v 2.4 1.9 1.4
v 2.3 1.9 1.3
v 2.4 1.9 1.3
v 2.3 1.9 0.7
v 2.4 1.9 0.7
v 2.3 1.9 0.6
v 2.4 1.9 0.6
v 2.3 1.9 -2.38419e-07
v 2.4 1.9 -2.38419e-07
v 2.3 1.9 -0.1
v 2.4 1.9 -0.1
v 2.3 1.9 -0.6
v 2.4 1.9 -0.6
v 2.3 1.9 -0.7
v 2.4 1.9 -0.7
v 2.3 0.5 1.4
v 2.4 0.5 1.4
v 2.3 0.5 1.3
v 2.4 0.5 1.3
v -2.6 0.5 1.2
v -2.5 0.5 1.2
v -2.6 0.5 1.1
v -2.5 0.5 1.1
v -2.6 0.5 0.7
v -2.5 0.5 0.7
v 2.3 0.5 0.7
v 2.4 0.5 0.7
v -2.6 0.5 0.6
v -2.5 0.5 0.6
v 2.3 0.5 0.6
v 2.4 0.5 0.6
v -2.6 0.5 0.2
v -2.5 0.5 0.2
v -2.6 0.5 0.0999999
v -2.5 0.5 0.0999999
v -2.6 0.5 -0.3
v -2.5 0.5 -0.3
v -2.6 0.5 -0.4
v -2.5 0.5 -0.4
v 2.3 0.6 -2.38419e-07
v 2.4 0.6 -2.38419e-07
v 2.3 0.6 -0.1
v 2.4 0.6 -0.1
v 2.3 0.6 -0.6
v 2.4 0.6 -0.6
v 2.3 0.6 -0.7
v 2.4 0.6 -0.7
v -1.8 2 1.9
v 1.6 2 1.9
v -1.8 2 1.8
v 1.6 2 1.8
v -1.8 2 -0.9
v 1.6 2 -0.9
v -1.8 2 -1
v 1.6 2 -1
v -2.6 2.1 2
v -1.8 2.1 2
v 1.6 2.1 2
v 2.4 2.1 2
v -2.6 2.1 1.9
v -1.8 2.1 1.9
v 1.6 2.1 1.9
v 2.4 2.1 1.9
v -1.8 2.1 1.8
v 1.6 2.1 1.8
v 1.8 2.1 1.7
v 1.9 2.1 1.7
v 2 2.1 1.7
v 2.1 2.1 1.7
v 2.2 2.1 1.7
v 2.3 2.1 1.7
v -2.5 2.1 1.6
v -2.4 2.1 1.6
v -0.9 2.1 1.4
v 0.7 2.1 1.4
v -0.3 2.1 1.3
v 0.7 2.1 1.3
v -0.9 2.1 1.2
v -0.3 2.1 1.2
v 0.5 2.1 1.1
v 0.7 2.1 1.1
v 1.8 2.1 1.1
v 1.9 2.1 1.1
v -0.9 2.1 1
v -0.8 2.1 1
v -2.3 2.1 0.7
v -2.2 2.1 0.7
v 0.5 2.1 0.6
v 0.6 2.1 0.6
v 2 2.1 0.4
v 2.1 2.1 0.4
v -0.8 2.1 0.0999999
v -0.7 2.1 0.0999999
v -2.1 2.1 -2.38419e-07
v -2 2.1 -2.38419e-07
v 0.6 2.1 -0.1
v 0.7 2.1 -0.1
v 0.2 2.1 -0.3
v 0.7 2.1 -0.3
v -0.5 2.1 -0.4
v 0.2 2.1 -0.4
v -0.9 2.1 -0.5
v -0.7 2.1 -0.5
v -0.5 2.1 -0.5
v 0.7 2.1 -0.5
v -2.5 2.1 -0.7
v -2.4 2.1 -0.7
v -2.3 2.1 -0.7
v -2.2 2.1 -0.7
v -2.1 2.1 -0.7
v -2 2.1 -0.7
v 2.2 2.1 -0.7
v 2.3 2.1 -0.7
v -1.8 2.1 -0.9
v 1.6 2.1 -0.9
v -2.6 2.1 -1
v -1.8 2.1 -1
v 1.6 2.1 -1
v 2.4 2.1 -1
v -2.6 2.1 -1.1
v -1.8 2.1 -1.1
v 1.6 2.1 -1.1
v 2.4 2.1 -1.1
v -2.6 2.2 1.9
v -1.8 2.2 1.9
v 1.6 2.2 1.9
v 2.4 2.2 1.9
v 1.8 2.2 1.7
v 1.9 2.2 1.7
v 2 2.2 1.7
v 2.1 2.2 1.7
v 2.2 2.2 1.7
v 2.3 2.2 1.7
v -2.5 2.2 1.6
v -2.4 2.2 1.6
v 1.8 2.2 1.1
v 1.9 2.2 1.1
v -2.3 2.2 0.7
v -2.2 2.2 0.7
v 2 2.2 0.4
v 2.1 2.2 0.4
v -2.1 2.2 -2.38419e-07
v -2 2.2 -2.38419e-07
v -2.5 2.2 -0.7
v -2.4 2.2 -0.7
v -2.3 2.2 -0.7
v -2.2 2.2 -0.7
v -2.1 2.2 -0.7
v -2 2.2 -0.7
v 2.2 2.2 -0.7
v 2.3 2.2 -0.7
v -2.6 2.2 -1
v -1.8 2.2 -1
v 1.6 2.2 -1
v 2.4 2.2 -1

# faces
f 4/5/1 2/5/1 1/5/1
f 5/5/1 2/5/1 4/5/1
f 7/5/1 4/5/1 3/5/1
f 7/5/1 6/5/1 5/5/1
f 7/5/1 5/5/1 4/5/1
f 8/5/1 6/5/1 7/5/1
f 9/5/1 6/5/1 8/5/1
f 10/5/1 6/5/1 9/5/1
f 11/5/1 6/5/1 10/5/1
f 12/5/1 6/5/1 11/5/1
f 13/5/1 6/5/1 12/5/1
f 14/5/1 6/5/1 13/5/1
f 15/5/1 7/5/1 3/5/1
f 16/5/1 9/5/1 8/5/1
f 17/5/1 9/5/1 16/5/1
f 18/5/1 11/5/1 10/5/1
f 19/5/1 11/5/1 18/5/1
f 20/5/1 13/5/1 12/5/1
f 21/5/1 13/5/1 20/5/1
f 22/5/1 6/5/1 14/5/1
f 23/5/1 21/5/1 20/5/1
f 23/5/1 22/5/1 21/5/1
f 23/5/1 19/5/1 18/5/1
f 23/5/1 15/5/1 3/5/1
f 23/5/1 20/5/1 19/5/1
f 23/5/1 17/5/1 16/5/1
f 23/5/1 18/5/1 17/5/1
f 23/5/1 16/5/1 15/5/1
f 24/5/1 22/5/1 23/5/1
f 25/5/1 6/5/1 22/5/1
f 25/5/1 22/5/1 24/5/1
f 26/5/1 6/5/1 25/5/1
f 27/5/1 25/5/1 24/5/1
f 28/5/1 25/5/1 27/5/1
f 37/5/1 30/5/1 29/5/1
f 38/5/1 30/5/1 37/5/1
f 39/5/1 32/5/1 31/5/1
f 40/5/1 32/5/1 39/5/1
f 41/5/1 34/5/1 33/5/1
f 42/5/1 34/5/1 41/5/1
f 43/5/1 36/5/1 35/5/1
f 44/5/1 36/5/1 43/5/1
f 47/5/1 46/5/1 45/5/1
f 48/5/1 46/5/1 47/5/1
f 51/5/1 50/5/1 49/5/1
f 52/5/1 50/5/1 51/5/1
f 55/5/1 54/5/1 53/5/1
f 56/5/1 54/5/1 55/5/1
f 60/5/1 58/5/1 57/5/1
f 61/5/1 58/5/1 60/5/1
f 62/5/1 58/5/1 61/5/1
f 63/5/1 58/5/1 62/5/1
f 65/5/1 60/5/1 59/5/1
f 65/5/1 61/5/1 60/5/1
f 66/5/1 61/5/1 65/5/1
f 67/5/1 64/5/1 63/5/1
f 67/5/1 63/5/1 62/5/1
f 68/5/1 64/5/1 67/5/1
f 69/5/1 65/5/1 59/5/1
f 70/5/1 64/5/1 68/5/1
f 71/5/1 69/5/1 59/5/1
f 72/5/1 64/5/1 70/5/1
f 73/5/1 64/5/1 72/5/1
f 74/5/1 64/5/1 73/5/1
f 75/5/1 71/5/1 59/5/1
f 76/5/1 64/5/1 74/5/1
f 77/5/1 64/5/1 76/5/1
f 78/5/1 75/5/1 59/5/1
f 79/5/1 78/5/1 59/5/1
f 80/5/1 64/5/1 77/5/1
f 81/5/1 79/5/1 59/5/1
f 82/5/1 64/5/1 80/5/1
f 83/5/1 81/5/1 59/5/1
f 84/5/1 83/5/1 59/5/1
f 85/5/1 64/5/1 82/5/1
f 86/5/1 84/5/1 59/5/1
f 87/5/1 64/5/1 85/5/1
f 88/5/1 86/5/1 59/5/1
f 89/5/1 64/5/1 87/5/1
f 90/5/1 64/5/1 89/5/1
f 91/5/1 88/5/1 59/5/1
f 94/5/1 64/5/1 90/5/1
f 95/5/1 92/5/1 91/5/1
f 95/5/1 91/5/1 59/5/1
f 96/5/1 92/5/1 95/5/1
f 97/5/1 92/5/1 96/5/1
f 98/5/1 94/5/1 93/5/1
f 99/5/1 64/5/1 94/5/1
f 99/5/1 94/5/1 98/5/1
f 100/5/1 64/5/1 99/5/1
f 101/5/1 97/5/1 96/5/1
f 101/5/1 98/5/1 97/5/1
f 101/5/1 99/5/1 98/5/1
f 102/5/1 99/5/1 101/5/1
f 105/5/1 104/5/1 103/5/1
f 106/5/1 104/5/1 105/5/1
f 109/5/1 108/5/1 107/5/1
f 110/5/1 108/5/1 109/5/1
f 113/5/1 112/5/1 111/5/1
f 114/5/1 112/5/1 113/5/1
f 115/5/2 116/5/2 117/5/2
f 117/5/2 116/5/2 118/5/2
f 119/5/2 120/5/2 121/5/2
f 121/5/2 120/5/2 122/5/2
f 123/5/2 124/5/2 125/5/2
f 125/5/2 124/5/2 126/5/2
f 127/5/2 128/5/2 130/5/2
f 130/5/2 128/5/2 131/5/2
f 131/5/2 128/5/2 132/5/2
f 132/5/2 128/5/2 133/5/2
f 129/5/2 130/5/2 135/5/2
f 130/5/2 131/5/2 135/5/2
f 135/5/2 131/5/2 136/5/2
f 133/5/2 134/5/2 137/5/2
f 132/5/2 133/5/2 137/5/2
f 137/5/2 134/5/2 138/5/2
f 138/5/2 134/5/2 139/5/2
f 139/5/2 134/5/2 140/5/2
f 140/5/2 134/5/2 141/5/2
f 141/5/2 134/5/2 142/5/2
f 129/5/2 135/5/2 143/5/2
f 129/5/2 143/5/2 144/5/2
f 129/5/2 144/5/2 145/5/2
f 129/5/2 145/5/2 146/5/2
f 142/5/2 134/5/2 147/5/2
f 147/5/2 134/5/2 148/5/2
f 129/5/2 146/5/2 149/5/2
f 148/5/2 134/5/2 150/5/2
f 150/5/2 134/5/2 151/5/2
f 129/5/2 149/5/2 152/5/2
f 129/5/2 152/5/2 153/5/2
f 151/5/2 134/5/2 156/5/2
f 153/5/2 154/5/2 157/5/2
f 129/5/2 153/5/2 157/5/2
f 157/5/2 154/5/2 158/5/2
f 158/5/2 154/5/2 159/5/2
f 155/5/2 156/5/2 160/5/2
f 156/5/2 134/5/2 161/5/2
f 160/5/2 156/5/2 161/5/2
f 161/5/2 134/5/2 162/5/2
f 158/5/2 159/5/2 163/5/2
f 159/5/2 160/5/2 163/5/2
f 160/5/2 161/5/2 163/5/2
f 163/5/2 161/5/2 164/5/2
f 165/5/2 166/5/2 167/5/2
f 167/5/2 166/5/2 168/5/2
f 169/5/2 170/5/2 171/5/2
f 171/5/2 170/5/2 172/5/2
f 173/5/2 174/5/2 175/5/2
f 175/5/2 174/5/2 176/5/2
f 177/5/2 178/5/2 185/5/2
f 185/5/2 178/5/2 186/5/2
f 179/5/2 180/5/2 187/5/2
f 187/5/2 180/5/2 188/5/2
f 181/5/2 182/5/2 189/5/2
f 189/5/2 182/5/2 190/5/2
f 183/5/2 184/5/2 191/5/2
f 191/5/2 184/5/2 192/5/2
f 193/5/2 194/5/2 196/5/2
f 196/5/2 194/5/2 197/5/2
f 195/5/2 196/5/2 199/5/2
f 197/5/2 198/5/2 199/5/2
f 196/5/2 197/5/2 199/5/2
f 199/5/2 198/5/2 200/5/2
f 200/5/2 198/5/2 201/5/2
f 201/5/2 198/5/2 202/5/2
f 202/5/2 198/5/2 203/5/2
f 203/5/2 198/5/2 204/5/2
f 204/5/2 198/5/2 205/5/2
f 205/5/2 198/5/2 206/5/2
f 195/5/2 199/5/2 207/5/2
f 200/5/2 201/5/2 208/5/2
f 208/5/2 201/5/2 209/5/2
f 202/5/2 203/5/2 210/5/2
f 210/5/2 203/5/2 211/5/2
f 204/5/2 205/5/2 212/5/2
f 212/5/2 205/5/2 213/5/2
f 206/5/2 198/5/2 214/5/2
f 212/5/2 213/5/2 215/5/2
f 213/5/2 214/5/2 215/5/2
f 195/5/2 207/5/2 215/5/2
f 208/5/2 209/5/2 215/5/2
f 211/5/2 212/5/2 215/5/2
f 210/5/2 211/5/2 215/5/2
f 209/5/2 210/5/2 215/5/2
f 207/5/2 208/5/2 215/5/2
f 215/5/2 214/5/2 216/5/2
f 214/5/2 198/5/2 217/5/2
f 216/5/2 214/5/2 217/5/2
f 217/5/2 198/5/2 218/5/2
f 216/5/2 217/5/2 219/5/2
f 219/5/2 217/5/2 220/5/2
f 223/5/3 222/5/3 221/5/3
f 224/5/3 222/5/3 223/5/3
f 227/5/3 226/5/3 225/5/3
f 228/5/3 226/5/3 227/5/3
f 233/5/3 230/5/3 229/5/3
f 234/5/3 230/5/3 233/5/3
f 243/5/3 232/5/3 231/5/3
f 244/5/3 232/5/3 243/5/3
f 245/6/3 236/6/3 235/6/3
f 246/6/3 236/6/3 245/6/3
f 247/6/3 245/6/3 235/6/3
f 247/4/3 246/4/3 245/4/3
f 248/6/3 236/6/3 246/6/3
f 248/4/3 246/4/3 247/4/3
f 249/4/3 237/4/3 236/4/3
f 249/6/3 236/6/3 248/6/3
f 249/6/3 248/6/3 247/6/3
f 250/6/3 238/6/3 237/6/3
f 250/4/3 237/4/3 249/4/3
f 251/4/3 239/4/3 238/4/3
f 251/6/3 238/6/3 250/6/3
f 251/6/3 250/6/3 249/6/3
f 252/6/3 240/6/3 239/6/3
f 252/4/3 239/4/3 251/4/3
f 253/3/3 241/3/3 240/3/3
f 253/6/3 240/6/3 252/6/3
f 253/6/3 252/6/3 251/6/3
f 254/6/3 242/6/3 241/6/3
f 254/3/3 241/3/3 253/3/3
f 255/6/3 253/6/3 251/6/3
f 255/6/3 251/6/3 249/6/3
f 255/6/3 254/6/3 253/6/3
f 256/6/3 254/6/3 255/6/3
f 257/6/3 249/6/3 247/6/3
f 257/6/3 255/6/3 249/6/3
f 258/6/3 255/6/3 257/6/3
f 259/6/3 257/6/3 247/6/3
f 259/1/3 258/1/3 257/1/3
f 260/6/3 255/6/3 258/6/3
f 260/1/3 258/1/3 259/1/3
f 261/1/3 256/1/3 255/1/3
f 261/6/3 255/6/3 260/6/3
f 261/6/3 260/6/3 259/6/3
f 262/6/3 254/6/3 256/6/3
f 262/1/3 256/1/3 261/1/3
f 263/6/3 262/6/3 261/6/3
f 263/6/3 254/6/3 262/6/3
f 264/6/3 254/6/3 263/6/3
f 265/6/3 254/6/3 264/6/3
f 266/6/3 242/6/3 254/6/3
f 266/6/3 254/6/3 265/6/3
f 267/6/3 261/6/3 259/6/3
f 267/6/3 259/6/3 247/6/3
f 267/6/3 263/6/3 261/6/3
f 268/6/3 263/6/3 267/6/3
f 269/6/3 247/6/3 235/6/3
f 269/6/3 267/6/3 247/6/3
f 270/6/3 267/6/3 269/6/3
f 271/6/3 263/6/3 268/6/3
f 272/6/3 263/6/3 271/6/3
f 275/6/3 269/6/3 235/6/3
f 276/1/3 270/1/3 269/1/3
f 276/6/3 269/6/3 275/6/3
f 277/6/3 267/6/3 270/6/3
f 277/1/3 270/1/3 276/1/3
f 278/3/3 268/3/3 267/3/3
f 278/6/3 267/6/3 277/6/3
f 279/6/3 271/6/3 268/6/3
f 279/3/3 268/3/3 278/3/3
f 280/3/3 272/3/3 271/3/3
f 280/6/3 271/6/3 279/6/3
f 281/6/3 263/6/3 272/6/3
f 281/3/3 272/3/3 280/3/3
f 282/4/3 264/4/3 263/4/3
f 282/6/3 263/6/3 281/6/3
f 283/6/3 265/6/3 264/6/3
f 283/4/3 264/4/3 282/4/3
f 284/4/3 266/4/3 265/4/3
f 284/6/3 265/6/3 283/6/3
f 285/6/3 242/6/3 266/6/3
f 285/4/3 266/4/3 284/4/3
f 286/6/3 242/6/3 285/6/3
f 289/5/3 274/5/3 273/5/3
f 290/5/3 274/5/3 289/5/3
f 291/5/3 288/5/3 287/5/3
f 292/5/3 288/5/3 291/5/3
f 297/6/3 294/6/3 293/6/3
f 298/6/3 294/6/3 297/6/3
f 299/6/3 296/6/3 295/6/3
f 300/6/3 296/6/3 299/6/3
f 303/5/3 302/5/3 301/5/3
f 304/5/3 302/5/3 303/5/3
f 307/5/3 306/5/3 305/5/3
f 308/5/3 306/5/3 307/5/3
f 311/5/3 310/5/3 309/5/3
f 312/5/3 310/5/3 311/5/3
f 315/5/3 314/5/3 313/5/3
f 316/5/3 314/5/3 315/5/3
f 319/5/3 318/5/3 317/5/3
f 320/5/3 318/5/3 319/5/3
f 323/5/3 322/5/3 321/5/3
f 324/5/3 322/5/3 323/5/3
f 327/5/3 326/5/3 325/5/3
f 328/5/3 326/5/3 327/5/3
f 331/5/3 330/5/3 329/5/3
f 332/5/3 330/5/3 331/5/3
f 335/5/3 334/5/3 333/5/3
f 336/5/3 334/5/3 335/5/3
f 339/5/3 338/5/3 337/5/3
f 340/5/3 338/5/3 339/5/3
f 343/5/3 342/5/3 341/5/3
f 344/5/3 342/5/3 343/5/3
f 347/5/3 346/5/3 345/5/3
f 348/5/3 346/5/3 347/5/3
f 353/5/3 350/5/3 349/5/3
f 354/5/3 350/5/3 353/5/3
f 355/5/3 352/5/3 351/5/3
f 356/5/3 352/5/3 355/5/3
f 357/5/4 358/5/4 359/5/4
f 359/5/4 358/5/4 360/5/4
f 361/5/4 362/5/4 363/5/4
f 363/5/4 362/5/4 364/5/4
f 365/5/4 366/5/4 367/5/4
f 367/5/4 366/5/4 368/5/4
f 369/5/4 370/5/4 371/5/4
f 371/5/4 370/5/4 372/5/4
f 373/5/4 374/5/4 375/5/4
f 375/5/4 374/5/4 376/5/4
f 377/5/4 378/5/4 379/5/4
f 379/5/4 378/5/4 380/5/4
f 381/5/4 382/5/4 383/5/4
f 383/5/4 382/5/4 384/5/4
f 385/5/4 386/5/4 387/5/4
f 387/5/4 386/5/4 388/5/4
f 389/5/4 390/5/4 391/5/4
f 391/5/4 390/5/4 392/5/4
f 393/5/4 394/5/4 395/5/4
f 395/5/4 394/5/4 396/5/4
f 397/5/4 398/5/4 399/5/4
f 399/5/4 398/5/4 400/5/4
f 401/5/4 402/5/4 403/5/4
f 403/5/4 402/5/4 404/5/4
f 405/5/4 406/5/4 407/5/4
f 407/5/4 406/5/4 408/5/4
f 409/5/4 410/5/4 411/5/4
f 411/5/4 410/5/4 412/5/4
f 413/6/4 414/6/4 417/6/4
f 417/6/4 414/6/4 418/6/4
f 415/6/4 416/6/4 419/6/4
f 419/6/4 416/6/4 420/6/4
f 421/5/4 422/5/4 425/5/4
f 425/5/4 422/5/4 426/5/4
f 423/5/4 424/5/4 437/5/4
f 437/5/4 424/5/4 438/5/4
f 427/6/4 428/6/4 439/6/4
f 428/1/4 429/1/4 439/1/4
f 429/6/4 430/6/4 440/6/4
f 439/1/4 429/1/4 440/1/4
f 430/1/4 431/1/4 441/1/4
f 440/6/4 430/6/4 441/6/4
f 439/6/4 440/6/4 441/6/4
f 431/6/4 432/6/4 442/6/4
f 441/1/4 431/1/4 442/1/4
f 432/3/4 433/3/4 443/3/4
f 442/6/4 432/6/4 443/6/4
f 441/6/4 442/6/4 443/6/4
f 433/6/4 434/6/4 444/6/4
f 443/3/4 433/3/4 444/3/4
f 434/3/4 435/3/4 445/3/4
f 444/6/4 434/6/4 445/6/4
f 443/6/4 444/6/4 445/6/4
f 435/6/4 436/6/4 446/6/4
f 445/3/4 435/3/4 446/3/4
f 443/6/4 445/6/4 447/6/4
f 441/6/4 443/6/4 447/6/4
f 445/6/4 446/6/4 447/6/4
f 447/6/4 446/6/4 448/6/4
f 446/6/4 436/6/4 449/6/4
f 448/6/4 446/6/4 449/6/4
f 449/6/4 436/6/4 450/6/4
f 448/6/4 449/6/4 451/6/4
f 451/6/4 449/6/4 452/6/4
f 439/6/4 441/6/4 453/6/4
f 441/6/4 447/6/4 453/6/4
f 453/6/4 447/6/4 454/6/4
f 454/6/4 447/6/4 455/6/4
f 455/6/4 447/6/4 456/6/4
f 427/6/4 439/6/4 457/6/4
f 439/6/4 453/6/4 457/6/4
f 457/6/4 453/6/4 458/6/4
f 427/6/4 457/6/4 461/6/4
f 457/4/4 458/4/4 462/4/4
f 461/6/4 457/6/4 462/6/4
f 458/6/4 453/6/4 463/6/4
f 462/4/4 458/4/4 463/4/4
f 453/4/4 454/4/4 464/4/4
f 463/6/4 453/6/4 464/6/4
f 454/6/4 455/6/4 465/6/4
f 464/4/4 454/4/4 465/4/4
f 455/4/4 456/4/4 466/4/4
f 465/6/4 455/6/4 466/6/4
f 456/6/4 447/6/4 467/6/4
f 466/4/4 456/4/4 467/4/4
f 447/3/4 448/3/4 468/3/4
f 467/6/4 447/6/4 468/6/4
f 448/6/4 451/6/4 469/6/4
f 468/3/4 448/3/4 469/3/4
f 451/4/4 452/4/4 470/4/4
f 469/6/4 451/6/4 470/6/4
f 452/6/4 449/6/4 471/6/4
f 470/4/4 452/4/4 471/4/4
f 449/4/4 450/4/4 472/4/4
f 471/6/4 449/6/4 472/6/4
f 450/6/4 436/6/4 473/6/4
f 472/4/4 450/4/4 473/4/4
f 473/6/4 436/6/4 474/6/4
f 459/5/4 460/5/4 477/5/4
f 477/5/4 460/5/4 478/5/4
f 475/5/4 476/5/4 479/5/4
f 479/5/4 476/5/4 480/5/4
f 481/5/4 482/5/4 483/5/4
f 483/5/4 482/5/4 484/5/4
f 485/5/4 486/5/4 487/5/4
f 487/5/4 486/5/4 488/5/4
f 493/5/5 490/5/5 489/5/5
f 494/5/5 490/5/5 493/5/5
f 495/5/5 492/5/5 491/5/5
f 496/5/5 492/5/5 495/5/5
f 501/5/5 498/5/5 497/5/5
f 502/5/5 498/5/5 501/5/5
f 503/5/5 500/5/5 499/5/5
f 504/5/5 500/5/5 503/5/5
f 507/6/5 506/6/5 505/6/5
f 508/6/5 506/6/5 507/6/5
f 513/5/5 510/5/5 509/5/5
f 514/5/5 510/5/5 513/5/5
f 515/5/5 512/5/5 511/5/5
f 516/5/5 512/5/5 515/5/5
f 519/6/5 518/6/5 517/6/5
f 520/6/5 518/6/5 519/6/5
f 523/6/5 522/6/5 521/6/5
f 524/6/5 522/6/5 523/6/5
f 527/5/5 526/5/5 525/5/5
f 528/5/5 526/5/5 527/5/5
f 531/5/5 530/5/5 529/5/5
f 532/5/5 530/5/5 531/5/5
f 535/5/5 534/5/5 533/5/5
f 536/5/5 534/5/5 535/5/5
f 539/5/5 538/5/5 537/5/5
f 540/5/5 538/5/5 539/5/5
f 543/5/5 542/5/5 541/5/5
f 544/5/5 542/5/5 543/5/5
f 547/5/5 546/5/5 545/5/5
f 548/5/5 546/5/5 547/5/5
f 551/5/5 550/5/5 549/5/5
f 552/5/5 550/5/5 551/5/5
f 555/5/5 554/5/5 553/5/5
f 556/5/5 554/5/5 555/5/5
f 557/5/6 558/5/6 559/5/6
f 559/5/6 558/5/6 560/5/6
f 561/5/6 562/5/6 563/5/6
f 563/5/6 562/5/6 564/5/6
f 565/5/6 566/5/6 569/5/6
f 569/5/6 566/5/6 570/5/6
f 567/5/6 568/5/6 571/5/6
f 571/5/6 568/5/6 572/5/6
f 573/5/6 574/5/6 575/5/6
f 575/5/6 574/5/6 576/5/6
f 577/5/6 578/5/6 579/5/6
f 579/5/6 578/5/6 580/5/6
f 581/5/6 582/5/6 583/5/6
f 583/5/6 582/5/6 584/5/6
f 585/5/6 586/5/6 587/5/6
f 587/5/6 586/5/6 588/5/6
f 589/6/6 590/6/6 591/6/6
f 591/6/6 590/6/6 592/6/6
f 593/6/6 594/6/6 595/6/6
f 595/6/6 594/6/6 596/6/6
f 597/5/6 598/5/6 601/5/6
f 601/5/6 598/5/6 602/5/6
f 599/5/6 600/5/6 603/5/6
f 603/5/6 600/5/6 604/5/6
f 605/6/6 606/6/6 615/6/6
f 615/6/6 606/6/6 616/6/6
f 615/2/6 616/2/6 617/2/6
f 616/6/6 606/6/6 618/6/6
f 617/2/6 616/2/6 618/2/6
f 605/6/6 615/6/6 619/6/6
f 615/2/6 617/2/6 619/2/6
f 617/6/6 618/6/6 620/6/6
f 619/2/6 617/2/6 620/2/6
f 619/6/6 620/6/6 621/6/6
f 620/6/6 618/6/6 621/6/6
f 618/6/6 606/6/6 622/6/6
f 621/6/6 618/6/6 622/6/6
f 607/5/6 608/5/6 623/5/6
f 623/5/6 608/5/6 624/5/6
f 619/6/6 621/6/6 625/6/6
f 605/6/6 619/6/6 625/6/6
f 625/6/6 621/6/6 626/6/6
f 621/2/6 622/2/6 629/2/6
f 626/6/6 621/6/6 629/6/6
f 629/2/6 622/2/6 630/2/6
f 609/5/6 610/5/6 631/5/6
f 631/5/6 610/5/6 632/5/6
f 629/6/6 630/6/6 633/6/6
f 625/2/6 626/2/6 633/2/6
f 626/6/6 629/6/6 633/6/6
f 633/6/6 630/6/6 634/6/6
f 630/2/6 622/2/6 637/2/6
f 634/6/6 630/6/6 637/6/6
f 622/6/6 606/6/6 638/6/6
f 637/2/6 622/2/6 638/2/6
f 634/6/6 637/6/6 639/6/6
f 637/6/6 638/6/6 639/6/6
f 638/6/6 606/6/6 640/6/6
f 639/6/6 638/6/6 640/6/6
f 634/6/6 639/6/6 641/6/6
f 639/2/6 640/2/6 642/2/6
f 641/6/6 639/6/6 642/6/6
f 605/6/6 625/6/6 643/6/6
f 625/2/6 633/2/6 643/2/6
f 633/2/6 634/2/6 643/2/6
f 634/6/6 641/6/6 644/6/6
f 643/2/6 634/2/6 644/2/6
f 641/2/6 642/2/6 645/2/6
f 644/6/6 641/6/6 645/6/6
f 640/6/6 606/6/6 646/6/6
f 645/2/6 642/2/6 646/2/6
f 642/2/6 640/2/6 646/2/6
f 613/5/6 614/5/6 647/5/6
f 647/5/6 614/5/6 648/5/6
f 627/5/6 628/5/6 649/5/6
f 649/5/6 628/5/6 650/5/6
f 635/5/6 636/5/6 651/5/6
f 651/5/6 636/5/6 652/5/6
f 611/5/6 612/5/6 653/5/6
f 653/5/6 612/5/6 654/5/6
f 644/6/6 645/6/6 655/6/6
f 605/6/6 643/6/6 655/6/6
f 645/6/6 646/6/6 655/6/6
f 643/6/6 644/6/6 655/6/6
f 646/6/6 606/6/6 656/6/6
f 655/6/6 646/6/6 656/6/6
f 657/5/6 658/5/6 661/5/6
f 661/5/6 658/5/6 662/5/6
f 659/5/6 660/5/6 663/5/6
f 663/5/6 660/5/6 664/5/6
f 667/5/6 668/5/6 669/5/6
f 669/5/6 668/5/6 670/5/6
f 670/5/6 668/5/6 671/5/6
f 671/5/6 668/5/6 672/5/6
f 672/5/6 668/5/6 673/5/6
f 673/5/6 668/5/6 674/5/6
f 665/5/6 666/5/6 675/5/6
f 675/5/6 666/5/6 676/5/6
f 667/5/6 669/5/6 677/5/6
f 670/5/6 671/5/6 678/5/6
f 676/5/6 666/5/6 679/5/6
f 679/5/6 666/5/6 680/5/6
f 677/5/6 678/5/6 681/5/6
f 678/5/6 671/5/6 681/5/6
f 672/5/6 673/5/6 682/5/6
f 680/5/6 666/5/6 683/5/6
f 683/5/6 666/5/6 684/5/6
f 665/5/6 675/5/6 685/5/6
f 676/5/6 679/5/6 686/5/6
f 686/5/6 679/5/6 687/5/6
f 680/5/6 683/5/6 688/5/6
f 688/5/6 683/5/6 689/5/6
f 684/5/6 666/5/6 690/5/6
f 681/5/6 682/5/6 691/5/6
f 682/5/6 673/5/6 691/5/6
f 674/5/6 668/5/6 692/5/6
f 689/5/6 690/5/6 693/5/6
f 688/5/6 689/5/6 693/5/6
f 665/5/6 685/5/6 693/5/6
f 686/5/6 687/5/6 693/5/6
f 685/5/6 686/5/6 693/5/6
f 687/5/6 688/5/6 693/5/6
f 690/5/6 666/5/6 694/5/6
f 693/5/6 690/5/6 694/5/6
f 681/5/6 691/5/6 695/5/6
f 691/5/6 692/5/6 695/5/6
f 677/5/6 681/5/6 695/5/6
f 667/5/6 677/5/6 695/5/6
f 692/5/6 668/5/6 696/5/6
f 695/5/6 692/5/6 696/5/6
