# MagicaVoxel @ Ephtracy

# group
o 

# material
mtllib ceilingLight.mtl
usemtl palette

# normals
vn -1 0 0
vn 1 0 0
vn 0 0 1
vn 0 0 -1
vn 0 -1 0
vn 0 1 0

# texcoords
vt 0.333984 0.5
vt 0.349609 0.5
vt 0.353516 0.5
vt 0.361328 0.5
vt 0.365234 0.5

# verts
v -1.3 0 0.8
v -1.3 0 -0.8
v -1.3 0.3 0.8
v -1.3 0.3 -0.8
v -1.1 0.3 0.6
v -1.1 0.3 -0.6
v -1.1 0.4 0.6
v -1.1 0.4 -0.6
v 1.5 0.3 0.4
v 1.5 0.3 -0.4
v 1.5 0.4 0.4
v 1.5 0.4 -0.4
v -0.9 0.3 0.4
v -0.9 0.3 -0.4
v -0.9 0.4 0.4
v -0.9 0.4 -0.4
v 1.7 0.3 0.6
v 1.7 0.3 -0.6
v 1.7 0.4 0.6
v 1.7 0.4 -0.6
v 1.9 0 0.8
v 1.9 0 -0.8
v 1.9 0.3 0.8
v 1.9 0.3 -0.8
v -1.3 0 0.8
v -1.3 0.3 0.8
v 1.9 0 0.8
v 1.9 0.3 0.8
v -1.1 0.3 0.6
v -1.1 0.4 0.6
v 1.7 0.3 0.6
v 1.7 0.4 0.6
v -0.9 0.3 -0.4
v -0.9 0.4 -0.4
v 1.5 0.3 -0.4
v 1.5 0.4 -0.4
v -0.9 0.3 0.4
v -0.9 0.4 0.4
v 1.5 0.3 0.4
v 1.5 0.4 0.4
v -1.1 0.3 -0.6
v -1.1 0.4 -0.6
v 1.7 0.3 -0.6
v 1.7 0.4 -0.6
v -1.3 0 -0.8
v -1.3 0.3 -0.8
v 1.9 0 -0.8
v 1.9 0.3 -0.8
v -1.3 0 0.8
v 1.9 0 0.8
v -1.3 0 -0.8
v 1.9 0 -0.8
v -1.3 0.3 0.8
v 1.9 0.3 0.8
v -1.2 0.3 0.7
v 1.8 0.3 0.7
v -1.1 0.3 0.6
v 1.7 0.3 0.6
v -0.9 0.3 0.4
v 1.5 0.3 0.4
v -0.8 0.3 0.3
v 1.4 0.3 0.3
v -0.8 0.3 -0.3
v 1.4 0.3 -0.3
v -0.9 0.3 -0.4
v 1.5 0.3 -0.4
v -1.1 0.3 -0.6
v 1.7 0.3 -0.6
v -1.2 0.3 -0.7
v 1.8 0.3 -0.7
v -1.3 0.3 -0.8
v 1.9 0.3 -0.8
v -1.1 0.4 0.6
v 1.7 0.4 0.6
v -1 0.4 0.5
v 1.6 0.4 0.5
v -0.9 0.4 0.4
v 1.5 0.4 0.4
v -0.9 0.4 -0.4
v 1.5 0.4 -0.4
v -1 0.4 -0.5
v 1.6 0.4 -0.5
v -1.1 0.4 -0.6
v 1.7 0.4 -0.6

# faces
f 3/5/1 2/5/1 1/5/1
f 4/5/1 2/5/1 3/5/1
f 7/2/1 6/2/1 5/2/1
f 8/2/1 6/2/1 7/2/1
f 11/5/1 10/5/1 9/5/1
f 12/5/1 10/5/1 11/5/1
f 13/5/2 14/5/2 15/5/2
f 15/5/2 14/5/2 16/5/2
f 17/2/2 18/2/2 19/2/2
f 19/2/2 18/2/2 20/2/2
f 21/5/2 22/5/2 23/5/2
f 23/5/2 22/5/2 24/5/2
f 27/5/3 26/5/3 25/5/3
f 28/5/3 26/5/3 27/5/3
f 31/2/3 30/2/3 29/2/3
f 32/2/3 30/2/3 31/2/3
f 35/5/3 34/5/3 33/5/3
f 36/5/3 34/5/3 35/5/3
f 37/5/4 38/5/4 39/5/4
f 39/5/4 38/5/4 40/5/4
f 41/2/4 42/2/4 43/2/4
f 43/2/4 42/2/4 44/2/4
f 45/5/4 46/5/4 47/5/4
f 47/5/4 46/5/4 48/5/4
f 51/5/5 50/5/5 49/5/5
f 52/5/5 50/5/5 51/5/5
f 53/5/6 54/5/6 55/5/6
f 55/5/6 54/5/6 56/5/6
f 55/1/6 56/1/6 57/1/6
f 57/1/6 56/1/6 58/1/6
f 59/4/6 60/4/6 61/4/6
f 61/4/6 60/4/6 62/4/6
f 59/4/6 61/4/6 63/4/6
f 61/3/6 62/3/6 63/3/6
f 62/4/6 60/4/6 64/4/6
f 63/3/6 62/3/6 64/3/6
f 59/4/6 63/4/6 65/4/6
f 63/4/6 64/4/6 65/4/6
f 64/4/6 60/4/6 66/4/6
f 65/4/6 64/4/6 66/4/6
f 55/1/6 57/1/6 67/1/6
f 58/1/6 56/1/6 68/1/6
f 53/5/6 55/5/6 69/5/6
f 67/1/6 68/1/6 69/1/6
f 55/1/6 67/1/6 69/1/6
f 68/1/6 56/1/6 70/1/6
f 69/1/6 68/1/6 70/1/6
f 56/5/6 54/5/6 70/5/6
f 53/5/6 69/5/6 71/5/6
f 69/5/6 70/5/6 71/5/6
f 70/5/6 54/5/6 72/5/6
f 71/5/6 70/5/6 72/5/6
f 73/2/6 74/2/6 75/2/6
f 75/2/6 74/2/6 76/2/6
f 75/5/6 76/5/6 77/5/6
f 77/5/6 76/5/6 78/5/6
f 75/5/6 77/5/6 79/5/6
f 78/5/6 76/5/6 80/5/6
f 73/2/6 75/2/6 81/2/6
f 79/5/6 80/5/6 81/5/6
f 75/5/6 79/5/6 81/5/6
f 80/5/6 76/5/6 82/5/6
f 81/5/6 80/5/6 82/5/6
f 76/2/6 74/2/6 82/2/6
f 73/2/6 81/2/6 83/2/6
f 81/2/6 82/2/6 83/2/6
f 82/2/6 74/2/6 84/2/6
f 83/2/6 82/2/6 84/2/6
