# MagicaVoxel @ Ephtracy

# group
o 

# material
mtllib centrifuge.mtl
usemtl palette

# normals
vn -1 0 0
vn 1 0 0
vn 0 0 1
vn 0 0 -1
vn 0 -1 0
vn 0 1 0

# texcoords
vt 0.333984 0.5
vt 0.349609 0.5
vt 0.361328 0.5
vt 0.619141 0.5
vt 0.642578 0.5
vt 0.830078 0.5
vt 0.861328 0.5
vt 0.927734 0.5

# verts
v -0.5 1 0.6
v -0.5 1 -0.3
v -0.5 1.1 0.5
v -0.5 1.1 -0.2
v -0.5 1.2 0.5
v -0.5 1.2 -0.2
v -0.5 1.3 0.6
v -0.5 1.3 -0.3
v -0.5 1.4 0.6
v -0.5 1.4 -0.4
v -0.5 1.5 0.6
v -0.5 1.5 -0.4
v -0.4 1 0.7
v -0.4 1 0.6
v -0.4 1 -0.3
v -0.4 1 -0.5
v -0.4 1.3 0.7
v -0.4 1.3 0.6
v -0.4 1.3 -0.3
v -0.4 1.4 0.7
v -0.4 1.4 0.6
v -0.4 1.4 -0.3
v -0.4 1.4 -0.4
v -0.4 1.5 0.7
v -0.4 1.5 0.6
v -0.4 1.5 -0.3
v -0.4 1.5 -0.4
v -0.4 2.9 0.6
v -0.4 2.9 -0.3
v -0.4 3 0.6
v -0.4 3 -0.5
v -0.3 1 -0.5
v -0.3 1 -0.6
v -0.3 2.4 0.3
v -0.3 2.4 0.2
v -0.3 2.4 0.1
v -0.3 2.5 0.3
v -0.3 2.5 0.2
v -0.3 2.5 0.1
v -0.3 2.5 -0.3
v -0.3 2.6 0.3
v -0.3 2.6 0.2
v -0.3 2.6 -0.3
v -0.3 3 0.6
v -0.3 3 -0.5
v -0.3 3 -0.6
v -0.3 3.1 0.6
v -0.3 3.1 -0.5
v -0.2 1.1 0.4
v -0.2 1.1 -5.96046e-08
v -0.2 1.2 0.4
v -0.2 1.2 -5.96046e-08
v -0.2 2.3 0.3
v -0.2 2.3 0.1
v -0.2 2.4 0.4
v -0.2 2.4 0.3
v -0.2 2.4 0.2
v -0.2 2.4 0.1
v -0.2 2.4 -5.96046e-08
v -0.2 2.5 0.3
v -0.2 2.5 0.1
v -0.2 2.5 -5.96046e-08
v -0.2 2.6 0.3
v -0.2 2.6 0.2
v -0.2 2.6 0.1
v -0.2 2.6 -5.96046e-08
v -0.2 3 0.4
v -0.2 3 0.3
v -0.2 3 0.1
v -0.2 3 -5.96046e-08
v -0.1 1.2 0.3
v -0.1 1.2 0.1
v -0.1 1.3 0.3
v -0.1 1.3 0.1
v -0.1 1.4 0.3
v -0.1 1.4 0.1
v -0.1 1.7 0.3
v -0.1 1.7 0.1
v -0.1 2.2 0.3
v -0.1 2.2 0.1
v -0.1 2.3 0.4
v -0.1 2.3 0.3
v -0.1 2.3 0.1
v -0.1 2.3 -5.96046e-08
v -0.1 2.4 0.5
v -0.1 2.4 0.4
v -0.1 2.4 0.3
v -0.1 2.4 0.1
v -0.1 2.4 -5.96046e-08
v -0.1 2.4 -0.1
v -0.1 2.5 0.5
v -0.1 2.5 0.4
v -0.1 2.6 0.5
v -0.1 2.6 0.4
v -0.1 2.7 0.5
v -0.1 2.7 0.4
v -0.1 2.8 0.5
v -0.1 2.8 0.4
v -0.1 2.9 0.5
v -0.1 2.9 0.4
v -0.1 3 0.5
v -0.1 3 0.4
v -0.1 3 -5.96046e-08
v -0.1 3 -0.1
v 0.2 2.5 -5.96046e-08
v 0.2 2.5 -0.3
v 0.2 2.6 -5.96046e-08
v 0.2 2.6 -0.3
v 0.3 2.9 0.6
v 0.3 2.9 -0.3
v 0.3 3 0.6
v 0.3 3 -0.3
v 0.4 1.1 0.6
v 0.4 1.1 0.5
v 0.4 1.1 -0.2
v 0.4 1.1 -0.3
v 0.4 1.2 0.5
v 0.4 1.2 -0.2
v 0.4 1.3 0.6
v 0.4 1.3 -0.3
v 0.4 1.4 0.6
v 0.4 1.4 -0.3
v 0.4 1.5 0.6
v 0.4 1.5 -0.3
v -0.4 1.1 0.6
v -0.4 1.1 0.5
v -0.4 1.1 -0.2
v -0.4 1.1 -0.3
v -0.4 1.2 0.5
v -0.4 1.2 -0.2
v -0.4 1.3 0.6
v -0.4 1.3 -0.3
v -0.4 1.4 0.6
v -0.4 1.4 -0.3
v -0.4 1.5 0.6
v -0.4 1.5 -0.3
v -0.3 2.9 0.6
v -0.3 2.9 -0.3
v -0.3 3 0.6
v -0.3 3 -0.3
v -0.2 2.5 -5.96046e-08
v -0.2 2.5 -0.3
v -0.2 2.6 -5.96046e-08
v -0.2 2.6 -0.3
v 0.1 1.2 0.3
v 0.1 1.2 0.1
v 0.1 1.3 0.3
v 0.1 1.3 0.1
v 0.1 1.4 0.3
v 0.1 1.4 0.1
v 0.1 1.7 0.3
v 0.1 1.7 0.1
v 0.1 2.2 0.3
v 0.1 2.2 0.1
v 0.1 2.3 0.4
v 0.1 2.3 0.3
v 0.1 2.3 0.1
v 0.1 2.3 -5.96046e-08
v 0.1 2.4 0.5
v 0.1 2.4 0.4
v 0.1 2.4 0.3
v 0.1 2.4 0.1
v 0.1 2.4 -5.96046e-08
v 0.1 2.4 -0.1
v 0.1 2.5 0.5
v 0.1 2.5 0.4
v 0.1 2.6 0.5
v 0.1 2.6 0.4
v 0.1 2.7 0.5
v 0.1 2.7 0.4
v 0.1 2.8 0.5
v 0.1 2.8 0.4
v 0.1 2.9 0.5
v 0.1 2.9 0.4
v 0.1 3 0.5
v 0.1 3 0.4
v 0.1 3 -5.96046e-08
v 0.1 3 -0.1
v 0.2 1.1 0.4
v 0.2 1.1 -5.96046e-08
v 0.2 1.2 0.4
v 0.2 1.2 -5.96046e-08
v 0.2 2.3 0.3
v 0.2 2.3 0.1
v 0.2 2.4 0.4
v 0.2 2.4 0.3
v 0.2 2.4 0.2
v 0.2 2.4 0.1
v 0.2 2.4 -5.96046e-08
v 0.2 2.5 0.3
v 0.2 2.5 0.1
v 0.2 2.5 -5.96046e-08
v 0.2 2.6 0.3
v 0.2 2.6 0.2
v 0.2 2.6 0.1
v 0.2 2.6 -5.96046e-08
v 0.2 3 0.4
v 0.2 3 0.3
v 0.2 3 0.1
v 0.2 3 -5.96046e-08
v 0.3 1 -0.5
v 0.3 1 -0.6
v 0.3 2.4 0.3
v 0.3 2.4 0.2
v 0.3 2.4 0.1
v 0.3 2.5 0.3
v 0.3 2.5 0.2
v 0.3 2.5 0.1
v 0.3 2.5 -0.3
v 0.3 2.6 0.3
v 0.3 2.6 0.2
v 0.3 2.6 -0.3
v 0.3 3 0.6
v 0.3 3 -0.5
v 0.3 3 -0.6
v 0.3 3.1 0.6
v 0.3 3.1 -0.5
v 0.4 1 0.7
v 0.4 1 0.6
v 0.4 1 -0.3
v 0.4 1 -0.5
v 0.4 1.3 0.7
v 0.4 1.3 0.6
v 0.4 1.3 -0.3
v 0.4 1.4 0.7
v 0.4 1.4 0.6
v 0.4 1.4 -0.3
v 0.4 1.4 -0.4
v 0.4 1.5 0.7
v 0.4 1.5 0.6
v 0.4 1.5 -0.3
v 0.4 1.5 -0.4
v 0.4 2.9 0.6
v 0.4 2.9 -0.3
v 0.4 3 0.6
v 0.4 3 -0.5
v 0.5 1 0.6
v 0.5 1 -0.3
v 0.5 1.1 0.5
v 0.5 1.1 -0.2
v 0.5 1.2 0.5
v 0.5 1.2 -0.2
v 0.5 1.3 0.6
v 0.5 1.3 -0.3
v 0.5 1.4 0.6
v 0.5 1.4 -0.4
v 0.5 1.5 0.6
v 0.5 1.5 -0.4
v -0.4 1 0.7
v -0.4 1.3 0.7
v -0.4 1.4 0.7
v -0.4 1.5 0.7
v -0.3 1.1 0.7
v -0.3 1.2 0.7
v -0.2 1.1 0.7
v -0.2 1.2 0.7
v 0 1.1 0.7
v 0 1.2 0.7
v 0.1 1.1 0.7
v 0.1 1.2 0.7
v 0.2 1.1 0.7
v 0.2 1.2 0.7
v 0.3 1.1 0.7
v 0.3 1.2 0.7
v 0.4 1 0.7
v 0.4 1.3 0.7
v 0.4 1.4 0.7
v 0.4 1.5 0.7
v -0.5 1 0.6
v -0.5 1.3 0.6
v -0.5 1.4 0.6
v -0.5 1.5 0.6
v -0.4 1 0.6
v -0.4 1.3 0.6
v -0.4 1.4 0.6
v -0.4 1.5 0.6
v -0.4 2.9 0.6
v -0.4 3 0.6
v -0.3 2.9 0.6
v -0.3 3 0.6
v -0.3 3.1 0.6
v 0.3 2.9 0.6
v 0.3 3 0.6
v 0.3 3.1 0.6
v 0.4 1 0.6
v 0.4 1.3 0.6
v 0.4 1.4 0.6
v 0.4 1.5 0.6
v 0.4 2.9 0.6
v 0.4 3 0.6
v 0.5 1 0.6
v 0.5 1.3 0.6
v 0.5 1.4 0.6
v 0.5 1.5 0.6
v -0.1 2.4 0.5
v -0.1 2.5 0.5
v -0.1 2.6 0.5
v -0.1 2.7 0.5
v -0.1 2.8 0.5
v -0.1 2.9 0.5
v -0.1 3 0.5
v 0.1 2.4 0.5
v 0.1 2.5 0.5
v 0.1 2.6 0.5
v 0.1 2.7 0.5
v 0.1 2.8 0.5
v 0.1 2.9 0.5
v 0.1 3 0.5
v -0.2 1.1 0.4
v -0.2 1.2 0.4
v -0.2 2.4 0.4
v -0.2 3 0.4
v -0.1 2.3 0.4
v -0.1 2.4 0.4
v -0.1 2.5 0.4
v -0.1 2.6 0.4
v -0.1 2.7 0.4
v -0.1 2.8 0.4
v -0.1 2.9 0.4
v -0.1 3 0.4
v 0.1 2.3 0.4
v 0.1 2.4 0.4
v 0.1 2.5 0.4
v 0.1 2.6 0.4
v 0.1 2.7 0.4
v 0.1 2.8 0.4
v 0.1 2.9 0.4
v 0.1 3 0.4
v 0.2 1.1 0.4
v 0.2 1.2 0.4
v 0.2 2.4 0.4
v 0.2 3 0.4
v -0.3 2.4 0.3
v -0.3 2.5 0.3
v -0.3 2.6 0.3
v -0.2 2.3 0.3
v -0.2 2.4 0.3
v -0.2 2.5 0.3
v -0.2 2.6 0.3
v -0.1 1.2 0.3
v -0.1 1.3 0.3
v -0.1 1.4 0.3
v -0.1 1.7 0.3
v -0.1 2.2 0.3
v -0.1 2.3 0.3
v -0.1 2.4 0.3
v 0.1 1.2 0.3
v 0.1 1.3 0.3
v 0.1 1.4 0.3
v 0.1 1.7 0.3
v 0.1 2.2 0.3
v 0.1 2.3 0.3
v 0.1 2.4 0.3
v 0.2 2.3 0.3
v 0.2 2.4 0.3
v 0.2 2.5 0.3
v 0.2 2.6 0.3
v 0.3 2.4 0.3
v 0.3 2.5 0.3
v 0.3 2.6 0.3
v -0.4 1.1 -0.3
v -0.4 1.3 -0.3
v -0.4 1.4 -0.3
v -0.4 1.5 -0.3
v -0.4 2.9 -0.3
v -0.3 2.5 -0.3
v -0.3 2.6 -0.3
v -0.3 2.9 -0.3
v -0.3 3 -0.3
v -0.2 2.5 -0.3
v -0.2 2.6 -0.3
v 0.2 2.5 -0.3
v 0.2 2.6 -0.3
v 0.3 2.5 -0.3
v 0.3 2.6 -0.3
v 0.3 2.9 -0.3
v 0.3 3 -0.3
v 0.4 1.1 -0.3
v 0.4 1.3 -0.3
v 0.4 1.4 -0.3
v 0.4 1.5 -0.3
v 0.4 2.9 -0.3
v -0.4 1.1 0.6
v -0.4 1.3 0.6
v -0.4 1.4 0.6
v -0.4 1.5 0.6
v -0.3 1.1 0.6
v -0.3 1.2 0.6
v -0.2 1.1 0.6
v -0.2 1.2 0.6
v 0 1.1 0.6
v 0 1.2 0.6
v 0.1 1.1 0.6
v 0.1 1.2 0.6
v 0.2 1.1 0.6
v 0.2 1.2 0.6
v 0.3 1.1 0.6
v 0.3 1.2 0.6
v 0.4 1.1 0.6
v 0.4 1.3 0.6
v 0.4 1.4 0.6
v 0.4 1.5 0.6
v -0.3 2.4 0.1
v -0.3 2.5 0.1
v -0.2 2.3 0.1
v -0.2 2.4 0.1
v -0.2 2.5 0.1
v -0.1 1.2 0.1
v -0.1 1.3 0.1
v -0.1 1.4 0.1
v -0.1 1.7 0.1
v -0.1 2.2 0.1
v -0.1 2.3 0.1
v -0.1 2.4 0.1
v 0.1 1.2 0.1
v 0.1 1.3 0.1
v 0.1 1.4 0.1
v 0.1 1.7 0.1
v 0.1 2.2 0.1
v 0.1 2.3 0.1
v 0.1 2.4 0.1
v 0.2 2.3 0.1
v 0.2 2.4 0.1
v 0.2 2.5 0.1
v 0.3 2.4 0.1
v 0.3 2.5 0.1
v -0.2 1.1 -5.96046e-08
v -0.2 1.2 -5.96046e-08
v -0.2 2.4 -5.96046e-08
v -0.2 2.5 -5.96046e-08
v -0.2 2.6 -5.96046e-08
v -0.2 3 -5.96046e-08
v -0.1 2.3 -5.96046e-08
v -0.1 2.4 -5.96046e-08
v -0.1 3 -5.96046e-08
v 0.1 2.3 -5.96046e-08
v 0.1 2.4 -5.96046e-08
v 0.1 3 -5.96046e-08
v 0.2 1.1 -5.96046e-08
v 0.2 1.2 -5.96046e-08
v 0.2 2.4 -5.96046e-08
v 0.2 2.5 -5.96046e-08
v 0.2 2.6 -5.96046e-08
v 0.2 3 -5.96046e-08
v -0.1 2.4 -0.1
v -0.1 3 -0.1
v 0.1 2.4 -0.1
v 0.1 3 -0.1
v -0.5 1 -0.3
v -0.5 1.3 -0.3
v -0.4 1 -0.3
v -0.4 1.3 -0.3
v 0.4 1 -0.3
v 0.4 1.3 -0.3
v 0.5 1 -0.3
v 0.5 1.3 -0.3
v -0.5 1.4 -0.4
v -0.5 1.5 -0.4
v -0.4 1.4 -0.4
v -0.4 1.5 -0.4
v 0.4 1.4 -0.4
v 0.4 1.5 -0.4
v 0.5 1.4 -0.4
v 0.5 1.5 -0.4
v -0.4 1 -0.5
v -0.4 3 -0.5
v -0.3 1 -0.5
v -0.3 3 -0.5
v -0.3 3.1 -0.5
v 0.3 1 -0.5
v 0.3 3 -0.5
v 0.3 3.1 -0.5
v 0.4 1 -0.5
v 0.4 3 -0.5
v -0.3 1 -0.6
v -0.3 3 -0.6
v 0.3 1 -0.6
v 0.3 3 -0.6
v -0.4 1 0.7
v 0.4 1 0.7
v -0.5 1 0.6
v -0.4 1 0.6
v 0.4 1 0.6
v 0.5 1 0.6
v -0.5 1 -0.3
v -0.4 1 -0.3
v 0.4 1 -0.3
v 0.5 1 -0.3
v -0.4 1 -0.5
v -0.3 1 -0.5
v 0.3 1 -0.5
v 0.4 1 -0.5
v -0.3 1 -0.6
v 0.3 1 -0.6
v -0.4 1.4 0.7
v 0.4 1.4 0.7
v -0.5 1.4 0.6
v -0.4 1.4 0.6
v 0.4 1.4 0.6
v 0.5 1.4 0.6
v -0.4 1.4 -0.3
v 0.4 1.4 -0.3
v -0.5 1.4 -0.4
v -0.4 1.4 -0.4
v 0.4 1.4 -0.4
v 0.5 1.4 -0.4
v -0.1 2.2 0.3
v 0.1 2.2 0.3
v -0.1 2.2 0.1
v 0.1 2.2 0.1
v -0.1 2.3 0.4
v 0.1 2.3 0.4
v -0.2 2.3 0.3
v -0.1 2.3 0.3
v 0.1 2.3 0.3
v 0.2 2.3 0.3
v -0.2 2.3 0.1
v -0.1 2.3 0.1
v 0.1 2.3 0.1
v 0.2 2.3 0.1
v -0.1 2.3 -5.96046e-08
v 0.1 2.3 -5.96046e-08
v -0.1 2.4 0.5
v 0.1 2.4 0.5
v -0.2 2.4 0.4
v -0.1 2.4 0.4
v 0.1 2.4 0.4
v 0.2 2.4 0.4
v -0.3 2.4 0.3
v -0.2 2.4 0.3
v -0.1 2.4 0.3
v 0.1 2.4 0.3
v 0.2 2.4 0.3
v 0.3 2.4 0.3
v -0.3 2.4 0.2
v -0.2 2.4 0.2
v 0.2 2.4 0.2
v 0.3 2.4 0.2
v -0.3 2.4 0.1
v -0.2 2.4 0.1
v -0.1 2.4 0.1
v 0.1 2.4 0.1
v 0.2 2.4 0.1
v 0.3 2.4 0.1
v -0.2 2.4 -5.96046e-08
v -0.1 2.4 -5.96046e-08
v 0.1 2.4 -5.96046e-08
v 0.2 2.4 -5.96046e-08
v -0.1 2.4 -0.1
v 0.1 2.4 -0.1
v -0.3 2.5 0.1
v -0.2 2.5 0.1
v 0.2 2.5 0.1
v 0.3 2.5 0.1
v -0.2 2.5 -5.96046e-08
v 0.2 2.5 -5.96046e-08
v -0.3 2.5 -0.3
v -0.2 2.5 -0.3
v 0.2 2.5 -0.3
v 0.3 2.5 -0.3
v -0.4 2.9 0.6
v -0.3 2.9 0.6
v 0.3 2.9 0.6
v 0.4 2.9 0.6
v -0.4 2.9 -0.3
v -0.3 2.9 -0.3
v 0.3 2.9 -0.3
v 0.4 2.9 -0.3
v -0.3 3 0.6
v 0.3 3 0.6
v -0.1 3 0.5
v 0.1 3 0.5
v -0.2 3 0.4
v -0.1 3 0.4
v 0.1 3 0.4
v 0.2 3 0.4
v -0.2 3 0.3
v 0.2 3 0.3
v -0.2 3 0.1
v 0.2 3 0.1
v -0.2 3 -5.96046e-08
v -0.1 3 -5.96046e-08
v 0.1 3 -5.96046e-08
v 0.2 3 -5.96046e-08
v -0.1 3 -0.1
v 0.1 3 -0.1
v -0.3 3 -0.3
v 0.3 3 -0.3
v -0.4 1.1 0.6
v -0.3 1.1 0.6
v -0.2 1.1 0.6
v 0 1.1 0.6
v 0.1 1.1 0.6
v 0.2 1.1 0.6
v 0.3 1.1 0.6
v 0.4 1.1 0.6
v -0.4 1.1 0.5
v 0.4 1.1 0.5
v -0.2 1.1 0.4
v 0.2 1.1 0.4
v -0.2 1.1 -5.96046e-08
v 0.2 1.1 -5.96046e-08
v -0.4 1.1 -0.2
v 0.4 1.1 -0.2
v -0.4 1.1 -0.3
v 0.4 1.1 -0.3
v -0.2 1.2 0.4
v 0.2 1.2 0.4
v -0.1 1.2 0.3
v 0.1 1.2 0.3
v -0.1 1.2 0.1
v 0.1 1.2 0.1
v -0.2 1.2 -5.96046e-08
v 0.2 1.2 -5.96046e-08
v -0.4 1.3 0.7
v 0.4 1.3 0.7
v -0.5 1.3 0.6
v -0.4 1.3 0.6
v 0.4 1.3 0.6
v 0.5 1.3 0.6
v -0.5 1.3 -0.3
v -0.4 1.3 -0.3
v 0.4 1.3 -0.3
v 0.5 1.3 -0.3
v -0.4 1.5 0.7
v 0.4 1.5 0.7
v -0.5 1.5 0.6
v -0.4 1.5 0.6
v 0.4 1.5 0.6
v 0.5 1.5 0.6
v -0.4 1.5 -0.3
v 0.4 1.5 -0.3
v -0.5 1.5 -0.4
v -0.4 1.5 -0.4
v 0.4 1.5 -0.4
v 0.5 1.5 -0.4
v -0.1 1.7 0.3
v 0.1 1.7 0.3
v -0.1 1.7 0.1
v 0.1 1.7 0.1
v -0.3 2.6 0.3
v -0.2 2.6 0.3
v 0.2 2.6 0.3
v 0.3 2.6 0.3
v -0.3 2.6 0.2
v -0.2 2.6 0.2
v 0.2 2.6 0.2
v 0.3 2.6 0.2
v -0.2 2.6 0.1
v 0.2 2.6 0.1
v -0.2 2.6 -5.96046e-08
v 0.2 2.6 -5.96046e-08
v -0.3 2.6 -0.3
v -0.2 2.6 -0.3
v 0.2 2.6 -0.3
v 0.3 2.6 -0.3
v -0.4 3 0.6
v -0.3 3 0.6
v 0.3 3 0.6
v 0.4 3 0.6
v -0.4 3 -0.5
v -0.3 3 -0.5
v 0.3 3 -0.5
v 0.4 3 -0.5
v -0.3 3 -0.6
v 0.3 3 -0.6
v -0.3 3.1 0.6
v 0.3 3.1 0.6
v -0.3 3.1 -0.5
v 0.3 3.1 -0.5

# faces
f 3/8/1 2/8/1 1/8/1
f 4/8/1 2/8/1 3/8/1
f 5/8/1 3/8/1 1/8/1
f 5/3/1 4/3/1 3/3/1
f 6/8/1 2/8/1 4/8/1
f 6/3/1 4/3/1 5/3/1
f 7/8/1 5/8/1 1/8/1
f 7/8/1 6/8/1 5/8/1
f 8/8/1 2/8/1 6/8/1
f 8/8/1 6/8/1 7/8/1
f 11/8/1 10/8/1 9/8/1
f 12/8/1 10/8/1 11/8/1
f 17/8/1 14/8/1 13/8/1
f 18/8/1 14/8/1 17/8/1
f 19/8/1 16/8/1 15/8/1
f 22/8/1 16/8/1 19/8/1
f 23/8/1 16/8/1 22/8/1
f 24/8/1 21/8/1 20/8/1
f 25/8/1 21/8/1 24/8/1
f 27/8/1 16/8/1 23/8/1
f 29/8/1 27/8/1 26/8/1
f 30/8/1 29/8/1 28/8/1
f 31/8/1 16/8/1 27/8/1
f 31/8/1 29/8/1 30/8/1
f 31/8/1 27/8/1 29/8/1
f 37/5/1 35/5/1 34/5/1
f 38/7/1 36/7/1 35/7/1
f 38/5/1 35/5/1 37/5/1
f 39/7/1 36/7/1 38/7/1
f 41/7/1 38/7/1 37/7/1
f 42/5/1 40/5/1 39/5/1
f 42/7/1 38/7/1 41/7/1
f 42/5/1 39/5/1 38/5/1
f 43/5/1 40/5/1 42/5/1
f 45/8/1 33/8/1 32/8/1
f 46/8/1 33/8/1 45/8/1
f 47/8/1 45/8/1 44/8/1
f 48/8/1 45/8/1 47/8/1
f 51/8/1 50/8/1 49/8/1
f 52/8/1 50/8/1 51/8/1
f 56/6/1 54/6/1 53/6/1
f 57/6/1 54/6/1 56/6/1
f 58/6/1 54/6/1 57/6/1
f 60/5/1 56/5/1 55/5/1
f 61/5/1 59/5/1 58/5/1
f 62/5/1 59/5/1 61/5/1
f 63/5/1 60/5/1 55/5/1
f 67/5/1 63/5/1 55/5/1
f 68/4/1 64/4/1 63/4/1
f 68/5/1 63/5/1 67/5/1
f 68/4/1 65/4/1 64/4/1
f 69/5/1 66/5/1 65/5/1
f 69/4/1 65/4/1 68/4/1
f 70/5/1 66/5/1 69/5/1
f 73/8/1 72/8/1 71/8/1
f 74/8/1 72/8/1 73/8/1
f 75/3/1 74/3/1 73/3/1
f 76/3/1 74/3/1 75/3/1
f 77/8/1 76/8/1 75/8/1
f 78/8/1 76/8/1 77/8/1
f 82/2/1 80/2/1 79/2/1
f 83/2/1 80/2/1 82/2/1
f 86/6/1 82/6/1 81/6/1
f 87/6/1 82/6/1 86/6/1
f 88/6/1 84/6/1 83/6/1
f 89/6/1 84/6/1 88/6/1
f 91/5/1 86/5/1 85/5/1
f 92/5/1 86/5/1 91/5/1
f 93/3/1 92/3/1 91/3/1
f 94/3/1 92/3/1 93/3/1
f 95/5/1 94/5/1 93/5/1
f 96/5/1 94/5/1 95/5/1
f 97/3/1 96/3/1 95/3/1
f 98/3/1 96/3/1 97/3/1
f 99/5/1 98/5/1 97/5/1
f 100/5/1 98/5/1 99/5/1
f 101/3/1 100/3/1 99/3/1
f 102/3/1 100/3/1 101/3/1
f 103/5/1 90/5/1 89/5/1
f 104/5/1 90/5/1 103/5/1
f 107/5/1 106/5/1 105/5/1
f 108/5/1 106/5/1 107/5/1
f 111/8/1 110/8/1 109/8/1
f 112/8/1 110/8/1 111/8/1
f 117/8/1 114/8/1 113/8/1
f 117/3/1 115/3/1 114/3/1
f 118/8/1 116/8/1 115/8/1
f 118/3/1 115/3/1 117/3/1
f 119/8/1 117/8/1 113/8/1
f 119/8/1 118/8/1 117/8/1
f 120/8/1 116/8/1 118/8/1
f 120/8/1 118/8/1 119/8/1
f 123/8/1 122/8/1 121/8/1
f 124/8/1 122/8/1 123/8/1
f 125/8/2 126/8/2 129/8/2
f 126/3/2 127/3/2 129/3/2
f 127/8/2 128/8/2 130/8/2
f 129/3/2 127/3/2 130/3/2
f 125/8/2 129/8/2 131/8/2
f 129/8/2 130/8/2 131/8/2
f 130/8/2 128/8/2 132/8/2
f 131/8/2 130/8/2 132/8/2
f 133/8/2 134/8/2 135/8/2
f 135/8/2 134/8/2 136/8/2
f 137/8/2 138/8/2 139/8/2
f 139/8/2 138/8/2 140/8/2
f 141/5/2 142/5/2 143/5/2
f 143/5/2 142/5/2 144/5/2
f 145/8/2 146/8/2 147/8/2
f 147/8/2 146/8/2 148/8/2
f 147/3/2 148/3/2 149/3/2
f 149/3/2 148/3/2 150/3/2
f 149/8/2 150/8/2 151/8/2
f 151/8/2 150/8/2 152/8/2
f 153/2/2 154/2/2 156/2/2
f 156/2/2 154/2/2 157/2/2
f 155/6/2 156/6/2 160/6/2
f 160/6/2 156/6/2 161/6/2
f 157/6/2 158/6/2 162/6/2
f 162/6/2 158/6/2 163/6/2
f 159/5/2 160/5/2 165/5/2
f 165/5/2 160/5/2 166/5/2
f 165/3/2 166/3/2 167/3/2
f 167/3/2 166/3/2 168/3/2
f 167/5/2 168/5/2 169/5/2
f 169/5/2 168/5/2 170/5/2
f 169/3/2 170/3/2 171/3/2
f 171/3/2 170/3/2 172/3/2
f 171/5/2 172/5/2 173/5/2
f 173/5/2 172/5/2 174/5/2
f 173/3/2 174/3/2 175/3/2
f 175/3/2 174/3/2 176/3/2
f 163/5/2 164/5/2 177/5/2
f 177/5/2 164/5/2 178/5/2
f 179/8/2 180/8/2 181/8/2
f 181/8/2 180/8/2 182/8/2
f 183/6/2 184/6/2 186/6/2
f 186/6/2 184/6/2 187/6/2
f 187/6/2 184/6/2 188/6/2
f 185/5/2 186/5/2 190/5/2
f 188/5/2 189/5/2 191/5/2
f 191/5/2 189/5/2 192/5/2
f 185/5/2 190/5/2 193/5/2
f 185/5/2 193/5/2 197/5/2
f 193/4/2 194/4/2 198/4/2
f 197/5/2 193/5/2 198/5/2
f 194/4/2 195/4/2 198/4/2
f 195/5/2 196/5/2 199/5/2
f 198/4/2 195/4/2 199/4/2
f 199/5/2 196/5/2 200/5/2
f 203/5/2 204/5/2 206/5/2
f 204/7/2 205/7/2 207/7/2
f 206/5/2 204/5/2 207/5/2
f 207/7/2 205/7/2 208/7/2
f 206/7/2 207/7/2 210/7/2
f 208/5/2 209/5/2 211/5/2
f 210/7/2 207/7/2 211/7/2
f 207/5/2 208/5/2 211/5/2
f 211/5/2 209/5/2 212/5/2
f 201/8/2 202/8/2 214/8/2
f 214/8/2 202/8/2 215/8/2
f 213/8/2 214/8/2 216/8/2
f 216/8/2 214/8/2 217/8/2
f 218/8/2 219/8/2 222/8/2
f 222/8/2 219/8/2 223/8/2
f 220/8/2 221/8/2 224/8/2
f 224/8/2 221/8/2 227/8/2
f 227/8/2 221/8/2 228/8/2
f 225/8/2 226/8/2 229/8/2
f 229/8/2 226/8/2 230/8/2
f 228/8/2 221/8/2 232/8/2
f 231/8/2 232/8/2 234/8/2
f 233/8/2 234/8/2 235/8/2
f 232/8/2 221/8/2 236/8/2
f 235/8/2 234/8/2 236/8/2
f 234/8/2 232/8/2 236/8/2
f 237/8/2 238/8/2 239/8/2
f 239/8/2 238/8/2 240/8/2
f 237/8/2 239/8/2 241/8/2
f 239/3/2 240/3/2 241/3/2
f 240/8/2 238/8/2 242/8/2
f 241/3/2 240/3/2 242/3/2
f 237/8/2 241/8/2 243/8/2
f 241/8/2 242/8/2 243/8/2
f 242/8/2 238/8/2 244/8/2
f 243/8/2 242/8/2 244/8/2
f 245/8/2 246/8/2 247/8/2
f 247/8/2 246/8/2 248/8/2
f 253/8/3 250/8/3 249/8/3
f 254/8/3 250/8/3 253/8/3
f 255/8/3 253/8/3 249/8/3
f 255/3/3 254/3/3 253/3/3
f 256/8/3 250/8/3 254/8/3
f 256/3/3 254/3/3 255/3/3
f 257/8/3 255/8/3 249/8/3
f 257/1/3 256/1/3 255/1/3
f 258/8/3 250/8/3 256/8/3
f 258/1/3 256/1/3 257/1/3
f 259/8/3 257/8/3 249/8/3
f 259/3/3 258/3/3 257/3/3
f 260/8/3 250/8/3 258/8/3
f 260/3/3 258/3/3 259/3/3
f 261/8/3 259/8/3 249/8/3
f 261/1/3 260/1/3 259/1/3
f 262/8/3 250/8/3 260/8/3
f 262/1/3 260/1/3 261/1/3
f 263/8/3 261/8/3 249/8/3
f 263/3/3 262/3/3 261/3/3
f 264/8/3 250/8/3 262/8/3
f 264/3/3 262/3/3 263/3/3
f 265/8/3 263/8/3 249/8/3
f 265/8/3 264/8/3 263/8/3
f 266/8/3 250/8/3 264/8/3
f 266/8/3 264/8/3 265/8/3
f 267/8/3 252/8/3 251/8/3
f 268/8/3 252/8/3 267/8/3
f 273/8/3 270/8/3 269/8/3
f 274/8/3 270/8/3 273/8/3
f 275/8/3 272/8/3 271/8/3
f 276/8/3 272/8/3 275/8/3
f 279/8/3 278/8/3 277/8/3
f 280/8/3 278/8/3 279/8/3
f 283/8/3 281/8/3 280/8/3
f 284/8/3 281/8/3 283/8/3
f 289/8/3 283/8/3 282/8/3
f 290/8/3 283/8/3 289/8/3
f 291/8/3 286/8/3 285/8/3
f 292/8/3 286/8/3 291/8/3
f 293/8/3 288/8/3 287/8/3
f 294/8/3 288/8/3 293/8/3
f 302/5/3 296/5/3 295/5/3
f 303/3/3 297/3/3 296/3/3
f 303/5/3 296/5/3 302/5/3
f 304/5/3 298/5/3 297/5/3
f 304/3/3 297/3/3 303/3/3
f 305/3/3 299/3/3 298/3/3
f 305/5/3 298/5/3 304/5/3
f 306/5/3 300/5/3 299/5/3
f 306/3/3 299/3/3 305/3/3
f 307/3/3 301/3/3 300/3/3
f 307/5/3 300/5/3 306/5/3
f 308/3/3 301/3/3 307/3/3
f 314/5/3 312/5/3 311/5/3
f 315/5/3 312/5/3 314/5/3
f 316/5/3 312/5/3 315/5/3
f 317/5/3 312/5/3 316/5/3
f 318/5/3 312/5/3 317/5/3
f 319/5/3 312/5/3 318/5/3
f 320/5/3 312/5/3 319/5/3
f 321/6/3 314/6/3 313/6/3
f 322/6/3 314/6/3 321/6/3
f 329/8/3 310/8/3 309/8/3
f 330/8/3 310/8/3 329/8/3
f 331/5/3 328/5/3 327/5/3
f 331/5/3 327/5/3 326/5/3
f 331/5/3 323/5/3 322/5/3
f 331/5/3 326/5/3 325/5/3
f 331/5/3 325/5/3 324/5/3
f 331/5/3 324/5/3 323/5/3
f 332/5/3 328/5/3 331/5/3
f 337/5/3 334/5/3 333/5/3
f 338/7/3 335/7/3 334/7/3
f 338/5/3 334/5/3 337/5/3
f 339/7/3 335/7/3 338/7/3
f 345/6/3 337/6/3 336/6/3
f 346/6/3 337/6/3 345/6/3
f 347/8/3 341/8/3 340/8/3
f 348/3/3 342/3/3 341/3/3
f 348/8/3 341/8/3 347/8/3
f 349/8/3 343/8/3 342/8/3
f 349/3/3 342/3/3 348/3/3
f 350/8/3 343/8/3 349/8/3
f 351/2/3 345/2/3 344/2/3
f 352/2/3 345/2/3 351/2/3
f 354/6/3 353/6/3 352/6/3
f 355/6/3 353/6/3 354/6/3
f 358/5/3 356/5/3 355/5/3
f 359/7/3 357/7/3 356/7/3
f 359/5/3 356/5/3 358/5/3
f 360/7/3 357/7/3 359/7/3
f 366/8/3 362/8/3 361/8/3
f 366/8/3 365/8/3 364/8/3
f 366/8/3 364/8/3 363/8/3
f 366/8/3 363/8/3 362/8/3
f 367/8/3 365/8/3 366/8/3
f 368/8/3 365/8/3 367/8/3
f 370/8/3 366/8/3 361/8/3
f 371/8/3 369/8/3 368/8/3
f 371/8/3 368/8/3 367/8/3
f 372/8/3 370/8/3 361/8/3
f 372/8/3 371/8/3 370/8/3
f 373/8/3 369/8/3 371/8/3
f 373/8/3 371/8/3 372/8/3
f 374/8/3 372/8/3 361/8/3
f 375/8/3 369/8/3 373/8/3
f 376/8/3 369/8/3 375/8/3
f 377/8/3 369/8/3 376/8/3
f 378/8/3 374/8/3 361/8/3
f 378/8/3 375/8/3 374/8/3
f 378/8/3 376/8/3 375/8/3
f 379/8/3 376/8/3 378/8/3
f 380/8/3 376/8/3 379/8/3
f 381/8/3 376/8/3 380/8/3
f 382/8/3 376/8/3 381/8/3
f 383/8/4 384/8/4 387/8/4
f 387/8/4 384/8/4 388/8/4
f 387/3/4 388/3/4 389/3/4
f 388/8/4 384/8/4 390/8/4
f 389/3/4 388/3/4 390/3/4
f 389/1/4 390/1/4 391/1/4
f 390/8/4 384/8/4 392/8/4
f 391/1/4 390/1/4 392/1/4
f 391/3/4 392/3/4 393/3/4
f 392/8/4 384/8/4 394/8/4
f 393/3/4 392/3/4 394/3/4
f 393/1/4 394/1/4 395/1/4
f 394/8/4 384/8/4 396/8/4
f 395/1/4 394/1/4 396/1/4
f 395/3/4 396/3/4 397/3/4
f 396/8/4 384/8/4 398/8/4
f 397/3/4 396/3/4 398/3/4
f 397/8/4 398/8/4 399/8/4
f 398/8/4 384/8/4 400/8/4
f 399/8/4 398/8/4 400/8/4
f 385/8/4 386/8/4 401/8/4
f 401/8/4 386/8/4 402/8/4
f 403/7/4 404/7/4 406/7/4
f 406/7/4 404/7/4 407/7/4
f 405/6/4 406/6/4 413/6/4
f 413/6/4 406/6/4 414/6/4
f 408/8/4 409/8/4 415/8/4
f 409/3/4 410/3/4 416/3/4
f 415/8/4 409/8/4 416/8/4
f 410/8/4 411/8/4 417/8/4
f 416/3/4 410/3/4 417/3/4
f 417/8/4 411/8/4 418/8/4
f 412/2/4 413/2/4 419/2/4
f 419/2/4 413/2/4 420/2/4
f 420/6/4 421/6/4 422/6/4
f 422/6/4 421/6/4 423/6/4
f 423/7/4 424/7/4 425/7/4
f 425/7/4 424/7/4 426/7/4
f 429/5/4 430/5/4 434/5/4
f 431/5/4 432/5/4 434/5/4
f 430/5/4 431/5/4 434/5/4
f 434/5/4 432/5/4 435/5/4
f 433/6/4 434/6/4 436/6/4
f 436/6/4 434/6/4 437/6/4
f 427/8/4 428/8/4 439/8/4
f 439/8/4 428/8/4 440/8/4
f 437/5/4 438/5/4 441/5/4
f 441/5/4 438/5/4 442/5/4
f 442/5/4 438/5/4 443/5/4
f 443/5/4 438/5/4 444/5/4
f 445/5/4 446/5/4 447/5/4
f 447/5/4 446/5/4 448/5/4
f 449/8/4 450/8/4 451/8/4
f 451/8/4 450/8/4 452/8/4
f 453/8/4 454/8/4 455/8/4
f 455/8/4 454/8/4 456/8/4
f 457/8/4 458/8/4 459/8/4
f 459/8/4 458/8/4 460/8/4
f 461/8/4 462/8/4 463/8/4
f 463/8/4 462/8/4 464/8/4
f 465/8/4 466/8/4 467/8/4
f 467/8/4 466/8/4 468/8/4
f 468/8/4 469/8/4 471/8/4
f 471/8/4 469/8/4 472/8/4
f 470/8/4 471/8/4 473/8/4
f 473/8/4 471/8/4 474/8/4
f 475/8/4 476/8/4 477/8/4
f 477/8/4 476/8/4 478/8/4
f 482/8/5 480/8/5 479/8/5
f 483/8/5 480/8/5 482/8/5
f 485/8/5 482/8/5 481/8/5
f 485/8/5 484/8/5 483/8/5
f 485/8/5 483/8/5 482/8/5
f 486/8/5 484/8/5 485/8/5
f 487/8/5 484/8/5 486/8/5
f 488/8/5 484/8/5 487/8/5
f 489/8/5 487/8/5 486/8/5
f 490/8/5 487/8/5 489/8/5
f 491/8/5 487/8/5 490/8/5
f 492/8/5 487/8/5 491/8/5
f 493/8/5 491/8/5 490/8/5
f 494/8/5 491/8/5 493/8/5
f 498/8/5 496/8/5 495/8/5
f 499/8/5 496/8/5 498/8/5
f 501/8/5 498/8/5 497/8/5
f 502/8/5 500/8/5 499/8/5
f 503/8/5 501/8/5 497/8/5
f 504/8/5 501/8/5 503/8/5
f 505/8/5 500/8/5 502/8/5
f 506/8/5 500/8/5 505/8/5
f 509/2/5 508/2/5 507/2/5
f 510/2/5 508/2/5 509/2/5
f 514/6/5 512/6/5 511/6/5
f 515/6/5 512/6/5 514/6/5
f 517/6/5 514/6/5 513/6/5
f 518/6/5 514/6/5 517/6/5
f 519/6/5 516/6/5 515/6/5
f 520/6/5 516/6/5 519/6/5
f 521/6/5 519/6/5 518/6/5
f 522/6/5 519/6/5 521/6/5
f 526/5/5 524/5/5 523/5/5
f 527/5/5 524/5/5 526/5/5
f 530/5/5 526/5/5 525/5/5
f 531/5/5 526/5/5 530/5/5
f 532/5/5 528/5/5 527/5/5
f 533/5/5 528/5/5 532/5/5
f 535/5/5 530/5/5 529/5/5
f 536/5/5 530/5/5 535/5/5
f 537/5/5 534/5/5 533/5/5
f 538/5/5 534/5/5 537/5/5
f 539/7/5 536/7/5 535/7/5
f 540/7/5 536/7/5 539/7/5
f 543/7/5 538/7/5 537/7/5
f 544/7/5 538/7/5 543/7/5
f 545/5/5 541/5/5 540/5/5
f 546/5/5 541/5/5 545/5/5
f 547/5/5 543/5/5 542/5/5
f 548/5/5 543/5/5 547/5/5
f 549/5/5 547/5/5 546/5/5
f 550/5/5 547/5/5 549/5/5
f 555/5/5 552/5/5 551/5/5
f 556/5/5 554/5/5 553/5/5
f 557/5/5 555/5/5 551/5/5
f 558/5/5 555/5/5 557/5/5
f 559/5/5 554/5/5 556/5/5
f 560/5/5 554/5/5 559/5/5
f 565/8/5 562/8/5 561/8/5
f 566/8/5 562/8/5 565/8/5
f 567/8/5 564/8/5 563/8/5
f 568/8/5 564/8/5 567/8/5
f 571/8/5 570/8/5 569/8/5
f 572/8/5 570/8/5 571/8/5
f 573/8/5 571/8/5 569/8/5
f 574/8/5 571/8/5 573/8/5
f 575/8/5 570/8/5 572/8/5
f 576/8/5 570/8/5 575/8/5
f 577/8/5 573/8/5 569/8/5
f 578/8/5 570/8/5 576/8/5
f 579/8/5 577/8/5 569/8/5
f 580/8/5 570/8/5 578/8/5
f 581/8/5 579/8/5 569/8/5
f 584/8/5 570/8/5 580/8/5
f 585/8/5 582/8/5 581/8/5
f 586/8/5 584/8/5 583/8/5
f 587/8/5 585/8/5 581/8/5
f 587/8/5 586/8/5 585/8/5
f 587/8/5 581/8/5 569/8/5
f 588/8/5 584/8/5 586/8/5
f 588/8/5 586/8/5 587/8/5
f 588/8/5 570/8/5 584/8/5
f 589/8/6 590/8/6 597/8/6
f 595/8/6 596/8/6 597/8/6
f 594/8/6 595/8/6 597/8/6
f 593/8/6 594/8/6 597/8/6
f 592/8/6 593/8/6 597/8/6
f 591/8/6 592/8/6 597/8/6
f 590/8/6 591/8/6 597/8/6
f 597/8/6 596/8/6 598/8/6
f 597/8/6 598/8/6 599/8/6
f 599/8/6 598/8/6 600/8/6
f 597/8/6 599/8/6 601/8/6
f 600/8/6 598/8/6 602/8/6
f 597/8/6 601/8/6 603/8/6
f 601/8/6 602/8/6 603/8/6
f 602/8/6 598/8/6 604/8/6
f 603/8/6 602/8/6 604/8/6
f 603/8/6 604/8/6 605/8/6
f 605/8/6 604/8/6 606/8/6
f 607/8/6 608/8/6 609/8/6
f 609/8/6 608/8/6 610/8/6
f 607/8/6 609/8/6 611/8/6
f 610/8/6 608/8/6 612/8/6
f 607/8/6 611/8/6 613/8/6
f 611/8/6 612/8/6 613/8/6
f 612/8/6 608/8/6 614/8/6
f 613/8/6 612/8/6 614/8/6
f 615/8/6 616/8/6 618/8/6
f 618/8/6 616/8/6 619/8/6
f 617/8/6 618/8/6 621/8/6
f 621/8/6 618/8/6 622/8/6
f 619/8/6 620/8/6 623/8/6
f 623/8/6 620/8/6 624/8/6
f 625/8/6 626/8/6 628/8/6
f 628/8/6 626/8/6 629/8/6
f 627/8/6 628/8/6 631/8/6
f 629/8/6 630/8/6 632/8/6
f 627/8/6 631/8/6 633/8/6
f 633/8/6 631/8/6 634/8/6
f 632/8/6 630/8/6 635/8/6
f 635/8/6 630/8/6 636/8/6
f 637/8/6 638/8/6 639/8/6
f 639/8/6 638/8/6 640/8/6
f 641/7/6 642/7/6 645/7/6
f 645/7/6 642/7/6 646/7/6
f 643/7/6 644/7/6 647/7/6
f 647/7/6 644/7/6 648/7/6
f 645/5/6 646/5/6 649/5/6
f 647/5/6 648/5/6 650/5/6
f 645/5/6 649/5/6 651/5/6
f 650/5/6 648/5/6 652/5/6
f 645/5/6 651/5/6 653/5/6
f 653/5/6 651/5/6 654/5/6
f 652/5/6 648/5/6 655/5/6
f 655/5/6 648/5/6 656/5/6
f 657/8/6 658/8/6 661/8/6
f 661/8/6 658/8/6 662/8/6
f 659/8/6 660/8/6 663/8/6
f 663/8/6 660/8/6 664/8/6
f 662/8/6 663/8/6 665/8/6
f 665/8/6 663/8/6 666/8/6
f 667/8/6 668/8/6 669/8/6
f 669/8/6 668/8/6 670/8/6
