# MagicaVoxel @ Ephtracy

# group
o 

# material
mtllib exitsign.mtl
usemtl palette

# normals
vn -1 0 0
vn 1 0 0
vn 0 0 1
vn 0 0 -1
vn 0 -1 0
vn 0 1 0

# texcoords
vt 0.291016 0.5
vt 0.322266 0.5
vt 0.619141 0.5

# verts
v -1.5 0 0.2
v -1.5 0 -0.3
v -1.5 1.1 0.2
v -1.5 1.1 -0.3
v -1.2 0.2 0.2
v -1.2 0.2 0.0999999
v -1.2 0.9 0.2
v -1.2 0.9 0.0999999
v -0.7 0.2 0.2
v -0.7 0.2 0.0999999
v -0.7 0.4 0.2
v -0.7 0.4 0.0999999
v -0.7 0.7 0.2
v -0.7 0.7 0.0999999
v -0.7 0.9 0.2
v -0.7 0.9 0.0999999
v -0.6 0.4 0.2
v -0.6 0.4 0.0999999
v -0.6 0.5 0.2
v -0.6 0.5 0.0999999
v -0.6 0.6 0.2
v -0.6 0.6 0.0999999
v -0.6 0.7 0.2
v -0.6 0.7 0.0999999
v -0.5 0.5 0.2
v -0.5 0.5 0.0999999
v -0.5 0.6 0.2
v -0.5 0.6 0.0999999
v -0.4 0.4 0.2
v -0.4 0.4 0.0999999
v -0.4 0.5 0.2
v -0.4 0.5 0.0999999
v -0.4 0.6 0.2
v -0.4 0.6 0.0999999
v -0.4 0.7 0.2
v -0.4 0.7 0.0999999
v -0.3 0.2 0.2
v -0.3 0.2 0.0999999
v -0.3 0.4 0.2
v -0.3 0.4 0.0999999
v -0.3 0.7 0.2
v -0.3 0.7 0.0999999
v -0.3 0.9 0.2
v -0.3 0.9 0.0999999
v 0 0.2 0.2
v 0 0.2 0.0999999
v 0 0.9 0.2
v 0 0.9 0.0999999
v 0.3 0.8 0.2
v 0.3 0.8 0.0999999
v 0.3 0.9 0.2
v 0.3 0.9 0.0999999
v 0.5 0.2 0.2
v 0.5 0.2 0.0999999
v 0.5 0.8 0.2
v 0.5 0.8 0.0999999
v 1 0.1 0.2
v 1 0.1 0.0999999
v 1 0.1 -0.2
v 1 0.1 -0.3
v 1 1 0.2
v 1 1 0.0999999
v 1 1 -0.2
v 1 1 -0.3
v -1.4 0.1 0.2
v -1.4 0.1 0.0999999
v -1.4 0.1 -0.2
v -1.4 0.1 -0.3
v -1.4 1 0.2
v -1.4 1 0.0999999
v -1.4 1 -0.2
v -1.4 1 -0.3
v -1.1 0.3 0.2
v -1.1 0.3 0.0999999
v -1.1 0.5 0.2
v -1.1 0.5 0.0999999
v -1.1 0.6 0.2
v -1.1 0.6 0.0999999
v -1.1 0.8 0.2
v -1.1 0.8 0.0999999
v -0.9 0.2 0.2
v -0.9 0.2 0.0999999
v -0.9 0.3 0.2
v -0.9 0.3 0.0999999
v -0.9 0.5 0.2
v -0.9 0.5 0.0999999
v -0.9 0.6 0.2
v -0.9 0.6 0.0999999
v -0.9 0.8 0.2
v -0.9 0.8 0.0999999
v -0.9 0.9 0.2
v -0.9 0.9 0.0999999
v -0.6 0.2 0.2
v -0.6 0.2 0.0999999
v -0.6 0.4 0.2
v -0.6 0.4 0.0999999
v -0.6 0.7 0.2
v -0.6 0.7 0.0999999
v -0.6 0.9 0.2
v -0.6 0.9 0.0999999
v -0.5 0.4 0.2
v -0.5 0.4 0.0999999
v -0.5 0.5 0.2
v -0.5 0.5 0.0999999
v -0.5 0.6 0.2
v -0.5 0.6 0.0999999
v -0.5 0.7 0.2
v -0.5 0.7 0.0999999
v -0.4 0.5 0.2
v -0.4 0.5 0.0999999
v -0.4 0.6 0.2
v -0.4 0.6 0.0999999
v -0.3 0.4 0.2
v -0.3 0.4 0.0999999
v -0.3 0.5 0.2
v -0.3 0.5 0.0999999
v -0.3 0.6 0.2
v -0.3 0.6 0.0999999
v -0.3 0.7 0.2
v -0.3 0.7 0.0999999
v -0.2 0.2 0.2
v -0.2 0.2 0.0999999
v -0.2 0.4 0.2
v -0.2 0.4 0.0999999
v -0.2 0.7 0.2
v -0.2 0.7 0.0999999
v -0.2 0.9 0.2
v -0.2 0.9 0.0999999
v 0.1 0.2 0.2
v 0.1 0.2 0.0999999
v 0.1 0.9 0.2
v 0.1 0.9 0.0999999
v 0.6 0.2 0.2
v 0.6 0.2 0.0999999
v 0.6 0.8 0.2
v 0.6 0.8 0.0999999
v 0.8 0.8 0.2
v 0.8 0.8 0.0999999
v 0.8 0.9 0.2
v 0.8 0.9 0.0999999
v 1.1 0 0.2
v 1.1 0 -0.3
v 1.1 1.1 0.2
v 1.1 1.1 -0.3
v -1.5 0 0.2
v -1.5 1.1 0.2
v -1.4 0.1 0.2
v -1.4 1 0.2
v -1.2 0.2 0.2
v -1.2 0.9 0.2
v -1.1 0.3 0.2
v -1.1 0.5 0.2
v -1.1 0.6 0.2
v -1.1 0.8 0.2
v -0.9 0.2 0.2
v -0.9 0.3 0.2
v -0.9 0.5 0.2
v -0.9 0.6 0.2
v -0.9 0.8 0.2
v -0.9 0.9 0.2
v -0.7 0.2 0.2
v -0.7 0.4 0.2
v -0.7 0.7 0.2
v -0.7 0.9 0.2
v -0.6 0.2 0.2
v -0.6 0.4 0.2
v -0.6 0.5 0.2
v -0.6 0.6 0.2
v -0.6 0.7 0.2
v -0.6 0.9 0.2
v -0.5 0.4 0.2
v -0.5 0.5 0.2
v -0.5 0.6 0.2
v -0.5 0.7 0.2
v -0.4 0.4 0.2
v -0.4 0.5 0.2
v -0.4 0.6 0.2
v -0.4 0.7 0.2
v -0.3 0.2 0.2
v -0.3 0.4 0.2
v -0.3 0.5 0.2
v -0.3 0.6 0.2
v -0.3 0.7 0.2
v -0.3 0.9 0.2
v -0.2 0.2 0.2
v -0.2 0.4 0.2
v -0.2 0.7 0.2
v -0.2 0.9 0.2
v 0 0.2 0.2
v 0 0.9 0.2
v 0.1 0.2 0.2
v 0.1 0.9 0.2
v 0.3 0.8 0.2
v 0.3 0.9 0.2
v 0.5 0.2 0.2
v 0.5 0.8 0.2
v 0.6 0.2 0.2
v 0.6 0.8 0.2
v 0.8 0.8 0.2
v 0.8 0.9 0.2
v 1 0.1 0.2
v 1 1 0.2
v 1.1 0 0.2
v 1.1 1.1 0.2
v -1.4 0.1 0.0999999
v -1.4 1 0.0999999
v -1.2 0.2 0.0999999
v -1.2 0.9 0.0999999
v -1.1 0.3 0.0999999
v -1.1 0.5 0.0999999
v -1.1 0.6 0.0999999
v -1.1 0.8 0.0999999
v -0.9 0.2 0.0999999
v -0.9 0.3 0.0999999
v -0.9 0.5 0.0999999
v -0.9 0.6 0.0999999
v -0.9 0.8 0.0999999
v -0.9 0.9 0.0999999
v -0.7 0.2 0.0999999
v -0.7 0.4 0.0999999
v -0.7 0.7 0.0999999
v -0.7 0.9 0.0999999
v -0.6 0.2 0.0999999
v -0.6 0.4 0.0999999
v -0.6 0.5 0.0999999
v -0.6 0.6 0.0999999
v -0.6 0.7 0.0999999
v -0.6 0.9 0.0999999
v -0.5 0.4 0.0999999
v -0.5 0.5 0.0999999
v -0.5 0.6 0.0999999
v -0.5 0.7 0.0999999
v -0.4 0.4 0.0999999
v -0.4 0.5 0.0999999
v -0.4 0.6 0.0999999
v -0.4 0.7 0.0999999
v -0.3 0.2 0.0999999
v -0.3 0.4 0.0999999
v -0.3 0.5 0.0999999
v -0.3 0.6 0.0999999
v -0.3 0.7 0.0999999
v -0.3 0.9 0.0999999
v -0.2 0.2 0.0999999
v -0.2 0.4 0.0999999
v -0.2 0.7 0.0999999
v -0.2 0.9 0.0999999
v 0 0.2 0.0999999
v 0 0.9 0.0999999
v 0.1 0.2 0.0999999
v 0.1 0.9 0.0999999
v 0.3 0.8 0.0999999
v 0.3 0.9 0.0999999
v 0.5 0.2 0.0999999
v 0.5 0.8 0.0999999
v 0.6 0.2 0.0999999
v 0.6 0.8 0.0999999
v 0.8 0.8 0.0999999
v 0.8 0.9 0.0999999
v 1 0.1 0.0999999
v 1 1 0.0999999
v -1.4 0.1 -0.2
v -1.4 1 -0.2
v 1 0.1 -0.2
v 1 1 -0.2
v -1.5 0 -0.3
v -1.5 1.1 -0.3
v -1.4 0.1 -0.3
v -1.4 1 -0.3
v 1 0.1 -0.3
v 1 1 -0.3
v 1.1 0 -0.3
v 1.1 1.1 -0.3
v -1.5 0 0.2
v 1.1 0 0.2
v -1.5 0 -0.3
v 1.1 0 -0.3
v -1.2 0.2 0.2
v -0.9 0.2 0.2
v -0.7 0.2 0.2
v -0.6 0.2 0.2
v -0.3 0.2 0.2
v -0.2 0.2 0.2
v 0 0.2 0.2
v 0.1 0.2 0.2
v 0.5 0.2 0.2
v 0.6 0.2 0.2
v -1.2 0.2 0.0999999
v -0.9 0.2 0.0999999
v -0.7 0.2 0.0999999
v -0.6 0.2 0.0999999
v -0.3 0.2 0.0999999
v -0.2 0.2 0.0999999
v 0 0.2 0.0999999
v 0.1 0.2 0.0999999
v 0.5 0.2 0.0999999
v 0.6 0.2 0.0999999
v -0.6 0.4 0.2
v -0.5 0.4 0.2
v -0.4 0.4 0.2
v -0.3 0.4 0.2
v -0.6 0.4 0.0999999
v -0.5 0.4 0.0999999
v -0.4 0.4 0.0999999
v -0.3 0.4 0.0999999
v -1.1 0.5 0.2
v -0.9 0.5 0.2
v -0.5 0.5 0.2
v -0.4 0.5 0.2
v -1.1 0.5 0.0999999
v -0.9 0.5 0.0999999
v -0.5 0.5 0.0999999
v -0.4 0.5 0.0999999
v -0.6 0.6 0.2
v -0.5 0.6 0.2
v -0.4 0.6 0.2
v -0.3 0.6 0.2
v -0.6 0.6 0.0999999
v -0.5 0.6 0.0999999
v -0.4 0.6 0.0999999
v -0.3 0.6 0.0999999
v -0.7 0.7 0.2
v -0.6 0.7 0.2
v -0.3 0.7 0.2
v -0.2 0.7 0.2
v -0.7 0.7 0.0999999
v -0.6 0.7 0.0999999
v -0.3 0.7 0.0999999
v -0.2 0.7 0.0999999
v -1.1 0.8 0.2
v -0.9 0.8 0.2
v 0.3 0.8 0.2
v 0.5 0.8 0.2
v 0.6 0.8 0.2
v 0.8 0.8 0.2
v -1.1 0.8 0.0999999
v -0.9 0.8 0.0999999
v 0.3 0.8 0.0999999
v 0.5 0.8 0.0999999
v 0.6 0.8 0.0999999
v 0.8 0.8 0.0999999
v -1.4 1 0.2
v 1 1 0.2
v -1.4 1 0.0999999
v 1 1 0.0999999
v -1.4 1 -0.2
v 1 1 -0.2
v -1.4 1 -0.3
v 1 1 -0.3
v -1.4 0.1 0.2
v 1 0.1 0.2
v -1.4 0.1 0.0999999
v 1 0.1 0.0999999
v -1.4 0.1 -0.2
v 1 0.1 -0.2
v -1.4 0.1 -0.3
v 1 0.1 -0.3
v -1.1 0.3 0.2
v -0.9 0.3 0.2
v -1.1 0.3 0.0999999
v -0.9 0.3 0.0999999
v -0.7 0.4 0.2
v -0.6 0.4 0.2
v -0.3 0.4 0.2
v -0.2 0.4 0.2
v -0.7 0.4 0.0999999
v -0.6 0.4 0.0999999
v -0.3 0.4 0.0999999
v -0.2 0.4 0.0999999
v -0.6 0.5 0.2
v -0.5 0.5 0.2
v -0.4 0.5 0.2
v -0.3 0.5 0.2
v -0.6 0.5 0.0999999
v -0.5 0.5 0.0999999
v -0.4 0.5 0.0999999
v -0.3 0.5 0.0999999
v -1.1 0.6 0.2
v -0.9 0.6 0.2
v -0.5 0.6 0.2
v -0.4 0.6 0.2
v -1.1 0.6 0.0999999
v -0.9 0.6 0.0999999
v -0.5 0.6 0.0999999
v -0.4 0.6 0.0999999
v -0.6 0.7 0.2
v -0.5 0.7 0.2
v -0.4 0.7 0.2
v -0.3 0.7 0.2
v -0.6 0.7 0.0999999
v -0.5 0.7 0.0999999
v -0.4 0.7 0.0999999
v -0.3 0.7 0.0999999
v -1.2 0.9 0.2
v -0.9 0.9 0.2
v -0.7 0.9 0.2
v -0.6 0.9 0.2
v -0.3 0.9 0.2
v -0.2 0.9 0.2
v 0 0.9 0.2
v 0.1 0.9 0.2
v 0.3 0.9 0.2
v 0.8 0.9 0.2
v -1.2 0.9 0.0999999
v -0.9 0.9 0.0999999
v -0.7 0.9 0.0999999
v -0.6 0.9 0.0999999
v -0.3 0.9 0.0999999
v -0.2 0.9 0.0999999
v 0 0.9 0.0999999
v 0.1 0.9 0.0999999
v 0.3 0.9 0.0999999
v 0.8 0.9 0.0999999
v -1.5 1.1 0.2
v 1.1 1.1 0.2
v -1.5 1.1 -0.3
v 1.1 1.1 -0.3

# faces
f 3/3/1 2/3/1 1/3/1
f 4/3/1 2/3/1 3/3/1
f 7/1/1 6/1/1 5/1/1
f 8/1/1 6/1/1 7/1/1
f 11/1/1 10/1/1 9/1/1
f 12/1/1 10/1/1 11/1/1
f 15/1/1 14/1/1 13/1/1
f 16/1/1 14/1/1 15/1/1
f 19/1/1 18/1/1 17/1/1
f 20/1/1 18/1/1 19/1/1
f 23/1/1 22/1/1 21/1/1
f 24/1/1 22/1/1 23/1/1
f 27/1/1 26/1/1 25/1/1
f 28/1/1 26/1/1 27/1/1
f 31/1/1 30/1/1 29/1/1
f 32/1/1 30/1/1 31/1/1
f 35/1/1 34/1/1 33/1/1
f 36/1/1 34/1/1 35/1/1
f 39/1/1 38/1/1 37/1/1
f 40/1/1 38/1/1 39/1/1
f 43/1/1 42/1/1 41/1/1
f 44/1/1 42/1/1 43/1/1
f 47/1/1 46/1/1 45/1/1
f 48/1/1 46/1/1 47/1/1
f 51/1/1 50/1/1 49/1/1
f 52/1/1 50/1/1 51/1/1
f 55/1/1 54/1/1 53/1/1
f 56/1/1 54/1/1 55/1/1
f 61/3/1 58/3/1 57/3/1
f 62/3/1 58/3/1 61/3/1
f 63/3/1 60/3/1 59/3/1
f 64/3/1 60/3/1 63/3/1
f 65/3/2 66/3/2 69/3/2
f 69/3/2 66/3/2 70/3/2
f 67/3/2 68/3/2 71/3/2
f 71/3/2 68/3/2 72/3/2
f 73/1/2 74/1/2 75/1/2
f 75/1/2 74/1/2 76/1/2
f 77/1/2 78/1/2 79/1/2
f 79/1/2 78/1/2 80/1/2
f 81/1/2 82/1/2 83/1/2
f 83/1/2 82/1/2 84/1/2
f 85/1/2 86/1/2 87/1/2
f 87/1/2 86/1/2 88/1/2
f 89/1/2 90/1/2 91/1/2
f 91/1/2 90/1/2 92/1/2
f 93/1/2 94/1/2 95/1/2
f 95/1/2 94/1/2 96/1/2
f 97/1/2 98/1/2 99/1/2
f 99/1/2 98/1/2 100/1/2
f 101/1/2 102/1/2 103/1/2
f 103/1/2 102/1/2 104/1/2
f 105/1/2 106/1/2 107/1/2
f 107/1/2 106/1/2 108/1/2
f 109/1/2 110/1/2 111/1/2
f 111/1/2 110/1/2 112/1/2
f 113/1/2 114/1/2 115/1/2
f 115/1/2 114/1/2 116/1/2
f 117/1/2 118/1/2 119/1/2
f 119/1/2 118/1/2 120/1/2
f 121/1/2 122/1/2 123/1/2
f 123/1/2 122/1/2 124/1/2
f 125/1/2 126/1/2 127/1/2
f 127/1/2 126/1/2 128/1/2
f 129/1/2 130/1/2 131/1/2
f 131/1/2 130/1/2 132/1/2
f 133/1/2 134/1/2 135/1/2
f 135/1/2 134/1/2 136/1/2
f 137/1/2 138/1/2 139/1/2
f 139/1/2 138/1/2 140/1/2
f 141/3/2 142/3/2 143/3/2
f 143/3/2 142/3/2 144/3/2
f 147/3/3 146/3/3 145/3/3
f 148/3/3 146/3/3 147/3/3
f 151/1/3 150/1/3 149/1/3
f 152/1/3 150/1/3 151/1/3
f 153/1/3 150/1/3 152/1/3
f 154/1/3 150/1/3 153/1/3
f 155/1/3 151/1/3 149/1/3
f 156/1/3 151/1/3 155/1/3
f 157/1/3 153/1/3 152/1/3
f 158/1/3 153/1/3 157/1/3
f 159/1/3 150/1/3 154/1/3
f 160/1/3 150/1/3 159/1/3
f 165/1/3 162/1/3 161/1/3
f 166/1/3 162/1/3 165/1/3
f 169/1/3 164/1/3 163/1/3
f 170/1/3 164/1/3 169/1/3
f 171/1/3 167/1/3 166/1/3
f 172/1/3 167/1/3 171/1/3
f 173/1/3 169/1/3 168/1/3
f 174/1/3 169/1/3 173/1/3
f 176/1/3 173/1/3 172/1/3
f 177/1/3 173/1/3 176/1/3
f 180/1/3 176/1/3 175/1/3
f 181/1/3 176/1/3 180/1/3
f 182/1/3 178/1/3 177/1/3
f 183/1/3 178/1/3 182/1/3
f 185/1/3 180/1/3 179/1/3
f 186/1/3 180/1/3 185/1/3
f 187/1/3 184/1/3 183/1/3
f 188/1/3 184/1/3 187/1/3
f 191/1/3 190/1/3 189/1/3
f 192/1/3 190/1/3 191/1/3
f 196/1/3 194/1/3 193/1/3
f 197/1/3 196/1/3 195/1/3
f 198/1/3 194/1/3 196/1/3
f 198/1/3 196/1/3 197/1/3
f 199/1/3 194/1/3 198/1/3
f 200/1/3 194/1/3 199/1/3
f 201/3/3 147/3/3 145/3/3
f 202/3/3 146/3/3 148/3/3
f 203/3/3 201/3/3 145/3/3
f 203/3/3 202/3/3 201/3/3
f 204/3/3 146/3/3 202/3/3
f 204/3/3 202/3/3 203/3/3
f 207/2/3 206/2/3 205/2/3
f 208/2/3 206/2/3 207/2/3
f 213/2/3 207/2/3 205/2/3
f 214/2/3 210/2/3 209/2/3
f 215/2/3 210/2/3 214/2/3
f 216/2/3 212/2/3 211/2/3
f 217/2/3 212/2/3 216/2/3
f 218/2/3 206/2/3 208/2/3
f 219/2/3 215/2/3 214/2/3
f 219/2/3 218/2/3 217/2/3
f 219/2/3 217/2/3 216/2/3
f 219/2/3 213/2/3 205/2/3
f 219/2/3 216/2/3 215/2/3
f 219/2/3 214/2/3 213/2/3
f 220/2/3 218/2/3 219/2/3
f 221/2/3 218/2/3 220/2/3
f 222/2/3 206/2/3 218/2/3
f 222/2/3 218/2/3 221/2/3
f 223/2/3 219/2/3 205/2/3
f 224/2/3 221/2/3 220/2/3
f 225/2/3 221/2/3 224/2/3
f 226/2/3 221/2/3 225/2/3
f 227/2/3 221/2/3 226/2/3
f 228/2/3 206/2/3 222/2/3
f 229/2/3 224/2/3 223/2/3
f 230/2/3 226/2/3 225/2/3
f 231/2/3 226/2/3 230/2/3
f 232/2/3 228/2/3 227/2/3
f 233/2/3 229/2/3 223/2/3
f 233/2/3 230/2/3 229/2/3
f 234/2/3 230/2/3 233/2/3
f 235/2/3 232/2/3 231/2/3
f 236/2/3 228/2/3 232/2/3
f 236/2/3 232/2/3 235/2/3
f 237/2/3 223/2/3 205/2/3
f 237/2/3 233/2/3 223/2/3
f 238/2/3 233/2/3 237/2/3
f 239/2/3 235/2/3 234/2/3
f 240/2/3 235/2/3 239/2/3
f 241/2/3 228/2/3 236/2/3
f 242/2/3 206/2/3 228/2/3
f 242/2/3 228/2/3 241/2/3
f 243/2/3 237/2/3 205/2/3
f 244/2/3 240/2/3 239/2/3
f 244/2/3 241/2/3 240/2/3
f 244/2/3 239/2/3 238/2/3
f 245/2/3 241/2/3 244/2/3
f 246/2/3 206/2/3 242/2/3
f 247/2/3 243/2/3 205/2/3
f 247/2/3 246/2/3 245/2/3
f 247/2/3 245/2/3 244/2/3
f 247/2/3 244/2/3 243/2/3
f 248/2/3 206/2/3 246/2/3
f 248/2/3 246/2/3 247/2/3
f 249/2/3 247/2/3 205/2/3
f 250/2/3 206/2/3 248/2/3
f 251/2/3 250/2/3 249/2/3
f 252/2/3 206/2/3 250/2/3
f 252/2/3 250/2/3 251/2/3
f 253/2/3 249/2/3 205/2/3
f 253/2/3 251/2/3 249/2/3
f 254/2/3 251/2/3 253/2/3
f 255/2/3 253/2/3 205/2/3
f 257/2/3 256/2/3 255/2/3
f 258/2/3 206/2/3 252/2/3
f 259/2/3 257/2/3 255/2/3
f 259/2/3 258/2/3 257/2/3
f 259/2/3 255/2/3 205/2/3
f 260/2/3 206/2/3 258/2/3
f 260/2/3 258/2/3 259/2/3
f 261/2/4 262/2/4 263/2/4
f 263/2/4 262/2/4 264/2/4
f 265/3/4 266/3/4 267/3/4
f 267/3/4 266/3/4 268/3/4
f 265/3/4 267/3/4 269/3/4
f 268/3/4 266/3/4 270/3/4
f 265/3/4 269/3/4 271/3/4
f 269/3/4 270/3/4 271/3/4
f 270/3/4 266/3/4 272/3/4
f 271/3/4 270/3/4 272/3/4
f 275/3/5 274/3/5 273/3/5
f 276/3/5 274/3/5 275/3/5
f 287/1/5 278/1/5 277/1/5
f 288/1/5 278/1/5 287/1/5
f 289/1/5 280/1/5 279/1/5
f 290/1/5 280/1/5 289/1/5
f 291/1/5 282/1/5 281/1/5
f 292/1/5 282/1/5 291/1/5
f 293/1/5 284/1/5 283/1/5
f 294/1/5 284/1/5 293/1/5
f 295/1/5 286/1/5 285/1/5
f 296/1/5 286/1/5 295/1/5
f 301/1/5 298/1/5 297/1/5
f 302/1/5 298/1/5 301/1/5
f 303/1/5 300/1/5 299/1/5
f 304/1/5 300/1/5 303/1/5
f 309/1/5 306/1/5 305/1/5
f 310/1/5 306/1/5 309/1/5
f 311/1/5 308/1/5 307/1/5
f 312/1/5 308/1/5 311/1/5
f 317/1/5 314/1/5 313/1/5
f 318/1/5 314/1/5 317/1/5
f 319/1/5 316/1/5 315/1/5
f 320/1/5 316/1/5 319/1/5
f 325/1/5 322/1/5 321/1/5
f 326/1/5 322/1/5 325/1/5
f 327/1/5 324/1/5 323/1/5
f 328/1/5 324/1/5 327/1/5
f 335/1/5 330/1/5 329/1/5
f 336/1/5 330/1/5 335/1/5
f 337/1/5 332/1/5 331/1/5
f 338/1/5 332/1/5 337/1/5
f 339/1/5 334/1/5 333/1/5
f 340/1/5 334/1/5 339/1/5
f 343/3/5 342/3/5 341/3/5
f 344/3/5 342/3/5 343/3/5
f 347/3/5 346/3/5 345/3/5
f 348/3/5 346/3/5 347/3/5
f 349/3/6 350/3/6 351/3/6
f 351/3/6 350/3/6 352/3/6
f 353/3/6 354/3/6 355/3/6
f 355/3/6 354/3/6 356/3/6
f 357/1/6 358/1/6 359/1/6
f 359/1/6 358/1/6 360/1/6
f 361/1/6 362/1/6 365/1/6
f 365/1/6 362/1/6 366/1/6
f 363/1/6 364/1/6 367/1/6
f 367/1/6 364/1/6 368/1/6
f 369/1/6 370/1/6 373/1/6
f 373/1/6 370/1/6 374/1/6
f 371/1/6 372/1/6 375/1/6
f 375/1/6 372/1/6 376/1/6
f 377/1/6 378/1/6 381/1/6
f 381/1/6 378/1/6 382/1/6
f 379/1/6 380/1/6 383/1/6
f 383/1/6 380/1/6 384/1/6
f 385/1/6 386/1/6 389/1/6
f 389/1/6 386/1/6 390/1/6
f 387/1/6 388/1/6 391/1/6
f 391/1/6 388/1/6 392/1/6
f 393/1/6 394/1/6 403/1/6
f 403/1/6 394/1/6 404/1/6
f 395/1/6 396/1/6 405/1/6
f 405/1/6 396/1/6 406/1/6
f 397/1/6 398/1/6 407/1/6
f 407/1/6 398/1/6 408/1/6
f 399/1/6 400/1/6 409/1/6
f 409/1/6 400/1/6 410/1/6
f 401/1/6 402/1/6 411/1/6
f 411/1/6 402/1/6 412/1/6
f 413/3/6 414/3/6 415/3/6
f 415/3/6 414/3/6 416/3/6
