# MagicaVoxel @ Ephtracy

# group
o 

# material
mtllib labchair.mtl
usemtl palette

# normals
vn -1 0 0
vn 1 0 0
vn 0 0 1
vn 0 0 -1
vn 0 -1 0
vn 0 1 0

# texcoords
vt 0.615234 0.5
vt 0.619141 0.5

# verts
v -0.6 0.7 0.4
v -0.6 0.7 0.3
v -0.6 1 0.3
v -0.6 1 0.2
v -0.6 1.1 0.6
v -0.6 1.1 0.4
v -0.6 1.1 0.2
v -0.6 1.1 0
v -0.6 1.2 0.6
v -0.6 1.2 0
v -0.5 0.7 0.7
v -0.5 0.7 0.4
v -0.5 0.7 0.3
v -0.5 0.7 0
v -0.5 0.8 0.7
v -0.5 0.8 0.4
v -0.5 0.8 0.3
v -0.5 0.8 0
v -0.5 0.9 0.8
v -0.5 0.9 0.7
v -0.5 1.9 0.8
v -0.5 1.9 0.7
v -0.4 0 0.4
v -0.4 0 0.3
v -0.4 0.2 0.4
v -0.4 0.2 0.3
v -0.4 0.7 0
v -0.4 0.7 -0.1
v -0.4 0.8 0
v -0.4 0.8 -0.1
v -0.4 2 0.8
v -0.4 2 0.7
v -0.4 2.2 0.8
v -0.4 2.2 0.7
v -0.3 0.8 0.8
v -0.3 0.8 0.7
v -0.3 0.9 0.8
v -0.3 0.9 0.7
v -0.3 1.4 0.9
v -0.3 1.4 0.8
v -0.3 1.5 0.9
v -0.3 1.5 0.8
v -0.2 0.1 0.5
v -0.2 0.1 0.4
v -0.2 0.1 0.3
v -0.2 0.1 0.2
v -0.2 0.2 0.5
v -0.2 0.2 0.4
v -0.2 0.2 0.3
v -0.2 0.2 0.2
v -0.2 0.5 0.4
v -0.2 0.5 0.3
v -0.2 0.6 0.4
v -0.2 0.6 0.3
v -0.2 1.3 0.9
v -0.2 1.3 0.8
v -0.2 1.4 0.9
v -0.2 1.4 0.8
v -0.2 1.8 0.9
v -0.2 1.8 0.8
v -0.2 1.9 0.9
v -0.2 1.9 0.8
v -0.1 0 0.7
v -0.1 0 0.6
v -0.1 0 0.1
v -0.1 0 0
v -0.1 0.1 0.6
v -0.1 0.1 0.5
v -0.1 0.1 0.2
v -0.1 0.1 0.1
v -0.1 0.2 0.7
v -0.1 0.2 0.5
v -0.1 0.2 0.4
v -0.1 0.2 0.3
v -0.1 0.2 0.2
v -0.1 0.2 0
v -0.1 0.5 0.5
v -0.1 0.5 0.4
v -0.1 0.5 0.3
v -0.1 0.5 0.2
v -0.1 0.6 0.8
v -0.1 0.6 0.6
v -0.1 0.6 0.5
v -0.1 0.6 0.4
v -0.1 0.6 0.3
v -0.1 0.6 0.2
v -0.1 0.7 0.9
v -0.1 0.7 0.8
v -0.1 0.7 0.7
v -0.1 0.7 0.6
v -0.1 0.7 0.4
v -0.1 0.7 0.3
v -0.1 0.8 0.8
v -0.1 1.3 0.9
v -0.1 1.3 0.8
v -0.1 1.9 0.9
v -0.1 1.9 0.8
v -0.1 2 0.8
v -0.1 2.1 0.9
v -0.1 2.1 0.8
v -5.96046e-08 1.3 0.9
v -5.96046e-08 1.3 0.8
v -5.96046e-08 1.4 0.9
v -5.96046e-08 1.4 0.8
v 0.1 1.4 0.9
v 0.1 1.4 0.8
v 0.1 1.5 0.9
v 0.1 1.5 0.8
v 0.2 0 0.4
v 0.2 0 0.3
v 0.2 0.1 0.4
v 0.2 0.1 0.3
v 0.4 0.8 0.4
v 0.4 0.8 0.3
v 0.4 1 0.3
v 0.4 1 0.2
v 0.4 1.1 0.6
v 0.4 1.1 0.4
v 0.4 1.1 0.2
v 0.4 1.1 0
v 0.4 1.2 0.6
v 0.4 1.2 0
v -0.5 0.8 0.4
v -0.5 0.8 0.3
v -0.5 1 0.3
v -0.5 1 0.2
v -0.5 1.1 0.6
v -0.5 1.1 0.4
v -0.5 1.1 0.2
v -0.5 1.1 0
v -0.5 1.2 0.6
v -0.5 1.2 0
v -0.3 0 0.4
v -0.3 0 0.3
v -0.3 0.1 0.4
v -0.3 0.1 0.3
v -0.2 1.4 0.9
v -0.2 1.4 0.8
v -0.2 1.5 0.9
v -0.2 1.5 0.8
v -0.1 1.3 0.9
v -0.1 1.3 0.8
v -0.1 1.4 0.9
v -0.1 1.4 0.8
v -5.96046e-08 0 0.7
v -5.96046e-08 0 0.6
v -5.96046e-08 0 0.1
v -5.96046e-08 0 0
v -5.96046e-08 0.1 0.6
v -5.96046e-08 0.1 0.5
v -5.96046e-08 0.1 0.2
v -5.96046e-08 0.1 0.1
v -5.96046e-08 0.2 0.7
v -5.96046e-08 0.2 0.5
v -5.96046e-08 0.2 0.4
v -5.96046e-08 0.2 0.3
v -5.96046e-08 0.2 0.2
v -5.96046e-08 0.2 0
v -5.96046e-08 0.5 0.5
v -5.96046e-08 0.5 0.4
v -5.96046e-08 0.5 0.3
v -5.96046e-08 0.5 0.2
v -5.96046e-08 0.6 0.8
v -5.96046e-08 0.6 0.6
v -5.96046e-08 0.6 0.5
v -5.96046e-08 0.6 0.4
v -5.96046e-08 0.6 0.3
v -5.96046e-08 0.6 0.2
v -5.96046e-08 0.7 0.9
v -5.96046e-08 0.7 0.8
v -5.96046e-08 0.7 0.7
v -5.96046e-08 0.7 0.6
v -5.96046e-08 0.7 0.4
v -5.96046e-08 0.7 0.3
v -5.96046e-08 0.8 0.8
v -5.96046e-08 1.3 0.9
v -5.96046e-08 1.3 0.8
v -5.96046e-08 1.9 0.9
v -5.96046e-08 1.9 0.8
v -5.96046e-08 2 0.8
v -5.96046e-08 2.1 0.9
v -5.96046e-08 2.1 0.8
v 0.1 0.1 0.5
v 0.1 0.1 0.4
v 0.1 0.1 0.3
v 0.1 0.1 0.2
v 0.1 0.2 0.5
v 0.1 0.2 0.4
v 0.1 0.2 0.3
v 0.1 0.2 0.2
v 0.1 0.5 0.4
v 0.1 0.5 0.3
v 0.1 0.6 0.4
v 0.1 0.6 0.3
v 0.1 1.3 0.9
v 0.1 1.3 0.8
v 0.1 1.4 0.9
v 0.1 1.4 0.8
v 0.1 1.8 0.9
v 0.1 1.8 0.8
v 0.1 1.9 0.9
v 0.1 1.9 0.8
v 0.2 0.8 0.8
v 0.2 0.8 0.7
v 0.2 0.9 0.8
v 0.2 0.9 0.7
v 0.2 1.4 0.9
v 0.2 1.4 0.8
v 0.2 1.5 0.9
v 0.2 1.5 0.8
v 0.3 0 0.4
v 0.3 0 0.3
v 0.3 0.2 0.4
v 0.3 0.2 0.3
v 0.3 0.7 0
v 0.3 0.7 -0.1
v 0.3 0.8 0
v 0.3 0.8 -0.1
v 0.3 2 0.8
v 0.3 2 0.7
v 0.3 2.2 0.8
v 0.3 2.2 0.7
v 0.4 0.7 0.7
v 0.4 0.7 0.4
v 0.4 0.7 0.3
v 0.4 0.7 0
v 0.4 0.8 0.7
v 0.4 0.8 0.4
v 0.4 0.8 0.3
v 0.4 0.8 0
v 0.4 0.9 0.8
v 0.4 0.9 0.7
v 0.4 1.9 0.8
v 0.4 1.9 0.7
v 0.5 0.7 0.4
v 0.5 0.7 0.3
v 0.5 1 0.3
v 0.5 1 0.2
v 0.5 1.1 0.6
v 0.5 1.1 0.4
v 0.5 1.1 0.2
v 0.5 1.1 0
v 0.5 1.2 0.6
v 0.5 1.2 0
v -0.3 1.4 0.9
v -0.3 1.5 0.9
v -0.2 1.3 0.9
v -0.2 1.4 0.9
v -0.2 1.5 0.9
v -0.2 1.8 0.9
v -0.2 1.9 0.9
v -0.1 0.7 0.9
v -0.1 1.3 0.9
v -0.1 1.4 0.9
v -0.1 1.9 0.9
v -0.1 2.1 0.9
v -5.96046e-08 0.7 0.9
v -5.96046e-08 1.3 0.9
v -5.96046e-08 1.4 0.9
v -5.96046e-08 1.9 0.9
v -5.96046e-08 2.1 0.9
v 0.1 1.3 0.9
v 0.1 1.4 0.9
v 0.1 1.5 0.9
v 0.1 1.8 0.9
v 0.1 1.9 0.9
v 0.2 1.4 0.9
v 0.2 1.5 0.9
v -0.5 0.9 0.8
v -0.5 1.9 0.8
v -0.4 2 0.8
v -0.4 2.2 0.8
v -0.3 0.8 0.8
v -0.3 0.9 0.8
v -0.3 1.4 0.8
v -0.3 1.5 0.8
v -0.2 1.3 0.8
v -0.2 1.4 0.8
v -0.2 1.5 0.8
v -0.2 1.8 0.8
v -0.2 1.9 0.8
v -0.1 0.6 0.8
v -0.1 0.7 0.8
v -0.1 0.8 0.8
v -0.1 1.3 0.8
v -0.1 1.4 0.8
v -0.1 2 0.8
v -0.1 2.1 0.8
v -5.96046e-08 0.6 0.8
v -5.96046e-08 0.7 0.8
v -5.96046e-08 0.8 0.8
v -5.96046e-08 1.3 0.8
v -5.96046e-08 1.4 0.8
v -5.96046e-08 2 0.8
v -5.96046e-08 2.1 0.8
v 0.1 1.3 0.8
v 0.1 1.4 0.8
v 0.1 1.5 0.8
v 0.1 1.8 0.8
v 0.1 1.9 0.8
v 0.2 0.8 0.8
v 0.2 0.9 0.8
v 0.2 1.4 0.8
v 0.2 1.5 0.8
v 0.3 2 0.8
v 0.3 2.2 0.8
v 0.4 0.9 0.8
v 0.4 1.9 0.8
v -0.5 0.7 0.7
v -0.5 0.8 0.7
v -0.3 0.8 0.7
v -0.1 0 0.7
v -0.1 0.2 0.7
v -0.1 0.7 0.7
v -5.96046e-08 0 0.7
v -5.96046e-08 0.2 0.7
v -5.96046e-08 0.7 0.7
v 0.2 0.8 0.7
v 0.4 0.7 0.7
v 0.4 0.8 0.7
v -0.6 1.1 0.6
v -0.6 1.2 0.6
v -0.5 1.1 0.6
v -0.5 1.2 0.6
v 0.4 1.1 0.6
v 0.4 1.2 0.6
v 0.5 1.1 0.6
v 0.5 1.2 0.6
v -0.2 0.1 0.5
v -0.2 0.2 0.5
v -0.1 0.1 0.5
v -0.1 0.2 0.5
v -0.1 0.5 0.5
v -0.1 0.6 0.5
v -5.96046e-08 0.1 0.5
v -5.96046e-08 0.2 0.5
v -5.96046e-08 0.5 0.5
v -5.96046e-08 0.6 0.5
v 0.1 0.1 0.5
v 0.1 0.2 0.5
v -0.6 0.7 0.4
v -0.6 1.1 0.4
v -0.5 0.7 0.4
v -0.5 0.8 0.4
v -0.5 1.1 0.4
v -0.4 0 0.4
v -0.4 0.2 0.4
v -0.3 0 0.4
v -0.3 0.1 0.4
v -0.2 0.1 0.4
v -0.2 0.2 0.4
v -0.2 0.5 0.4
v -0.2 0.6 0.4
v -0.1 0.2 0.4
v -0.1 0.5 0.4
v -0.1 0.6 0.4
v -0.1 0.7 0.4
v -5.96046e-08 0.2 0.4
v -5.96046e-08 0.5 0.4
v -5.96046e-08 0.6 0.4
v -5.96046e-08 0.7 0.4
v 0.1 0.1 0.4
v 0.1 0.2 0.4
v 0.1 0.5 0.4
v 0.1 0.6 0.4
v 0.2 0 0.4
v 0.2 0.1 0.4
v 0.3 0 0.4
v 0.3 0.2 0.4
v 0.4 0.7 0.4
v 0.4 0.8 0.4
v 0.4 1.1 0.4
v 0.5 0.7 0.4
v 0.5 1.1 0.4
v -0.1 0 0.1
v -0.1 0.1 0.1
v -5.96046e-08 0 0.1
v -5.96046e-08 0.1 0.1
v -0.1 0.7 0.8
v -0.1 0.8 0.8
v -0.1 1.9 0.8
v -0.1 2 0.8
v -5.96046e-08 0.7 0.8
v -5.96046e-08 0.8 0.8
v -5.96046e-08 1.9 0.8
v -5.96046e-08 2 0.8
v -0.5 0.9 0.7
v -0.5 1.9 0.7
v -0.4 2 0.7
v -0.4 2.2 0.7
v -0.3 0.8 0.7
v -0.3 0.9 0.7
v 0.2 0.8 0.7
v 0.2 0.9 0.7
v 0.3 2 0.7
v 0.3 2.2 0.7
v 0.4 0.9 0.7
v 0.4 1.9 0.7
v -0.1 0 0.6
v -0.1 0.1 0.6
v -0.1 0.6 0.6
v -0.1 0.7 0.6
v -5.96046e-08 0 0.6
v -5.96046e-08 0.1 0.6
v -5.96046e-08 0.6 0.6
v -5.96046e-08 0.7 0.6
v -0.6 0.7 0.3
v -0.6 1 0.3
v -0.5 0.7 0.3
v -0.5 0.8 0.3
v -0.5 1 0.3
v -0.4 0 0.3
v -0.4 0.2 0.3
v -0.3 0 0.3
v -0.3 0.1 0.3
v -0.2 0.1 0.3
v -0.2 0.2 0.3
v -0.2 0.5 0.3
v -0.2 0.6 0.3
v -0.1 0.2 0.3
v -0.1 0.5 0.3
v -0.1 0.6 0.3
v -0.1 0.7 0.3
v -5.96046e-08 0.2 0.3
v -5.96046e-08 0.5 0.3
v -5.96046e-08 0.6 0.3
v -5.96046e-08 0.7 0.3
v 0.1 0.1 0.3
v 0.1 0.2 0.3
v 0.1 0.5 0.3
v 0.1 0.6 0.3
v 0.2 0 0.3
v 0.2 0.1 0.3
v 0.3 0 0.3
v 0.3 0.2 0.3
v 0.4 0.7 0.3
v 0.4 0.8 0.3
v 0.4 1 0.3
v 0.5 0.7 0.3
v 0.5 1 0.3
v -0.6 1 0.2
v -0.6 1.1 0.2
v -0.5 1 0.2
v -0.5 1.1 0.2
v -0.2 0.1 0.2
v -0.2 0.2 0.2
v -0.1 0.1 0.2
v -0.1 0.2 0.2
v -0.1 0.5 0.2
v -0.1 0.6 0.2
v -5.96046e-08 0.1 0.2
v -5.96046e-08 0.2 0.2
v -5.96046e-08 0.5 0.2
v -5.96046e-08 0.6 0.2
v 0.1 0.1 0.2
v 0.1 0.2 0.2
v 0.4 1 0.2
v 0.4 1.1 0.2
v 0.5 1 0.2
v 0.5 1.1 0.2
v -0.6 1.1 0
v -0.6 1.2 0
v -0.5 0.7 0
v -0.5 0.8 0
v -0.5 1.1 0
v -0.5 1.2 0
v -0.4 0.7 0
v -0.4 0.8 0
v -0.1 0 0
v -0.1 0.2 0
v -5.96046e-08 0 0
v -5.96046e-08 0.2 0
v 0.3 0.7 0
v 0.3 0.8 0
v 0.4 0.7 0
v 0.4 0.8 0
v 0.4 1.1 0
v 0.4 1.2 0
v 0.5 1.1 0
v 0.5 1.2 0
v -0.4 0.7 -0.1
v -0.4 0.8 -0.1
v 0.3 0.7 -0.1
v 0.3 0.8 -0.1
v -0.1 0 0.7
v -5.96046e-08 0 0.7
v -0.1 0 0.6
v -5.96046e-08 0 0.6
v -0.4 0 0.4
v -0.3 0 0.4
v 0.2 0 0.4
v 0.3 0 0.4
v -0.4 0 0.3
v -0.3 0 0.3
v 0.2 0 0.3
v 0.3 0 0.3
v -0.1 0 0.1
v -5.96046e-08 0 0.1
v -0.1 0 0
v -5.96046e-08 0 0
v -0.1 0.1 0.6
v -5.96046e-08 0.1 0.6
v -0.2 0.1 0.5
v -0.1 0.1 0.5
v -5.96046e-08 0.1 0.5
v 0.1 0.1 0.5
v -0.3 0.1 0.4
v -0.2 0.1 0.4
v 0.1 0.1 0.4
v 0.2 0.1 0.4
v -0.3 0.1 0.3
v -0.2 0.1 0.3
v 0.1 0.1 0.3
v 0.2 0.1 0.3
v -0.2 0.1 0.2
v -0.1 0.1 0.2
v -5.96046e-08 0.1 0.2
v 0.1 0.1 0.2
v -0.1 0.1 0.1
v -5.96046e-08 0.1 0.1
v -0.1 0.5 0.5
v -5.96046e-08 0.5 0.5
v -0.2 0.5 0.4
v -0.1 0.5 0.4
v -5.96046e-08 0.5 0.4
v 0.1 0.5 0.4
v -0.2 0.5 0.3
v -0.1 0.5 0.3
v -5.96046e-08 0.5 0.3
v 0.1 0.5 0.3
v -0.1 0.5 0.2
v -5.96046e-08 0.5 0.2
v -0.1 0.6 0.8
v -5.96046e-08 0.6 0.8
v -0.1 0.6 0.6
v -5.96046e-08 0.6 0.6
v -0.1 0.7 0.9
v -5.96046e-08 0.7 0.9
v -0.1 0.7 0.8
v -5.96046e-08 0.7 0.8
v -0.5 0.7 0.7
v -0.1 0.7 0.7
v -5.96046e-08 0.7 0.7
v 0.4 0.7 0.7
v -0.1 0.7 0.6
v -5.96046e-08 0.7 0.6
v -0.6 0.7 0.4
v -0.5 0.7 0.4
v -0.1 0.7 0.4
v -5.96046e-08 0.7 0.4
v 0.4 0.7 0.4
v 0.5 0.7 0.4
v -0.6 0.7 0.3
v -0.5 0.7 0.3
v -0.1 0.7 0.3
v -5.96046e-08 0.7 0.3
v 0.4 0.7 0.3
v 0.5 0.7 0.3
v -0.5 0.7 0
v -0.4 0.7 0
v 0.3 0.7 0
v 0.4 0.7 0
v -0.4 0.7 -0.1
v 0.3 0.7 -0.1
v -0.3 0.8 0.8
v -0.1 0.8 0.8
v -5.96046e-08 0.8 0.8
v 0.2 0.8 0.8
v -0.3 0.8 0.7
v 0.2 0.8 0.7
v -0.5 0.9 0.8
v -0.3 0.9 0.8
v 0.2 0.9 0.8
v 0.4 0.9 0.8
v -0.5 0.9 0.7
v -0.3 0.9 0.7
v 0.2 0.9 0.7
v 0.4 0.9 0.7
v -0.6 1 0.3
v -0.5 1 0.3
v 0.4 1 0.3
v 0.5 1 0.3
v -0.6 1 0.2
v -0.5 1 0.2
v 0.4 1 0.2
v 0.5 1 0.2
v -0.6 1.1 0.6
v -0.5 1.1 0.6
v 0.4 1.1 0.6
v 0.5 1.1 0.6
v -0.6 1.1 0.4
v -0.5 1.1 0.4
v 0.4 1.1 0.4
v 0.5 1.1 0.4
v -0.6 1.1 0.2
v -0.5 1.1 0.2
v 0.4 1.1 0.2
v 0.5 1.1 0.2
v -0.6 1.1 0
v -0.5 1.1 0
v 0.4 1.1 0
v 0.5 1.1 0
v -0.2 1.3 0.9
v -0.1 1.3 0.9
v -5.96046e-08 1.3 0.9
v 0.1 1.3 0.9
v -0.2 1.3 0.8
v -0.1 1.3 0.8
v -5.96046e-08 1.3 0.8
v 0.1 1.3 0.8
v -0.3 1.4 0.9
v -0.2 1.4 0.9
v 0.1 1.4 0.9
v 0.2 1.4 0.9
v -0.3 1.4 0.8
v -0.2 1.4 0.8
v 0.1 1.4 0.8
v 0.2 1.4 0.8
v -0.2 1.8 0.9
v 0.1 1.8 0.9
v -0.2 1.8 0.8
v 0.1 1.8 0.8
v -0.4 2 0.8
v -0.1 2 0.8
v -5.96046e-08 2 0.8
v 0.3 2 0.8
v -0.4 2 0.7
v 0.3 2 0.7
v -0.1 0.2 0.7
v -5.96046e-08 0.2 0.7
v -0.2 0.2 0.5
v -0.1 0.2 0.5
v -5.96046e-08 0.2 0.5
v 0.1 0.2 0.5
v -0.4 0.2 0.4
v -0.2 0.2 0.4
v -0.1 0.2 0.4
v -5.96046e-08 0.2 0.4
v 0.1 0.2 0.4
v 0.3 0.2 0.4
v -0.4 0.2 0.3
v -0.2 0.2 0.3
v -0.1 0.2 0.3
v -5.96046e-08 0.2 0.3
v 0.1 0.2 0.3
v 0.3 0.2 0.3
v -0.2 0.2 0.2
v -0.1 0.2 0.2
v -5.96046e-08 0.2 0.2
v 0.1 0.2 0.2
v -0.1 0.2 0
v -5.96046e-08 0.2 0
v -0.1 0.6 0.5
v -5.96046e-08 0.6 0.5
v -0.2 0.6 0.4
v -0.1 0.6 0.4
v -5.96046e-08 0.6 0.4
v 0.1 0.6 0.4
v -0.2 0.6 0.3
v -0.1 0.6 0.3
v -5.96046e-08 0.6 0.3
v 0.1 0.6 0.3
v -0.1 0.6 0.2
v -5.96046e-08 0.6 0.2
v -0.1 0.7 0.8
v -5.96046e-08 0.7 0.8
v -0.1 0.7 0.7
v -5.96046e-08 0.7 0.7
v -0.5 0.8 0.7
v -0.3 0.8 0.7
v 0.2 0.8 0.7
v 0.4 0.8 0.7
v -0.5 0.8 0.4
v 0.4 0.8 0.4
v -0.5 0.8 0.3
v 0.4 0.8 0.3
v -0.5 0.8 0
v -0.4 0.8 0
v 0.3 0.8 0
v 0.4 0.8 0
v -0.4 0.8 -0.1
v 0.3 0.8 -0.1
v -0.6 1.2 0.6
v -0.5 1.2 0.6
v 0.4 1.2 0.6
v 0.5 1.2 0.6
v -0.6 1.2 0
v -0.5 1.2 0
v 0.4 1.2 0
v 0.5 1.2 0
v -0.1 1.3 0.9
v -5.96046e-08 1.3 0.9
v -0.1 1.3 0.8
v -5.96046e-08 1.3 0.8
v -0.2 1.4 0.9
v -0.1 1.4 0.9
v -5.96046e-08 1.4 0.9
v 0.1 1.4 0.9
v -0.2 1.4 0.8
v -0.1 1.4 0.8
v -5.96046e-08 1.4 0.8
v 0.1 1.4 0.8
v -0.3 1.5 0.9
v -0.2 1.5 0.9
v 0.1 1.5 0.9
v 0.2 1.5 0.9
v -0.3 1.5 0.8
v -0.2 1.5 0.8
v 0.1 1.5 0.8
v 0.2 1.5 0.8
v -0.2 1.9 0.9
v -0.1 1.9 0.9
v -5.96046e-08 1.9 0.9
v 0.1 1.9 0.9
v -0.5 1.9 0.8
v -0.2 1.9 0.8
v -0.1 1.9 0.8
v -5.96046e-08 1.9 0.8
v 0.1 1.9 0.8
v 0.4 1.9 0.8
v -0.5 1.9 0.7
v 0.4 1.9 0.7
v -0.1 2.1 0.9
v -5.96046e-08 2.1 0.9
v -0.1 2.1 0.8
v -5.96046e-08 2.1 0.8
v -0.4 2.2 0.8
v 0.3 2.2 0.8
v -0.4 2.2 0.7
v 0.3 2.2 0.7

# faces
f 3/2/1 2/2/1 1/2/1
f 6/2/1 3/2/1 1/2/1
f 6/2/1 4/2/1 3/2/1
f 7/2/1 4/2/1 6/2/1
f 9/2/1 6/2/1 5/2/1
f 9/2/1 8/2/1 7/2/1
f 9/2/1 7/2/1 6/2/1
f 10/2/1 8/2/1 9/2/1
f 15/2/1 12/2/1 11/2/1
f 16/2/1 12/2/1 15/2/1
f 17/2/1 14/2/1 13/2/1
f 18/2/1 14/2/1 17/2/1
f 21/2/1 20/2/1 19/2/1
f 22/2/1 20/2/1 21/2/1
f 25/2/1 24/2/1 23/2/1
f 26/2/1 24/2/1 25/2/1
f 29/2/1 28/2/1 27/2/1
f 30/2/1 28/2/1 29/2/1
f 33/2/1 32/2/1 31/2/1
f 34/2/1 32/2/1 33/2/1
f 37/2/1 36/2/1 35/2/1
f 38/2/1 36/2/1 37/2/1
f 41/1/1 40/1/1 39/1/1
f 42/1/1 40/1/1 41/1/1
f 47/2/1 44/2/1 43/2/1
f 48/2/1 44/2/1 47/2/1
f 49/2/1 46/2/1 45/2/1
f 50/2/1 46/2/1 49/2/1
f 53/1/1 52/1/1 51/1/1
f 54/1/1 52/1/1 53/1/1
f 57/1/1 56/1/1 55/1/1
f 58/1/1 56/1/1 57/1/1
f 61/2/1 60/2/1 59/2/1
f 62/2/1 60/2/1 61/2/1
f 67/2/1 64/2/1 63/2/1
f 70/2/1 66/2/1 65/2/1
f 71/2/1 68/2/1 67/2/1
f 71/2/1 67/2/1 63/2/1
f 72/2/1 68/2/1 71/2/1
f 75/2/1 70/2/1 69/2/1
f 76/2/1 66/2/1 70/2/1
f 76/2/1 70/2/1 75/2/1
f 78/2/1 74/2/1 73/2/1
f 79/2/1 74/2/1 78/2/1
f 83/1/1 78/1/1 77/1/1
f 84/1/1 78/1/1 83/1/1
f 85/1/1 80/1/1 79/1/1
f 86/1/1 80/1/1 85/1/1
f 88/1/1 82/1/1 81/1/1
f 89/1/1 82/1/1 88/1/1
f 90/1/1 82/1/1 89/1/1
f 91/2/1 85/2/1 84/2/1
f 92/2/1 85/2/1 91/2/1
f 93/1/1 88/1/1 87/1/1
f 94/1/1 93/1/1 87/1/1
f 95/1/1 93/1/1 94/1/1
f 98/2/1 97/2/1 96/2/1
f 99/2/1 98/2/1 96/2/1
f 100/2/1 98/2/1 99/2/1
f 103/1/1 102/1/1 101/1/1
f 104/1/1 102/1/1 103/1/1
f 107/1/1 106/1/1 105/1/1
f 108/1/1 106/1/1 107/1/1
f 111/2/1 110/2/1 109/2/1
f 112/2/1 110/2/1 111/2/1
f 115/2/1 114/2/1 113/2/1
f 118/2/1 115/2/1 113/2/1
f 118/2/1 116/2/1 115/2/1
f 119/2/1 116/2/1 118/2/1
f 121/2/1 118/2/1 117/2/1
f 121/2/1 120/2/1 119/2/1
f 121/2/1 119/2/1 118/2/1
f 122/2/1 120/2/1 121/2/1
f 123/2/2 124/2/2 125/2/2
f 123/2/2 125/2/2 128/2/2
f 125/2/2 126/2/2 128/2/2
f 128/2/2 126/2/2 129/2/2
f 127/2/2 128/2/2 131/2/2
f 129/2/2 130/2/2 131/2/2
f 128/2/2 129/2/2 131/2/2
f 131/2/2 130/2/2 132/2/2
f 133/2/2 134/2/2 135/2/2
f 135/2/2 134/2/2 136/2/2
f 137/1/2 138/1/2 139/1/2
f 139/1/2 138/1/2 140/1/2
f 141/1/2 142/1/2 143/1/2
f 143/1/2 142/1/2 144/1/2
f 145/2/2 146/2/2 149/2/2
f 147/2/2 148/2/2 152/2/2
f 149/2/2 150/2/2 153/2/2
f 145/2/2 149/2/2 153/2/2
f 153/2/2 150/2/2 154/2/2
f 151/2/2 152/2/2 157/2/2
f 152/2/2 148/2/2 158/2/2
f 157/2/2 152/2/2 158/2/2
f 155/2/2 156/2/2 160/2/2
f 160/2/2 156/2/2 161/2/2
f 159/1/2 160/1/2 165/1/2
f 165/1/2 160/1/2 166/1/2
f 161/1/2 162/1/2 167/1/2
f 167/1/2 162/1/2 168/1/2
f 163/1/2 164/1/2 170/1/2
f 170/1/2 164/1/2 171/1/2
f 171/1/2 164/1/2 172/1/2
f 166/2/2 167/2/2 173/2/2
f 173/2/2 167/2/2 174/2/2
f 169/1/2 170/1/2 175/1/2
f 169/1/2 175/1/2 176/1/2
f 176/1/2 175/1/2 177/1/2
f 178/2/2 179/2/2 180/2/2
f 178/2/2 180/2/2 181/2/2
f 181/2/2 180/2/2 182/2/2
f 183/2/2 184/2/2 187/2/2
f 187/2/2 184/2/2 188/2/2
f 185/2/2 186/2/2 189/2/2
f 189/2/2 186/2/2 190/2/2
f 191/1/2 192/1/2 193/1/2
f 193/1/2 192/1/2 194/1/2
f 195/1/2 196/1/2 197/1/2
f 197/1/2 196/1/2 198/1/2
f 199/2/2 200/2/2 201/2/2
f 201/2/2 200/2/2 202/2/2
f 203/2/2 204/2/2 205/2/2
f 205/2/2 204/2/2 206/2/2
f 207/1/2 208/1/2 209/1/2
f 209/1/2 208/1/2 210/1/2
f 211/2/2 212/2/2 213/2/2
f 213/2/2 212/2/2 214/2/2
f 215/2/2 216/2/2 217/2/2
f 217/2/2 216/2/2 218/2/2
f 219/2/2 220/2/2 221/2/2
f 221/2/2 220/2/2 222/2/2
f 223/2/2 224/2/2 227/2/2
f 227/2/2 224/2/2 228/2/2
f 225/2/2 226/2/2 229/2/2
f 229/2/2 226/2/2 230/2/2
f 231/2/2 232/2/2 233/2/2
f 233/2/2 232/2/2 234/2/2
f 235/2/2 236/2/2 237/2/2
f 235/2/2 237/2/2 240/2/2
f 237/2/2 238/2/2 240/2/2
f 240/2/2 238/2/2 241/2/2
f 239/2/2 240/2/2 243/2/2
f 241/2/2 242/2/2 243/2/2
f 240/2/2 241/2/2 243/2/2
f 243/2/2 242/2/2 244/2/2
f 248/1/3 246/1/3 245/1/3
f 249/1/3 246/1/3 248/1/3
f 253/1/3 248/1/3 247/1/3
f 254/1/3 248/1/3 253/1/3
f 255/2/3 251/2/3 250/2/3
f 257/1/3 253/1/3 252/1/3
f 258/1/3 253/1/3 257/1/3
f 260/2/3 256/2/3 255/2/3
f 260/2/3 255/2/3 250/2/3
f 261/2/3 256/2/3 260/2/3
f 262/1/3 259/1/3 258/1/3
f 263/1/3 259/1/3 262/1/3
f 265/2/3 260/2/3 250/2/3
f 266/2/3 260/2/3 265/2/3
f 267/1/3 264/1/3 263/1/3
f 268/1/3 264/1/3 267/1/3
f 274/2/3 270/2/3 269/2/3
f 275/2/3 270/2/3 274/2/3
f 276/2/3 270/2/3 275/2/3
f 277/2/3 274/2/3 273/2/3
f 277/2/3 275/2/3 274/2/3
f 278/2/3 275/2/3 277/2/3
f 279/2/3 270/2/3 276/2/3
f 280/2/3 270/2/3 279/2/3
f 281/2/3 270/2/3 280/2/3
f 284/2/3 277/2/3 273/2/3
f 285/2/3 277/2/3 284/2/3
f 286/2/3 279/2/3 278/2/3
f 286/2/3 280/2/3 279/2/3
f 287/2/3 272/2/3 271/2/3
f 288/2/3 272/2/3 287/2/3
f 289/1/3 283/1/3 282/1/3
f 290/1/3 283/1/3 289/1/3
f 292/2/3 286/2/3 285/2/3
f 293/2/3 280/2/3 286/2/3
f 293/2/3 286/2/3 292/2/3
f 295/2/3 272/2/3 288/2/3
f 296/2/3 292/2/3 291/2/3
f 297/2/3 280/2/3 293/2/3
f 298/2/3 280/2/3 297/2/3
f 299/2/3 280/2/3 298/2/3
f 301/2/3 296/2/3 291/2/3
f 301/2/3 297/2/3 296/2/3
f 302/2/3 297/2/3 301/2/3
f 303/2/3 297/2/3 302/2/3
f 304/2/3 300/2/3 299/2/3
f 304/2/3 299/2/3 298/2/3
f 305/2/3 295/2/3 294/2/3
f 306/2/3 272/2/3 295/2/3
f 306/2/3 295/2/3 305/2/3
f 307/2/3 304/2/3 303/2/3
f 307/2/3 303/2/3 302/2/3
f 308/2/3 300/2/3 304/2/3
f 308/2/3 304/2/3 307/2/3
f 311/2/3 310/2/3 309/2/3
f 314/2/3 311/2/3 309/2/3
f 315/2/3 313/2/3 312/2/3
f 316/2/3 313/2/3 315/2/3
f 317/2/3 311/2/3 314/2/3
f 318/2/3 311/2/3 317/2/3
f 319/2/3 318/2/3 317/2/3
f 320/2/3 318/2/3 319/2/3
f 323/2/3 322/2/3 321/2/3
f 324/2/3 322/2/3 323/2/3
f 327/2/3 326/2/3 325/2/3
f 328/2/3 326/2/3 327/2/3
f 331/2/3 330/2/3 329/2/3
f 332/2/3 330/2/3 331/2/3
f 337/1/3 334/1/3 333/1/3
f 338/1/3 334/1/3 337/1/3
f 339/2/3 336/2/3 335/2/3
f 340/2/3 336/2/3 339/2/3
f 343/2/3 342/2/3 341/2/3
f 344/2/3 342/2/3 343/2/3
f 345/2/3 342/2/3 344/2/3
f 348/2/3 347/2/3 346/2/3
f 349/2/3 347/2/3 348/2/3
f 350/2/3 347/2/3 349/2/3
f 351/2/3 347/2/3 350/2/3
f 355/1/3 353/1/3 352/1/3
f 356/1/3 353/1/3 355/1/3
f 358/2/3 355/2/3 354/2/3
f 359/2/3 355/2/3 358/2/3
f 360/2/3 357/2/3 356/2/3
f 361/2/3 357/2/3 360/2/3
f 364/1/3 360/1/3 359/1/3
f 365/1/3 360/1/3 364/1/3
f 367/2/3 363/2/3 362/2/3
f 368/2/3 367/2/3 366/2/3
f 369/2/3 363/2/3 367/2/3
f 369/2/3 367/2/3 368/2/3
f 373/2/3 371/2/3 370/2/3
f 373/2/3 372/2/3 371/2/3
f 374/2/3 372/2/3 373/2/3
f 377/2/3 376/2/3 375/2/3
f 378/2/3 376/2/3 377/2/3
f 379/1/4 380/1/4 383/1/4
f 383/1/4 380/1/4 384/1/4
f 381/2/4 382/2/4 385/2/4
f 385/2/4 382/2/4 386/2/4
f 387/2/4 388/2/4 392/2/4
f 391/2/4 392/2/4 393/2/4
f 392/2/4 388/2/4 394/2/4
f 393/2/4 392/2/4 394/2/4
f 389/2/4 390/2/4 395/2/4
f 395/2/4 390/2/4 396/2/4
f 394/2/4 388/2/4 397/2/4
f 397/2/4 388/2/4 398/2/4
f 399/2/4 400/2/4 403/2/4
f 403/2/4 400/2/4 404/2/4
f 401/1/4 402/1/4 405/1/4
f 405/1/4 402/1/4 406/1/4
f 407/2/4 408/2/4 409/2/4
f 409/2/4 408/2/4 410/2/4
f 410/2/4 408/2/4 411/2/4
f 412/2/4 413/2/4 414/2/4
f 414/2/4 413/2/4 415/2/4
f 415/2/4 413/2/4 416/2/4
f 416/2/4 413/2/4 417/2/4
f 418/1/4 419/1/4 421/1/4
f 421/1/4 419/1/4 422/1/4
f 420/2/4 421/2/4 424/2/4
f 424/2/4 421/2/4 425/2/4
f 422/2/4 423/2/4 426/2/4
f 426/2/4 423/2/4 427/2/4
f 425/1/4 426/1/4 430/1/4
f 430/1/4 426/1/4 431/1/4
f 428/2/4 429/2/4 433/2/4
f 432/2/4 433/2/4 434/2/4
f 433/2/4 429/2/4 435/2/4
f 434/2/4 433/2/4 435/2/4
f 436/2/4 437/2/4 439/2/4
f 437/2/4 438/2/4 439/2/4
f 439/2/4 438/2/4 440/2/4
f 441/2/4 442/2/4 443/2/4
f 443/2/4 442/2/4 444/2/4
f 445/2/4 446/2/4 447/2/4
f 447/2/4 446/2/4 448/2/4
f 449/1/4 450/1/4 453/1/4
f 453/1/4 450/1/4 454/1/4
f 451/2/4 452/2/4 455/2/4
f 455/2/4 452/2/4 456/2/4
f 457/2/4 458/2/4 459/2/4
f 459/2/4 458/2/4 460/2/4
f 461/2/4 462/2/4 465/2/4
f 465/2/4 462/2/4 466/2/4
f 463/2/4 464/2/4 467/2/4
f 467/2/4 464/2/4 468/2/4
f 469/2/4 470/2/4 471/2/4
f 471/2/4 470/2/4 472/2/4
f 473/2/4 474/2/4 475/2/4
f 475/2/4 474/2/4 476/2/4
f 477/2/4 478/2/4 479/2/4
f 479/2/4 478/2/4 480/2/4
f 481/2/4 482/2/4 483/2/4
f 483/2/4 482/2/4 484/2/4
f 487/2/5 486/2/5 485/2/5
f 488/2/5 486/2/5 487/2/5
f 493/2/5 490/2/5 489/2/5
f 494/2/5 490/2/5 493/2/5
f 495/2/5 492/2/5 491/2/5
f 496/2/5 492/2/5 495/2/5
f 499/2/5 498/2/5 497/2/5
f 500/2/5 498/2/5 499/2/5
f 504/2/5 502/2/5 501/2/5
f 505/2/5 502/2/5 504/2/5
f 508/2/5 504/2/5 503/2/5
f 508/2/5 506/2/5 505/2/5
f 508/2/5 505/2/5 504/2/5
f 509/2/5 506/2/5 508/2/5
f 511/2/5 508/2/5 507/2/5
f 511/2/5 510/2/5 509/2/5
f 511/2/5 509/2/5 508/2/5
f 512/2/5 510/2/5 511/2/5
f 513/2/5 510/2/5 512/2/5
f 514/2/5 510/2/5 513/2/5
f 515/2/5 513/2/5 512/2/5
f 516/2/5 513/2/5 515/2/5
f 517/2/5 513/2/5 516/2/5
f 518/2/5 513/2/5 517/2/5
f 519/2/5 517/2/5 516/2/5
f 520/2/5 517/2/5 519/2/5
f 524/1/5 522/1/5 521/1/5
f 525/1/5 522/1/5 524/1/5
f 527/1/5 524/1/5 523/1/5
f 528/1/5 524/1/5 527/1/5
f 529/1/5 526/1/5 525/1/5
f 530/1/5 526/1/5 529/1/5
f 531/1/5 529/1/5 528/1/5
f 532/1/5 529/1/5 531/1/5
f 535/1/5 534/1/5 533/1/5
f 536/1/5 534/1/5 535/1/5
f 539/1/5 538/1/5 537/1/5
f 540/1/5 538/1/5 539/1/5
f 545/2/5 542/2/5 541/2/5
f 546/2/5 544/2/5 543/2/5
f 548/2/5 545/2/5 541/2/5
f 548/2/5 546/2/5 545/2/5
f 549/2/5 546/2/5 548/2/5
f 550/2/5 544/2/5 546/2/5
f 550/2/5 546/2/5 549/2/5
f 551/2/5 544/2/5 550/2/5
f 553/2/5 549/2/5 548/2/5
f 553/2/5 548/2/5 547/2/5
f 554/2/5 549/2/5 553/2/5
f 555/2/5 549/2/5 554/2/5
f 556/2/5 552/2/5 551/2/5
f 556/2/5 551/2/5 550/2/5
f 557/2/5 552/2/5 556/2/5
f 558/2/5 552/2/5 557/2/5
f 559/2/5 555/2/5 554/2/5
f 559/2/5 557/2/5 556/2/5
f 559/2/5 556/2/5 555/2/5
f 560/2/5 557/2/5 559/2/5
f 561/2/5 557/2/5 560/2/5
f 562/2/5 557/2/5 561/2/5
f 563/2/5 561/2/5 560/2/5
f 564/2/5 561/2/5 563/2/5
f 569/2/5 566/2/5 565/2/5
f 569/2/5 568/2/5 567/2/5
f 569/2/5 567/2/5 566/2/5
f 570/2/5 568/2/5 569/2/5
f 575/2/5 572/2/5 571/2/5
f 576/2/5 572/2/5 575/2/5
f 577/2/5 574/2/5 573/2/5
f 578/2/5 574/2/5 577/2/5
f 583/2/5 580/2/5 579/2/5
f 584/2/5 580/2/5 583/2/5
f 585/2/5 582/2/5 581/2/5
f 586/2/5 582/2/5 585/2/5
f 591/2/5 588/2/5 587/2/5
f 592/2/5 588/2/5 591/2/5
f 593/2/5 590/2/5 589/2/5
f 594/2/5 590/2/5 593/2/5
f 599/2/5 596/2/5 595/2/5
f 600/2/5 596/2/5 599/2/5
f 601/2/5 598/2/5 597/2/5
f 602/2/5 598/2/5 601/2/5
f 607/1/5 604/1/5 603/1/5
f 608/1/5 604/1/5 607/1/5
f 609/1/5 606/1/5 605/1/5
f 610/1/5 606/1/5 609/1/5
f 615/1/5 612/1/5 611/1/5
f 616/1/5 612/1/5 615/1/5
f 617/1/5 614/1/5 613/1/5
f 618/1/5 614/1/5 617/1/5
f 621/2/5 620/2/5 619/2/5
f 622/2/5 620/2/5 621/2/5
f 627/2/5 624/2/5 623/2/5
f 627/2/5 626/2/5 625/2/5
f 627/2/5 625/2/5 624/2/5
f 628/2/5 626/2/5 627/2/5
f 629/2/6 630/2/6 632/2/6
f 632/2/6 630/2/6 633/2/6
f 631/2/6 632/2/6 636/2/6
f 633/2/6 634/2/6 636/2/6
f 632/2/6 633/2/6 636/2/6
f 636/2/6 634/2/6 637/2/6
f 637/2/6 634/2/6 638/2/6
f 638/2/6 634/2/6 639/2/6
f 635/2/6 636/2/6 641/2/6
f 636/2/6 637/2/6 641/2/6
f 641/2/6 637/2/6 642/2/6
f 642/2/6 637/2/6 643/2/6
f 639/2/6 640/2/6 644/2/6
f 638/2/6 639/2/6 644/2/6
f 644/2/6 640/2/6 645/2/6
f 645/2/6 640/2/6 646/2/6
f 642/2/6 643/2/6 647/2/6
f 644/2/6 645/2/6 647/2/6
f 643/2/6 644/2/6 647/2/6
f 647/2/6 645/2/6 648/2/6
f 648/2/6 645/2/6 649/2/6
f 649/2/6 645/2/6 650/2/6
f 648/2/6 649/2/6 651/2/6
f 651/2/6 649/2/6 652/2/6
f 653/1/6 654/1/6 656/1/6
f 656/1/6 654/1/6 657/1/6
f 655/1/6 656/1/6 659/1/6
f 659/1/6 656/1/6 660/1/6
f 657/1/6 658/1/6 661/1/6
f 661/1/6 658/1/6 662/1/6
f 660/1/6 661/1/6 663/1/6
f 663/1/6 661/1/6 664/1/6
f 665/1/6 666/1/6 667/1/6
f 667/1/6 666/1/6 668/1/6
f 669/2/6 670/2/6 673/2/6
f 671/2/6 672/2/6 673/2/6
f 670/2/6 671/2/6 673/2/6
f 673/2/6 672/2/6 674/2/6
f 673/2/6 674/2/6 675/2/6
f 675/2/6 674/2/6 676/2/6
f 675/2/6 676/2/6 677/2/6
f 677/2/6 676/2/6 678/2/6
f 678/2/6 676/2/6 679/2/6
f 679/2/6 676/2/6 680/2/6
f 678/2/6 679/2/6 681/2/6
f 681/2/6 679/2/6 682/2/6
f 683/2/6 684/2/6 687/2/6
f 687/2/6 684/2/6 688/2/6
f 685/2/6 686/2/6 689/2/6
f 689/2/6 686/2/6 690/2/6
f 691/1/6 692/1/6 693/1/6
f 693/1/6 692/1/6 694/1/6
f 695/1/6 696/1/6 699/1/6
f 699/1/6 696/1/6 700/1/6
f 697/1/6 698/1/6 701/1/6
f 701/1/6 698/1/6 702/1/6
f 703/1/6 704/1/6 707/1/6
f 707/1/6 704/1/6 708/1/6
f 705/1/6 706/1/6 709/1/6
f 709/1/6 706/1/6 710/1/6
f 711/2/6 712/2/6 716/2/6
f 716/2/6 712/2/6 717/2/6
f 713/2/6 714/2/6 718/2/6
f 718/2/6 714/2/6 719/2/6
f 716/2/6 717/2/6 721/2/6
f 719/2/6 720/2/6 721/2/6
f 718/2/6 719/2/6 721/2/6
f 717/2/6 718/2/6 721/2/6
f 715/2/6 716/2/6 721/2/6
f 721/2/6 720/2/6 722/2/6
f 723/2/6 724/2/6 725/2/6
f 725/2/6 724/2/6 726/2/6
f 727/2/6 728/2/6 729/2/6
f 729/2/6 728/2/6 730/2/6
