# MagicaVoxel @ Ephtracy

# group
o 

# material
mtllib labscreen.mtl
usemtl palette

# normals
vn -1 0 0
vn 1 0 0
vn 0 0 1
vn 0 0 -1
vn 0 -1 0
vn 0 1 0

# texcoords
vt 0.333984 0.5
vt 0.353516 0.5
vt 0.357422 0.5
vt 0.451172 0.5
vt 0.619141 0.5
vt 0.642578 0.5

# verts
v -3.4 0.2 0.6
v -3.4 0.2 0.0999998
v -3.4 4.4 0.6
v -3.4 4.4 0.0999998
v -3.3 0.1 0.6
v -3.3 0.1 0.0999998
v -3.3 0.2 0.6
v -3.3 0.2 0.0999998
v -3.3 4.4 0.6
v -3.3 4.4 0.0999998
v -3.3 4.5 0.6
v -3.3 4.5 0.0999998
v 3.5 0.7 0.5
v 3.5 0.7 0.4
v 3.5 0.7 0.3
v 3.5 0.7 0.2
v 3.5 3.9 0.5
v 3.5 3.9 0.4
v 3.5 3.9 0.3
v 3.5 3.9 0.2
v 3.6 0.5 0.6
v 3.6 0.5 0.5
v 3.6 0.5 0.2
v 3.6 0.5 0.0999998
v 3.6 0.6 0.6
v 3.6 0.6 0.5
v 3.6 0.6 0.2
v 3.6 0.6 0.0999998
v 3.6 4 0.6
v 3.6 4 0.5
v 3.6 4 0.2
v 3.6 4 0.0999998
v 3.6 4.1 0.6
v 3.6 4.1 0.5
v 3.6 4.1 0.2
v 3.6 4.1 0.0999998
v 3.7 0.6 0.6
v 3.7 0.6 0.5
v 3.7 0.6 0.2
v 3.7 0.6 0.0999998
v 3.7 4 0.6
v 3.7 4 0.5
v 3.7 4 0.2
v 3.7 4 0.0999998
v -3 0.6 0.6
v -3 0.6 0.5
v -3 0.6 0.2
v -3 0.6 0.0999998
v -3 4 0.6
v -3 4 0.5
v -3 4 0.2
v -3 4 0.0999998
v -2.9 0.5 0.6
v -2.9 0.5 0.5
v -2.9 0.5 0.2
v -2.9 0.5 0.0999998
v -2.9 0.6 0.6
v -2.9 0.6 0.5
v -2.9 0.6 0.2
v -2.9 0.6 0.0999998
v -2.9 4 0.6
v -2.9 4 0.5
v -2.9 4 0.2
v -2.9 4 0.0999998
v -2.9 4.1 0.6
v -2.9 4.1 0.5
v -2.9 4.1 0.2
v -2.9 4.1 0.0999998
v -2.8 0.7 0.5
v -2.8 0.7 0.4
v -2.8 0.7 0.3
v -2.8 0.7 0.2
v -2.8 3.9 0.5
v -2.8 3.9 0.4
v -2.8 3.9 0.3
v -2.8 3.9 0.2
v 4 0.1 0.6
v 4 0.1 0.0999998
v 4 0.2 0.6
v 4 0.2 0.0999998
v 4 4.4 0.6
v 4 4.4 0.0999998
v 4 4.5 0.6
v 4 4.5 0.0999998
v 4.1 0.2 0.6
v 4.1 0.2 0.0999998
v 4.1 4.4 0.6
v 4.1 4.4 0.0999998
v -3.4 0.2 0.6
v -3.4 4.4 0.6
v -3.3 0.1 0.6
v -3.3 0.2 0.6
v -3.3 4.4 0.6
v -3.3 4.5 0.6
v -3 0.6 0.6
v -3 4 0.6
v -2.9 0.5 0.6
v -2.9 0.6 0.6
v -2.9 4 0.6
v -2.9 4.1 0.6
v 3.6 0.5 0.6
v 3.6 0.6 0.6
v 3.6 4 0.6
v 3.6 4.1 0.6
v 3.7 0.6 0.6
v 3.7 4 0.6
v 4 0.1 0.6
v 4 0.2 0.6
v 4 4.4 0.6
v 4 4.5 0.6
v 4.1 0.2 0.6
v 4.1 4.4 0.6
v -3 0.6 0.5
v -3 4 0.5
v -2.9 0.5 0.5
v -2.9 0.6 0.5
v -2.9 4 0.5
v -2.9 4.1 0.5
v -2.8 0.7 0.5
v -2.8 3.9 0.5
v -2.2 3.9 0.5
v -2.2 4 0.5
v 2.9 3.9 0.5
v 2.9 4 0.5
v 3.5 0.7 0.5
v 3.5 3.9 0.5
v 3.6 0.5 0.5
v 3.6 0.6 0.5
v 3.6 4 0.5
v 3.6 4.1 0.5
v 3.7 0.6 0.5
v 3.7 4 0.5
v -2.8 0.7 0.4
v -2.8 3.9 0.4
v -2.7 0.8 0.4
v -2.7 3.8 0.4
v -2.4 1.2 0.4
v -2.4 1.3 0.4
v -2.4 1.4 0.4
v -2.4 1.5 0.4
v -2.4 1.6 0.4
v -2.4 1.7 0.4
v -2.4 2.2 0.4
v -2.4 2.3 0.4
v -2.4 2.4 0.4
v -2.4 2.5 0.4
v -2.4 2.6 0.4
v -2.4 2.7 0.4
v -2.4 3 0.4
v -2.4 3.1 0.4
v -2.4 3.2 0.4
v -2.4 3.3 0.4
v -2.4 3.4 0.4
v -2.4 3.5 0.4
v -2.2 3.9 0.4
v -0.7 1.2 0.4
v -0.7 1.3 0.4
v -0.5 3 0.4
v -0.5 3.1 0.4
v -0.3 2.4 0.4
v -0.3 2.5 0.4
v 0.2 2.2 0.4
v 0.2 2.3 0.4
v 0.7 3.2 0.4
v 0.7 3.3 0.4
v 0.9 1.6 0.4
v 0.9 1.7 0.4
v 1.3 2.6 0.4
v 1.3 2.7 0.4
v 1.4 1.4 0.4
v 1.4 1.5 0.4
v 1.9 3.4 0.4
v 1.9 3.5 0.4
v 2.1 1.8 0.4
v 2.1 2.5 0.4
v 2.2 1.9 0.4
v 2.2 2.5 0.4
v 2.3 1.9 0.4
v 2.3 2.1 0.4
v 2.4 1.9 0.4
v 2.4 2.1 0.4
v 2.5 1.9 0.4
v 2.5 2.8 0.4
v 2.6 1.9 0.4
v 2.6 2.8 0.4
v 2.7 1.9 0.4
v 2.7 2.5 0.4
v 2.8 1.9 0.4
v 2.8 2.5 0.4
v 2.9 1.9 0.4
v 2.9 2.4 0.4
v 2.9 3.9 0.4
v 3 1.9 0.4
v 3 2.4 0.4
v 3.1 1.9 0.4
v 3.1 2.3 0.4
v 3.2 1.8 0.4
v 3.2 2.3 0.4
v 3.4 0.8 0.4
v 3.4 3.8 0.4
v 3.5 0.7 0.4
v 3.5 3.9 0.4
v -2.8 0.7 0.3
v -2.8 3.9 0.3
v -2.7 0.8 0.3
v -2.7 3.8 0.3
v -2.4 1.2 0.3
v -2.4 1.3 0.3
v -2.4 1.4 0.3
v -2.4 1.5 0.3
v -2.4 1.6 0.3
v -2.4 1.7 0.3
v -2.4 2.2 0.3
v -2.4 2.3 0.3
v -2.4 2.4 0.3
v -2.4 2.5 0.3
v -2.4 2.6 0.3
v -2.4 2.7 0.3
v -2.4 3 0.3
v -2.4 3.1 0.3
v -2.4 3.2 0.3
v -2.4 3.3 0.3
v -2.4 3.4 0.3
v -2.4 3.5 0.3
v -0.7 1.2 0.3
v -0.7 1.3 0.3
v -0.5 3 0.3
v -0.5 3.1 0.3
v -0.3 2.4 0.3
v -0.3 2.5 0.3
v 0.2 2.2 0.3
v 0.2 2.3 0.3
v 0.7 3.2 0.3
v 0.7 3.3 0.3
v 0.9 1.6 0.3
v 0.9 1.7 0.3
v 1.3 2.6 0.3
v 1.3 2.7 0.3
v 1.4 1.4 0.3
v 1.4 1.5 0.3
v 1.9 3.4 0.3
v 1.9 3.5 0.3
v 2.1 1.8 0.3
v 2.1 2.5 0.3
v 2.2 1.9 0.3
v 2.2 2.5 0.3
v 2.3 1.9 0.3
v 2.3 2.1 0.3
v 2.4 1.9 0.3
v 2.4 2.1 0.3
v 2.5 1.9 0.3
v 2.5 2.8 0.3
v 2.6 1.9 0.3
v 2.6 2.8 0.3
v 2.7 1.9 0.3
v 2.7 2.5 0.3
v 2.8 1.9 0.3
v 2.8 2.5 0.3
v 2.9 1.9 0.3
v 2.9 2.4 0.3
v 3 1.9 0.3
v 3 2.4 0.3
v 3.1 1.9 0.3
v 3.1 2.3 0.3
v 3.2 1.8 0.3
v 3.2 2.3 0.3
v 3.4 0.8 0.3
v 3.4 3.8 0.3
v 3.5 0.7 0.3
v 3.5 3.9 0.3
v -3 0.6 0.2
v -3 4 0.2
v -2.9 0.5 0.2
v -2.9 0.6 0.2
v -2.9 4 0.2
v -2.9 4.1 0.2
v -2.8 0.7 0.2
v -2.8 3.9 0.2
v 3.5 0.7 0.2
v 3.5 3.9 0.2
v 3.6 0.5 0.2
v 3.6 0.6 0.2
v 3.6 4 0.2
v 3.6 4.1 0.2
v 3.7 0.6 0.2
v 3.7 4 0.2
v -3.4 0.2 0.0999998
v -3.4 4.4 0.0999998
v -3.3 0.1 0.0999998
v -3.3 0.2 0.0999998
v -3.3 4.4 0.0999998
v -3.3 4.5 0.0999998
v -3 0.6 0.0999998
v -3 4 0.0999998
v -2.9 0.5 0.0999998
v -2.9 0.6 0.0999998
v -2.9 4 0.0999998
v -2.9 4.1 0.0999998
v 3.6 0.5 0.0999998
v 3.6 0.6 0.0999998
v 3.6 4 0.0999998
v 3.6 4.1 0.0999998
v 3.7 0.6 0.0999998
v 3.7 4 0.0999998
v 4 0.1 0.0999998
v 4 0.2 0.0999998
v 4 4.4 0.0999998
v 4 4.5 0.0999998
v 4.1 0.2 0.0999998
v 4.1 4.4 0.0999998
v -3.3 0.1 0.6
v 4 0.1 0.6
v -3.3 0.1 0.0999998
v 4 0.1 0.0999998
v -3.4 0.2 0.6
v -3.3 0.2 0.6
v 4 0.2 0.6
v 4.1 0.2 0.6
v -3.4 0.2 0.0999998
v -3.3 0.2 0.0999998
v 4 0.2 0.0999998
v 4.1 0.2 0.0999998
v -2.8 3.9 0.5
v -2.2 3.9 0.5
v 2.9 3.9 0.5
v 3.5 3.9 0.5
v -2.8 3.9 0.4
v -2.2 3.9 0.4
v 2.9 3.9 0.4
v 3.5 3.9 0.4
v -2.8 3.9 0.3
v 3.5 3.9 0.3
v -2.8 3.9 0.2
v 3.5 3.9 0.2
v -3 4 0.6
v -2.9 4 0.6
v 3.6 4 0.6
v 3.7 4 0.6
v -3 4 0.5
v -2.9 4 0.5
v 3.6 4 0.5
v 3.7 4 0.5
v -3 4 0.2
v -2.9 4 0.2
v 3.6 4 0.2
v 3.7 4 0.2
v -3 4 0.0999998
v -2.9 4 0.0999998
v 3.6 4 0.0999998
v 3.7 4 0.0999998
v -2.9 4.1 0.6
v 3.6 4.1 0.6
v -2.9 4.1 0.5
v 3.6 4.1 0.5
v -2.9 4.1 0.2
v 3.6 4.1 0.2
v -2.9 4.1 0.0999998
v 3.6 4.1 0.0999998
v -2.9 0.5 0.6
v 3.6 0.5 0.6
v -2.9 0.5 0.5
v 3.6 0.5 0.5
v -2.9 0.5 0.2
v 3.6 0.5 0.2
v -2.9 0.5 0.0999998
v 3.6 0.5 0.0999998
v -3 0.6 0.6
v -2.9 0.6 0.6
v 3.6 0.6 0.6
v 3.7 0.6 0.6
v -3 0.6 0.5
v -2.9 0.6 0.5
v 3.6 0.6 0.5
v 3.7 0.6 0.5
v -3 0.6 0.2
v -2.9 0.6 0.2
v 3.6 0.6 0.2
v 3.7 0.6 0.2
v -3 0.6 0.0999998
v -2.9 0.6 0.0999998
v 3.6 0.6 0.0999998
v 3.7 0.6 0.0999998
v -2.8 0.7 0.5
v 3.5 0.7 0.5
v -2.8 0.7 0.4
v 3.5 0.7 0.4
v -2.8 0.7 0.3
v 3.5 0.7 0.3
v -2.8 0.7 0.2
v 3.5 0.7 0.2
v -3.4 4.4 0.6
v -3.3 4.4 0.6
v 4 4.4 0.6
v 4.1 4.4 0.6
v -3.4 4.4 0.0999998
v -3.3 4.4 0.0999998
v 4 4.4 0.0999998
v 4.1 4.4 0.0999998
v -3.3 4.5 0.6
v 4 4.5 0.6
v -3.3 4.5 0.0999998
v 4 4.5 0.0999998

# faces
f 3/4/1 2/4/1 1/4/1
f 4/4/1 2/4/1 3/4/1
f 7/4/1 6/4/1 5/4/1
f 8/4/1 6/4/1 7/4/1
f 11/4/1 10/4/1 9/4/1
f 12/4/1 10/4/1 11/4/1
f 17/6/1 14/6/1 13/6/1
f 18/6/1 14/6/1 17/6/1
f 19/6/1 16/6/1 15/6/1
f 20/6/1 16/6/1 19/6/1
f 25/4/1 22/4/1 21/4/1
f 26/4/1 22/4/1 25/4/1
f 27/4/1 24/4/1 23/4/1
f 28/4/1 24/4/1 27/4/1
f 33/4/1 30/4/1 29/4/1
f 34/4/1 30/4/1 33/4/1
f 35/4/1 32/4/1 31/4/1
f 36/4/1 32/4/1 35/4/1
f 41/4/1 38/4/1 37/4/1
f 42/4/1 38/4/1 41/4/1
f 43/4/1 40/4/1 39/4/1
f 44/4/1 40/4/1 43/4/1
f 45/4/2 46/4/2 49/4/2
f 49/4/2 46/4/2 50/4/2
f 47/4/2 48/4/2 51/4/2
f 51/4/2 48/4/2 52/4/2
f 53/4/2 54/4/2 57/4/2
f 57/4/2 54/4/2 58/4/2
f 55/4/2 56/4/2 59/4/2
f 59/4/2 56/4/2 60/4/2
f 61/4/2 62/4/2 65/4/2
f 65/4/2 62/4/2 66/4/2
f 63/4/2 64/4/2 67/4/2
f 67/4/2 64/4/2 68/4/2
f 69/6/2 70/6/2 73/6/2
f 73/6/2 70/6/2 74/6/2
f 71/6/2 72/6/2 75/6/2
f 75/6/2 72/6/2 76/6/2
f 77/4/2 78/4/2 79/4/2
f 79/4/2 78/4/2 80/4/2
f 81/4/2 82/4/2 83/4/2
f 83/4/2 82/4/2 84/4/2
f 85/4/2 86/4/2 87/4/2
f 87/4/2 86/4/2 88/4/2
f 92/4/3 90/4/3 89/4/3
f 93/4/3 90/4/3 92/4/3
f 95/4/3 92/4/3 91/4/3
f 95/4/3 94/4/3 93/4/3
f 95/4/3 93/4/3 92/4/3
f 96/4/3 94/4/3 95/4/3
f 97/4/3 95/4/3 91/4/3
f 98/4/3 95/4/3 97/4/3
f 99/4/3 94/4/3 96/4/3
f 100/4/3 94/4/3 99/4/3
f 101/4/3 97/4/3 91/4/3
f 104/4/3 94/4/3 100/4/3
f 105/4/3 102/4/3 101/4/3
f 106/4/3 104/4/3 103/4/3
f 107/4/3 105/4/3 101/4/3
f 107/4/3 106/4/3 105/4/3
f 107/4/3 101/4/3 91/4/3
f 108/4/3 106/4/3 107/4/3
f 109/4/3 104/4/3 106/4/3
f 109/4/3 106/4/3 108/4/3
f 109/4/3 94/4/3 104/4/3
f 110/4/3 94/4/3 109/4/3
f 111/4/3 109/4/3 108/4/3
f 112/4/3 109/4/3 111/4/3
f 116/6/3 114/6/3 113/6/3
f 117/6/3 114/6/3 116/6/3
f 119/6/3 116/6/3 115/6/3
f 119/6/3 118/6/3 117/6/3
f 119/6/3 117/6/3 116/6/3
f 120/6/3 118/6/3 119/6/3
f 121/6/3 118/6/3 120/6/3
f 122/6/3 118/6/3 121/6/3
f 123/2/3 122/2/3 121/2/3
f 124/6/3 118/6/3 122/6/3
f 124/2/3 122/2/3 123/2/3
f 125/6/3 119/6/3 115/6/3
f 126/6/3 124/6/3 123/6/3
f 127/6/3 125/6/3 115/6/3
f 127/6/3 126/6/3 125/6/3
f 128/6/3 126/6/3 127/6/3
f 129/6/3 118/6/3 124/6/3
f 129/6/3 126/6/3 128/6/3
f 129/6/3 124/6/3 126/6/3
f 130/6/3 118/6/3 129/6/3
f 131/6/3 129/6/3 128/6/3
f 132/6/3 129/6/3 131/6/3
f 135/5/3 134/5/3 133/5/3
f 136/5/3 134/5/3 135/5/3
f 137/1/3 136/1/3 135/1/3
f 138/1/3 136/1/3 137/1/3
f 139/1/3 136/1/3 138/1/3
f 140/1/3 136/1/3 139/1/3
f 141/1/3 136/1/3 140/1/3
f 142/1/3 136/1/3 141/1/3
f 143/1/3 136/1/3 142/1/3
f 144/1/3 136/1/3 143/1/3
f 145/1/3 136/1/3 144/1/3
f 146/1/3 136/1/3 145/1/3
f 147/1/3 136/1/3 146/1/3
f 148/1/3 136/1/3 147/1/3
f 149/1/3 136/1/3 148/1/3
f 150/1/3 136/1/3 149/1/3
f 151/1/3 136/1/3 150/1/3
f 152/1/3 136/1/3 151/1/3
f 153/1/3 136/1/3 152/1/3
f 154/1/3 136/1/3 153/1/3
f 155/5/3 134/5/3 136/5/3
f 156/1/3 137/1/3 135/1/3
f 156/3/3 138/3/3 137/3/3
f 157/1/3 139/1/3 138/1/3
f 157/3/3 138/3/3 156/3/3
f 158/1/3 149/1/3 148/1/3
f 158/3/3 150/3/3 149/3/3
f 159/1/3 151/1/3 150/1/3
f 159/3/3 150/3/3 158/3/3
f 160/1/3 145/1/3 144/1/3
f 160/3/3 146/3/3 145/3/3
f 161/1/3 147/1/3 146/1/3
f 161/3/3 146/3/3 160/3/3
f 162/1/3 143/1/3 142/1/3
f 162/3/3 144/3/3 143/3/3
f 163/1/3 161/1/3 160/1/3
f 163/3/3 144/3/3 162/3/3
f 163/1/3 160/1/3 144/1/3
f 164/1/3 151/1/3 159/1/3
f 164/1/3 159/1/3 158/1/3
f 164/3/3 152/3/3 151/3/3
f 165/1/3 153/1/3 152/1/3
f 165/3/3 152/3/3 164/3/3
f 166/1/3 141/1/3 140/1/3
f 166/3/3 142/3/3 141/3/3
f 167/1/3 162/1/3 142/1/3
f 167/3/3 142/3/3 166/3/3
f 167/1/3 163/1/3 162/1/3
f 168/1/3 147/1/3 161/1/3
f 168/1/3 163/1/3 167/1/3
f 168/1/3 167/1/3 166/1/3
f 168/1/3 161/1/3 163/1/3
f 168/3/3 148/3/3 147/3/3
f 169/1/3 165/1/3 164/1/3
f 169/3/3 148/3/3 168/3/3
f 169/1/3 158/1/3 148/1/3
f 169/1/3 164/1/3 158/1/3
f 170/3/3 140/3/3 139/3/3
f 170/1/3 139/1/3 157/1/3
f 170/1/3 157/1/3 156/1/3
f 171/1/3 168/1/3 166/1/3
f 171/3/3 140/3/3 170/3/3
f 171/1/3 169/1/3 168/1/3
f 171/1/3 166/1/3 140/1/3
f 172/1/3 165/1/3 169/1/3
f 172/1/3 169/1/3 171/1/3
f 172/1/3 171/1/3 170/1/3
f 172/3/3 154/3/3 153/3/3
f 172/1/3 153/1/3 165/1/3
f 173/1/3 136/1/3 154/1/3
f 173/3/3 154/3/3 172/3/3
f 174/1/3 172/1/3 170/1/3
f 174/1/3 173/1/3 172/1/3
f 175/1/3 173/1/3 174/1/3
f 176/3/3 175/3/3 174/3/3
f 177/1/3 173/1/3 175/1/3
f 177/3/3 175/3/3 176/3/3
f 178/3/3 176/3/3 174/3/3
f 178/1/3 177/1/3 176/1/3
f 179/1/3 177/1/3 178/1/3
f 180/3/3 178/3/3 174/3/3
f 180/3/3 179/3/3 178/3/3
f 181/1/3 177/1/3 179/1/3
f 181/3/3 179/3/3 180/3/3
f 182/3/3 180/3/3 174/3/3
f 182/1/3 181/1/3 180/1/3
f 183/1/3 173/1/3 177/1/3
f 183/1/3 181/1/3 182/1/3
f 183/1/3 177/1/3 181/1/3
f 184/3/3 182/3/3 174/3/3
f 184/3/3 183/3/3 182/3/3
f 185/1/3 173/1/3 183/1/3
f 185/3/3 183/3/3 184/3/3
f 186/3/3 184/3/3 174/3/3
f 186/1/3 185/1/3 184/1/3
f 187/1/3 185/1/3 186/1/3
f 188/3/3 186/3/3 174/3/3
f 188/3/3 187/3/3 186/3/3
f 189/1/3 185/1/3 187/1/3
f 189/3/3 187/3/3 188/3/3
f 190/3/3 188/3/3 174/3/3
f 190/1/3 189/1/3 188/1/3
f 191/1/3 189/1/3 190/1/3
f 192/5/3 155/5/3 136/5/3
f 193/3/3 190/3/3 174/3/3
f 193/3/3 191/3/3 190/3/3
f 194/1/3 189/1/3 191/1/3
f 194/3/3 191/3/3 193/3/3
f 195/3/3 193/3/3 174/3/3
f 195/1/3 194/1/3 193/1/3
f 196/1/3 194/1/3 195/1/3
f 197/1/3 174/1/3 170/1/3
f 197/3/3 195/3/3 174/3/3
f 197/3/3 196/3/3 195/3/3
f 198/1/3 194/1/3 196/1/3
f 198/3/3 196/3/3 197/3/3
f 199/5/3 135/5/3 133/5/3
f 199/1/3 156/1/3 135/1/3
f 199/1/3 198/1/3 197/1/3
f 199/1/3 170/1/3 156/1/3
f 199/1/3 197/1/3 170/1/3
f 200/1/3 194/1/3 198/1/3
f 200/1/3 198/1/3 199/1/3
f 200/1/3 136/1/3 173/1/3
f 200/1/3 173/1/3 185/1/3
f 200/1/3 185/1/3 189/1/3
f 200/1/3 189/1/3 194/1/3
f 200/5/3 192/5/3 136/5/3
f 201/5/3 199/5/3 133/5/3
f 201/5/3 200/5/3 199/5/3
f 202/5/3 192/5/3 200/5/3
f 202/5/3 200/5/3 201/5/3
f 203/5/4 204/5/4 205/5/4
f 205/5/4 204/5/4 206/5/4
f 205/1/4 206/1/4 207/1/4
f 207/1/4 206/1/4 208/1/4
f 208/1/4 206/1/4 209/1/4
f 209/1/4 206/1/4 210/1/4
f 210/1/4 206/1/4 211/1/4
f 211/1/4 206/1/4 212/1/4
f 212/1/4 206/1/4 213/1/4
f 213/1/4 206/1/4 214/1/4
f 214/1/4 206/1/4 215/1/4
f 215/1/4 206/1/4 216/1/4
f 216/1/4 206/1/4 217/1/4
f 217/1/4 206/1/4 218/1/4
f 218/1/4 206/1/4 219/1/4
f 219/1/4 206/1/4 220/1/4
f 220/1/4 206/1/4 221/1/4
f 221/1/4 206/1/4 222/1/4
f 222/1/4 206/1/4 223/1/4
f 223/1/4 206/1/4 224/1/4
f 205/1/4 207/1/4 225/1/4
f 207/3/4 208/3/4 225/3/4
f 208/1/4 209/1/4 226/1/4
f 225/3/4 208/3/4 226/3/4
f 218/1/4 219/1/4 227/1/4
f 219/3/4 220/3/4 227/3/4
f 220/1/4 221/1/4 228/1/4
f 227/3/4 220/3/4 228/3/4
f 214/1/4 215/1/4 229/1/4
f 215/3/4 216/3/4 229/3/4
f 216/1/4 217/1/4 230/1/4
f 229/3/4 216/3/4 230/3/4
f 212/1/4 213/1/4 231/1/4
f 213/3/4 214/3/4 231/3/4
f 229/1/4 230/1/4 232/1/4
f 231/3/4 214/3/4 232/3/4
f 214/1/4 229/1/4 232/1/4
f 228/1/4 221/1/4 233/1/4
f 227/1/4 228/1/4 233/1/4
f 221/3/4 222/3/4 233/3/4
f 222/1/4 223/1/4 234/1/4
f 233/3/4 222/3/4 234/3/4
f 210/1/4 211/1/4 235/1/4
f 211/3/4 212/3/4 235/3/4
f 212/1/4 231/1/4 236/1/4
f 235/3/4 212/3/4 236/3/4
f 231/1/4 232/1/4 236/1/4
f 230/1/4 217/1/4 237/1/4
f 236/1/4 232/1/4 237/1/4
f 235/1/4 236/1/4 237/1/4
f 232/1/4 230/1/4 237/1/4
f 217/3/4 218/3/4 237/3/4
f 233/1/4 234/1/4 238/1/4
f 237/3/4 218/3/4 238/3/4
f 218/1/4 227/1/4 238/1/4
f 227/1/4 233/1/4 238/1/4
f 209/3/4 210/3/4 239/3/4
f 225/1/4 226/1/4 239/1/4
f 226/1/4 209/1/4 239/1/4
f 235/1/4 237/1/4 240/1/4
f 239/3/4 210/3/4 240/3/4
f 237/1/4 238/1/4 240/1/4
f 210/1/4 235/1/4 240/1/4
f 223/3/4 224/3/4 241/3/4
f 240/1/4 238/1/4 241/1/4
f 239/1/4 240/1/4 241/1/4
f 238/1/4 234/1/4 241/1/4
f 234/1/4 223/1/4 241/1/4
f 224/1/4 206/1/4 242/1/4
f 241/3/4 224/3/4 242/3/4
f 239/1/4 241/1/4 243/1/4
f 241/1/4 242/1/4 243/1/4
f 243/1/4 242/1/4 244/1/4
f 243/3/4 244/3/4 245/3/4
f 244/1/4 242/1/4 246/1/4
f 245/3/4 244/3/4 246/3/4
f 243/3/4 245/3/4 247/3/4
f 245/1/4 246/1/4 247/1/4
f 247/1/4 246/1/4 248/1/4
f 243/3/4 247/3/4 249/3/4
f 247/3/4 248/3/4 249/3/4
f 248/1/4 246/1/4 250/1/4
f 249/3/4 248/3/4 250/3/4
f 243/3/4 249/3/4 251/3/4
f 249/1/4 250/1/4 251/1/4
f 246/1/4 242/1/4 252/1/4
f 251/1/4 250/1/4 252/1/4
f 250/1/4 246/1/4 252/1/4
f 243/3/4 251/3/4 253/3/4
f 251/3/4 252/3/4 253/3/4
f 252/1/4 242/1/4 254/1/4
f 253/3/4 252/3/4 254/3/4
f 243/3/4 253/3/4 255/3/4
f 253/1/4 254/1/4 255/1/4
f 255/1/4 254/1/4 256/1/4
f 243/3/4 255/3/4 257/3/4
f 255/3/4 256/3/4 257/3/4
f 256/1/4 254/1/4 258/1/4
f 257/3/4 256/3/4 258/3/4
f 243/3/4 257/3/4 259/3/4
f 257/1/4 258/1/4 259/1/4
f 259/1/4 258/1/4 260/1/4
f 243/3/4 259/3/4 261/3/4
f 259/3/4 260/3/4 261/3/4
f 260/1/4 258/1/4 262/1/4
f 261/3/4 260/3/4 262/3/4
f 243/3/4 261/3/4 263/3/4
f 261/1/4 262/1/4 263/1/4
f 263/1/4 262/1/4 264/1/4
f 239/1/4 243/1/4 265/1/4
f 243/3/4 263/3/4 265/3/4
f 263/3/4 264/3/4 265/3/4
f 264/1/4 262/1/4 266/1/4
f 265/3/4 264/3/4 266/3/4
f 203/5/4 205/5/4 267/5/4
f 225/1/4 239/1/4 267/1/4
f 265/1/4 266/1/4 267/1/4
f 205/1/4 225/1/4 267/1/4
f 239/1/4 265/1/4 267/1/4
f 266/1/4 262/1/4 268/1/4
f 267/1/4 266/1/4 268/1/4
f 206/5/4 204/5/4 268/5/4
f 254/1/4 242/1/4 268/1/4
f 258/1/4 254/1/4 268/1/4
f 262/1/4 258/1/4 268/1/4
f 242/1/4 206/1/4 268/1/4
f 203/5/4 267/5/4 269/5/4
f 267/5/4 268/5/4 269/5/4
f 268/5/4 204/5/4 270/5/4
f 269/5/4 268/5/4 270/5/4
f 271/6/4 272/6/4 274/6/4
f 274/6/4 272/6/4 275/6/4
f 273/6/4 274/6/4 277/6/4
f 275/6/4 276/6/4 277/6/4
f 274/6/4 275/6/4 277/6/4
f 277/6/4 276/6/4 278/6/4
f 273/6/4 277/6/4 279/6/4
f 278/6/4 276/6/4 280/6/4
f 273/6/4 279/6/4 281/6/4
f 279/6/4 280/6/4 281/6/4
f 281/6/4 280/6/4 282/6/4
f 280/6/4 276/6/4 283/6/4
f 282/6/4 280/6/4 283/6/4
f 283/6/4 276/6/4 284/6/4
f 282/6/4 283/6/4 285/6/4
f 285/6/4 283/6/4 286/6/4
f 287/4/4 288/4/4 290/4/4
f 290/4/4 288/4/4 291/4/4
f 289/4/4 290/4/4 293/4/4
f 291/4/4 292/4/4 293/4/4
f 290/4/4 291/4/4 293/4/4
f 293/4/4 292/4/4 294/4/4
f 289/4/4 293/4/4 295/4/4
f 295/4/4 293/4/4 296/4/4
f 294/4/4 292/4/4 297/4/4
f 297/4/4 292/4/4 298/4/4
f 289/4/4 295/4/4 299/4/4
f 298/4/4 292/4/4 302/4/4
f 299/4/4 300/4/4 303/4/4
f 301/4/4 302/4/4 304/4/4
f 299/4/4 303/4/4 305/4/4
f 303/4/4 304/4/4 305/4/4
f 289/4/4 299/4/4 305/4/4
f 305/4/4 304/4/4 306/4/4
f 304/4/4 302/4/4 307/4/4
f 306/4/4 304/4/4 307/4/4
f 302/4/4 292/4/4 307/4/4
f 307/4/4 292/4/4 308/4/4
f 306/4/4 307/4/4 309/4/4
f 309/4/4 307/4/4 310/4/4
f 313/4/5 312/4/5 311/4/5
f 314/4/5 312/4/5 313/4/5
f 319/4/5 316/4/5 315/4/5
f 320/4/5 316/4/5 319/4/5
f 321/4/5 318/4/5 317/4/5
f 322/4/5 318/4/5 321/4/5
f 327/6/5 324/6/5 323/6/5
f 328/2/5 325/2/5 324/2/5
f 328/6/5 324/6/5 327/6/5
f 329/6/5 326/6/5 325/6/5
f 329/2/5 325/2/5 328/2/5
f 330/6/5 326/6/5 329/6/5
f 333/6/5 332/6/5 331/6/5
f 334/6/5 332/6/5 333/6/5
f 339/4/5 336/4/5 335/4/5
f 340/4/5 336/4/5 339/4/5
f 341/4/5 338/4/5 337/4/5
f 342/4/5 338/4/5 341/4/5
f 347/4/5 344/4/5 343/4/5
f 348/4/5 344/4/5 347/4/5
f 349/4/5 346/4/5 345/4/5
f 350/4/5 346/4/5 349/4/5
f 353/4/5 352/4/5 351/4/5
f 354/4/5 352/4/5 353/4/5
f 357/4/5 356/4/5 355/4/5
f 358/4/5 356/4/5 357/4/5
f 359/4/6 360/4/6 361/4/6
f 361/4/6 360/4/6 362/4/6
f 363/4/6 364/4/6 365/4/6
f 365/4/6 364/4/6 366/4/6
f 367/4/6 368/4/6 371/4/6
f 371/4/6 368/4/6 372/4/6
f 369/4/6 370/4/6 373/4/6
f 373/4/6 370/4/6 374/4/6
f 375/4/6 376/4/6 379/4/6
f 379/4/6 376/4/6 380/4/6
f 377/4/6 378/4/6 381/4/6
f 381/4/6 378/4/6 382/4/6
f 383/6/6 384/6/6 385/6/6
f 385/6/6 384/6/6 386/6/6
f 387/6/6 388/6/6 389/6/6
f 389/6/6 388/6/6 390/6/6
f 391/4/6 392/4/6 395/4/6
f 395/4/6 392/4/6 396/4/6
f 393/4/6 394/4/6 397/4/6
f 397/4/6 394/4/6 398/4/6
f 399/4/6 400/4/6 401/4/6
f 401/4/6 400/4/6 402/4/6
