# MagicaVoxel @ Ephtracy

# group
o 

# material
mtllib labtable3.mtl
usemtl palette

# normals
vn -1 0 0
vn 1 0 0
vn 0 0 1
vn 0 0 -1
vn 0 -1 0
vn 0 1 0

# texcoords
vt 0.294922 0.5
vt 0.298828 0.5
vt 0.349609 0.5
vt 0.353516 0.5
vt 0.357422 0.5
vt 0.365234 0.5
vt 0.451172 0.5
vt 0.619141 0.5

# verts
v -1.7 1.2 0.5
v -1.7 1.2 -1.1
v -1.7 1.4 0.5
v -1.7 1.4 -1.1
v -1.6 0 0.4
v -1.6 0 0.2
v -1.6 0 -0.8
v -1.6 0 -1
v -1.6 1.2 0.4
v -1.6 1.2 0.2
v -1.6 1.2 -0.8
v -1.6 1.2 -1
v -1.6 1.4 -0.3
v -1.6 1.4 -1
v -1.6 1.5 -0.3
v -1.6 1.5 -1
v -1.5 0.9 0.2
v -1.5 0.9 -0.8
v -1.5 1.2 0.2
v -1.5 1.2 -0.8
v -1.5 1.7 -0.4
v -1.5 1.7 -0.5
v -1.5 1.7 -0.6
v -1.5 1.7 -0.7
v -1.5 1.7 -0.8
v -1.5 1.7 -0.9
v -1.5 1.8 -0.4
v -1.5 1.8 -0.5
v -1.5 1.8 -0.6
v -1.5 1.8 -0.7
v -1.5 1.8 -0.8
v -1.5 1.8 -0.9
v -1.4 1.4 -0.4
v -1.4 1.4 -0.5
v -1.4 1.4 -0.6
v -1.4 1.4 -0.7
v -1.4 1.4 -0.8
v -1.4 1.4 -0.9
v -1.4 1.5 -0.4
v -1.4 1.5 -0.5
v -1.4 1.5 -0.6
v -1.4 1.5 -0.7
v -1.4 1.5 -0.8
v -1.4 1.5 -0.9
v -1.3 1.7 -0.4
v -1.3 1.7 -0.5
v -1.3 1.7 -0.6
v -1.3 1.7 -0.7
v -1.3 1.7 -0.8
v -1.3 1.7 -0.9
v -1.3 1.8 -0.4
v -1.3 1.8 -0.5
v -1.3 1.8 -0.6
v -1.3 1.8 -0.7
v -1.3 1.8 -0.8
v -1.3 1.8 -0.9
v -1.2 1.4 -0.4
v -1.2 1.4 -0.5
v -1.2 1.4 -0.6
v -1.2 1.4 -0.7
v -1.2 1.4 -0.8
v -1.2 1.4 -0.9
v -1.2 1.5 -0.4
v -1.2 1.5 -0.5
v -1.2 1.5 -0.6
v -1.2 1.5 -0.7
v -1.2 1.5 -0.8
v -1.2 1.5 -0.9
v -1.1 1.7 -0.4
v -1.1 1.7 -0.5
v -1.1 1.7 -0.6
v -1.1 1.7 -0.7
v -1.1 1.7 -0.8
v -1.1 1.7 -0.9
v -1.1 1.8 -0.4
v -1.1 1.8 -0.5
v -1.1 1.8 -0.6
v -1.1 1.8 -0.7
v -1.1 1.8 -0.8
v -1.1 1.8 -0.9
v -1 1.4 -0.4
v -1 1.4 -0.5
v -1 1.4 -0.6
v -1 1.4 -0.7
v -1 1.4 -0.8
v -1 1.4 -0.9
v -1 1.5 -0.4
v -1 1.5 -0.5
v -1 1.5 -0.6
v -1 1.5 -0.7
v -1 1.5 -0.8
v -1 1.5 -0.9
v -0.9 1.7 -0.4
v -0.9 1.7 -0.5
v -0.9 1.7 -0.6
v -0.9 1.7 -0.7
v -0.9 1.7 -0.8
v -0.9 1.7 -0.9
v -0.9 1.8 -0.4
v -0.9 1.8 -0.5
v -0.9 1.8 -0.6
v -0.9 1.8 -0.7
v -0.9 1.8 -0.8
v -0.9 1.8 -0.9
v -0.8 1.4 -0.4
v -0.8 1.4 -0.5
v -0.8 1.4 -0.6
v -0.8 1.4 -0.7
v -0.8 1.4 -0.8
v -0.8 1.4 -0.9
v -0.8 1.5 -0.4
v -0.8 1.5 -0.5
v -0.8 1.5 -0.6
v -0.8 1.5 -0.7
v -0.8 1.5 -0.8
v -0.8 1.5 -0.9
v -0.7 1.7 -0.4
v -0.7 1.7 -0.5
v -0.7 1.7 -0.6
v -0.7 1.7 -0.7
v -0.7 1.7 -0.8
v -0.7 1.7 -0.9
v -0.7 1.8 -0.4
v -0.7 1.8 -0.5
v -0.7 1.8 -0.6
v -0.7 1.8 -0.7
v -0.7 1.8 -0.8
v -0.7 1.8 -0.9
v -0.6 1.4 -0.4
v -0.6 1.4 -0.5
v -0.6 1.4 -0.6
v -0.6 1.4 -0.7
v -0.6 1.4 -0.8
v -0.6 1.4 -0.9
v -0.6 1.5 -0.4
v -0.6 1.5 -0.5
v -0.6 1.5 -0.6
v -0.6 1.5 -0.7
v -0.6 1.5 -0.8
v -0.6 1.5 -0.9
v -0.3 1.4 0.3
v -0.3 1.4 -0.1
v -0.3 1.5 0.3
v -0.3 1.5 -0.1
v -0.3 1.6 0.3
v -0.3 1.6 -0.1
v -0.3 1.7 0
v -0.3 1.7 -0.1
v -0.3 1.8 0.3
v -0.3 1.8 0.1
v -0.3 1.8 0
v -0.3 1.8 -0.1
v -0.3 1.9 0.3
v -0.3 1.9 0.1
v -0.3 2.4 0.5
v -0.3 2.4 0.4
v -0.3 2.5 0.5
v -0.3 2.5 0.4
v -0.2 1.6 0.2
v -0.2 1.6 0.1
v -0.2 1.6 0
v -0.2 1.6 -0.1
v -0.2 1.7 0.2
v -0.2 1.7 0.1
v -0.2 1.7 0
v -0.2 1.7 -0.1
v -0.2 1.8 0.4
v -0.2 1.8 0.3
v -0.2 1.8 0.1
v -0.2 1.8 0
v -0.2 1.8 -0.1
v -0.2 1.9 0.4
v -0.2 1.9 0.3
v -0.2 1.9 0.1
v -0.2 1.9 0
v -0.2 2.1 0.2
v -0.2 2.1 0
v -0.2 2.1 -0.1
v -0.2 2.2 0.1
v -0.2 2.2 0
v -0.2 2.3 0.4
v -0.2 2.3 0.3
v -0.2 2.3 0.2
v -0.2 2.3 0.1
v -0.2 2.4 0.4
v -0.2 2.4 0.3
v -0.2 2.4 0.2
v 1.19209e-07 2.4 0.5
v 1.19209e-07 2.4 0.4
v 1.19209e-07 2.5 0.5
v 1.19209e-07 2.5 0.4
v 0.5 1.4 0.2
v 0.5 1.4 -0.5
v 0.5 1.5 0.2
v 0.5 1.5 -0.5
v 1.2 0 0.4
v 1.2 0 0.2
v 1.2 0 -0.8
v 1.2 0 -1
v 1.2 0.9 0.2
v 1.2 0.9 -0.8
v 1.2 1.2 0.4
v 1.2 1.2 -1
v 1.3 1.4 0.2
v 1.3 1.4 -0.4
v 1.3 1.5 0.2
v 1.3 1.5 -0.4
v -1.5 1.4 -0.4
v -1.5 1.4 -0.5
v -1.5 1.4 -0.6
v -1.5 1.4 -0.7
v -1.5 1.4 -0.8
v -1.5 1.4 -0.9
v -1.5 1.5 -0.4
v -1.5 1.5 -0.5
v -1.5 1.5 -0.6
v -1.5 1.5 -0.7
v -1.5 1.5 -0.8
v -1.5 1.5 -0.9
v -1.4 0 0.4
v -1.4 0 0.2
v -1.4 0 -0.8
v -1.4 0 -1
v -1.4 0.9 0.2
v -1.4 0.9 -0.8
v -1.4 1.2 0.4
v -1.4 1.2 -1
v -1.4 1.7 -0.4
v -1.4 1.7 -0.5
v -1.4 1.7 -0.6
v -1.4 1.7 -0.7
v -1.4 1.7 -0.8
v -1.4 1.7 -0.9
v -1.4 1.8 -0.4
v -1.4 1.8 -0.5
v -1.4 1.8 -0.6
v -1.4 1.8 -0.7
v -1.4 1.8 -0.8
v -1.4 1.8 -0.9
v -1.3 1.4 -0.4
v -1.3 1.4 -0.5
v -1.3 1.4 -0.6
v -1.3 1.4 -0.7
v -1.3 1.4 -0.8
v -1.3 1.4 -0.9
v -1.3 1.5 -0.4
v -1.3 1.5 -0.5
v -1.3 1.5 -0.6
v -1.3 1.5 -0.7
v -1.3 1.5 -0.8
v -1.3 1.5 -0.9
v -1.2 1.7 -0.4
v -1.2 1.7 -0.5
v -1.2 1.7 -0.6
v -1.2 1.7 -0.7
v -1.2 1.7 -0.8
v -1.2 1.7 -0.9
v -1.2 1.8 -0.4
v -1.2 1.8 -0.5
v -1.2 1.8 -0.6
v -1.2 1.8 -0.7
v -1.2 1.8 -0.8
v -1.2 1.8 -0.9
v -1.1 1.4 -0.4
v -1.1 1.4 -0.5
v -1.1 1.4 -0.6
v -1.1 1.4 -0.7
v -1.1 1.4 -0.8
v -1.1 1.4 -0.9
v -1.1 1.5 -0.4
v -1.1 1.5 -0.5
v -1.1 1.5 -0.6
v -1.1 1.5 -0.7
v -1.1 1.5 -0.8
v -1.1 1.5 -0.9
v -1 1.7 -0.4
v -1 1.7 -0.5
v -1 1.7 -0.6
v -1 1.7 -0.7
v -1 1.7 -0.8
v -1 1.7 -0.9
v -1 1.8 -0.4
v -1 1.8 -0.5
v -1 1.8 -0.6
v -1 1.8 -0.7
v -1 1.8 -0.8
v -1 1.8 -0.9
v -0.9 1.4 -0.4
v -0.9 1.4 -0.5
v -0.9 1.4 -0.6
v -0.9 1.4 -0.7
v -0.9 1.4 -0.8
v -0.9 1.4 -0.9
v -0.9 1.5 -0.4
v -0.9 1.5 -0.5
v -0.9 1.5 -0.6
v -0.9 1.5 -0.7
v -0.9 1.5 -0.8
v -0.9 1.5 -0.9
v -0.8 1.7 -0.4
v -0.8 1.7 -0.5
v -0.8 1.7 -0.6
v -0.8 1.7 -0.7
v -0.8 1.7 -0.8
v -0.8 1.7 -0.9
v -0.8 1.8 -0.4
v -0.8 1.8 -0.5
v -0.8 1.8 -0.6
v -0.8 1.8 -0.7
v -0.8 1.8 -0.8
v -0.8 1.8 -0.9
v -0.7 1.4 -0.4
v -0.7 1.4 -0.5
v -0.7 1.4 -0.6
v -0.7 1.4 -0.7
v -0.7 1.4 -0.8
v -0.7 1.4 -0.9
v -0.7 1.5 -0.4
v -0.7 1.5 -0.5
v -0.7 1.5 -0.6
v -0.7 1.5 -0.7
v -0.7 1.5 -0.8
v -0.7 1.5 -0.9
v -0.6 1.7 -0.4
v -0.6 1.7 -0.5
v -0.6 1.7 -0.6
v -0.6 1.7 -0.7
v -0.6 1.7 -0.8
v -0.6 1.7 -0.9
v -0.6 1.8 -0.4
v -0.6 1.8 -0.5
v -0.6 1.8 -0.6
v -0.6 1.8 -0.7
v -0.6 1.8 -0.8
v -0.6 1.8 -0.9
v -0.5 1.4 -0.3
v -0.5 1.4 -1
v -0.5 1.5 -0.3
v -0.5 1.5 -1
v -0.2 2.4 0.5
v -0.2 2.4 0.4
v -0.2 2.5 0.5
v -0.2 2.5 0.4
v 1.19209e-07 1.6 0.2
v 1.19209e-07 1.6 0.1
v 1.19209e-07 1.6 0
v 1.19209e-07 1.6 -0.1
v 1.19209e-07 1.7 0.2
v 1.19209e-07 1.7 0.1
v 1.19209e-07 1.7 0
v 1.19209e-07 1.7 -0.1
v 1.19209e-07 1.8 0.4
v 1.19209e-07 1.8 0.3
v 1.19209e-07 1.8 0.1
v 1.19209e-07 1.8 0
v 1.19209e-07 1.8 -0.1
v 1.19209e-07 1.9 0.4
v 1.19209e-07 1.9 0.3
v 1.19209e-07 1.9 0.1
v 1.19209e-07 1.9 0
v 1.19209e-07 2.1 0.2
v 1.19209e-07 2.1 0
v 1.19209e-07 2.1 -0.1
v 1.19209e-07 2.2 0.1
v 1.19209e-07 2.2 0
v 1.19209e-07 2.3 0.4
v 1.19209e-07 2.3 0.3
v 1.19209e-07 2.3 0.2
v 1.19209e-07 2.3 0.1
v 1.19209e-07 2.4 0.4
v 1.19209e-07 2.4 0.3
v 1.19209e-07 2.4 0.2
v 0.1 1.4 0.3
v 0.1 1.4 -0.1
v 0.1 1.5 0.3
v 0.1 1.5 -0.1
v 0.1 1.6 0.3
v 0.1 1.6 -0.1
v 0.1 1.7 0
v 0.1 1.7 -0.1
v 0.1 1.8 0.3
v 0.1 1.8 0.1
v 0.1 1.8 0
v 0.1 1.8 -0.1
v 0.1 1.9 0.3
v 0.1 1.9 0.1
v 0.1 2.4 0.5
v 0.1 2.4 0.4
v 0.1 2.5 0.5
v 0.1 2.5 0.4
v 0.6 1.4 0.2
v 0.6 1.4 -0.4
v 0.6 1.5 0.2
v 0.6 1.5 -0.4
v 1.3 0.9 0.2
v 1.3 0.9 -0.8
v 1.3 1.2 0.2
v 1.3 1.2 -0.8
v 1.4 0 0.4
v 1.4 0 0.2
v 1.4 0 -0.8
v 1.4 0 -1
v 1.4 1.2 0.4
v 1.4 1.2 0.2
v 1.4 1.2 -0.8
v 1.4 1.2 -1
v 1.4 1.4 0.2
v 1.4 1.4 -0.5
v 1.4 1.5 0.2
v 1.4 1.5 -0.5
v 1.5 1.2 0.5
v 1.5 1.2 -1.1
v 1.5 1.4 0.5
v 1.5 1.4 -1.1
v -1.7 1.2 0.5
v -1.7 1.4 0.5
v -0.3 2.4 0.5
v -0.3 2.5 0.5
v -0.2 2.4 0.5
v -0.2 2.5 0.5
v 1.19209e-07 2.4 0.5
v 1.19209e-07 2.5 0.5
v 0.1 2.4 0.5
v 0.1 2.5 0.5
v 1.5 1.2 0.5
v 1.5 1.4 0.5
v -1.6 0 0.4
v -1.6 1.2 0.4
v -1.4 0 0.4
v -1.4 1.2 0.4
v -0.2 1.8 0.4
v -0.2 1.9 0.4
v -0.2 2.3 0.4
v -0.2 2.4 0.4
v 1.19209e-07 1.8 0.4
v 1.19209e-07 1.9 0.4
v 1.19209e-07 2.3 0.4
v 1.19209e-07 2.4 0.4
v 1.2 0 0.4
v 1.2 1.2 0.4
v 1.4 0 0.4
v 1.4 1.2 0.4
v -0.3 1.4 0.3
v -0.3 1.5 0.3
v -0.3 1.6 0.3
v -0.3 1.8 0.3
v -0.3 1.9 0.3
v -0.2 1.8 0.3
v -0.2 1.9 0.3
v 1.19209e-07 1.8 0.3
v 1.19209e-07 1.9 0.3
v 0.1 1.4 0.3
v 0.1 1.5 0.3
v 0.1 1.6 0.3
v 0.1 1.8 0.3
v 0.1 1.9 0.3
v -0.2 1.6 0.2
v -0.2 1.7 0.2
v -0.2 2.1 0.2
v -0.2 2.3 0.2
v 1.19209e-07 1.6 0.2
v 1.19209e-07 1.7 0.2
v 1.19209e-07 2.1 0.2
v 1.19209e-07 2.3 0.2
v 0.5 1.4 0.2
v 0.5 1.5 0.2
v 0.6 1.4 0.2
v 0.6 1.5 0.2
v 1.3 1.4 0.2
v 1.3 1.5 0.2
v 1.4 1.4 0.2
v 1.4 1.5 0.2
v -0.3 1.7 0
v -0.3 1.8 0
v -0.2 1.6 0
v -0.2 1.7 0
v -0.2 1.8 0
v -0.2 1.9 0
v -0.2 2.1 0
v 1.19209e-07 1.6 0
v 1.19209e-07 1.7 0
v 1.19209e-07 1.8 0
v 1.19209e-07 1.9 0
v 1.19209e-07 2.1 0
v 0.1 1.7 0
v 0.1 1.8 0
v -1.6 1.4 -0.3
v -1.6 1.5 -0.3
v -0.5 1.4 -0.3
v -0.5 1.5 -0.3
v -1.5 1.7 -0.4
v -1.5 1.8 -0.4
v -1.4 1.7 -0.4
v -1.4 1.8 -0.4
v -1.3 1.7 -0.4
v -1.3 1.8 -0.4
v -1.2 1.7 -0.4
v -1.2 1.8 -0.4
v -1.1 1.7 -0.4
v -1.1 1.8 -0.4
v -1 1.7 -0.4
v -1 1.8 -0.4
v -0.9 1.7 -0.4
v -0.9 1.8 -0.4
v -0.8 1.7 -0.4
v -0.8 1.8 -0.4
v -0.7 1.7 -0.4
v -0.7 1.8 -0.4
v -0.6 1.7 -0.4
v -0.6 1.8 -0.4
v 0.6 1.4 -0.4
v 0.6 1.5 -0.4
v 1.3 1.4 -0.4
v 1.3 1.5 -0.4
v -1.5 1.4 -0.5
v -1.5 1.5 -0.5
v -1.4 1.4 -0.5
v -1.4 1.5 -0.5
v -1.3 1.4 -0.5
v -1.3 1.5 -0.5
v -1.2 1.4 -0.5
v -1.2 1.5 -0.5
v -1.1 1.4 -0.5
v -1.1 1.5 -0.5
v -1 1.4 -0.5
v -1 1.5 -0.5
v -0.9 1.4 -0.5
v -0.9 1.5 -0.5
v -0.8 1.4 -0.5
v -0.8 1.5 -0.5
v -0.7 1.4 -0.5
v -0.7 1.5 -0.5
v -0.6 1.4 -0.5
v -0.6 1.5 -0.5
v -1.5 1.7 -0.6
v -1.5 1.8 -0.6
v -1.4 1.7 -0.6
v -1.4 1.8 -0.6
v -1.3 1.7 -0.6
v -1.3 1.8 -0.6
v -1.2 1.7 -0.6
v -1.2 1.8 -0.6
v -1.1 1.7 -0.6
v -1.1 1.8 -0.6
v -1 1.7 -0.6
v -1 1.8 -0.6
v -0.9 1.7 -0.6
v -0.9 1.8 -0.6
v -0.8 1.7 -0.6
v -0.8 1.8 -0.6
v -0.7 1.7 -0.6
v -0.7 1.8 -0.6
v -0.6 1.7 -0.6
v -0.6 1.8 -0.6
v -1.5 1.4 -0.7
v -1.5 1.5 -0.7
v -1.4 1.4 -0.7
v -1.4 1.5 -0.7
v -1.3 1.4 -0.7
v -1.3 1.5 -0.7
v -1.2 1.4 -0.7
v -1.2 1.5 -0.7
v -1.1 1.4 -0.7
v -1.1 1.5 -0.7
v -1 1.4 -0.7
v -1 1.5 -0.7
v -0.9 1.4 -0.7
v -0.9 1.5 -0.7
v -0.8 1.4 -0.7
v -0.8 1.5 -0.7
v -0.7 1.4 -0.7
v -0.7 1.5 -0.7
v -0.6 1.4 -0.7
v -0.6 1.5 -0.7
v -1.6 0 -0.8
v -1.6 1.2 -0.8
v -1.5 0.9 -0.8
v -1.5 1.2 -0.8
v -1.5 1.7 -0.8
v -1.5 1.8 -0.8
v -1.4 0 -0.8
v -1.4 0.9 -0.8
v -1.4 1.7 -0.8
v -1.4 1.8 -0.8
v -1.3 1.7 -0.8
v -1.3 1.8 -0.8
v -1.2 1.7 -0.8
v -1.2 1.8 -0.8
v -1.1 1.7 -0.8
v -1.1 1.8 -0.8
v -1 1.7 -0.8
v -1 1.8 -0.8
v -0.9 1.7 -0.8
v -0.9 1.8 -0.8
v -0.8 1.7 -0.8
v -0.8 1.8 -0.8
v -0.7 1.7 -0.8
v -0.7 1.8 -0.8
v -0.6 1.7 -0.8
v -0.6 1.8 -0.8
v 1.2 0 -0.8
v 1.2 0.9 -0.8
v 1.3 0.9 -0.8
v 1.3 1.2 -0.8
v 1.4 0 -0.8
v 1.4 1.2 -0.8
v -1.5 1.4 -0.9
v -1.5 1.5 -0.9
v -1.4 1.4 -0.9
v -1.4 1.5 -0.9
v -1.3 1.4 -0.9
v -1.3 1.5 -0.9
v -1.2 1.4 -0.9
v -1.2 1.5 -0.9
v -1.1 1.4 -0.9
v -1.1 1.5 -0.9
v -1 1.4 -0.9
v -1 1.5 -0.9
v -0.9 1.4 -0.9
v -0.9 1.5 -0.9
v -0.8 1.4 -0.9
v -0.8 1.5 -0.9
v -0.7 1.4 -0.9
v -0.7 1.5 -0.9
v -0.6 1.4 -0.9
v -0.6 1.5 -0.9
v -0.3 2.4 0.4
v -0.3 2.5 0.4
v -0.2 2.4 0.4
v -0.2 2.5 0.4
v 1.19209e-07 2.4 0.4
v 1.19209e-07 2.5 0.4
v 0.1 2.4 0.4
v 0.1 2.5 0.4
v -1.6 0 0.2
v -1.6 1.2 0.2
v -1.5 0.9 0.2
v -1.5 1.2 0.2
v -1.4 0 0.2
v -1.4 0.9 0.2
v -0.2 2.3 0.2
v -0.2 2.4 0.2
v 1.19209e-07 2.3 0.2
v 1.19209e-07 2.4 0.2
v 1.2 0 0.2
v 1.2 0.9 0.2
v 1.3 0.9 0.2
v 1.3 1.2 0.2
v 1.4 0 0.2
v 1.4 1.2 0.2
v -0.3 1.8 0.1
v -0.3 1.9 0.1
v -0.2 1.6 0.1
v -0.2 1.7 0.1
v -0.2 1.8 0.1
v -0.2 1.9 0.1
v -0.2 2.2 0.1
v -0.2 2.3 0.1
v 1.19209e-07 1.6 0.1
v 1.19209e-07 1.7 0.1
v 1.19209e-07 1.8 0.1
v 1.19209e-07 1.9 0.1
v 1.19209e-07 2.2 0.1
v 1.19209e-07 2.3 0.1
v 0.1 1.8 0.1
v 0.1 1.9 0.1
v -0.2 2.1 0
v -0.2 2.2 0
v 1.19209e-07 2.1 0
v 1.19209e-07 2.2 0
v -0.3 1.4 -0.1
v -0.3 1.5 -0.1
v -0.3 1.6 -0.1
v -0.3 1.7 -0.1
v -0.3 1.8 -0.1
v -0.2 1.6 -0.1
v -0.2 1.7 -0.1
v -0.2 1.8 -0.1
v -0.2 2.1 -0.1
v 1.19209e-07 1.6 -0.1
v 1.19209e-07 1.7 -0.1
v 1.19209e-07 1.8 -0.1
v 1.19209e-07 2.1 -0.1
v 0.1 1.4 -0.1
v 0.1 1.5 -0.1
v 0.1 1.6 -0.1
v 0.1 1.7 -0.1
v 0.1 1.8 -0.1
v -1.5 1.4 -0.4
v -1.5 1.5 -0.4
v -1.4 1.4 -0.4
v -1.4 1.5 -0.4
v -1.3 1.4 -0.4
v -1.3 1.5 -0.4
v -1.2 1.4 -0.4
v -1.2 1.5 -0.4
v -1.1 1.4 -0.4
v -1.1 1.5 -0.4
v -1 1.4 -0.4
v -1 1.5 -0.4
v -0.9 1.4 -0.4
v -0.9 1.5 -0.4
v -0.8 1.4 -0.4
v -0.8 1.5 -0.4
v -0.7 1.4 -0.4
v -0.7 1.5 -0.4
v -0.6 1.4 -0.4
v -0.6 1.5 -0.4
v -1.5 1.7 -0.5
v -1.5 1.8 -0.5
v -1.4 1.7 -0.5
v -1.4 1.8 -0.5
v -1.3 1.7 -0.5
v -1.3 1.8 -0.5
v -1.2 1.7 -0.5
v -1.2 1.8 -0.5
v -1.1 1.7 -0.5
v -1.1 1.8 -0.5
v -1 1.7 -0.5
v -1 1.8 -0.5
v -0.9 1.7 -0.5
v -0.9 1.8 -0.5
v -0.8 1.7 -0.5
v -0.8 1.8 -0.5
v -0.7 1.7 -0.5
v -0.7 1.8 -0.5
v -0.6 1.7 -0.5
v -0.6 1.8 -0.5
v 0.5 1.4 -0.5
v 0.5 1.5 -0.5
v 1.4 1.4 -0.5
v 1.4 1.5 -0.5
v -1.5 1.4 -0.6
v -1.5 1.5 -0.6
v -1.4 1.4 -0.6
v -1.4 1.5 -0.6
v -1.3 1.4 -0.6
v -1.3 1.5 -0.6
v -1.2 1.4 -0.6
v -1.2 1.5 -0.6
v -1.1 1.4 -0.6
v -1.1 1.5 -0.6
v -1 1.4 -0.6
v -1 1.5 -0.6
v -0.9 1.4 -0.6
v -0.9 1.5 -0.6
v -0.8 1.4 -0.6
v -0.8 1.5 -0.6
v -0.7 1.4 -0.6
v -0.7 1.5 -0.6
v -0.6 1.4 -0.6
v -0.6 1.5 -0.6
v -1.5 1.7 -0.7
v -1.5 1.8 -0.7
v -1.4 1.7 -0.7
v -1.4 1.8 -0.7
v -1.3 1.7 -0.7
v -1.3 1.8 -0.7
v -1.2 1.7 -0.7
v -1.2 1.8 -0.7
v -1.1 1.7 -0.7
v -1.1 1.8 -0.7
v -1 1.7 -0.7
v -1 1.8 -0.7
v -0.9 1.7 -0.7
v -0.9 1.8 -0.7
v -0.8 1.7 -0.7
v -0.8 1.8 -0.7
v -0.7 1.7 -0.7
v -0.7 1.8 -0.7
v -0.6 1.7 -0.7
v -0.6 1.8 -0.7
v -1.5 1.4 -0.8
v -1.5 1.5 -0.8
v -1.4 1.4 -0.8
v -1.4 1.5 -0.8
v -1.3 1.4 -0.8
v -1.3 1.5 -0.8
v -1.2 1.4 -0.8
v -1.2 1.5 -0.8
v -1.1 1.4 -0.8
v -1.1 1.5 -0.8
v -1 1.4 -0.8
v -1 1.5 -0.8
v -0.9 1.4 -0.8
v -0.9 1.5 -0.8
v -0.8 1.4 -0.8
v -0.8 1.5 -0.8
v -0.7 1.4 -0.8
v -0.7 1.5 -0.8
v -0.6 1.4 -0.8
v -0.6 1.5 -0.8
v -1.5 1.7 -0.9
v -1.5 1.8 -0.9
v -1.4 1.7 -0.9
v -1.4 1.8 -0.9
v -1.3 1.7 -0.9
v -1.3 1.8 -0.9
v -1.2 1.7 -0.9
v -1.2 1.8 -0.9
v -1.1 1.7 -0.9
v -1.1 1.8 -0.9
v -1 1.7 -0.9
v -1 1.8 -0.9
v -0.9 1.7 -0.9
v -0.9 1.8 -0.9
v -0.8 1.7 -0.9
v -0.8 1.8 -0.9
v -0.7 1.7 -0.9
v -0.7 1.8 -0.9
v -0.6 1.7 -0.9
v -0.6 1.8 -0.9
v -1.6 0 -1
v -1.6 1.2 -1
v -1.6 1.4 -1
v -1.6 1.5 -1
v -1.4 0 -1
v -1.4 1.2 -1
v -0.5 1.4 -1
v -0.5 1.5 -1
v 1.2 0 -1
v 1.2 1.2 -1
v 1.4 0 -1
v 1.4 1.2 -1
v -1.7 1.2 -1.1
v -1.7 1.4 -1.1
v 1.5 1.2 -1.1
v 1.5 1.4 -1.1
v -1.6 0 0.4
v -1.4 0 0.4
v 1.2 0 0.4
v 1.4 0 0.4
v -1.6 0 0.2
v -1.4 0 0.2
v 1.2 0 0.2
v 1.4 0 0.2
v -1.6 0 -0.8
v -1.4 0 -0.8
v 1.2 0 -0.8
v 1.4 0 -0.8
v -1.6 0 -1
v -1.4 0 -1
v 1.2 0 -1
v 1.4 0 -1
v -1.5 0.9 0.2
v -1.4 0.9 0.2
v 1.2 0.9 0.2
v 1.3 0.9 0.2
v -1.5 0.9 -0.8
v -1.4 0.9 -0.8
v 1.2 0.9 -0.8
v 1.3 0.9 -0.8
v -1.7 1.2 0.5
v 1.5 1.2 0.5
v -1.6 1.2 0.4
v -1.4 1.2 0.4
v 1.2 1.2 0.4
v 1.4 1.2 0.4
v -1.6 1.2 0.2
v -1.5 1.2 0.2
v 1.3 1.2 0.2
v 1.4 1.2 0.2
v -1.6 1.2 -0.8
v -1.5 1.2 -0.8
v 1.3 1.2 -0.8
v 1.4 1.2 -0.8
v -1.6 1.2 -1
v -1.4 1.2 -1
v 1.2 1.2 -1
v 1.4 1.2 -1
v -1.7 1.2 -1.1
v 1.5 1.2 -1.1
v -0.3 1.7 0
v -0.2 1.7 0
v 1.19209e-07 1.7 0
v 0.1 1.7 0
v -0.3 1.7 -0.1
v -0.2 1.7 -0.1
v 1.19209e-07 1.7 -0.1
v 0.1 1.7 -0.1
v -1.5 1.7 -0.4
v -1.4 1.7 -0.4
v -1.3 1.7 -0.4
v -1.2 1.7 -0.4
v -1.1 1.7 -0.4
v -1 1.7 -0.4
v -0.9 1.7 -0.4
v -0.8 1.7 -0.4
v -0.7 1.7 -0.4
v -0.6 1.7 -0.4
v -1.5 1.7 -0.5
v -1.4 1.7 -0.5
v -1.3 1.7 -0.5
v -1.2 1.7 -0.5
v -1.1 1.7 -0.5
v -1 1.7 -0.5
v -0.9 1.7 -0.5
v -0.8 1.7 -0.5
v -0.7 1.7 -0.5
v -0.6 1.7 -0.5
v -1.5 1.7 -0.6
v -1.4 1.7 -0.6
v -1.3 1.7 -0.6
v -1.2 1.7 -0.6
v -1.1 1.7 -0.6
v -1 1.7 -0.6
v -0.9 1.7 -0.6
v -0.8 1.7 -0.6
v -0.7 1.7 -0.6
v -0.6 1.7 -0.6
v -1.5 1.7 -0.7
v -1.4 1.7 -0.7
v -1.3 1.7 -0.7
v -1.2 1.7 -0.7
v -1.1 1.7 -0.7
v -1 1.7 -0.7
v -0.9 1.7 -0.7
v -0.8 1.7 -0.7
v -0.7 1.7 -0.7
v -0.6 1.7 -0.7
v -1.5 1.7 -0.8
v -1.4 1.7 -0.8
v -1.3 1.7 -0.8
v -1.2 1.7 -0.8
v -1.1 1.7 -0.8
v -1 1.7 -0.8
v -0.9 1.7 -0.8
v -0.8 1.7 -0.8
v -0.7 1.7 -0.8
v -0.6 1.7 -0.8
v -1.5 1.7 -0.9
v -1.4 1.7 -0.9
v -1.3 1.7 -0.9
v -1.2 1.7 -0.9
v -1.1 1.7 -0.9
v -1 1.7 -0.9
v -0.9 1.7 -0.9
v -0.8 1.7 -0.9
v -0.7 1.7 -0.9
v -0.6 1.7 -0.9
v -0.2 1.8 0.4
v 1.19209e-07 1.8 0.4
v -0.3 1.8 0.3
v -0.2 1.8 0.3
v 1.19209e-07 1.8 0.3
v 0.1 1.8 0.3
v -0.3 1.8 0.1
v -0.2 1.8 0.1
v 1.19209e-07 1.8 0.1
v 0.1 1.8 0.1
v -0.2 1.8 0
v 1.19209e-07 1.8 0
v -0.2 2.1 0.2
v 1.19209e-07 2.1 0.2
v -0.2 2.1 0
v 1.19209e-07 2.1 0
v -0.2 2.3 0.4
v 1.19209e-07 2.3 0.4
v -0.2 2.3 0.3
v 1.19209e-07 2.3 0.3
v -0.2 2.3 0.2
v 1.19209e-07 2.3 0.2
v -0.3 2.4 0.5
v -0.2 2.4 0.5
v 1.19209e-07 2.4 0.5
v 0.1 2.4 0.5
v -0.3 2.4 0.4
v -0.2 2.4 0.4
v 1.19209e-07 2.4 0.4
v 0.1 2.4 0.4
v -1.7 1.4 0.5
v 1.5 1.4 0.5
v -0.3 1.4 0.3
v 0.1 1.4 0.3
v 0.5 1.4 0.2
v 0.6 1.4 0.2
v 0.7 1.4 0.2
v 0.8 1.4 0.2
v 1.1 1.4 0.2
v 1.2 1.4 0.2
v 1.3 1.4 0.2
v 1.4 1.4 0.2
v 0.7 1.4 0.1
v 0.8 1.4 0.1
v 1.1 1.4 0.1
v 1.2 1.4 0.1
v 0.7 1.4 0
v 1.1 1.4 0
v -0.3 1.4 -0.1
v 0.1 1.4 -0.1
v 0.7 1.4 -0.1
v 1.1 1.4 -0.1
v 0.7 1.4 -0.2
v 0.9 1.4 -0.2
v 1 1.4 -0.2
v 1.2 1.4 -0.2
v -1.6 1.4 -0.3
v -0.5 1.4 -0.3
v 0.7 1.4 -0.3
v 0.9 1.4 -0.3
v 1 1.4 -0.3
v 1.2 1.4 -0.3
v -1.5 1.4 -0.4
v -1.4 1.4 -0.4
v -1.3 1.4 -0.4
v -1.2 1.4 -0.4
v -1.1 1.4 -0.4
v -1 1.4 -0.4
v -0.9 1.4 -0.4
v -0.8 1.4 -0.4
v -0.7 1.4 -0.4
v -0.6 1.4 -0.4
v 0.6 1.4 -0.4
v 1.3 1.4 -0.4
v -1.5 1.4 -0.5
v -1.4 1.4 -0.5
v -1.3 1.4 -0.5
v -1.2 1.4 -0.5
v -1.1 1.4 -0.5
v -1 1.4 -0.5
v -0.9 1.4 -0.5
v -0.8 1.4 -0.5
v -0.7 1.4 -0.5
v -0.6 1.4 -0.5
v 0.5 1.4 -0.5
v 1.4 1.4 -0.5
v -1.5 1.4 -0.6
v -1.4 1.4 -0.6
v -1.3 1.4 -0.6
v -1.2 1.4 -0.6
v -1.1 1.4 -0.6
v -1 1.4 -0.6
v -0.9 1.4 -0.6
v -0.8 1.4 -0.6
v -0.7 1.4 -0.6
v -0.6 1.4 -0.6
v -1.5 1.4 -0.7
v -1.4 1.4 -0.7
v -1.3 1.4 -0.7
v -1.2 1.4 -0.7
v -1.1 1.4 -0.7
v -1 1.4 -0.7
v -0.9 1.4 -0.7
v -0.8 1.4 -0.7
v -0.7 1.4 -0.7
v -0.6 1.4 -0.7
v -1.5 1.4 -0.8
v -1.4 1.4 -0.8
v -1.3 1.4 -0.8
v -1.2 1.4 -0.8
v -1.1 1.4 -0.8
v -1 1.4 -0.8
v -0.9 1.4 -0.8
v -0.8 1.4 -0.8
v -0.7 1.4 -0.8
v -0.6 1.4 -0.8
v -1.5 1.4 -0.9
v -1.4 1.4 -0.9
v -1.3 1.4 -0.9
v -1.2 1.4 -0.9
v -1.1 1.4 -0.9
v -1 1.4 -0.9
v -0.9 1.4 -0.9
v -0.8 1.4 -0.9
v -0.7 1.4 -0.9
v -0.6 1.4 -0.9
v -1.6 1.4 -1
v -0.5 1.4 -1
v -1.7 1.4 -1.1
v 1.5 1.4 -1.1
v 0.5 1.5 0.2
v 0.6 1.5 0.2
v 1.3 1.5 0.2
v 1.4 1.5 0.2
v -1.6 1.5 -0.3
v -0.5 1.5 -0.3
v -1.5 1.5 -0.4
v -1.4 1.5 -0.4
v -1.3 1.5 -0.4
v -1.2 1.5 -0.4
v -1.1 1.5 -0.4
v -1 1.5 -0.4
v -0.9 1.5 -0.4
v -0.8 1.5 -0.4
v -0.7 1.5 -0.4
v -0.6 1.5 -0.4
v 0.6 1.5 -0.4
v 1.3 1.5 -0.4
v -1.5 1.5 -0.5
v -1.4 1.5 -0.5
v -1.3 1.5 -0.5
v -1.2 1.5 -0.5
v -1.1 1.5 -0.5
v -1 1.5 -0.5
v -0.9 1.5 -0.5
v -0.8 1.5 -0.5
v -0.7 1.5 -0.5
v -0.6 1.5 -0.5
v 0.5 1.5 -0.5
v 1.4 1.5 -0.5
v -1.5 1.5 -0.6
v -1.4 1.5 -0.6
v -1.3 1.5 -0.6
v -1.2 1.5 -0.6
v -1.1 1.5 -0.6
v -1 1.5 -0.6
v -0.9 1.5 -0.6
v -0.8 1.5 -0.6
v -0.7 1.5 -0.6
v -0.6 1.5 -0.6
v -1.5 1.5 -0.7
v -1.4 1.5 -0.7
v -1.3 1.5 -0.7
v -1.2 1.5 -0.7
v -1.1 1.5 -0.7
v -1 1.5 -0.7
v -0.9 1.5 -0.7
v -0.8 1.5 -0.7
v -0.7 1.5 -0.7
v -0.6 1.5 -0.7
v -1.5 1.5 -0.8
v -1.4 1.5 -0.8
v -1.3 1.5 -0.8
v -1.2 1.5 -0.8
v -1.1 1.5 -0.8
v -1 1.5 -0.8
v -0.9 1.5 -0.8
v -0.8 1.5 -0.8
v -0.7 1.5 -0.8
v -0.6 1.5 -0.8
v -1.5 1.5 -0.9
v -1.4 1.5 -0.9
v -1.3 1.5 -0.9
v -1.2 1.5 -0.9
v -1.1 1.5 -0.9
v -1 1.5 -0.9
v -0.9 1.5 -0.9
v -0.8 1.5 -0.9
v -0.7 1.5 -0.9
v -0.6 1.5 -0.9
v -1.6 1.5 -1
v -0.5 1.5 -1
v -0.3 1.6 0.3
v 0.1 1.6 0.3
v -0.2 1.6 0.2
v 1.19209e-07 1.6 0.2
v -0.2 1.6 0.1
v 1.19209e-07 1.6 0.1
v -0.2 1.6 0
v 1.19209e-07 1.6 0
v -0.3 1.6 -0.1
v -0.2 1.6 -0.1
v 1.19209e-07 1.6 -0.1
v 0.1 1.6 -0.1
v -0.2 1.7 0.2
v 1.19209e-07 1.7 0.2
v -0.2 1.7 0.1
v 1.19209e-07 1.7 0.1
v -0.3 1.8 0
v -0.2 1.8 0
v 1.19209e-07 1.8 0
v 0.1 1.8 0
v -0.3 1.8 -0.1
v -0.2 1.8 -0.1
v 1.19209e-07 1.8 -0.1
v 0.1 1.8 -0.1
v -1.5 1.8 -0.4
v -1.4 1.8 -0.4
v -1.3 1.8 -0.4
v -1.2 1.8 -0.4
v -1.1 1.8 -0.4
v -1 1.8 -0.4
v -0.9 1.8 -0.4
v -0.8 1.8 -0.4
v -0.7 1.8 -0.4
v -0.6 1.8 -0.4
v -1.5 1.8 -0.5
v -1.4 1.8 -0.5
v -1.3 1.8 -0.5
v -1.2 1.8 -0.5
v -1.1 1.8 -0.5
v -1 1.8 -0.5
v -0.9 1.8 -0.5
v -0.8 1.8 -0.5
v -0.7 1.8 -0.5
v -0.6 1.8 -0.5
v -1.5 1.8 -0.6
v -1.4 1.8 -0.6
v -1.3 1.8 -0.6
v -1.2 1.8 -0.6
v -1.1 1.8 -0.6
v -1 1.8 -0.6
v -0.9 1.8 -0.6
v -0.8 1.8 -0.6
v -0.7 1.8 -0.6
v -0.6 1.8 -0.6
v -1.5 1.8 -0.7
v -1.4 1.8 -0.7
v -1.3 1.8 -0.7
v -1.2 1.8 -0.7
v -1.1 1.8 -0.7
v -1 1.8 -0.7
v -0.9 1.8 -0.7
v -0.8 1.8 -0.7
v -0.7 1.8 -0.7
v -0.6 1.8 -0.7
v -1.5 1.8 -0.8
v -1.4 1.8 -0.8
v -1.3 1.8 -0.8
v -1.2 1.8 -0.8
v -1.1 1.8 -0.8
v -1 1.8 -0.8
v -0.9 1.8 -0.8
v -0.8 1.8 -0.8
v -0.7 1.8 -0.8
v -0.6 1.8 -0.8
v -1.5 1.8 -0.9
v -1.4 1.8 -0.9
v -1.3 1.8 -0.9
v -1.2 1.8 -0.9
v -1.1 1.8 -0.9
v -1 1.8 -0.9
v -0.9 1.8 -0.9
v -0.8 1.8 -0.9
v -0.7 1.8 -0.9
v -0.6 1.8 -0.9
v -0.2 1.9 0.4
v 1.19209e-07 1.9 0.4
v -0.3 1.9 0.3
v -0.2 1.9 0.3
v 1.19209e-07 1.9 0.3
v 0.1 1.9 0.3
v -0.3 1.9 0.1
v -0.2 1.9 0.1
v 1.19209e-07 1.9 0.1
v 0.1 1.9 0.1
v -0.2 1.9 0
v 1.19209e-07 1.9 0
v -0.2 2.1 0
v 1.19209e-07 2.1 0
v -0.2 2.1 -0.1
v 1.19209e-07 2.1 -0.1
v -0.2 2.2 0.1
v 1.19209e-07 2.2 0.1
v -0.2 2.2 0
v 1.19209e-07 2.2 0
v -0.2 2.3 0.2
v 1.19209e-07 2.3 0.2
v -0.2 2.3 0.1
v 1.19209e-07 2.3 0.1
v -0.2 2.4 0.4
v 1.19209e-07 2.4 0.4
v -0.2 2.4 0.3
v 1.19209e-07 2.4 0.3
v -0.2 2.4 0.2
v 1.19209e-07 2.4 0.2
v -0.3 2.5 0.5
v -0.2 2.5 0.5
v 1.19209e-07 2.5 0.5
v 0.1 2.5 0.5
v -0.3 2.5 0.4
v -0.2 2.5 0.4
v 1.19209e-07 2.5 0.4
v 0.1 2.5 0.4

# faces
f 3/8/1 2/8/1 1/8/1
f 4/8/1 2/8/1 3/8/1
f 9/8/1 6/8/1 5/8/1
f 10/8/1 6/8/1 9/8/1
f 11/8/1 8/8/1 7/8/1
f 12/8/1 8/8/1 11/8/1
f 15/6/1 14/6/1 13/6/1
f 16/6/1 14/6/1 15/6/1
f 19/8/1 18/8/1 17/8/1
f 20/8/1 18/8/1 19/8/1
f 27/3/1 22/3/1 21/3/1
f 28/3/1 22/3/1 27/3/1
f 29/2/1 24/2/1 23/2/1
f 30/2/1 24/2/1 29/2/1
f 31/1/1 26/1/1 25/1/1
f 32/1/1 26/1/1 31/1/1
f 39/6/1 34/6/1 33/6/1
f 40/6/1 34/6/1 39/6/1
f 41/6/1 36/6/1 35/6/1
f 42/6/1 36/6/1 41/6/1
f 43/6/1 38/6/1 37/6/1
f 44/6/1 38/6/1 43/6/1
f 51/3/1 46/3/1 45/3/1
f 52/3/1 46/3/1 51/3/1
f 53/2/1 48/2/1 47/2/1
f 54/2/1 48/2/1 53/2/1
f 55/1/1 50/1/1 49/1/1
f 56/1/1 50/1/1 55/1/1
f 63/6/1 58/6/1 57/6/1
f 64/6/1 58/6/1 63/6/1
f 65/6/1 60/6/1 59/6/1
f 66/6/1 60/6/1 65/6/1
f 67/6/1 62/6/1 61/6/1
f 68/6/1 62/6/1 67/6/1
f 75/3/1 70/3/1 69/3/1
f 76/3/1 70/3/1 75/3/1
f 77/2/1 72/2/1 71/2/1
f 78/2/1 72/2/1 77/2/1
f 79/1/1 74/1/1 73/1/1
f 80/1/1 74/1/1 79/1/1
f 87/6/1 82/6/1 81/6/1
f 88/6/1 82/6/1 87/6/1
f 89/6/1 84/6/1 83/6/1
f 90/6/1 84/6/1 89/6/1
f 91/6/1 86/6/1 85/6/1
f 92/6/1 86/6/1 91/6/1
f 99/3/1 94/3/1 93/3/1
f 100/3/1 94/3/1 99/3/1
f 101/2/1 96/2/1 95/2/1
f 102/2/1 96/2/1 101/2/1
f 103/1/1 98/1/1 97/1/1
f 104/1/1 98/1/1 103/1/1
f 111/6/1 106/6/1 105/6/1
f 112/6/1 106/6/1 111/6/1
f 113/6/1 108/6/1 107/6/1
f 114/6/1 108/6/1 113/6/1
f 115/6/1 110/6/1 109/6/1
f 116/6/1 110/6/1 115/6/1
f 123/3/1 118/3/1 117/3/1
f 124/3/1 118/3/1 123/3/1
f 125/2/1 120/2/1 119/2/1
f 126/2/1 120/2/1 125/2/1
f 127/1/1 122/1/1 121/1/1
f 128/1/1 122/1/1 127/1/1
f 135/6/1 130/6/1 129/6/1
f 136/6/1 130/6/1 135/6/1
f 137/6/1 132/6/1 131/6/1
f 138/6/1 132/6/1 137/6/1
f 139/6/1 134/6/1 133/6/1
f 140/6/1 134/6/1 139/6/1
f 143/6/1 142/6/1 141/6/1
f 144/6/1 142/6/1 143/6/1
f 145/7/1 144/7/1 143/7/1
f 146/7/1 144/7/1 145/7/1
f 151/6/1 148/6/1 147/6/1
f 152/6/1 148/6/1 151/6/1
f 153/6/1 150/6/1 149/6/1
f 154/6/1 150/6/1 153/6/1
f 157/6/1 156/6/1 155/6/1
f 158/6/1 156/6/1 157/6/1
f 163/6/1 160/6/1 159/6/1
f 164/6/1 160/6/1 163/6/1
f 165/7/1 162/7/1 161/7/1
f 166/7/1 162/7/1 165/7/1
f 172/6/1 168/6/1 167/6/1
f 173/6/1 168/6/1 172/6/1
f 174/6/1 170/6/1 169/6/1
f 175/7/1 171/7/1 170/7/1
f 175/6/1 170/6/1 174/6/1
f 177/7/1 171/7/1 175/7/1
f 178/7/1 171/7/1 177/7/1
f 179/7/1 177/7/1 176/7/1
f 180/7/1 177/7/1 179/7/1
f 183/7/1 179/7/1 176/7/1
f 184/7/1 179/7/1 183/7/1
f 185/6/1 182/6/1 181/6/1
f 186/7/1 183/7/1 182/7/1
f 186/6/1 182/6/1 185/6/1
f 187/7/1 183/7/1 186/7/1
f 190/6/1 189/6/1 188/6/1
f 191/6/1 189/6/1 190/6/1
f 194/8/1 193/8/1 192/8/1
f 195/8/1 193/8/1 194/8/1
f 200/8/1 197/8/1 196/8/1
f 201/8/1 199/8/1 198/8/1
f 202/8/1 200/8/1 196/8/1
f 202/8/1 201/8/1 200/8/1
f 203/8/1 199/8/1 201/8/1
f 203/8/1 201/8/1 202/8/1
f 206/8/1 205/8/1 204/8/1
f 207/8/1 205/8/1 206/8/1
f 208/6/2 209/6/2 214/6/2
f 214/6/2 209/6/2 215/6/2
f 210/6/2 211/6/2 216/6/2
f 216/6/2 211/6/2 217/6/2
f 212/6/2 213/6/2 218/6/2
f 218/6/2 213/6/2 219/6/2
f 220/8/2 221/8/2 224/8/2
f 222/8/2 223/8/2 225/8/2
f 220/8/2 224/8/2 226/8/2
f 224/8/2 225/8/2 226/8/2
f 225/8/2 223/8/2 227/8/2
f 226/8/2 225/8/2 227/8/2
f 228/3/2 229/3/2 234/3/2
f 234/3/2 229/3/2 235/3/2
f 230/2/2 231/2/2 236/2/2
f 236/2/2 231/2/2 237/2/2
f 232/1/2 233/1/2 238/1/2
f 238/1/2 233/1/2 239/1/2
f 240/6/2 241/6/2 246/6/2
f 246/6/2 241/6/2 247/6/2
f 242/6/2 243/6/2 248/6/2
f 248/6/2 243/6/2 249/6/2
f 244/6/2 245/6/2 250/6/2
f 250/6/2 245/6/2 251/6/2
f 252/3/2 253/3/2 258/3/2
f 258/3/2 253/3/2 259/3/2
f 254/2/2 255/2/2 260/2/2
f 260/2/2 255/2/2 261/2/2
f 256/1/2 257/1/2 262/1/2
f 262/1/2 257/1/2 263/1/2
f 264/6/2 265/6/2 270/6/2
f 270/6/2 265/6/2 271/6/2
f 266/6/2 267/6/2 272/6/2
f 272/6/2 267/6/2 273/6/2
f 268/6/2 269/6/2 274/6/2
f 274/6/2 269/6/2 275/6/2
f 276/3/2 277/3/2 282/3/2
f 282/3/2 277/3/2 283/3/2
f 278/2/2 279/2/2 284/2/2
f 284/2/2 279/2/2 285/2/2
f 280/1/2 281/1/2 286/1/2
f 286/1/2 281/1/2 287/1/2
f 288/6/2 289/6/2 294/6/2
f 294/6/2 289/6/2 295/6/2
f 290/6/2 291/6/2 296/6/2
f 296/6/2 291/6/2 297/6/2
f 292/6/2 293/6/2 298/6/2
f 298/6/2 293/6/2 299/6/2
f 300/3/2 301/3/2 306/3/2
f 306/3/2 301/3/2 307/3/2
f 302/2/2 303/2/2 308/2/2
f 308/2/2 303/2/2 309/2/2
f 304/1/2 305/1/2 310/1/2
f 310/1/2 305/1/2 311/1/2
f 312/6/2 313/6/2 318/6/2
f 318/6/2 313/6/2 319/6/2
f 314/6/2 315/6/2 320/6/2
f 320/6/2 315/6/2 321/6/2
f 316/6/2 317/6/2 322/6/2
f 322/6/2 317/6/2 323/6/2
f 324/3/2 325/3/2 330/3/2
f 330/3/2 325/3/2 331/3/2
f 326/2/2 327/2/2 332/2/2
f 332/2/2 327/2/2 333/2/2
f 328/1/2 329/1/2 334/1/2
f 334/1/2 329/1/2 335/1/2
f 336/6/2 337/6/2 338/6/2
f 338/6/2 337/6/2 339/6/2
f 340/6/2 341/6/2 342/6/2
f 342/6/2 341/6/2 343/6/2
f 344/6/2 345/6/2 348/6/2
f 348/6/2 345/6/2 349/6/2
f 346/7/2 347/7/2 350/7/2
f 350/7/2 347/7/2 351/7/2
f 352/6/2 353/6/2 357/6/2
f 357/6/2 353/6/2 358/6/2
f 354/6/2 355/6/2 359/6/2
f 355/7/2 356/7/2 360/7/2
f 359/6/2 355/6/2 360/6/2
f 360/7/2 356/7/2 362/7/2
f 362/7/2 356/7/2 363/7/2
f 361/7/2 362/7/2 364/7/2
f 364/7/2 362/7/2 365/7/2
f 361/7/2 364/7/2 368/7/2
f 368/7/2 364/7/2 369/7/2
f 366/6/2 367/6/2 370/6/2
f 367/7/2 368/7/2 371/7/2
f 370/6/2 367/6/2 371/6/2
f 371/7/2 368/7/2 372/7/2
f 373/6/2 374/6/2 375/6/2
f 375/6/2 374/6/2 376/6/2
f 375/7/2 376/7/2 377/7/2
f 377/7/2 376/7/2 378/7/2
f 379/6/2 380/6/2 383/6/2
f 383/6/2 380/6/2 384/6/2
f 381/6/2 382/6/2 385/6/2
f 385/6/2 382/6/2 386/6/2
f 387/6/2 388/6/2 389/6/2
f 389/6/2 388/6/2 390/6/2
f 391/8/2 392/8/2 393/8/2
f 393/8/2 392/8/2 394/8/2
f 395/8/2 396/8/2 397/8/2
f 397/8/2 396/8/2 398/8/2
f 399/8/2 400/8/2 403/8/2
f 403/8/2 400/8/2 404/8/2
f 401/8/2 402/8/2 405/8/2
f 405/8/2 402/8/2 406/8/2
f 407/8/2 408/8/2 409/8/2
f 409/8/2 408/8/2 410/8/2
f 411/8/2 412/8/2 413/8/2
f 413/8/2 412/8/2 414/8/2
f 419/6/3 418/6/3 417/6/3
f 420/6/3 418/6/3 419/6/3
f 423/6/3 422/6/3 421/6/3
f 424/6/3 422/6/3 423/6/3
f 425/8/3 416/8/3 415/8/3
f 426/8/3 416/8/3 425/8/3
f 429/8/3 428/8/3 427/8/3
f 430/8/3 428/8/3 429/8/3
f 435/6/3 432/6/3 431/6/3
f 436/6/3 432/6/3 435/6/3
f 437/6/3 434/6/3 433/6/3
f 438/6/3 434/6/3 437/6/3
f 441/8/3 440/8/3 439/8/3
f 442/8/3 440/8/3 441/8/3
f 448/6/3 447/6/3 446/6/3
f 449/6/3 447/6/3 448/6/3
f 452/6/3 444/6/3 443/6/3
f 453/7/3 445/7/3 444/7/3
f 453/6/3 444/6/3 452/6/3
f 454/7/3 445/7/3 453/7/3
f 455/6/3 451/6/3 450/6/3
f 456/6/3 451/6/3 455/6/3
f 461/6/3 458/6/3 457/6/3
f 462/6/3 458/6/3 461/6/3
f 463/7/3 460/7/3 459/7/3
f 464/7/3 460/7/3 463/7/3
f 467/8/3 466/8/3 465/8/3
f 468/8/3 466/8/3 467/8/3
f 471/8/3 470/8/3 469/8/3
f 472/8/3 470/8/3 471/8/3
f 476/6/3 474/6/3 473/6/3
f 477/6/3 474/6/3 476/6/3
f 480/7/3 476/7/3 475/7/3
f 480/7/3 477/7/3 476/7/3
f 481/7/3 477/7/3 480/7/3
f 482/7/3 477/7/3 481/7/3
f 483/7/3 479/7/3 478/7/3
f 484/7/3 479/7/3 483/7/3
f 485/6/3 482/6/3 481/6/3
f 486/6/3 482/6/3 485/6/3
f 489/6/3 488/6/3 487/6/3
f 490/6/3 488/6/3 489/6/3
f 493/3/3 492/3/3 491/3/3
f 494/3/3 492/3/3 493/3/3
f 497/3/3 496/3/3 495/3/3
f 498/3/3 496/3/3 497/3/3
f 501/3/3 500/3/3 499/3/3
f 502/3/3 500/3/3 501/3/3
f 505/3/3 504/3/3 503/3/3
f 506/3/3 504/3/3 505/3/3
f 509/3/3 508/3/3 507/3/3
f 510/3/3 508/3/3 509/3/3
f 513/8/3 512/8/3 511/8/3
f 514/8/3 512/8/3 513/8/3
f 517/6/3 516/6/3 515/6/3
f 518/6/3 516/6/3 517/6/3
f 521/6/3 520/6/3 519/6/3
f 522/6/3 520/6/3 521/6/3
f 525/6/3 524/6/3 523/6/3
f 526/6/3 524/6/3 525/6/3
f 529/6/3 528/6/3 527/6/3
f 530/6/3 528/6/3 529/6/3
f 533/6/3 532/6/3 531/6/3
f 534/6/3 532/6/3 533/6/3
f 537/2/3 536/2/3 535/2/3
f 538/2/3 536/2/3 537/2/3
f 541/2/3 540/2/3 539/2/3
f 542/2/3 540/2/3 541/2/3
f 545/2/3 544/2/3 543/2/3
f 546/2/3 544/2/3 545/2/3
f 549/2/3 548/2/3 547/2/3
f 550/2/3 548/2/3 549/2/3
f 553/2/3 552/2/3 551/2/3
f 554/2/3 552/2/3 553/2/3
f 557/6/3 556/6/3 555/6/3
f 558/6/3 556/6/3 557/6/3
f 561/6/3 560/6/3 559/6/3
f 562/6/3 560/6/3 561/6/3
f 565/6/3 564/6/3 563/6/3
f 566/6/3 564/6/3 565/6/3
f 569/6/3 568/6/3 567/6/3
f 570/6/3 568/6/3 569/6/3
f 573/6/3 572/6/3 571/6/3
f 574/6/3 572/6/3 573/6/3
f 577/8/3 576/8/3 575/8/3
f 578/8/3 576/8/3 577/8/3
f 581/8/3 577/8/3 575/8/3
f 582/8/3 577/8/3 581/8/3
f 583/1/3 580/1/3 579/1/3
f 584/1/3 580/1/3 583/1/3
f 587/1/3 586/1/3 585/1/3
f 588/1/3 586/1/3 587/1/3
f 591/1/3 590/1/3 589/1/3
f 592/1/3 590/1/3 591/1/3
f 595/1/3 594/1/3 593/1/3
f 596/1/3 594/1/3 595/1/3
f 599/1/3 598/1/3 597/1/3
f 600/1/3 598/1/3 599/1/3
f 603/8/3 602/8/3 601/8/3
f 605/8/3 603/8/3 601/8/3
f 605/8/3 604/8/3 603/8/3
f 606/8/3 604/8/3 605/8/3
f 609/6/3 608/6/3 607/6/3
f 610/6/3 608/6/3 609/6/3
f 613/6/3 612/6/3 611/6/3
f 614/6/3 612/6/3 613/6/3
f 617/6/3 616/6/3 615/6/3
f 618/6/3 616/6/3 617/6/3
f 621/6/3 620/6/3 619/6/3
f 622/6/3 620/6/3 621/6/3
f 625/6/3 624/6/3 623/6/3
f 626/6/3 624/6/3 625/6/3
f 627/6/4 628/6/4 629/6/4
f 629/6/4 628/6/4 630/6/4
f 631/6/4 632/6/4 633/6/4
f 633/6/4 632/6/4 634/6/4
f 635/8/4 636/8/4 637/8/4
f 637/8/4 636/8/4 638/8/4
f 635/8/4 637/8/4 639/8/4
f 639/8/4 637/8/4 640/8/4
f 641/7/4 642/7/4 643/7/4
f 643/7/4 642/7/4 644/7/4
f 645/8/4 646/8/4 647/8/4
f 645/8/4 647/8/4 649/8/4
f 647/8/4 648/8/4 649/8/4
f 649/8/4 648/8/4 650/8/4
f 651/6/4 652/6/4 655/6/4
f 655/6/4 652/6/4 656/6/4
f 653/6/4 654/6/4 659/6/4
f 659/6/4 654/6/4 660/6/4
f 657/7/4 658/7/4 663/7/4
f 663/7/4 658/7/4 664/7/4
f 661/6/4 662/6/4 665/6/4
f 665/6/4 662/6/4 666/6/4
f 667/7/4 668/7/4 669/7/4
f 669/7/4 668/7/4 670/7/4
f 672/7/4 673/7/4 676/7/4
f 674/6/4 675/6/4 677/6/4
f 677/6/4 675/6/4 678/6/4
f 672/7/4 676/7/4 680/7/4
f 678/7/4 679/7/4 680/7/4
f 677/7/4 678/7/4 680/7/4
f 676/7/4 677/7/4 680/7/4
f 680/7/4 679/7/4 681/7/4
f 681/7/4 679/7/4 682/7/4
f 682/7/4 679/7/4 683/7/4
f 671/6/4 672/6/4 684/6/4
f 672/7/4 680/7/4 685/7/4
f 684/6/4 672/6/4 685/6/4
f 685/7/4 680/7/4 686/7/4
f 681/6/4 682/6/4 687/6/4
f 687/6/4 682/6/4 688/6/4
f 689/6/4 690/6/4 691/6/4
f 691/6/4 690/6/4 692/6/4
f 693/6/4 694/6/4 695/6/4
f 695/6/4 694/6/4 696/6/4
f 697/6/4 698/6/4 699/6/4
f 699/6/4 698/6/4 700/6/4
f 701/6/4 702/6/4 703/6/4
f 703/6/4 702/6/4 704/6/4
f 705/6/4 706/6/4 707/6/4
f 707/6/4 706/6/4 708/6/4
f 709/3/4 710/3/4 711/3/4
f 711/3/4 710/3/4 712/3/4
f 713/3/4 714/3/4 715/3/4
f 715/3/4 714/3/4 716/3/4
f 717/3/4 718/3/4 719/3/4
f 719/3/4 718/3/4 720/3/4
f 721/3/4 722/3/4 723/3/4
f 723/3/4 722/3/4 724/3/4
f 725/3/4 726/3/4 727/3/4
f 727/3/4 726/3/4 728/3/4
f 729/8/4 730/8/4 731/8/4
f 731/8/4 730/8/4 732/8/4
f 733/6/4 734/6/4 735/6/4
f 735/6/4 734/6/4 736/6/4
f 737/6/4 738/6/4 739/6/4
f 739/6/4 738/6/4 740/6/4
f 741/6/4 742/6/4 743/6/4
f 743/6/4 742/6/4 744/6/4
f 745/6/4 746/6/4 747/6/4
f 747/6/4 746/6/4 748/6/4
f 749/6/4 750/6/4 751/6/4
f 751/6/4 750/6/4 752/6/4
f 753/2/4 754/2/4 755/2/4
f 755/2/4 754/2/4 756/2/4
f 757/2/4 758/2/4 759/2/4
f 759/2/4 758/2/4 760/2/4
f 761/2/4 762/2/4 763/2/4
f 763/2/4 762/2/4 764/2/4
f 765/2/4 766/2/4 767/2/4
f 767/2/4 766/2/4 768/2/4
f 769/2/4 770/2/4 771/2/4
f 771/2/4 770/2/4 772/2/4
f 773/6/4 774/6/4 775/6/4
f 775/6/4 774/6/4 776/6/4
f 777/6/4 778/6/4 779/6/4
f 779/6/4 778/6/4 780/6/4
f 781/6/4 782/6/4 783/6/4
f 783/6/4 782/6/4 784/6/4
f 785/6/4 786/6/4 787/6/4
f 787/6/4 786/6/4 788/6/4
f 789/6/4 790/6/4 791/6/4
f 791/6/4 790/6/4 792/6/4
f 793/1/4 794/1/4 795/1/4
f 795/1/4 794/1/4 796/1/4
f 797/1/4 798/1/4 799/1/4
f 799/1/4 798/1/4 800/1/4
f 801/1/4 802/1/4 803/1/4
f 803/1/4 802/1/4 804/1/4
f 805/1/4 806/1/4 807/1/4
f 807/1/4 806/1/4 808/1/4
f 809/1/4 810/1/4 811/1/4
f 811/1/4 810/1/4 812/1/4
f 813/8/4 814/8/4 817/8/4
f 817/8/4 814/8/4 818/8/4
f 815/6/4 816/6/4 819/6/4
f 819/6/4 816/6/4 820/6/4
f 821/8/4 822/8/4 823/8/4
f 823/8/4 822/8/4 824/8/4
f 825/8/4 826/8/4 827/8/4
f 827/8/4 826/8/4 828/8/4
f 833/8/5 830/8/5 829/8/5
f 834/8/5 830/8/5 833/8/5
f 835/8/5 832/8/5 831/8/5
f 836/8/5 832/8/5 835/8/5
f 841/8/5 838/8/5 837/8/5
f 842/8/5 838/8/5 841/8/5
f 843/8/5 840/8/5 839/8/5
f 844/8/5 840/8/5 843/8/5
f 849/8/5 846/8/5 845/8/5
f 850/8/5 846/8/5 849/8/5
f 851/8/5 848/8/5 847/8/5
f 852/8/5 848/8/5 851/8/5
f 855/8/5 854/8/5 853/8/5
f 856/8/5 854/8/5 855/8/5
f 857/8/5 854/8/5 856/8/5
f 858/8/5 854/8/5 857/8/5
f 859/8/5 855/8/5 853/8/5
f 862/8/5 854/8/5 858/8/5
f 863/8/5 860/8/5 859/8/5
f 863/8/5 859/8/5 853/8/5
f 864/8/5 860/8/5 863/8/5
f 865/8/5 862/8/5 861/8/5
f 866/8/5 854/8/5 862/8/5
f 866/8/5 862/8/5 865/8/5
f 867/8/5 863/8/5 853/8/5
f 868/8/5 857/8/5 856/8/5
f 869/8/5 857/8/5 868/8/5
f 870/8/5 854/8/5 866/8/5
f 871/8/5 869/8/5 868/8/5
f 871/8/5 870/8/5 869/8/5
f 871/8/5 867/8/5 853/8/5
f 871/8/5 868/8/5 867/8/5
f 872/8/5 854/8/5 870/8/5
f 872/8/5 870/8/5 871/8/5
f 877/6/5 874/6/5 873/6/5
f 878/6/5 874/6/5 877/6/5
f 879/6/5 876/6/5 875/6/5
f 880/6/5 876/6/5 879/6/5
f 891/3/5 882/3/5 881/3/5
f 892/3/5 882/3/5 891/3/5
f 893/3/5 884/3/5 883/3/5
f 894/3/5 884/3/5 893/3/5
f 895/3/5 886/3/5 885/3/5
f 896/3/5 886/3/5 895/3/5
f 897/3/5 888/3/5 887/3/5
f 898/3/5 888/3/5 897/3/5
f 899/3/5 890/3/5 889/3/5
f 900/3/5 890/3/5 899/3/5
f 911/2/5 902/2/5 901/2/5
f 912/2/5 902/2/5 911/2/5
f 913/2/5 904/2/5 903/2/5
f 914/2/5 904/2/5 913/2/5
f 915/2/5 906/2/5 905/2/5
f 916/2/5 906/2/5 915/2/5
f 917/2/5 908/2/5 907/2/5
f 918/2/5 908/2/5 917/2/5
f 919/2/5 910/2/5 909/2/5
f 920/2/5 910/2/5 919/2/5
f 931/1/5 922/1/5 921/1/5
f 932/1/5 922/1/5 931/1/5
f 933/1/5 924/1/5 923/1/5
f 934/1/5 924/1/5 933/1/5
f 935/1/5 926/1/5 925/1/5
f 936/1/5 926/1/5 935/1/5
f 937/1/5 928/1/5 927/1/5
f 938/1/5 928/1/5 937/1/5
f 939/1/5 930/1/5 929/1/5
f 940/1/5 930/1/5 939/1/5
f 944/6/5 942/6/5 941/6/5
f 945/6/5 942/6/5 944/6/5
f 947/6/5 944/6/5 943/6/5
f 947/6/5 946/6/5 945/6/5
f 947/6/5 945/6/5 944/6/5
f 948/6/5 946/6/5 947/6/5
f 949/6/5 946/6/5 948/6/5
f 950/6/5 946/6/5 949/6/5
f 951/6/5 949/6/5 948/6/5
f 952/6/5 949/6/5 951/6/5
f 955/7/5 954/7/5 953/7/5
f 956/7/5 954/7/5 955/7/5
f 959/6/5 958/6/5 957/6/5
f 960/6/5 958/6/5 959/6/5
f 961/7/5 960/7/5 959/7/5
f 962/7/5 960/7/5 961/7/5
f 967/6/5 964/6/5 963/6/5
f 968/6/5 964/6/5 967/6/5
f 969/6/5 966/6/5 965/6/5
f 970/6/5 966/6/5 969/6/5
f 971/8/6 972/8/6 973/8/6
f 973/8/6 972/8/6 974/8/6
f 974/8/6 972/8/6 975/8/6
f 975/8/6 972/8/6 976/8/6
f 976/8/6 972/8/6 977/8/6
f 977/8/6 972/8/6 978/8/6
f 978/8/6 972/8/6 979/8/6
f 979/8/6 972/8/6 980/8/6
f 980/8/6 972/8/6 981/8/6
f 981/8/6 972/8/6 982/8/6
f 976/4/6 977/4/6 983/4/6
f 977/5/6 978/5/6 983/5/6
f 978/4/6 979/4/6 984/4/6
f 983/5/6 978/5/6 984/5/6
f 979/5/6 980/5/6 985/5/6
f 984/4/6 979/4/6 985/4/6
f 980/4/6 981/4/6 986/4/6
f 985/5/6 980/5/6 986/5/6
f 984/4/6 985/4/6 987/4/6
f 983/4/6 984/4/6 987/4/6
f 985/4/6 986/4/6 987/4/6
f 976/4/6 983/4/6 987/4/6
f 987/4/6 986/4/6 988/4/6
f 971/8/6 973/8/6 989/8/6
f 974/8/6 975/8/6 990/8/6
f 976/4/6 987/4/6 991/4/6
f 987/5/6 988/5/6 991/5/6
f 988/4/6 986/4/6 992/4/6
f 991/5/6 988/5/6 992/5/6
f 976/4/6 991/4/6 993/4/6
f 991/4/6 992/4/6 993/4/6
f 993/4/6 992/4/6 994/4/6
f 994/4/6 992/4/6 995/4/6
f 992/4/6 986/4/6 996/4/6
f 995/4/6 992/4/6 996/4/6
f 986/4/6 981/4/6 996/4/6
f 971/8/6 989/8/6 997/8/6
f 989/8/6 990/8/6 997/8/6
f 997/8/6 990/8/6 998/8/6
f 993/5/6 994/5/6 999/5/6
f 976/4/6 993/4/6 999/4/6
f 994/4/6 995/4/6 1000/4/6
f 999/5/6 994/5/6 1000/5/6
f 995/5/6 996/5/6 1001/5/6
f 1000/4/6 995/4/6 1001/4/6
f 996/4/6 981/4/6 1002/4/6
f 1001/5/6 996/5/6 1002/5/6
f 976/4/6 999/4/6 1013/4/6
f 1000/4/6 1001/4/6 1013/4/6
f 999/4/6 1000/4/6 1013/4/6
f 1001/4/6 1002/4/6 1013/4/6
f 1002/4/6 981/4/6 1014/4/6
f 1013/4/6 1002/4/6 1014/4/6
f 1003/8/6 1004/8/6 1015/8/6
f 1015/8/6 1004/8/6 1016/8/6
f 1005/8/6 1006/8/6 1017/8/6
f 1017/8/6 1006/8/6 1018/8/6
f 1007/8/6 1008/8/6 1019/8/6
f 1019/8/6 1008/8/6 1020/8/6
f 1009/8/6 1010/8/6 1021/8/6
f 1021/8/6 1010/8/6 1022/8/6
f 1011/8/6 1012/8/6 1023/8/6
f 1023/8/6 1012/8/6 1024/8/6
f 998/8/6 990/8/6 1025/8/6
f 990/8/6 975/8/6 1025/8/6
f 982/8/6 972/8/6 1026/8/6
f 1027/8/6 1028/8/6 1037/8/6
f 1037/8/6 1028/8/6 1038/8/6
f 1029/8/6 1030/8/6 1039/8/6
f 1039/8/6 1030/8/6 1040/8/6
f 1031/8/6 1032/8/6 1041/8/6
f 1041/8/6 1032/8/6 1042/8/6
f 1033/8/6 1034/8/6 1043/8/6
f 1043/8/6 1034/8/6 1044/8/6
f 1035/8/6 1036/8/6 1045/8/6
f 1045/8/6 1036/8/6 1046/8/6
f 1047/8/6 1048/8/6 1057/8/6
f 1057/8/6 1048/8/6 1058/8/6
f 1049/8/6 1050/8/6 1059/8/6
f 1059/8/6 1050/8/6 1060/8/6
f 1051/8/6 1052/8/6 1061/8/6
f 1061/8/6 1052/8/6 1062/8/6
f 1053/8/6 1054/8/6 1063/8/6
f 1063/8/6 1054/8/6 1064/8/6
f 1055/8/6 1056/8/6 1065/8/6
f 1065/8/6 1056/8/6 1066/8/6
f 971/8/6 997/8/6 1067/8/6
f 1025/8/6 1026/8/6 1068/8/6
f 998/8/6 1025/8/6 1068/8/6
f 971/8/6 1067/8/6 1069/8/6
f 1067/8/6 1068/8/6 1069/8/6
f 1068/8/6 1026/8/6 1070/8/6
f 1069/8/6 1068/8/6 1070/8/6
f 1026/8/6 972/8/6 1070/8/6
f 1075/6/6 1076/6/6 1077/6/6
f 1077/6/6 1076/6/6 1078/6/6
f 1078/6/6 1076/6/6 1079/6/6
f 1079/6/6 1076/6/6 1080/6/6
f 1080/6/6 1076/6/6 1081/6/6
f 1081/6/6 1076/6/6 1082/6/6
f 1082/6/6 1076/6/6 1083/6/6
f 1083/6/6 1076/6/6 1084/6/6
f 1084/6/6 1076/6/6 1085/6/6
f 1085/6/6 1076/6/6 1086/6/6
f 1071/8/6 1072/8/6 1087/8/6
f 1073/8/6 1074/8/6 1088/8/6
f 1075/6/6 1077/6/6 1089/6/6
f 1078/6/6 1079/6/6 1090/6/6
f 1090/6/6 1079/6/6 1091/6/6
f 1080/6/6 1081/6/6 1092/6/6
f 1092/6/6 1081/6/6 1093/6/6
f 1082/6/6 1083/6/6 1094/6/6
f 1094/6/6 1083/6/6 1095/6/6
f 1084/6/6 1085/6/6 1096/6/6
f 1096/6/6 1085/6/6 1097/6/6
f 1086/6/6 1076/6/6 1098/6/6
f 1071/8/6 1087/8/6 1099/8/6
f 1087/8/6 1088/8/6 1099/8/6
f 1088/8/6 1074/8/6 1100/8/6
f 1099/8/6 1088/8/6 1100/8/6
f 1096/6/6 1097/6/6 1101/6/6
f 1097/6/6 1098/6/6 1101/6/6
f 1075/6/6 1089/6/6 1101/6/6
f 1095/6/6 1096/6/6 1101/6/6
f 1090/6/6 1091/6/6 1101/6/6
f 1093/6/6 1094/6/6 1101/6/6
f 1094/6/6 1095/6/6 1101/6/6
f 1091/6/6 1092/6/6 1101/6/6
f 1092/6/6 1093/6/6 1101/6/6
f 1089/6/6 1090/6/6 1101/6/6
f 1101/6/6 1098/6/6 1102/6/6
f 1102/6/6 1098/6/6 1103/6/6
f 1103/6/6 1098/6/6 1104/6/6
f 1104/6/6 1098/6/6 1105/6/6
f 1105/6/6 1098/6/6 1106/6/6
f 1106/6/6 1098/6/6 1107/6/6
f 1107/6/6 1098/6/6 1108/6/6
f 1108/6/6 1098/6/6 1109/6/6
f 1098/6/6 1076/6/6 1110/6/6
f 1109/6/6 1098/6/6 1110/6/6
f 1075/6/6 1101/6/6 1111/6/6
f 1102/6/6 1103/6/6 1112/6/6
f 1112/6/6 1103/6/6 1113/6/6
f 1104/6/6 1105/6/6 1114/6/6
f 1114/6/6 1105/6/6 1115/6/6
f 1106/6/6 1107/6/6 1116/6/6
f 1116/6/6 1107/6/6 1117/6/6
f 1108/6/6 1109/6/6 1118/6/6
f 1118/6/6 1109/6/6 1119/6/6
f 1110/6/6 1076/6/6 1120/6/6
f 1116/6/6 1117/6/6 1121/6/6
f 1119/6/6 1120/6/6 1121/6/6
f 1118/6/6 1119/6/6 1121/6/6
f 1114/6/6 1115/6/6 1121/6/6
f 1117/6/6 1118/6/6 1121/6/6
f 1075/6/6 1111/6/6 1121/6/6
f 1115/6/6 1116/6/6 1121/6/6
f 1112/6/6 1113/6/6 1121/6/6
f 1113/6/6 1114/6/6 1121/6/6
f 1111/6/6 1112/6/6 1121/6/6
f 1121/6/6 1120/6/6 1122/6/6
f 1122/6/6 1120/6/6 1123/6/6
f 1123/6/6 1120/6/6 1124/6/6
f 1124/6/6 1120/6/6 1125/6/6
f 1125/6/6 1120/6/6 1126/6/6
f 1126/6/6 1120/6/6 1127/6/6
f 1127/6/6 1120/6/6 1128/6/6
f 1128/6/6 1120/6/6 1129/6/6
f 1120/6/6 1076/6/6 1130/6/6
f 1129/6/6 1120/6/6 1130/6/6
f 1075/6/6 1121/6/6 1131/6/6
f 1122/6/6 1123/6/6 1132/6/6
f 1132/6/6 1123/6/6 1133/6/6
f 1124/6/6 1125/6/6 1134/6/6
f 1134/6/6 1125/6/6 1135/6/6
f 1126/6/6 1127/6/6 1136/6/6
f 1136/6/6 1127/6/6 1137/6/6
f 1128/6/6 1129/6/6 1138/6/6
f 1138/6/6 1129/6/6 1139/6/6
f 1130/6/6 1076/6/6 1140/6/6
f 1136/6/6 1137/6/6 1141/6/6
f 1139/6/6 1140/6/6 1141/6/6
f 1138/6/6 1139/6/6 1141/6/6
f 1134/6/6 1135/6/6 1141/6/6
f 1137/6/6 1138/6/6 1141/6/6
f 1075/6/6 1131/6/6 1141/6/6
f 1135/6/6 1136/6/6 1141/6/6
f 1132/6/6 1133/6/6 1141/6/6
f 1133/6/6 1134/6/6 1141/6/6
f 1131/6/6 1132/6/6 1141/6/6
f 1140/6/6 1076/6/6 1142/6/6
f 1141/6/6 1140/6/6 1142/6/6
f 1143/7/6 1144/7/6 1145/7/6
f 1145/7/6 1144/7/6 1146/7/6
f 1143/7/6 1145/7/6 1147/7/6
f 1146/7/6 1144/7/6 1148/7/6
f 1143/7/6 1147/7/6 1149/7/6
f 1147/7/6 1148/7/6 1149/7/6
f 1148/7/6 1144/7/6 1150/7/6
f 1149/7/6 1148/7/6 1150/7/6
f 1143/7/6 1149/7/6 1151/7/6
f 1151/7/6 1149/7/6 1152/7/6
f 1150/7/6 1144/7/6 1153/7/6
f 1153/7/6 1144/7/6 1154/7/6
f 1155/6/6 1156/6/6 1157/6/6
f 1157/6/6 1156/6/6 1158/6/6
f 1159/6/6 1160/6/6 1163/6/6
f 1163/6/6 1160/6/6 1164/6/6
f 1161/6/6 1162/6/6 1165/6/6
f 1165/6/6 1162/6/6 1166/6/6
f 1167/3/6 1168/3/6 1177/3/6
f 1177/3/6 1168/3/6 1178/3/6
f 1169/3/6 1170/3/6 1179/3/6
f 1179/3/6 1170/3/6 1180/3/6
f 1171/3/6 1172/3/6 1181/3/6
f 1181/3/6 1172/3/6 1182/3/6
f 1173/3/6 1174/3/6 1183/3/6
f 1183/3/6 1174/3/6 1184/3/6
f 1175/3/6 1176/3/6 1185/3/6
f 1185/3/6 1176/3/6 1186/3/6
f 1187/2/6 1188/2/6 1197/2/6
f 1197/2/6 1188/2/6 1198/2/6
f 1189/2/6 1190/2/6 1199/2/6
f 1199/2/6 1190/2/6 1200/2/6
f 1191/2/6 1192/2/6 1201/2/6
f 1201/2/6 1192/2/6 1202/2/6
f 1193/2/6 1194/2/6 1203/2/6
f 1203/2/6 1194/2/6 1204/2/6
f 1195/2/6 1196/2/6 1205/2/6
f 1205/2/6 1196/2/6 1206/2/6
f 1207/1/6 1208/1/6 1217/1/6
f 1217/1/6 1208/1/6 1218/1/6
f 1209/1/6 1210/1/6 1219/1/6
f 1219/1/6 1210/1/6 1220/1/6
f 1211/1/6 1212/1/6 1221/1/6
f 1221/1/6 1212/1/6 1222/1/6
f 1213/1/6 1214/1/6 1223/1/6
f 1223/1/6 1214/1/6 1224/1/6
f 1215/1/6 1216/1/6 1225/1/6
f 1225/1/6 1216/1/6 1226/1/6
f 1227/6/6 1228/6/6 1230/6/6
f 1230/6/6 1228/6/6 1231/6/6
f 1229/6/6 1230/6/6 1233/6/6
f 1231/6/6 1232/6/6 1233/6/6
f 1230/6/6 1231/6/6 1233/6/6
f 1233/6/6 1232/6/6 1234/6/6
f 1234/6/6 1232/6/6 1235/6/6
f 1235/6/6 1232/6/6 1236/6/6
f 1234/6/6 1235/6/6 1237/6/6
f 1237/6/6 1235/6/6 1238/6/6
f 1239/7/6 1240/7/6 1241/7/6
f 1241/7/6 1240/7/6 1242/7/6
f 1243/7/6 1244/7/6 1245/7/6
f 1245/7/6 1244/7/6 1246/7/6
f 1247/7/6 1248/7/6 1249/7/6
f 1249/7/6 1248/7/6 1250/7/6
f 1251/6/6 1252/6/6 1253/6/6
f 1253/6/6 1252/6/6 1254/6/6
f 1253/7/6 1254/7/6 1255/7/6
f 1255/7/6 1254/7/6 1256/7/6
f 1257/6/6 1258/6/6 1261/6/6
f 1261/6/6 1258/6/6 1262/6/6
f 1259/6/6 1260/6/6 1263/6/6
f 1263/6/6 1260/6/6 1264/6/6
