# MagicaVoxel @ Ephtracy

# group
o 

# material
mtllib laptop.mtl
usemtl palette

# normals
vn -1 0 0
vn 1 0 0
vn 0 0 1
vn 0 0 -1
vn 0 -1 0
vn 0 1 0

# texcoords
vt 0.333984 0.5
vt 0.357422 0.5
vt 0.888672 0.5
vt 0.927734 0.5

# verts
v -1.3 1.4 0.0999999
v -1.3 1.4 -0.9
v -1.3 1.5 0.0999999
v -1.3 1.5 -0.7
v -1.3 2.3 -0.7
v -1.3 2.3 -0.9
v -0.3 1.4 0.0999999
v -0.3 1.4 -0.9
v -0.3 1.5 0.0999999
v -0.3 1.5 -0.7
v -0.3 2.3 -0.7
v -0.3 2.3 -0.9
v -1.3 1.4 0.0999999
v -1.3 1.5 0.0999999
v -0.3 1.4 0.0999999
v -0.3 1.5 0.0999999
v -1.3 1.5 -0.7
v -1.3 2.3 -0.7
v -1.2 1.6 -0.7
v -1.2 2.2 -0.7
v -1.1 1.6 -0.7
v -1.1 1.7 -0.7
v -1.1 1.8 -0.7
v -1.1 1.9 -0.7
v -1.1 2 -0.7
v -1.1 2.1 -0.7
v -1 1.6 -0.7
v -1 1.7 -0.7
v -0.9 2 -0.7
v -0.9 2.1 -0.7
v -0.8 1.8 -0.7
v -0.8 1.9 -0.7
v -0.7 1.7 -0.7
v -0.7 1.8 -0.7
v -0.7 2 -0.7
v -0.7 2.1 -0.7
v -0.6 1.9 -0.7
v -0.6 2 -0.7
v -0.5 1.7 -0.7
v -0.5 1.8 -0.7
v -0.5 1.9 -0.7
v -0.5 2.1 -0.7
v -0.4 1.6 -0.7
v -0.4 2.2 -0.7
v -0.3 1.5 -0.7
v -0.3 2.3 -0.7
v -1.3 1.4 -0.9
v -1.3 2.3 -0.9
v -0.3 1.4 -0.9
v -0.3 2.3 -0.9
v -1.3 1.4 0.0999999
v -0.3 1.4 0.0999999
v -0.9 1.4 -7.45058e-08
v -0.7 1.4 -7.45058e-08
v -1.2 1.4 -0.1
v -1.1 1.4 -0.1
v -1 1.4 -0.1
v -0.9 1.4 -0.1
v -0.7 1.4 -0.1
v -0.6 1.4 -0.1
v -0.5 1.4 -0.1
v -0.4 1.4 -0.1
v -1.2 1.4 -0.2
v -1.1 1.4 -0.2
v -1 1.4 -0.2
v -0.6 1.4 -0.2
v -0.5 1.4 -0.2
v -0.4 1.4 -0.2
v -1.2 1.4 -0.3
v -1.1 1.4 -0.3
v -1 1.4 -0.3
v -0.9 1.4 -0.3
v -0.7 1.4 -0.3
v -0.6 1.4 -0.3
v -0.5 1.4 -0.3
v -0.4 1.4 -0.3
v -1.2 1.4 -0.4
v -1.1 1.4 -0.4
v -1 1.4 -0.4
v -0.9 1.4 -0.4
v -0.7 1.4 -0.4
v -0.6 1.4 -0.4
v -0.5 1.4 -0.4
v -0.4 1.4 -0.4
v -1.2 1.4 -0.5
v -1.1 1.4 -0.5
v -1 1.4 -0.5
v -0.9 1.4 -0.5
v -0.7 1.4 -0.5
v -0.6 1.4 -0.5
v -0.5 1.4 -0.5
v -0.4 1.4 -0.5
v -1.2 1.4 -0.6
v -1.1 1.4 -0.6
v -1 1.4 -0.6
v -0.9 1.4 -0.6
v -0.7 1.4 -0.6
v -0.6 1.4 -0.6
v -0.5 1.4 -0.6
v -0.4 1.4 -0.6
v -1.3 1.4 -0.9
v -0.3 1.4 -0.9
v -1.3 1.5 0.0999999
v -0.3 1.5 0.0999999
v -0.9 1.5 -7.45058e-08
v -0.7 1.5 -7.45058e-08
v -1.2 1.5 -0.1
v -1.1 1.5 -0.1
v -1 1.5 -0.1
v -0.9 1.5 -0.1
v -0.7 1.5 -0.1
v -0.6 1.5 -0.1
v -0.5 1.5 -0.1
v -0.4 1.5 -0.1
v -1.2 1.5 -0.2
v -1.1 1.5 -0.2
v -1 1.5 -0.2
v -0.6 1.5 -0.2
v -0.5 1.5 -0.2
v -0.4 1.5 -0.2
v -1.2 1.5 -0.3
v -1.1 1.5 -0.3
v -1 1.5 -0.3
v -0.9 1.5 -0.3
v -0.7 1.5 -0.3
v -0.6 1.5 -0.3
v -0.5 1.5 -0.3
v -0.4 1.5 -0.3
v -1.2 1.5 -0.4
v -1.1 1.5 -0.4
v -1 1.5 -0.4
v -0.9 1.5 -0.4
v -0.7 1.5 -0.4
v -0.6 1.5 -0.4
v -0.5 1.5 -0.4
v -0.4 1.5 -0.4
v -1.2 1.5 -0.5
v -1.1 1.5 -0.5
v -1 1.5 -0.5
v -0.9 1.5 -0.5
v -0.7 1.5 -0.5
v -0.6 1.5 -0.5
v -0.5 1.5 -0.5
v -0.4 1.5 -0.5
v -1.2 1.5 -0.6
v -1.1 1.5 -0.6
v -1 1.5 -0.6
v -0.9 1.5 -0.6
v -0.7 1.5 -0.6
v -0.6 1.5 -0.6
v -0.5 1.5 -0.6
v -0.4 1.5 -0.6
v -1.3 1.5 -0.7
v -0.3 1.5 -0.7
v -1.3 2.3 -0.7
v -0.3 2.3 -0.7
v -1.3 2.3 -0.9
v -0.3 2.3 -0.9

# faces
f 3/4/1 2/4/1 1/4/1
f 4/4/1 2/4/1 3/4/1
f 5/4/1 2/4/1 4/4/1
f 6/4/1 2/4/1 5/4/1
f 7/4/2 8/4/2 9/4/2
f 9/4/2 8/4/2 10/4/2
f 10/4/2 8/4/2 11/4/2
f 11/4/2 8/4/2 12/4/2
f 15/4/3 14/4/3 13/4/3
f 16/4/3 14/4/3 15/4/3
f 19/4/3 18/4/3 17/4/3
f 20/4/3 18/4/3 19/4/3
f 21/4/3 19/4/3 17/4/3
f 21/2/3 20/2/3 19/2/3
f 22/2/3 20/2/3 21/2/3
f 23/2/3 20/2/3 22/2/3
f 24/2/3 20/2/3 23/2/3
f 25/2/3 20/2/3 24/2/3
f 26/2/3 20/2/3 25/2/3
f 27/4/3 21/4/3 17/4/3
f 27/1/3 22/1/3 21/1/3
f 28/2/3 23/2/3 22/2/3
f 28/1/3 22/1/3 27/1/3
f 29/1/3 26/1/3 25/1/3
f 29/2/3 25/2/3 24/2/3
f 30/2/3 20/2/3 26/2/3
f 30/1/3 26/1/3 29/1/3
f 31/2/3 23/2/3 28/2/3
f 31/1/3 24/1/3 23/1/3
f 31/2/3 28/2/3 27/2/3
f 32/2/3 29/2/3 24/2/3
f 32/1/3 24/1/3 31/1/3
f 32/2/3 30/2/3 29/2/3
f 33/2/3 31/2/3 27/2/3
f 33/2/3 32/2/3 31/2/3
f 34/2/3 32/2/3 33/2/3
f 35/2/3 30/2/3 32/2/3
f 35/2/3 32/2/3 34/2/3
f 36/2/3 20/2/3 30/2/3
f 36/2/3 30/2/3 35/2/3
f 37/2/3 35/2/3 34/2/3
f 38/1/3 36/1/3 35/1/3
f 38/2/3 35/2/3 37/2/3
f 39/1/3 34/1/3 33/1/3
f 39/2/3 33/2/3 27/2/3
f 40/2/3 37/2/3 34/2/3
f 40/1/3 34/1/3 39/1/3
f 41/1/3 38/1/3 37/1/3
f 41/2/3 37/2/3 40/2/3
f 42/1/3 36/1/3 38/1/3
f 42/1/3 38/1/3 41/1/3
f 42/2/3 20/2/3 36/2/3
f 43/2/3 41/2/3 40/2/3
f 43/2/3 39/2/3 27/2/3
f 43/2/3 42/2/3 41/2/3
f 43/2/3 40/2/3 39/2/3
f 43/4/3 27/4/3 17/4/3
f 44/4/3 18/4/3 20/4/3
f 44/2/3 42/2/3 43/2/3
f 44/2/3 20/2/3 42/2/3
f 45/4/3 43/4/3 17/4/3
f 45/4/3 44/4/3 43/4/3
f 46/4/3 18/4/3 44/4/3
f 46/4/3 44/4/3 45/4/3
f 47/4/4 48/4/4 49/4/4
f 49/4/4 48/4/4 50/4/4
f 53/4/5 52/4/5 51/4/5
f 54/4/5 52/4/5 53/4/5
f 55/4/5 53/4/5 51/4/5
f 56/4/5 53/4/5 55/4/5
f 57/4/5 53/4/5 56/4/5
f 58/3/5 54/3/5 53/3/5
f 58/4/5 53/4/5 57/4/5
f 59/4/5 52/4/5 54/4/5
f 59/3/5 54/3/5 58/3/5
f 60/4/5 52/4/5 59/4/5
f 61/4/5 52/4/5 60/4/5
f 62/4/5 52/4/5 61/4/5
f 63/4/5 55/4/5 51/4/5
f 63/3/5 56/3/5 55/3/5
f 64/4/5 57/4/5 56/4/5
f 64/3/5 56/3/5 63/3/5
f 65/3/5 58/3/5 57/3/5
f 65/4/5 57/4/5 64/4/5
f 65/3/5 59/3/5 58/3/5
f 65/3/5 60/3/5 59/3/5
f 66/4/5 61/4/5 60/4/5
f 66/3/5 60/3/5 65/3/5
f 67/3/5 62/3/5 61/3/5
f 67/4/5 61/4/5 66/4/5
f 68/4/5 52/4/5 62/4/5
f 68/3/5 62/3/5 67/3/5
f 69/4/5 64/4/5 63/4/5
f 69/4/5 63/4/5 51/4/5
f 69/4/5 68/4/5 67/4/5
f 69/4/5 65/4/5 64/4/5
f 69/4/5 66/4/5 65/4/5
f 69/4/5 67/4/5 66/4/5
f 70/4/5 68/4/5 69/4/5
f 71/4/5 68/4/5 70/4/5
f 72/4/5 68/4/5 71/4/5
f 73/4/5 68/4/5 72/4/5
f 74/4/5 68/4/5 73/4/5
f 75/4/5 68/4/5 74/4/5
f 76/4/5 52/4/5 68/4/5
f 76/4/5 68/4/5 75/4/5
f 77/4/5 69/4/5 51/4/5
f 77/3/5 70/3/5 69/3/5
f 78/4/5 71/4/5 70/4/5
f 78/3/5 70/3/5 77/3/5
f 79/3/5 72/3/5 71/3/5
f 79/4/5 71/4/5 78/4/5
f 80/4/5 73/4/5 72/4/5
f 80/3/5 72/3/5 79/3/5
f 81/3/5 74/3/5 73/3/5
f 81/4/5 73/4/5 80/4/5
f 82/4/5 75/4/5 74/4/5
f 82/3/5 74/3/5 81/3/5
f 83/3/5 76/3/5 75/3/5
f 83/4/5 75/4/5 82/4/5
f 84/4/5 52/4/5 76/4/5
f 84/3/5 76/3/5 83/3/5
f 85/4/5 81/4/5 80/4/5
f 85/4/5 83/4/5 82/4/5
f 85/4/5 84/4/5 83/4/5
f 85/4/5 80/4/5 79/4/5
f 85/4/5 79/4/5 78/4/5
f 85/4/5 78/4/5 77/4/5
f 85/4/5 77/4/5 51/4/5
f 85/4/5 82/4/5 81/4/5
f 86/4/5 84/4/5 85/4/5
f 87/4/5 84/4/5 86/4/5
f 88/4/5 84/4/5 87/4/5
f 89/4/5 84/4/5 88/4/5
f 90/4/5 84/4/5 89/4/5
f 91/4/5 84/4/5 90/4/5
f 92/4/5 52/4/5 84/4/5
f 92/4/5 84/4/5 91/4/5
f 93/4/5 85/4/5 51/4/5
f 93/3/5 86/3/5 85/3/5
f 94/4/5 87/4/5 86/4/5
f 94/3/5 86/3/5 93/3/5
f 95/3/5 88/3/5 87/3/5
f 95/4/5 87/4/5 94/4/5
f 96/4/5 89/4/5 88/4/5
f 96/3/5 88/3/5 95/3/5
f 97/3/5 90/3/5 89/3/5
f 97/4/5 89/4/5 96/4/5
f 98/4/5 91/4/5 90/4/5
f 98/3/5 90/3/5 97/3/5
f 99/3/5 92/3/5 91/3/5
f 99/4/5 91/4/5 98/4/5
f 100/4/5 52/4/5 92/4/5
f 100/3/5 92/3/5 99/3/5
f 101/4/5 97/4/5 96/4/5
f 101/4/5 99/4/5 98/4/5
f 101/4/5 100/4/5 99/4/5
f 101/4/5 96/4/5 95/4/5
f 101/4/5 95/4/5 94/4/5
f 101/4/5 94/4/5 93/4/5
f 101/4/5 93/4/5 51/4/5
f 101/4/5 98/4/5 97/4/5
f 102/4/5 52/4/5 100/4/5
f 102/4/5 100/4/5 101/4/5
f 103/4/6 104/4/6 105/4/6
f 105/4/6 104/4/6 106/4/6
f 103/4/6 105/4/6 107/4/6
f 107/4/6 105/4/6 108/4/6
f 108/4/6 105/4/6 109/4/6
f 105/3/6 106/3/6 110/3/6
f 109/4/6 105/4/6 110/4/6
f 106/4/6 104/4/6 111/4/6
f 110/3/6 106/3/6 111/3/6
f 111/4/6 104/4/6 112/4/6
f 112/4/6 104/4/6 113/4/6
f 113/4/6 104/4/6 114/4/6
f 103/4/6 107/4/6 115/4/6
f 107/3/6 108/3/6 115/3/6
f 108/4/6 109/4/6 116/4/6
f 115/3/6 108/3/6 116/3/6
f 109/3/6 110/3/6 117/3/6
f 116/4/6 109/4/6 117/4/6
f 110/3/6 111/3/6 117/3/6
f 111/3/6 112/3/6 117/3/6
f 112/4/6 113/4/6 118/4/6
f 117/3/6 112/3/6 118/3/6
f 113/3/6 114/3/6 119/3/6
f 118/4/6 113/4/6 119/4/6
f 114/4/6 104/4/6 120/4/6
f 119/3/6 114/3/6 120/3/6
f 115/4/6 116/4/6 121/4/6
f 103/4/6 115/4/6 121/4/6
f 119/4/6 120/4/6 121/4/6
f 116/4/6 117/4/6 121/4/6
f 117/4/6 118/4/6 121/4/6
f 118/4/6 119/4/6 121/4/6
f 121/4/6 120/4/6 122/4/6
f 122/4/6 120/4/6 123/4/6
f 123/4/6 120/4/6 124/4/6
f 124/4/6 120/4/6 125/4/6
f 125/4/6 120/4/6 126/4/6
f 126/4/6 120/4/6 127/4/6
f 120/4/6 104/4/6 128/4/6
f 127/4/6 120/4/6 128/4/6
f 103/4/6 121/4/6 129/4/6
f 121/3/6 122/3/6 129/3/6
f 122/4/6 123/4/6 130/4/6
f 129/3/6 122/3/6 130/3/6
f 123/3/6 124/3/6 131/3/6
f 130/4/6 123/4/6 131/4/6
f 124/4/6 125/4/6 132/4/6
f 131/3/6 124/3/6 132/3/6
f 125/3/6 126/3/6 133/3/6
f 132/4/6 125/4/6 133/4/6
f 126/4/6 127/4/6 134/4/6
f 133/3/6 126/3/6 134/3/6
f 127/3/6 128/3/6 135/3/6
f 134/4/6 127/4/6 135/4/6
f 128/4/6 104/4/6 136/4/6
f 135/3/6 128/3/6 136/3/6
f 132/4/6 133/4/6 137/4/6
f 134/4/6 135/4/6 137/4/6
f 135/4/6 136/4/6 137/4/6
f 131/4/6 132/4/6 137/4/6
f 130/4/6 131/4/6 137/4/6
f 129/4/6 130/4/6 137/4/6
f 103/4/6 129/4/6 137/4/6
f 133/4/6 134/4/6 137/4/6
f 137/4/6 136/4/6 138/4/6
f 138/4/6 136/4/6 139/4/6
f 139/4/6 136/4/6 140/4/6
f 140/4/6 136/4/6 141/4/6
f 141/4/6 136/4/6 142/4/6
f 142/4/6 136/4/6 143/4/6
f 136/4/6 104/4/6 144/4/6
f 143/4/6 136/4/6 144/4/6
f 103/4/6 137/4/6 145/4/6
f 137/3/6 138/3/6 145/3/6
f 138/4/6 139/4/6 146/4/6
f 145/3/6 138/3/6 146/3/6
f 139/3/6 140/3/6 147/3/6
f 146/4/6 139/4/6 147/4/6
f 140/4/6 141/4/6 148/4/6
f 147/3/6 140/3/6 148/3/6
f 141/3/6 142/3/6 149/3/6
f 148/4/6 141/4/6 149/4/6
f 142/4/6 143/4/6 150/4/6
f 149/3/6 142/3/6 150/3/6
f 143/3/6 144/3/6 151/3/6
f 150/4/6 143/4/6 151/4/6
f 144/4/6 104/4/6 152/4/6
f 151/3/6 144/3/6 152/3/6
f 148/4/6 149/4/6 153/4/6
f 150/4/6 151/4/6 153/4/6
f 151/4/6 152/4/6 153/4/6
f 147/4/6 148/4/6 153/4/6
f 146/4/6 147/4/6 153/4/6
f 145/4/6 146/4/6 153/4/6
f 103/4/6 145/4/6 153/4/6
f 149/4/6 150/4/6 153/4/6
f 152/4/6 104/4/6 154/4/6
f 153/4/6 152/4/6 154/4/6
f 155/4/6 156/4/6 157/4/6
f 157/4/6 156/4/6 158/4/6
