# MagicaVoxel @ Ephtracy

# group
o 

# material
mtllib Microscope.mtl
usemtl palette

# normals
vn -1 0 0
vn 1 0 0
vn 0 0 1
vn 0 0 -1
vn 0 -1 0
vn 0 1 0

# texcoords
vt 0.365234 0.5
vt 0.451172 0.5

# verts
v -0.3 1.4 0.3
v -0.3 1.4 -0.1
v -0.3 1.5 0.3
v -0.3 1.5 -0.1
v -0.3 1.6 0.3
v -0.3 1.6 -0.1
v -0.3 1.7 0
v -0.3 1.7 -0.1
v -0.3 1.8 0.3
v -0.3 1.8 0.1
v -0.3 1.8 0
v -0.3 1.8 -0.1
v -0.3 1.9 0.3
v -0.3 1.9 0.1
v -0.3 2.4 0.5
v -0.3 2.4 0.4
v -0.3 2.5 0.5
v -0.3 2.5 0.4
v -0.2 1.6 0.2
v -0.2 1.6 0.1
v -0.2 1.6 0
v -0.2 1.6 -0.1
v -0.2 1.7 0.2
v -0.2 1.7 0.1
v -0.2 1.7 0
v -0.2 1.7 -0.1
v -0.2 1.8 0.4
v -0.2 1.8 0.3
v -0.2 1.8 0.1
v -0.2 1.8 0
v -0.2 1.8 -0.1
v -0.2 1.9 0.4
v -0.2 1.9 0.3
v -0.2 1.9 0.1
v -0.2 1.9 0
v -0.2 2.1 0.2
v -0.2 2.1 0
v -0.2 2.1 -0.1
v -0.2 2.2 0.1
v -0.2 2.2 0
v -0.2 2.3 0.4
v -0.2 2.3 0.3
v -0.2 2.3 0.2
v -0.2 2.3 0.1
v -0.2 2.4 0.4
v -0.2 2.4 0.3
v 2.98023e-08 2.4 0.5
v 2.98023e-08 2.4 0.4
v 2.98023e-08 2.5 0.5
v 2.98023e-08 2.5 0.4
v -0.2 2.4 0.5
v -0.2 2.4 0.4
v -0.2 2.5 0.5
v -0.2 2.5 0.4
v 2.98023e-08 1.6 0.2
v 2.98023e-08 1.6 0.1
v 2.98023e-08 1.6 0
v 2.98023e-08 1.6 -0.1
v 2.98023e-08 1.7 0.2
v 2.98023e-08 1.7 0.1
v 2.98023e-08 1.7 0
v 2.98023e-08 1.7 -0.1
v 2.98023e-08 1.8 0.4
v 2.98023e-08 1.8 0.3
v 2.98023e-08 1.8 0.1
v 2.98023e-08 1.8 0
v 2.98023e-08 1.8 -0.1
v 2.98023e-08 1.9 0.4
v 2.98023e-08 1.9 0.3
v 2.98023e-08 1.9 0.1
v 2.98023e-08 1.9 0
v 2.98023e-08 2.1 0.2
v 2.98023e-08 2.1 0
v 2.98023e-08 2.1 -0.1
v 2.98023e-08 2.2 0.1
v 2.98023e-08 2.2 0
v 2.98023e-08 2.3 0.4
v 2.98023e-08 2.3 0.3
v 2.98023e-08 2.3 0.2
v 2.98023e-08 2.3 0.1
v 2.98023e-08 2.4 0.4
v 2.98023e-08 2.4 0.3
v 0.1 1.4 0.3
v 0.1 1.4 -0.1
v 0.1 1.5 0.3
v 0.1 1.5 -0.1
v 0.1 1.6 0.3
v 0.1 1.6 -0.1
v 0.1 1.7 0
v 0.1 1.7 -0.1
v 0.1 1.8 0.3
v 0.1 1.8 0.1
v 0.1 1.8 0
v 0.1 1.8 -0.1
v 0.1 1.9 0.3
v 0.1 1.9 0.1
v 0.1 2.4 0.5
v 0.1 2.4 0.4
v 0.1 2.5 0.5
v 0.1 2.5 0.4
v -0.3 2.4 0.5
v -0.3 2.5 0.5
v -0.2 2.4 0.5
v -0.2 2.5 0.5
v 2.98023e-08 2.4 0.5
v 2.98023e-08 2.5 0.5
v 0.1 2.4 0.5
v 0.1 2.5 0.5
v -0.2 1.8 0.4
v -0.2 1.9 0.4
v -0.2 2.3 0.4
v -0.2 2.4 0.4
v 2.98023e-08 1.8 0.4
v 2.98023e-08 1.9 0.4
v 2.98023e-08 2.3 0.4
v 2.98023e-08 2.4 0.4
v -0.3 1.4 0.3
v -0.3 1.5 0.3
v -0.3 1.6 0.3
v -0.3 1.8 0.3
v -0.3 1.9 0.3
v -0.2 1.8 0.3
v -0.2 1.9 0.3
v 2.98023e-08 1.8 0.3
v 2.98023e-08 1.9 0.3
v 0.1 1.4 0.3
v 0.1 1.5 0.3
v 0.1 1.6 0.3
v 0.1 1.8 0.3
v 0.1 1.9 0.3
v -0.2 1.6 0.2
v -0.2 1.7 0.2
v -0.2 2.1 0.2
v -0.2 2.3 0.2
v 2.98023e-08 1.6 0.2
v 2.98023e-08 1.7 0.2
v 2.98023e-08 2.1 0.2
v 2.98023e-08 2.3 0.2
v -0.3 1.7 0
v -0.3 1.8 0
v -0.2 1.6 0
v -0.2 1.7 0
v -0.2 1.8 0
v -0.2 1.9 0
v -0.2 2.1 0
v 2.98023e-08 1.6 0
v 2.98023e-08 1.7 0
v 2.98023e-08 1.8 0
v 2.98023e-08 1.9 0
v 2.98023e-08 2.1 0
v 0.1 1.7 0
v 0.1 1.8 0
v -0.3 2.4 0.4
v -0.3 2.5 0.4
v -0.2 2.4 0.4
v -0.2 2.5 0.4
v 2.98023e-08 2.4 0.4
v 2.98023e-08 2.5 0.4
v 0.1 2.4 0.4
v 0.1 2.5 0.4
v -0.2 2.3 0.3
v -0.2 2.4 0.3
v 2.98023e-08 2.3 0.3
v 2.98023e-08 2.4 0.3
v -0.3 1.8 0.1
v -0.3 1.9 0.1
v -0.2 1.6 0.1
v -0.2 1.7 0.1
v -0.2 1.8 0.1
v -0.2 1.9 0.1
v -0.2 2.2 0.1
v -0.2 2.3 0.1
v 2.98023e-08 1.6 0.1
v 2.98023e-08 1.7 0.1
v 2.98023e-08 1.8 0.1
v 2.98023e-08 1.9 0.1
v 2.98023e-08 2.2 0.1
v 2.98023e-08 2.3 0.1
v 0.1 1.8 0.1
v 0.1 1.9 0.1
v -0.2 2.1 0
v -0.2 2.2 0
v 2.98023e-08 2.1 0
v 2.98023e-08 2.2 0
v -0.3 1.4 -0.1
v -0.3 1.5 -0.1
v -0.3 1.6 -0.1
v -0.3 1.7 -0.1
v -0.3 1.8 -0.1
v -0.2 1.6 -0.1
v -0.2 1.7 -0.1
v -0.2 1.8 -0.1
v -0.2 2.1 -0.1
v 2.98023e-08 1.6 -0.1
v 2.98023e-08 1.7 -0.1
v 2.98023e-08 1.8 -0.1
v 2.98023e-08 2.1 -0.1
v 0.1 1.4 -0.1
v 0.1 1.5 -0.1
v 0.1 1.6 -0.1
v 0.1 1.7 -0.1
v 0.1 1.8 -0.1
v -0.3 1.4 0.3
v 0.1 1.4 0.3
v -0.3 1.4 -0.1
v 0.1 1.4 -0.1
v -0.3 1.7 0
v -0.2 1.7 0
v 2.98023e-08 1.7 0
v 0.1 1.7 0
v -0.3 1.7 -0.1
v -0.2 1.7 -0.1
v 2.98023e-08 1.7 -0.1
v 0.1 1.7 -0.1
v -0.2 1.8 0.4
v 2.98023e-08 1.8 0.4
v -0.3 1.8 0.3
v -0.2 1.8 0.3
v 2.98023e-08 1.8 0.3
v 0.1 1.8 0.3
v -0.3 1.8 0.1
v -0.2 1.8 0.1
v 2.98023e-08 1.8 0.1
v 0.1 1.8 0.1
v -0.2 1.8 0
v 2.98023e-08 1.8 0
v -0.2 2.1 0.2
v 2.98023e-08 2.1 0.2
v -0.2 2.1 0
v 2.98023e-08 2.1 0
v -0.2 2.3 0.4
v 2.98023e-08 2.3 0.4
v -0.2 2.3 0.3
v 2.98023e-08 2.3 0.3
v -0.3 2.4 0.5
v -0.2 2.4 0.5
v 2.98023e-08 2.4 0.5
v 0.1 2.4 0.5
v -0.3 2.4 0.4
v -0.2 2.4 0.4
v 2.98023e-08 2.4 0.4
v 0.1 2.4 0.4
v -0.3 1.6 0.3
v 0.1 1.6 0.3
v -0.2 1.6 0.2
v 2.98023e-08 1.6 0.2
v -0.2 1.6 0.1
v 2.98023e-08 1.6 0.1
v -0.2 1.6 0
v 2.98023e-08 1.6 0
v -0.3 1.6 -0.1
v -0.2 1.6 -0.1
v 2.98023e-08 1.6 -0.1
v 0.1 1.6 -0.1
v -0.2 1.7 0.2
v 2.98023e-08 1.7 0.2
v -0.2 1.7 0.1
v 2.98023e-08 1.7 0.1
v -0.3 1.8 0
v -0.2 1.8 0
v 2.98023e-08 1.8 0
v 0.1 1.8 0
v -0.3 1.8 -0.1
v -0.2 1.8 -0.1
v 2.98023e-08 1.8 -0.1
v 0.1 1.8 -0.1
v -0.2 1.9 0.4
v 2.98023e-08 1.9 0.4
v -0.3 1.9 0.3
v -0.2 1.9 0.3
v 2.98023e-08 1.9 0.3
v 0.1 1.9 0.3
v -0.3 1.9 0.1
v -0.2 1.9 0.1
v 2.98023e-08 1.9 0.1
v 0.1 1.9 0.1
v -0.2 1.9 0
v 2.98023e-08 1.9 0
v -0.2 2.1 0
v 2.98023e-08 2.1 0
v -0.2 2.1 -0.1
v 2.98023e-08 2.1 -0.1
v -0.2 2.2 0.1
v 2.98023e-08 2.2 0.1
v -0.2 2.2 0
v 2.98023e-08 2.2 0
v -0.2 2.3 0.2
v 2.98023e-08 2.3 0.2
v -0.2 2.3 0.1
v 2.98023e-08 2.3 0.1
v -0.2 2.4 0.4
v 2.98023e-08 2.4 0.4
v -0.2 2.4 0.3
v 2.98023e-08 2.4 0.3
v -0.3 2.5 0.5
v -0.2 2.5 0.5
v 2.98023e-08 2.5 0.5
v 0.1 2.5 0.5
v -0.3 2.5 0.4
v -0.2 2.5 0.4
v 2.98023e-08 2.5 0.4
v 0.1 2.5 0.4

# faces
f 3/1/1 2/1/1 1/1/1
f 4/1/1 2/1/1 3/1/1
f 5/2/1 4/2/1 3/2/1
f 6/2/1 4/2/1 5/2/1
f 11/1/1 8/1/1 7/1/1
f 12/1/1 8/1/1 11/1/1
f 13/1/1 10/1/1 9/1/1
f 14/1/1 10/1/1 13/1/1
f 17/1/1 16/1/1 15/1/1
f 18/1/1 16/1/1 17/1/1
f 23/1/1 20/1/1 19/1/1
f 24/1/1 20/1/1 23/1/1
f 25/2/1 22/2/1 21/2/1
f 26/2/1 22/2/1 25/2/1
f 32/1/1 28/1/1 27/1/1
f 33/1/1 28/1/1 32/1/1
f 34/1/1 30/1/1 29/1/1
f 35/2/1 31/2/1 30/2/1
f 35/1/1 30/1/1 34/1/1
f 37/2/1 31/2/1 35/2/1
f 38/2/1 31/2/1 37/2/1
f 39/2/1 37/2/1 36/2/1
f 40/2/1 37/2/1 39/2/1
f 43/2/1 39/2/1 36/2/1
f 44/2/1 39/2/1 43/2/1
f 45/1/1 42/1/1 41/1/1
f 46/1/1 42/1/1 45/1/1
f 49/1/1 48/1/1 47/1/1
f 50/1/1 48/1/1 49/1/1
f 51/1/2 52/1/2 53/1/2
f 53/1/2 52/1/2 54/1/2
f 55/1/2 56/1/2 59/1/2
f 59/1/2 56/1/2 60/1/2
f 57/2/2 58/2/2 61/2/2
f 61/2/2 58/2/2 62/2/2
f 63/1/2 64/1/2 68/1/2
f 68/1/2 64/1/2 69/1/2
f 65/1/2 66/1/2 70/1/2
f 66/2/2 67/2/2 71/2/2
f 70/1/2 66/1/2 71/1/2
f 71/2/2 67/2/2 73/2/2
f 73/2/2 67/2/2 74/2/2
f 72/2/2 73/2/2 75/2/2
f 75/2/2 73/2/2 76/2/2
f 72/2/2 75/2/2 79/2/2
f 79/2/2 75/2/2 80/2/2
f 77/1/2 78/1/2 81/1/2
f 81/1/2 78/1/2 82/1/2
f 83/1/2 84/1/2 85/1/2
f 85/1/2 84/1/2 86/1/2
f 85/2/2 86/2/2 87/2/2
f 87/2/2 86/2/2 88/2/2
f 89/1/2 90/1/2 93/1/2
f 93/1/2 90/1/2 94/1/2
f 91/1/2 92/1/2 95/1/2
f 95/1/2 92/1/2 96/1/2
f 97/1/2 98/1/2 99/1/2
f 99/1/2 98/1/2 100/1/2
f 103/1/3 102/1/3 101/1/3
f 104/1/3 102/1/3 103/1/3
f 107/1/3 106/1/3 105/1/3
f 108/1/3 106/1/3 107/1/3
f 113/1/3 110/1/3 109/1/3
f 114/1/3 110/1/3 113/1/3
f 115/1/3 112/1/3 111/1/3
f 116/1/3 112/1/3 115/1/3
f 122/1/3 121/1/3 120/1/3
f 123/1/3 121/1/3 122/1/3
f 126/1/3 118/1/3 117/1/3
f 127/2/3 119/2/3 118/2/3
f 127/1/3 118/1/3 126/1/3
f 128/2/3 119/2/3 127/2/3
f 129/1/3 125/1/3 124/1/3
f 130/1/3 125/1/3 129/1/3
f 135/1/3 132/1/3 131/1/3
f 136/1/3 132/1/3 135/1/3
f 137/2/3 134/2/3 133/2/3
f 138/2/3 134/2/3 137/2/3
f 142/1/3 140/1/3 139/1/3
f 143/1/3 140/1/3 142/1/3
f 146/2/3 142/2/3 141/2/3
f 146/2/3 143/2/3 142/2/3
f 147/2/3 143/2/3 146/2/3
f 148/2/3 143/2/3 147/2/3
f 149/2/3 145/2/3 144/2/3
f 150/2/3 145/2/3 149/2/3
f 151/1/3 148/1/3 147/1/3
f 152/1/3 148/1/3 151/1/3
f 153/1/4 154/1/4 155/1/4
f 155/1/4 154/1/4 156/1/4
f 157/1/4 158/1/4 159/1/4
f 159/1/4 158/1/4 160/1/4
f 161/1/4 162/1/4 163/1/4
f 163/1/4 162/1/4 164/1/4
f 165/1/4 166/1/4 169/1/4
f 169/1/4 166/1/4 170/1/4
f 167/1/4 168/1/4 173/1/4
f 173/1/4 168/1/4 174/1/4
f 171/2/4 172/2/4 177/2/4
f 177/2/4 172/2/4 178/2/4
f 175/1/4 176/1/4 179/1/4
f 179/1/4 176/1/4 180/1/4
f 181/2/4 182/2/4 183/2/4
f 183/2/4 182/2/4 184/2/4
f 186/2/4 187/2/4 190/2/4
f 188/1/4 189/1/4 191/1/4
f 191/1/4 189/1/4 192/1/4
f 186/2/4 190/2/4 194/2/4
f 192/2/4 193/2/4 194/2/4
f 191/2/4 192/2/4 194/2/4
f 190/2/4 191/2/4 194/2/4
f 194/2/4 193/2/4 195/2/4
f 195/2/4 193/2/4 196/2/4
f 196/2/4 193/2/4 197/2/4
f 185/1/4 186/1/4 198/1/4
f 186/2/4 194/2/4 199/2/4
f 198/1/4 186/1/4 199/1/4
f 199/2/4 194/2/4 200/2/4
f 195/1/4 196/1/4 201/1/4
f 201/1/4 196/1/4 202/1/4
f 205/1/5 204/1/5 203/1/5
f 206/1/5 204/1/5 205/1/5
f 211/1/5 208/1/5 207/1/5
f 212/1/5 208/1/5 211/1/5
f 213/1/5 210/1/5 209/1/5
f 214/1/5 210/1/5 213/1/5
f 218/1/5 216/1/5 215/1/5
f 219/1/5 216/1/5 218/1/5
f 221/1/5 218/1/5 217/1/5
f 221/1/5 220/1/5 219/1/5
f 221/1/5 219/1/5 218/1/5
f 222/1/5 220/1/5 221/1/5
f 223/1/5 220/1/5 222/1/5
f 224/1/5 220/1/5 223/1/5
f 225/1/5 223/1/5 222/1/5
f 226/1/5 223/1/5 225/1/5
f 229/2/5 228/2/5 227/2/5
f 230/2/5 228/2/5 229/2/5
f 233/1/5 232/1/5 231/1/5
f 234/1/5 232/1/5 233/1/5
f 239/1/5 236/1/5 235/1/5
f 240/1/5 236/1/5 239/1/5
f 241/1/5 238/1/5 237/1/5
f 242/1/5 238/1/5 241/1/5
f 243/2/6 244/2/6 245/2/6
f 245/2/6 244/2/6 246/2/6
f 243/2/6 245/2/6 247/2/6
f 246/2/6 244/2/6 248/2/6
f 243/2/6 247/2/6 249/2/6
f 247/2/6 248/2/6 249/2/6
f 248/2/6 244/2/6 250/2/6
f 249/2/6 248/2/6 250/2/6
f 243/2/6 249/2/6 251/2/6
f 251/2/6 249/2/6 252/2/6
f 250/2/6 244/2/6 253/2/6
f 253/2/6 244/2/6 254/2/6
f 255/1/6 256/1/6 257/1/6
f 257/1/6 256/1/6 258/1/6
f 259/1/6 260/1/6 263/1/6
f 263/1/6 260/1/6 264/1/6
f 261/1/6 262/1/6 265/1/6
f 265/1/6 262/1/6 266/1/6
f 267/1/6 268/1/6 270/1/6
f 270/1/6 268/1/6 271/1/6
f 269/1/6 270/1/6 273/1/6
f 271/1/6 272/1/6 273/1/6
f 270/1/6 271/1/6 273/1/6
f 273/1/6 272/1/6 274/1/6
f 274/1/6 272/1/6 275/1/6
f 275/1/6 272/1/6 276/1/6
f 274/1/6 275/1/6 277/1/6
f 277/1/6 275/1/6 278/1/6
f 279/2/6 280/2/6 281/2/6
f 281/2/6 280/2/6 282/2/6
f 283/2/6 284/2/6 285/2/6
f 285/2/6 284/2/6 286/2/6
f 287/2/6 288/2/6 289/2/6
f 289/2/6 288/2/6 290/2/6
f 291/1/6 292/1/6 293/1/6
f 293/1/6 292/1/6 294/1/6
f 295/1/6 296/1/6 299/1/6
f 299/1/6 296/1/6 300/1/6
f 297/1/6 298/1/6 301/1/6
f 301/1/6 298/1/6 302/1/6
