# MagicaVoxel @ Ephtracy

# group
o 

# material
mtllib pottedPlant.mtl
usemtl palette

# normals
vn -1 0 0
vn 1 0 0
vn 0 0 1
vn 0 0 -1
vn 0 -1 0
vn 0 1 0

# texcoords
vt 0.166016 0.5
vt 0.197266 0.5
vt 0.224609 0.5
vt 0.228516 0.5
vt 0.259766 0.5
vt 0.287109 0.5
vt 0.291016 0.5
vt 0.318359 0.5
vt 0.322266 0.5
vt 0.349609 0.5
vt 0.353516 0.5
vt 0.365234 0.5

# verts
v -1.2 1.6 -0.4
v -1.2 1.6 -0.5
v -1.2 1.7 -0.4
v -1.2 1.7 -0.5
v -1.1 1.5 -0.4
v -1.1 1.5 -0.5
v -1.1 1.6 -0.4
v -1.1 1.6 -0.5
v -1.1 2 -0.4
v -1.1 2 -0.5
v -1.1 2.1 -0.4
v -1.1 2.1 -0.5
v -1 0.2 0.2
v -1 0.2 -1.1
v -1 0.4 -0.3
v -1 0.4 -0.6
v -1 0.5 -5.96046e-08
v -1 0.5 -0.3
v -1 0.5 -0.6
v -1 0.5 -0.9
v -1 0.6 -5.96046e-08
v -1 0.6 -0.3
v -1 0.6 -0.6
v -1 0.6 -0.9
v -1 0.7 -0.3
v -1 0.7 -0.6
v -1 0.9 0.2
v -1 0.9 -1.1
v -1 1 0.2
v -1 1 -1.1
v -1 1.1 0.2
v -1 1.1 -1.1
v -1 1.8 -0.4
v -1 1.8 -0.5
v -1 1.9 -0.4
v -1 1.9 -0.5
v -1 2 -0.4
v -1 2 -0.5
v -0.9 0 0.0999999
v -0.9 0 -1
v -0.9 0.2 0.0999999
v -0.9 0.2 -1
v -0.9 1.6 -0.4
v -0.9 1.6 -0.5
v -0.9 1.8 -0.4
v -0.9 1.8 -0.5
v -0.8 1.4 -0.4
v -0.8 1.4 -0.5
v -0.8 1.5 -0.4
v -0.8 1.5 -0.5
v -0.7 1 -0.4
v -0.7 1 -0.5
v -0.7 1.1 -0.4
v -0.7 1.1 -0.5
v -0.7 1.2 -0.4
v -0.7 1.2 -0.5
v -0.7 1.4 -0.4
v -0.7 1.4 -0.5
v -0.5 1 -0.4
v -0.5 1 -0.5
v -0.5 1 -0.6
v -0.5 1 -0.7
v -0.5 1.1 -0.4
v -0.5 1.1 -0.5
v -0.5 1.1 -0.6
v -0.5 1.1 -0.7
v -0.5 1.2 -0.6
v -0.5 1.2 -0.7
v -0.5 1.3 -0.4
v -0.5 1.3 -0.5
v -0.5 1.4 -0.7
v -0.5 1.4 -0.8
v -0.5 1.5 -0.4
v -0.5 1.5 -0.5
v -0.5 1.5 -0.6
v -0.5 1.5 -0.7
v -0.5 1.6 -0.6
v -0.5 1.6 -0.7
v -0.5 1.6 -0.8
v -0.5 1.6 -0.9
v -0.5 1.7 -0.6
v -0.5 1.7 -0.7
v -0.5 1.7 -0.8
v -0.5 1.7 -0.9
v -0.5 1.8 -0.7
v -0.5 1.8 -0.8
v -0.5 1.8 -0.9
v -0.5 1.8 -1
v -0.5 1.9 -0.4
v -0.5 1.9 -0.5
v -0.5 1.9 -0.7
v -0.5 1.9 -0.8
v -0.5 1.9 -0.9
v -0.5 1.9 -1
v -0.5 2 -0.8
v -0.5 2 -0.9
v -0.5 2 -1
v -0.5 2 -1.1
v -0.5 2.1 -0.9
v -0.5 2.1 -1.1
v -0.5 2.2 -0.4
v -0.5 2.2 -0.5
v -0.5 2.4 -0.4
v -0.5 2.4 -0.5
v -0.4 1 -0.2
v -0.4 1 -0.3
v -0.4 1.1 -0.2
v -0.4 1.1 -0.3
v -0.4 1.2 -0.2
v -0.4 1.2 -0.3
v -0.4 1.3 0.2
v -0.4 1.3 -5.96046e-08
v -0.4 1.3 -0.1
v -0.4 1.3 -0.2
v -0.4 1.4 0.2
v -0.4 1.4 0.0999999
v -0.4 1.4 -5.96046e-08
v -0.4 1.4 -0.1
v -0.4 1.4 -0.2
v -0.4 1.4 -0.3
v -0.4 1.5 0.0999999
v -0.4 1.5 -0.1
v -0.4 1.5 -0.2
v -0.4 1.6 -5.96046e-08
v -0.4 1.6 -0.1
v -0.4 1.6 -0.3
v -0.4 1.7 0.0999999
v -0.4 1.7 -5.96046e-08
v -0.4 1.7 -0.1
v -0.4 1.7 -0.2
v -0.4 1.7 -0.3
v -0.4 1.8 0.0999999
v -0.4 1.8 -5.96046e-08
v -0.4 1.8 -0.1
v -0.4 1.8 -0.2
v -0.4 1.9 0.2
v -0.4 1.9 0.0999999
v -0.4 1.9 -5.96046e-08
v -0.4 1.9 -0.1
v -0.4 2 0.2
v -0.4 2 -5.96046e-08
v -0.4 2.4 -0.4
v -0.4 2.4 -0.5
v -0.4 2.6 -0.4
v -0.4 2.6 -0.5
v -0.2 1 -0.4
v -0.2 1 -0.5
v -0.2 1.1 -0.4
v -0.2 1.1 -0.5
v -0.2 1.2 -0.4
v -0.2 1.2 -0.5
v -0.2 1.5 -0.4
v -0.2 1.5 -0.5
v -0.2 1.7 -0.4
v -0.2 1.7 -0.5
v -0.2 1.9 -0.4
v -0.2 1.9 -0.5
v -0.2 2.2 -0.4
v -0.2 2.2 -0.5
v -0.0999999 2.2 -0.4
v -0.0999999 2.2 -0.5
v -0.0999999 2.3 -0.4
v -0.0999999 2.3 -0.5
v 1.19209e-07 2.3 -0.4
v 1.19209e-07 2.3 -0.5
v 1.19209e-07 2.4 -0.4
v 1.19209e-07 2.4 -0.5
v 0.1 1.9 -0.4
v 0.1 1.9 -0.5
v 0.1 2 -0.4
v 0.1 2 -0.5
v 0.2 1 0.0999999
v 0.2 1 -1
v 0.2 1.1 0.0999999
v 0.2 1.1 -1
v -1 1.6 -0.4
v -1 1.6 -0.5
v -1 1.7 -0.4
v -1 1.7 -0.5
v -0.9 1 0.0999999
v -0.9 1 -1
v -0.9 1.1 0.0999999
v -0.9 1.1 -1
v -0.9 1.9 -0.4
v -0.9 1.9 -0.5
v -0.9 2 -0.4
v -0.9 2 -0.5
v -0.9 2.1 -0.4
v -0.9 2.1 -0.5
v -0.8 1.8 -0.4
v -0.8 1.8 -0.5
v -0.8 1.9 -0.4
v -0.8 1.9 -0.5
v -0.7 1.6 -0.4
v -0.7 1.6 -0.5
v -0.7 1.7 -0.4
v -0.7 1.7 -0.5
v -0.7 1.8 -0.4
v -0.7 1.8 -0.5
v -0.6 1 -0.4
v -0.6 1 -0.5
v -0.6 1.1 -0.4
v -0.6 1.1 -0.5
v -0.6 1.2 -0.4
v -0.6 1.2 -0.5
v -0.6 1.4 -0.4
v -0.6 1.4 -0.5
v -0.6 1.6 -0.4
v -0.6 1.6 -0.5
v -0.4 1 -0.6
v -0.4 1 -0.7
v -0.4 1.1 -0.6
v -0.4 1.1 -0.7
v -0.4 1.2 -0.6
v -0.4 1.2 -0.7
v -0.4 1.4 -0.7
v -0.4 1.4 -0.8
v -0.4 1.5 -0.6
v -0.4 1.5 -0.7
v -0.4 1.6 -0.6
v -0.4 1.6 -0.7
v -0.4 1.6 -0.8
v -0.4 1.6 -0.9
v -0.4 1.7 -0.6
v -0.4 1.7 -0.7
v -0.4 1.7 -0.8
v -0.4 1.7 -0.9
v -0.4 1.8 -0.7
v -0.4 1.8 -0.8
v -0.4 1.8 -0.9
v -0.4 1.8 -1
v -0.4 1.9 -0.7
v -0.4 1.9 -0.8
v -0.4 1.9 -0.9
v -0.4 1.9 -1
v -0.4 2 -0.8
v -0.4 2 -0.9
v -0.4 2 -1
v -0.4 2 -1.1
v -0.4 2.1 -0.9
v -0.4 2.1 -1.1
v -0.3 1 -0.2
v -0.3 1 -0.3
v -0.3 1 -0.4
v -0.3 1 -0.5
v -0.3 1.1 -0.2
v -0.3 1.1 -0.3
v -0.3 1.1 -0.4
v -0.3 1.1 -0.5
v -0.3 1.2 -0.2
v -0.3 1.2 -0.3
v -0.3 1.2 -0.4
v -0.3 1.2 -0.5
v -0.3 1.3 0.2
v -0.3 1.3 -5.96046e-08
v -0.3 1.3 -0.1
v -0.3 1.3 -0.2
v -0.3 1.4 0.2
v -0.3 1.4 0.0999999
v -0.3 1.4 -5.96046e-08
v -0.3 1.4 -0.1
v -0.3 1.4 -0.2
v -0.3 1.4 -0.3
v -0.3 1.5 0.0999999
v -0.3 1.5 -0.1
v -0.3 1.5 -0.2
v -0.3 1.6 -5.96046e-08
v -0.3 1.6 -0.1
v -0.3 1.6 -0.3
v -0.3 1.6 -0.4
v -0.3 1.6 -0.5
v -0.3 1.7 0.0999999
v -0.3 1.7 -5.96046e-08
v -0.3 1.7 -0.1
v -0.3 1.7 -0.2
v -0.3 1.7 -0.3
v -0.3 1.8 0.0999999
v -0.3 1.8 -5.96046e-08
v -0.3 1.8 -0.1
v -0.3 1.8 -0.2
v -0.3 1.8 -0.4
v -0.3 1.8 -0.5
v -0.3 1.9 0.2
v -0.3 1.9 0.0999999
v -0.3 1.9 -5.96046e-08
v -0.3 1.9 -0.1
v -0.3 2 0.2
v -0.3 2 -5.96046e-08
v -0.3 2.1 -0.4
v -0.3 2.1 -0.5
v -0.3 2.6 -0.4
v -0.3 2.6 -0.5
v -0.0999999 1 -0.4
v -0.0999999 1 -0.5
v -0.0999999 1.1 -0.4
v -0.0999999 1.1 -0.5
v -0.0999999 1.2 -0.4
v -0.0999999 1.2 -0.5
v -0.0999999 1.5 -0.4
v -0.0999999 1.5 -0.5
v -0.0999999 1.6 -0.4
v -0.0999999 1.6 -0.5
v 1.19209e-07 1.6 -0.4
v 1.19209e-07 1.6 -0.5
v 1.19209e-07 1.7 -0.4
v 1.19209e-07 1.7 -0.5
v 1.19209e-07 1.9 -0.4
v 1.19209e-07 1.9 -0.5
v 1.19209e-07 2.1 -0.4
v 1.19209e-07 2.1 -0.5
v 0.1 1.7 -0.4
v 0.1 1.7 -0.5
v 0.1 1.8 -0.4
v 0.1 1.8 -0.5
v 0.1 2.1 -0.4
v 0.1 2.1 -0.5
v 0.1 2.2 -0.4
v 0.1 2.2 -0.5
v 0.1 2.3 -0.4
v 0.1 2.3 -0.5
v 0.2 0 0.0999999
v 0.2 0 -1
v 0.2 0.2 0.0999999
v 0.2 0.2 -1
v 0.2 1.8 -0.4
v 0.2 1.8 -0.5
v 0.2 1.9 -0.4
v 0.2 1.9 -0.5
v 0.2 2.3 -0.4
v 0.2 2.3 -0.5
v 0.2 2.4 -0.4
v 0.2 2.4 -0.5
v 0.3 0.2 0.2
v 0.3 0.2 -1.1
v 0.3 0.4 -0.3
v 0.3 0.4 -0.6
v 0.3 0.5 -5.96046e-08
v 0.3 0.5 -0.3
v 0.3 0.5 -0.6
v 0.3 0.5 -0.9
v 0.3 0.6 -5.96046e-08
v 0.3 0.6 -0.3
v 0.3 0.6 -0.6
v 0.3 0.6 -0.9
v 0.3 0.7 -0.3
v 0.3 0.7 -0.6
v 0.3 0.9 0.2
v 0.3 0.9 -1.1
v 0.3 1 0.2
v 0.3 1 -1.1
v 0.3 1.1 0.2
v 0.3 1.1 -1.1
v 0.3 1.9 -0.4
v 0.3 1.9 -0.5
v 0.3 2 -0.4
v 0.3 2 -0.5
v -1 0.2 0.2
v -1 0.9 0.2
v -1 1 0.2
v -1 1.1 0.2
v -0.8 0.5 0.2
v -0.8 0.6 0.2
v -0.5 0.4 0.2
v -0.5 0.5 0.2
v -0.5 0.6 0.2
v -0.5 0.7 0.2
v -0.4 1.3 0.2
v -0.4 1.4 0.2
v -0.4 1.9 0.2
v -0.4 2 0.2
v -0.3 1.3 0.2
v -0.3 1.4 0.2
v -0.3 1.9 0.2
v -0.3 2 0.2
v -0.2 0.4 0.2
v -0.2 0.5 0.2
v -0.2 0.6 0.2
v -0.2 0.7 0.2
v 0.1 0.5 0.2
v 0.1 0.6 0.2
v 0.3 0.2 0.2
v 0.3 0.9 0.2
v 0.3 1 0.2
v 0.3 1.1 0.2
v -0.9 0 0.0999999
v -0.9 0.2 0.0999999
v -0.4 1.4 0.0999999
v -0.4 1.5 0.0999999
v -0.4 1.7 0.0999999
v -0.4 1.8 0.0999999
v -0.4 1.9 0.0999999
v -0.3 1.4 0.0999999
v -0.3 1.5 0.0999999
v -0.3 1.7 0.0999999
v -0.3 1.8 0.0999999
v -0.3 1.9 0.0999999
v 0.2 0 0.0999999
v 0.2 0.2 0.0999999
v -0.4 1.6 -5.96046e-08
v -0.4 1.7 -5.96046e-08
v -0.3 1.6 -5.96046e-08
v -0.3 1.7 -5.96046e-08
v -0.4 1.3 -0.1
v -0.4 1.4 -0.1
v -0.4 1.5 -0.1
v -0.4 1.6 -0.1
v -0.3 1.3 -0.1
v -0.3 1.4 -0.1
v -0.3 1.5 -0.1
v -0.3 1.6 -0.1
v -0.4 1 -0.2
v -0.4 1.1 -0.2
v -0.4 1.2 -0.2
v -0.4 1.3 -0.2
v -0.3 1 -0.2
v -0.3 1.1 -0.2
v -0.3 1.2 -0.2
v -0.3 1.3 -0.2
v -1.2 1.6 -0.4
v -1.2 1.7 -0.4
v -1.1 1.5 -0.4
v -1.1 1.6 -0.4
v -1.1 2 -0.4
v -1.1 2.1 -0.4
v -1 1.6 -0.4
v -1 1.7 -0.4
v -1 1.8 -0.4
v -1 1.9 -0.4
v -1 2 -0.4
v -0.9 1.6 -0.4
v -0.9 1.8 -0.4
v -0.9 1.9 -0.4
v -0.9 2 -0.4
v -0.9 2.1 -0.4
v -0.8 1.4 -0.4
v -0.8 1.5 -0.4
v -0.8 1.6 -0.4
v -0.8 1.7 -0.4
v -0.8 1.8 -0.4
v -0.8 1.9 -0.4
v -0.7 1 -0.4
v -0.7 1.1 -0.4
v -0.7 1.2 -0.4
v -0.7 1.4 -0.4
v -0.7 1.5 -0.4
v -0.7 1.6 -0.4
v -0.7 1.7 -0.4
v -0.7 1.8 -0.4
v -0.6 1 -0.4
v -0.6 1.1 -0.4
v -0.6 1.2 -0.4
v -0.6 1.4 -0.4
v -0.6 1.6 -0.4
v -0.5 1 -0.4
v -0.5 1.1 -0.4
v -0.5 1.3 -0.4
v -0.5 1.5 -0.4
v -0.5 1.9 -0.4
v -0.5 2.2 -0.4
v -0.5 2.4 -0.4
v -0.4 1.2 -0.4
v -0.4 1.3 -0.4
v -0.4 1.5 -0.4
v -0.4 1.6 -0.4
v -0.4 1.8 -0.4
v -0.4 1.9 -0.4
v -0.4 2.1 -0.4
v -0.4 2.2 -0.4
v -0.4 2.4 -0.4
v -0.4 2.6 -0.4
v -0.3 1 -0.4
v -0.3 1.1 -0.4
v -0.3 1.2 -0.4
v -0.3 1.6 -0.4
v -0.3 1.8 -0.4
v -0.3 2.1 -0.4
v -0.3 2.6 -0.4
v -0.2 1 -0.4
v -0.2 1.1 -0.4
v -0.2 1.2 -0.4
v -0.2 1.5 -0.4
v -0.2 1.7 -0.4
v -0.2 1.9 -0.4
v -0.2 2.2 -0.4
v -0.0999999 1 -0.4
v -0.0999999 1.1 -0.4
v -0.0999999 1.2 -0.4
v -0.0999999 1.5 -0.4
v -0.0999999 1.6 -0.4
v -0.0999999 1.7 -0.4
v -0.0999999 1.8 -0.4
v -0.0999999 1.9 -0.4
v -0.0999999 2.1 -0.4
v -0.0999999 2.2 -0.4
v -0.0999999 2.3 -0.4
v 1.19209e-07 1.6 -0.4
v 1.19209e-07 1.7 -0.4
v 1.19209e-07 1.9 -0.4
v 1.19209e-07 2.1 -0.4
v 1.19209e-07 2.2 -0.4
v 1.19209e-07 2.3 -0.4
v 1.19209e-07 2.4 -0.4
v 0.1 1.7 -0.4
v 0.1 1.8 -0.4
v 0.1 1.9 -0.4
v 0.1 2 -0.4
v 0.1 2.1 -0.4
v 0.1 2.2 -0.4
v 0.1 2.3 -0.4
v 0.2 1.8 -0.4
v 0.2 1.9 -0.4
v 0.2 2 -0.4
v 0.2 2.3 -0.4
v 0.2 2.4 -0.4
v 0.3 1.9 -0.4
v 0.3 2 -0.4
v -0.5 1 -0.6
v -0.5 1.1 -0.6
v -0.5 1.2 -0.6
v -0.5 1.5 -0.6
v -0.5 1.6 -0.6
v -0.5 1.7 -0.6
v -0.4 1 -0.6
v -0.4 1.1 -0.6
v -0.4 1.2 -0.6
v -0.4 1.5 -0.6
v -0.4 1.6 -0.6
v -0.4 1.7 -0.6
v -0.5 1.7 -0.7
v -0.5 1.8 -0.7
v -0.5 1.9 -0.7
v -0.4 1.7 -0.7
v -0.4 1.8 -0.7
v -0.4 1.9 -0.7
v -0.5 1.9 -0.8
v -0.5 2 -0.8
v -0.4 1.9 -0.8
v -0.4 2 -0.8
v -0.5 2 -0.9
v -0.5 2.1 -0.9
v -0.4 2 -0.9
v -0.4 2.1 -0.9
v -0.9 1 -1
v -0.9 1.1 -1
v 0.2 1 -1
v 0.2 1.1 -1
v -0.9 1 0.0999999
v -0.9 1.1 0.0999999
v 0.2 1 0.0999999
v 0.2 1.1 0.0999999
v -0.4 1.3 -5.96046e-08
v -0.4 1.4 -5.96046e-08
v -0.4 1.9 -5.96046e-08
v -0.4 2 -5.96046e-08
v -0.3 1.3 -5.96046e-08
v -0.3 1.4 -5.96046e-08
v -0.3 1.9 -5.96046e-08
v -0.3 2 -5.96046e-08
v -0.4 1.8 -0.1
v -0.4 1.9 -0.1
v -0.3 1.8 -0.1
v -0.3 1.9 -0.1
v -0.4 1.7 -0.2
v -0.4 1.8 -0.2
v -0.3 1.7 -0.2
v -0.3 1.8 -0.2
v -0.4 1 -0.3
v -0.4 1.1 -0.3
v -0.4 1.2 -0.3
v -0.4 1.4 -0.3
v -0.4 1.6 -0.3
v -0.4 1.7 -0.3
v -0.3 1 -0.3
v -0.3 1.1 -0.3
v -0.3 1.2 -0.3
v -0.3 1.4 -0.3
v -0.3 1.6 -0.3
v -0.3 1.7 -0.3
v -1.2 1.6 -0.5
v -1.2 1.7 -0.5
v -1.1 1.5 -0.5
v -1.1 1.6 -0.5
v -1.1 2 -0.5
v -1.1 2.1 -0.5
v -1 1.6 -0.5
v -1 1.7 -0.5
v -1 1.8 -0.5
v -1 1.9 -0.5
v -1 2 -0.5
v -0.9 1.6 -0.5
v -0.9 1.8 -0.5
v -0.9 1.9 -0.5
v -0.9 2 -0.5
v -0.9 2.1 -0.5
v -0.8 1.4 -0.5
v -0.8 1.5 -0.5
v -0.8 1.6 -0.5
v -0.8 1.7 -0.5
v -0.8 1.8 -0.5
v -0.8 1.9 -0.5
v -0.7 1 -0.5
v -0.7 1.1 -0.5
v -0.7 1.2 -0.5
v -0.7 1.4 -0.5
v -0.7 1.5 -0.5
v -0.7 1.6 -0.5
v -0.7 1.7 -0.5
v -0.7 1.8 -0.5
v -0.6 1 -0.5
v -0.6 1.1 -0.5
v -0.6 1.2 -0.5
v -0.6 1.4 -0.5
v -0.6 1.6 -0.5
v -0.5 1 -0.5
v -0.5 1.1 -0.5
v -0.5 1.3 -0.5
v -0.5 1.5 -0.5
v -0.5 1.9 -0.5
v -0.5 2.2 -0.5
v -0.5 2.4 -0.5
v -0.4 1 -0.5
v -0.4 1.2 -0.5
v -0.4 1.3 -0.5
v -0.4 1.5 -0.5
v -0.4 1.6 -0.5
v -0.4 1.8 -0.5
v -0.4 1.9 -0.5
v -0.4 2.1 -0.5
v -0.4 2.2 -0.5
v -0.4 2.4 -0.5
v -0.4 2.6 -0.5
v -0.3 1 -0.5
v -0.3 1.1 -0.5
v -0.3 1.2 -0.5
v -0.3 1.6 -0.5
v -0.3 1.8 -0.5
v -0.3 2.1 -0.5
v -0.3 2.6 -0.5
v -0.2 1 -0.5
v -0.2 1.1 -0.5
v -0.2 1.2 -0.5
v -0.2 1.5 -0.5
v -0.2 1.7 -0.5
v -0.2 1.9 -0.5
v -0.2 2.2 -0.5
v -0.0999999 1 -0.5
v -0.0999999 1.1 -0.5
v -0.0999999 1.2 -0.5
v -0.0999999 1.5 -0.5
v -0.0999999 1.6 -0.5
v -0.0999999 1.7 -0.5
v -0.0999999 1.8 -0.5
v -0.0999999 1.9 -0.5
v -0.0999999 2.1 -0.5
v -0.0999999 2.2 -0.5
v -0.0999999 2.3 -0.5
v 1.19209e-07 1.6 -0.5
v 1.19209e-07 1.7 -0.5
v 1.19209e-07 1.9 -0.5
v 1.19209e-07 2.1 -0.5
v 1.19209e-07 2.2 -0.5
v 1.19209e-07 2.3 -0.5
v 1.19209e-07 2.4 -0.5
v 0.1 1.7 -0.5
v 0.1 1.8 -0.5
v 0.1 1.9 -0.5
v 0.1 2 -0.5
v 0.1 2.1 -0.5
v 0.1 2.2 -0.5
v 0.1 2.3 -0.5
v 0.2 1.8 -0.5
v 0.2 1.9 -0.5
v 0.2 2 -0.5
v 0.2 2.3 -0.5
v 0.2 2.4 -0.5
v 0.3 1.9 -0.5
v 0.3 2 -0.5
v -0.5 1 -0.7
v -0.5 1.1 -0.7
v -0.5 1.2 -0.7
v -0.5 1.4 -0.7
v -0.4 1 -0.7
v -0.4 1.1 -0.7
v -0.4 1.2 -0.7
v -0.4 1.4 -0.7
v -0.5 1.4 -0.8
v -0.5 1.6 -0.8
v -0.4 1.4 -0.8
v -0.4 1.6 -0.8
v -0.5 1.6 -0.9
v -0.5 1.7 -0.9
v -0.5 1.8 -0.9
v -0.4 1.6 -0.9
v -0.4 1.7 -0.9
v -0.4 1.8 -0.9
v -0.9 0 -1
v -0.9 0.2 -1
v -0.5 1.8 -1
v -0.5 1.9 -1
v -0.5 2 -1
v -0.4 1.8 -1
v -0.4 1.9 -1
v -0.4 2 -1
v 0.2 0 -1
v 0.2 0.2 -1
v -1 0.2 -1.1
v -1 0.9 -1.1
v -1 1 -1.1
v -1 1.1 -1.1
v -0.8 0.5 -1.1
v -0.8 0.6 -1.1
v -0.5 0.4 -1.1
v -0.5 0.5 -1.1
v -0.5 0.6 -1.1
v -0.5 0.7 -1.1
v -0.5 2 -1.1
v -0.5 2.1 -1.1
v -0.4 2 -1.1
v -0.4 2.1 -1.1
v -0.2 0.4 -1.1
v -0.2 0.5 -1.1
v -0.2 0.6 -1.1
v -0.2 0.7 -1.1
v 0.1 0.5 -1.1
v 0.1 0.6 -1.1
v 0.3 0.2 -1.1
v 0.3 0.9 -1.1
v 0.3 1 -1.1
v 0.3 1.1 -1.1
v -0.9 0 0.0999999
v 0.2 0 0.0999999
v -0.9 0 -1
v 0.2 0 -1
v -1 0.2 0.2
v 0.3 0.2 0.2
v -0.9 0.2 0.0999999
v 0.2 0.2 0.0999999
v -0.9 0.2 -1
v 0.2 0.2 -1
v -1 0.2 -1.1
v 0.3 0.2 -1.1
v -0.4 1.3 0.2
v -0.3 1.3 0.2
v -0.4 1.3 -5.96046e-08
v -0.3 1.3 -5.96046e-08
v -0.4 1.3 -0.1
v -0.3 1.3 -0.1
v -0.4 1.3 -0.2
v -0.3 1.3 -0.2
v -0.4 1.4 -5.96046e-08
v -0.3 1.4 -5.96046e-08
v -0.4 1.4 -0.1
v -0.3 1.4 -0.1
v -0.8 1.4 -0.4
v -0.7 1.4 -0.4
v -0.8 1.4 -0.5
v -0.7 1.4 -0.5
v -0.5 1.4 -0.7
v -0.4 1.4 -0.7
v -0.5 1.4 -0.8
v -0.4 1.4 -0.8
v -1.1 1.5 -0.4
v -0.8 1.5 -0.4
v -1.1 1.5 -0.5
v -0.8 1.5 -0.5
v -0.4 1.6 -5.96046e-08
v -0.3 1.6 -5.96046e-08
v -0.4 1.6 -0.1
v -0.3 1.6 -0.1
v -1.2 1.6 -0.4
v -1.1 1.6 -0.4
v -0.0999999 1.6 -0.4
v 1.19209e-07 1.6 -0.4
v -1.2 1.6 -0.5
v -1.1 1.6 -0.5
v -0.0999999 1.6 -0.5
v 1.19209e-07 1.6 -0.5
v -0.5 1.6 -0.8
v -0.4 1.6 -0.8
v -0.5 1.6 -0.9
v -0.4 1.6 -0.9
v -0.4 1.7 0.0999999
v -0.3 1.7 0.0999999
v -0.4 1.7 -5.96046e-08
v -0.3 1.7 -5.96046e-08
v 1.19209e-07 1.7 -0.4
v 0.1 1.7 -0.4
v 1.19209e-07 1.7 -0.5
v 0.1 1.7 -0.5
v -1 1.8 -0.4
v -0.9 1.8 -0.4
v 0.1 1.8 -0.4
v 0.2 1.8 -0.4
v -1 1.8 -0.5
v -0.9 1.8 -0.5
v 0.1 1.8 -0.5
v 0.2 1.8 -0.5
v -0.5 1.8 -0.9
v -0.4 1.8 -0.9
v -0.5 1.8 -1
v -0.4 1.8 -1
v -0.4 1.9 0.2
v -0.3 1.9 0.2
v -0.4 1.9 0.0999999
v -0.3 1.9 0.0999999
v 0.2 1.9 -0.4
v 0.3 1.9 -0.4
v 0.2 1.9 -0.5
v 0.3 1.9 -0.5
v -1.1 2 -0.4
v -1 2 -0.4
v -1.1 2 -0.5
v -1 2 -0.5
v -0.5 2 -1
v -0.4 2 -1
v -0.5 2 -1.1
v -0.4 2 -1.1
v 1.19209e-07 2.1 -0.4
v 0.1 2.1 -0.4
v 1.19209e-07 2.1 -0.5
v 0.1 2.1 -0.5
v 0.1 2.3 -0.4
v 0.2 2.3 -0.4
v 0.1 2.3 -0.5
v 0.2 2.3 -0.5
v -0.9 1 0.0999999
v 0.2 1 0.0999999
v -0.7 1 -5.96046e-08
v -0.6 1 -5.96046e-08
v 1.19209e-07 1 -5.96046e-08
v 0.1 1 -5.96046e-08
v -0.8 1 -0.1
v -0.7 1 -0.1
v -0.3 1 -0.1
v -0.2 1 -0.1
v -0.8 1 -0.2
v -0.6 1 -0.2
v -0.4 1 -0.2
v -0.3 1 -0.2
v -0.2 1 -0.2
v 1.19209e-07 1 -0.2
v 0.1 1 -0.2
v -0.4 1 -0.3
v -0.3 1 -0.3
v -0.7 1 -0.4
v -0.6 1 -0.4
v -0.5 1 -0.4
v -0.3 1 -0.4
v -0.2 1 -0.4
v -0.0999999 1 -0.4
v -0.7 1 -0.5
v -0.6 1 -0.5
v -0.5 1 -0.5
v -0.4 1 -0.5
v -0.3 1 -0.5
v -0.2 1 -0.5
v -0.0999999 1 -0.5
v -0.8 1 -0.6
v -0.7 1 -0.6
v -0.5 1 -0.6
v -0.4 1 -0.6
v -0.8 1 -0.7
v -0.7 1 -0.7
v -0.5 1 -0.7
v -0.4 1 -0.7
v -0.0999999 1 -0.7
v 1.19209e-07 1 -0.7
v -0.8 1 -0.8
v -0.7 1 -0.8
v -0.5 1 -0.8
v -0.3 1 -0.8
v -0.0999999 1 -0.8
v 1.19209e-07 1 -0.8
v 0.1 1 -0.8
v -0.8 1 -0.9
v -0.7 1 -0.9
v -0.5 1 -0.9
v -0.3 1 -0.9
v 1.19209e-07 1 -0.9
v 0.1 1 -0.9
v -0.9 1 -1
v 0.2 1 -1
v -1 1.1 0.2
v 0.3 1.1 0.2
v -0.9 1.1 0.0999999
v 0.2 1.1 0.0999999
v -0.9 1.1 -1
v 0.2 1.1 -1
v -1 1.1 -1.1
v 0.3 1.1 -1.1
v -0.4 1.4 0.2
v -0.3 1.4 0.2
v -0.4 1.4 0.0999999
v -0.3 1.4 0.0999999
v -0.4 1.5 0.0999999
v -0.3 1.5 0.0999999
v -0.4 1.5 -0.1
v -0.3 1.5 -0.1
v -1 1.6 -0.4
v -0.9 1.6 -0.4
v -0.7 1.6 -0.4
v -0.6 1.6 -0.4
v -1 1.6 -0.5
v -0.9 1.6 -0.5
v -0.7 1.6 -0.5
v -0.6 1.6 -0.5
v -0.4 1.7 -0.2
v -0.3 1.7 -0.2
v -0.4 1.7 -0.3
v -0.3 1.7 -0.3
v -1.2 1.7 -0.4
v -1 1.7 -0.4
v -1.2 1.7 -0.5
v -1 1.7 -0.5
v -0.5 1.7 -0.6
v -0.4 1.7 -0.6
v -0.5 1.7 -0.7
v -0.4 1.7 -0.7
v -0.4 1.8 -0.1
v -0.3 1.8 -0.1
v -0.4 1.8 -0.2
v -0.3 1.8 -0.2
v -0.8 1.8 -0.4
v -0.7 1.8 -0.4
v -0.8 1.8 -0.5
v -0.7 1.8 -0.5
v -0.4 1.9 -5.96046e-08
v -0.3 1.9 -5.96046e-08
v -0.4 1.9 -0.1
v -0.3 1.9 -0.1
v -0.9 1.9 -0.4
v -0.8 1.9 -0.4
v 1.19209e-07 1.9 -0.4
v 0.1 1.9 -0.4
v -0.9 1.9 -0.5
v -0.8 1.9 -0.5
v 1.19209e-07 1.9 -0.5
v 0.1 1.9 -0.5
v -0.5 1.9 -0.7
v -0.4 1.9 -0.7
v -0.5 1.9 -0.8
v -0.4 1.9 -0.8
v -0.4 2 0.2
v -0.3 2 0.2
v -0.4 2 -5.96046e-08
v -0.3 2 -5.96046e-08
v 0.1 2 -0.4
v 0.2 2 -0.4
v 0.3 2 -0.4
v 0.1 2 -0.5
v 0.2 2 -0.5
v 0.3 2 -0.5
v -0.5 2 -0.8
v -0.4 2 -0.8
v -0.5 2 -0.9
v -0.4 2 -0.9
v -1.1 2.1 -0.4
v -0.9 2.1 -0.4
v -1.1 2.1 -0.5
v -0.9 2.1 -0.5
v -0.5 2.1 -0.9
v -0.4 2.1 -0.9
v -0.5 2.1 -1.1
v -0.4 2.1 -1.1
v -0.2 2.2 -0.4
v -0.0999999 2.2 -0.4
v -0.2 2.2 -0.5
v -0.0999999 2.2 -0.5
v -0.0999999 2.3 -0.4
v 1.19209e-07 2.3 -0.4
v -0.0999999 2.3 -0.5
v 1.19209e-07 2.3 -0.5
v -0.5 2.4 -0.4
v -0.4 2.4 -0.4
v 1.19209e-07 2.4 -0.4
v 0.2 2.4 -0.4
v -0.5 2.4 -0.5
v -0.4 2.4 -0.5
v 1.19209e-07 2.4 -0.5
v 0.2 2.4 -0.5
v -0.4 2.6 -0.4
v -0.3 2.6 -0.4
v -0.4 2.6 -0.5
v -0.3 2.6 -0.5

# faces
f 3/4/1 2/4/1 1/4/1
f 4/4/1 2/4/1 3/4/1
f 7/4/1 6/4/1 5/4/1
f 8/4/1 6/4/1 7/4/1
f 11/9/1 10/9/1 9/9/1
f 12/9/1 10/9/1 11/9/1
f 15/12/1 14/12/1 13/12/1
f 16/12/1 14/12/1 15/12/1
f 17/12/1 15/12/1 13/12/1
f 18/11/1 16/11/1 15/11/1
f 18/12/1 15/12/1 17/12/1
f 19/12/1 14/12/1 16/12/1
f 19/11/1 16/11/1 18/11/1
f 20/12/1 14/12/1 19/12/1
f 21/11/1 18/11/1 17/11/1
f 21/12/1 17/12/1 13/12/1
f 21/11/1 20/11/1 19/11/1
f 21/11/1 19/11/1 18/11/1
f 22/11/1 20/11/1 21/11/1
f 23/11/1 20/11/1 22/11/1
f 24/12/1 14/12/1 20/12/1
f 24/11/1 20/11/1 23/11/1
f 25/11/1 23/11/1 22/11/1
f 25/12/1 22/12/1 21/12/1
f 26/12/1 24/12/1 23/12/1
f 26/11/1 23/11/1 25/11/1
f 27/12/1 21/12/1 13/12/1
f 27/12/1 25/12/1 21/12/1
f 27/12/1 26/12/1 25/12/1
f 28/12/1 14/12/1 24/12/1
f 28/12/1 26/12/1 27/12/1
f 28/12/1 24/12/1 26/12/1
f 29/10/1 28/10/1 27/10/1
f 30/10/1 28/10/1 29/10/1
f 31/6/1 30/6/1 29/6/1
f 32/6/1 30/6/1 31/6/1
f 35/2/1 34/2/1 33/2/1
f 36/2/1 34/2/1 35/2/1
f 37/1/1 36/1/1 35/1/1
f 38/1/1 36/1/1 37/1/1
f 41/12/1 40/12/1 39/12/1
f 42/12/1 40/12/1 41/12/1
f 45/2/1 44/2/1 43/2/1
f 46/2/1 44/2/1 45/2/1
f 49/4/1 48/4/1 47/4/1
f 50/4/1 48/4/1 49/4/1
f 53/7/1 52/7/1 51/7/1
f 54/7/1 52/7/1 53/7/1
f 55/5/1 54/5/1 53/5/1
f 56/5/1 54/5/1 55/5/1
f 57/4/1 56/4/1 55/4/1
f 58/4/1 56/4/1 57/4/1
f 63/7/1 60/7/1 59/7/1
f 64/7/1 60/7/1 63/7/1
f 65/7/1 62/7/1 61/7/1
f 66/7/1 62/7/1 65/7/1
f 67/5/1 66/5/1 65/5/1
f 68/5/1 66/5/1 67/5/1
f 69/5/1 64/5/1 63/5/1
f 70/5/1 64/5/1 69/5/1
f 71/4/1 68/4/1 67/4/1
f 73/4/1 70/4/1 69/4/1
f 74/4/1 70/4/1 73/4/1
f 75/4/1 71/4/1 67/4/1
f 75/4/1 72/4/1 71/4/1
f 76/4/1 72/4/1 75/4/1
f 77/2/1 76/2/1 75/2/1
f 78/4/1 72/4/1 76/4/1
f 78/2/1 76/2/1 77/2/1
f 79/4/1 72/4/1 78/4/1
f 81/1/1 78/1/1 77/1/1
f 82/2/1 79/2/1 78/2/1
f 82/1/1 78/1/1 81/1/1
f 83/4/1 80/4/1 79/4/1
f 83/2/1 79/2/1 82/2/1
f 84/4/1 80/4/1 83/4/1
f 85/1/1 83/1/1 82/1/1
f 86/2/1 84/2/1 83/2/1
f 86/1/1 83/1/1 85/1/1
f 87/2/1 84/2/1 86/2/1
f 89/2/1 74/2/1 73/2/1
f 90/2/1 74/2/1 89/2/1
f 91/9/1 86/9/1 85/9/1
f 92/1/1 87/1/1 86/1/1
f 92/9/1 86/9/1 91/9/1
f 93/2/1 88/2/1 87/2/1
f 93/1/1 87/1/1 92/1/1
f 94/2/1 88/2/1 93/2/1
f 95/9/1 93/9/1 92/9/1
f 96/1/1 94/1/1 93/1/1
f 96/9/1 93/9/1 95/9/1
f 97/1/1 94/1/1 96/1/1
f 99/9/1 97/9/1 96/9/1
f 99/9/1 98/9/1 97/9/1
f 100/9/1 98/9/1 99/9/1
f 101/1/1 90/1/1 89/1/1
f 102/1/1 90/1/1 101/1/1
f 103/9/1 102/9/1 101/9/1
f 104/9/1 102/9/1 103/9/1
f 107/7/1 106/7/1 105/7/1
f 108/7/1 106/7/1 107/7/1
f 109/5/1 108/5/1 107/5/1
f 110/5/1 108/5/1 109/5/1
f 114/4/1 110/4/1 109/4/1
f 115/4/1 112/4/1 111/4/1
f 116/4/1 112/4/1 115/4/1
f 117/4/1 112/4/1 116/4/1
f 118/4/1 114/4/1 113/4/1
f 119/4/1 110/4/1 114/4/1
f 119/4/1 114/4/1 118/4/1
f 120/4/1 110/4/1 119/4/1
f 121/4/1 117/4/1 116/4/1
f 121/4/1 118/4/1 117/4/1
f 121/4/1 119/4/1 118/4/1
f 122/4/1 119/4/1 121/4/1
f 123/2/1 120/2/1 119/2/1
f 123/4/1 119/4/1 122/4/1
f 125/2/1 123/2/1 122/2/1
f 126/2/1 120/2/1 123/2/1
f 126/2/1 123/2/1 125/2/1
f 128/2/1 125/2/1 124/2/1
f 129/1/1 126/1/1 125/1/1
f 129/2/1 125/2/1 128/2/1
f 130/1/1 126/1/1 129/1/1
f 131/1/1 126/1/1 130/1/1
f 132/2/1 128/2/1 127/2/1
f 133/1/1 129/1/1 128/1/1
f 133/2/1 128/2/1 132/2/1
f 133/1/1 130/1/1 129/1/1
f 134/1/1 130/1/1 133/1/1
f 135/1/1 130/1/1 134/1/1
f 137/9/1 133/9/1 132/9/1
f 138/1/1 134/1/1 133/1/1
f 138/9/1 133/9/1 137/9/1
f 139/1/1 134/1/1 138/1/1
f 140/9/1 137/9/1 136/9/1
f 140/9/1 138/9/1 137/9/1
f 141/9/1 138/9/1 140/9/1
f 144/9/1 143/9/1 142/9/1
f 145/9/1 143/9/1 144/9/1
f 148/7/1 147/7/1 146/7/1
f 149/7/1 147/7/1 148/7/1
f 150/5/1 149/5/1 148/5/1
f 151/5/1 149/5/1 150/5/1
f 152/4/1 151/4/1 150/4/1
f 153/4/1 151/4/1 152/4/1
f 154/2/1 153/2/1 152/2/1
f 155/2/1 153/2/1 154/2/1
f 156/1/1 155/1/1 154/1/1
f 157/1/1 155/1/1 156/1/1
f 158/9/1 157/9/1 156/9/1
f 159/9/1 157/9/1 158/9/1
f 162/9/1 161/9/1 160/9/1
f 163/9/1 161/9/1 162/9/1
f 166/9/1 165/9/1 164/9/1
f 167/9/1 165/9/1 166/9/1
f 170/1/1 169/1/1 168/1/1
f 171/1/1 169/1/1 170/1/1
f 174/6/1 173/6/1 172/6/1
f 175/6/1 173/6/1 174/6/1
f 176/4/2 177/4/2 178/4/2
f 178/4/2 177/4/2 179/4/2
f 180/6/2 181/6/2 182/6/2
f 182/6/2 181/6/2 183/6/2
f 184/1/2 185/1/2 186/1/2
f 186/1/2 185/1/2 187/1/2
f 186/9/2 187/9/2 188/9/2
f 188/9/2 187/9/2 189/9/2
f 190/1/2 191/1/2 192/1/2
f 192/1/2 191/1/2 193/1/2
f 194/1/2 195/1/2 196/1/2
f 196/1/2 195/1/2 197/1/2
f 196/9/2 197/9/2 198/9/2
f 198/9/2 197/9/2 199/9/2
f 200/7/2 201/7/2 202/7/2
f 202/7/2 201/7/2 203/7/2
f 202/5/2 203/5/2 204/5/2
f 204/5/2 203/5/2 205/5/2
f 204/4/2 205/4/2 206/4/2
f 206/4/2 205/4/2 207/4/2
f 206/2/2 207/2/2 208/2/2
f 208/2/2 207/2/2 209/2/2
f 210/7/2 211/7/2 212/7/2
f 212/7/2 211/7/2 213/7/2
f 212/5/2 213/5/2 214/5/2
f 214/5/2 213/5/2 215/5/2
f 214/4/2 215/4/2 216/4/2
f 214/4/2 216/4/2 218/4/2
f 216/4/2 217/4/2 218/4/2
f 218/4/2 217/4/2 219/4/2
f 218/2/2 219/2/2 220/2/2
f 219/4/2 217/4/2 221/4/2
f 220/2/2 219/2/2 221/2/2
f 221/4/2 217/4/2 222/4/2
f 220/1/2 221/1/2 224/1/2
f 221/2/2 222/2/2 225/2/2
f 224/1/2 221/1/2 225/1/2
f 222/4/2 223/4/2 226/4/2
f 225/2/2 222/2/2 226/2/2
f 226/4/2 223/4/2 227/4/2
f 225/1/2 226/1/2 228/1/2
f 226/2/2 227/2/2 229/2/2
f 228/1/2 226/1/2 229/1/2
f 229/2/2 227/2/2 230/2/2
f 228/9/2 229/9/2 232/9/2
f 229/1/2 230/1/2 233/1/2
f 232/9/2 229/9/2 233/9/2
f 230/2/2 231/2/2 234/2/2
f 233/1/2 230/1/2 234/1/2
f 234/2/2 231/2/2 235/2/2
f 233/9/2 234/9/2 236/9/2
f 234/1/2 235/1/2 237/1/2
f 236/9/2 234/9/2 237/9/2
f 237/1/2 235/1/2 238/1/2
f 237/9/2 238/9/2 240/9/2
f 238/9/2 239/9/2 240/9/2
f 240/9/2 239/9/2 241/9/2
f 242/7/2 243/7/2 246/7/2
f 246/7/2 243/7/2 247/7/2
f 244/7/2 245/7/2 248/7/2
f 248/7/2 245/7/2 249/7/2
f 246/5/2 247/5/2 250/5/2
f 250/5/2 247/5/2 251/5/2
f 248/5/2 249/5/2 252/5/2
f 252/5/2 249/5/2 253/5/2
f 250/4/2 251/4/2 257/4/2
f 254/4/2 255/4/2 258/4/2
f 258/4/2 255/4/2 259/4/2
f 259/4/2 255/4/2 260/4/2
f 256/4/2 257/4/2 261/4/2
f 257/4/2 251/4/2 262/4/2
f 261/4/2 257/4/2 262/4/2
f 262/4/2 251/4/2 263/4/2
f 259/4/2 260/4/2 264/4/2
f 260/4/2 261/4/2 264/4/2
f 261/4/2 262/4/2 264/4/2
f 264/4/2 262/4/2 265/4/2
f 262/2/2 263/2/2 266/2/2
f 265/4/2 262/4/2 266/4/2
f 265/2/2 266/2/2 268/2/2
f 266/2/2 263/2/2 269/2/2
f 268/2/2 266/2/2 269/2/2
f 252/4/2 253/4/2 270/4/2
f 270/4/2 253/4/2 271/4/2
f 267/2/2 268/2/2 273/2/2
f 268/1/2 269/1/2 274/1/2
f 273/2/2 268/2/2 274/2/2
f 274/1/2 269/1/2 275/1/2
f 275/1/2 269/1/2 276/1/2
f 272/2/2 273/2/2 277/2/2
f 273/1/2 274/1/2 278/1/2
f 277/2/2 273/2/2 278/2/2
f 274/1/2 275/1/2 278/1/2
f 278/1/2 275/1/2 279/1/2
f 279/1/2 275/1/2 280/1/2
f 270/2/2 271/2/2 281/2/2
f 281/2/2 271/2/2 282/2/2
f 277/9/2 278/9/2 284/9/2
f 278/1/2 279/1/2 285/1/2
f 284/9/2 278/9/2 285/9/2
f 285/1/2 279/1/2 286/1/2
f 283/9/2 284/9/2 287/9/2
f 284/9/2 285/9/2 287/9/2
f 287/9/2 285/9/2 288/9/2
f 281/1/2 282/1/2 289/1/2
f 289/1/2 282/1/2 290/1/2
f 289/9/2 290/9/2 291/9/2
f 291/9/2 290/9/2 292/9/2
f 293/7/2 294/7/2 295/7/2
f 295/7/2 294/7/2 296/7/2
f 295/5/2 296/5/2 297/5/2
f 297/5/2 296/5/2 298/5/2
f 297/4/2 298/4/2 299/4/2
f 299/4/2 298/4/2 300/4/2
f 299/2/2 300/2/2 301/2/2
f 301/2/2 300/2/2 302/2/2
f 303/2/2 304/2/2 305/2/2
f 305/2/2 304/2/2 306/2/2
f 307/1/2 308/1/2 309/1/2
f 309/1/2 308/1/2 310/1/2
f 311/2/2 312/2/2 313/2/2
f 313/2/2 312/2/2 314/2/2
f 315/1/2 316/1/2 317/1/2
f 317/1/2 316/1/2 318/1/2
f 317/9/2 318/9/2 319/9/2
f 319/9/2 318/9/2 320/9/2
f 321/12/2 322/12/2 323/12/2
f 323/12/2 322/12/2 324/12/2
f 325/2/2 326/2/2 327/2/2
f 327/2/2 326/2/2 328/2/2
f 329/9/2 330/9/2 331/9/2
f 331/9/2 330/9/2 332/9/2
f 333/12/2 334/12/2 335/12/2
f 335/12/2 334/12/2 336/12/2
f 333/12/2 335/12/2 337/12/2
f 335/11/2 336/11/2 338/11/2
f 337/12/2 335/12/2 338/12/2
f 336/12/2 334/12/2 339/12/2
f 338/11/2 336/11/2 339/11/2
f 339/12/2 334/12/2 340/12/2
f 337/11/2 338/11/2 341/11/2
f 333/12/2 337/12/2 341/12/2
f 339/11/2 340/11/2 341/11/2
f 338/11/2 339/11/2 341/11/2
f 341/11/2 340/11/2 342/11/2
f 342/11/2 340/11/2 343/11/2
f 340/12/2 334/12/2 344/12/2
f 343/11/2 340/11/2 344/11/2
f 342/11/2 343/11/2 345/11/2
f 341/12/2 342/12/2 345/12/2
f 343/12/2 344/12/2 346/12/2
f 345/11/2 343/11/2 346/11/2
f 333/12/2 341/12/2 347/12/2
f 341/12/2 345/12/2 347/12/2
f 345/12/2 346/12/2 347/12/2
f 344/12/2 334/12/2 348/12/2
f 347/12/2 346/12/2 348/12/2
f 346/12/2 344/12/2 348/12/2
f 347/10/2 348/10/2 349/10/2
f 349/10/2 348/10/2 350/10/2
f 349/6/2 350/6/2 351/6/2
f 351/6/2 350/6/2 352/6/2
f 353/2/2 354/2/2 355/2/2
f 355/2/2 354/2/2 356/2/2
f 361/12/3 358/12/3 357/12/3
f 362/12/3 358/12/3 361/12/3
f 363/12/3 361/12/3 357/12/3
f 364/11/3 362/11/3 361/11/3
f 364/12/3 361/12/3 363/12/3
f 365/12/3 358/12/3 362/12/3
f 365/11/3 362/11/3 364/11/3
f 366/12/3 358/12/3 365/12/3
f 371/4/3 368/4/3 367/4/3
f 372/4/3 368/4/3 371/4/3
f 373/9/3 370/9/3 369/9/3
f 374/9/3 370/9/3 373/9/3
f 375/11/3 364/11/3 363/11/3
f 375/12/3 363/12/3 357/12/3
f 375/11/3 365/11/3 364/11/3
f 375/11/3 366/11/3 365/11/3
f 376/11/3 366/11/3 375/11/3
f 377/11/3 366/11/3 376/11/3
f 378/12/3 358/12/3 366/12/3
f 378/11/3 366/11/3 377/11/3
f 379/11/3 377/11/3 376/11/3
f 379/12/3 376/12/3 375/12/3
f 380/12/3 378/12/3 377/12/3
f 380/11/3 377/11/3 379/11/3
f 381/12/3 375/12/3 357/12/3
f 381/12/3 379/12/3 375/12/3
f 381/12/3 380/12/3 379/12/3
f 382/10/3 359/10/3 358/10/3
f 382/12/3 380/12/3 381/12/3
f 382/12/3 358/12/3 378/12/3
f 382/12/3 378/12/3 380/12/3
f 383/6/3 360/6/3 359/6/3
f 383/10/3 359/10/3 382/10/3
f 384/6/3 360/6/3 383/6/3
f 392/4/3 388/4/3 387/4/3
f 393/4/3 388/4/3 392/4/3
f 394/2/3 390/2/3 389/2/3
f 395/9/3 391/9/3 390/9/3
f 395/2/3 390/2/3 394/2/3
f 396/9/3 391/9/3 395/9/3
f 397/12/3 386/12/3 385/12/3
f 398/12/3 386/12/3 397/12/3
f 401/2/3 400/2/3 399/2/3
f 402/2/3 400/2/3 401/2/3
f 407/4/3 404/4/3 403/4/3
f 408/4/3 404/4/3 407/4/3
f 409/2/3 406/2/3 405/2/3
f 410/2/3 406/2/3 409/2/3
f 415/7/3 412/7/3 411/7/3
f 416/5/3 413/5/3 412/5/3
f 416/7/3 412/7/3 415/7/3
f 417/4/3 414/4/3 413/4/3
f 417/5/3 413/5/3 416/5/3
f 418/4/3 414/4/3 417/4/3
f 422/4/3 420/4/3 419/4/3
f 425/4/3 420/4/3 422/4/3
f 425/4/3 422/4/3 421/4/3
f 426/4/3 420/4/3 425/4/3
f 429/9/3 424/9/3 423/9/3
f 430/4/3 425/4/3 421/4/3
f 431/2/3 428/2/3 427/2/3
f 432/1/3 429/1/3 428/1/3
f 432/2/3 428/2/3 431/2/3
f 433/9/3 424/9/3 429/9/3
f 433/1/3 429/1/3 432/1/3
f 434/9/3 424/9/3 433/9/3
f 436/4/3 430/4/3 421/4/3
f 437/2/3 431/2/3 430/2/3
f 437/4/3 430/4/3 436/4/3
f 438/2/3 431/2/3 437/2/3
f 439/1/3 432/1/3 431/1/3
f 439/2/3 431/2/3 438/2/3
f 440/1/3 432/1/3 439/1/3
f 444/4/3 436/4/3 435/4/3
f 445/2/3 437/2/3 436/2/3
f 445/4/3 436/4/3 444/4/3
f 446/1/3 438/1/3 437/1/3
f 446/2/3 437/2/3 445/2/3
f 447/9/3 439/9/3 438/9/3
f 447/1/3 438/1/3 446/1/3
f 448/9/3 439/9/3 447/9/3
f 449/7/3 442/7/3 441/7/3
f 450/5/3 443/5/3 442/5/3
f 450/7/3 442/7/3 449/7/3
f 451/4/3 444/4/3 443/4/3
f 451/5/3 443/5/3 450/5/3
f 452/2/3 445/2/3 444/2/3
f 452/4/3 444/4/3 451/4/3
f 452/2/3 446/2/3 445/2/3
f 453/2/3 446/2/3 452/2/3
f 461/5/3 456/5/3 455/5/3
f 462/4/3 457/4/3 456/4/3
f 462/5/3 456/5/3 461/5/3
f 463/2/3 458/2/3 457/2/3
f 463/4/3 457/4/3 462/4/3
f 464/2/3 458/2/3 463/2/3
f 465/2/3 458/2/3 464/2/3
f 466/1/3 459/1/3 458/1/3
f 466/2/3 458/2/3 465/2/3
f 467/1/3 459/1/3 466/1/3
f 468/9/3 460/9/3 459/9/3
f 468/1/3 459/1/3 467/1/3
f 469/9/3 460/9/3 468/9/3
f 471/7/3 455/7/3 454/7/3
f 472/5/3 461/5/3 455/5/3
f 472/7/3 455/7/3 471/7/3
f 473/4/3 462/4/3 461/4/3
f 473/5/3 461/5/3 472/5/3
f 473/4/3 463/4/3 462/4/3
f 473/4/3 464/4/3 463/4/3
f 474/2/3 465/2/3 464/2/3
f 474/4/3 464/4/3 473/4/3
f 475/1/3 467/1/3 466/1/3
f 475/2/3 465/2/3 474/2/3
f 475/1/3 466/1/3 465/1/3
f 476/9/3 470/9/3 469/9/3
f 476/1/3 467/1/3 475/1/3
f 476/9/3 469/9/3 468/9/3
f 476/9/3 468/9/3 467/9/3
f 477/9/3 470/9/3 476/9/3
f 485/7/3 479/7/3 478/7/3
f 486/5/3 480/5/3 479/5/3
f 486/7/3 479/7/3 485/7/3
f 487/4/3 481/4/3 480/4/3
f 487/5/3 480/5/3 486/5/3
f 488/2/3 482/2/3 481/2/3
f 488/4/3 481/4/3 487/4/3
f 489/2/3 482/2/3 488/2/3
f 490/1/3 483/1/3 482/1/3
f 490/2/3 482/2/3 489/2/3
f 491/1/3 483/1/3 490/1/3
f 492/9/3 484/9/3 483/9/3
f 492/1/3 483/1/3 491/1/3
f 493/9/3 484/9/3 492/9/3
f 494/9/3 484/9/3 493/9/3
f 496/2/3 491/2/3 490/2/3
f 496/2/3 490/2/3 489/2/3
f 497/2/3 491/2/3 496/2/3
f 498/1/3 493/1/3 492/1/3
f 498/1/3 492/1/3 491/1/3
f 499/9/3 495/9/3 494/9/3
f 499/1/3 493/1/3 498/1/3
f 499/9/3 494/9/3 493/9/3
f 500/9/3 495/9/3 499/9/3
f 501/9/3 495/9/3 500/9/3
f 503/2/3 491/2/3 497/2/3
f 504/1/3 498/1/3 491/1/3
f 504/2/3 491/2/3 503/2/3
f 505/1/3 498/1/3 504/1/3
f 507/1/3 500/1/3 499/1/3
f 508/9/3 502/9/3 501/9/3
f 508/1/3 500/1/3 507/1/3
f 508/9/3 501/9/3 500/9/3
f 509/9/3 502/9/3 508/9/3
f 510/2/3 505/2/3 504/2/3
f 511/1/3 506/1/3 505/1/3
f 511/2/3 505/2/3 510/2/3
f 512/1/3 506/1/3 511/1/3
f 513/9/3 502/9/3 509/9/3
f 514/9/3 502/9/3 513/9/3
f 515/2/3 512/2/3 511/2/3
f 516/2/3 512/2/3 515/2/3
f 523/7/3 518/7/3 517/7/3
f 524/5/3 519/5/3 518/5/3
f 524/7/3 518/7/3 523/7/3
f 525/4/3 520/4/3 519/4/3
f 525/5/3 519/5/3 524/5/3
f 526/2/3 521/2/3 520/2/3
f 526/4/3 520/4/3 525/4/3
f 527/1/3 522/1/3 521/1/3
f 527/2/3 521/2/3 526/2/3
f 528/1/3 522/1/3 527/1/3
f 532/1/3 530/1/3 529/1/3
f 533/9/3 531/9/3 530/9/3
f 533/1/3 530/1/3 532/1/3
f 534/9/3 531/9/3 533/9/3
f 537/9/3 536/9/3 535/9/3
f 538/9/3 536/9/3 537/9/3
f 541/9/3 540/9/3 539/9/3
f 542/9/3 540/9/3 541/9/3
f 545/6/3 544/6/3 543/6/3
f 546/6/3 544/6/3 545/6/3
f 547/6/4 548/6/4 549/6/4
f 549/6/4 548/6/4 550/6/4
f 551/4/4 552/4/4 555/4/4
f 555/4/4 552/4/4 556/4/4
f 553/9/4 554/9/4 557/9/4
f 557/9/4 554/9/4 558/9/4
f 559/1/4 560/1/4 561/1/4
f 561/1/4 560/1/4 562/1/4
f 563/1/4 564/1/4 565/1/4
f 565/1/4 564/1/4 566/1/4
f 567/7/4 568/7/4 573/7/4
f 568/5/4 569/5/4 574/5/4
f 573/7/4 568/7/4 574/7/4
f 569/4/4 570/4/4 575/4/4
f 574/5/4 569/5/4 575/5/4
f 570/2/4 571/2/4 576/2/4
f 575/4/4 570/4/4 576/4/4
f 571/1/4 572/1/4 577/1/4
f 576/2/4 571/2/4 577/2/4
f 577/1/4 572/1/4 578/1/4
f 579/4/4 580/4/4 582/4/4
f 582/4/4 580/4/4 585/4/4
f 581/4/4 582/4/4 585/4/4
f 585/4/4 580/4/4 586/4/4
f 583/9/4 584/9/4 589/9/4
f 581/4/4 585/4/4 590/4/4
f 587/2/4 588/2/4 591/2/4
f 588/1/4 589/1/4 592/1/4
f 591/2/4 588/2/4 592/2/4
f 589/9/4 584/9/4 593/9/4
f 592/1/4 589/1/4 593/1/4
f 593/9/4 584/9/4 594/9/4
f 581/4/4 590/4/4 596/4/4
f 590/2/4 591/2/4 597/2/4
f 596/4/4 590/4/4 597/4/4
f 597/2/4 591/2/4 598/2/4
f 591/1/4 592/1/4 599/1/4
f 598/2/4 591/2/4 599/2/4
f 599/1/4 592/1/4 600/1/4
f 595/4/4 596/4/4 604/4/4
f 596/2/4 597/2/4 605/2/4
f 604/4/4 596/4/4 605/4/4
f 597/1/4 598/1/4 606/1/4
f 605/2/4 597/2/4 606/2/4
f 598/9/4 599/9/4 607/9/4
f 606/1/4 598/1/4 607/1/4
f 607/9/4 599/9/4 608/9/4
f 601/7/4 602/7/4 609/7/4
f 602/5/4 603/5/4 610/5/4
f 609/7/4 602/7/4 610/7/4
f 603/4/4 604/4/4 611/4/4
f 610/5/4 603/5/4 611/5/4
f 604/2/4 605/2/4 612/2/4
f 611/4/4 604/4/4 612/4/4
f 605/2/4 606/2/4 612/2/4
f 612/2/4 606/2/4 613/2/4
f 614/7/4 615/7/4 621/7/4
f 615/5/4 616/5/4 622/5/4
f 616/4/4 617/4/4 623/4/4
f 622/5/4 616/5/4 623/5/4
f 617/2/4 618/2/4 624/2/4
f 623/4/4 617/4/4 624/4/4
f 624/2/4 618/2/4 625/2/4
f 625/2/4 618/2/4 626/2/4
f 618/1/4 619/1/4 627/1/4
f 626/2/4 618/2/4 627/2/4
f 627/1/4 619/1/4 628/1/4
f 619/9/4 620/9/4 629/9/4
f 628/1/4 619/1/4 629/1/4
f 629/9/4 620/9/4 630/9/4
f 621/7/4 615/7/4 632/7/4
f 615/5/4 622/5/4 633/5/4
f 632/7/4 615/7/4 633/7/4
f 622/4/4 623/4/4 634/4/4
f 633/5/4 622/5/4 634/5/4
f 623/4/4 624/4/4 634/4/4
f 624/4/4 625/4/4 634/4/4
f 625/2/4 626/2/4 635/2/4
f 634/4/4 625/4/4 635/4/4
f 627/1/4 628/1/4 636/1/4
f 635/2/4 626/2/4 636/2/4
f 626/1/4 627/1/4 636/1/4
f 630/9/4 631/9/4 637/9/4
f 636/1/4 628/1/4 637/1/4
f 629/9/4 630/9/4 637/9/4
f 628/9/4 629/9/4 637/9/4
f 637/9/4 631/9/4 638/9/4
f 639/7/4 640/7/4 646/7/4
f 640/5/4 641/5/4 647/5/4
f 646/7/4 640/7/4 647/7/4
f 641/4/4 642/4/4 648/4/4
f 647/5/4 641/5/4 648/5/4
f 642/2/4 643/2/4 649/2/4
f 648/4/4 642/4/4 649/4/4
f 649/2/4 643/2/4 650/2/4
f 643/1/4 644/1/4 651/1/4
f 650/2/4 643/2/4 651/2/4
f 651/1/4 644/1/4 652/1/4
f 644/9/4 645/9/4 653/9/4
f 652/1/4 644/1/4 653/1/4
f 653/9/4 645/9/4 654/9/4
f 654/9/4 645/9/4 655/9/4
f 651/2/4 652/2/4 657/2/4
f 650/2/4 651/2/4 657/2/4
f 657/2/4 652/2/4 658/2/4
f 653/1/4 654/1/4 659/1/4
f 652/1/4 653/1/4 659/1/4
f 655/9/4 656/9/4 660/9/4
f 659/1/4 654/1/4 660/1/4
f 654/9/4 655/9/4 660/9/4
f 660/9/4 656/9/4 661/9/4
f 661/9/4 656/9/4 662/9/4
f 658/2/4 652/2/4 664/2/4
f 652/1/4 659/1/4 665/1/4
f 664/2/4 652/2/4 665/2/4
f 665/1/4 659/1/4 666/1/4
f 660/1/4 661/1/4 668/1/4
f 662/9/4 663/9/4 669/9/4
f 668/1/4 661/1/4 669/1/4
f 661/9/4 662/9/4 669/9/4
f 669/9/4 663/9/4 670/9/4
f 665/2/4 666/2/4 671/2/4
f 666/1/4 667/1/4 672/1/4
f 671/2/4 666/2/4 672/2/4
f 672/1/4 667/1/4 673/1/4
f 670/9/4 663/9/4 674/9/4
f 674/9/4 663/9/4 675/9/4
f 672/2/4 673/2/4 676/2/4
f 676/2/4 673/2/4 677/2/4
f 678/7/4 679/7/4 682/7/4
f 679/5/4 680/5/4 683/5/4
f 682/7/4 679/7/4 683/7/4
f 680/4/4 681/4/4 684/4/4
f 683/5/4 680/5/4 684/5/4
f 684/4/4 681/4/4 685/4/4
f 686/4/4 687/4/4 688/4/4
f 688/4/4 687/4/4 689/4/4
f 690/4/4 691/4/4 693/4/4
f 691/2/4 692/2/4 694/2/4
f 693/4/4 691/4/4 694/4/4
f 694/2/4 692/2/4 695/2/4
f 698/2/4 699/2/4 701/2/4
f 699/1/4 700/1/4 702/1/4
f 701/2/4 699/2/4 702/2/4
f 702/1/4 700/1/4 703/1/4
f 696/12/4 697/12/4 704/12/4
f 704/12/4 697/12/4 705/12/4
f 706/12/4 707/12/4 710/12/4
f 710/12/4 707/12/4 711/12/4
f 706/12/4 710/12/4 712/12/4
f 710/11/4 711/11/4 713/11/4
f 712/12/4 710/12/4 713/12/4
f 711/12/4 707/12/4 714/12/4
f 713/11/4 711/11/4 714/11/4
f 714/12/4 707/12/4 715/12/4
f 716/9/4 717/9/4 718/9/4
f 718/9/4 717/9/4 719/9/4
f 712/11/4 713/11/4 720/11/4
f 706/12/4 712/12/4 720/12/4
f 713/11/4 714/11/4 720/11/4
f 714/11/4 715/11/4 720/11/4
f 720/11/4 715/11/4 721/11/4
f 721/11/4 715/11/4 722/11/4
f 715/12/4 707/12/4 723/12/4
f 722/11/4 715/11/4 723/11/4
f 721/11/4 722/11/4 724/11/4
f 720/12/4 721/12/4 724/12/4
f 722/12/4 723/12/4 725/12/4
f 724/11/4 722/11/4 725/11/4
f 706/12/4 720/12/4 726/12/4
f 720/12/4 724/12/4 726/12/4
f 724/12/4 725/12/4 726/12/4
f 707/10/4 708/10/4 727/10/4
f 726/12/4 725/12/4 727/12/4
f 723/12/4 707/12/4 727/12/4
f 725/12/4 723/12/4 727/12/4
f 708/6/4 709/6/4 728/6/4
f 727/10/4 708/10/4 728/10/4
f 728/6/4 709/6/4 729/6/4
f 732/12/5 731/12/5 730/12/5
f 733/12/5 731/12/5 732/12/5
f 736/12/5 735/12/5 734/12/5
f 737/12/5 735/12/5 736/12/5
f 738/12/5 736/12/5 734/12/5
f 739/12/5 735/12/5 737/12/5
f 740/12/5 738/12/5 734/12/5
f 740/12/5 739/12/5 738/12/5
f 741/12/5 735/12/5 739/12/5
f 741/12/5 739/12/5 740/12/5
f 744/4/5 743/4/5 742/4/5
f 745/4/5 743/4/5 744/4/5
f 748/4/5 747/4/5 746/4/5
f 749/4/5 747/4/5 748/4/5
f 752/4/5 751/4/5 750/4/5
f 753/4/5 751/4/5 752/4/5
f 756/4/5 755/4/5 754/4/5
f 757/4/5 755/4/5 756/4/5
f 760/4/5 759/4/5 758/4/5
f 761/4/5 759/4/5 760/4/5
f 764/4/5 763/4/5 762/4/5
f 765/4/5 763/4/5 764/4/5
f 768/2/5 767/2/5 766/2/5
f 769/2/5 767/2/5 768/2/5
f 774/4/5 771/4/5 770/4/5
f 775/4/5 771/4/5 774/4/5
f 776/2/5 773/2/5 772/2/5
f 777/2/5 773/2/5 776/2/5
f 780/4/5 779/4/5 778/4/5
f 781/4/5 779/4/5 780/4/5
f 784/2/5 783/2/5 782/2/5
f 785/2/5 783/2/5 784/2/5
f 788/2/5 787/2/5 786/2/5
f 789/2/5 787/2/5 788/2/5
f 794/2/5 791/2/5 790/2/5
f 795/2/5 791/2/5 794/2/5
f 796/2/5 793/2/5 792/2/5
f 797/2/5 793/2/5 796/2/5
f 800/2/5 799/2/5 798/2/5
f 801/2/5 799/2/5 800/2/5
f 804/9/5 803/9/5 802/9/5
f 805/9/5 803/9/5 804/9/5
f 808/2/5 807/2/5 806/2/5
f 809/2/5 807/2/5 808/2/5
f 812/9/5 811/9/5 810/9/5
f 813/9/5 811/9/5 812/9/5
f 816/9/5 815/9/5 814/9/5
f 817/9/5 815/9/5 816/9/5
f 820/1/5 819/1/5 818/1/5
f 821/1/5 819/1/5 820/1/5
f 824/9/5 823/9/5 822/9/5
f 825/9/5 823/9/5 824/9/5
f 826/8/6 827/8/6 828/8/6
f 828/8/6 827/8/6 829/8/6
f 829/8/6 827/8/6 830/8/6
f 830/8/6 827/8/6 831/8/6
f 826/8/6 828/8/6 832/8/6
f 828/3/6 829/3/6 833/3/6
f 832/8/6 828/8/6 833/8/6
f 829/8/6 830/8/6 834/8/6
f 834/8/6 830/8/6 835/8/6
f 826/8/6 832/8/6 836/8/6
f 832/3/6 833/3/6 836/3/6
f 833/3/6 829/3/6 837/3/6
f 836/3/6 833/3/6 837/3/6
f 829/8/6 834/8/6 837/8/6
f 837/8/6 834/8/6 838/8/6
f 834/3/6 835/3/6 839/3/6
f 838/8/6 834/8/6 839/8/6
f 835/8/6 830/8/6 840/8/6
f 839/3/6 835/3/6 840/3/6
f 830/3/6 831/3/6 841/3/6
f 840/8/6 830/8/6 841/8/6
f 831/8/6 827/8/6 842/8/6
f 841/3/6 831/3/6 842/3/6
f 837/8/6 838/8/6 843/8/6
f 836/8/6 837/8/6 843/8/6
f 840/8/6 841/8/6 844/8/6
f 839/8/6 840/8/6 844/8/6
f 841/8/6 842/8/6 844/8/6
f 836/8/6 843/8/6 845/8/6
f 843/8/6 844/8/6 845/8/6
f 845/8/6 844/8/6 846/8/6
f 846/8/6 844/8/6 847/8/6
f 844/8/6 842/8/6 848/8/6
f 847/8/6 844/8/6 848/8/6
f 848/8/6 842/8/6 849/8/6
f 849/8/6 842/8/6 850/8/6
f 836/8/6 845/8/6 851/8/6
f 846/8/6 847/8/6 852/8/6
f 852/8/6 847/8/6 853/8/6
f 848/8/6 849/8/6 855/8/6
f 855/8/6 849/8/6 856/8/6
f 850/8/6 842/8/6 857/8/6
f 836/8/6 851/8/6 858/8/6
f 826/8/6 836/8/6 858/8/6
f 851/8/6 852/8/6 858/8/6
f 852/8/6 853/8/6 858/8/6
f 858/8/6 853/8/6 859/8/6
f 853/3/6 854/3/6 860/3/6
f 859/8/6 853/8/6 860/8/6
f 856/8/6 857/8/6 861/8/6
f 860/3/6 854/3/6 861/3/6
f 855/8/6 856/8/6 861/8/6
f 854/8/6 855/8/6 861/8/6
f 826/8/6 858/8/6 862/8/6
f 858/3/6 859/3/6 862/3/6
f 859/8/6 860/8/6 863/8/6
f 862/3/6 859/3/6 863/3/6
f 863/8/6 860/8/6 864/8/6
f 861/8/6 857/8/6 865/8/6
f 857/8/6 842/8/6 866/8/6
f 865/8/6 857/8/6 866/8/6
f 866/8/6 842/8/6 867/8/6
f 826/8/6 862/8/6 868/8/6
f 864/8/6 865/8/6 868/8/6
f 863/8/6 864/8/6 868/8/6
f 865/8/6 866/8/6 868/8/6
f 862/8/6 863/8/6 868/8/6
f 868/8/6 866/8/6 869/8/6
f 869/8/6 866/8/6 870/8/6
f 870/8/6 866/8/6 871/8/6
f 866/3/6 867/3/6 872/3/6
f 871/8/6 866/8/6 872/8/6
f 867/8/6 842/8/6 873/8/6
f 872/3/6 867/3/6 873/3/6
f 842/8/6 827/8/6 874/8/6
f 873/8/6 842/8/6 874/8/6
f 826/8/6 868/8/6 875/8/6
f 868/3/6 869/3/6 875/3/6
f 869/8/6 870/8/6 876/8/6
f 875/3/6 869/3/6 876/3/6
f 870/3/6 871/3/6 877/3/6
f 876/8/6 870/8/6 877/8/6
f 871/8/6 872/8/6 878/8/6
f 877/3/6 871/3/6 878/3/6
f 872/8/6 873/8/6 878/8/6
f 873/3/6 874/3/6 879/3/6
f 878/8/6 873/8/6 879/8/6
f 874/8/6 827/8/6 880/8/6
f 879/3/6 874/3/6 880/3/6
f 876/8/6 877/8/6 881/8/6
f 826/8/6 875/8/6 881/8/6
f 879/8/6 880/8/6 881/8/6
f 877/8/6 878/8/6 881/8/6
f 878/8/6 879/8/6 881/8/6
f 875/8/6 876/8/6 881/8/6
f 880/8/6 827/8/6 882/8/6
f 881/8/6 880/8/6 882/8/6
f 883/6/6 884/6/6 885/6/6
f 885/6/6 884/6/6 886/6/6
f 883/6/6 885/6/6 887/6/6
f 886/6/6 884/6/6 888/6/6
f 883/6/6 887/6/6 889/6/6
f 887/6/6 888/6/6 889/6/6
f 888/6/6 884/6/6 890/6/6
f 889/6/6 888/6/6 890/6/6
f 891/4/6 892/4/6 893/4/6
f 893/4/6 892/4/6 894/4/6
f 895/4/6 896/4/6 897/4/6
f 897/4/6 896/4/6 898/4/6
f 899/4/6 900/4/6 903/4/6
f 903/4/6 900/4/6 904/4/6
f 901/2/6 902/2/6 905/2/6
f 905/2/6 902/2/6 906/2/6
f 907/1/6 908/1/6 909/1/6
f 909/1/6 908/1/6 910/1/6
f 911/4/6 912/4/6 913/4/6
f 913/4/6 912/4/6 914/4/6
f 915/1/6 916/1/6 917/1/6
f 917/1/6 916/1/6 918/1/6
f 919/1/6 920/1/6 921/1/6
f 921/1/6 920/1/6 922/1/6
f 923/9/6 924/9/6 925/9/6
f 925/9/6 924/9/6 926/9/6
f 927/1/6 928/1/6 929/1/6
f 929/1/6 928/1/6 930/1/6
f 931/1/6 932/1/6 935/1/6
f 935/1/6 932/1/6 936/1/6
f 933/1/6 934/1/6 937/1/6
f 937/1/6 934/1/6 938/1/6
f 939/9/6 940/9/6 941/9/6
f 941/9/6 940/9/6 942/9/6
f 943/9/6 944/9/6 945/9/6
f 945/9/6 944/9/6 946/9/6
f 947/1/6 948/1/6 950/1/6
f 948/2/6 949/2/6 951/2/6
f 950/1/6 948/1/6 951/1/6
f 951/2/6 949/2/6 952/2/6
f 953/9/6 954/9/6 955/9/6
f 955/9/6 954/9/6 956/9/6
f 957/9/6 958/9/6 959/9/6
f 959/9/6 958/9/6 960/9/6
f 961/9/6 962/9/6 963/9/6
f 963/9/6 962/9/6 964/9/6
f 965/9/6 966/9/6 967/9/6
f 967/9/6 966/9/6 968/9/6
f 969/9/6 970/9/6 971/9/6
f 971/9/6 970/9/6 972/9/6
f 973/9/6 974/9/6 977/9/6
f 977/9/6 974/9/6 978/9/6
f 975/9/6 976/9/6 979/9/6
f 979/9/6 976/9/6 980/9/6
f 981/9/6 982/9/6 983/9/6
f 983/9/6 982/9/6 984/9/6
