# MagicaVoxel @ Ephtracy

# group
o 

# material
mtllib vent.mtl
usemtl palette

# normals
vn -1 0 0
vn 1 0 0
vn 0 0 1
vn 0 0 -1
vn 0 -1 0
vn 0 1 0

# texcoords
vt 0.642578 0.5
vt 0.646484 0.5
vt 0.677734 0.5

# verts
v -1.2 0 0.2
v -1.2 0 0.0999999
v -1.2 2.3 0.2
v -1.2 2.3 0.0999999
v 1.2 0 0.2
v 1.2 0 0.0999999
v 1.2 2.3 0.2
v 1.2 2.3 0.0999999
v -1.2 0 0.2
v -1.2 2.3 0.2
v -1 0.4 0.2
v -1 0.5 0.2
v -1 0.9 0.2
v -1 1 0.2
v -1 1.4 0.2
v -1 1.5 0.2
v -1 1.9 0.2
v -1 2 0.2
v -0.8 0.3 0.2
v -0.8 0.4 0.2
v -0.8 0.8 0.2
v -0.8 0.9 0.2
v -0.8 1.3 0.2
v -0.8 1.4 0.2
v -0.8 1.8 0.2
v -0.8 1.9 0.2
v 0.8 0.8 0.2
v 0.8 0.9 0.2
v 0.8 1.3 0.2
v 0.8 1.4 0.2
v 0.8 1.8 0.2
v 0.8 1.9 0.2
v 0.9 0.3 0.2
v 0.9 0.4 0.2
v 1 0.4 0.2
v 1 0.5 0.2
v 1 0.9 0.2
v 1 1 0.2
v 1 1.4 0.2
v 1 1.5 0.2
v 1 1.9 0.2
v 1 2 0.2
v 1.2 0 0.2
v 1.2 2.3 0.2
v -1.2 0 0.0999999
v -1.2 2.3 0.0999999
v -1 0.4 0.0999999
v -1 0.5 0.0999999
v -1 0.9 0.0999999
v -1 1 0.0999999
v -1 1.4 0.0999999
v -1 1.5 0.0999999
v -1 1.9 0.0999999
v -1 2 0.0999999
v -0.8 0.3 0.0999999
v -0.8 0.4 0.0999999
v -0.8 0.8 0.0999999
v -0.8 0.9 0.0999999
v -0.8 1.3 0.0999999
v -0.8 1.4 0.0999999
v -0.8 1.8 0.0999999
v -0.8 1.9 0.0999999
v 0.8 0.8 0.0999999
v 0.8 0.9 0.0999999
v 0.8 1.3 0.0999999
v 0.8 1.4 0.0999999
v 0.8 1.8 0.0999999
v 0.8 1.9 0.0999999
v 0.9 0.3 0.0999999
v 0.9 0.4 0.0999999
v 1 0.4 0.0999999
v 1 0.5 0.0999999
v 1 0.9 0.0999999
v 1 1 0.0999999
v 1 1.4 0.0999999
v 1 1.5 0.0999999
v 1 1.9 0.0999999
v 1 2 0.0999999
v 1.2 0 0.0999999
v 1.2 2.3 0.0999999
v -1.2 0 0.2
v 1.2 0 0.2
v -1.2 0 0.0999999
v 1.2 0 0.0999999
v -1.2 2.3 0.2
v 1.2 2.3 0.2
v -1.2 2.3 0.0999999
v 1.2 2.3 0.0999999

# faces
f 3/1/1 2/1/1 1/1/1
f 4/1/1 2/1/1 3/1/1
f 5/1/2 6/1/2 7/1/2
f 7/1/2 6/1/2 8/1/2
f 11/1/3 10/1/3 9/1/3
f 12/1/3 10/1/3 11/1/3
f 13/1/3 10/1/3 12/1/3
f 14/1/3 10/1/3 13/1/3
f 15/1/3 10/1/3 14/1/3
f 16/1/3 10/1/3 15/1/3
f 17/1/3 10/1/3 16/1/3
f 18/1/3 10/1/3 17/1/3
f 19/1/3 11/1/3 9/1/3
f 20/3/3 12/3/3 11/3/3
f 20/1/3 11/1/3 19/1/3
f 21/1/3 13/1/3 12/1/3
f 22/3/3 14/3/3 13/3/3
f 22/1/3 13/1/3 21/1/3
f 23/1/3 15/1/3 14/1/3
f 24/3/3 16/3/3 15/3/3
f 24/1/3 15/1/3 23/1/3
f 25/1/3 17/1/3 16/1/3
f 26/3/3 18/3/3 17/3/3
f 26/1/3 17/1/3 25/1/3
f 27/1/3 21/1/3 12/1/3
f 27/2/3 22/2/3 21/2/3
f 28/3/3 14/3/3 22/3/3
f 28/2/3 22/2/3 27/2/3
f 29/1/3 23/1/3 14/1/3
f 29/2/3 24/2/3 23/2/3
f 30/3/3 16/3/3 24/3/3
f 30/2/3 24/2/3 29/2/3
f 31/1/3 25/1/3 16/1/3
f 31/2/3 26/2/3 25/2/3
f 32/3/3 18/3/3 26/3/3
f 32/2/3 26/2/3 31/2/3
f 33/1/3 19/1/3 9/1/3
f 33/2/3 20/2/3 19/2/3
f 34/3/3 12/3/3 20/3/3
f 34/2/3 20/2/3 33/2/3
f 35/1/3 34/1/3 33/1/3
f 35/3/3 12/3/3 34/3/3
f 36/1/3 27/1/3 12/1/3
f 36/3/3 12/3/3 35/3/3
f 36/1/3 28/1/3 27/1/3
f 37/3/3 14/3/3 28/3/3
f 37/1/3 28/1/3 36/1/3
f 38/1/3 29/1/3 14/1/3
f 38/3/3 14/3/3 37/3/3
f 38/1/3 30/1/3 29/1/3
f 39/3/3 16/3/3 30/3/3
f 39/1/3 30/1/3 38/1/3
f 40/1/3 31/1/3 16/1/3
f 40/3/3 16/3/3 39/3/3
f 40/1/3 32/1/3 31/1/3
f 41/3/3 18/3/3 32/3/3
f 41/1/3 32/1/3 40/1/3
f 42/1/3 10/1/3 18/1/3
f 42/3/3 18/3/3 41/3/3
f 43/1/3 41/1/3 40/1/3
f 43/1/3 40/1/3 39/1/3
f 43/1/3 42/1/3 41/1/3
f 43/1/3 38/1/3 37/1/3
f 43/1/3 37/1/3 36/1/3
f 43/1/3 36/1/3 35/1/3
f 43/1/3 35/1/3 33/1/3
f 43/1/3 39/1/3 38/1/3
f 43/1/3 33/1/3 9/1/3
f 44/1/3 10/1/3 42/1/3
f 44/1/3 42/1/3 43/1/3
f 45/1/4 46/1/4 47/1/4
f 47/1/4 46/1/4 48/1/4
f 48/1/4 46/1/4 49/1/4
f 49/1/4 46/1/4 50/1/4
f 50/1/4 46/1/4 51/1/4
f 51/1/4 46/1/4 52/1/4
f 52/1/4 46/1/4 53/1/4
f 53/1/4 46/1/4 54/1/4
f 45/1/4 47/1/4 55/1/4
f 47/3/4 48/3/4 56/3/4
f 55/1/4 47/1/4 56/1/4
f 48/1/4 49/1/4 57/1/4
f 49/3/4 50/3/4 58/3/4
f 57/1/4 49/1/4 58/1/4
f 50/1/4 51/1/4 59/1/4
f 51/3/4 52/3/4 60/3/4
f 59/1/4 51/1/4 60/1/4
f 52/1/4 53/1/4 61/1/4
f 53/3/4 54/3/4 62/3/4
f 61/1/4 53/1/4 62/1/4
f 48/1/4 57/1/4 63/1/4
f 57/2/4 58/2/4 63/2/4
f 58/3/4 50/3/4 64/3/4
f 63/2/4 58/2/4 64/2/4
f 50/1/4 59/1/4 65/1/4
f 59/2/4 60/2/4 65/2/4
f 60/3/4 52/3/4 66/3/4
f 65/2/4 60/2/4 66/2/4
f 52/1/4 61/1/4 67/1/4
f 61/2/4 62/2/4 67/2/4
f 62/3/4 54/3/4 68/3/4
f 67/2/4 62/2/4 68/2/4
f 45/1/4 55/1/4 69/1/4
f 55/2/4 56/2/4 69/2/4
f 56/3/4 48/3/4 70/3/4
f 69/2/4 56/2/4 70/2/4
f 69/1/4 70/1/4 71/1/4
f 70/3/4 48/3/4 71/3/4
f 48/1/4 63/1/4 72/1/4
f 71/3/4 48/3/4 72/3/4
f 63/1/4 64/1/4 72/1/4
f 64/3/4 50/3/4 73/3/4
f 72/1/4 64/1/4 73/1/4
f 50/1/4 65/1/4 74/1/4
f 73/3/4 50/3/4 74/3/4
f 65/1/4 66/1/4 74/1/4
f 66/3/4 52/3/4 75/3/4
f 74/1/4 66/1/4 75/1/4
f 52/1/4 67/1/4 76/1/4
f 75/3/4 52/3/4 76/3/4
f 67/1/4 68/1/4 76/1/4
f 68/3/4 54/3/4 77/3/4
f 76/1/4 68/1/4 77/1/4
f 54/1/4 46/1/4 78/1/4
f 77/3/4 54/3/4 78/3/4
f 76/1/4 77/1/4 79/1/4
f 75/1/4 76/1/4 79/1/4
f 77/1/4 78/1/4 79/1/4
f 73/1/4 74/1/4 79/1/4
f 72/1/4 73/1/4 79/1/4
f 71/1/4 72/1/4 79/1/4
f 69/1/4 71/1/4 79/1/4
f 74/1/4 75/1/4 79/1/4
f 45/1/4 69/1/4 79/1/4
f 78/1/4 46/1/4 80/1/4
f 79/1/4 78/1/4 80/1/4
f 83/1/5 82/1/5 81/1/5
f 84/1/5 82/1/5 83/1/5
f 85/1/6 86/1/6 87/1/6
f 87/1/6 86/1/6 88/1/6
