# MagicaVoxel @ Ephtracy

# group
o 

# material
mtllib VialSet.mtl
usemtl palette

# normals
vn -1 0 0
vn 1 0 0
vn 0 0 1
vn 0 0 -1
vn 0 -1 0
vn 0 1 0

# texcoords
vt 0.294922 0.5
vt 0.298828 0.5
vt 0.349609 0.5
vt 0.365234 0.5

# verts
v -1.6 1.4 -0.3
v -1.6 1.4 -1
v -1.6 1.5 -0.3
v -1.6 1.5 -1
v -1.5 1.7 -0.4
v -1.5 1.7 -0.5
v -1.5 1.7 -0.6
v -1.5 1.7 -0.7
v -1.5 1.7 -0.8
v -1.5 1.7 -0.9
v -1.5 1.8 -0.4
v -1.5 1.8 -0.5
v -1.5 1.8 -0.6
v -1.5 1.8 -0.7
v -1.5 1.8 -0.8
v -1.5 1.8 -0.9
v -1.4 1.4 -0.4
v -1.4 1.4 -0.5
v -1.4 1.4 -0.6
v -1.4 1.4 -0.7
v -1.4 1.4 -0.8
v -1.4 1.4 -0.9
v -1.4 1.5 -0.4
v -1.4 1.5 -0.5
v -1.4 1.5 -0.6
v -1.4 1.5 -0.7
v -1.4 1.5 -0.8
v -1.4 1.5 -0.9
v -1.3 1.7 -0.4
v -1.3 1.7 -0.5
v -1.3 1.7 -0.6
v -1.3 1.7 -0.7
v -1.3 1.7 -0.8
v -1.3 1.7 -0.9
v -1.3 1.8 -0.4
v -1.3 1.8 -0.5
v -1.3 1.8 -0.6
v -1.3 1.8 -0.7
v -1.3 1.8 -0.8
v -1.3 1.8 -0.9
v -1.2 1.4 -0.4
v -1.2 1.4 -0.5
v -1.2 1.4 -0.6
v -1.2 1.4 -0.7
v -1.2 1.4 -0.8
v -1.2 1.4 -0.9
v -1.2 1.5 -0.4
v -1.2 1.5 -0.5
v -1.2 1.5 -0.6
v -1.2 1.5 -0.7
v -1.2 1.5 -0.8
v -1.2 1.5 -0.9
v -1.1 1.7 -0.4
v -1.1 1.7 -0.5
v -1.1 1.7 -0.6
v -1.1 1.7 -0.7
v -1.1 1.7 -0.8
v -1.1 1.7 -0.9
v -1.1 1.8 -0.4
v -1.1 1.8 -0.5
v -1.1 1.8 -0.6
v -1.1 1.8 -0.7
v -1.1 1.8 -0.8
v -1.1 1.8 -0.9
v -1 1.4 -0.4
v -1 1.4 -0.5
v -1 1.4 -0.6
v -1 1.4 -0.7
v -1 1.4 -0.8
v -1 1.4 -0.9
v -1 1.5 -0.4
v -1 1.5 -0.5
v -1 1.5 -0.6
v -1 1.5 -0.7
v -1 1.5 -0.8
v -1 1.5 -0.9
v -0.9 1.7 -0.4
v -0.9 1.7 -0.5
v -0.9 1.7 -0.6
v -0.9 1.7 -0.7
v -0.9 1.7 -0.8
v -0.9 1.7 -0.9
v -0.9 1.8 -0.4
v -0.9 1.8 -0.5
v -0.9 1.8 -0.6
v -0.9 1.8 -0.7
v -0.9 1.8 -0.8
v -0.9 1.8 -0.9
v -0.8 1.4 -0.4
v -0.8 1.4 -0.5
v -0.8 1.4 -0.6
v -0.8 1.4 -0.7
v -0.8 1.4 -0.8
v -0.8 1.4 -0.9
v -0.8 1.5 -0.4
v -0.8 1.5 -0.5
v -0.8 1.5 -0.6
v -0.8 1.5 -0.7
v -0.8 1.5 -0.8
v -0.8 1.5 -0.9
v -0.7 1.7 -0.4
v -0.7 1.7 -0.5
v -0.7 1.7 -0.6
v -0.7 1.7 -0.7
v -0.7 1.7 -0.8
v -0.7 1.7 -0.9
v -0.7 1.8 -0.4
v -0.7 1.8 -0.5
v -0.7 1.8 -0.6
v -0.7 1.8 -0.7
v -0.7 1.8 -0.8
v -0.7 1.8 -0.9
v -0.6 1.4 -0.4
v -0.6 1.4 -0.5
v -0.6 1.4 -0.6
v -0.6 1.4 -0.7
v -0.6 1.4 -0.8
v -0.6 1.4 -0.9
v -0.6 1.5 -0.4
v -0.6 1.5 -0.5
v -0.6 1.5 -0.6
v -0.6 1.5 -0.7
v -0.6 1.5 -0.8
v -0.6 1.5 -0.9
v -1.5 1.4 -0.4
v -1.5 1.4 -0.5
v -1.5 1.4 -0.6
v -1.5 1.4 -0.7
v -1.5 1.4 -0.8
v -1.5 1.4 -0.9
v -1.5 1.5 -0.4
v -1.5 1.5 -0.5
v -1.5 1.5 -0.6
v -1.5 1.5 -0.7
v -1.5 1.5 -0.8
v -1.5 1.5 -0.9
v -1.4 1.7 -0.4
v -1.4 1.7 -0.5
v -1.4 1.7 -0.6
v -1.4 1.7 -0.7
v -1.4 1.7 -0.8
v -1.4 1.7 -0.9
v -1.4 1.8 -0.4
v -1.4 1.8 -0.5
v -1.4 1.8 -0.6
v -1.4 1.8 -0.7
v -1.4 1.8 -0.8
v -1.4 1.8 -0.9
v -1.3 1.4 -0.4
v -1.3 1.4 -0.5
v -1.3 1.4 -0.6
v -1.3 1.4 -0.7
v -1.3 1.4 -0.8
v -1.3 1.4 -0.9
v -1.3 1.5 -0.4
v -1.3 1.5 -0.5
v -1.3 1.5 -0.6
v -1.3 1.5 -0.7
v -1.3 1.5 -0.8
v -1.3 1.5 -0.9
v -1.2 1.7 -0.4
v -1.2 1.7 -0.5
v -1.2 1.7 -0.6
v -1.2 1.7 -0.7
v -1.2 1.7 -0.8
v -1.2 1.7 -0.9
v -1.2 1.8 -0.4
v -1.2 1.8 -0.5
v -1.2 1.8 -0.6
v -1.2 1.8 -0.7
v -1.2 1.8 -0.8
v -1.2 1.8 -0.9
v -1.1 1.4 -0.4
v -1.1 1.4 -0.5
v -1.1 1.4 -0.6
v -1.1 1.4 -0.7
v -1.1 1.4 -0.8
v -1.1 1.4 -0.9
v -1.1 1.5 -0.4
v -1.1 1.5 -0.5
v -1.1 1.5 -0.6
v -1.1 1.5 -0.7
v -1.1 1.5 -0.8
v -1.1 1.5 -0.9
v -1 1.7 -0.4
v -1 1.7 -0.5
v -1 1.7 -0.6
v -1 1.7 -0.7
v -1 1.7 -0.8
v -1 1.7 -0.9
v -1 1.8 -0.4
v -1 1.8 -0.5
v -1 1.8 -0.6
v -1 1.8 -0.7
v -1 1.8 -0.8
v -1 1.8 -0.9
v -0.9 1.4 -0.4
v -0.9 1.4 -0.5
v -0.9 1.4 -0.6
v -0.9 1.4 -0.7
v -0.9 1.4 -0.8
v -0.9 1.4 -0.9
v -0.9 1.5 -0.4
v -0.9 1.5 -0.5
v -0.9 1.5 -0.6
v -0.9 1.5 -0.7
v -0.9 1.5 -0.8
v -0.9 1.5 -0.9
v -0.8 1.7 -0.4
v -0.8 1.7 -0.5
v -0.8 1.7 -0.6
v -0.8 1.7 -0.7
v -0.8 1.7 -0.8
v -0.8 1.7 -0.9
v -0.8 1.8 -0.4
v -0.8 1.8 -0.5
v -0.8 1.8 -0.6
v -0.8 1.8 -0.7
v -0.8 1.8 -0.8
v -0.8 1.8 -0.9
v -0.7 1.4 -0.4
v -0.7 1.4 -0.5
v -0.7 1.4 -0.6
v -0.7 1.4 -0.7
v -0.7 1.4 -0.8
v -0.7 1.4 -0.9
v -0.7 1.5 -0.4
v -0.7 1.5 -0.5
v -0.7 1.5 -0.6
v -0.7 1.5 -0.7
v -0.7 1.5 -0.8
v -0.7 1.5 -0.9
v -0.6 1.7 -0.4
v -0.6 1.7 -0.5
v -0.6 1.7 -0.6
v -0.6 1.7 -0.7
v -0.6 1.7 -0.8
v -0.6 1.7 -0.9
v -0.6 1.8 -0.4
v -0.6 1.8 -0.5
v -0.6 1.8 -0.6
v -0.6 1.8 -0.7
v -0.6 1.8 -0.8
v -0.6 1.8 -0.9
v -0.5 1.4 -0.3
v -0.5 1.4 -1
v -0.5 1.5 -0.3
v -0.5 1.5 -1
v -1.6 1.4 -0.3
v -1.6 1.5 -0.3
v -0.5 1.4 -0.3
v -0.5 1.5 -0.3
v -1.5 1.7 -0.4
v -1.5 1.8 -0.4
v -1.4 1.7 -0.4
v -1.4 1.8 -0.4
v -1.3 1.7 -0.4
v -1.3 1.8 -0.4
v -1.2 1.7 -0.4
v -1.2 1.8 -0.4
v -1.1 1.7 -0.4
v -1.1 1.8 -0.4
v -1 1.7 -0.4
v -1 1.8 -0.4
v -0.9 1.7 -0.4
v -0.9 1.8 -0.4
v -0.8 1.7 -0.4
v -0.8 1.8 -0.4
v -0.7 1.7 -0.4
v -0.7 1.8 -0.4
v -0.6 1.7 -0.4
v -0.6 1.8 -0.4
v -1.5 1.4 -0.5
v -1.5 1.5 -0.5
v -1.4 1.4 -0.5
v -1.4 1.5 -0.5
v -1.3 1.4 -0.5
v -1.3 1.5 -0.5
v -1.2 1.4 -0.5
v -1.2 1.5 -0.5
v -1.1 1.4 -0.5
v -1.1 1.5 -0.5
v -1 1.4 -0.5
v -1 1.5 -0.5
v -0.9 1.4 -0.5
v -0.9 1.5 -0.5
v -0.8 1.4 -0.5
v -0.8 1.5 -0.5
v -0.7 1.4 -0.5
v -0.7 1.5 -0.5
v -0.6 1.4 -0.5
v -0.6 1.5 -0.5
v -1.5 1.7 -0.6
v -1.5 1.8 -0.6
v -1.4 1.7 -0.6
v -1.4 1.8 -0.6
v -1.3 1.7 -0.6
v -1.3 1.8 -0.6
v -1.2 1.7 -0.6
v -1.2 1.8 -0.6
v -1.1 1.7 -0.6
v -1.1 1.8 -0.6
v -1 1.7 -0.6
v -1 1.8 -0.6
v -0.9 1.7 -0.6
v -0.9 1.8 -0.6
v -0.8 1.7 -0.6
v -0.8 1.8 -0.6
v -0.7 1.7 -0.6
v -0.7 1.8 -0.6
v -0.6 1.7 -0.6
v -0.6 1.8 -0.6
v -1.5 1.4 -0.7
v -1.5 1.5 -0.7
v -1.4 1.4 -0.7
v -1.4 1.5 -0.7
v -1.3 1.4 -0.7
v -1.3 1.5 -0.7
v -1.2 1.4 -0.7
v -1.2 1.5 -0.7
v -1.1 1.4 -0.7
v -1.1 1.5 -0.7
v -1 1.4 -0.7
v -1 1.5 -0.7
v -0.9 1.4 -0.7
v -0.9 1.5 -0.7
v -0.8 1.4 -0.7
v -0.8 1.5 -0.7
v -0.7 1.4 -0.7
v -0.7 1.5 -0.7
v -0.6 1.4 -0.7
v -0.6 1.5 -0.7
v -1.5 1.7 -0.8
v -1.5 1.8 -0.8
v -1.4 1.7 -0.8
v -1.4 1.8 -0.8
v -1.3 1.7 -0.8
v -1.3 1.8 -0.8
v -1.2 1.7 -0.8
v -1.2 1.8 -0.8
v -1.1 1.7 -0.8
v -1.1 1.8 -0.8
v -1 1.7 -0.8
v -1 1.8 -0.8
v -0.9 1.7 -0.8
v -0.9 1.8 -0.8
v -0.8 1.7 -0.8
v -0.8 1.8 -0.8
v -0.7 1.7 -0.8
v -0.7 1.8 -0.8
v -0.6 1.7 -0.8
v -0.6 1.8 -0.8
v -1.5 1.4 -0.9
v -1.5 1.5 -0.9
v -1.4 1.4 -0.9
v -1.4 1.5 -0.9
v -1.3 1.4 -0.9
v -1.3 1.5 -0.9
v -1.2 1.4 -0.9
v -1.2 1.5 -0.9
v -1.1 1.4 -0.9
v -1.1 1.5 -0.9
v -1 1.4 -0.9
v -1 1.5 -0.9
v -0.9 1.4 -0.9
v -0.9 1.5 -0.9
v -0.8 1.4 -0.9
v -0.8 1.5 -0.9
v -0.7 1.4 -0.9
v -0.7 1.5 -0.9
v -0.6 1.4 -0.9
v -0.6 1.5 -0.9
v -1.5 1.4 -0.4
v -1.5 1.5 -0.4
v -1.4 1.4 -0.4
v -1.4 1.5 -0.4
v -1.3 1.4 -0.4
v -1.3 1.5 -0.4
v -1.2 1.4 -0.4
v -1.2 1.5 -0.4
v -1.1 1.4 -0.4
v -1.1 1.5 -0.4
v -1 1.4 -0.4
v -1 1.5 -0.4
v -0.9 1.4 -0.4
v -0.9 1.5 -0.4
v -0.8 1.4 -0.4
v -0.8 1.5 -0.4
v -0.7 1.4 -0.4
v -0.7 1.5 -0.4
v -0.6 1.4 -0.4
v -0.6 1.5 -0.4
v -1.5 1.7 -0.5
v -1.5 1.8 -0.5
v -1.4 1.7 -0.5
v -1.4 1.8 -0.5
v -1.3 1.7 -0.5
v -1.3 1.8 -0.5
v -1.2 1.7 -0.5
v -1.2 1.8 -0.5
v -1.1 1.7 -0.5
v -1.1 1.8 -0.5
v -1 1.7 -0.5
v -1 1.8 -0.5
v -0.9 1.7 -0.5
v -0.9 1.8 -0.5
v -0.8 1.7 -0.5
v -0.8 1.8 -0.5
v -0.7 1.7 -0.5
v -0.7 1.8 -0.5
v -0.6 1.7 -0.5
v -0.6 1.8 -0.5
v -1.5 1.4 -0.6
v -1.5 1.5 -0.6
v -1.4 1.4 -0.6
v -1.4 1.5 -0.6
v -1.3 1.4 -0.6
v -1.3 1.5 -0.6
v -1.2 1.4 -0.6
v -1.2 1.5 -0.6
v -1.1 1.4 -0.6
v -1.1 1.5 -0.6
v -1 1.4 -0.6
v -1 1.5 -0.6
v -0.9 1.4 -0.6
v -0.9 1.5 -0.6
v -0.8 1.4 -0.6
v -0.8 1.5 -0.6
v -0.7 1.4 -0.6
v -0.7 1.5 -0.6
v -0.6 1.4 -0.6
v -0.6 1.5 -0.6
v -1.5 1.7 -0.7
v -1.5 1.8 -0.7
v -1.4 1.7 -0.7
v -1.4 1.8 -0.7
v -1.3 1.7 -0.7
v -1.3 1.8 -0.7
v -1.2 1.7 -0.7
v -1.2 1.8 -0.7
v -1.1 1.7 -0.7
v -1.1 1.8 -0.7
v -1 1.7 -0.7
v -1 1.8 -0.7
v -0.9 1.7 -0.7
v -0.9 1.8 -0.7
v -0.8 1.7 -0.7
v -0.8 1.8 -0.7
v -0.7 1.7 -0.7
v -0.7 1.8 -0.7
v -0.6 1.7 -0.7
v -0.6 1.8 -0.7
v -1.5 1.4 -0.8
v -1.5 1.5 -0.8
v -1.4 1.4 -0.8
v -1.4 1.5 -0.8
v -1.3 1.4 -0.8
v -1.3 1.5 -0.8
v -1.2 1.4 -0.8
v -1.2 1.5 -0.8
v -1.1 1.4 -0.8
v -1.1 1.5 -0.8
v -1 1.4 -0.8
v -1 1.5 -0.8
v -0.9 1.4 -0.8
v -0.9 1.5 -0.8
v -0.8 1.4 -0.8
v -0.8 1.5 -0.8
v -0.7 1.4 -0.8
v -0.7 1.5 -0.8
v -0.6 1.4 -0.8
v -0.6 1.5 -0.8
v -1.5 1.7 -0.9
v -1.5 1.8 -0.9
v -1.4 1.7 -0.9
v -1.4 1.8 -0.9
v -1.3 1.7 -0.9
v -1.3 1.8 -0.9
v -1.2 1.7 -0.9
v -1.2 1.8 -0.9
v -1.1 1.7 -0.9
v -1.1 1.8 -0.9
v -1 1.7 -0.9
v -1 1.8 -0.9
v -0.9 1.7 -0.9
v -0.9 1.8 -0.9
v -0.8 1.7 -0.9
v -0.8 1.8 -0.9
v -0.7 1.7 -0.9
v -0.7 1.8 -0.9
v -0.6 1.7 -0.9
v -0.6 1.8 -0.9
v -1.6 1.4 -1
v -1.6 1.5 -1
v -0.5 1.4 -1
v -0.5 1.5 -1
v -1.6 1.4 -0.3
v -0.5 1.4 -0.3
v -1.5 1.4 -0.4
v -1.4 1.4 -0.4
v -1.3 1.4 -0.4
v -1.2 1.4 -0.4
v -1.1 1.4 -0.4
v -1 1.4 -0.4
v -0.9 1.4 -0.4
v -0.8 1.4 -0.4
v -0.7 1.4 -0.4
v -0.6 1.4 -0.4
v -1.5 1.4 -0.5
v -1.4 1.4 -0.5
v -1.3 1.4 -0.5
v -1.2 1.4 -0.5
v -1.1 1.4 -0.5
v -1 1.4 -0.5
v -0.9 1.4 -0.5
v -0.8 1.4 -0.5
v -0.7 1.4 -0.5
v -0.6 1.4 -0.5
v -1.5 1.4 -0.6
v -1.4 1.4 -0.6
v -1.3 1.4 -0.6
v -1.2 1.4 -0.6
v -1.1 1.4 -0.6
v -1 1.4 -0.6
v -0.9 1.4 -0.6
v -0.8 1.4 -0.6
v -0.7 1.4 -0.6
v -0.6 1.4 -0.6
v -1.5 1.4 -0.7
v -1.4 1.4 -0.7
v -1.3 1.4 -0.7
v -1.2 1.4 -0.7
v -1.1 1.4 -0.7
v -1 1.4 -0.7
v -0.9 1.4 -0.7
v -0.8 1.4 -0.7
v -0.7 1.4 -0.7
v -0.6 1.4 -0.7
v -1.5 1.4 -0.8
v -1.4 1.4 -0.8
v -1.3 1.4 -0.8
v -1.2 1.4 -0.8
v -1.1 1.4 -0.8
v -1 1.4 -0.8
v -0.9 1.4 -0.8
v -0.8 1.4 -0.8
v -0.7 1.4 -0.8
v -0.6 1.4 -0.8
v -1.5 1.4 -0.9
v -1.4 1.4 -0.9
v -1.3 1.4 -0.9
v -1.2 1.4 -0.9
v -1.1 1.4 -0.9
v -1 1.4 -0.9
v -0.9 1.4 -0.9
v -0.8 1.4 -0.9
v -0.7 1.4 -0.9
v -0.6 1.4 -0.9
v -1.6 1.4 -1
v -0.5 1.4 -1
v -1.5 1.7 -0.4
v -1.4 1.7 -0.4
v -1.3 1.7 -0.4
v -1.2 1.7 -0.4
v -1.1 1.7 -0.4
v -1 1.7 -0.4
v -0.9 1.7 -0.4
v -0.8 1.7 -0.4
v -0.7 1.7 -0.4
v -0.6 1.7 -0.4
v -1.5 1.7 -0.5
v -1.4 1.7 -0.5
v -1.3 1.7 -0.5
v -1.2 1.7 -0.5
v -1.1 1.7 -0.5
v -1 1.7 -0.5
v -0.9 1.7 -0.5
v -0.8 1.7 -0.5
v -0.7 1.7 -0.5
v -0.6 1.7 -0.5
v -1.5 1.7 -0.6
v -1.4 1.7 -0.6
v -1.3 1.7 -0.6
v -1.2 1.7 -0.6
v -1.1 1.7 -0.6
v -1 1.7 -0.6
v -0.9 1.7 -0.6
v -0.8 1.7 -0.6
v -0.7 1.7 -0.6
v -0.6 1.7 -0.6
v -1.5 1.7 -0.7
v -1.4 1.7 -0.7
v -1.3 1.7 -0.7
v -1.2 1.7 -0.7
v -1.1 1.7 -0.7
v -1 1.7 -0.7
v -0.9 1.7 -0.7
v -0.8 1.7 -0.7
v -0.7 1.7 -0.7
v -0.6 1.7 -0.7
v -1.5 1.7 -0.8
v -1.4 1.7 -0.8
v -1.3 1.7 -0.8
v -1.2 1.7 -0.8
v -1.1 1.7 -0.8
v -1 1.7 -0.8
v -0.9 1.7 -0.8
v -0.8 1.7 -0.8
v -0.7 1.7 -0.8
v -0.6 1.7 -0.8
v -1.5 1.7 -0.9
v -1.4 1.7 -0.9
v -1.3 1.7 -0.9
v -1.2 1.7 -0.9
v -1.1 1.7 -0.9
v -1 1.7 -0.9
v -0.9 1.7 -0.9
v -0.8 1.7 -0.9
v -0.7 1.7 -0.9
v -0.6 1.7 -0.9
v -1.6 1.5 -0.3
v -0.5 1.5 -0.3
v -1.5 1.5 -0.4
v -1.4 1.5 -0.4
v -1.3 1.5 -0.4
v -1.2 1.5 -0.4
v -1.1 1.5 -0.4
v -1 1.5 -0.4
v -0.9 1.5 -0.4
v -0.8 1.5 -0.4
v -0.7 1.5 -0.4
v -0.6 1.5 -0.4
v -1.5 1.5 -0.5
v -1.4 1.5 -0.5
v -1.3 1.5 -0.5
v -1.2 1.5 -0.5
v -1.1 1.5 -0.5
v -1 1.5 -0.5
v -0.9 1.5 -0.5
v -0.8 1.5 -0.5
v -0.7 1.5 -0.5
v -0.6 1.5 -0.5
v -1.5 1.5 -0.6
v -1.4 1.5 -0.6
v -1.3 1.5 -0.6
v -1.2 1.5 -0.6
v -1.1 1.5 -0.6
v -1 1.5 -0.6
v -0.9 1.5 -0.6
v -0.8 1.5 -0.6
v -0.7 1.5 -0.6
v -0.6 1.5 -0.6
v -1.5 1.5 -0.7
v -1.4 1.5 -0.7
v -1.3 1.5 -0.7
v -1.2 1.5 -0.7
v -1.1 1.5 -0.7
v -1 1.5 -0.7
v -0.9 1.5 -0.7
v -0.8 1.5 -0.7
v -0.7 1.5 -0.7
v -0.6 1.5 -0.7
v -1.5 1.5 -0.8
v -1.4 1.5 -0.8
v -1.3 1.5 -0.8
v -1.2 1.5 -0.8
v -1.1 1.5 -0.8
v -1 1.5 -0.8
v -0.9 1.5 -0.8
v -0.8 1.5 -0.8
v -0.7 1.5 -0.8
v -0.6 1.5 -0.8
v -1.5 1.5 -0.9
v -1.4 1.5 -0.9
v -1.3 1.5 -0.9
v -1.2 1.5 -0.9
v -1.1 1.5 -0.9
v -1 1.5 -0.9
v -0.9 1.5 -0.9
v -0.8 1.5 -0.9
v -0.7 1.5 -0.9
v -0.6 1.5 -0.9
v -1.6 1.5 -1
v -0.5 1.5 -1
v -1.5 1.8 -0.4
v -1.4 1.8 -0.4
v -1.3 1.8 -0.4
v -1.2 1.8 -0.4
v -1.1 1.8 -0.4
v -1 1.8 -0.4
v -0.9 1.8 -0.4
v -0.8 1.8 -0.4
v -0.7 1.8 -0.4
v -0.6 1.8 -0.4
v -1.5 1.8 -0.5
v -1.4 1.8 -0.5
v -1.3 1.8 -0.5
v -1.2 1.8 -0.5
v -1.1 1.8 -0.5
v -1 1.8 -0.5
v -0.9 1.8 -0.5
v -0.8 1.8 -0.5
v -0.7 1.8 -0.5
v -0.6 1.8 -0.5
v -1.5 1.8 -0.6
v -1.4 1.8 -0.6
v -1.3 1.8 -0.6
v -1.2 1.8 -0.6
v -1.1 1.8 -0.6
v -1 1.8 -0.6
v -0.9 1.8 -0.6
v -0.8 1.8 -0.6
v -0.7 1.8 -0.6
v -0.6 1.8 -0.6
v -1.5 1.8 -0.7
v -1.4 1.8 -0.7
v -1.3 1.8 -0.7
v -1.2 1.8 -0.7
v -1.1 1.8 -0.7
v -1 1.8 -0.7
v -0.9 1.8 -0.7
v -0.8 1.8 -0.7
v -0.7 1.8 -0.7
v -0.6 1.8 -0.7
v -1.5 1.8 -0.8
v -1.4 1.8 -0.8
v -1.3 1.8 -0.8
v -1.2 1.8 -0.8
v -1.1 1.8 -0.8
v -1 1.8 -0.8
v -0.9 1.8 -0.8
v -0.8 1.8 -0.8
v -0.7 1.8 -0.8
v -0.6 1.8 -0.8
v -1.5 1.8 -0.9
v -1.4 1.8 -0.9
v -1.3 1.8 -0.9
v -1.2 1.8 -0.9
v -1.1 1.8 -0.9
v -1 1.8 -0.9
v -0.9 1.8 -0.9
v -0.8 1.8 -0.9
v -0.7 1.8 -0.9
v -0.6 1.8 -0.9

# faces
f 3/4/1 2/4/1 1/4/1
f 4/4/1 2/4/1 3/4/1
f 11/3/1 6/3/1 5/3/1
f 12/3/1 6/3/1 11/3/1
f 13/2/1 8/2/1 7/2/1
f 14/2/1 8/2/1 13/2/1
f 15/1/1 10/1/1 9/1/1
f 16/1/1 10/1/1 15/1/1
f 23/4/1 18/4/1 17/4/1
f 24/4/1 18/4/1 23/4/1
f 25/4/1 20/4/1 19/4/1
f 26/4/1 20/4/1 25/4/1
f 27/4/1 22/4/1 21/4/1
f 28/4/1 22/4/1 27/4/1
f 35/3/1 30/3/1 29/3/1
f 36/3/1 30/3/1 35/3/1
f 37/2/1 32/2/1 31/2/1
f 38/2/1 32/2/1 37/2/1
f 39/1/1 34/1/1 33/1/1
f 40/1/1 34/1/1 39/1/1
f 47/4/1 42/4/1 41/4/1
f 48/4/1 42/4/1 47/4/1
f 49/4/1 44/4/1 43/4/1
f 50/4/1 44/4/1 49/4/1
f 51/4/1 46/4/1 45/4/1
f 52/4/1 46/4/1 51/4/1
f 59/3/1 54/3/1 53/3/1
f 60/3/1 54/3/1 59/3/1
f 61/2/1 56/2/1 55/2/1
f 62/2/1 56/2/1 61/2/1
f 63/1/1 58/1/1 57/1/1
f 64/1/1 58/1/1 63/1/1
f 71/4/1 66/4/1 65/4/1
f 72/4/1 66/4/1 71/4/1
f 73/4/1 68/4/1 67/4/1
f 74/4/1 68/4/1 73/4/1
f 75/4/1 70/4/1 69/4/1
f 76/4/1 70/4/1 75/4/1
f 83/3/1 78/3/1 77/3/1
f 84/3/1 78/3/1 83/3/1
f 85/2/1 80/2/1 79/2/1
f 86/2/1 80/2/1 85/2/1
f 87/1/1 82/1/1 81/1/1
f 88/1/1 82/1/1 87/1/1
f 95/4/1 90/4/1 89/4/1
f 96/4/1 90/4/1 95/4/1
f 97/4/1 92/4/1 91/4/1
f 98/4/1 92/4/1 97/4/1
f 99/4/1 94/4/1 93/4/1
f 100/4/1 94/4/1 99/4/1
f 107/3/1 102/3/1 101/3/1
f 108/3/1 102/3/1 107/3/1
f 109/2/1 104/2/1 103/2/1
f 110/2/1 104/2/1 109/2/1
f 111/1/1 106/1/1 105/1/1
f 112/1/1 106/1/1 111/1/1
f 119/4/1 114/4/1 113/4/1
f 120/4/1 114/4/1 119/4/1
f 121/4/1 116/4/1 115/4/1
f 122/4/1 116/4/1 121/4/1
f 123/4/1 118/4/1 117/4/1
f 124/4/1 118/4/1 123/4/1
f 125/4/2 126/4/2 131/4/2
f 131/4/2 126/4/2 132/4/2
f 127/4/2 128/4/2 133/4/2
f 133/4/2 128/4/2 134/4/2
f 129/4/2 130/4/2 135/4/2
f 135/4/2 130/4/2 136/4/2
f 137/3/2 138/3/2 143/3/2
f 143/3/2 138/3/2 144/3/2
f 139/2/2 140/2/2 145/2/2
f 145/2/2 140/2/2 146/2/2
f 141/1/2 142/1/2 147/1/2
f 147/1/2 142/1/2 148/1/2
f 149/4/2 150/4/2 155/4/2
f 155/4/2 150/4/2 156/4/2
f 151/4/2 152/4/2 157/4/2
f 157/4/2 152/4/2 158/4/2
f 153/4/2 154/4/2 159/4/2
f 159/4/2 154/4/2 160/4/2
f 161/3/2 162/3/2 167/3/2
f 167/3/2 162/3/2 168/3/2
f 163/2/2 164/2/2 169/2/2
f 169/2/2 164/2/2 170/2/2
f 165/1/2 166/1/2 171/1/2
f 171/1/2 166/1/2 172/1/2
f 173/4/2 174/4/2 179/4/2
f 179/4/2 174/4/2 180/4/2
f 175/4/2 176/4/2 181/4/2
f 181/4/2 176/4/2 182/4/2
f 177/4/2 178/4/2 183/4/2
f 183/4/2 178/4/2 184/4/2
f 185/3/2 186/3/2 191/3/2
f 191/3/2 186/3/2 192/3/2
f 187/2/2 188/2/2 193/2/2
f 193/2/2 188/2/2 194/2/2
f 189/1/2 190/1/2 195/1/2
f 195/1/2 190/1/2 196/1/2
f 197/4/2 198/4/2 203/4/2
f 203/4/2 198/4/2 204/4/2
f 199/4/2 200/4/2 205/4/2
f 205/4/2 200/4/2 206/4/2
f 201/4/2 202/4/2 207/4/2
f 207/4/2 202/4/2 208/4/2
f 209/3/2 210/3/2 215/3/2
f 215/3/2 210/3/2 216/3/2
f 211/2/2 212/2/2 217/2/2
f 217/2/2 212/2/2 218/2/2
f 213/1/2 214/1/2 219/1/2
f 219/1/2 214/1/2 220/1/2
f 221/4/2 222/4/2 227/4/2
f 227/4/2 222/4/2 228/4/2
f 223/4/2 224/4/2 229/4/2
f 229/4/2 224/4/2 230/4/2
f 225/4/2 226/4/2 231/4/2
f 231/4/2 226/4/2 232/4/2
f 233/3/2 234/3/2 239/3/2
f 239/3/2 234/3/2 240/3/2
f 235/2/2 236/2/2 241/2/2
f 241/2/2 236/2/2 242/2/2
f 237/1/2 238/1/2 243/1/2
f 243/1/2 238/1/2 244/1/2
f 245/4/2 246/4/2 247/4/2
f 247/4/2 246/4/2 248/4/2
f 251/4/3 250/4/3 249/4/3
f 252/4/3 250/4/3 251/4/3
f 255/3/3 254/3/3 253/3/3
f 256/3/3 254/3/3 255/3/3
f 259/3/3 258/3/3 257/3/3
f 260/3/3 258/3/3 259/3/3
f 263/3/3 262/3/3 261/3/3
f 264/3/3 262/3/3 263/3/3
f 267/3/3 266/3/3 265/3/3
f 268/3/3 266/3/3 267/3/3
f 271/3/3 270/3/3 269/3/3
f 272/3/3 270/3/3 271/3/3
f 275/4/3 274/4/3 273/4/3
f 276/4/3 274/4/3 275/4/3
f 279/4/3 278/4/3 277/4/3
f 280/4/3 278/4/3 279/4/3
f 283/4/3 282/4/3 281/4/3
f 284/4/3 282/4/3 283/4/3
f 287/4/3 286/4/3 285/4/3
f 288/4/3 286/4/3 287/4/3
f 291/4/3 290/4/3 289/4/3
f 292/4/3 290/4/3 291/4/3
f 295/2/3 294/2/3 293/2/3
f 296/2/3 294/2/3 295/2/3
f 299/2/3 298/2/3 297/2/3
f 300/2/3 298/2/3 299/2/3
f 303/2/3 302/2/3 301/2/3
f 304/2/3 302/2/3 303/2/3
f 307/2/3 306/2/3 305/2/3
f 308/2/3 306/2/3 307/2/3
f 311/2/3 310/2/3 309/2/3
f 312/2/3 310/2/3 311/2/3
f 315/4/3 314/4/3 313/4/3
f 316/4/3 314/4/3 315/4/3
f 319/4/3 318/4/3 317/4/3
f 320/4/3 318/4/3 319/4/3
f 323/4/3 322/4/3 321/4/3
f 324/4/3 322/4/3 323/4/3
f 327/4/3 326/4/3 325/4/3
f 328/4/3 326/4/3 327/4/3
f 331/4/3 330/4/3 329/4/3
f 332/4/3 330/4/3 331/4/3
f 335/1/3 334/1/3 333/1/3
f 336/1/3 334/1/3 335/1/3
f 339/1/3 338/1/3 337/1/3
f 340/1/3 338/1/3 339/1/3
f 343/1/3 342/1/3 341/1/3
f 344/1/3 342/1/3 343/1/3
f 347/1/3 346/1/3 345/1/3
f 348/1/3 346/1/3 347/1/3
f 351/1/3 350/1/3 349/1/3
f 352/1/3 350/1/3 351/1/3
f 355/4/3 354/4/3 353/4/3
f 356/4/3 354/4/3 355/4/3
f 359/4/3 358/4/3 357/4/3
f 360/4/3 358/4/3 359/4/3
f 363/4/3 362/4/3 361/4/3
f 364/4/3 362/4/3 363/4/3
f 367/4/3 366/4/3 365/4/3
f 368/4/3 366/4/3 367/4/3
f 371/4/3 370/4/3 369/4/3
f 372/4/3 370/4/3 371/4/3
f 373/4/4 374/4/4 375/4/4
f 375/4/4 374/4/4 376/4/4
f 377/4/4 378/4/4 379/4/4
f 379/4/4 378/4/4 380/4/4
f 381/4/4 382/4/4 383/4/4
f 383/4/4 382/4/4 384/4/4
f 385/4/4 386/4/4 387/4/4
f 387/4/4 386/4/4 388/4/4
f 389/4/4 390/4/4 391/4/4
f 391/4/4 390/4/4 392/4/4
f 393/3/4 394/3/4 395/3/4
f 395/3/4 394/3/4 396/3/4
f 397/3/4 398/3/4 399/3/4
f 399/3/4 398/3/4 400/3/4
f 401/3/4 402/3/4 403/3/4
f 403/3/4 402/3/4 404/3/4
f 405/3/4 406/3/4 407/3/4
f 407/3/4 406/3/4 408/3/4
f 409/3/4 410/3/4 411/3/4
f 411/3/4 410/3/4 412/3/4
f 413/4/4 414/4/4 415/4/4
f 415/4/4 414/4/4 416/4/4
f 417/4/4 418/4/4 419/4/4
f 419/4/4 418/4/4 420/4/4
f 421/4/4 422/4/4 423/4/4
f 423/4/4 422/4/4 424/4/4
f 425/4/4 426/4/4 427/4/4
f 427/4/4 426/4/4 428/4/4
f 429/4/4 430/4/4 431/4/4
f 431/4/4 430/4/4 432/4/4
f 433/2/4 434/2/4 435/2/4
f 435/2/4 434/2/4 436/2/4
f 437/2/4 438/2/4 439/2/4
f 439/2/4 438/2/4 440/2/4
f 441/2/4 442/2/4 443/2/4
f 443/2/4 442/2/4 444/2/4
f 445/2/4 446/2/4 447/2/4
f 447/2/4 446/2/4 448/2/4
f 449/2/4 450/2/4 451/2/4
f 451/2/4 450/2/4 452/2/4
f 453/4/4 454/4/4 455/4/4
f 455/4/4 454/4/4 456/4/4
f 457/4/4 458/4/4 459/4/4
f 459/4/4 458/4/4 460/4/4
f 461/4/4 462/4/4 463/4/4
f 463/4/4 462/4/4 464/4/4
f 465/4/4 466/4/4 467/4/4
f 467/4/4 466/4/4 468/4/4
f 469/4/4 470/4/4 471/4/4
f 471/4/4 470/4/4 472/4/4
f 473/1/4 474/1/4 475/1/4
f 475/1/4 474/1/4 476/1/4
f 477/1/4 478/1/4 479/1/4
f 479/1/4 478/1/4 480/1/4
f 481/1/4 482/1/4 483/1/4
f 483/1/4 482/1/4 484/1/4
f 485/1/4 486/1/4 487/1/4
f 487/1/4 486/1/4 488/1/4
f 489/1/4 490/1/4 491/1/4
f 491/1/4 490/1/4 492/1/4
f 493/4/4 494/4/4 495/4/4
f 495/4/4 494/4/4 496/4/4
f 499/4/5 498/4/5 497/4/5
f 500/4/5 498/4/5 499/4/5
f 501/4/5 498/4/5 500/4/5
f 502/4/5 498/4/5 501/4/5
f 503/4/5 498/4/5 502/4/5
f 504/4/5 498/4/5 503/4/5
f 505/4/5 498/4/5 504/4/5
f 506/4/5 498/4/5 505/4/5
f 507/4/5 498/4/5 506/4/5
f 508/4/5 498/4/5 507/4/5
f 509/4/5 499/4/5 497/4/5
f 510/4/5 501/4/5 500/4/5
f 511/4/5 501/4/5 510/4/5
f 512/4/5 503/4/5 502/4/5
f 513/4/5 503/4/5 512/4/5
f 514/4/5 505/4/5 504/4/5
f 515/4/5 505/4/5 514/4/5
f 516/4/5 507/4/5 506/4/5
f 517/4/5 507/4/5 516/4/5
f 518/4/5 498/4/5 508/4/5
f 519/4/5 517/4/5 516/4/5
f 519/4/5 518/4/5 517/4/5
f 519/4/5 515/4/5 514/4/5
f 519/4/5 509/4/5 497/4/5
f 519/4/5 516/4/5 515/4/5
f 519/4/5 513/4/5 512/4/5
f 519/4/5 514/4/5 513/4/5
f 519/4/5 511/4/5 510/4/5
f 519/4/5 512/4/5 511/4/5
f 519/4/5 510/4/5 509/4/5
f 520/4/5 518/4/5 519/4/5
f 521/4/5 518/4/5 520/4/5
f 522/4/5 518/4/5 521/4/5
f 523/4/5 518/4/5 522/4/5
f 524/4/5 518/4/5 523/4/5
f 525/4/5 518/4/5 524/4/5
f 526/4/5 518/4/5 525/4/5
f 527/4/5 518/4/5 526/4/5
f 528/4/5 498/4/5 518/4/5
f 528/4/5 518/4/5 527/4/5
f 529/4/5 519/4/5 497/4/5
f 530/4/5 521/4/5 520/4/5
f 531/4/5 521/4/5 530/4/5
f 532/4/5 523/4/5 522/4/5
f 533/4/5 523/4/5 532/4/5
f 534/4/5 525/4/5 524/4/5
f 535/4/5 525/4/5 534/4/5
f 536/4/5 527/4/5 526/4/5
f 537/4/5 527/4/5 536/4/5
f 538/4/5 498/4/5 528/4/5
f 539/4/5 535/4/5 534/4/5
f 539/4/5 538/4/5 537/4/5
f 539/4/5 537/4/5 536/4/5
f 539/4/5 533/4/5 532/4/5
f 539/4/5 536/4/5 535/4/5
f 539/4/5 529/4/5 497/4/5
f 539/4/5 534/4/5 533/4/5
f 539/4/5 531/4/5 530/4/5
f 539/4/5 532/4/5 531/4/5
f 539/4/5 530/4/5 529/4/5
f 540/4/5 538/4/5 539/4/5
f 541/4/5 538/4/5 540/4/5
f 542/4/5 538/4/5 541/4/5
f 543/4/5 538/4/5 542/4/5
f 544/4/5 538/4/5 543/4/5
f 545/4/5 538/4/5 544/4/5
f 546/4/5 538/4/5 545/4/5
f 547/4/5 538/4/5 546/4/5
f 548/4/5 498/4/5 538/4/5
f 548/4/5 538/4/5 547/4/5
f 549/4/5 539/4/5 497/4/5
f 550/4/5 541/4/5 540/4/5
f 551/4/5 541/4/5 550/4/5
f 552/4/5 543/4/5 542/4/5
f 553/4/5 543/4/5 552/4/5
f 554/4/5 545/4/5 544/4/5
f 555/4/5 545/4/5 554/4/5
f 556/4/5 547/4/5 546/4/5
f 557/4/5 547/4/5 556/4/5
f 558/4/5 498/4/5 548/4/5
f 559/4/5 555/4/5 554/4/5
f 559/4/5 558/4/5 557/4/5
f 559/4/5 557/4/5 556/4/5
f 559/4/5 553/4/5 552/4/5
f 559/4/5 556/4/5 555/4/5
f 559/4/5 549/4/5 497/4/5
f 559/4/5 554/4/5 553/4/5
f 559/4/5 551/4/5 550/4/5
f 559/4/5 552/4/5 551/4/5
f 559/4/5 550/4/5 549/4/5
f 560/4/5 498/4/5 558/4/5
f 560/4/5 558/4/5 559/4/5
f 571/3/5 562/3/5 561/3/5
f 572/3/5 562/3/5 571/3/5
f 573/3/5 564/3/5 563/3/5
f 574/3/5 564/3/5 573/3/5
f 575/3/5 566/3/5 565/3/5
f 576/3/5 566/3/5 575/3/5
f 577/3/5 568/3/5 567/3/5
f 578/3/5 568/3/5 577/3/5
f 579/3/5 570/3/5 569/3/5
f 580/3/5 570/3/5 579/3/5
f 591/2/5 582/2/5 581/2/5
f 592/2/5 582/2/5 591/2/5
f 593/2/5 584/2/5 583/2/5
f 594/2/5 584/2/5 593/2/5
f 595/2/5 586/2/5 585/2/5
f 596/2/5 586/2/5 595/2/5
f 597/2/5 588/2/5 587/2/5
f 598/2/5 588/2/5 597/2/5
f 599/2/5 590/2/5 589/2/5
f 600/2/5 590/2/5 599/2/5
f 611/1/5 602/1/5 601/1/5
f 612/1/5 602/1/5 611/1/5
f 613/1/5 604/1/5 603/1/5
f 614/1/5 604/1/5 613/1/5
f 615/1/5 606/1/5 605/1/5
f 616/1/5 606/1/5 615/1/5
f 617/1/5 608/1/5 607/1/5
f 618/1/5 608/1/5 617/1/5
f 619/1/5 610/1/5 609/1/5
f 620/1/5 610/1/5 619/1/5
f 621/4/6 622/4/6 623/4/6
f 623/4/6 622/4/6 624/4/6
f 624/4/6 622/4/6 625/4/6
f 625/4/6 622/4/6 626/4/6
f 626/4/6 622/4/6 627/4/6
f 627/4/6 622/4/6 628/4/6
f 628/4/6 622/4/6 629/4/6
f 629/4/6 622/4/6 630/4/6
f 630/4/6 622/4/6 631/4/6
f 631/4/6 622/4/6 632/4/6
f 621/4/6 623/4/6 633/4/6
f 624/4/6 625/4/6 634/4/6
f 634/4/6 625/4/6 635/4/6
f 626/4/6 627/4/6 636/4/6
f 636/4/6 627/4/6 637/4/6
f 628/4/6 629/4/6 638/4/6
f 638/4/6 629/4/6 639/4/6
f 630/4/6 631/4/6 640/4/6
f 640/4/6 631/4/6 641/4/6
f 632/4/6 622/4/6 642/4/6
f 640/4/6 641/4/6 643/4/6
f 641/4/6 642/4/6 643/4/6
f 638/4/6 639/4/6 643/4/6
f 621/4/6 633/4/6 643/4/6
f 639/4/6 640/4/6 643/4/6
f 636/4/6 637/4/6 643/4/6
f 637/4/6 638/4/6 643/4/6
f 634/4/6 635/4/6 643/4/6
f 635/4/6 636/4/6 643/4/6
f 633/4/6 634/4/6 643/4/6
f 643/4/6 642/4/6 644/4/6
f 644/4/6 642/4/6 645/4/6
f 645/4/6 642/4/6 646/4/6
f 646/4/6 642/4/6 647/4/6
f 647/4/6 642/4/6 648/4/6
f 648/4/6 642/4/6 649/4/6
f 649/4/6 642/4/6 650/4/6
f 650/4/6 642/4/6 651/4/6
f 642/4/6 622/4/6 652/4/6
f 651/4/6 642/4/6 652/4/6
f 621/4/6 643/4/6 653/4/6
f 644/4/6 645/4/6 654/4/6
f 654/4/6 645/4/6 655/4/6
f 646/4/6 647/4/6 656/4/6
f 656/4/6 647/4/6 657/4/6
f 648/4/6 649/4/6 658/4/6
f 658/4/6 649/4/6 659/4/6
f 650/4/6 651/4/6 660/4/6
f 660/4/6 651/4/6 661/4/6
f 652/4/6 622/4/6 662/4/6
f 658/4/6 659/4/6 663/4/6
f 661/4/6 662/4/6 663/4/6
f 660/4/6 661/4/6 663/4/6
f 656/4/6 657/4/6 663/4/6
f 659/4/6 660/4/6 663/4/6
f 621/4/6 653/4/6 663/4/6
f 657/4/6 658/4/6 663/4/6
f 654/4/6 655/4/6 663/4/6
f 655/4/6 656/4/6 663/4/6
f 653/4/6 654/4/6 663/4/6
f 663/4/6 662/4/6 664/4/6
f 664/4/6 662/4/6 665/4/6
f 665/4/6 662/4/6 666/4/6
f 666/4/6 662/4/6 667/4/6
f 667/4/6 662/4/6 668/4/6
f 668/4/6 662/4/6 669/4/6
f 669/4/6 662/4/6 670/4/6
f 670/4/6 662/4/6 671/4/6
f 662/4/6 622/4/6 672/4/6
f 671/4/6 662/4/6 672/4/6
f 621/4/6 663/4/6 673/4/6
f 664/4/6 665/4/6 674/4/6
f 674/4/6 665/4/6 675/4/6
f 666/4/6 667/4/6 676/4/6
f 676/4/6 667/4/6 677/4/6
f 668/4/6 669/4/6 678/4/6
f 678/4/6 669/4/6 679/4/6
f 670/4/6 671/4/6 680/4/6
f 680/4/6 671/4/6 681/4/6
f 672/4/6 622/4/6 682/4/6
f 678/4/6 679/4/6 683/4/6
f 681/4/6 682/4/6 683/4/6
f 680/4/6 681/4/6 683/4/6
f 676/4/6 677/4/6 683/4/6
f 679/4/6 680/4/6 683/4/6
f 621/4/6 673/4/6 683/4/6
f 677/4/6 678/4/6 683/4/6
f 674/4/6 675/4/6 683/4/6
f 675/4/6 676/4/6 683/4/6
f 673/4/6 674/4/6 683/4/6
f 682/4/6 622/4/6 684/4/6
f 683/4/6 682/4/6 684/4/6
f 685/3/6 686/3/6 695/3/6
f 695/3/6 686/3/6 696/3/6
f 687/3/6 688/3/6 697/3/6
f 697/3/6 688/3/6 698/3/6
f 689/3/6 690/3/6 699/3/6
f 699/3/6 690/3/6 700/3/6
f 691/3/6 692/3/6 701/3/6
f 701/3/6 692/3/6 702/3/6
f 693/3/6 694/3/6 703/3/6
f 703/3/6 694/3/6 704/3/6
f 705/2/6 706/2/6 715/2/6
f 715/2/6 706/2/6 716/2/6
f 707/2/6 708/2/6 717/2/6
f 717/2/6 708/2/6 718/2/6
f 709/2/6 710/2/6 719/2/6
f 719/2/6 710/2/6 720/2/6
f 711/2/6 712/2/6 721/2/6
f 721/2/6 712/2/6 722/2/6
f 713/2/6 714/2/6 723/2/6
f 723/2/6 714/2/6 724/2/6
f 725/1/6 726/1/6 735/1/6
f 735/1/6 726/1/6 736/1/6
f 727/1/6 728/1/6 737/1/6
f 737/1/6 728/1/6 738/1/6
f 729/1/6 730/1/6 739/1/6
f 739/1/6 730/1/6 740/1/6
f 731/1/6 732/1/6 741/1/6
f 741/1/6 732/1/6 742/1/6
f 733/1/6 734/1/6 743/1/6
f 743/1/6 734/1/6 744/1/6
