# MagicaVoxel @ Ephtracy

# group
o 

# material
mtllib wallPanel.mtl
usemtl palette

# normals
vn -1 0 0
vn 1 0 0
vn 0 0 1
vn 0 0 -1
vn 0 -1 0
vn 0 1 0

# texcoords
vt 0.302734 0.5
vt 0.353516 0.5
vt 0.361328 0.5
vt 0.365234 0.5
vt 0.451172 0.5
vt 0.455078 0.5

# verts
v -2.6 0 0.0999999
v -2.6 0 -5.96046e-08
v -2.6 4.1 0.0999999
v -2.6 4.1 -5.96046e-08
v -2 1.6 0.2
v -2 1.6 0.0999999
v -2 2.6 0.2
v -2 2.6 0.0999999
v -1.9 0.7 0.2
v -1.9 0.7 0.0999999
v -1.9 1 0.2
v -1.9 1 0.0999999
v 0.2 2.7 0.2
v 0.2 2.7 0.0999999
v 0.2 3.1 0.2
v 0.2 3.1 0.0999999
v 0.4 2.7 0.2
v 0.4 2.7 0.0999999
v 0.4 2.9 0.2
v 0.4 2.9 0.0999999
v 0.6 2.7 0.2
v 0.6 2.7 0.0999999
v 0.6 3.1 0.2
v 0.6 3.1 0.0999999
v 0.8 2.7 0.2
v 0.8 2.7 0.0999999
v 0.8 2.9 0.2
v 0.8 2.9 0.0999999
v 1 2.7 0.2
v 1 2.7 0.0999999
v 1 3.1 0.2
v 1 3.1 0.0999999
v 1.1 0.7 0.2
v 1.1 0.7 0.0999999
v 1.1 0.9 0.2
v 1.1 0.9 0.0999999
v 1.2 2.7 0.2
v 1.2 2.7 0.0999999
v 1.2 2.9 0.2
v 1.2 2.9 0.0999999
v -1.8 0.7 0.2
v -1.8 0.7 0.0999999
v -1.8 0.9 0.2
v -1.8 0.9 0.0999999
v -0.6 1.6 0.2
v -0.6 1.6 0.0999999
v -0.6 2.6 0.2
v -0.6 2.6 0.0999999
v 0.3 2.7 0.2
v 0.3 2.7 0.0999999
v 0.3 2.9 0.2
v 0.3 2.9 0.0999999
v 0.5 2.7 0.2
v 0.5 2.7 0.0999999
v 0.5 3.1 0.2
v 0.5 3.1 0.0999999
v 0.7 2.7 0.2
v 0.7 2.7 0.0999999
v 0.7 2.9 0.2
v 0.7 2.9 0.0999999
v 0.9 2.7 0.2
v 0.9 2.7 0.0999999
v 0.9 3.1 0.2
v 0.9 3.1 0.0999999
v 1.1 2.7 0.2
v 1.1 2.7 0.0999999
v 1.1 2.9 0.2
v 1.1 2.9 0.0999999
v 1.2 0.7 0.2
v 1.2 0.7 0.0999999
v 1.2 1 0.2
v 1.2 1 0.0999999
v 1.3 2.7 0.2
v 1.3 2.7 0.0999999
v 1.3 3.1 0.2
v 1.3 3.1 0.0999999
v 1.9 0 0.0999999
v 1.9 0 -5.96046e-08
v 1.9 4.1 0.0999999
v 1.9 4.1 -5.96046e-08
v -2 1.6 0.2
v -2 2.6 0.2
v -1.9 0.7 0.2
v -1.9 1 0.2
v -1.8 0.7 0.2
v -1.8 0.9 0.2
v -1.8 1.8 0.2
v -1.8 2 0.2
v -1.8 2.2 0.2
v -1.8 2.4 0.2
v -0.8 1.8 0.2
v -0.8 2 0.2
v -0.8 2.2 0.2
v -0.8 2.4 0.2
v -0.6 1.6 0.2
v -0.6 2.6 0.2
v 0.2 2.7 0.2
v 0.2 3.1 0.2
v 0.3 2.7 0.2
v 0.3 2.9 0.2
v 0.4 2.7 0.2
v 0.4 2.9 0.2
v 0.5 2.7 0.2
v 0.5 3.1 0.2
v 0.6 2.7 0.2
v 0.6 3.1 0.2
v 0.7 2.7 0.2
v 0.7 2.9 0.2
v 0.8 2.7 0.2
v 0.8 2.9 0.2
v 0.9 2.7 0.2
v 0.9 3.1 0.2
v 1 2.7 0.2
v 1 3.1 0.2
v 1.1 0.7 0.2
v 1.1 0.9 0.2
v 1.1 2.7 0.2
v 1.1 2.9 0.2
v 1.2 0.7 0.2
v 1.2 1 0.2
v 1.2 2.7 0.2
v 1.2 2.9 0.2
v 1.3 2.7 0.2
v 1.3 3.1 0.2
v -2.6 0 0.0999999
v -2.6 4.1 0.0999999
v -2.4 0.3 0.0999999
v -2.4 3.8 0.0999999
v -2.3 0.2 0.0999999
v -2.3 0.3 0.0999999
v -2.3 0.4 0.0999999
v -2.3 3.7 0.0999999
v -2.3 3.8 0.0999999
v -2.3 3.9 0.0999999
v -2.2 0.3 0.0999999
v -2.2 0.4 0.0999999
v -2.2 0.5 0.0999999
v -2.2 3.6 0.0999999
v -2.2 3.7 0.0999999
v -2.2 3.8 0.0999999
v -2.1 0.4 0.0999999
v -2.1 0.5 0.0999999
v -2.1 3.6 0.0999999
v -2.1 3.7 0.0999999
v -2 1.6 0.0999999
v -2 2.6 0.0999999
v -2 3.1 0.0999999
v -2 3.2 0.0999999
v -2 3.3 0.0999999
v -2 3.4 0.0999999
v -2 3.5 0.0999999
v -1.9 0.7 0.0999999
v -1.9 1 0.0999999
v -1.8 0.6 0.0999999
v -1.8 0.7 0.0999999
v -1.8 0.9 0.0999999
v -1.7 0.7 0.0999999
v -1.7 0.9 0.0999999
v -1.7 3.1 0.0999999
v -1.7 3.2 0.0999999
v -1.7 3.3 0.0999999
v -1.7 3.4 0.0999999
v -1.7 3.5 0.0999999
v -1.6 3.1 0.0999999
v -1.6 3.2 0.0999999
v -1.6 3.3 0.0999999
v -1.6 3.4 0.0999999
v -1.6 3.5 0.0999999
v -1.4 3.1 0.0999999
v -1.4 3.2 0.0999999
v -1.4 3.3 0.0999999
v -1.4 3.4 0.0999999
v -1.4 3.5 0.0999999
v -0.6 1.6 0.0999999
v -0.6 2.6 0.0999999
v 0.2 2.7 0.0999999
v 0.2 3.1 0.0999999
v 0.3 2.7 0.0999999
v 0.3 2.9 0.0999999
v 0.4 2.7 0.0999999
v 0.4 2.9 0.0999999
v 0.5 2.7 0.0999999
v 0.5 3.1 0.0999999
v 0.6 2.7 0.0999999
v 0.6 3.1 0.0999999
v 0.6 3.3 0.0999999
v 0.6 3.5 0.0999999
v 0.7 2.7 0.0999999
v 0.7 2.9 0.0999999
v 0.8 2.7 0.0999999
v 0.8 2.9 0.0999999
v 0.8 3.3 0.0999999
v 0.8 3.5 0.0999999
v 0.9 2.7 0.0999999
v 0.9 3.1 0.0999999
v 1 0.7 0.0999999
v 1 0.9 0.0999999
v 1 2.7 0.0999999
v 1 3.1 0.0999999
v 1 3.3 0.0999999
v 1 3.5 0.0999999
v 1.1 0.6 0.0999999
v 1.1 0.7 0.0999999
v 1.1 0.9 0.0999999
v 1.1 2.7 0.0999999
v 1.1 2.9 0.0999999
v 1.2 0.7 0.0999999
v 1.2 1 0.0999999
v 1.2 2.7 0.0999999
v 1.2 2.9 0.0999999
v 1.2 3.3 0.0999999
v 1.2 3.5 0.0999999
v 1.3 2.7 0.0999999
v 1.3 3.1 0.0999999
v 1.4 0.4 0.0999999
v 1.4 0.5 0.0999999
v 1.4 3.6 0.0999999
v 1.4 3.7 0.0999999
v 1.5 0.3 0.0999999
v 1.5 0.4 0.0999999
v 1.5 0.5 0.0999999
v 1.5 3.6 0.0999999
v 1.5 3.7 0.0999999
v 1.5 3.8 0.0999999
v 1.6 0.2 0.0999999
v 1.6 0.3 0.0999999
v 1.6 0.4 0.0999999
v 1.6 3.7 0.0999999
v 1.6 3.8 0.0999999
v 1.6 3.9 0.0999999
v 1.7 0.3 0.0999999
v 1.7 3.8 0.0999999
v 1.9 0 0.0999999
v 1.9 4.1 0.0999999
v -2.6 0 -5.96046e-08
v -2.6 4.1 -5.96046e-08
v -2.4 0.3 -5.96046e-08
v -2.4 3.8 -5.96046e-08
v -2.3 0.2 -5.96046e-08
v -2.3 0.3 -5.96046e-08
v -2.3 0.4 -5.96046e-08
v -2.3 3.7 -5.96046e-08
v -2.3 3.8 -5.96046e-08
v -2.3 3.9 -5.96046e-08
v -2.2 0.3 -5.96046e-08
v -2.2 0.4 -5.96046e-08
v -2.2 0.5 -5.96046e-08
v -2.2 3.6 -5.96046e-08
v -2.2 3.7 -5.96046e-08
v -2.2 3.8 -5.96046e-08
v -2.1 0.4 -5.96046e-08
v -2.1 0.5 -5.96046e-08
v -2.1 3.6 -5.96046e-08
v -2.1 3.7 -5.96046e-08
v -2 3.1 -5.96046e-08
v -2 3.2 -5.96046e-08
v -2 3.3 -5.96046e-08
v -2 3.4 -5.96046e-08
v -2 3.5 -5.96046e-08
v -1.8 0.6 -5.96046e-08
v -1.8 0.9 -5.96046e-08
v -1.7 0.7 -5.96046e-08
v -1.7 0.9 -5.96046e-08
v -1.7 3.1 -5.96046e-08
v -1.7 3.2 -5.96046e-08
v -1.7 3.3 -5.96046e-08
v -1.7 3.4 -5.96046e-08
v -1.7 3.5 -5.96046e-08
v -1.6 3.1 -5.96046e-08
v -1.6 3.2 -5.96046e-08
v -1.6 3.3 -5.96046e-08
v -1.6 3.4 -5.96046e-08
v -1.6 3.5 -5.96046e-08
v -1.4 3.1 -5.96046e-08
v -1.4 3.2 -5.96046e-08
v -1.4 3.3 -5.96046e-08
v -1.4 3.4 -5.96046e-08
v -1.4 3.5 -5.96046e-08
v 0.3 2.7 -5.96046e-08
v 0.3 2.9 -5.96046e-08
v 0.4 2.7 -5.96046e-08
v 0.4 2.9 -5.96046e-08
v 0.6 3.3 -5.96046e-08
v 0.6 3.5 -5.96046e-08
v 0.7 2.7 -5.96046e-08
v 0.7 2.9 -5.96046e-08
v 0.8 2.7 -5.96046e-08
v 0.8 2.9 -5.96046e-08
v 0.8 3.3 -5.96046e-08
v 0.8 3.5 -5.96046e-08
v 1 0.7 -5.96046e-08
v 1 0.9 -5.96046e-08
v 1 3.3 -5.96046e-08
v 1 3.5 -5.96046e-08
v 1.1 0.6 -5.96046e-08
v 1.1 0.9 -5.96046e-08
v 1.1 2.7 -5.96046e-08
v 1.1 2.9 -5.96046e-08
v 1.2 2.7 -5.96046e-08
v 1.2 2.9 -5.96046e-08
v 1.2 3.3 -5.96046e-08
v 1.2 3.5 -5.96046e-08
v 1.4 0.4 -5.96046e-08
v 1.4 0.5 -5.96046e-08
v 1.4 3.6 -5.96046e-08
v 1.4 3.7 -5.96046e-08
v 1.5 0.3 -5.96046e-08
v 1.5 0.4 -5.96046e-08
v 1.5 0.5 -5.96046e-08
v 1.5 3.6 -5.96046e-08
v 1.5 3.7 -5.96046e-08
v 1.5 3.8 -5.96046e-08
v 1.6 0.2 -5.96046e-08
v 1.6 0.3 -5.96046e-08
v 1.6 0.4 -5.96046e-08
v 1.6 3.7 -5.96046e-08
v 1.6 3.8 -5.96046e-08
v 1.6 3.9 -5.96046e-08
v 1.7 0.3 -5.96046e-08
v 1.7 3.8 -5.96046e-08
v 1.9 0 -5.96046e-08
v 1.9 4.1 -5.96046e-08
v -2.6 0 0.0999999
v 1.9 0 0.0999999
v -2.6 0 -5.96046e-08
v 1.9 0 -5.96046e-08
v -1.9 0.7 0.2
v -1.8 0.7 0.2
v 1.1 0.7 0.2
v 1.2 0.7 0.2
v -1.9 0.7 0.0999999
v -1.8 0.7 0.0999999
v 1.1 0.7 0.0999999
v 1.2 0.7 0.0999999
v -1.8 0.9 0.2
v 1.1 0.9 0.2
v -1.8 0.9 0.0999999
v -1.7 0.9 0.0999999
v 1 0.9 0.0999999
v 1.1 0.9 0.0999999
v -2 1.6 0.2
v -0.6 1.6 0.2
v -2 1.6 0.0999999
v -0.6 1.6 0.0999999
v 0.2 2.7 0.2
v 0.3 2.7 0.2
v 0.4 2.7 0.2
v 0.5 2.7 0.2
v 0.6 2.7 0.2
v 0.7 2.7 0.2
v 0.8 2.7 0.2
v 0.9 2.7 0.2
v 1 2.7 0.2
v 1.1 2.7 0.2
v 1.2 2.7 0.2
v 1.3 2.7 0.2
v 0.2 2.7 0.0999999
v 0.3 2.7 0.0999999
v 0.4 2.7 0.0999999
v 0.5 2.7 0.0999999
v 0.6 2.7 0.0999999
v 0.7 2.7 0.0999999
v 0.8 2.7 0.0999999
v 0.9 2.7 0.0999999
v 1 2.7 0.0999999
v 1.1 2.7 0.0999999
v 1.2 2.7 0.0999999
v 1.3 2.7 0.0999999
v 0.3 2.9 0.2
v 0.4 2.9 0.2
v 0.7 2.9 0.2
v 0.8 2.9 0.2
v 1.1 2.9 0.2
v 1.2 2.9 0.2
v 0.3 2.9 0.0999999
v 0.4 2.9 0.0999999
v 0.7 2.9 0.0999999
v 0.8 2.9 0.0999999
v 1.1 2.9 0.0999999
v 1.2 2.9 0.0999999
v -1.9 1 0.2
v 1.2 1 0.2
v -1.9 1 0.0999999
v 1.2 1 0.0999999
v -2 2.6 0.2
v -0.6 2.6 0.2
v -2 2.6 0.0999999
v -0.6 2.6 0.0999999
v 0.2 3.1 0.2
v 0.5 3.1 0.2
v 0.6 3.1 0.2
v 0.9 3.1 0.2
v 1 3.1 0.2
v 1.3 3.1 0.2
v 0.2 3.1 0.0999999
v 0.5 3.1 0.0999999
v 0.6 3.1 0.0999999
v 0.9 3.1 0.0999999
v 1 3.1 0.0999999
v 1.3 3.1 0.0999999
v -2.6 4.1 0.0999999
v 1.9 4.1 0.0999999
v -2.6 4.1 -5.96046e-08
v 1.9 4.1 -5.96046e-08

# faces
f 3/4/1 2/4/1 1/4/1
f 4/4/1 2/4/1 3/4/1
f 7/4/1 6/4/1 5/4/1
f 8/4/1 6/4/1 7/4/1
f 11/4/1 10/4/1 9/4/1
f 12/4/1 10/4/1 11/4/1
f 15/4/1 14/4/1 13/4/1
f 16/4/1 14/4/1 15/4/1
f 19/4/1 18/4/1 17/4/1
f 20/4/1 18/4/1 19/4/1
f 23/4/1 22/4/1 21/4/1
f 24/4/1 22/4/1 23/4/1
f 27/4/1 26/4/1 25/4/1
f 28/4/1 26/4/1 27/4/1
f 31/4/1 30/4/1 29/4/1
f 32/4/1 30/4/1 31/4/1
f 35/4/1 34/4/1 33/4/1
f 36/4/1 34/4/1 35/4/1
f 39/4/1 38/4/1 37/4/1
f 40/4/1 38/4/1 39/4/1
f 41/4/2 42/4/2 43/4/2
f 43/4/2 42/4/2 44/4/2
f 45/4/2 46/4/2 47/4/2
f 47/4/2 46/4/2 48/4/2
f 49/4/2 50/4/2 51/4/2
f 51/4/2 50/4/2 52/4/2
f 53/4/2 54/4/2 55/4/2
f 55/4/2 54/4/2 56/4/2
f 57/4/2 58/4/2 59/4/2
f 59/4/2 58/4/2 60/4/2
f 61/4/2 62/4/2 63/4/2
f 63/4/2 62/4/2 64/4/2
f 65/4/2 66/4/2 67/4/2
f 67/4/2 66/4/2 68/4/2
f 69/4/2 70/4/2 71/4/2
f 71/4/2 70/4/2 72/4/2
f 73/4/2 74/4/2 75/4/2
f 75/4/2 74/4/2 76/4/2
f 77/4/2 78/4/2 79/4/2
f 79/4/2 78/4/2 80/4/2
f 85/4/3 84/4/3 83/4/3
f 86/4/3 84/4/3 85/4/3
f 87/4/3 82/4/3 81/4/3
f 88/4/3 82/4/3 87/4/3
f 89/4/3 82/4/3 88/4/3
f 90/4/3 82/4/3 89/4/3
f 91/4/3 87/4/3 81/4/3
f 91/1/3 88/1/3 87/1/3
f 92/4/3 89/4/3 88/4/3
f 92/1/3 88/1/3 91/1/3
f 93/1/3 90/1/3 89/1/3
f 93/4/3 89/4/3 92/4/3
f 94/4/3 82/4/3 90/4/3
f 94/1/3 90/1/3 93/1/3
f 95/4/3 93/4/3 92/4/3
f 95/4/3 92/4/3 91/4/3
f 95/4/3 94/4/3 93/4/3
f 95/4/3 91/4/3 81/4/3
f 96/4/3 82/4/3 94/4/3
f 96/4/3 94/4/3 95/4/3
f 99/4/3 98/4/3 97/4/3
f 100/4/3 98/4/3 99/4/3
f 102/4/3 98/4/3 100/4/3
f 103/4/3 102/4/3 101/4/3
f 104/4/3 98/4/3 102/4/3
f 104/4/3 102/4/3 103/4/3
f 107/4/3 106/4/3 105/4/3
f 108/4/3 106/4/3 107/4/3
f 110/4/3 106/4/3 108/4/3
f 111/4/3 110/4/3 109/4/3
f 112/4/3 106/4/3 110/4/3
f 112/4/3 110/4/3 111/4/3
f 116/4/3 84/4/3 86/4/3
f 117/4/3 114/4/3 113/4/3
f 118/4/3 114/4/3 117/4/3
f 119/4/3 116/4/3 115/4/3
f 120/4/3 84/4/3 116/4/3
f 120/4/3 116/4/3 119/4/3
f 122/4/3 114/4/3 118/4/3
f 123/4/3 122/4/3 121/4/3
f 124/4/3 114/4/3 122/4/3
f 124/4/3 122/4/3 123/4/3
f 127/4/3 126/4/3 125/4/3
f 128/4/3 126/4/3 127/4/3
f 129/4/3 127/4/3 125/4/3
f 130/5/3 128/5/3 127/5/3
f 130/4/3 127/4/3 129/4/3
f 131/5/3 128/5/3 130/5/3
f 132/5/3 128/5/3 131/5/3
f 133/4/3 126/4/3 128/4/3
f 133/5/3 128/5/3 132/5/3
f 134/4/3 126/4/3 133/4/3
f 135/5/3 130/5/3 129/5/3
f 135/5/3 131/5/3 130/5/3
f 136/6/3 132/6/3 131/6/3
f 136/5/3 131/5/3 135/5/3
f 137/6/3 132/6/3 136/6/3
f 138/6/3 132/6/3 137/6/3
f 139/5/3 134/5/3 133/5/3
f 139/6/3 132/6/3 138/6/3
f 139/5/3 133/5/3 132/5/3
f 140/5/3 134/5/3 139/5/3
f 141/6/3 137/6/3 136/6/3
f 141/6/3 136/6/3 135/6/3
f 142/5/3 138/5/3 137/5/3
f 142/6/3 137/6/3 141/6/3
f 143/6/3 140/6/3 139/6/3
f 143/5/3 138/5/3 142/5/3
f 143/6/3 139/6/3 138/6/3
f 144/6/3 140/6/3 143/6/3
f 145/5/3 142/5/3 141/5/3
f 145/5/3 143/5/3 142/5/3
f 145/5/3 144/5/3 143/5/3
f 146/5/3 144/5/3 145/5/3
f 147/5/3 144/5/3 146/5/3
f 148/5/3 144/5/3 147/5/3
f 149/5/3 144/5/3 148/5/3
f 150/5/3 144/5/3 149/5/3
f 151/5/3 144/5/3 150/5/3
f 152/5/3 145/5/3 141/5/3
f 153/5/3 145/5/3 152/5/3
f 154/5/3 152/5/3 141/5/3
f 155/5/3 152/5/3 154/5/3
f 157/4/3 155/4/3 154/4/3
f 157/4/3 156/4/3 155/4/3
f 158/4/3 156/4/3 157/4/3
f 159/5/3 147/5/3 146/5/3
f 159/1/3 148/1/3 147/1/3
f 160/4/3 149/4/3 148/4/3
f 160/1/3 148/1/3 159/1/3
f 161/1/3 150/1/3 149/1/3
f 161/4/3 149/4/3 160/4/3
f 162/4/3 151/4/3 150/4/3
f 162/1/3 150/1/3 161/1/3
f 163/5/3 144/5/3 151/5/3
f 163/4/3 151/4/3 162/4/3
f 164/5/3 162/5/3 161/5/3
f 164/5/3 161/5/3 160/5/3
f 164/5/3 163/5/3 162/5/3
f 164/5/3 159/5/3 146/5/3
f 164/5/3 160/5/3 159/5/3
f 165/5/3 163/5/3 164/5/3
f 166/5/3 163/5/3 165/5/3
f 167/5/3 163/5/3 166/5/3
f 168/5/3 144/5/3 163/5/3
f 168/5/3 163/5/3 167/5/3
f 169/5/3 164/5/3 146/5/3
f 169/4/3 165/4/3 164/4/3
f 170/1/3 166/1/3 165/1/3
f 170/4/3 165/4/3 169/4/3
f 171/4/3 167/4/3 166/4/3
f 171/1/3 166/1/3 170/1/3
f 172/1/3 168/1/3 167/1/3
f 172/4/3 167/4/3 171/4/3
f 173/5/3 144/5/3 168/5/3
f 173/1/3 168/1/3 172/1/3
f 174/5/3 145/5/3 153/5/3
f 175/5/3 170/5/3 169/5/3
f 175/5/3 172/5/3 171/5/3
f 175/5/3 173/5/3 172/5/3
f 175/5/3 169/5/3 146/5/3
f 175/5/3 171/5/3 170/5/3
f 176/5/3 173/5/3 175/5/3
f 176/5/3 175/5/3 174/5/3
f 177/5/3 173/5/3 176/5/3
f 178/5/3 176/5/3 174/5/3
f 180/5/3 178/5/3 174/5/3
f 180/4/3 179/4/3 178/4/3
f 181/4/3 179/4/3 180/4/3
f 182/5/3 180/5/3 174/5/3
f 183/5/3 173/5/3 177/5/3
f 184/5/3 182/5/3 174/5/3
f 184/5/3 183/5/3 182/5/3
f 185/5/3 173/5/3 183/5/3
f 185/5/3 183/5/3 184/5/3
f 186/5/3 173/5/3 185/5/3
f 187/5/3 144/5/3 173/5/3
f 187/5/3 173/5/3 186/5/3
f 188/5/3 184/5/3 174/5/3
f 190/5/3 188/5/3 174/5/3
f 190/4/3 189/4/3 188/4/3
f 191/4/3 189/4/3 190/4/3
f 192/5/3 186/5/3 185/5/3
f 192/3/3 187/3/3 186/3/3
f 193/5/3 144/5/3 187/5/3
f 193/3/3 187/3/3 192/3/3
f 194/5/3 190/5/3 174/5/3
f 195/5/3 192/5/3 185/5/3
f 195/5/3 193/5/3 192/5/3
f 196/2/3 158/2/3 157/2/3
f 196/4/3 157/4/3 154/4/3
f 197/2/3 158/2/3 196/2/3
f 198/5/3 195/5/3 194/5/3
f 198/5/3 194/5/3 174/5/3
f 199/5/3 193/5/3 195/5/3
f 199/5/3 195/5/3 198/5/3
f 200/5/3 193/5/3 199/5/3
f 201/5/3 144/5/3 193/5/3
f 201/5/3 193/5/3 200/5/3
f 202/5/3 154/5/3 141/5/3
f 202/4/3 197/4/3 196/4/3
f 202/4/3 196/4/3 154/4/3
f 203/4/3 197/4/3 202/4/3
f 204/4/3 197/4/3 203/4/3
f 205/5/3 198/5/3 174/5/3
f 207/5/3 203/5/3 202/5/3
f 208/5/3 174/5/3 153/5/3
f 208/5/3 205/5/3 174/5/3
f 209/4/3 206/4/3 205/4/3
f 209/5/3 205/5/3 208/5/3
f 210/4/3 206/4/3 209/4/3
f 211/3/3 201/3/3 200/3/3
f 211/5/3 200/5/3 199/5/3
f 212/5/3 144/5/3 201/5/3
f 212/3/3 201/3/3 211/3/3
f 213/5/3 208/5/3 207/5/3
f 213/5/3 209/5/3 208/5/3
f 214/5/3 211/5/3 199/5/3
f 214/5/3 212/5/3 211/5/3
f 215/6/3 141/6/3 135/6/3
f 215/5/3 214/5/3 213/5/3
f 215/5/3 207/5/3 202/5/3
f 215/5/3 213/5/3 207/5/3
f 215/5/3 202/5/3 141/5/3
f 216/5/3 214/5/3 215/5/3
f 217/5/3 212/5/3 214/5/3
f 217/5/3 214/5/3 216/5/3
f 217/5/3 144/5/3 212/5/3
f 218/6/3 140/6/3 144/6/3
f 218/5/3 144/5/3 217/5/3
f 219/5/3 135/5/3 129/5/3
f 219/6/3 216/6/3 215/6/3
f 219/6/3 215/6/3 135/6/3
f 220/6/3 216/6/3 219/6/3
f 221/5/3 217/5/3 216/5/3
f 221/6/3 216/6/3 220/6/3
f 222/6/3 218/6/3 217/6/3
f 222/5/3 217/5/3 221/5/3
f 223/6/3 140/6/3 218/6/3
f 223/6/3 218/6/3 222/6/3
f 224/5/3 134/5/3 140/5/3
f 224/6/3 140/6/3 223/6/3
f 225/4/3 129/4/3 125/4/3
f 225/5/3 220/5/3 219/5/3
f 225/5/3 219/5/3 129/5/3
f 226/5/3 220/5/3 225/5/3
f 227/6/3 222/6/3 221/6/3
f 227/5/3 220/5/3 226/5/3
f 227/6/3 221/6/3 220/6/3
f 227/6/3 223/6/3 222/6/3
f 228/5/3 224/5/3 223/5/3
f 228/6/3 223/6/3 227/6/3
f 229/5/3 134/5/3 224/5/3
f 229/5/3 224/5/3 228/5/3
f 230/4/3 126/4/3 134/4/3
f 230/5/3 134/5/3 229/5/3
f 231/4/3 226/4/3 225/4/3
f 231/5/3 228/5/3 227/5/3
f 231/5/3 229/5/3 228/5/3
f 231/5/3 227/5/3 226/5/3
f 232/4/3 230/4/3 229/4/3
f 232/5/3 229/5/3 231/5/3
f 233/4/3 231/4/3 225/4/3
f 233/4/3 225/4/3 125/4/3
f 233/4/3 232/4/3 231/4/3
f 234/4/3 126/4/3 230/4/3
f 234/4/3 232/4/3 233/4/3
f 234/4/3 230/4/3 232/4/3
f 235/4/4 236/4/4 237/4/4
f 237/4/4 236/4/4 238/4/4
f 235/4/4 237/4/4 239/4/4
f 237/5/4 238/5/4 240/5/4
f 239/4/4 237/4/4 240/4/4
f 240/5/4 238/5/4 241/5/4
f 241/5/4 238/5/4 242/5/4
f 238/4/4 236/4/4 243/4/4
f 242/5/4 238/5/4 243/5/4
f 243/4/4 236/4/4 244/4/4
f 239/5/4 240/5/4 245/5/4
f 240/5/4 241/5/4 245/5/4
f 241/6/4 242/6/4 246/6/4
f 245/5/4 241/5/4 246/5/4
f 246/6/4 242/6/4 247/6/4
f 247/6/4 242/6/4 248/6/4
f 243/5/4 244/5/4 249/5/4
f 248/6/4 242/6/4 249/6/4
f 242/5/4 243/5/4 249/5/4
f 249/5/4 244/5/4 250/5/4
f 246/6/4 247/6/4 251/6/4
f 245/6/4 246/6/4 251/6/4
f 247/5/4 248/5/4 252/5/4
f 251/6/4 247/6/4 252/6/4
f 249/6/4 250/6/4 253/6/4
f 252/5/4 248/5/4 253/5/4
f 248/6/4 249/6/4 253/6/4
f 253/6/4 250/6/4 254/6/4
f 251/5/4 252/5/4 255/5/4
f 252/5/4 253/5/4 255/5/4
f 253/5/4 254/5/4 255/5/4
f 255/5/4 254/5/4 256/5/4
f 256/5/4 254/5/4 257/5/4
f 257/5/4 254/5/4 258/5/4
f 258/5/4 254/5/4 259/5/4
f 251/5/4 255/5/4 260/5/4
f 260/5/4 255/5/4 261/5/4
f 260/4/4 261/4/4 262/4/4
f 261/5/4 255/5/4 263/5/4
f 262/4/4 261/4/4 263/4/4
f 255/1/4 256/1/4 264/1/4
f 263/5/4 255/5/4 264/5/4
f 256/4/4 257/4/4 265/4/4
f 264/1/4 256/1/4 265/1/4
f 257/1/4 258/1/4 266/1/4
f 265/4/4 257/4/4 266/4/4
f 258/4/4 259/4/4 267/4/4
f 266/1/4 258/1/4 267/1/4
f 259/5/4 254/5/4 268/5/4
f 267/4/4 259/4/4 268/4/4
f 266/5/4 267/5/4 269/5/4
f 263/5/4 264/5/4 269/5/4
f 267/5/4 268/5/4 269/5/4
f 264/5/4 265/5/4 269/5/4
f 265/5/4 266/5/4 269/5/4
f 269/5/4 268/5/4 270/5/4
f 270/5/4 268/5/4 271/5/4
f 271/5/4 268/5/4 272/5/4
f 268/5/4 254/5/4 273/5/4
f 272/5/4 268/5/4 273/5/4
f 263/5/4 269/5/4 274/5/4
f 269/4/4 270/4/4 274/4/4
f 270/1/4 271/1/4 275/1/4
f 274/4/4 270/4/4 275/4/4
f 271/4/4 272/4/4 276/4/4
f 275/1/4 271/1/4 276/1/4
f 272/1/4 273/1/4 277/1/4
f 276/4/4 272/4/4 277/4/4
f 273/5/4 254/5/4 278/5/4
f 277/1/4 273/1/4 278/1/4
f 274/5/4 275/5/4 279/5/4
f 276/5/4 277/5/4 279/5/4
f 277/5/4 278/5/4 279/5/4
f 263/5/4 274/5/4 279/5/4
f 275/5/4 276/5/4 279/5/4
f 279/5/4 278/5/4 280/5/4
f 263/5/4 279/5/4 281/5/4
f 279/4/4 280/4/4 281/4/4
f 280/5/4 278/5/4 282/5/4
f 281/4/4 280/4/4 282/4/4
f 281/5/4 282/5/4 283/5/4
f 282/5/4 278/5/4 283/5/4
f 278/5/4 254/5/4 284/5/4
f 283/5/4 278/5/4 284/5/4
f 281/5/4 283/5/4 285/5/4
f 263/5/4 281/5/4 285/5/4
f 285/5/4 283/5/4 286/5/4
f 263/5/4 285/5/4 287/5/4
f 285/4/4 286/4/4 287/4/4
f 286/5/4 283/5/4 288/5/4
f 287/4/4 286/4/4 288/4/4
f 283/3/4 284/3/4 289/3/4
f 288/5/4 283/5/4 289/5/4
f 284/5/4 254/5/4 290/5/4
f 289/3/4 284/3/4 290/3/4
f 262/2/4 263/2/4 291/2/4
f 260/4/4 262/4/4 291/4/4
f 288/5/4 289/5/4 292/5/4
f 291/2/4 263/2/4 292/2/4
f 289/5/4 290/5/4 292/5/4
f 263/5/4 287/5/4 292/5/4
f 287/5/4 288/5/4 292/5/4
f 292/5/4 290/5/4 293/5/4
f 290/5/4 254/5/4 294/5/4
f 293/5/4 290/5/4 294/5/4
f 260/4/4 291/4/4 295/4/4
f 251/5/4 260/5/4 295/5/4
f 291/4/4 292/4/4 295/4/4
f 292/5/4 293/5/4 296/5/4
f 295/4/4 292/4/4 296/4/4
f 296/5/4 293/5/4 297/5/4
f 297/5/4 293/5/4 298/5/4
f 295/5/4 296/5/4 299/5/4
f 296/5/4 297/5/4 299/5/4
f 297/4/4 298/4/4 299/4/4
f 298/5/4 293/5/4 300/5/4
f 299/4/4 298/4/4 300/4/4
f 293/3/4 294/3/4 301/3/4
f 300/5/4 293/5/4 301/5/4
f 294/5/4 254/5/4 302/5/4
f 301/3/4 294/3/4 302/3/4
f 245/6/4 251/6/4 303/6/4
f 300/5/4 301/5/4 303/5/4
f 301/5/4 302/5/4 303/5/4
f 295/5/4 299/5/4 303/5/4
f 299/5/4 300/5/4 303/5/4
f 251/5/4 295/5/4 303/5/4
f 303/5/4 302/5/4 304/5/4
f 302/5/4 254/5/4 305/5/4
f 304/5/4 302/5/4 305/5/4
f 254/6/4 250/6/4 306/6/4
f 305/5/4 254/5/4 306/5/4
f 239/5/4 245/5/4 307/5/4
f 303/6/4 304/6/4 307/6/4
f 245/6/4 303/6/4 307/6/4
f 307/6/4 304/6/4 308/6/4
f 304/5/4 305/5/4 309/5/4
f 308/6/4 304/6/4 309/6/4
f 305/6/4 306/6/4 310/6/4
f 309/5/4 305/5/4 310/5/4
f 306/6/4 250/6/4 311/6/4
f 310/6/4 306/6/4 311/6/4
f 250/5/4 244/5/4 312/5/4
f 311/6/4 250/6/4 312/6/4
f 235/4/4 239/4/4 313/4/4
f 307/5/4 308/5/4 313/5/4
f 239/5/4 307/5/4 313/5/4
f 313/5/4 308/5/4 314/5/4
f 309/6/4 310/6/4 315/6/4
f 314/5/4 308/5/4 315/5/4
f 308/6/4 309/6/4 315/6/4
f 310/6/4 311/6/4 315/6/4
f 311/5/4 312/5/4 316/5/4
f 315/6/4 311/6/4 316/6/4
f 312/5/4 244/5/4 317/5/4
f 316/5/4 312/5/4 317/5/4
f 244/4/4 236/4/4 318/4/4
f 317/5/4 244/5/4 318/5/4
f 313/4/4 314/4/4 319/4/4
f 315/5/4 316/5/4 319/5/4
f 316/5/4 317/5/4 319/5/4
f 314/5/4 315/5/4 319/5/4
f 317/4/4 318/4/4 320/4/4
f 319/5/4 317/5/4 320/5/4
f 313/4/4 319/4/4 321/4/4
f 235/4/4 313/4/4 321/4/4
f 319/4/4 320/4/4 321/4/4
f 318/4/4 236/4/4 322/4/4
f 321/4/4 320/4/4 322/4/4
f 320/4/4 318/4/4 322/4/4
f 325/4/5 324/4/5 323/4/5
f 326/4/5 324/4/5 325/4/5
f 331/4/5 328/4/5 327/4/5
f 332/4/5 328/4/5 331/4/5
f 333/4/5 330/4/5 329/4/5
f 334/4/5 330/4/5 333/4/5
f 337/4/5 336/4/5 335/4/5
f 338/4/5 336/4/5 337/4/5
f 339/4/5 336/4/5 338/4/5
f 340/4/5 336/4/5 339/4/5
f 343/4/5 342/4/5 341/4/5
f 344/4/5 342/4/5 343/4/5
f 357/4/5 346/4/5 345/4/5
f 358/4/5 346/4/5 357/4/5
f 359/4/5 348/4/5 347/4/5
f 360/4/5 348/4/5 359/4/5
f 361/4/5 350/4/5 349/4/5
f 362/4/5 350/4/5 361/4/5
f 363/4/5 352/4/5 351/4/5
f 364/4/5 352/4/5 363/4/5
f 365/4/5 354/4/5 353/4/5
f 366/4/5 354/4/5 365/4/5
f 367/4/5 356/4/5 355/4/5
f 368/4/5 356/4/5 367/4/5
f 375/4/5 370/4/5 369/4/5
f 376/4/5 370/4/5 375/4/5
f 377/4/5 372/4/5 371/4/5
f 378/4/5 372/4/5 377/4/5
f 379/4/5 374/4/5 373/4/5
f 380/4/5 374/4/5 379/4/5
f 381/4/6 382/4/6 383/4/6
f 383/4/6 382/4/6 384/4/6
f 385/4/6 386/4/6 387/4/6
f 387/4/6 386/4/6 388/4/6
f 389/4/6 390/4/6 395/4/6
f 395/4/6 390/4/6 396/4/6
f 391/4/6 392/4/6 397/4/6
f 397/4/6 392/4/6 398/4/6
f 393/4/6 394/4/6 399/4/6
f 399/4/6 394/4/6 400/4/6
f 401/4/6 402/4/6 403/4/6
f 403/4/6 402/4/6 404/4/6
