# Blender 5.1.0
# www.blender.org
mtllib ammo_box.mtl
o model_0
v -1.400000 0.000000 -0.800000 0.4275 0.3765 0.1686
v -1.400000 0.000000 0.800000 0.4275 0.3765 0.1686
v -1.400000 1.600000 0.800000 0.4275 0.3765 0.1686
v -1.400000 1.600000 -0.800000 0.4275 0.3765 0.1686
v -1.100000 1.600000 -0.200000 0.4275 0.3765 0.1686
v -1.100000 1.600000 0.200000 0.4275 0.3765 0.1686
v -1.100000 1.700000 0.200000 0.4275 0.3765 0.1686
v -1.100000 1.700000 -0.200000 0.4275 0.3765 0.1686
v -0.500000 1.600000 0.200000 0.4275 0.3765 0.1686
v -0.500000 1.600000 -0.200000 0.4275 0.3765 0.1686
v -0.500000 1.700000 -0.200000 0.4275 0.3765 0.1686
v -0.500000 1.700000 0.200000 0.4275 0.3765 0.1686
v -0.600000 1.700000 -0.100000 0.4275 0.3765 0.1686
v -0.600000 1.700000 0.100000 0.4275 0.3765 0.1686
v -0.600000 1.900000 0.100000 0.4275 0.3765 0.1686
v -0.600000 1.900000 -0.100000 0.4275 0.3765 0.1686
v -0.500000 1.700000 0.100000 0.4275 0.3765 0.1686
v -0.500000 1.700000 -0.100000 0.4275 0.3765 0.1686
v -0.500000 1.800000 -0.100000 0.4275 0.3765 0.1686
v -0.500000 1.800000 0.100000 0.4275 0.3765 0.1686
v 0.500000 1.600000 -0.200000 0.4275 0.3765 0.1686
v 0.500000 1.600000 0.200000 0.4275 0.3765 0.1686
v 0.500000 1.700000 0.200000 0.4275 0.3765 0.1686
v 0.500000 1.700000 -0.200000 0.4275 0.3765 0.1686
v 0.500000 1.700000 -0.100000 0.4275 0.3765 0.1686
v 0.500000 1.700000 0.100000 0.4275 0.3765 0.1686
v 0.500000 1.800000 0.100000 0.4275 0.3765 0.1686
v 0.500000 1.800000 -0.100000 0.4275 0.3765 0.1686
v 0.600000 1.700000 0.100000 0.4275 0.3765 0.1686
v 0.600000 1.700000 -0.100000 0.4275 0.3765 0.1686
v 0.600000 1.900000 -0.100000 0.4275 0.3765 0.1686
v 0.600000 1.900000 0.100000 0.4275 0.3765 0.1686
v 1.100000 1.600000 0.200000 0.4275 0.3765 0.1686
v 1.100000 1.600000 -0.200000 0.4275 0.3765 0.1686
v 1.100000 1.700000 -0.200000 0.4275 0.3765 0.1686
v 1.100000 1.700000 0.200000 0.4275 0.3765 0.1686
v 1.400000 0.000000 0.800000 0.4275 0.3765 0.1686
v 1.400000 0.000000 -0.800000 0.4275 0.3765 0.1686
v 1.400000 1.600000 -0.800000 0.4275 0.3765 0.1686
v 1.400000 1.600000 0.800000 0.4275 0.3765 0.1686
v 1.400000 0.200000 0.800000 0.4275 0.3765 0.1686
v -1.400000 0.200000 0.800000 0.4275 0.3765 0.1686
v -0.800000 0.200000 0.800000 0.6980 0.6510 0.1843
v -0.800000 0.900000 0.800000 0.5608 0.5137 0.1765
v -1.400000 0.900000 0.800000 0.4275 0.3765 0.1686
v -1.200000 0.900000 0.800000 0.6980 0.6510 0.1843
v -1.200000 1.600000 0.800000 0.4275 0.3765 0.1686
v -1.100000 0.900000 0.800000 0.6980 0.6510 0.1843
v -1.100000 1.000000 0.800000 0.6980 0.6510 0.1843
v -1.200000 1.000000 0.800000 0.6980 0.6510 0.1843
v -1.100000 1.200000 0.800000 0.4275 0.3765 0.1686
v -1.200000 1.200000 0.800000 0.6980 0.6510 0.1843
v -0.900000 1.200000 0.800000 0.9725 0.9294 0.2039
v -0.900000 1.300000 0.800000 0.6980 0.6510 0.1843
v -1.200000 1.300000 0.800000 0.6980 0.6510 0.1843
v 1.400000 1.300000 0.800000 0.4275 0.3765 0.1686
v -0.900000 0.900000 0.800000 0.6980 0.6510 0.1843
v -0.900000 1.000000 0.800000 0.6980 0.6510 0.1843
v -1.000000 1.000000 0.800000 0.6980 0.6510 0.1843
v -1.000000 1.100000 0.800000 0.6980 0.6510 0.1843
v -1.100000 1.100000 0.800000 0.6980 0.6510 0.1843
v -1.000000 1.200000 0.800000 0.6980 0.6510 0.1843
v -0.700000 1.000000 0.800000 0.6980 0.6510 0.1843
v -0.700000 1.100000 0.800000 0.4275 0.3765 0.1686
v -0.900000 1.100000 0.800000 0.6980 0.6510 0.1843
v -0.800000 1.000000 0.800000 0.6980 0.6510 0.1843
v -0.700000 1.300000 0.800000 0.4275 0.3765 0.1686
v -0.700000 0.200000 0.800000 0.6980 0.6510 0.1843
v -0.700000 0.700000 0.800000 0.6980 0.6510 0.1843
v -0.800000 0.700000 0.800000 0.6980 0.6510 0.1843
v 1.400000 0.700000 0.800000 0.4275 0.3765 0.1686
v 1.400000 0.900000 0.800000 0.4275 0.3765 0.1686
v -0.600000 0.900000 0.800000 0.6980 0.6510 0.1843
v -0.600000 1.000000 0.800000 0.6980 0.6510 0.1843
v -0.500000 0.200000 0.800000 0.6980 0.6510 0.1843
v -0.500000 0.400000 0.800000 0.6980 0.6510 0.1843
v -0.700000 0.400000 0.800000 0.4275 0.3765 0.1686
v -0.600000 0.400000 0.800000 0.6980 0.6510 0.1843
v -0.600000 0.500000 0.800000 0.6980 0.6510 0.1843
v -0.700000 0.500000 0.800000 0.6980 0.6510 0.1843
v -0.600000 0.600000 0.800000 0.6980 0.6510 0.1843
v -0.700000 0.600000 0.800000 0.6980 0.6510 0.1843
v -0.500000 0.600000 0.800000 0.4275 0.3765 0.1686
v -0.500000 0.700000 0.800000 0.6980 0.6510 0.1843
v -0.600000 1.200000 0.800000 0.6980 0.6510 0.1843
v -0.700000 1.200000 0.800000 0.6980 0.6510 0.1843
v -0.600000 1.300000 0.800000 0.6980 0.6510 0.1843
v -0.400000 0.400000 0.800000 0.9725 0.9294 0.2039
v -0.400000 0.500000 0.800000 0.9725 0.9294 0.2039
v -0.500000 0.500000 0.800000 0.6980 0.6510 0.1843
v -0.400000 0.900000 0.800000 0.6980 0.6510 0.1843
v -0.400000 1.000000 0.800000 0.9725 0.9294 0.2039
v -0.500000 1.000000 0.800000 0.6980 0.6510 0.1843
v -0.500000 1.100000 0.800000 0.6980 0.6510 0.1843
v -0.600000 1.100000 0.800000 0.6980 0.6510 0.1843
v -0.500000 1.300000 0.800000 0.9725 0.9294 0.2039
v -0.400000 0.200000 0.800000 0.6980 0.6510 0.1843
v -0.400000 0.700000 0.800000 0.6980 0.6510 0.1843
v -0.400000 1.100000 0.800000 0.6980 0.6510 0.1843
v 0.000000 1.100000 0.800000 0.6980 0.6510 0.1843
v 0.000000 1.200000 0.800000 0.6980 0.6510 0.1843
v -0.500000 1.200000 0.800000 0.6980 0.6510 0.1843
v -0.300000 1.200000 0.800000 0.6980 0.6510 0.1843
v -0.300000 1.300000 0.800000 0.6980 0.6510 0.1843
v -0.300000 0.200000 0.800000 0.6980 0.6510 0.1843
v -0.300000 0.700000 0.800000 0.4275 0.3765 0.1686
v -0.200000 0.900000 0.800000 0.6980 0.6510 0.1843
v -0.200000 1.100000 0.800000 0.4275 0.3765 0.1686
v -0.200000 0.200000 0.800000 0.6980 0.6510 0.1843
v -0.200000 0.500000 0.800000 0.6980 0.6510 0.1843
v -0.300000 0.500000 0.800000 0.6980 0.6510 0.1843
v -0.200000 0.700000 0.800000 0.6980 0.6510 0.1843
v -0.200000 1.200000 0.800000 0.6980 0.6510 0.1843
v -0.200000 1.300000 0.800000 0.6980 0.6510 0.1843
v -0.100000 0.200000 0.800000 0.6980 0.6510 0.1843
v -0.100000 0.300000 0.800000 0.6980 0.6510 0.1843
v -0.200000 0.300000 0.800000 0.6980 0.6510 0.1843
v 0.000000 0.300000 0.800000 0.9725 0.9294 0.2039
v 0.000000 0.400000 0.800000 0.9725 0.9294 0.2039
v -0.200000 0.400000 0.800000 0.6980 0.6510 0.1843
v -0.100000 0.400000 0.800000 0.6980 0.6510 0.1843
v -0.100000 0.500000 0.800000 0.6980 0.6510 0.1843
v -0.100000 0.700000 0.800000 0.6980 0.6510 0.1843
v 0.100000 0.900000 0.800000 0.6980 0.6510 0.1843
v 0.100000 1.000000 0.800000 0.6980 0.6510 0.1843
v -0.200000 1.000000 0.800000 0.6980 0.6510 0.1843
v -0.100000 1.000000 0.800000 0.6980 0.6510 0.1843
v -0.100000 1.100000 0.800000 0.6980 0.6510 0.1843
v 0.000000 1.300000 0.800000 0.6980 0.6510 0.1843
v 0.000000 0.200000 0.800000 0.6980 0.6510 0.1843
v 0.000000 0.500000 0.800000 0.6980 0.6510 0.1843
v 0.200000 0.500000 0.800000 0.4275 0.3765 0.1686
v 0.200000 0.600000 0.800000 0.6980 0.6510 0.1843
v -0.100000 0.600000 0.800000 0.4275 0.3765 0.1686
v 0.100000 0.600000 0.800000 0.6980 0.6510 0.1843
v 0.100000 0.700000 0.800000 0.6980 0.6510 0.1843
v 0.000000 1.000000 0.800000 0.6980 0.6510 0.1843
v 0.200000 0.200000 0.800000 0.6980 0.6510 0.1843
v 0.200000 1.000000 0.800000 0.4275 0.3765 0.1686
v 0.200000 1.100000 0.800000 0.6980 0.6510 0.1843
v 0.100000 1.100000 0.800000 0.6980 0.6510 0.1843
v 0.100000 1.200000 0.800000 0.6980 0.6510 0.1843
v 0.300000 1.200000 0.800000 0.4275 0.3765 0.1686
v 0.300000 1.300000 0.800000 0.6980 0.6510 0.1843
v 0.400000 0.600000 0.800000 0.6980 0.6510 0.1843
v 0.400000 0.700000 0.800000 0.6980 0.6510 0.1843
v 0.200000 0.900000 0.800000 0.6980 0.6510 0.1843
v 0.300000 1.100000 0.800000 0.6980 0.6510 0.1843
v 0.300000 0.200000 0.800000 0.6980 0.6510 0.1843
v 0.300000 0.600000 0.800000 0.6980 0.6510 0.1843
v 0.300000 0.900000 0.800000 0.6980 0.6510 0.1843
v 0.500000 0.200000 0.800000 0.6980 0.6510 0.1843
v 0.500000 0.600000 0.800000 0.4275 0.3765 0.1686
v 0.400000 0.900000 0.800000 0.6980 0.6510 0.1843
v 0.400000 1.100000 0.800000 0.6980 0.6510 0.1843
v 0.400000 1.300000 0.800000 0.6980 0.6510 0.1843
v 0.500000 0.700000 0.800000 0.6980 0.6510 0.1843
v 0.500000 0.900000 0.800000 0.6980 0.6510 0.1843
v 0.500000 1.100000 0.800000 0.6980 0.6510 0.1843
v 0.500000 1.300000 0.800000 0.6980 0.6510 0.1843
v 0.800000 0.200000 0.800000 0.6980 0.6510 0.1843
v 0.800000 0.300000 0.800000 0.9725 0.9294 0.2039
v 0.500000 0.300000 0.800000 0.9725 0.9294 0.2039
v 0.600000 0.300000 0.800000 0.6980 0.6510 0.1843
v 0.600000 0.700000 0.800000 0.9725 0.9294 0.2039
v 0.600000 0.900000 0.800000 0.6980 0.6510 0.1843
v 0.600000 1.100000 0.800000 0.6980 0.6510 0.1843
v 0.600000 1.300000 0.800000 0.6980 0.6510 0.1843
v 0.700000 0.300000 0.800000 0.6980 0.6510 0.1843
v 0.700000 0.600000 0.800000 0.6980 0.6510 0.1843
v 0.600000 0.600000 0.800000 0.6980 0.6510 0.1843
v 0.800000 0.600000 0.800000 0.9725 0.9294 0.2039
v 0.800000 0.700000 0.800000 0.6980 0.6510 0.1843
v 0.700000 0.900000 0.800000 0.6980 0.6510 0.1843
v 0.700000 1.100000 0.800000 0.6980 0.6510 0.1843
v 0.900000 1.100000 0.800000 0.6980 0.6510 0.1843
v 0.900000 1.300000 0.800000 0.6980 0.6510 0.1843
v 0.800000 0.900000 0.800000 0.6980 0.6510 0.1843
v 0.800000 1.100000 0.800000 0.6980 0.6510 0.1843
v 0.900000 0.900000 0.800000 0.6980 0.6510 0.1843
v 1.000000 0.900000 0.800000 0.6980 0.6510 0.1843
v 1.000000 1.100000 0.800000 0.6980 0.6510 0.1843
v 1.000000 1.300000 0.800000 0.6980 0.6510 0.1843
v 1.100000 0.900000 0.800000 0.6980 0.6510 0.1843
v 1.100000 1.100000 0.800000 0.6980 0.6510 0.1843
v 1.100000 1.300000 0.800000 0.6980 0.6510 0.1843
v 1.200000 0.900000 0.800000 0.6980 0.6510 0.1843
v 1.200000 1.100000 0.800000 0.6980 0.6510 0.1843
v 1.200000 1.300000 0.800000 0.6980 0.6510 0.1843
v 1.300000 0.900000 0.800000 0.6980 0.6510 0.1843
v 1.300000 1.100000 0.800000 0.6980 0.6510 0.1843
v 1.400000 1.100000 0.800000 0.4275 0.3765 0.1686
v -0.500000 1.900000 0.100000 0.4275 0.3765 0.1686
v 0.600000 1.800000 0.100000 0.4275 0.3765 0.1686
v -0.500000 1.900000 -0.100000 0.4275 0.3765 0.1686
v 0.600000 1.800000 -0.100000 0.4275 0.3765 0.1686
v -1.400000 0.200000 -0.800000 0.4275 0.3765 0.1686
v 1.400000 0.200000 -0.800000 0.4275 0.3765 0.1686
v -0.800000 0.200000 -0.800000 0.6980 0.6510 0.1843
v -1.400000 0.900000 -0.800000 0.4275 0.3765 0.1686
v -0.800000 0.900000 -0.800000 0.5608 0.5137 0.1765
v -1.300000 0.900000 -0.800000 0.6980 0.6510 0.1843
v -1.300000 1.600000 -0.800000 0.4275 0.3765 0.1686
v -1.200000 0.900000 -0.800000 0.6980 0.6510 0.1843
v -1.300000 1.100000 -0.800000 0.6980 0.6510 0.1843
v -1.200000 1.100000 -0.800000 0.6980 0.6510 0.1843
v -1.200000 1.600000 -0.800000 0.4275 0.3765 0.1686
v -1.100000 0.900000 -0.800000 0.6980 0.6510 0.1843
v -1.100000 1.100000 -0.800000 0.6980 0.6510 0.1843
v -1.200000 1.300000 -0.800000 0.6980 0.6510 0.1843
v -1.100000 1.300000 -0.800000 0.6980 0.6510 0.1843
v 1.400000 1.300000 -0.800000 0.4275 0.3765 0.1686
v -1.000000 0.900000 -0.800000 0.6980 0.6510 0.1843
v -1.000000 1.100000 -0.800000 0.6980 0.6510 0.1843
v -1.000000 1.300000 -0.800000 0.6980 0.6510 0.1843
v -0.900000 0.900000 -0.800000 0.6980 0.6510 0.1843
v -0.900000 1.100000 -0.800000 0.6980 0.6510 0.1843
v -0.900000 1.300000 -0.800000 0.6980 0.6510 0.1843
v -0.800000 1.100000 -0.800000 0.6980 0.6510 0.1843
v -0.600000 1.100000 -0.800000 0.6980 0.6510 0.1843
v -0.600000 1.300000 -0.800000 0.6980 0.6510 0.1843
v -0.500000 0.200000 -0.800000 0.6980 0.6510 0.1843
v -0.800000 0.300000 -0.800000 0.9725 0.9294 0.2039
v -0.500000 0.300000 -0.800000 0.9725 0.9294 0.2039
v -0.700000 0.300000 -0.800000 0.6980 0.6510 0.1843
v -0.800000 0.700000 -0.800000 0.6980 0.6510 0.1843
v -0.700000 0.700000 -0.800000 0.9725 0.9294 0.2039
v 1.400000 0.700000 -0.800000 0.4275 0.3765 0.1686
v 1.400000 0.900000 -0.800000 0.4275 0.3765 0.1686
v -0.700000 0.900000 -0.800000 0.6980 0.6510 0.1843
v -0.700000 1.100000 -0.800000 0.6980 0.6510 0.1843
v -0.600000 0.300000 -0.800000 0.6980 0.6510 0.1843
v -0.700000 0.600000 -0.800000 0.6980 0.6510 0.1843
v -0.600000 0.600000 -0.800000 0.6980 0.6510 0.1843
v -0.500000 0.600000 -0.800000 0.6980 0.6510 0.1843
v -0.500000 0.700000 -0.800000 0.6980 0.6510 0.1843
v -0.600000 0.900000 -0.800000 0.6980 0.6510 0.1843
v -0.500000 0.900000 -0.800000 0.6980 0.6510 0.1843
v -0.500000 1.100000 -0.800000 0.6980 0.6510 0.1843
v -0.500000 1.300000 -0.800000 0.6980 0.6510 0.1843
v -0.300000 0.200000 -0.800000 0.6980 0.6510 0.1843
v -0.300000 0.600000 -0.800000 0.6980 0.6510 0.1843
v -0.400000 0.600000 -0.800000 0.6980 0.6510 0.1843
v -0.400000 0.700000 -0.800000 0.6980 0.6510 0.1843
v -0.400000 0.900000 -0.800000 0.6980 0.6510 0.1843
v -0.400000 1.100000 -0.800000 0.6980 0.6510 0.1843
v -0.400000 1.300000 -0.800000 0.6980 0.6510 0.1843
v -0.100000 0.600000 -0.800000 0.6980 0.6510 0.1843
v -0.100000 0.700000 -0.800000 0.6980 0.6510 0.1843
v -0.300000 0.900000 -0.800000 0.6980 0.6510 0.1843
v -0.300000 1.100000 -0.800000 0.6980 0.6510 0.1843
v -0.300000 1.300000 -0.800000 0.6980 0.6510 0.1843
v -0.200000 0.200000 -0.800000 0.6980 0.6510 0.1843
v -0.200000 0.600000 -0.800000 0.6980 0.6510 0.1843
v -0.200000 0.900000 -0.800000 0.6980 0.6510 0.1843
v -0.200000 1.100000 -0.800000 0.6980 0.6510 0.1843
v -0.100000 1.100000 -0.800000 0.5608 0.5137 0.1765
v -0.100000 1.300000 -0.800000 0.4275 0.3765 0.1686
v 0.000000 0.200000 -0.800000 0.6980 0.6510 0.1843
v 0.000000 0.600000 -0.800000 0.4275 0.3765 0.1686
v -0.100000 0.900000 -0.800000 0.6980 0.6510 0.1843
v 0.100000 0.600000 -0.800000 0.4275 0.3765 0.1686
v 0.100000 0.700000 -0.800000 0.6980 0.6510 0.1843
v 0.200000 0.900000 -0.800000 0.6980 0.6510 0.1843
v -0.100000 1.000000 -0.800000 0.6980 0.6510 0.1843
v 0.200000 1.000000 -0.800000 0.6980 0.6510 0.1843
v 0.000000 1.000000 -0.800000 0.6980 0.6510 0.1843
v 0.000000 1.100000 -0.800000 0.6980 0.6510 0.1843
v -0.100000 1.200000 -0.800000 0.6980 0.6510 0.1843
v 0.000000 1.200000 -0.800000 0.6980 0.6510 0.1843
v 0.000000 1.300000 -0.800000 0.6980 0.6510 0.1843
v 0.100000 0.200000 -0.800000 0.6980 0.6510 0.1843
v 0.000000 0.500000 -0.800000 0.6980 0.6510 0.1843
v 0.100000 0.500000 -0.800000 0.6980 0.6510 0.1843
v 0.100000 1.000000 -0.800000 0.6980 0.6510 0.1843
v 0.100000 1.100000 -0.800000 0.6980 0.6510 0.1843
v 0.500000 1.100000 -0.800000 0.6980 0.6510 0.1843
v 0.500000 1.200000 -0.800000 0.6980 0.6510 0.1843
v 0.200000 1.200000 -0.800000 0.6980 0.6510 0.1843
v 0.200000 1.300000 -0.800000 0.6980 0.6510 0.1843
v 0.200000 0.200000 -0.800000 0.6980 0.6510 0.1843
v 0.100000 0.300000 -0.800000 0.6980 0.6510 0.1843
v 0.200000 0.300000 -0.800000 0.6980 0.6510 0.1843
v 0.300000 0.300000 -0.800000 0.9725 0.9294 0.2039
v 0.100000 0.400000 -0.800000 0.6980 0.6510 0.1843
v 0.300000 0.400000 -0.800000 0.9725 0.9294 0.2039
v 0.200000 0.400000 -0.800000 0.6980 0.6510 0.1843
v 0.200000 0.500000 -0.800000 0.6980 0.6510 0.1843
v 0.200000 0.700000 -0.800000 0.6980 0.6510 0.1843
v 0.400000 1.000000 -0.800000 0.6980 0.6510 0.1843
v 0.400000 1.100000 -0.800000 0.6980 0.6510 0.1843
v 0.300000 0.200000 -0.800000 0.6980 0.6510 0.1843
v 0.300000 0.500000 -0.800000 0.6980 0.6510 0.1843
v 0.400000 0.500000 -0.800000 0.4275 0.3765 0.1686
v 0.400000 0.700000 -0.800000 0.6980 0.6510 0.1843
v 0.400000 0.900000 -0.800000 0.6980 0.6510 0.1843
v 0.300000 1.200000 -0.800000 0.6980 0.6510 0.1843
v 0.300000 1.300000 -0.800000 0.6980 0.6510 0.1843
v 0.400000 0.200000 -0.800000 0.6980 0.6510 0.1843
v 0.600000 1.200000 -0.800000 0.6980 0.6510 0.1843
v 0.600000 1.300000 -0.800000 0.6980 0.6510 0.1843
v 0.500000 0.200000 -0.800000 0.6980 0.6510 0.1843
v 0.500000 0.700000 -0.800000 0.6980 0.6510 0.1843
v 0.600000 0.900000 -0.800000 0.6980 0.6510 0.1843
v 0.600000 1.000000 -0.800000 0.6980 0.6510 0.1843
v 0.500000 1.000000 -0.800000 0.6980 0.6510 0.1843
v 0.700000 0.200000 -0.800000 0.6980 0.6510 0.1843
v 0.500000 0.400000 -0.800000 0.6980 0.6510 0.1843
v 0.700000 0.400000 -0.800000 0.4275 0.3765 0.1686
v 0.600000 0.400000 -0.800000 0.6980 0.6510 0.1843
v 0.500000 0.500000 -0.800000 0.6980 0.6510 0.1843
v 0.600000 0.500000 -0.800000 0.6980 0.6510 0.1843
v 0.600000 0.700000 -0.800000 0.4275 0.3765 0.1686
v 0.600000 1.100000 -0.800000 0.6980 0.6510 0.1843
v 0.700000 1.100000 -0.800000 0.6980 0.6510 0.1843
v 0.700000 1.200000 -0.800000 0.6980 0.6510 0.1843
v 0.700000 0.500000 -0.800000 0.6980 0.6510 0.1843
v 0.800000 0.500000 -0.800000 0.9725 0.9294 0.2039
v 0.600000 0.600000 -0.800000 0.6980 0.6510 0.1843
v 0.800000 0.600000 -0.800000 0.9725 0.9294 0.2039
v 0.700000 0.600000 -0.800000 0.6980 0.6510 0.1843
v 0.700000 0.700000 -0.800000 0.6980 0.6510 0.1843
v 0.800000 0.900000 -0.800000 0.6980 0.6510 0.1843
v 0.800000 1.000000 -0.800000 0.6980 0.6510 0.1843
v 0.700000 1.000000 -0.800000 0.6980 0.6510 0.1843
v 0.900000 1.200000 -0.800000 0.4275 0.3765 0.1686
v 0.900000 1.300000 -0.800000 0.6980 0.6510 0.1843
v 0.800000 0.200000 -0.800000 0.6980 0.6510 0.1843
v 0.800000 0.700000 -0.800000 0.6980 0.6510 0.1843
v 1.000000 1.000000 -0.800000 0.6980 0.6510 0.1843
v 1.000000 1.100000 -0.800000 0.6980 0.6510 0.1843
v 0.900000 1.100000 -0.800000 0.6980 0.6510 0.1843
v 0.900000 0.900000 -0.800000 0.6980 0.6510 0.1843
v 0.900000 1.000000 -0.800000 0.6980 0.6510 0.1843
v 1.100000 0.900000 -0.800000 0.6980 0.6510 0.1843
v 1.100000 1.000000 -0.800000 0.6980 0.6510 0.1843
v 1.000000 1.300000 -0.800000 0.9725 0.9294 0.2039
v 1.100000 1.100000 -0.800000 0.6980 0.6510 0.1843
v 1.400000 1.100000 -0.800000 0.4275 0.3765 0.1686
v 1.000000 1.200000 -0.800000 0.6980 0.6510 0.1843
v 1.400000 1.200000 -0.800000 0.4275 0.3765 0.1686
v 1.200000 1.200000 -0.800000 0.6980 0.6510 0.1843
v 1.200000 1.300000 -0.800000 0.6980 0.6510 0.1843
v 1.200000 0.900000 -0.800000 0.6980 0.6510 0.1843
v 1.200000 1.000000 -0.800000 0.6980 0.6510 0.1843
v 1.400000 1.000000 -0.800000 0.4275 0.3765 0.1686
v 1.400000 1.600000 0.200000 0.4275 0.3765 0.1686
v -1.400000 1.600000 0.200000 0.4275 0.3765 0.1686
v -1.100000 1.600000 -0.800000 0.4275 0.3765 0.1686
v 1.400000 1.600000 -0.200000 0.4275 0.3765 0.1686
v -1.100000 1.700000 0.100000 0.4275 0.3765 0.1686
v -0.600000 1.700000 -0.200000 0.4275 0.3765 0.1686
v 1.100000 1.700000 0.100000 0.4275 0.3765 0.1686
v 1.100000 1.700000 -0.100000 0.4275 0.3765 0.1686
vn -1.0000 -0.0000 -0.0000
vn 1.0000 -0.0000 -0.0000
vn -0.0000 -0.0000 1.0000
vn -0.0000 -0.0000 -1.0000
vn -0.0000 -1.0000 -0.0000
vn -0.0000 1.0000 -0.0000
vt 0.604566 0.001355
vt 0.604566 0.301606
vt 0.304315 0.301606
vt 0.304315 0.001355
vt 0.272202 0.891470
vt 0.272202 0.966533
vt 0.253437 0.966533
vt 0.253437 0.891470
vt 0.293678 0.891470
vt 0.293678 0.966533
vt 0.274912 0.966533
vt 0.274912 0.891470
vt 0.250727 0.910236
vt 0.250727 0.947767
vt 0.213196 0.947767
vt 0.213196 0.910236
vt 0.438384 0.934420
vt 0.438384 0.971952
vt 0.419619 0.971952
vt 0.419619 0.934420
vt 0.821826 0.891470
vt 0.821826 0.966533
vt 0.803061 0.966533
vt 0.803061 0.891470
vt 0.459859 0.934420
vt 0.459859 0.971952
vt 0.441094 0.971952
vt 0.441094 0.934420
vt 0.140843 0.912945
vt 0.140843 0.950476
vt 0.103311 0.950476
vt 0.103311 0.912945
vt 0.556397 0.894179
vt 0.556397 0.969242
vt 0.537631 0.969242
vt 0.537631 0.894179
vt 0.604566 0.304315
vt 0.604566 0.604566
vt 0.304315 0.604566
vt 0.304315 0.304315
vt 0.993427 0.001355
vt 0.993427 0.526794
vt 0.955895 0.526794
vt 0.955895 0.001355
vt 0.719869 0.660863
vt 0.607275 0.660863
vt 0.607275 0.529503
vt 0.719869 0.529503
vt 0.703813 0.910236
vt 0.666282 0.910236
vt 0.666282 0.778876
vt 0.703813 0.778876
vt 0.057652 0.757401
vt 0.057652 0.776166
vt 0.038886 0.776166
vt 0.038886 0.757401
vt 0.001355 0.776166
vt 0.001355 0.757401
vt 0.344556 0.915654
vt 0.344556 0.971952
vt 0.325790 0.971952
vt 0.325790 0.915654
vt 0.894179 0.001355
vt 0.894179 0.489262
vt 0.837882 0.489262
vt 0.837882 0.001355
vt 0.057652 0.813698
vt 0.038886 0.813698
vt 0.290968 0.813698
vt 0.290968 0.832464
vt 0.272202 0.832464
vt 0.272202 0.813698
vt 0.253437 0.832464
vt 0.253437 0.813698
vt 0.290968 0.888761
vt 0.272202 0.888761
vt 0.272202 0.851229
vt 0.253437 0.851229
vt 0.057652 0.832464
vt 0.038886 0.832464
vt 0.038886 0.910236
vt 0.038886 0.947767
vt 0.001355 0.947767
vt 0.001355 0.910236
vt 0.202559 0.947767
vt 0.183793 0.947767
vt 0.183793 0.853939
vt 0.202559 0.853939
vt 0.800351 0.473206
vt 0.800351 0.886051
vt 0.762820 0.886051
vt 0.762820 0.473206
vt 0.057652 0.869995
vt 0.038886 0.869995
vt 0.140843 0.853939
vt 0.140843 0.891470
vt 0.103311 0.891470
vt 0.103311 0.853939
vt 0.181083 0.853939
vt 0.181083 0.872704
vt 0.162318 0.872704
vt 0.162318 0.853939
vt 0.143552 0.872704
vt 0.143552 0.853939
vt 0.143552 0.953186
vt 0.143552 0.990717
vt 0.124786 0.990717
vt 0.124786 0.953186
vt 0.982789 0.953186
vt 0.964024 0.953186
vt 0.964024 0.915654
vt 0.982789 0.915654
vt 0.964024 0.896889
vt 0.982789 0.896889
vt 0.181083 0.910236
vt 0.162318 0.910236
vt 0.162318 0.891470
vt 0.143552 0.891470
vt 0.057652 0.907526
vt 0.038886 0.907526
vt 0.497391 0.931711
vt 0.478625 0.931711
vt 0.478625 0.912945
vt 0.497391 0.912945
vt 0.478625 0.875414
vt 0.497391 0.875414
vt 0.140843 0.910236
vt 0.103311 0.910236
vt 0.122077 0.990717
vt 0.103311 0.990717
vt 0.103311 0.953186
vt 0.122077 0.953186
vt 0.459859 0.931711
vt 0.459859 0.912945
vt 0.896889 0.682338
vt 0.896889 0.776166
vt 0.878123 0.776166
vt 0.878123 0.682338
vt 0.918364 0.682338
vt 0.918364 0.719869
vt 0.899598 0.719869
vt 0.899598 0.682338
vt 0.403562 0.950476
vt 0.384797 0.950476
vt 0.384797 0.856648
vt 0.403562 0.856648
vt 0.181083 0.912945
vt 0.181083 0.950476
vt 0.143552 0.950476
vt 0.143552 0.912945
vt 0.663572 0.872704
vt 0.644807 0.872704
vt 0.644807 0.816407
vt 0.663572 0.816407
vt 0.644807 0.778876
vt 0.663572 0.778876
vt 0.918364 0.738635
vt 0.899598 0.738635
vt 0.481334 0.934420
vt 0.481334 0.953186
vt 0.462569 0.953186
vt 0.462569 0.934420
vt 0.626041 0.934420
vt 0.626041 0.971952
vt 0.607275 0.971952
vt 0.607275 0.934420
vt 0.644807 0.835173
vt 0.626041 0.835173
vt 0.626041 0.816407
vt 0.626041 0.778876
vt 0.599347 0.894179
vt 0.599347 0.950477
vt 0.580582 0.950476
vt 0.580582 0.894179
vt 0.982789 0.760110
vt 0.982789 0.778876
vt 0.964024 0.778876
vt 0.964024 0.760110
vt 0.918364 0.776166
vt 0.899598 0.776166
vt 0.481334 0.971952
vt 0.462569 0.971952
vt 0.607275 0.835173
vt 0.607275 0.816407
vt 0.980080 0.607275
vt 0.980080 0.663572
vt 0.961314 0.663572
vt 0.961314 0.607275
vt 0.100602 0.853939
vt 0.100602 0.891470
vt 0.081836 0.891470
vt 0.081836 0.853939
vt 0.982789 0.797642
vt 0.964024 0.797642
vt 0.341846 0.912945
vt 0.304315 0.912945
vt 0.304315 0.856648
vt 0.341846 0.856648
vt 0.982789 0.835173
vt 0.964024 0.835173
vt 0.896889 0.794932
vt 0.878123 0.794932
vt 0.918364 0.832463
vt 0.899598 0.832463
vt 0.100602 0.947767
vt 0.081836 0.947767
vt 0.599347 0.969242
vt 0.580582 0.969242
vt 0.896889 0.832463
vt 0.878123 0.832463
vt 0.475916 0.872704
vt 0.457150 0.872704
vt 0.457150 0.797642
vt 0.475916 0.797642
vt 0.210487 0.529503
vt 0.210487 0.548269
vt 0.172955 0.548269
vt 0.172955 0.529503
vt 0.419619 0.872704
vt 0.419619 0.797642
vt 0.210487 0.567035
vt 0.172955 0.567035
vt 0.135424 0.567035
vt 0.135424 0.548269
vt 0.100602 0.966533
vt 0.081836 0.966533
vt 0.210487 0.585800
vt 0.172955 0.585800
vt 0.135424 0.585800
vt 0.961314 0.912945
vt 0.961314 0.969242
vt 0.942548 0.969242
vt 0.942548 0.912945
vt 0.856648 0.982589
vt 0.837882 0.982589
vt 0.837882 0.907526
vt 0.856648 0.907526
vt 0.210487 0.604566
vt 0.172955 0.604566
vt 0.135424 0.604566
vt 0.382087 0.912945
vt 0.363322 0.912945
vt 0.363322 0.856648
vt 0.382087 0.856648
vt 0.231962 0.950476
vt 0.231962 0.988008
vt 0.213196 0.988008
vt 0.213196 0.950476
vt 0.210487 0.623332
vt 0.172955 0.623332
vt 0.172955 0.660863
vt 0.135424 0.660863
vt 0.344556 0.912945
vt 0.344556 0.856648
vt 0.210487 0.642097
vt 0.172955 0.642097
vt 0.701104 0.663572
vt 0.701104 0.776166
vt 0.607275 0.776166
vt 0.607275 0.663572
vt 0.210487 0.660863
vt 0.210487 0.679629
vt 0.172955 0.679629
vt 0.135424 0.679629
vt 0.210487 0.698394
vt 0.172955 0.698394
vt 0.135424 0.698394
vt 0.210487 0.717160
vt 0.172955 0.717160
vt 0.135424 0.717160
vt 0.210487 0.735926
vt 0.172955 0.735926
vt 0.172955 0.754691
vt 0.135424 0.754691
vt 0.210487 0.754691
vt 0.939839 0.816407
vt 0.939839 0.929001
vt 0.921073 0.929001
vt 0.921073 0.816407
vt 0.896889 0.835173
vt 0.896889 0.947767
vt 0.878123 0.947767
vt 0.878123 0.835173
vt 0.647516 0.971952
vt 0.628750 0.971952
vt 0.628750 0.934420
vt 0.647516 0.934420
vt 0.821826 0.473206
vt 0.821826 0.679629
vt 0.803060 0.679629
vt 0.803060 0.473206
vt 0.958605 0.644807
vt 0.958605 0.663572
vt 0.939839 0.663572
vt 0.939839 0.644807
vt 0.020120 0.988008
vt 0.001355 0.988008
vt 0.001355 0.950476
vt 0.020120 0.950476
vt 0.821826 0.682338
vt 0.821826 0.888761
vt 0.803060 0.888761
vt 0.803061 0.682338
vt 0.937130 0.644807
vt 0.937130 0.663572
vt 0.918364 0.663572
vt 0.918364 0.644807
vt 0.918364 0.835173
vt 0.918364 0.947767
vt 0.899598 0.947767
vt 0.899598 0.835173
vt 0.958605 0.529503
vt 0.958605 0.642097
vt 0.939839 0.642097
vt 0.939839 0.529503
vt 0.760110 0.473206
vt 0.760110 0.998645
vt 0.722579 0.998645
vt 0.722579 0.473206
vt 0.416909 0.738635
vt 0.304315 0.738635
vt 0.304315 0.607275
vt 0.416909 0.607275
vt 0.939839 0.813698
vt 0.921073 0.813698
vt 0.921073 0.682338
vt 0.939839 0.682338
vt 0.132714 0.735926
vt 0.132714 0.754691
vt 0.095183 0.754691
vt 0.095183 0.735926
vt 0.001355 0.754691
vt 0.001355 0.735926
vt 0.132714 0.717160
vt 0.095183 0.717160
vt 0.057652 0.735926
vt 0.057652 0.717160
vt 0.953186 0.001355
vt 0.953186 0.489262
vt 0.896889 0.489262
vt 0.896889 0.001355
vt 0.132714 0.698394
vt 0.095183 0.698394
vt 0.057652 0.698394
vt 0.132714 0.679629
vt 0.095183 0.679629
vt 0.057652 0.679629
vt 0.132714 0.660863
vt 0.095183 0.660863
vt 0.095183 0.623332
vt 0.057652 0.623332
vt 0.323081 0.915654
vt 0.323081 0.971951
vt 0.304315 0.971951
vt 0.304315 0.915654
vt 0.982789 0.757401
vt 0.964024 0.757401
vt 0.964024 0.682338
vt 0.982789 0.682338
vt 0.875414 0.491972
vt 0.875414 0.904817
vt 0.837882 0.904817
vt 0.837882 0.491972
vt 0.132714 0.642097
vt 0.095183 0.642097
vt 0.438384 0.931711
vt 0.419619 0.931711
vt 0.419619 0.875414
vt 0.438384 0.875414
vt 0.937130 0.604566
vt 0.937130 0.642097
vt 0.918364 0.642097
vt 0.918364 0.604566
vt 0.132714 0.623332
vt 0.457150 0.931711
vt 0.457150 0.875414
vt 0.132714 0.604566
vt 0.095183 0.604566
vt 0.057652 0.604566
vt 0.135424 0.813698
vt 0.135424 0.851229
vt 0.060361 0.851229
vt 0.060361 0.813698
vt 0.937130 0.585800
vt 0.918364 0.585800
vt 0.132714 0.585800
vt 0.095183 0.585800
vt 0.057652 0.585800
vt 0.937130 0.529503
vt 0.918364 0.529503
vt 0.132714 0.567035
vt 0.095183 0.567035
vt 0.057652 0.567035
vt 0.135424 0.794932
vt 0.060361 0.794932
vt 0.132714 0.548269
vt 0.095183 0.548269
vt 0.095183 0.529503
vt 0.057652 0.529503
vt 0.135424 0.757401
vt 0.060361 0.757401
vt 0.132714 0.529503
vt 0.937130 0.491972
vt 0.918364 0.491972
vt 0.290968 0.754691
vt 0.290968 0.810988
vt 0.272202 0.810988
vt 0.272203 0.754691
vt 0.269493 0.792223
vt 0.269493 0.810988
vt 0.250727 0.810988
vt 0.250727 0.792223
vt 0.231962 0.810988
vt 0.231962 0.792223
vt 0.213196 0.810988
vt 0.213196 0.792223
vt 0.980080 0.604566
vt 0.961314 0.604566
vt 0.961314 0.548269
vt 0.980080 0.548269
vt 0.961314 0.529503
vt 0.980080 0.529503
vt 0.269493 0.773457
vt 0.250727 0.773457
vt 0.250727 0.698394
vt 0.231962 0.698394
vt 0.231962 0.754691
vt 0.213196 0.754691
vt 0.041595 0.969242
vt 0.041595 0.988008
vt 0.022830 0.988008
vt 0.022830 0.969242
vt 0.202559 0.950476
vt 0.202559 0.988008
vt 0.183793 0.988008
vt 0.183793 0.950476
vt 0.593928 0.872704
vt 0.593928 0.891470
vt 0.575163 0.891470
vt 0.575163 0.872704
vt 0.537631 0.891470
vt 0.537631 0.872704
vt 0.269493 0.717160
vt 0.250727 0.717160
vt 0.041595 0.950476
vt 0.022830 0.950476
vt 0.593928 0.853939
vt 0.575163 0.853939
vt 0.575163 0.835173
vt 0.537631 0.835173
vt 0.290968 0.717160
vt 0.272203 0.717160
vt 0.231962 0.735926
vt 0.213196 0.735926
vt 0.982789 0.894179
vt 0.964024 0.894179
vt 0.964024 0.837882
vt 0.982789 0.837882
vt 0.231962 0.679629
vt 0.213196 0.679629
vt 0.518866 0.969242
vt 0.500100 0.969242
vt 0.500100 0.875414
vt 0.518866 0.875414
vt 0.290968 0.679629
vt 0.272203 0.679629
vt 0.269493 0.698394
vt 0.703813 0.950476
vt 0.666282 0.950476
vt 0.666282 0.912945
vt 0.703813 0.912945
vt 0.626041 0.931711
vt 0.607275 0.931711
vt 0.607275 0.912945
vt 0.626041 0.912945
vt 0.607275 0.875414
vt 0.626041 0.875414
vt 0.269493 0.679629
vt 0.250727 0.679629
vt 0.250727 0.660863
vt 0.231962 0.660863
vt 0.644807 0.931711
vt 0.644807 0.912945
vt 0.939839 0.931711
vt 0.939839 0.969242
vt 0.921073 0.969242
vt 0.921073 0.931711
vt 0.896889 0.969242
vt 0.896889 0.988008
vt 0.878123 0.988008
vt 0.878123 0.969242
vt 0.290968 0.642097
vt 0.272203 0.642097
vt 0.269493 0.660863
vt 0.231962 0.623332
vt 0.213196 0.623332
vt 0.366031 0.971951
vt 0.347265 0.971951
vt 0.347265 0.915654
vt 0.366031 0.915654
vt 0.896889 0.950476
vt 0.878123 0.950476
vt 0.269493 0.604566
vt 0.250727 0.604566
vt 0.250727 0.623332
vt 0.398143 0.741345
vt 0.398143 0.853939
vt 0.304315 0.853939
vt 0.304315 0.741345
vt 0.290968 0.623332
vt 0.272203 0.623332
vt 0.290968 0.585800
vt 0.272203 0.585800
vt 0.918364 0.988008
vt 0.899598 0.988008
vt 0.899598 0.950476
vt 0.918364 0.950476
vt 0.269493 0.585800
vt 0.250727 0.585800
vt 0.577872 0.894179
vt 0.577872 0.969242
vt 0.559106 0.969242
vt 0.559106 0.894179
vt 0.781585 0.926292
vt 0.781585 0.963823
vt 0.762820 0.963823
vt 0.762820 0.926292
vt 0.290968 0.567035
vt 0.272203 0.567035
vt 0.269493 0.529503
vt 0.250727 0.529503
vt 0.290968 0.529503
vt 0.272203 0.529503
vt 0.781585 0.888761
vt 0.762820 0.888761
vt 0.001355 0.526794
vt 0.001355 0.001355
vt 0.301606 0.001355
vt 0.301606 0.526794
vt 0.607275 0.526794
vt 0.607275 0.001355
vt 0.719869 0.001355
vt 0.719869 0.526794
vt 0.497391 0.607275
vt 0.553688 0.607275
vt 0.553688 0.794932
vt 0.497391 0.794932
vt 0.722579 0.470497
vt 0.722579 0.001355
vt 0.835173 0.001355
vt 0.835173 0.470497
vt 0.419619 0.794932
vt 0.419619 0.607275
vt 0.494681 0.607275
vt 0.494681 0.794932
vt 0.478625 0.797642
vt 0.534922 0.797642
vt 0.534922 0.872704
vt 0.478625 0.872704
vt 0.942548 0.794932
vt 0.942548 0.682338
vt 0.961314 0.682338
vt 0.961314 0.794932
vt 0.138133 0.851229
vt 0.138133 0.757401
vt 0.194430 0.757401
vt 0.194430 0.851229
vt 0.146261 0.971951
vt 0.146261 0.953186
vt 0.165027 0.953186
vt 0.165027 0.971951
vt 0.060361 0.966533
vt 0.060361 0.853939
vt 0.079127 0.853939
vt 0.079127 0.966533
vt 0.942548 0.910236
vt 0.942549 0.797642
vt 0.961314 0.797642
vt 0.961314 0.910236
vt 0.213196 0.907526
vt 0.213196 0.813698
vt 0.250727 0.813698
vt 0.250727 0.907526
vt 0.556397 0.832464
vt 0.556397 0.607275
vt 0.593928 0.607275
vt 0.593928 0.832464
vt 0.878123 0.679629
vt 0.878123 0.491972
vt 0.915655 0.491972
vt 0.915655 0.679629
s 0
usemtl ammo_box.vox_Material
f 1/1/1 2/2/1 3/3/1 4/4/1
f 5/5/1 6/6/1 7/7/1 8/8/1
f 9/9/2 10/10/2 11/11/2 12/12/2
f 13/13/1 14/14/1 15/15/1 16/16/1
f 17/17/2 18/18/2 19/19/2 20/20/2
f 21/21/1 22/22/1 23/23/1 24/24/1
f 25/25/1 26/26/1 27/27/1 28/28/1
f 29/29/2 30/30/2 31/31/2 32/32/2
f 33/33/2 34/34/2 35/35/2 36/36/2
f 37/37/2 38/38/2 39/39/2 40/40/2
f 2/41/3 37/42/3 41/43/3 42/44/3
f 42/45/3 43/46/3 44/47/3 45/48/3
f 45/49/3 46/50/3 47/51/3 3/52/3
f 46/53/3 48/54/3 49/55/3 50/56/3
f 50/56/3 49/55/3 51/57/3 52/58/3
f 52/59/3 53/60/3 54/61/3 55/62/3
f 55/63/3 56/64/3 40/65/3 47/66/3
f 48/54/3 57/67/3 58/68/3 49/55/3
f 49/69/3 59/70/3 60/71/3 61/72/3
f 61/72/3 60/71/3 62/73/3 51/74/3
f 59/70/3 63/75/3 64/76/3 60/71/3
f 60/71/3 65/77/3 53/78/3 62/73/3
f 57/67/3 44/79/3 66/80/3 58/68/3
f 65/81/3 64/82/3 67/83/3 54/84/3
f 43/85/3 68/86/3 69/87/3 70/88/3
f 70/89/3 71/90/3 72/91/3 44/92/3
f 44/79/3 73/93/3 74/94/3 66/80/3
f 68/95/3 75/96/3 76/97/3 77/98/3
f 77/99/3 78/100/3 79/101/3 80/102/3
f 80/102/3 79/101/3 81/103/3 82/104/3
f 82/105/3 83/106/3 84/107/3 69/108/3
f 63/109/3 74/110/3 85/111/3 86/112/3
f 86/112/3 85/111/3 87/113/3 67/114/3
f 78/100/3 88/115/3 89/116/3 79/101/3
f 79/101/3 90/117/3 83/118/3 81/103/3
f 73/93/3 91/119/3 92/120/3 74/94/3
f 74/121/3 93/122/3 94/123/3 95/124/3
f 95/124/3 94/123/3 96/125/3 87/126/3
f 75/96/3 97/127/3 88/128/3 76/97/3
f 90/129/3 89/130/3 98/131/3 84/132/3
f 93/122/3 92/133/3 99/134/3 94/123/3
f 94/135/3 100/136/3 101/137/3 102/138/3
f 102/139/3 103/140/3 104/141/3 96/142/3
f 97/143/3 105/144/3 106/145/3 98/146/3
f 91/147/3 107/148/3 108/149/3 99/150/3
f 105/151/3 109/152/3 110/153/3 111/154/3
f 111/154/3 110/153/3 112/155/3 106/156/3
f 103/140/3 113/157/3 114/158/3 104/141/3
f 109/159/3 115/160/3 116/161/3 117/162/3
f 117/163/3 118/164/3 119/165/3 120/166/3
f 120/167/3 121/168/3 122/169/3 110/153/3
f 110/153/3 122/169/3 123/170/3 112/155/3
f 107/171/3 124/172/3 125/173/3 126/174/3
f 126/175/3 127/176/3 128/177/3 108/178/3
f 113/157/3 101/179/3 129/180/3 114/158/3
f 115/160/3 130/181/3 118/182/3 116/161/3
f 121/168/3 119/183/3 131/184/3 122/169/3
f 122/185/3 132/186/3 133/187/3 134/188/3
f 134/189/3 135/190/3 136/191/3 123/192/3
f 127/176/3 137/193/3 100/194/3 128/177/3
f 130/195/3 138/196/3 132/197/3 131/198/3
f 137/193/3 139/199/3 140/200/3 100/194/3
f 100/136/3 141/201/3 142/202/3 101/137/3
f 101/179/3 143/203/3 144/204/3 129/180/3
f 135/190/3 145/205/3 146/206/3 136/191/3
f 124/172/3 147/207/3 139/208/3 125/173/3
f 141/201/3 148/209/3 143/210/3 142/202/3
f 138/211/3 149/212/3 150/213/3 133/214/3
f 147/215/3 151/216/3 148/217/3 140/218/3
f 149/212/3 152/219/3 153/220/3 150/213/3
f 151/216/3 154/221/3 155/222/3 148/217/3
f 148/217/3 155/222/3 156/223/3 144/224/3
f 145/205/3 153/225/3 157/226/3 146/206/3
f 154/221/3 158/227/3 159/228/3 155/222/3
f 155/222/3 159/228/3 160/229/3 156/223/3
f 152/230/3 161/231/3 162/232/3 163/233/3
f 163/234/3 164/235/3 165/236/3 157/237/3
f 158/227/3 166/238/3 167/239/3 159/228/3
f 159/228/3 167/239/3 168/240/3 160/229/3
f 164/241/3 169/242/3 170/243/3 171/244/3
f 171/245/3 172/246/3 173/247/3 165/248/3
f 166/238/3 174/249/3 175/250/3 167/239/3
f 167/239/3 176/251/3 177/252/3 168/240/3
f 169/242/3 162/253/3 172/254/3 170/243/3
f 174/249/3 178/255/3 179/256/3 175/250/3
f 161/257/3 41/258/3 71/259/3 173/260/3
f 178/255/3 180/261/3 176/251/3 179/256/3
f 180/261/3 181/262/3 182/263/3 176/251/3
f 176/251/3 182/263/3 183/264/3 177/252/3
f 181/262/3 184/265/3 185/266/3 182/263/3
f 182/263/3 185/266/3 186/267/3 183/264/3
f 184/265/3 187/268/3 188/269/3 185/266/3
f 185/266/3 188/269/3 189/270/3 186/267/3
f 187/268/3 190/271/3 191/272/3 188/269/3
f 188/269/3 192/273/3 56/274/3 189/270/3
f 190/271/3 72/275/3 192/273/3 191/272/3
f 6/276/3 9/277/3 12/278/3 7/279/3
f 22/280/3 33/281/3 36/282/3 23/283/3
f 14/284/3 17/285/3 193/286/3 15/287/3
f 20/288/3 194/289/3 32/290/3 193/291/3
f 26/292/3 29/293/3 194/294/3 27/295/3
f 18/296/4 13/297/4 16/298/4 195/299/4
f 196/300/4 19/301/4 195/302/4 31/303/4
f 30/304/4 25/305/4 28/306/4 196/307/4
f 10/308/4 5/309/4 8/310/4 11/311/4
f 34/312/4 21/313/4 24/314/4 35/315/4
f 38/316/4 1/317/4 197/318/4 198/319/4
f 199/320/4 197/321/4 200/322/4 201/323/4
f 202/324/4 200/325/4 4/326/4 203/327/4
f 204/328/4 202/329/4 205/330/4 206/331/4
f 206/331/4 205/330/4 203/332/4 207/333/4
f 208/334/4 204/328/4 206/331/4 209/335/4
f 209/335/4 206/331/4 210/336/4 211/337/4
f 212/338/4 210/339/4 207/340/4 39/341/4
f 213/342/4 208/334/4 209/335/4 214/343/4
f 214/343/4 209/335/4 211/337/4 215/344/4
f 216/345/4 213/342/4 214/343/4 217/346/4
f 217/346/4 214/343/4 215/344/4 218/347/4
f 201/348/4 216/345/4 217/346/4 219/349/4
f 220/350/4 217/346/4 218/347/4 221/351/4
f 222/352/4 199/353/4 223/354/4 224/355/4
f 225/356/4 223/357/4 226/358/4 227/359/4
f 228/360/4 226/361/4 201/362/4 229/363/4
f 230/364/4 201/348/4 219/349/4 231/365/4
f 232/366/4 225/367/4 233/368/4 234/369/4
f 235/370/4 233/371/4 227/372/4 236/373/4
f 237/374/4 230/364/4 231/365/4 220/350/4
f 224/375/4 232/366/4 234/369/4 235/376/4
f 238/377/4 237/374/4 220/350/4 239/378/4
f 239/378/4 220/350/4 221/351/4 240/379/4
f 241/380/4 222/381/4 235/382/4 242/383/4
f 243/384/4 235/370/4 236/373/4 244/385/4
f 245/386/4 238/377/4 239/378/4 246/387/4
f 246/387/4 239/378/4 240/379/4 247/388/4
f 248/389/4 243/384/4 244/385/4 249/390/4
f 250/391/4 245/386/4 246/387/4 251/392/4
f 251/392/4 246/387/4 247/388/4 252/393/4
f 253/394/4 241/380/4 242/383/4 254/395/4
f 255/396/4 250/391/4 251/392/4 256/397/4
f 257/398/4 251/392/4 252/393/4 258/399/4
f 259/400/4 253/394/4 254/395/4 260/401/4
f 261/402/4 255/396/4 256/397/4 257/398/4
f 262/403/4 248/389/4 249/390/4 263/404/4
f 264/405/4 261/406/4 265/407/4 266/408/4
f 267/409/4 265/410/4 257/411/4 268/412/4
f 268/412/4 257/411/4 269/413/4 270/414/4
f 270/414/4 269/413/4 258/415/4 271/416/4
f 272/417/4 259/418/4 273/419/4 274/420/4
f 274/420/4 273/419/4 260/421/4 262/422/4
f 275/423/4 267/409/4 268/412/4 276/424/4
f 277/425/4 268/412/4 270/414/4 278/426/4
f 279/427/4 270/414/4 271/416/4 280/428/4
f 281/429/4 272/430/4 282/431/4 283/432/4
f 284/433/4 282/434/4 285/435/4 286/436/4
f 287/437/4 285/438/4 274/439/4 288/440/4
f 288/440/4 274/439/4 263/441/4 289/442/4
f 290/443/4 275/423/4 276/424/4 291/444/4
f 292/445/4 281/429/4 283/432/4 284/446/4
f 286/447/4 287/437/4 288/440/4 293/448/4
f 294/449/4 288/440/4 289/442/4 295/450/4
f 296/451/4 264/405/4 266/408/4 290/452/4
f 297/453/4 279/427/4 280/428/4 298/454/4
f 299/455/4 292/456/4 293/457/4 294/458/4
f 300/459/4 297/453/4 298/454/4 301/460/4
f 302/461/4 299/462/4 295/463/4 303/464/4
f 304/465/4 296/451/4 290/452/4 305/466/4
f 306/467/4 290/443/4 291/444/4 277/425/4
f 307/468/4 302/469/4 308/470/4 309/471/4
f 310/472/4 308/473/4 311/474/4 312/475/4
f 312/475/4 311/474/4 303/476/4 313/477/4
f 305/478/4 306/467/4 277/425/4 314/479/4
f 315/480/4 277/425/4 278/426/4 316/481/4
f 309/482/4 310/472/4 312/475/4 317/483/4
f 318/484/4 312/485/4 319/486/4 320/487/4
f 321/488/4 319/489/4 313/490/4 322/491/4
f 323/492/4 304/465/4 305/466/4 324/493/4
f 325/494/4 305/478/4 314/479/4 315/480/4
f 326/495/4 300/459/4 301/460/4 327/496/4
f 328/497/4 307/498/4 317/499/4 318/500/4
f 320/501/4 321/488/4 322/491/4 329/502/4
f 330/503/4 325/494/4 315/480/4 331/504/4
f 332/505/4 315/480/4 316/481/4 326/495/4
f 198/506/4 328/507/4 329/508/4 228/509/4
f 333/510/4 323/492/4 324/493/4 334/511/4
f 335/512/4 333/510/4 334/511/4 336/513/4
f 331/514/4 332/515/4 327/516/4 337/517/4
f 336/518/4 330/503/4 331/504/4 338/519/4
f 339/520/4 331/521/4 340/522/4 341/523/4
f 342/524/4 340/525/4 337/526/4 343/527/4
f 344/528/4 335/512/4 336/513/4 345/529/4
f 346/530/4 336/518/4 338/519/4 339/531/4
f 229/532/4 344/528/4 345/529/4 346/533/4
f 341/534/4 342/524/4 343/527/4 212/535/4
f 37/536/5 2/537/5 1/538/5 38/539/5
f 3/540/6 40/541/6 347/542/6 348/543/6
f 348/544/6 6/545/6 349/546/6 4/547/6
f 5/548/6 350/549/6 39/550/6 349/551/6
f 9/552/6 22/553/6 21/554/6 10/555/6
f 33/556/6 347/557/6 350/558/6 34/559/6
f 7/560/6 12/561/6 17/562/6 351/563/6
f 351/564/6 14/565/6 352/566/6 8/567/6
f 13/568/6 18/569/6 11/570/6 352/571/6
f 23/572/6 36/573/6 353/574/6 26/575/6
f 25/576/6 354/577/6 35/578/6 24/579/6
f 29/580/6 353/581/6 354/582/6 30/583/6
f 15/584/6 32/585/6 31/586/6 16/587/6
f 27/588/5 20/589/5 19/590/5 28/591/5
