# MagicaVoxel @ Ephtracy

# group
o 

# material
mtllib drawers.mtl
usemtl palette

# normals
vn -1 0 0
vn 1 0 0
vn 0 0 1
vn 0 0 -1
vn 0 -1 0
vn 0 1 0

# texcoords
vt 0.373047 0.5
vt 0.451172 0.5
vt 0.619141 0.5

# verts
v -0.6 0 0.4
v -0.6 0 -0.5
v -0.6 1.2 0.4
v -0.6 1.2 -0.5
v -0.0999999 0.2 -0.5
v -0.0999999 0.2 -0.6
v -0.0999999 0.3 -0.5
v -0.0999999 0.3 -0.6
v -0.0999999 0.6 -0.5
v -0.0999999 0.6 -0.6
v -0.0999999 0.7 -0.5
v -0.0999999 0.7 -0.6
v -0.0999999 1 -0.5
v -0.0999999 1 -0.6
v -0.0999999 1.1 -0.5
v -0.0999999 1.1 -0.6
v 0.5 0.1 0.3
v 0.5 0.1 -0.4
v 0.5 0.4 0.3
v 0.5 0.4 -0.4
v 0.5 0.5 0.3
v 0.5 0.5 -0.4
v 0.5 0.8 0.3
v 0.5 0.8 -0.4
v 0.5 0.9 0.3
v 0.5 0.9 -0.4
v 0.5 1.2 0.3
v 0.5 1.2 -0.4
v -0.5 0.1 0.3
v -0.5 0.1 -0.4
v -0.5 0.4 0.3
v -0.5 0.4 -0.4
v -0.5 0.5 0.3
v -0.5 0.5 -0.4
v -0.5 0.8 0.3
v -0.5 0.8 -0.4
v -0.5 0.9 0.3
v -0.5 0.9 -0.4
v -0.5 1.2 0.3
v -0.5 1.2 -0.4
v 0.1 0.2 -0.5
v 0.1 0.2 -0.6
v 0.1 0.3 -0.5
v 0.1 0.3 -0.6
v 0.1 0.6 -0.5
v 0.1 0.6 -0.6
v 0.1 0.7 -0.5
v 0.1 0.7 -0.6
v 0.1 1 -0.5
v 0.1 1 -0.6
v 0.1 1.1 -0.5
v 0.1 1.1 -0.6
v 0.6 0 0.4
v 0.6 0 -0.5
v 0.6 1.2 0.4
v 0.6 1.2 -0.5
v -0.6 0 0.4
v -0.6 1.2 0.4
v 0.6 0 0.4
v 0.6 1.2 0.4
v -0.5 0.1 -0.4
v -0.5 0.4 -0.4
v -0.5 0.5 -0.4
v -0.5 0.8 -0.4
v -0.5 0.9 -0.4
v -0.5 1.2 -0.4
v 0.5 0.1 -0.4
v 0.5 0.4 -0.4
v 0.5 0.5 -0.4
v 0.5 0.8 -0.4
v 0.5 0.9 -0.4
v 0.5 1.2 -0.4
v -0.5 0.1 0.3
v -0.5 0.4 0.3
v -0.5 0.5 0.3
v -0.5 0.8 0.3
v -0.5 0.9 0.3
v -0.5 1.2 0.3
v 0.5 0.1 0.3
v 0.5 0.4 0.3
v 0.5 0.5 0.3
v 0.5 0.8 0.3
v 0.5 0.9 0.3
v 0.5 1.2 0.3
v -0.6 0 -0.5
v -0.6 1.2 -0.5
v -0.5 0.1 -0.5
v -0.5 0.4 -0.5
v -0.5 0.5 -0.5
v -0.5 0.8 -0.5
v -0.5 0.9 -0.5
v -0.5 1.2 -0.5
v -0.0999999 0.2 -0.5
v -0.0999999 0.3 -0.5
v -0.0999999 0.6 -0.5
v -0.0999999 0.7 -0.5
v -0.0999999 1 -0.5
v -0.0999999 1.1 -0.5
v 0.1 0.2 -0.5
v 0.1 0.3 -0.5
v 0.1 0.6 -0.5
v 0.1 0.7 -0.5
v 0.1 1 -0.5
v 0.1 1.1 -0.5
v 0.5 0.1 -0.5
v 0.5 0.4 -0.5
v 0.5 0.5 -0.5
v 0.5 0.8 -0.5
v 0.5 0.9 -0.5
v 0.5 1.2 -0.5
v 0.6 0 -0.5
v 0.6 1.2 -0.5
v -0.0999999 0.2 -0.6
v -0.0999999 0.3 -0.6
v -0.0999999 0.6 -0.6
v -0.0999999 0.7 -0.6
v -0.0999999 1 -0.6
v -0.0999999 1.1 -0.6
v 0.1 0.2 -0.6
v 0.1 0.3 -0.6
v 0.1 0.6 -0.6
v 0.1 0.7 -0.6
v 0.1 1 -0.6
v 0.1 1.1 -0.6
v -0.6 0 0.4
v 0.6 0 0.4
v -0.6 0 -0.5
v 0.6 0 -0.5
v -0.0999999 0.2 -0.5
v 0.1 0.2 -0.5
v -0.0999999 0.2 -0.6
v 0.1 0.2 -0.6
v -0.5 0.4 0.3
v 0.5 0.4 0.3
v -0.5 0.4 -0.4
v 0.5 0.4 -0.4
v -0.0999999 0.6 -0.5
v 0.1 0.6 -0.5
v -0.0999999 0.6 -0.6
v 0.1 0.6 -0.6
v -0.5 0.8 0.3
v 0.5 0.8 0.3
v -0.5 0.8 -0.4
v 0.5 0.8 -0.4
v -0.0999999 1 -0.5
v 0.1 1 -0.5
v -0.0999999 1 -0.6
v 0.1 1 -0.6
v -0.5 0.1 0.3
v 0.5 0.1 0.3
v -0.5 0.1 -0.4
v 0.5 0.1 -0.4
v -0.0999999 0.3 -0.5
v 0.1 0.3 -0.5
v -0.0999999 0.3 -0.6
v 0.1 0.3 -0.6
v -0.5 0.5 0.3
v 0.5 0.5 0.3
v -0.5 0.5 -0.4
v 0.5 0.5 -0.4
v -0.0999999 0.7 -0.5
v 0.1 0.7 -0.5
v -0.0999999 0.7 -0.6
v 0.1 0.7 -0.6
v -0.5 0.9 0.3
v 0.5 0.9 0.3
v -0.5 0.9 -0.4
v 0.5 0.9 -0.4
v -0.0999999 1.1 -0.5
v 0.1 1.1 -0.5
v -0.0999999 1.1 -0.6
v 0.1 1.1 -0.6
v -0.6 1.2 0.4
v 0.6 1.2 0.4
v -0.5 1.2 0.3
v 0.5 1.2 0.3
v -0.5 1.2 -0.4
v 0.5 1.2 -0.4
v -0.6 1.2 -0.5
v -0.5 1.2 -0.5
v 0.5 1.2 -0.5
v 0.6 1.2 -0.5

# faces
f 3/3/1 2/3/1 1/3/1
f 4/3/1 2/3/1 3/3/1
f 7/2/1 6/2/1 5/2/1
f 8/2/1 6/2/1 7/2/1
f 11/2/1 10/2/1 9/2/1
f 12/2/1 10/2/1 11/2/1
f 15/2/1 14/2/1 13/2/1
f 16/2/1 14/2/1 15/2/1
f 19/3/1 18/3/1 17/3/1
f 20/3/1 18/3/1 19/3/1
f 23/3/1 22/3/1 21/3/1
f 24/3/1 22/3/1 23/3/1
f 27/3/1 26/3/1 25/3/1
f 28/3/1 26/3/1 27/3/1
f 29/3/2 30/3/2 31/3/2
f 31/3/2 30/3/2 32/3/2
f 33/3/2 34/3/2 35/3/2
f 35/3/2 34/3/2 36/3/2
f 37/3/2 38/3/2 39/3/2
f 39/3/2 38/3/2 40/3/2
f 41/2/2 42/2/2 43/2/2
f 43/2/2 42/2/2 44/2/2
f 45/2/2 46/2/2 47/2/2
f 47/2/2 46/2/2 48/2/2
f 49/2/2 50/2/2 51/2/2
f 51/2/2 50/2/2 52/2/2
f 53/3/2 54/3/2 55/3/2
f 55/3/2 54/3/2 56/3/2
f 59/3/3 58/3/3 57/3/3
f 60/3/3 58/3/3 59/3/3
f 67/1/3 62/1/3 61/1/3
f 68/1/3 62/1/3 67/1/3
f 69/1/3 64/1/3 63/1/3
f 70/1/3 64/1/3 69/1/3
f 71/1/3 66/1/3 65/1/3
f 72/1/3 66/1/3 71/1/3
f 73/3/4 74/3/4 79/3/4
f 79/3/4 74/3/4 80/3/4
f 75/3/4 76/3/4 81/3/4
f 81/3/4 76/3/4 82/3/4
f 77/3/4 78/3/4 83/3/4
f 83/3/4 78/3/4 84/3/4
f 85/3/4 86/3/4 87/3/4
f 87/3/4 86/3/4 88/3/4
f 88/3/4 86/3/4 89/3/4
f 89/3/4 86/3/4 90/3/4
f 90/3/4 86/3/4 91/3/4
f 91/3/4 86/3/4 92/3/4
f 87/1/4 88/1/4 93/1/4
f 93/1/4 88/1/4 94/1/4
f 89/1/4 90/1/4 95/1/4
f 95/1/4 90/1/4 96/1/4
f 91/1/4 92/1/4 97/1/4
f 97/1/4 92/1/4 98/1/4
f 87/1/4 93/1/4 99/1/4
f 94/1/4 88/1/4 100/1/4
f 89/1/4 95/1/4 101/1/4
f 96/1/4 90/1/4 102/1/4
f 91/1/4 97/1/4 103/1/4
f 98/1/4 92/1/4 104/1/4
f 85/3/4 87/3/4 105/3/4
f 87/1/4 99/1/4 105/1/4
f 99/1/4 100/1/4 105/1/4
f 88/3/4 89/3/4 106/3/4
f 105/1/4 100/1/4 106/1/4
f 100/1/4 88/1/4 106/1/4
f 89/1/4 101/1/4 107/1/4
f 106/3/4 89/3/4 107/3/4
f 101/1/4 102/1/4 107/1/4
f 90/3/4 91/3/4 108/3/4
f 107/1/4 102/1/4 108/1/4
f 102/1/4 90/1/4 108/1/4
f 103/1/4 104/1/4 109/1/4
f 108/3/4 91/3/4 109/3/4
f 91/1/4 103/1/4 109/1/4
f 104/1/4 92/1/4 110/1/4
f 109/1/4 104/1/4 110/1/4
f 107/3/4 108/3/4 111/3/4
f 85/3/4 105/3/4 111/3/4
f 109/3/4 110/3/4 111/3/4
f 108/3/4 109/3/4 111/3/4
f 106/3/4 107/3/4 111/3/4
f 105/3/4 106/3/4 111/3/4
f 111/3/4 110/3/4 112/3/4
f 113/2/4 114/2/4 119/2/4
f 119/2/4 114/2/4 120/2/4
f 115/2/4 116/2/4 121/2/4
f 121/2/4 116/2/4 122/2/4
f 117/2/4 118/2/4 123/2/4
f 123/2/4 118/2/4 124/2/4
f 127/3/5 126/3/5 125/3/5
f 128/3/5 126/3/5 127/3/5
f 131/2/5 130/2/5 129/2/5
f 132/2/5 130/2/5 131/2/5
f 135/3/5 134/3/5 133/3/5
f 136/3/5 134/3/5 135/3/5
f 139/2/5 138/2/5 137/2/5
f 140/2/5 138/2/5 139/2/5
f 143/3/5 142/3/5 141/3/5
f 144/3/5 142/3/5 143/3/5
f 147/2/5 146/2/5 145/2/5
f 148/2/5 146/2/5 147/2/5
f 149/3/6 150/3/6 151/3/6
f 151/3/6 150/3/6 152/3/6
f 153/2/6 154/2/6 155/2/6
f 155/2/6 154/2/6 156/2/6
f 157/3/6 158/3/6 159/3/6
f 159/3/6 158/3/6 160/3/6
f 161/2/6 162/2/6 163/2/6
f 163/2/6 162/2/6 164/2/6
f 165/3/6 166/3/6 167/3/6
f 167/3/6 166/3/6 168/3/6
f 169/2/6 170/2/6 171/2/6
f 171/2/6 170/2/6 172/2/6
f 173/3/6 174/3/6 175/3/6
f 175/3/6 174/3/6 176/3/6
f 173/3/6 175/3/6 177/3/6
f 176/3/6 174/3/6 178/3/6
f 173/3/6 177/3/6 179/3/6
f 177/1/6 178/1/6 180/1/6
f 179/3/6 177/3/6 180/3/6
f 178/3/6 174/3/6 181/3/6
f 180/1/6 178/1/6 181/1/6
f 181/3/6 174/3/6 182/3/6
