# MagicaVoxel @ Ephtracy

# group
o 

# material
mtllib hospitalBed.mtl
usemtl palette

# normals
vn -1 0 0
vn 1 0 0
vn 0 0 1
vn 0 0 -1
vn 0 -1 0
vn 0 1 0

# texcoords
vt 0.181641 0.5
vt 0.357422 0.5
vt 0.373047 0.5
vt 0.392578 0.5
vt 0.451172 0.5
vt 0.482422 0.5

# verts
v -2.8 0.9 1
v -2.8 0.9 0.8
v -2.8 0.9 -1
v -2.8 0.9 -1.2
v -2.8 1.1 1
v -2.8 1.1 0.8
v -2.8 1.1 -1
v -2.8 1.1 -1.2
v -2.7 0.9 0.8
v -2.7 0.9 -1
v -2.7 1.1 0.9
v -2.7 1.1 0.8
v -2.7 1.1 0.7
v -2.7 1.1 -0.9
v -2.7 1.1 -1
v -2.7 1.1 -1.1
v -2.7 1.3 0.7
v -2.7 1.3 -0.9
v -2.7 1.5 0.8
v -2.7 1.5 0.0999999
v -2.7 1.5 -0.3
v -2.7 1.5 -1
v -2.7 1.6 0.0999999
v -2.7 1.6 -1.19209e-07
v -2.7 1.6 -0.2
v -2.7 1.6 -0.3
v -2.7 1.7 0.9
v -2.7 1.7 0.8
v -2.7 1.7 -1.19209e-07
v -2.7 1.7 -0.2
v -2.7 1.7 -1
v -2.7 1.7 -1.1
v -2.7 1.8 0.8
v -2.7 1.8 -1
v -2.4 0.1 0.7
v -2.4 0.1 0.6
v -2.4 0.1 0.5
v -2.4 0.1 -0.7
v -2.4 0.1 -0.8
v -2.4 0.1 -0.9
v -2.4 0.3 0.7
v -2.4 0.3 0.6
v -2.4 0.3 0.5
v -2.4 0.3 -0.7
v -2.4 0.3 -0.8
v -2.4 0.3 -0.9
v -2.3 0 0.7
v -2.3 0 0.6
v -2.3 0 0.5
v -2.3 0 -0.7
v -2.3 0 -0.8
v -2.3 0 -0.9
v -2.3 0.1 0.7
v -2.3 0.1 0.6
v -2.3 0.1 0.5
v -2.3 0.1 -0.7
v -2.3 0.1 -0.8
v -2.3 0.1 -0.9
v -2.3 0.3 0.7
v -2.3 0.3 0.6
v -2.3 0.3 0.5
v -2.3 0.3 -0.7
v -2.3 0.3 -0.8
v -2.3 0.3 -0.9
v -2.3 0.4 0.6
v -2.3 0.4 0.5
v -2.3 0.4 -0.7
v -2.3 0.4 -0.8
v -2.3 0.6 0.7
v -2.3 0.6 0.5
v -2.3 0.6 -0.7
v -2.3 0.6 -0.9
v -2.3 1.4 0.5
v -2.3 1.4 -0.7
v -2.3 1.5 0.5
v -2.3 1.5 -0.7
v -2.2 1.4 0.6
v -2.2 1.4 0.5
v -2.2 1.4 -0.7
v -2.2 1.4 -0.8
v -2.2 1.5 0.6
v -2.2 1.5 0.5
v -2.2 1.5 -0.7
v -2.2 1.5 -0.8
v -2.2 1.6 0.5
v -2.2 1.6 -0.7
v -2.1 1.6 0.9
v -2.1 1.6 0.8
v -2.1 1.6 -1
v -2.1 1.6 -1.1
v -2.1 1.7 0.9
v -2.1 1.7 0.8
v -2.1 1.7 -1
v -2.1 1.7 -1.1
v -2 0.5 0.5
v -2 0.5 -0.7
v -2 0.6 0.5
v -2 0.6 -0.7
v -1.8 1.1 0.9
v -1.8 1.1 0.8
v -1.8 1.1 -1
v -1.8 1.1 -1.1
v -1.8 1.2 0.9
v -1.8 1.2 0.8
v -1.8 1.2 -1
v -1.8 1.2 -1.1
v -1.8 1.4 0.8
v -1.8 1.4 -1
v -1.8 1.5 0.9
v -1.8 1.5 0.8
v -1.8 1.5 -1
v -1.8 1.5 -1.1
v -1.8 1.6 0.9
v -1.8 1.6 0.8
v -1.8 1.6 -1
v -1.8 1.6 -1.1
v -1.5 0.4 0.5
v -1.5 0.4 -0.7
v -1.5 0.5 0.5
v -1.5 0.5 0.4
v -1.5 0.5 -0.6
v -1.5 0.5 -0.7
v -1.5 0.6 0.5
v -1.5 0.6 0.4
v -1.5 0.6 -0.6
v -1.5 0.6 -0.7
v -1.5 0.7 0.5
v -1.5 0.7 0.4
v -1.5 0.7 -0.6
v -1.5 0.7 -0.7
v -1.5 0.9 0.5
v -1.5 0.9 0.4
v -1.5 0.9 -0.6
v -1.5 0.9 -0.7
v -1.2 0.3 0.7
v -1.2 0.3 -0.9
v -1.2 0.4 0.6
v -1.2 0.4 0.3
v -1.2 0.4 0.2
v -1.2 0.4 -0.4
v -1.2 0.4 -0.5
v -1.2 0.4 -0.8
v -1.2 0.5 0.7
v -1.2 0.5 0.6
v -1.2 0.5 -0.8
v -1.2 0.5 -0.9
v -1.2 0.6 0.7
v -1.2 0.6 0.6
v -1.2 0.6 -0.8
v -1.2 0.6 -0.9
v -1.2 1.1 0.9
v -1.2 1.1 0.8
v -1.2 1.1 -1
v -1.2 1.1 -1.1
v -1.2 1.2 0.9
v -1.2 1.2 0.8
v -1.2 1.2 -1
v -1.2 1.2 -1.1
v -1.2 1.4 0.8
v -1.2 1.4 -1
v -1.2 1.5 0.9
v -1.2 1.5 0.8
v -1.2 1.5 -1
v -1.2 1.5 -1.1
v -1.2 1.6 0.9
v -1.2 1.6 0.8
v -1.2 1.6 -1
v -1.2 1.6 -1.1
v -1 1.4 0.4
v -1 1.4 -0.4
v -1 1.5 0.4
v -1 1.5 -0.4
v -0.9 1.4 0.7
v -0.9 1.4 0.4
v -0.9 1.4 -0.4
v -0.9 1.4 -0.7
v -0.9 1.5 0.7
v -0.9 1.5 0.4
v -0.9 1.5 -0.4
v -0.9 1.5 -0.7
v -0.8 1.4 0.8
v -0.8 1.4 0.7
v -0.8 1.4 -0.7
v -0.8 1.4 -1
v -0.8 1.5 0.8
v -0.8 1.5 0.7
v -0.8 1.5 -0.7
v -0.8 1.5 -1
v -0.6 1.1 0.9
v -0.6 1.1 0.8
v -0.6 1.1 -1
v -0.6 1.1 -1.1
v -0.6 1.2 0.9
v -0.6 1.2 0.8
v -0.6 1.2 -1
v -0.6 1.2 -1.1
v -0.6 1.5 0.9
v -0.6 1.5 0.8
v -0.6 1.5 -1
v -0.6 1.5 -1.1
v -0.6 1.6 0.9
v -0.6 1.6 0.8
v -0.6 1.6 -1
v -0.6 1.6 -1.1
v 2.38419e-07 1.1 0.9
v 2.38419e-07 1.1 0.8
v 2.38419e-07 1.1 -1
v 2.38419e-07 1.1 -1.1
v 2.38419e-07 1.2 0.9
v 2.38419e-07 1.2 0.8
v 2.38419e-07 1.2 -1
v 2.38419e-07 1.2 -1.1
v 2.38419e-07 1.5 0.9
v 2.38419e-07 1.5 0.8
v 2.38419e-07 1.5 -1
v 2.38419e-07 1.5 -1.1
v 2.38419e-07 1.6 0.9
v 2.38419e-07 1.6 0.8
v 2.38419e-07 1.6 -1
v 2.38419e-07 1.6 -1.1
v 0.6 1.1 0.9
v 0.6 1.1 0.8
v 0.6 1.1 -1
v 0.6 1.1 -1.1
v 0.6 1.2 0.9
v 0.6 1.2 0.8
v 0.6 1.2 -1
v 0.6 1.2 -1.1
v 0.6 1.5 0.9
v 0.6 1.5 0.8
v 0.6 1.5 -1
v 0.6 1.5 -1.1
v 0.6 1.6 0.9
v 0.6 1.6 0.8
v 0.6 1.6 -1
v 0.6 1.6 -1.1
v 1 0.3 0.7
v 1 0.3 -0.9
v 1 0.4 0.6
v 1 0.4 -0.8
v 1 0.5 0.7
v 1 0.5 0.6
v 1 0.5 -0.8
v 1 0.5 -0.9
v 1 0.6 0.7
v 1 0.6 0.6
v 1 0.6 -0.8
v 1 0.6 -0.9
v 1.1 0.4 0.3
v 1.1 0.4 0.2
v 1.1 0.4 -0.4
v 1.1 0.4 -0.5
v 1.1 0.5 0.3
v 1.1 0.5 0.2
v 1.1 0.5 -0.4
v 1.1 0.5 -0.5
v 1.2 1.1 0.9
v 1.2 1.1 0.8
v 1.2 1.1 -1
v 1.2 1.1 -1.1
v 1.2 1.2 0.9
v 1.2 1.2 0.8
v 1.2 1.2 -1
v 1.2 1.2 -1.1
v 1.2 1.5 0.9
v 1.2 1.5 0.8
v 1.2 1.5 -1
v 1.2 1.5 -1.1
v 1.2 1.6 0.9
v 1.2 1.6 0.8
v 1.2 1.6 -1
v 1.2 1.6 -1.1
v 1.3 0.4 0.5
v 1.3 0.4 0.3
v 1.3 0.4 0.2
v 1.3 0.4 -0.4
v 1.3 0.4 -0.5
v 1.3 0.4 -0.7
v 1.3 0.5 0.5
v 1.3 0.5 0.4
v 1.3 0.5 0.3
v 1.3 0.5 0.2
v 1.3 0.5 -0.4
v 1.3 0.5 -0.5
v 1.3 0.5 -0.6
v 1.3 0.5 -0.7
v 1.3 0.6 0.5
v 1.3 0.6 0.4
v 1.3 0.6 -0.6
v 1.3 0.6 -0.7
v 1.3 0.7 0.5
v 1.3 0.7 0.4
v 1.3 0.7 -0.6
v 1.3 0.7 -0.7
v 1.3 0.9 0.5
v 1.3 0.9 0.4
v 1.3 0.9 -0.6
v 1.3 0.9 -0.7
v 1.8 0.1 0.7
v 1.8 0.1 0.6
v 1.8 0.1 0.5
v 1.8 0.1 -0.7
v 1.8 0.1 -0.8
v 1.8 0.1 -0.9
v 1.8 0.3 0.7
v 1.8 0.3 0.6
v 1.8 0.3 0.5
v 1.8 0.3 -0.7
v 1.8 0.3 -0.8
v 1.8 0.3 -0.9
v 1.8 0.5 0.5
v 1.8 0.5 -0.7
v 1.8 0.6 0.5
v 1.8 0.6 -0.7
v 1.9 0 0.7
v 1.9 0 0.6
v 1.9 0 0.5
v 1.9 0 -0.7
v 1.9 0 -0.8
v 1.9 0 -0.9
v 1.9 0.1 0.7
v 1.9 0.1 0.6
v 1.9 0.1 0.5
v 1.9 0.1 -0.7
v 1.9 0.1 -0.8
v 1.9 0.1 -0.9
v 1.9 0.3 0.7
v 1.9 0.3 0.6
v 1.9 0.3 0.5
v 1.9 0.3 -0.7
v 1.9 0.3 -0.8
v 1.9 0.3 -0.9
v 1.9 0.4 0.6
v 1.9 0.4 0.5
v 1.9 0.4 -0.7
v 1.9 0.4 -0.8
v 1.9 0.5 0.6
v 1.9 0.5 0.5
v 1.9 0.5 -0.7
v 1.9 0.5 -0.8
v 1.9 0.6 0.7
v 1.9 0.6 0.6
v 1.9 0.6 -0.8
v 1.9 0.6 -0.9
v 2.3 0.9 1
v 2.3 0.9 0.9
v 2.3 0.9 -1.1
v 2.3 0.9 -1.2
v 2.3 1.1 1
v 2.3 1.1 0.9
v 2.3 1.1 0.8
v 2.3 1.1 -1
v 2.3 1.1 -1.1
v 2.3 1.1 -1.2
v 2.3 1.5 0.8
v 2.3 1.5 0.0999999
v 2.3 1.5 -0.3
v 2.3 1.5 -1
v 2.3 1.6 0.0999999
v 2.3 1.6 -1.19209e-07
v 2.3 1.6 -0.2
v 2.3 1.6 -0.3
v 2.3 1.7 0.9
v 2.3 1.7 0.8
v 2.3 1.7 -1.19209e-07
v 2.3 1.7 -0.2
v 2.3 1.7 -1
v 2.3 1.7 -1.1
v 2.3 1.8 0.8
v 2.3 1.8 -1
v -2.6 0.9 1
v -2.6 0.9 0.9
v -2.6 0.9 -1.1
v -2.6 0.9 -1.2
v -2.6 1.1 1
v -2.6 1.1 0.9
v -2.6 1.1 0.8
v -2.6 1.1 -1
v -2.6 1.1 -1.1
v -2.6 1.1 -1.2
v -2.6 1.4 0.8
v -2.6 1.4 -1
v -2.6 1.5 0.8
v -2.6 1.5 0.0999999
v -2.6 1.5 -0.3
v -2.6 1.5 -1
v -2.6 1.6 0.0999999
v -2.6 1.6 -1.19209e-07
v -2.6 1.6 -0.2
v -2.6 1.6 -0.3
v -2.6 1.7 0.9
v -2.6 1.7 0.8
v -2.6 1.7 -1.19209e-07
v -2.6 1.7 -0.2
v -2.6 1.7 -1
v -2.6 1.7 -1.1
v -2.6 1.8 0.8
v -2.6 1.8 -1
v -2.1 0 0.7
v -2.1 0 0.6
v -2.1 0 0.5
v -2.1 0 -0.7
v -2.1 0 -0.8
v -2.1 0 -0.9
v -2.1 0.1 0.7
v -2.1 0.1 0.6
v -2.1 0.1 0.5
v -2.1 0.1 -0.7
v -2.1 0.1 -0.8
v -2.1 0.1 -0.9
v -2.1 0.3 0.6
v -2.1 0.3 0.5
v -2.1 0.3 -0.7
v -2.1 0.3 -0.8
v -2.1 0.4 0.7
v -2.1 0.4 0.6
v -2.1 0.4 0.5
v -2.1 0.4 -0.7
v -2.1 0.4 -0.8
v -2.1 0.4 -0.9
v -2.1 0.5 0.6
v -2.1 0.5 0.5
v -2.1 0.5 -0.7
v -2.1 0.5 -0.8
v -2.1 0.6 0.7
v -2.1 0.6 0.6
v -2.1 0.6 -0.8
v -2.1 0.6 -0.9
v -2 0.1 0.7
v -2 0.1 0.6
v -2 0.1 0.5
v -2 0.1 -0.7
v -2 0.1 -0.8
v -2 0.1 -0.9
v -2 0.3 0.7
v -2 0.3 0.6
v -2 0.3 0.5
v -2 0.3 -0.7
v -2 0.3 -0.8
v -2 0.3 -0.9
v -1.9 0.5 0.5
v -1.9 0.5 -0.7
v -1.9 0.6 0.5
v -1.9 0.6 -0.7
v -1.8 0.3 0.7
v -1.8 0.3 0.6
v -1.8 0.3 -0.8
v -1.8 0.3 -0.9
v -1.8 0.4 0.7
v -1.8 0.4 0.6
v -1.8 0.4 -0.8
v -1.8 0.4 -0.9
v -1.7 1.1 0.9
v -1.7 1.1 0.8
v -1.7 1.1 -1
v -1.7 1.1 -1.1
v -1.7 1.2 0.9
v -1.7 1.2 0.8
v -1.7 1.2 -1
v -1.7 1.2 -1.1
v -1.7 1.4 0.8
v -1.7 1.4 -1
v -1.7 1.5 0.9
v -1.7 1.5 0.8
v -1.7 1.5 -1
v -1.7 1.5 -1.1
v -1.7 1.6 0.9
v -1.7 1.6 0.8
v -1.7 1.6 -1
v -1.7 1.6 -1.1
v -1.5 1.4 0.6
v -1.5 1.4 0.5
v -1.5 1.4 -0.7
v -1.5 1.4 -0.8
v -1.5 1.5 0.6
v -1.5 1.5 0.5
v -1.5 1.5 -0.7
v -1.5 1.5 -0.8
v -1.5 1.6 0.5
v -1.5 1.6 -0.7
v -1.4 0.4 0.5
v -1.4 0.4 0.3
v -1.4 0.4 0.2
v -1.4 0.4 -0.4
v -1.4 0.4 -0.5
v -1.4 0.4 -0.7
v -1.4 0.5 0.5
v -1.4 0.5 0.4
v -1.4 0.5 0.3
v -1.4 0.5 0.2
v -1.4 0.5 -0.4
v -1.4 0.5 -0.5
v -1.4 0.5 -0.6
v -1.4 0.5 -0.7
v -1.4 0.6 0.5
v -1.4 0.6 0.4
v -1.4 0.6 -0.6
v -1.4 0.6 -0.7
v -1.4 0.7 0.5
v -1.4 0.7 0.4
v -1.4 0.7 -0.6
v -1.4 0.7 -0.7
v -1.4 0.9 0.5
v -1.4 0.9 0.4
v -1.4 0.9 -0.6
v -1.4 0.9 -0.7
v -1.4 1.4 0.5
v -1.4 1.4 -0.7
v -1.4 1.5 0.5
v -1.4 1.5 -0.7
v -1.2 0.4 0.3
v -1.2 0.4 0.2
v -1.2 0.4 -0.4
v -1.2 0.4 -0.5
v -1.2 0.5 0.3
v -1.2 0.5 0.2
v -1.2 0.5 -0.4
v -1.2 0.5 -0.5
v -1.1 0.3 0.7
v -1.1 0.3 -0.9
v -1.1 0.4 0.6
v -1.1 0.4 -0.8
v -1.1 0.5 0.7
v -1.1 0.5 0.6
v -1.1 0.5 -0.8
v -1.1 0.5 -0.9
v -1.1 0.6 0.7
v -1.1 0.6 0.6
v -1.1 0.6 -0.8
v -1.1 0.6 -0.9
v -1.1 1.1 0.9
v -1.1 1.1 0.8
v -1.1 1.1 -1
v -1.1 1.1 -1.1
v -1.1 1.2 0.9
v -1.1 1.2 0.8
v -1.1 1.2 -1
v -1.1 1.2 -1.1
v -1.1 1.4 0.8
v -1.1 1.4 -1
v -1.1 1.5 0.9
v -1.1 1.5 0.8
v -1.1 1.5 -1
v -1.1 1.5 -1.1
v -1.1 1.6 0.9
v -1.1 1.6 0.8
v -1.1 1.6 -1
v -1.1 1.6 -1.1
v -0.5 1.1 0.9
v -0.5 1.1 0.8
v -0.5 1.1 -1
v -0.5 1.1 -1.1
v -0.5 1.2 0.9
v -0.5 1.2 0.8
v -0.5 1.2 -1
v -0.5 1.2 -1.1
v -0.5 1.5 0.9
v -0.5 1.5 0.8
v -0.5 1.5 -1
v -0.5 1.5 -1.1
v -0.5 1.6 0.9
v -0.5 1.6 0.8
v -0.5 1.6 -1
v -0.5 1.6 -1.1
v 0.1 1.1 0.9
v 0.1 1.1 0.8
v 0.1 1.1 -1
v 0.1 1.1 -1.1
v 0.1 1.2 0.9
v 0.1 1.2 0.8
v 0.1 1.2 -1
v 0.1 1.2 -1.1
v 0.1 1.5 0.9
v 0.1 1.5 0.8
v 0.1 1.5 -1
v 0.1 1.5 -1.1
v 0.1 1.6 0.9
v 0.1 1.6 0.8
v 0.1 1.6 -1
v 0.1 1.6 -1.1
v 0.7 1.1 0.9
v 0.7 1.1 0.8
v 0.7 1.1 -1
v 0.7 1.1 -1.1
v 0.7 1.2 0.9
v 0.7 1.2 0.8
v 0.7 1.2 -1
v 0.7 1.2 -1.1
v 0.7 1.5 0.9
v 0.7 1.5 0.8
v 0.7 1.5 -1
v 0.7 1.5 -1.1
v 0.7 1.6 0.9
v 0.7 1.6 0.8
v 0.7 1.6 -1
v 0.7 1.6 -1.1
v 1.1 0.3 0.7
v 1.1 0.3 -0.9
v 1.1 0.4 0.6
v 1.1 0.4 0.3
v 1.1 0.4 0.2
v 1.1 0.4 -0.4
v 1.1 0.4 -0.5
v 1.1 0.4 -0.8
v 1.1 0.5 0.7
v 1.1 0.5 0.6
v 1.1 0.5 -0.8
v 1.1 0.5 -0.9
v 1.1 0.6 0.7
v 1.1 0.6 0.6
v 1.1 0.6 -0.8
v 1.1 0.6 -0.9
v 1.3 1.1 0.9
v 1.3 1.1 0.8
v 1.3 1.1 -1
v 1.3 1.1 -1.1
v 1.3 1.2 0.9
v 1.3 1.2 0.8
v 1.3 1.2 -1
v 1.3 1.2 -1.1
v 1.3 1.5 0.9
v 1.3 1.5 0.8
v 1.3 1.5 -1
v 1.3 1.5 -1.1
v 1.3 1.6 0.9
v 1.3 1.6 0.8
v 1.3 1.6 -1
v 1.3 1.6 -1.1
v 1.4 0.4 0.5
v 1.4 0.4 -0.7
v 1.4 0.5 0.5
v 1.4 0.5 0.4
v 1.4 0.5 -0.6
v 1.4 0.5 -0.7
v 1.4 0.6 0.5
v 1.4 0.6 0.4
v 1.4 0.6 -0.6
v 1.4 0.6 -0.7
v 1.4 0.7 0.5
v 1.4 0.7 0.4
v 1.4 0.7 -0.6
v 1.4 0.7 -0.7
v 1.4 0.9 0.5
v 1.4 0.9 0.4
v 1.4 0.9 -0.6
v 1.4 0.9 -0.7
v 1.7 1.6 0.9
v 1.7 1.6 0.8
v 1.7 1.6 -1
v 1.7 1.6 -1.1
v 1.7 1.7 0.9
v 1.7 1.7 0.8
v 1.7 1.7 -1
v 1.7 1.7 -1.1
v 1.9 0.5 0.5
v 1.9 0.5 -0.7
v 1.9 0.6 0.5
v 1.9 0.6 -0.7
v 2.1 0 0.7
v 2.1 0 0.6
v 2.1 0 0.5
v 2.1 0 -0.7
v 2.1 0 -0.8
v 2.1 0 -0.9
v 2.1 0.1 0.7
v 2.1 0.1 0.6
v 2.1 0.1 0.5
v 2.1 0.1 -0.7
v 2.1 0.1 -0.8
v 2.1 0.1 -0.9
v 2.1 0.3 0.6
v 2.1 0.3 0.5
v 2.1 0.3 -0.7
v 2.1 0.3 -0.8
v 2.1 0.4 0.7
v 2.1 0.4 0.6
v 2.1 0.4 0.5
v 2.1 0.4 -0.7
v 2.1 0.4 -0.8
v 2.1 0.4 -0.9
v 2.1 0.6 0.7
v 2.1 0.6 0.5
v 2.1 0.6 -0.7
v 2.1 0.6 -0.9
v 2.2 0.1 0.7
v 2.2 0.1 0.6
v 2.2 0.1 0.5
v 2.2 0.1 -0.7
v 2.2 0.1 -0.8
v 2.2 0.1 -0.9
v 2.2 0.3 0.7
v 2.2 0.3 0.6
v 2.2 0.3 0.5
v 2.2 0.3 -0.7
v 2.2 0.3 -0.8
v 2.2 0.3 -0.9
v 2.4 0.3 0.7
v 2.4 0.3 0.6
v 2.4 0.3 -0.8
v 2.4 0.3 -0.9
v 2.4 0.4 0.7
v 2.4 0.4 0.6
v 2.4 0.4 -0.8
v 2.4 0.4 -0.9
v 2.4 0.9 0.8
v 2.4 0.9 -1
v 2.4 1.1 0.9
v 2.4 1.1 0.8
v 2.4 1.1 0.6
v 2.4 1.1 -0.8
v 2.4 1.1 -1
v 2.4 1.1 -1.1
v 2.4 1.3 0.6
v 2.4 1.3 -0.8
v 2.4 1.5 0.8
v 2.4 1.5 0.0999999
v 2.4 1.5 -0.3
v 2.4 1.5 -1
v 2.4 1.6 0.0999999
v 2.4 1.6 -1.19209e-07
v 2.4 1.6 -0.2
v 2.4 1.6 -0.3
v 2.4 1.7 0.9
v 2.4 1.7 0.8
v 2.4 1.7 -1.19209e-07
v 2.4 1.7 -0.2
v 2.4 1.7 -1
v 2.4 1.7 -1.1
v 2.4 1.8 0.8
v 2.4 1.8 -1
v 2.5 0.9 1
v 2.5 0.9 0.8
v 2.5 0.9 -1
v 2.5 0.9 -1.2
v 2.5 1.1 1
v 2.5 1.1 0.8
v 2.5 1.1 -1
v 2.5 1.1 -1.2
v -2.8 0.9 1
v -2.8 1.1 1
v -2.6 0.9 1
v -2.6 1.1 1
v 2.3 0.9 1
v 2.3 1.1 1
v 2.5 0.9 1
v 2.5 1.1 1
v -2.7 1.1 0.9
v -2.7 1.7 0.9
v -2.6 0.9 0.9
v -2.6 1.1 0.9
v -2.6 1.7 0.9
v -2.1 1.6 0.9
v -2.1 1.7 0.9
v -1.8 1.1 0.9
v -1.8 1.2 0.9
v -1.8 1.5 0.9
v -1.8 1.6 0.9
v -1.7 1.1 0.9
v -1.7 1.2 0.9
v -1.7 1.5 0.9
v -1.7 1.6 0.9
v -1.2 1.1 0.9
v -1.2 1.2 0.9
v -1.2 1.5 0.9
v -1.2 1.6 0.9
v -1.1 1.1 0.9
v -1.1 1.2 0.9
v -1.1 1.5 0.9
v -1.1 1.6 0.9
v -0.6 1.1 0.9
v -0.6 1.2 0.9
v -0.6 1.5 0.9
v -0.6 1.6 0.9
v -0.5 1.1 0.9
v -0.5 1.2 0.9
v -0.5 1.5 0.9
v -0.5 1.6 0.9
v 2.38419e-07 1.1 0.9
v 2.38419e-07 1.2 0.9
v 2.38419e-07 1.5 0.9
v 2.38419e-07 1.6 0.9
v 0.1 1.1 0.9
v 0.1 1.2 0.9
v 0.1 1.5 0.9
v 0.1 1.6 0.9
v 0.6 1.1 0.9
v 0.6 1.2 0.9
v 0.6 1.5 0.9
v 0.6 1.6 0.9
v 0.7 1.1 0.9
v 0.7 1.2 0.9
v 0.7 1.5 0.9
v 0.7 1.6 0.9
v 1.2 1.1 0.9
v 1.2 1.2 0.9
v 1.2 1.5 0.9
v 1.2 1.6 0.9
v 1.3 1.1 0.9
v 1.3 1.2 0.9
v 1.3 1.5 0.9
v 1.3 1.6 0.9
v 1.7 1.6 0.9
v 1.7 1.7 0.9
v 2.3 0.9 0.9
v 2.3 1.1 0.9
v 2.3 1.7 0.9
v 2.4 1.1 0.9
v 2.4 1.7 0.9
v -2.7 1.7 0.8
v -2.7 1.8 0.8
v -2.6 1.1 0.8
v -2.6 1.4 0.8
v -2.6 1.7 0.8
v -2.6 1.8 0.8
v -1.8 1.1 0.8
v -1.8 1.2 0.8
v -1.8 1.4 0.8
v -1.7 1.1 0.8
v -1.7 1.2 0.8
v -1.7 1.4 0.8
v -1.2 1.1 0.8
v -1.2 1.2 0.8
v -1.2 1.4 0.8
v -1.1 1.1 0.8
v -1.1 1.2 0.8
v -1.1 1.4 0.8
v -0.8 1.1 0.8
v -0.8 1.4 0.8
v -0.8 1.5 0.8
v -0.6 1.1 0.8
v -0.6 1.2 0.8
v -0.6 1.5 0.8
v -0.5 1.1 0.8
v -0.5 1.2 0.8
v -0.5 1.5 0.8
v 2.38419e-07 1.1 0.8
v 2.38419e-07 1.2 0.8
v 2.38419e-07 1.5 0.8
v 0.1 1.1 0.8
v 0.1 1.2 0.8
v 0.1 1.5 0.8
v 0.6 1.1 0.8
v 0.6 1.2 0.8
v 0.6 1.5 0.8
v 0.7 1.1 0.8
v 0.7 1.2 0.8
v 0.7 1.5 0.8
v 1.2 1.1 0.8
v 1.2 1.2 0.8
v 1.2 1.5 0.8
v 1.3 1.1 0.8
v 1.3 1.2 0.8
v 1.3 1.5 0.8
v 2.3 1.1 0.8
v 2.3 1.5 0.8
v 2.3 1.7 0.8
v 2.3 1.8 0.8
v 2.4 1.7 0.8
v 2.4 1.8 0.8
v -2.4 0.1 0.7
v -2.4 0.3 0.7
v -2.3 0 0.7
v -2.3 0.1 0.7
v -2.3 0.3 0.7
v -2.3 0.6 0.7
v -2.1 0 0.7
v -2.1 0.1 0.7
v -2.1 0.3 0.7
v -2.1 0.4 0.7
v -2.1 0.6 0.7
v -2 0.1 0.7
v -2 0.3 0.7
v -1.9 0.3 0.7
v -1.9 0.4 0.7
v -1.8 0.3 0.7
v -1.8 0.4 0.7
v -1.2 0.3 0.7
v -1.2 0.5 0.7
v -1.2 0.6 0.7
v -1.1 0.3 0.7
v -1.1 0.5 0.7
v -1.1 0.6 0.7
v -0.9 1.4 0.7
v -0.9 1.5 0.7
v -0.8 1.4 0.7
v -0.8 1.5 0.7
v 1 0.3 0.7
v 1 0.5 0.7
v 1 0.6 0.7
v 1.1 0.3 0.7
v 1.1 0.5 0.7
v 1.1 0.6 0.7
v 1.8 0.1 0.7
v 1.8 0.3 0.7
v 1.9 0 0.7
v 1.9 0.1 0.7
v 1.9 0.3 0.7
v 1.9 0.6 0.7
v 2.1 0 0.7
v 2.1 0.1 0.7
v 2.1 0.3 0.7
v 2.1 0.4 0.7
v 2.1 0.6 0.7
v 2.2 0.1 0.7
v 2.2 0.3 0.7
v 2.3 0.3 0.7
v 2.3 0.4 0.7
v 2.4 0.3 0.7
v 2.4 0.4 0.7
v -2.2 1.4 0.6
v -2.2 1.5 0.6
v -2.1 0.5 0.6
v -2.1 0.6 0.6
v -1.5 1.4 0.6
v -1.5 1.5 0.6
v -1.2 0.5 0.6
v -1.2 0.6 0.6
v -1.1 0.5 0.6
v -1.1 0.6 0.6
v 1 0.5 0.6
v 1 0.6 0.6
v 1.1 0.5 0.6
v 1.1 0.6 0.6
v 1.9 0.5 0.6
v 1.9 0.6 0.6
v -2.3 1.4 0.5
v -2.3 1.5 0.5
v -2.2 1.4 0.5
v -2.2 1.5 0.5
v -2.2 1.6 0.5
v -1.5 0.4 0.5
v -1.5 0.5 0.5
v -1.5 0.6 0.5
v -1.5 0.7 0.5
v -1.5 0.9 0.5
v -1.5 1.4 0.5
v -1.5 1.5 0.5
v -1.5 1.6 0.5
v -1.4 0.4 0.5
v -1.4 0.5 0.5
v -1.4 0.6 0.5
v -1.4 0.7 0.5
v -1.4 0.9 0.5
v -1.4 1.4 0.5
v -1.4 1.5 0.5
v 1.3 0.4 0.5
v 1.3 0.5 0.5
v 1.3 0.6 0.5
v 1.3 0.7 0.5
v 1.3 0.9 0.5
v 1.4 0.4 0.5
v 1.4 0.5 0.5
v 1.4 0.6 0.5
v 1.4 0.7 0.5
v 1.4 0.9 0.5
v -1 1.4 0.4
v -1 1.5 0.4
v -0.9 1.4 0.4
v -0.9 1.5 0.4
v -1.4 0.4 0.3
v -1.4 0.5 0.3
v -1.2 0.4 0.3
v -1.2 0.5 0.3
v 1.1 0.4 0.3
v 1.1 0.5 0.3
v 1.3 0.4 0.3
v 1.3 0.5 0.3
v -2.7 1.5 0.0999999
v -2.7 1.6 0.0999999
v -2.6 1.5 0.0999999
v -2.6 1.6 0.0999999
v 2.3 1.5 0.0999999
v 2.3 1.6 0.0999999
v 2.4 1.5 0.0999999
v 2.4 1.6 0.0999999
v -2.7 1.6 -1.19209e-07
v -2.7 1.7 -1.19209e-07
v -2.6 1.6 -1.19209e-07
v -2.6 1.7 -1.19209e-07
v 2.3 1.6 -1.19209e-07
v 2.3 1.7 -1.19209e-07
v 2.4 1.6 -1.19209e-07
v 2.4 1.7 -1.19209e-07
v -1.4 0.4 -0.4
v -1.4 0.5 -0.4
v -1.2 0.4 -0.4
v -1.2 0.5 -0.4
v 1.1 0.4 -0.4
v 1.1 0.5 -0.4
v 1.3 0.4 -0.4
v 1.3 0.5 -0.4
v -1.5 0.5 -0.6
v -1.5 0.6 -0.6
v -1.5 0.7 -0.6
v -1.5 0.9 -0.6
v -1.4 0.5 -0.6
v -1.4 0.6 -0.6
v -1.4 0.7 -0.6
v -1.4 0.9 -0.6
v 1.3 0.5 -0.6
v 1.3 0.6 -0.6
v 1.3 0.7 -0.6
v 1.3 0.9 -0.6
v 1.4 0.5 -0.6
v 1.4 0.6 -0.6
v 1.4 0.7 -0.6
v 1.4 0.9 -0.6
v -2.4 0.1 -0.7
v -2.4 0.3 -0.7
v -2.3 0 -0.7
v -2.3 0.1 -0.7
v -2.3 0.3 -0.7
v -2.3 0.4 -0.7
v -2.3 0.6 -0.7
v -2.1 0 -0.7
v -2.1 0.1 -0.7
v -2.1 0.3 -0.7
v -2.1 0.4 -0.7
v -2.1 0.5 -0.7
v -2 0.1 -0.7
v -2 0.3 -0.7
v -2 0.5 -0.7
v -2 0.6 -0.7
v -1.9 0.5 -0.7
v -1.9 0.6 -0.7
v -1.5 0.5 -0.7
v -1.5 0.6 -0.7
v -1.4 0.5 -0.7
v -1.4 0.6 -0.7
v 1.3 0.5 -0.7
v 1.3 0.6 -0.7
v 1.4 0.5 -0.7
v 1.4 0.6 -0.7
v 1.8 0.1 -0.7
v 1.8 0.3 -0.7
v 1.8 0.5 -0.7
v 1.8 0.6 -0.7
v 1.9 0 -0.7
v 1.9 0.1 -0.7
v 1.9 0.3 -0.7
v 1.9 0.4 -0.7
v 1.9 0.5 -0.7
v 1.9 0.6 -0.7
v 2.1 0 -0.7
v 2.1 0.1 -0.7
v 2.1 0.3 -0.7
v 2.1 0.4 -0.7
v 2.1 0.6 -0.7
v 2.2 0.1 -0.7
v 2.2 0.3 -0.7
v -2.1 0.3 -0.8
v -2.1 0.4 -0.8
v -2 0.3 -0.8
v -1.9 0.3 -0.8
v -1.9 0.4 -0.8
v -1.8 0.3 -0.8
v -1.8 0.4 -0.8
v -1.2 0.4 -0.8
v -1.2 0.5 -0.8
v -1.1 0.4 -0.8
v -1.1 0.5 -0.8
v 1 0.4 -0.8
v 1 0.5 -0.8
v 1.1 0.4 -0.8
v 1.1 0.5 -0.8
v 2.1 0.3 -0.8
v 2.1 0.4 -0.8
v 2.2 0.3 -0.8
v 2.3 0.3 -0.8
v 2.3 0.4 -0.8
v 2.4 0.3 -0.8
v 2.4 0.4 -0.8
v -2.8 0.9 -1
v -2.8 1.1 -1
v -2.7 0.9 -1
v -2.7 1.1 -1
v -2.7 1.5 -1
v -2.7 1.7 -1
v -2.6 1.5 -1
v -2.6 1.7 -1
v -2.1 1.6 -1
v -2.1 1.7 -1
v -1.8 1.4 -1
v -1.8 1.5 -1
v -1.8 1.6 -1
v -1.7 1.4 -1
v -1.7 1.5 -1
v -1.7 1.6 -1
v -1.2 1.4 -1
v -1.2 1.5 -1
v -1.2 1.6 -1
v -1.1 1.4 -1
v -1.1 1.5 -1
v -1.1 1.6 -1
v -0.6 1.5 -1
v -0.6 1.6 -1
v -0.5 1.5 -1
v -0.5 1.6 -1
v 2.38419e-07 1.5 -1
v 2.38419e-07 1.6 -1
v 0.1 1.5 -1
v 0.1 1.6 -1
v 0.6 1.5 -1
v 0.6 1.6 -1
v 0.7 1.5 -1
v 0.7 1.6 -1
v 1.2 1.5 -1
v 1.2 1.6 -1
v 1.3 1.5 -1
v 1.3 1.6 -1
v 1.7 1.6 -1
v 1.7 1.7 -1
v 2.3 1.5 -1
v 2.3 1.7 -1
v 2.4 0.9 -1
v 2.4 1.1 -1
v 2.4 1.5 -1
v 2.4 1.7 -1
v 2.5 0.9 -1
v 2.5 1.1 -1
v -2.8 0.9 0.8
v -2.8 1.1 0.8
v -2.7 0.9 0.8
v -2.7 1.1 0.8
v -2.7 1.5 0.8
v -2.7 1.7 0.8
v -2.6 1.5 0.8
v -2.6 1.7 0.8
v -2.1 1.6 0.8
v -2.1 1.7 0.8
v -1.8 1.4 0.8
v -1.8 1.5 0.8
v -1.8 1.6 0.8
v -1.7 1.4 0.8
v -1.7 1.5 0.8
v -1.7 1.6 0.8
v -1.2 1.4 0.8
v -1.2 1.5 0.8
v -1.2 1.6 0.8
v -1.1 1.4 0.8
v -1.1 1.5 0.8
v -1.1 1.6 0.8
v -0.6 1.5 0.8
v -0.6 1.6 0.8
v -0.5 1.5 0.8
v -0.5 1.6 0.8
v 2.38419e-07 1.5 0.8
v 2.38419e-07 1.6 0.8
v 0.1 1.5 0.8
v 0.1 1.6 0.8
v 0.6 1.5 0.8
v 0.6 1.6 0.8
v 0.7 1.5 0.8
v 0.7 1.6 0.8
v 1.2 1.5 0.8
v 1.2 1.6 0.8
v 1.3 1.5 0.8
v 1.3 1.6 0.8
v 1.7 1.6 0.8
v 1.7 1.7 0.8
v 2.3 1.5 0.8
v 2.3 1.7 0.8
v 2.4 0.9 0.8
v 2.4 1.1 0.8
v 2.4 1.5 0.8
v 2.4 1.7 0.8
v 2.5 0.9 0.8
v 2.5 1.1 0.8
v -2.1 0.3 0.6
v -2.1 0.4 0.6
v -2 0.3 0.6
v -1.9 0.3 0.6
v -1.9 0.4 0.6
v -1.8 0.3 0.6
v -1.8 0.4 0.6
v -1.2 0.4 0.6
v -1.2 0.5 0.6
v -1.1 0.4 0.6
v -1.1 0.5 0.6
v 1 0.4 0.6
v 1 0.5 0.6
v 1.1 0.4 0.6
v 1.1 0.5 0.6
v 2.1 0.3 0.6
v 2.1 0.4 0.6
v 2.2 0.3 0.6
v 2.3 0.3 0.6
v 2.3 0.4 0.6
v 2.4 0.3 0.6
v 2.4 0.4 0.6
v -2.4 0.1 0.5
v -2.4 0.3 0.5
v -2.3 0 0.5
v -2.3 0.1 0.5
v -2.3 0.3 0.5
v -2.3 0.4 0.5
v -2.3 0.6 0.5
v -2.1 0 0.5
v -2.1 0.1 0.5
v -2.1 0.3 0.5
v -2.1 0.4 0.5
v -2.1 0.5 0.5
v -2 0.1 0.5
v -2 0.3 0.5
v -2 0.5 0.5
v -2 0.6 0.5
v -1.9 0.5 0.5
v -1.9 0.6 0.5
v -1.5 0.5 0.5
v -1.5 0.6 0.5
v -1.4 0.5 0.5
v -1.4 0.6 0.5
v 1.3 0.5 0.5
v 1.3 0.6 0.5
v 1.4 0.5 0.5
v 1.4 0.6 0.5
v 1.8 0.1 0.5
v 1.8 0.3 0.5
v 1.8 0.5 0.5
v 1.8 0.6 0.5
v 1.9 0 0.5
v 1.9 0.1 0.5
v 1.9 0.3 0.5
v 1.9 0.4 0.5
v 1.9 0.5 0.5
v 1.9 0.6 0.5
v 2.1 0 0.5
v 2.1 0.1 0.5
v 2.1 0.3 0.5
v 2.1 0.4 0.5
v 2.1 0.6 0.5
v 2.2 0.1 0.5
v 2.2 0.3 0.5
v -1.5 0.5 0.4
v -1.5 0.6 0.4
v -1.5 0.7 0.4
v -1.5 0.9 0.4
v -1.4 0.5 0.4
v -1.4 0.6 0.4
v -1.4 0.7 0.4
v -1.4 0.9 0.4
v 1.3 0.5 0.4
v 1.3 0.6 0.4
v 1.3 0.7 0.4
v 1.3 0.9 0.4
v 1.4 0.5 0.4
v 1.4 0.6 0.4
v 1.4 0.7 0.4
v 1.4 0.9 0.4
v -1.4 0.4 0.2
v -1.4 0.5 0.2
v -1.2 0.4 0.2
v -1.2 0.5 0.2
v 1.1 0.4 0.2
v 1.1 0.5 0.2
v 1.3 0.4 0.2
v 1.3 0.5 0.2
v -2.7 1.6 -0.2
v -2.7 1.7 -0.2
v -2.6 1.6 -0.2
v -2.6 1.7 -0.2
v 2.3 1.6 -0.2
v 2.3 1.7 -0.2
v 2.4 1.6 -0.2
v 2.4 1.7 -0.2
v -2.7 1.5 -0.3
v -2.7 1.6 -0.3
v -2.6 1.5 -0.3
v -2.6 1.6 -0.3
v 2.3 1.5 -0.3
v 2.3 1.6 -0.3
v 2.4 1.5 -0.3
v 2.4 1.6 -0.3
v -1 1.4 -0.4
v -1 1.5 -0.4
v -0.9 1.4 -0.4
v -0.9 1.5 -0.4
v -1.4 0.4 -0.5
v -1.4 0.5 -0.5
v -1.2 0.4 -0.5
v -1.2 0.5 -0.5
v 1.1 0.4 -0.5
v 1.1 0.5 -0.5
v 1.3 0.4 -0.5
v 1.3 0.5 -0.5
v -2.3 1.4 -0.7
v -2.3 1.5 -0.7
v -2.2 1.4 -0.7
v -2.2 1.5 -0.7
v -2.2 1.6 -0.7
v -1.5 0.4 -0.7
v -1.5 0.5 -0.7
v -1.5 0.6 -0.7
v -1.5 0.7 -0.7
v -1.5 0.9 -0.7
v -1.5 1.4 -0.7
v -1.5 1.5 -0.7
v -1.5 1.6 -0.7
v -1.4 0.4 -0.7
v -1.4 0.5 -0.7
v -1.4 0.6 -0.7
v -1.4 0.7 -0.7
v -1.4 0.9 -0.7
v -1.4 1.4 -0.7
v -1.4 1.5 -0.7
v -0.9 1.4 -0.7
v -0.9 1.5 -0.7
v -0.8 1.4 -0.7
v -0.8 1.5 -0.7
v 1.3 0.4 -0.7
v 1.3 0.5 -0.7
v 1.3 0.6 -0.7
v 1.3 0.7 -0.7
v 1.3 0.9 -0.7
v 1.4 0.4 -0.7
v 1.4 0.5 -0.7
v 1.4 0.6 -0.7
v 1.4 0.7 -0.7
v 1.4 0.9 -0.7
v -2.2 1.4 -0.8
v -2.2 1.5 -0.8
v -2.1 0.5 -0.8
v -2.1 0.6 -0.8
v -1.5 1.4 -0.8
v -1.5 1.5 -0.8
v -1.2 0.5 -0.8
v -1.2 0.6 -0.8
v -1.1 0.5 -0.8
v -1.1 0.6 -0.8
v 1 0.5 -0.8
v 1 0.6 -0.8
v 1.1 0.5 -0.8
v 1.1 0.6 -0.8
v 1.9 0.5 -0.8
v 1.9 0.6 -0.8
v -2.4 0.1 -0.9
v -2.4 0.3 -0.9
v -2.3 0 -0.9
v -2.3 0.1 -0.9
v -2.3 0.3 -0.9
v -2.3 0.6 -0.9
v -2.1 0 -0.9
v -2.1 0.1 -0.9
v -2.1 0.3 -0.9
v -2.1 0.4 -0.9
v -2.1 0.6 -0.9
v -2 0.1 -0.9
v -2 0.3 -0.9
v -1.9 0.3 -0.9
v -1.9 0.4 -0.9
v -1.8 0.3 -0.9
v -1.8 0.4 -0.9
v -1.2 0.3 -0.9
v -1.2 0.5 -0.9
v -1.2 0.6 -0.9
v -1.1 0.3 -0.9
v -1.1 0.5 -0.9
v -1.1 0.6 -0.9
v 1 0.3 -0.9
v 1 0.5 -0.9
v 1 0.6 -0.9
v 1.1 0.3 -0.9
v 1.1 0.5 -0.9
v 1.1 0.6 -0.9
v 1.8 0.1 -0.9
v 1.8 0.3 -0.9
v 1.9 0 -0.9
v 1.9 0.1 -0.9
v 1.9 0.3 -0.9
v 1.9 0.6 -0.9
v 2.1 0 -0.9
v 2.1 0.1 -0.9
v 2.1 0.3 -0.9
v 2.1 0.4 -0.9
v 2.1 0.6 -0.9
v 2.2 0.1 -0.9
v 2.2 0.3 -0.9
v 2.3 0.3 -0.9
v 2.3 0.4 -0.9
v 2.4 0.3 -0.9
v 2.4 0.4 -0.9
v -2.7 1.7 -1
v -2.7 1.8 -1
v -2.6 1.1 -1
v -2.6 1.4 -1
v -2.6 1.7 -1
v -2.6 1.8 -1
v -1.8 1.1 -1
v -1.8 1.2 -1
v -1.8 1.4 -1
v -1.7 1.1 -1
v -1.7 1.2 -1
v -1.7 1.4 -1
v -1.2 1.1 -1
v -1.2 1.2 -1
v -1.2 1.4 -1
v -1.1 1.1 -1
v -1.1 1.2 -1
v -1.1 1.4 -1
v -0.8 1.1 -1
v -0.8 1.4 -1
v -0.8 1.5 -1
v -0.6 1.1 -1
v -0.6 1.2 -1
v -0.6 1.5 -1
v -0.5 1.1 -1
v -0.5 1.2 -1
v -0.5 1.5 -1
v 2.38419e-07 1.1 -1
v 2.38419e-07 1.2 -1
v 2.38419e-07 1.5 -1
v 0.1 1.1 -1
v 0.1 1.2 -1
v 0.1 1.5 -1
v 0.6 1.1 -1
v 0.6 1.2 -1
v 0.6 1.5 -1
v 0.7 1.1 -1
v 0.7 1.2 -1
v 0.7 1.5 -1
v 1.2 1.1 -1
v 1.2 1.2 -1
v 1.2 1.5 -1
v 1.3 1.1 -1
v 1.3 1.2 -1
v 1.3 1.5 -1
v 2.3 1.1 -1
v 2.3 1.5 -1
v 2.3 1.7 -1
v 2.3 1.8 -1
v 2.4 1.7 -1
v 2.4 1.8 -1
v -2.7 1.1 -1.1
v -2.7 1.7 -1.1
v -2.6 0.9 -1.1
v -2.6 1.1 -1.1
v -2.6 1.7 -1.1
v -2.1 1.6 -1.1
v -2.1 1.7 -1.1
v -1.8 1.1 -1.1
v -1.8 1.2 -1.1
v -1.8 1.5 -1.1
v -1.8 1.6 -1.1
v -1.7 1.1 -1.1
v -1.7 1.2 -1.1
v -1.7 1.5 -1.1
v -1.7 1.6 -1.1
v -1.2 1.1 -1.1
v -1.2 1.2 -1.1
v -1.2 1.5 -1.1
v -1.2 1.6 -1.1
v -1.1 1.1 -1.1
v -1.1 1.2 -1.1
v -1.1 1.5 -1.1
v -1.1 1.6 -1.1
v -0.6 1.1 -1.1
v -0.6 1.2 -1.1
v -0.6 1.5 -1.1
v -0.6 1.6 -1.1
v -0.5 1.1 -1.1
v -0.5 1.2 -1.1
v -0.5 1.5 -1.1
v -0.5 1.6 -1.1
v 2.38419e-07 1.1 -1.1
v 2.38419e-07 1.2 -1.1
v 2.38419e-07 1.5 -1.1
v 2.38419e-07 1.6 -1.1
v 0.1 1.1 -1.1
v 0.1 1.2 -1.1
v 0.1 1.5 -1.1
v 0.1 1.6 -1.1
v 0.6 1.1 -1.1
v 0.6 1.2 -1.1
v 0.6 1.5 -1.1
v 0.6 1.6 -1.1
v 0.7 1.1 -1.1
v 0.7 1.2 -1.1
v 0.7 1.5 -1.1
v 0.7 1.6 -1.1
v 1.2 1.1 -1.1
v 1.2 1.2 -1.1
v 1.2 1.5 -1.1
v 1.2 1.6 -1.1
v 1.3 1.1 -1.1
v 1.3 1.2 -1.1
v 1.3 1.5 -1.1
v 1.3 1.6 -1.1
v 1.7 1.6 -1.1
v 1.7 1.7 -1.1
v 2.3 0.9 -1.1
v 2.3 1.1 -1.1
v 2.3 1.7 -1.1
v 2.4 1.1 -1.1
v 2.4 1.7 -1.1
v -2.8 0.9 -1.2
v -2.8 1.1 -1.2
v -2.6 0.9 -1.2
v -2.6 1.1 -1.2
v 2.3 0.9 -1.2
v 2.3 1.1 -1.2
v 2.5 0.9 -1.2
v 2.5 1.1 -1.2
v -2.3 0 0.7
v -2.1 0 0.7
v 1.9 0 0.7
v 2.1 0 0.7
v -2.3 0 0.6
v -2.1 0 0.6
v 1.9 0 0.6
v 2.1 0 0.6
v -2.3 0 0.5
v -2.1 0 0.5
v 1.9 0 0.5
v 2.1 0 0.5
v -2.3 0 -0.7
v -2.1 0 -0.7
v 1.9 0 -0.7
v 2.1 0 -0.7
v -2.3 0 -0.8
v -2.1 0 -0.8
v 1.9 0 -0.8
v 2.1 0 -0.8
v -2.3 0 -0.9
v -2.1 0 -0.9
v 1.9 0 -0.9
v 2.1 0 -0.9
v -2.4 0.1 0.7
v -2.3 0.1 0.7
v -2.1 0.1 0.7
v -2 0.1 0.7
v 1.8 0.1 0.7
v 1.9 0.1 0.7
v 2.1 0.1 0.7
v 2.2 0.1 0.7
v -2.4 0.1 0.6
v -2.3 0.1 0.6
v -2.1 0.1 0.6
v -2 0.1 0.6
v 1.8 0.1 0.6
v 1.9 0.1 0.6
v 2.1 0.1 0.6
v 2.2 0.1 0.6
v -2.4 0.1 0.5
v -2.3 0.1 0.5
v -2.1 0.1 0.5
v -2 0.1 0.5
v 1.8 0.1 0.5
v 1.9 0.1 0.5
v 2.1 0.1 0.5
v 2.2 0.1 0.5
v -2.4 0.1 -0.7
v -2.3 0.1 -0.7
v -2.1 0.1 -0.7
v -2 0.1 -0.7
v 1.8 0.1 -0.7
v 1.9 0.1 -0.7
v 2.1 0.1 -0.7
v 2.2 0.1 -0.7
v -2.4 0.1 -0.8
v -2.3 0.1 -0.8
v -2.1 0.1 -0.8
v -2 0.1 -0.8
v 1.8 0.1 -0.8
v 1.9 0.1 -0.8
v 2.1 0.1 -0.8
v 2.2 0.1 -0.8
v -2.4 0.1 -0.9
v -2.3 0.1 -0.9
v -2.1 0.1 -0.9
v -2 0.1 -0.9
v 1.8 0.1 -0.9
v 1.9 0.1 -0.9
v 2.1 0.1 -0.9
v 2.2 0.1 -0.9
v -2 0.3 0.7
v -1.9 0.3 0.7
v -1.8 0.3 0.7
v -1.2 0.3 0.7
v -1.1 0.3 0.7
v 1 0.3 0.7
v 1.1 0.3 0.7
v 2.2 0.3 0.7
v 2.3 0.3 0.7
v 2.4 0.3 0.7
v -2 0.3 0.6
v -1.9 0.3 0.6
v -1.8 0.3 0.6
v 2.2 0.3 0.6
v 2.3 0.3 0.6
v 2.4 0.3 0.6
v -2 0.3 -0.8
v -1.9 0.3 -0.8
v -1.8 0.3 -0.8
v 2.2 0.3 -0.8
v 2.3 0.3 -0.8
v 2.4 0.3 -0.8
v -2 0.3 -0.9
v -1.9 0.3 -0.9
v -1.8 0.3 -0.9
v -1.2 0.3 -0.9
v -1.1 0.3 -0.9
v 1 0.3 -0.9
v 1.1 0.3 -0.9
v 2.2 0.3 -0.9
v 2.3 0.3 -0.9
v 2.4 0.3 -0.9
v -1.5 0.4 0.5
v -1.4 0.4 0.5
v 1.3 0.4 0.5
v 1.4 0.4 0.5
v -1.4 0.4 0.3
v -1.2 0.4 0.3
v 1.1 0.4 0.3
v 1.3 0.4 0.3
v -1.4 0.4 0.2
v -1.2 0.4 0.2
v 1.1 0.4 0.2
v 1.3 0.4 0.2
v -1.4 0.4 -0.4
v -1.2 0.4 -0.4
v 1.1 0.4 -0.4
v 1.3 0.4 -0.4
v -1.4 0.4 -0.5
v -1.2 0.4 -0.5
v 1.1 0.4 -0.5
v 1.3 0.4 -0.5
v -1.5 0.4 -0.7
v -1.4 0.4 -0.7
v 1.3 0.4 -0.7
v 1.4 0.4 -0.7
v -2.1 0.5 0.6
v -1.2 0.5 0.6
v -1.1 0.5 0.6
v 1 0.5 0.6
v 1.1 0.5 0.6
v 1.9 0.5 0.6
v -2.1 0.5 0.5
v -2 0.5 0.5
v -1.9 0.5 0.5
v -1.5 0.5 0.5
v -1.4 0.5 0.5
v 1.3 0.5 0.5
v 1.4 0.5 0.5
v 1.8 0.5 0.5
v 1.9 0.5 0.5
v -2.1 0.5 -0.7
v -2 0.5 -0.7
v -1.9 0.5 -0.7
v -1.5 0.5 -0.7
v -1.4 0.5 -0.7
v 1.3 0.5 -0.7
v 1.4 0.5 -0.7
v 1.8 0.5 -0.7
v 1.9 0.5 -0.7
v -2.1 0.5 -0.8
v -1.2 0.5 -0.8
v -1.1 0.5 -0.8
v 1 0.5 -0.8
v 1.1 0.5 -0.8
v 1.9 0.5 -0.8
v -2.8 0.9 1
v -2.6 0.9 1
v 2.3 0.9 1
v 2.5 0.9 1
v -2.7 0.9 0.9
v -2.6 0.9 0.9
v 2.3 0.9 0.9
v 2.4 0.9 0.9
v -2.8 0.9 0.8
v -2.7 0.9 0.8
v 2.4 0.9 0.8
v 2.5 0.9 0.8
v -1.5 0.9 0.5
v -1.4 0.9 0.5
v 1.3 0.9 0.5
v 1.4 0.9 0.5
v -1.5 0.9 0.4
v -1.4 0.9 0.4
v 1.3 0.9 0.4
v 1.4 0.9 0.4
v -1.5 0.9 -0.6
v -1.4 0.9 -0.6
v 1.3 0.9 -0.6
v 1.4 0.9 -0.6
v -1.5 0.9 -0.7
v -1.4 0.9 -0.7
v 1.3 0.9 -0.7
v 1.4 0.9 -0.7
v -2.8 0.9 -1
v -2.7 0.9 -1
v 2.4 0.9 -1
v 2.5 0.9 -1
v -2.7 0.9 -1.1
v -2.6 0.9 -1.1
v 2.3 0.9 -1.1
v 2.4 0.9 -1.1
v -2.8 0.9 -1.2
v -2.6 0.9 -1.2
v 2.3 0.9 -1.2
v 2.5 0.9 -1.2
v -2.1 1.6 0.9
v -1.8 1.6 0.9
v -1.7 1.6 0.9
v -1.2 1.6 0.9
v -1.1 1.6 0.9
v -0.6 1.6 0.9
v -0.5 1.6 0.9
v 2.38419e-07 1.6 0.9
v 0.1 1.6 0.9
v 0.6 1.6 0.9
v 0.7 1.6 0.9
v 1.2 1.6 0.9
v 1.3 1.6 0.9
v 1.7 1.6 0.9
v -2.1 1.6 0.8
v -1.8 1.6 0.8
v -1.7 1.6 0.8
v -1.2 1.6 0.8
v -1.1 1.6 0.8
v -0.6 1.6 0.8
v -0.5 1.6 0.8
v 2.38419e-07 1.6 0.8
v 0.1 1.6 0.8
v 0.6 1.6 0.8
v 0.7 1.6 0.8
v 1.2 1.6 0.8
v 1.3 1.6 0.8
v 1.7 1.6 0.8
v -2.1 1.6 -1
v -1.8 1.6 -1
v -1.7 1.6 -1
v -1.2 1.6 -1
v -1.1 1.6 -1
v -0.6 1.6 -1
v -0.5 1.6 -1
v 2.38419e-07 1.6 -1
v 0.1 1.6 -1
v 0.6 1.6 -1
v 0.7 1.6 -1
v 1.2 1.6 -1
v 1.3 1.6 -1
v 1.7 1.6 -1
v -2.1 1.6 -1.1
v -1.8 1.6 -1.1
v -1.7 1.6 -1.1
v -1.2 1.6 -1.1
v -1.1 1.6 -1.1
v -0.6 1.6 -1.1
v -0.5 1.6 -1.1
v 2.38419e-07 1.6 -1.1
v 0.1 1.6 -1.1
v 0.6 1.6 -1.1
v 0.7 1.6 -1.1
v 1.2 1.6 -1.1
v 1.3 1.6 -1.1
v 1.7 1.6 -1.1
v -2.7 1.7 0.8
v -2.6 1.7 0.8
v 2.3 1.7 0.8
v 2.4 1.7 0.8
v -2.7 1.7 -1.19209e-07
v -2.6 1.7 -1.19209e-07
v 2.3 1.7 -1.19209e-07
v 2.4 1.7 -1.19209e-07
v -2.7 1.7 -0.2
v -2.6 1.7 -0.2
v 2.3 1.7 -0.2
v 2.4 1.7 -0.2
v -2.7 1.7 -1
v -2.6 1.7 -1
v 2.3 1.7 -1
v 2.4 1.7 -1
v -2.4 0.3 0.7
v -2.3 0.3 0.7
v 1.8 0.3 0.7
v 1.9 0.3 0.7
v -2.4 0.3 0.6
v -2.3 0.3 0.6
v -2.1 0.3 0.6
v -2 0.3 0.6
v 1.8 0.3 0.6
v 1.9 0.3 0.6
v 2.1 0.3 0.6
v 2.2 0.3 0.6
v -2.4 0.3 0.5
v -2.3 0.3 0.5
v -2.1 0.3 0.5
v -2 0.3 0.5
v 1.8 0.3 0.5
v 1.9 0.3 0.5
v 2.1 0.3 0.5
v 2.2 0.3 0.5
v -2.4 0.3 -0.7
v -2.3 0.3 -0.7
v -2.1 0.3 -0.7
v -2 0.3 -0.7
v 1.8 0.3 -0.7
v 1.9 0.3 -0.7
v 2.1 0.3 -0.7
v 2.2 0.3 -0.7
v -2.4 0.3 -0.8
v -2.3 0.3 -0.8
v -2.1 0.3 -0.8
v -2 0.3 -0.8
v 1.8 0.3 -0.8
v 1.9 0.3 -0.8
v 2.1 0.3 -0.8
v 2.2 0.3 -0.8
v -2.4 0.3 -0.9
v -2.3 0.3 -0.9
v 1.8 0.3 -0.9
v 1.9 0.3 -0.9
v -2.1 0.4 0.7
v -1.9 0.4 0.7
v -1.8 0.4 0.7
v 2.1 0.4 0.7
v 2.3 0.4 0.7
v 2.4 0.4 0.7
v -2.1 0.4 0.6
v -1.9 0.4 0.6
v -1.8 0.4 0.6
v -1.2 0.4 0.6
v -1.1 0.4 0.6
v 1 0.4 0.6
v 1.1 0.4 0.6
v 2.1 0.4 0.6
v 2.3 0.4 0.6
v 2.4 0.4 0.6
v -1.2 0.4 0.3
v 1.1 0.4 0.3
v -1.2 0.4 0.2
v 1.1 0.4 0.2
v -1.2 0.4 -0.4
v 1.1 0.4 -0.4
v -1.2 0.4 -0.5
v 1.1 0.4 -0.5
v -2.1 0.4 -0.8
v -1.9 0.4 -0.8
v -1.8 0.4 -0.8
v -1.2 0.4 -0.8
v -1.1 0.4 -0.8
v 1 0.4 -0.8
v 1.1 0.4 -0.8
v 2.1 0.4 -0.8
v 2.3 0.4 -0.8
v 2.4 0.4 -0.8
v -2.1 0.4 -0.9
v -1.9 0.4 -0.9
v -1.8 0.4 -0.9
v 2.1 0.4 -0.9
v 2.3 0.4 -0.9
v 2.4 0.4 -0.9
v -1.5 0.5 0.4
v -1.4 0.5 0.4
v 1.3 0.5 0.4
v 1.4 0.5 0.4
v -1.4 0.5 0.3
v -1.2 0.5 0.3
v 1.1 0.5 0.3
v 1.3 0.5 0.3
v -1.4 0.5 0.2
v -1.2 0.5 0.2
v 1.1 0.5 0.2
v 1.3 0.5 0.2
v -1.4 0.5 -0.4
v -1.2 0.5 -0.4
v 1.1 0.5 -0.4
v 1.3 0.5 -0.4
v -1.4 0.5 -0.5
v -1.2 0.5 -0.5
v 1.1 0.5 -0.5
v 1.3 0.5 -0.5
v -1.5 0.5 -0.6
v -1.4 0.5 -0.6
v 1.3 0.5 -0.6
v 1.4 0.5 -0.6
v -2.3 0.6 0.7
v -2.1 0.6 0.7
v -1.2 0.6 0.7
v -1.1 0.6 0.7
v 1 0.6 0.7
v 1.1 0.6 0.7
v 1.9 0.6 0.7
v 2.1 0.6 0.7
v -2.1 0.6 0.6
v -1.2 0.6 0.6
v -1.1 0.6 0.6
v 1 0.6 0.6
v 1.1 0.6 0.6
v 1.9 0.6 0.6
v -2.3 0.6 0.5
v -2 0.6 0.5
v -1.9 0.6 0.5
v -1.5 0.6 0.5
v -1.4 0.6 0.5
v 1.3 0.6 0.5
v 1.4 0.6 0.5
v 1.8 0.6 0.5
v 1.9 0.6 0.5
v 2.1 0.6 0.5
v -2.3 0.6 -0.7
v -2 0.6 -0.7
v -1.9 0.6 -0.7
v -1.5 0.6 -0.7
v -1.4 0.6 -0.7
v 1.3 0.6 -0.7
v 1.4 0.6 -0.7
v 1.8 0.6 -0.7
v 1.9 0.6 -0.7
v 2.1 0.6 -0.7
v -2.1 0.6 -0.8
v -1.2 0.6 -0.8
v -1.1 0.6 -0.8
v 1 0.6 -0.8
v 1.1 0.6 -0.8
v 1.9 0.6 -0.8
v -2.3 0.6 -0.9
v -2.1 0.6 -0.9
v -1.2 0.6 -0.9
v -1.1 0.6 -0.9
v 1 0.6 -0.9
v 1.1 0.6 -0.9
v 1.9 0.6 -0.9
v 2.1 0.6 -0.9
v -2.8 1.1 1
v -2.6 1.1 1
v 2.3 1.1 1
v 2.5 1.1 1
v -2.7 1.1 0.9
v -2.6 1.1 0.9
v -1.8 1.1 0.9
v -1.7 1.1 0.9
v -1.2 1.1 0.9
v -1.1 1.1 0.9
v -0.6 1.1 0.9
v -0.5 1.1 0.9
v 2.38419e-07 1.1 0.9
v 0.1 1.1 0.9
v 0.6 1.1 0.9
v 0.7 1.1 0.9
v 1.2 1.1 0.9
v 1.3 1.1 0.9
v 2.3 1.1 0.9
v 2.4 1.1 0.9
v -2.8 1.1 0.8
v -2.7 1.1 0.8
v -2.6 1.1 0.8
v -1.8 1.1 0.8
v -1.7 1.1 0.8
v -1.2 1.1 0.8
v -1.1 1.1 0.8
v -0.8 1.1 0.8
v -0.6 1.1 0.8
v -0.5 1.1 0.8
v 2.38419e-07 1.1 0.8
v 0.1 1.1 0.8
v 0.6 1.1 0.8
v 0.7 1.1 0.8
v 1.2 1.1 0.8
v 1.3 1.1 0.8
v 2.3 1.1 0.8
v 2.4 1.1 0.8
v 2.5 1.1 0.8
v -2.8 1.1 -1
v -2.7 1.1 -1
v -2.6 1.1 -1
v -1.8 1.1 -1
v -1.7 1.1 -1
v -1.2 1.1 -1
v -1.1 1.1 -1
v -0.8 1.1 -1
v -0.6 1.1 -1
v -0.5 1.1 -1
v 2.38419e-07 1.1 -1
v 0.1 1.1 -1
v 0.6 1.1 -1
v 0.7 1.1 -1
v 1.2 1.1 -1
v 1.3 1.1 -1
v 2.3 1.1 -1
v 2.4 1.1 -1
v 2.5 1.1 -1
v -2.7 1.1 -1.1
v -2.6 1.1 -1.1
v -1.8 1.1 -1.1
v -1.7 1.1 -1.1
v -1.2 1.1 -1.1
v -1.1 1.1 -1.1
v -0.6 1.1 -1.1
v -0.5 1.1 -1.1
v 2.38419e-07 1.1 -1.1
v 0.1 1.1 -1.1
v 0.6 1.1 -1.1
v 0.7 1.1 -1.1
v 1.2 1.1 -1.1
v 1.3 1.1 -1.1
v 2.3 1.1 -1.1
v 2.4 1.1 -1.1
v -2.8 1.1 -1.2
v -2.6 1.1 -1.2
v 2.3 1.1 -1.2
v 2.5 1.1 -1.2
v -2.6 1.4 0.8
v -1.8 1.4 0.8
v -1.7 1.4 0.8
v -1.2 1.4 0.8
v -1.1 1.4 0.8
v -0.8 1.4 0.8
v -0.9 1.4 0.7
v -0.8 1.4 0.7
v -2.2 1.4 0.6
v -1.5 1.4 0.6
v -2.3 1.4 0.5
v -2.2 1.4 0.5
v -1.5 1.4 0.5
v -1.4 1.4 0.5
v -1 1.4 0.4
v -0.9 1.4 0.4
v -1 1.4 -0.4
v -0.9 1.4 -0.4
v -2.3 1.4 -0.7
v -2.2 1.4 -0.7
v -1.5 1.4 -0.7
v -1.4 1.4 -0.7
v -0.9 1.4 -0.7
v -0.8 1.4 -0.7
v -2.2 1.4 -0.8
v -1.5 1.4 -0.8
v -2.6 1.4 -1
v -1.8 1.4 -1
v -1.7 1.4 -1
v -1.2 1.4 -1
v -1.1 1.4 -1
v -0.8 1.4 -1
v -2.7 1.5 0.8
v -2.6 1.5 0.8
v -0.8 1.5 0.8
v -0.6 1.5 0.8
v -0.5 1.5 0.8
v 2.38419e-07 1.5 0.8
v 0.1 1.5 0.8
v 0.6 1.5 0.8
v 0.7 1.5 0.8
v 1.2 1.5 0.8
v 1.3 1.5 0.8
v 2.3 1.5 0.8
v 2.4 1.5 0.8
v -0.9 1.5 0.7
v -0.8 1.5 0.7
v -2.2 1.5 0.6
v -1.5 1.5 0.6
v -2.3 1.5 0.5
v -2.2 1.5 0.5
v -1.5 1.5 0.5
v -1.4 1.5 0.5
v -1 1.5 0.4
v -0.9 1.5 0.4
v -2.7 1.5 0.0999999
v -2.6 1.5 0.0999999
v 2.3 1.5 0.0999999
v 2.4 1.5 0.0999999
v -2.7 1.5 -0.3
v -2.6 1.5 -0.3
v 2.3 1.5 -0.3
v 2.4 1.5 -0.3
v -1 1.5 -0.4
v -0.9 1.5 -0.4
v -2.3 1.5 -0.7
v -2.2 1.5 -0.7
v -1.5 1.5 -0.7
v -1.4 1.5 -0.7
v -0.9 1.5 -0.7
v -0.8 1.5 -0.7
v -2.2 1.5 -0.8
v -1.5 1.5 -0.8
v -2.7 1.5 -1
v -2.6 1.5 -1
v -0.8 1.5 -1
v -0.6 1.5 -1
v -0.5 1.5 -1
v 2.38419e-07 1.5 -1
v 0.1 1.5 -1
v 0.6 1.5 -1
v 0.7 1.5 -1
v 1.2 1.5 -1
v 1.3 1.5 -1
v 2.3 1.5 -1
v 2.4 1.5 -1
v -2.2 1.6 0.5
v -1.5 1.6 0.5
v -2.7 1.6 0.0999999
v -2.6 1.6 0.0999999
v 2.3 1.6 0.0999999
v 2.4 1.6 0.0999999
v -2.7 1.6 -1.19209e-07
v -2.6 1.6 -1.19209e-07
v 2.3 1.6 -1.19209e-07
v 2.4 1.6 -1.19209e-07
v -2.7 1.6 -0.2
v -2.6 1.6 -0.2
v 2.3 1.6 -0.2
v 2.4 1.6 -0.2
v -2.7 1.6 -0.3
v -2.6 1.6 -0.3
v 2.3 1.6 -0.3
v 2.4 1.6 -0.3
v -2.2 1.6 -0.7
v -1.5 1.6 -0.7
v -2.7 1.7 0.9
v -2.6 1.7 0.9
v -2.1 1.7 0.9
v 1.7 1.7 0.9
v 2.3 1.7 0.9
v 2.4 1.7 0.9
v -2.7 1.7 0.8
v -2.6 1.7 0.8
v -2.1 1.7 0.8
v 1.7 1.7 0.8
v 2.3 1.7 0.8
v 2.4 1.7 0.8
v -2.7 1.7 -1
v -2.6 1.7 -1
v -2.1 1.7 -1
v 1.7 1.7 -1
v 2.3 1.7 -1
v 2.4 1.7 -1
v -2.7 1.7 -1.1
v -2.6 1.7 -1.1
v -2.1 1.7 -1.1
v 1.7 1.7 -1.1
v 2.3 1.7 -1.1
v 2.4 1.7 -1.1
v -2.7 1.8 0.8
v -2.6 1.8 0.8
v 2.3 1.8 0.8
v 2.4 1.8 0.8
v -2.7 1.8 -1
v -2.6 1.8 -1
v 2.3 1.8 -1
v 2.4 1.8 -1

# faces
f 5/3/1 2/3/1 1/3/1
f 6/3/1 2/3/1 5/3/1
f 7/3/1 4/3/1 3/3/1
f 8/3/1 4/3/1 7/3/1
f 12/5/1 10/5/1 9/5/1
f 13/5/1 10/5/1 12/5/1
f 14/5/1 10/5/1 13/5/1
f 15/5/1 10/5/1 14/5/1
f 17/5/1 12/5/1 11/5/1
f 17/5/1 13/5/1 12/5/1
f 17/4/1 14/4/1 13/4/1
f 18/5/1 16/5/1 15/5/1
f 18/4/1 14/4/1 17/4/1
f 18/5/1 15/5/1 14/5/1
f 19/5/1 17/5/1 11/5/1
f 19/5/1 18/5/1 17/5/1
f 20/5/1 18/5/1 19/5/1
f 21/5/1 18/5/1 20/5/1
f 22/5/1 16/5/1 18/5/1
f 22/5/1 18/5/1 21/5/1
f 23/5/1 21/5/1 20/5/1
f 24/5/1 21/5/1 23/5/1
f 25/5/1 21/5/1 24/5/1
f 26/5/1 21/5/1 25/5/1
f 27/5/1 19/5/1 11/5/1
f 28/5/1 19/5/1 27/5/1
f 29/5/1 25/5/1 24/5/1
f 30/5/1 25/5/1 29/5/1
f 31/5/1 16/5/1 22/5/1
f 32/5/1 16/5/1 31/5/1
f 33/5/1 30/5/1 29/5/1
f 33/5/1 29/5/1 28/5/1
f 33/5/1 31/5/1 30/5/1
f 34/5/1 31/5/1 33/5/1
f 41/5/1 36/5/1 35/5/1
f 42/3/1 37/3/1 36/3/1
f 42/5/1 36/5/1 41/5/1
f 43/3/1 37/3/1 42/3/1
f 44/3/1 39/3/1 38/3/1
f 45/5/1 40/5/1 39/5/1
f 45/3/1 39/3/1 44/3/1
f 46/5/1 40/5/1 45/5/1
f 53/5/1 48/5/1 47/5/1
f 54/3/1 49/3/1 48/3/1
f 54/5/1 48/5/1 53/5/1
f 55/3/1 49/3/1 54/3/1
f 56/3/1 51/3/1 50/3/1
f 57/5/1 52/5/1 51/5/1
f 57/3/1 51/3/1 56/3/1
f 58/5/1 52/5/1 57/5/1
f 65/5/1 60/5/1 59/5/1
f 65/3/1 61/3/1 60/3/1
f 66/3/1 61/3/1 65/3/1
f 67/3/1 63/3/1 62/3/1
f 68/5/1 64/5/1 63/5/1
f 68/3/1 63/3/1 67/3/1
f 69/5/1 66/5/1 65/5/1
f 69/5/1 65/5/1 59/5/1
f 70/5/1 66/5/1 69/5/1
f 71/5/1 68/5/1 67/5/1
f 72/5/1 64/5/1 68/5/1
f 72/5/1 68/5/1 71/5/1
f 75/1/1 74/1/1 73/1/1
f 76/1/1 74/1/1 75/1/1
f 81/1/1 78/1/1 77/1/1
f 82/1/1 78/1/1 81/1/1
f 83/1/1 80/1/1 79/1/1
f 84/1/1 80/1/1 83/1/1
f 85/1/1 83/1/1 82/1/1
f 86/1/1 83/1/1 85/1/1
f 91/5/1 88/5/1 87/5/1
f 92/5/1 88/5/1 91/5/1
f 93/5/1 90/5/1 89/5/1
f 94/5/1 90/5/1 93/5/1
f 97/5/1 96/5/1 95/5/1
f 98/5/1 96/5/1 97/5/1
f 103/3/1 100/3/1 99/3/1
f 104/3/1 100/3/1 103/3/1
f 105/3/1 102/3/1 101/3/1
f 106/3/1 102/3/1 105/3/1
f 107/6/1 104/6/1 103/6/1
f 108/6/1 106/6/1 105/6/1
f 109/6/1 107/6/1 103/6/1
f 110/6/1 107/6/1 109/6/1
f 111/6/1 106/6/1 108/6/1
f 112/6/1 106/6/1 111/6/1
f 113/3/1 110/3/1 109/3/1
f 114/3/1 110/3/1 113/3/1
f 115/3/1 112/3/1 111/3/1
f 116/3/1 112/3/1 115/3/1
f 119/5/1 118/5/1 117/5/1
f 120/5/1 118/5/1 119/5/1
f 121/5/1 118/5/1 120/5/1
f 122/5/1 118/5/1 121/5/1
f 123/5/1 120/5/1 119/5/1
f 124/5/1 120/5/1 123/5/1
f 125/5/1 122/5/1 121/5/1
f 126/5/1 122/5/1 125/5/1
f 127/3/1 124/3/1 123/3/1
f 128/3/1 124/3/1 127/3/1
f 129/3/1 126/3/1 125/3/1
f 130/3/1 126/3/1 129/3/1
f 131/5/1 128/5/1 127/5/1
f 132/5/1 128/5/1 131/5/1
f 133/5/1 130/5/1 129/5/1
f 134/5/1 130/5/1 133/5/1
f 137/5/1 136/5/1 135/5/1
f 138/5/1 136/5/1 137/5/1
f 139/5/1 136/5/1 138/5/1
f 140/5/1 136/5/1 139/5/1
f 141/5/1 136/5/1 140/5/1
f 142/5/1 136/5/1 141/5/1
f 143/5/1 137/5/1 135/5/1
f 144/5/1 137/5/1 143/5/1
f 145/5/1 136/5/1 142/5/1
f 146/5/1 136/5/1 145/5/1
f 147/3/1 144/3/1 143/3/1
f 148/3/1 144/3/1 147/3/1
f 149/3/1 146/3/1 145/3/1
f 150/3/1 146/3/1 149/3/1
f 155/3/1 152/3/1 151/3/1
f 156/3/1 152/3/1 155/3/1
f 157/3/1 154/3/1 153/3/1
f 158/3/1 154/3/1 157/3/1
f 159/6/1 156/6/1 155/6/1
f 160/6/1 158/6/1 157/6/1
f 161/6/1 159/6/1 155/6/1
f 162/6/1 159/6/1 161/6/1
f 163/6/1 158/6/1 160/6/1
f 164/6/1 158/6/1 163/6/1
f 165/3/1 162/3/1 161/3/1
f 166/3/1 162/3/1 165/3/1
f 167/3/1 164/3/1 163/3/1
f 168/3/1 164/3/1 167/3/1
f 171/4/1 170/4/1 169/4/1
f 172/4/1 170/4/1 171/4/1
f 177/4/1 174/4/1 173/4/1
f 178/4/1 174/4/1 177/4/1
f 179/4/1 176/4/1 175/4/1
f 180/4/1 176/4/1 179/4/1
f 185/4/1 182/4/1 181/4/1
f 186/4/1 182/4/1 185/4/1
f 187/4/1 184/4/1 183/4/1
f 188/4/1 184/4/1 187/4/1
f 193/3/1 190/3/1 189/3/1
f 194/3/1 190/3/1 193/3/1
f 195/3/1 192/3/1 191/3/1
f 196/3/1 192/3/1 195/3/1
f 197/6/1 194/6/1 193/6/1
f 198/6/1 194/6/1 197/6/1
f 199/6/1 196/6/1 195/6/1
f 200/6/1 196/6/1 199/6/1
f 201/3/1 198/3/1 197/3/1
f 202/3/1 198/3/1 201/3/1
f 203/3/1 200/3/1 199/3/1
f 204/3/1 200/3/1 203/3/1
f 209/3/1 206/3/1 205/3/1
f 210/3/1 206/3/1 209/3/1
f 211/3/1 208/3/1 207/3/1
f 212/3/1 208/3/1 211/3/1
f 213/6/1 210/6/1 209/6/1
f 214/6/1 210/6/1 213/6/1
f 215/6/1 212/6/1 211/6/1
f 216/6/1 212/6/1 215/6/1
f 217/3/1 214/3/1 213/3/1
f 218/3/1 214/3/1 217/3/1
f 219/3/1 216/3/1 215/3/1
f 220/3/1 216/3/1 219/3/1
f 225/3/1 222/3/1 221/3/1
f 226/3/1 222/3/1 225/3/1
f 227/3/1 224/3/1 223/3/1
f 228/3/1 224/3/1 227/3/1
f 229/6/1 226/6/1 225/6/1
f 230/6/1 226/6/1 229/6/1
f 231/6/1 228/6/1 227/6/1
f 232/6/1 228/6/1 231/6/1
f 233/3/1 230/3/1 229/3/1
f 234/3/1 230/3/1 233/3/1
f 235/3/1 232/3/1 231/3/1
f 236/3/1 232/3/1 235/3/1
f 239/5/1 238/5/1 237/5/1
f 240/5/1 238/5/1 239/5/1
f 241/5/1 239/5/1 237/5/1
f 242/5/1 239/5/1 241/5/1
f 243/5/1 238/5/1 240/5/1
f 244/5/1 238/5/1 243/5/1
f 245/3/1 242/3/1 241/3/1
f 246/3/1 242/3/1 245/3/1
f 247/3/1 244/3/1 243/3/1
f 248/3/1 244/3/1 247/3/1
f 253/5/1 250/5/1 249/5/1
f 254/5/1 250/5/1 253/5/1
f 255/5/1 252/5/1 251/5/1
f 256/5/1 252/5/1 255/5/1
f 261/3/1 258/3/1 257/3/1
f 262/3/1 258/3/1 261/3/1
f 263/3/1 260/3/1 259/3/1
f 264/3/1 260/3/1 263/3/1
f 265/6/1 262/6/1 261/6/1
f 266/6/1 262/6/1 265/6/1
f 267/6/1 264/6/1 263/6/1
f 268/6/1 264/6/1 267/6/1
f 269/3/1 266/3/1 265/3/1
f 270/3/1 266/3/1 269/3/1
f 271/3/1 268/3/1 267/3/1
f 272/3/1 268/3/1 271/3/1
f 279/5/1 274/5/1 273/5/1
f 280/5/1 274/5/1 279/5/1
f 281/5/1 274/5/1 280/5/1
f 282/5/1 276/5/1 275/5/1
f 283/5/1 276/5/1 282/5/1
f 284/5/1 278/5/1 277/5/1
f 285/5/1 278/5/1 284/5/1
f 286/5/1 278/5/1 285/5/1
f 287/5/1 280/5/1 279/5/1
f 288/5/1 280/5/1 287/5/1
f 289/5/1 286/5/1 285/5/1
f 290/5/1 286/5/1 289/5/1
f 291/3/1 288/3/1 287/3/1
f 292/3/1 288/3/1 291/3/1
f 293/3/1 290/3/1 289/3/1
f 294/3/1 290/3/1 293/3/1
f 295/5/1 292/5/1 291/5/1
f 296/5/1 292/5/1 295/5/1
f 297/5/1 294/5/1 293/5/1
f 298/5/1 294/5/1 297/5/1
f 305/5/1 300/5/1 299/5/1
f 306/3/1 301/3/1 300/3/1
f 306/5/1 300/5/1 305/5/1
f 307/3/1 301/3/1 306/3/1
f 308/3/1 303/3/1 302/3/1
f 309/5/1 304/5/1 303/5/1
f 309/3/1 303/3/1 308/3/1
f 310/5/1 304/5/1 309/5/1
f 313/5/1 312/5/1 311/5/1
f 314/5/1 312/5/1 313/5/1
f 321/5/1 316/5/1 315/5/1
f 322/3/1 317/3/1 316/3/1
f 322/5/1 316/5/1 321/5/1
f 323/3/1 317/3/1 322/3/1
f 324/3/1 319/3/1 318/3/1
f 325/5/1 320/5/1 319/5/1
f 325/3/1 319/3/1 324/3/1
f 326/5/1 320/5/1 325/5/1
f 333/5/1 328/5/1 327/5/1
f 333/3/1 329/3/1 328/3/1
f 334/3/1 329/3/1 333/3/1
f 335/3/1 331/3/1 330/3/1
f 336/5/1 332/5/1 331/5/1
f 336/3/1 331/3/1 335/3/1
f 337/5/1 334/5/1 333/5/1
f 337/5/1 333/5/1 327/5/1
f 338/5/1 334/5/1 337/5/1
f 339/5/1 336/5/1 335/5/1
f 340/5/1 332/5/1 336/5/1
f 340/5/1 336/5/1 339/5/1
f 341/5/1 337/5/1 327/5/1
f 342/5/1 337/5/1 341/5/1
f 343/5/1 332/5/1 340/5/1
f 344/5/1 332/5/1 343/5/1
f 349/3/1 346/3/1 345/3/1
f 350/3/1 346/3/1 349/3/1
f 353/3/1 348/3/1 347/3/1
f 354/3/1 348/3/1 353/3/1
f 355/5/1 351/5/1 350/5/1
f 358/5/1 353/5/1 352/5/1
f 359/5/1 357/5/1 356/5/1
f 360/5/1 357/5/1 359/5/1
f 361/5/1 357/5/1 360/5/1
f 362/5/1 357/5/1 361/5/1
f 363/5/1 355/5/1 350/5/1
f 364/5/1 355/5/1 363/5/1
f 365/5/1 361/5/1 360/5/1
f 366/5/1 361/5/1 365/5/1
f 367/5/1 353/5/1 358/5/1
f 368/5/1 353/5/1 367/5/1
f 369/5/1 366/5/1 365/5/1
f 369/5/1 365/5/1 364/5/1
f 369/5/1 367/5/1 366/5/1
f 370/5/1 367/5/1 369/5/1
f 371/3/2 372/3/2 375/3/2
f 375/3/2 372/3/2 376/3/2
f 373/3/2 374/3/2 379/3/2
f 379/3/2 374/3/2 380/3/2
f 376/5/2 377/5/2 381/5/2
f 378/5/2 379/5/2 382/5/2
f 376/5/2 381/5/2 383/5/2
f 381/5/2 382/5/2 383/5/2
f 383/5/2 382/5/2 384/5/2
f 384/5/2 382/5/2 385/5/2
f 382/5/2 379/5/2 386/5/2
f 385/5/2 382/5/2 386/5/2
f 384/5/2 385/5/2 387/5/2
f 387/5/2 385/5/2 388/5/2
f 388/5/2 385/5/2 389/5/2
f 389/5/2 385/5/2 390/5/2
f 376/5/2 383/5/2 391/5/2
f 391/5/2 383/5/2 392/5/2
f 388/5/2 389/5/2 393/5/2
f 393/5/2 389/5/2 394/5/2
f 386/5/2 379/5/2 395/5/2
f 395/5/2 379/5/2 396/5/2
f 393/5/2 394/5/2 397/5/2
f 392/5/2 393/5/2 397/5/2
f 394/5/2 395/5/2 397/5/2
f 397/5/2 395/5/2 398/5/2
f 399/5/2 400/5/2 405/5/2
f 400/3/2 401/3/2 406/3/2
f 405/5/2 400/5/2 406/5/2
f 406/3/2 401/3/2 407/3/2
f 402/3/2 403/3/2 408/3/2
f 403/5/2 404/5/2 409/5/2
f 408/3/2 403/3/2 409/3/2
f 409/5/2 404/5/2 410/5/2
f 411/3/2 412/3/2 416/3/2
f 416/3/2 412/3/2 417/3/2
f 413/3/2 414/3/2 418/3/2
f 418/3/2 414/3/2 419/3/2
f 416/5/2 417/5/2 421/5/2
f 415/5/2 416/5/2 421/5/2
f 421/5/2 417/5/2 422/5/2
f 419/5/2 420/5/2 423/5/2
f 418/5/2 419/5/2 423/5/2
f 423/5/2 420/5/2 424/5/2
f 415/5/2 421/5/2 425/5/2
f 425/5/2 421/5/2 426/5/2
f 424/5/2 420/5/2 427/5/2
f 427/5/2 420/5/2 428/5/2
f 429/5/2 430/5/2 435/5/2
f 430/3/2 431/3/2 436/3/2
f 435/5/2 430/5/2 436/5/2
f 436/3/2 431/3/2 437/3/2
f 432/3/2 433/3/2 438/3/2
f 433/5/2 434/5/2 439/5/2
f 438/3/2 433/3/2 439/3/2
f 439/5/2 434/5/2 440/5/2
f 441/5/2 442/5/2 443/5/2
f 443/5/2 442/5/2 444/5/2
f 445/2/2 446/2/2 449/2/2
f 449/2/2 446/2/2 450/2/2
f 447/2/2 448/2/2 451/2/2
f 451/2/2 448/2/2 452/2/2
f 453/3/2 454/3/2 457/3/2
f 457/3/2 454/3/2 458/3/2
f 455/3/2 456/3/2 459/3/2
f 459/3/2 456/3/2 460/3/2
f 457/6/2 458/6/2 461/6/2
f 459/6/2 460/6/2 462/6/2
f 457/6/2 461/6/2 463/6/2
f 463/6/2 461/6/2 464/6/2
f 462/6/2 460/6/2 465/6/2
f 465/6/2 460/6/2 466/6/2
f 463/3/2 464/3/2 467/3/2
f 467/3/2 464/3/2 468/3/2
f 465/3/2 466/3/2 469/3/2
f 469/3/2 466/3/2 470/3/2
f 471/1/2 472/1/2 475/1/2
f 475/1/2 472/1/2 476/1/2
f 473/1/2 474/1/2 477/1/2
f 477/1/2 474/1/2 478/1/2
f 476/1/2 477/1/2 479/1/2
f 479/1/2 477/1/2 480/1/2
f 481/5/2 482/5/2 487/5/2
f 487/5/2 482/5/2 488/5/2
f 488/5/2 482/5/2 489/5/2
f 483/5/2 484/5/2 490/5/2
f 490/5/2 484/5/2 491/5/2
f 485/5/2 486/5/2 492/5/2
f 492/5/2 486/5/2 493/5/2
f 493/5/2 486/5/2 494/5/2
f 487/5/2 488/5/2 495/5/2
f 495/5/2 488/5/2 496/5/2
f 493/5/2 494/5/2 497/5/2
f 497/5/2 494/5/2 498/5/2
f 495/3/2 496/3/2 499/3/2
f 499/3/2 496/3/2 500/3/2
f 497/3/2 498/3/2 501/3/2
f 501/3/2 498/3/2 502/3/2
f 499/5/2 500/5/2 503/5/2
f 503/5/2 500/5/2 504/5/2
f 501/5/2 502/5/2 505/5/2
f 505/5/2 502/5/2 506/5/2
f 507/1/2 508/1/2 509/1/2
f 509/1/2 508/1/2 510/1/2
f 511/5/2 512/5/2 515/5/2
f 515/5/2 512/5/2 516/5/2
f 513/5/2 514/5/2 517/5/2
f 517/5/2 514/5/2 518/5/2
f 519/5/2 520/5/2 521/5/2
f 521/5/2 520/5/2 522/5/2
f 519/5/2 521/5/2 523/5/2
f 523/5/2 521/5/2 524/5/2
f 522/5/2 520/5/2 525/5/2
f 525/5/2 520/5/2 526/5/2
f 523/3/2 524/3/2 527/3/2
f 527/3/2 524/3/2 528/3/2
f 525/3/2 526/3/2 529/3/2
f 529/3/2 526/3/2 530/3/2
f 531/3/2 532/3/2 535/3/2
f 535/3/2 532/3/2 536/3/2
f 533/3/2 534/3/2 537/3/2
f 537/3/2 534/3/2 538/3/2
f 535/6/2 536/6/2 539/6/2
f 537/6/2 538/6/2 540/6/2
f 535/6/2 539/6/2 541/6/2
f 541/6/2 539/6/2 542/6/2
f 540/6/2 538/6/2 543/6/2
f 543/6/2 538/6/2 544/6/2
f 541/3/2 542/3/2 545/3/2
f 545/3/2 542/3/2 546/3/2
f 543/3/2 544/3/2 547/3/2
f 547/3/2 544/3/2 548/3/2
f 549/3/2 550/3/2 553/3/2
f 553/3/2 550/3/2 554/3/2
f 551/3/2 552/3/2 555/3/2
f 555/3/2 552/3/2 556/3/2
f 553/6/2 554/6/2 557/6/2
f 557/6/2 554/6/2 558/6/2
f 555/6/2 556/6/2 559/6/2
f 559/6/2 556/6/2 560/6/2
f 557/3/2 558/3/2 561/3/2
f 561/3/2 558/3/2 562/3/2
f 559/3/2 560/3/2 563/3/2
f 563/3/2 560/3/2 564/3/2
f 565/3/2 566/3/2 569/3/2
f 569/3/2 566/3/2 570/3/2
f 567/3/2 568/3/2 571/3/2
f 571/3/2 568/3/2 572/3/2
f 569/6/2 570/6/2 573/6/2
f 573/6/2 570/6/2 574/6/2
f 571/6/2 572/6/2 575/6/2
f 575/6/2 572/6/2 576/6/2
f 573/3/2 574/3/2 577/3/2
f 577/3/2 574/3/2 578/3/2
f 575/3/2 576/3/2 579/3/2
f 579/3/2 576/3/2 580/3/2
f 581/3/2 582/3/2 585/3/2
f 585/3/2 582/3/2 586/3/2
f 583/3/2 584/3/2 587/3/2
f 587/3/2 584/3/2 588/3/2
f 585/6/2 586/6/2 589/6/2
f 589/6/2 586/6/2 590/6/2
f 587/6/2 588/6/2 591/6/2
f 591/6/2 588/6/2 592/6/2
f 589/3/2 590/3/2 593/3/2
f 593/3/2 590/3/2 594/3/2
f 591/3/2 592/3/2 595/3/2
f 595/3/2 592/3/2 596/3/2
f 597/5/2 598/5/2 599/5/2
f 599/5/2 598/5/2 600/5/2
f 600/5/2 598/5/2 601/5/2
f 601/5/2 598/5/2 602/5/2
f 602/5/2 598/5/2 603/5/2
f 603/5/2 598/5/2 604/5/2
f 597/5/2 599/5/2 605/5/2
f 605/5/2 599/5/2 606/5/2
f 604/5/2 598/5/2 607/5/2
f 607/5/2 598/5/2 608/5/2
f 605/3/2 606/3/2 609/3/2
f 609/3/2 606/3/2 610/3/2
f 607/3/2 608/3/2 611/3/2
f 611/3/2 608/3/2 612/3/2
f 613/3/2 614/3/2 617/3/2
f 617/3/2 614/3/2 618/3/2
f 615/3/2 616/3/2 619/3/2
f 619/3/2 616/3/2 620/3/2
f 617/6/2 618/6/2 621/6/2
f 621/6/2 618/6/2 622/6/2
f 619/6/2 620/6/2 623/6/2
f 623/6/2 620/6/2 624/6/2
f 621/3/2 622/3/2 625/3/2
f 625/3/2 622/3/2 626/3/2
f 623/3/2 624/3/2 627/3/2
f 627/3/2 624/3/2 628/3/2
f 629/5/2 630/5/2 631/5/2
f 631/5/2 630/5/2 632/5/2
f 632/5/2 630/5/2 633/5/2
f 633/5/2 630/5/2 634/5/2
f 631/5/2 632/5/2 635/5/2
f 635/5/2 632/5/2 636/5/2
f 633/5/2 634/5/2 637/5/2
f 637/5/2 634/5/2 638/5/2
f 635/3/2 636/3/2 639/3/2
f 639/3/2 636/3/2 640/3/2
f 637/3/2 638/3/2 641/3/2
f 641/3/2 638/3/2 642/3/2
f 639/5/2 640/5/2 643/5/2
f 643/5/2 640/5/2 644/5/2
f 641/5/2 642/5/2 645/5/2
f 645/5/2 642/5/2 646/5/2
f 647/5/2 648/5/2 651/5/2
f 651/5/2 648/5/2 652/5/2
f 649/5/2 650/5/2 653/5/2
f 653/5/2 650/5/2 654/5/2
f 655/5/2 656/5/2 657/5/2
f 657/5/2 656/5/2 658/5/2
f 659/5/2 660/5/2 665/5/2
f 660/3/2 661/3/2 666/3/2
f 665/5/2 660/5/2 666/5/2
f 666/3/2 661/3/2 667/3/2
f 662/3/2 663/3/2 668/3/2
f 663/5/2 664/5/2 669/5/2
f 668/3/2 663/3/2 669/3/2
f 669/5/2 664/5/2 670/5/2
f 671/3/2 672/3/2 676/3/2
f 676/3/2 672/3/2 677/3/2
f 673/3/2 674/3/2 678/3/2
f 678/3/2 674/3/2 679/3/2
f 676/5/2 677/5/2 681/5/2
f 675/5/2 676/5/2 681/5/2
f 681/5/2 677/5/2 682/5/2
f 679/5/2 680/5/2 683/5/2
f 678/5/2 679/5/2 683/5/2
f 683/5/2 680/5/2 684/5/2
f 685/5/2 686/5/2 691/5/2
f 686/3/2 687/3/2 692/3/2
f 691/5/2 686/5/2 692/5/2
f 692/3/2 687/3/2 693/3/2
f 688/3/2 689/3/2 694/3/2
f 689/5/2 690/5/2 695/5/2
f 694/3/2 689/3/2 695/3/2
f 695/5/2 690/5/2 696/5/2
f 697/2/2 698/2/2 701/2/2
f 701/2/2 698/2/2 702/2/2
f 699/2/2 700/2/2 703/2/2
f 703/2/2 700/2/2 704/2/2
f 705/5/2 706/5/2 708/5/2
f 708/5/2 706/5/2 709/5/2
f 709/5/2 706/5/2 710/5/2
f 710/5/2 706/5/2 711/5/2
f 707/5/2 708/5/2 713/5/2
f 708/5/2 709/5/2 713/5/2
f 709/4/2 710/4/2 713/4/2
f 711/5/2 712/5/2 714/5/2
f 713/4/2 710/4/2 714/4/2
f 710/5/2 711/5/2 714/5/2
f 707/5/2 713/5/2 715/5/2
f 713/5/2 714/5/2 715/5/2
f 715/5/2 714/5/2 716/5/2
f 716/5/2 714/5/2 717/5/2
f 714/5/2 712/5/2 718/5/2
f 717/5/2 714/5/2 718/5/2
f 716/5/2 717/5/2 719/5/2
f 719/5/2 717/5/2 720/5/2
f 720/5/2 717/5/2 721/5/2
f 721/5/2 717/5/2 722/5/2
f 707/5/2 715/5/2 723/5/2
f 723/5/2 715/5/2 724/5/2
f 720/5/2 721/5/2 725/5/2
f 725/5/2 721/5/2 726/5/2
f 718/5/2 712/5/2 727/5/2
f 727/5/2 712/5/2 728/5/2
f 725/5/2 726/5/2 729/5/2
f 724/5/2 725/5/2 729/5/2
f 726/5/2 727/5/2 729/5/2
f 729/5/2 727/5/2 730/5/2
f 731/3/2 732/3/2 735/3/2
f 735/3/2 732/3/2 736/3/2
f 733/3/2 734/3/2 737/3/2
f 737/3/2 734/3/2 738/3/2
f 741/3/3 740/3/3 739/3/3
f 742/3/3 740/3/3 741/3/3
f 745/3/3 744/3/3 743/3/3
f 746/3/3 744/3/3 745/3/3
f 750/5/3 748/5/3 747/5/3
f 751/5/3 748/5/3 750/5/3
f 754/5/3 750/5/3 749/5/3
f 757/5/3 753/5/3 752/5/3
f 758/5/3 754/5/3 749/5/3
f 758/3/3 755/3/3 754/3/3
f 759/6/3 756/6/3 755/6/3
f 759/3/3 755/3/3 758/3/3
f 760/3/3 757/3/3 756/3/3
f 760/6/3 756/6/3 759/6/3
f 761/5/3 753/5/3 757/5/3
f 761/3/3 757/3/3 760/3/3
f 762/5/3 758/5/3 749/5/3
f 765/5/3 753/5/3 761/5/3
f 766/5/3 762/5/3 749/5/3
f 766/3/3 763/3/3 762/3/3
f 767/6/3 764/6/3 763/6/3
f 767/3/3 763/3/3 766/3/3
f 768/3/3 765/3/3 764/3/3
f 768/6/3 764/6/3 767/6/3
f 769/5/3 753/5/3 765/5/3
f 769/3/3 765/3/3 768/3/3
f 770/5/3 766/5/3 749/5/3
f 773/5/3 753/5/3 769/5/3
f 774/5/3 770/5/3 749/5/3
f 774/3/3 771/3/3 770/3/3
f 775/6/3 772/6/3 771/6/3
f 775/3/3 771/3/3 774/3/3
f 776/3/3 773/3/3 772/3/3
f 776/6/3 772/6/3 775/6/3
f 777/5/3 753/5/3 773/5/3
f 777/3/3 773/3/3 776/3/3
f 778/5/3 774/5/3 749/5/3
f 781/5/3 753/5/3 777/5/3
f 782/5/3 778/5/3 749/5/3
f 782/3/3 779/3/3 778/3/3
f 783/6/3 780/6/3 779/6/3
f 783/3/3 779/3/3 782/3/3
f 784/3/3 781/3/3 780/3/3
f 784/6/3 780/6/3 783/6/3
f 785/5/3 753/5/3 781/5/3
f 785/3/3 781/3/3 784/3/3
f 786/5/3 782/5/3 749/5/3
f 789/5/3 753/5/3 785/5/3
f 790/5/3 786/5/3 749/5/3
f 790/3/3 787/3/3 786/3/3
f 791/6/3 788/6/3 787/6/3
f 791/3/3 787/3/3 790/3/3
f 792/3/3 789/3/3 788/3/3
f 792/6/3 788/6/3 791/6/3
f 793/5/3 753/5/3 789/5/3
f 793/3/3 789/3/3 792/3/3
f 794/5/3 790/5/3 749/5/3
f 797/5/3 753/5/3 793/5/3
f 798/5/3 794/5/3 749/5/3
f 798/3/3 795/3/3 794/3/3
f 799/6/3 796/6/3 795/6/3
f 799/3/3 795/3/3 798/3/3
f 800/3/3 797/3/3 796/3/3
f 800/6/3 796/6/3 799/6/3
f 801/5/3 753/5/3 797/5/3
f 801/3/3 797/3/3 800/3/3
f 802/5/3 753/5/3 801/5/3
f 803/5/3 753/5/3 802/5/3
f 804/5/3 798/5/3 749/5/3
f 805/5/3 798/5/3 804/5/3
f 807/5/3 806/5/3 805/5/3
f 808/5/3 806/5/3 807/5/3
f 813/5/3 810/5/3 809/5/3
f 814/5/3 810/5/3 813/5/3
f 815/1/3 812/1/3 811/1/3
f 816/1/3 812/1/3 815/1/3
f 817/1/3 812/1/3 816/1/3
f 821/1/3 819/1/3 818/1/3
f 821/1/3 820/1/3 819/1/3
f 822/1/3 820/1/3 821/1/3
f 823/1/3 820/1/3 822/1/3
f 827/1/3 825/1/3 824/1/3
f 827/1/3 826/1/3 825/1/3
f 828/1/3 826/1/3 827/1/3
f 830/4/3 828/4/3 827/4/3
f 830/4/3 829/4/3 828/4/3
f 831/4/3 829/4/3 830/4/3
f 832/4/3 829/4/3 831/4/3
f 836/4/3 834/4/3 833/4/3
f 836/4/3 835/4/3 834/4/3
f 837/4/3 835/4/3 836/4/3
f 838/4/3 835/4/3 837/4/3
f 842/4/3 840/4/3 839/4/3
f 842/4/3 841/4/3 840/4/3
f 843/4/3 841/4/3 842/4/3
f 844/4/3 841/4/3 843/4/3
f 848/4/3 846/4/3 845/4/3
f 848/4/3 847/4/3 846/4/3
f 849/4/3 847/4/3 848/4/3
f 850/4/3 847/4/3 849/4/3
f 854/4/3 852/4/3 851/4/3
f 854/4/3 853/4/3 852/4/3
f 855/4/3 853/4/3 854/4/3
f 858/5/3 857/5/3 856/5/3
f 859/5/3 857/5/3 858/5/3
f 863/5/3 861/5/3 860/5/3
f 864/5/3 861/5/3 863/5/3
f 866/5/3 863/5/3 862/5/3
f 867/3/3 864/3/3 863/3/3
f 867/5/3 863/5/3 866/5/3
f 868/5/3 865/5/3 864/5/3
f 868/3/3 864/3/3 867/3/3
f 869/5/3 865/5/3 868/5/3
f 870/5/3 865/5/3 869/5/3
f 871/5/3 868/5/3 867/5/3
f 871/5/3 869/5/3 868/5/3
f 872/5/3 869/5/3 871/5/3
f 873/5/3 869/5/3 872/5/3
f 874/5/3 869/5/3 873/5/3
f 875/2/3 874/2/3 873/2/3
f 876/2/3 874/2/3 875/2/3
f 880/5/3 878/5/3 877/5/3
f 881/3/3 879/3/3 878/3/3
f 881/5/3 878/5/3 880/5/3
f 882/3/3 879/3/3 881/3/3
f 885/4/3 884/4/3 883/4/3
f 886/4/3 884/4/3 885/4/3
f 890/5/3 888/5/3 887/5/3
f 891/3/3 889/3/3 888/3/3
f 891/5/3 888/5/3 890/5/3
f 892/3/3 889/3/3 891/3/3
f 896/5/3 894/5/3 893/5/3
f 897/5/3 894/5/3 896/5/3
f 899/5/3 896/5/3 895/5/3
f 900/3/3 897/3/3 896/3/3
f 900/5/3 896/5/3 899/5/3
f 901/5/3 898/5/3 897/5/3
f 901/3/3 897/3/3 900/3/3
f 902/5/3 898/5/3 901/5/3
f 903/5/3 898/5/3 902/5/3
f 904/5/3 901/5/3 900/5/3
f 904/5/3 902/5/3 901/5/3
f 905/5/3 902/5/3 904/5/3
f 906/5/3 902/5/3 905/5/3
f 907/5/3 902/5/3 906/5/3
f 908/2/3 907/2/3 906/2/3
f 909/2/3 907/2/3 908/2/3
f 914/1/3 911/1/3 910/1/3
f 915/1/3 911/1/3 914/1/3
f 916/5/3 913/5/3 912/5/3
f 917/5/3 913/5/3 916/5/3
f 920/5/3 919/5/3 918/5/3
f 921/5/3 919/5/3 920/5/3
f 924/5/3 923/5/3 922/5/3
f 925/5/3 923/5/3 924/5/3
f 928/1/3 927/1/3 926/1/3
f 929/1/3 927/1/3 928/1/3
f 937/1/3 930/1/3 929/1/3
f 938/1/3 930/1/3 937/1/3
f 939/5/3 932/5/3 931/5/3
f 940/5/3 932/5/3 939/5/3
f 941/3/3 934/3/3 933/3/3
f 942/5/3 935/5/3 934/5/3
f 942/3/3 934/3/3 941/3/3
f 943/5/3 935/5/3 942/5/3
f 944/1/3 937/1/3 936/1/3
f 945/1/3 937/1/3 944/1/3
f 951/5/3 947/5/3 946/5/3
f 952/5/3 947/5/3 951/5/3
f 953/3/3 949/3/3 948/3/3
f 954/5/3 950/5/3 949/5/3
f 954/3/3 949/3/3 953/3/3
f 955/5/3 950/5/3 954/5/3
f 958/4/3 957/4/3 956/4/3
f 959/4/3 957/4/3 958/4/3
f 962/5/3 961/5/3 960/5/3
f 963/5/3 961/5/3 962/5/3
f 966/5/3 965/5/3 964/5/3
f 967/5/3 965/5/3 966/5/3
f 970/5/3 969/5/3 968/5/3
f 971/5/3 969/5/3 970/5/3
f 974/5/3 973/5/3 972/5/3
f 975/5/3 973/5/3 974/5/3
f 978/5/3 977/5/3 976/5/3
f 979/5/3 977/5/3 978/5/3
f 982/5/3 981/5/3 980/5/3
f 983/5/3 981/5/3 982/5/3
f 986/5/3 985/5/3 984/5/3
f 987/5/3 985/5/3 986/5/3
f 990/5/3 989/5/3 988/5/3
f 991/5/3 989/5/3 990/5/3
f 996/5/3 993/5/3 992/5/3
f 997/3/3 994/3/3 993/3/3
f 997/5/3 993/5/3 996/5/3
f 998/5/3 995/5/3 994/5/3
f 998/3/3 994/3/3 997/3/3
f 999/5/3 995/5/3 998/5/3
f 1004/5/3 1001/5/3 1000/5/3
f 1005/3/3 1002/3/3 1001/3/3
f 1005/5/3 1001/5/3 1004/5/3
f 1006/5/3 1003/5/3 1002/5/3
f 1006/3/3 1002/3/3 1005/3/3
f 1007/5/3 1003/5/3 1006/5/3
f 1011/3/3 1009/3/3 1008/3/3
f 1012/3/3 1009/3/3 1011/3/3
f 1015/3/3 1011/3/3 1010/3/3
f 1015/3/3 1012/3/3 1011/3/3
f 1015/3/3 1013/3/3 1012/3/3
f 1016/3/3 1013/3/3 1015/3/3
f 1017/3/3 1013/3/3 1016/3/3
f 1018/5/3 1014/5/3 1013/5/3
f 1018/3/3 1013/3/3 1017/3/3
f 1019/5/3 1014/5/3 1018/5/3
f 1020/3/3 1017/3/3 1016/3/3
f 1021/3/3 1017/3/3 1020/3/3
f 1022/5/3 1014/5/3 1019/5/3
f 1023/5/3 1014/5/3 1022/5/3
f 1026/5/3 1025/5/3 1024/5/3
f 1027/5/3 1025/5/3 1026/5/3
f 1030/5/3 1029/5/3 1028/5/3
f 1031/5/3 1029/5/3 1030/5/3
f 1036/5/3 1033/5/3 1032/5/3
f 1037/5/3 1033/5/3 1036/5/3
f 1039/3/3 1035/3/3 1034/3/3
f 1040/3/3 1035/3/3 1039/3/3
f 1044/3/3 1039/3/3 1038/3/3
f 1044/3/3 1040/3/3 1039/3/3
f 1044/3/3 1041/3/3 1040/3/3
f 1045/3/3 1041/3/3 1044/3/3
f 1046/3/3 1041/3/3 1045/3/3
f 1047/5/3 1043/5/3 1042/5/3
f 1047/3/3 1041/3/3 1046/3/3
f 1047/5/3 1042/5/3 1041/5/3
f 1048/5/3 1043/5/3 1047/5/3
f 1049/3/3 1046/3/3 1045/3/3
f 1050/3/3 1046/3/3 1049/3/3
f 1053/5/3 1052/5/3 1051/5/3
f 1054/5/3 1052/5/3 1053/5/3
f 1055/5/3 1052/5/3 1054/5/3
f 1056/2/3 1055/2/3 1054/2/3
f 1057/2/3 1055/2/3 1056/2/3
f 1060/5/3 1059/5/3 1058/5/3
f 1061/5/3 1059/5/3 1060/5/3
f 1064/5/3 1063/5/3 1062/5/3
f 1065/5/3 1063/5/3 1064/5/3
f 1068/5/3 1067/5/3 1066/5/3
f 1069/5/3 1067/5/3 1068/5/3
f 1070/5/3 1067/5/3 1069/5/3
f 1071/2/3 1070/2/3 1069/2/3
f 1072/2/3 1070/2/3 1071/2/3
f 1075/3/3 1074/3/3 1073/3/3
f 1076/3/3 1074/3/3 1075/3/3
f 1079/5/3 1078/5/3 1077/5/3
f 1080/5/3 1078/5/3 1079/5/3
f 1085/5/3 1082/5/3 1081/5/3
f 1086/6/3 1084/6/3 1083/6/3
f 1087/3/3 1085/3/3 1084/3/3
f 1087/6/3 1084/6/3 1086/6/3
f 1088/5/3 1082/5/3 1085/5/3
f 1088/3/3 1085/3/3 1087/3/3
f 1091/5/3 1082/5/3 1088/5/3
f 1092/6/3 1090/6/3 1089/6/3
f 1093/3/3 1091/3/3 1090/3/3
f 1093/6/3 1090/6/3 1092/6/3
f 1094/5/3 1082/5/3 1091/5/3
f 1094/3/3 1091/3/3 1093/3/3
f 1096/5/3 1082/5/3 1094/5/3
f 1097/3/3 1096/3/3 1095/3/3
f 1098/5/3 1082/5/3 1096/5/3
f 1098/3/3 1096/3/3 1097/3/3
f 1100/5/3 1082/5/3 1098/5/3
f 1101/3/3 1100/3/3 1099/3/3
f 1102/5/3 1082/5/3 1100/5/3
f 1102/3/3 1100/3/3 1101/3/3
f 1104/5/3 1082/5/3 1102/5/3
f 1105/3/3 1104/3/3 1103/3/3
f 1106/5/3 1082/5/3 1104/5/3
f 1106/3/3 1104/3/3 1105/3/3
f 1108/5/3 1082/5/3 1106/5/3
f 1109/3/3 1108/3/3 1107/3/3
f 1110/5/3 1082/5/3 1108/5/3
f 1110/3/3 1108/3/3 1109/3/3
f 1111/5/3 1082/5/3 1110/5/3
f 1112/5/3 1082/5/3 1111/5/3
f 1117/5/3 1114/5/3 1113/5/3
f 1118/5/3 1114/5/3 1117/5/3
f 1119/3/3 1116/3/3 1115/3/3
f 1120/3/3 1116/3/3 1119/3/3
f 1121/3/4 1122/3/4 1123/3/4
f 1123/3/4 1122/3/4 1124/3/4
f 1125/5/4 1126/5/4 1127/5/4
f 1127/5/4 1126/5/4 1128/5/4
f 1129/5/4 1130/5/4 1133/5/4
f 1131/6/4 1132/6/4 1134/6/4
f 1132/3/4 1133/3/4 1135/3/4
f 1134/6/4 1132/6/4 1135/6/4
f 1133/5/4 1130/5/4 1136/5/4
f 1135/3/4 1133/3/4 1136/3/4
f 1136/5/4 1130/5/4 1139/5/4
f 1137/6/4 1138/6/4 1140/6/4
f 1138/3/4 1139/3/4 1141/3/4
f 1140/6/4 1138/6/4 1141/6/4
f 1139/5/4 1130/5/4 1142/5/4
f 1141/3/4 1139/3/4 1142/3/4
f 1142/5/4 1130/5/4 1144/5/4
f 1143/3/4 1144/3/4 1145/3/4
f 1144/5/4 1130/5/4 1146/5/4
f 1145/3/4 1144/3/4 1146/3/4
f 1146/5/4 1130/5/4 1148/5/4
f 1147/3/4 1148/3/4 1149/3/4
f 1148/5/4 1130/5/4 1150/5/4
f 1149/3/4 1148/3/4 1150/3/4
f 1150/5/4 1130/5/4 1152/5/4
f 1151/3/4 1152/3/4 1153/3/4
f 1152/5/4 1130/5/4 1154/5/4
f 1153/3/4 1152/3/4 1154/3/4
f 1154/5/4 1130/5/4 1156/5/4
f 1155/3/4 1156/3/4 1157/3/4
f 1156/5/4 1130/5/4 1158/5/4
f 1157/3/4 1156/3/4 1158/3/4
f 1158/5/4 1130/5/4 1159/5/4
f 1159/5/4 1130/5/4 1160/5/4
f 1161/5/4 1162/5/4 1165/5/4
f 1165/5/4 1162/5/4 1166/5/4
f 1163/3/4 1164/3/4 1167/3/4
f 1167/3/4 1164/3/4 1168/3/4
f 1169/5/4 1170/5/4 1171/5/4
f 1171/5/4 1170/5/4 1172/5/4
f 1172/5/4 1170/5/4 1173/5/4
f 1172/2/4 1173/2/4 1174/2/4
f 1174/2/4 1173/2/4 1175/2/4
f 1176/5/4 1177/5/4 1178/5/4
f 1178/5/4 1177/5/4 1179/5/4
f 1180/5/4 1181/5/4 1182/5/4
f 1182/5/4 1181/5/4 1183/5/4
f 1184/5/4 1185/5/4 1186/5/4
f 1186/5/4 1185/5/4 1187/5/4
f 1187/5/4 1185/5/4 1188/5/4
f 1187/2/4 1188/2/4 1189/2/4
f 1189/2/4 1188/2/4 1190/2/4
f 1191/3/4 1192/3/4 1194/3/4
f 1194/3/4 1192/3/4 1195/3/4
f 1193/3/4 1194/3/4 1198/3/4
f 1194/3/4 1195/3/4 1198/3/4
f 1195/3/4 1196/3/4 1198/3/4
f 1198/3/4 1196/3/4 1199/3/4
f 1199/3/4 1196/3/4 1200/3/4
f 1196/5/4 1197/5/4 1201/5/4
f 1200/3/4 1196/3/4 1201/3/4
f 1201/5/4 1197/5/4 1202/5/4
f 1199/3/4 1200/3/4 1203/3/4
f 1203/3/4 1200/3/4 1204/3/4
f 1202/5/4 1197/5/4 1205/5/4
f 1205/5/4 1197/5/4 1206/5/4
f 1207/5/4 1208/5/4 1209/5/4
f 1209/5/4 1208/5/4 1210/5/4
f 1211/5/4 1212/5/4 1213/5/4
f 1213/5/4 1212/5/4 1214/5/4
f 1215/5/4 1216/5/4 1219/5/4
f 1219/5/4 1216/5/4 1220/5/4
f 1217/3/4 1218/3/4 1222/3/4
f 1222/3/4 1218/3/4 1223/3/4
f 1221/3/4 1222/3/4 1227/3/4
f 1222/3/4 1223/3/4 1227/3/4
f 1223/3/4 1224/3/4 1227/3/4
f 1227/3/4 1224/3/4 1228/3/4
f 1228/3/4 1224/3/4 1229/3/4
f 1225/5/4 1226/5/4 1230/5/4
f 1229/3/4 1224/3/4 1230/3/4
f 1224/5/4 1225/5/4 1230/5/4
f 1230/5/4 1226/5/4 1231/5/4
f 1228/3/4 1229/3/4 1232/3/4
f 1232/3/4 1229/3/4 1233/3/4
f 1234/5/4 1235/5/4 1238/5/4
f 1235/3/4 1236/3/4 1239/3/4
f 1238/5/4 1235/5/4 1239/5/4
f 1236/5/4 1237/5/4 1240/5/4
f 1239/3/4 1236/3/4 1240/3/4
f 1240/5/4 1237/5/4 1241/5/4
f 1242/5/4 1243/5/4 1246/5/4
f 1243/3/4 1244/3/4 1247/3/4
f 1246/5/4 1243/5/4 1247/5/4
f 1244/5/4 1245/5/4 1248/5/4
f 1247/3/4 1244/3/4 1248/3/4
f 1248/5/4 1245/5/4 1249/5/4
f 1250/5/4 1251/5/4 1252/5/4
f 1252/5/4 1251/5/4 1253/5/4
f 1254/5/4 1255/5/4 1256/5/4
f 1256/5/4 1255/5/4 1257/5/4
f 1258/5/4 1259/5/4 1260/5/4
f 1260/5/4 1259/5/4 1261/5/4
f 1262/5/4 1263/5/4 1264/5/4
f 1264/5/4 1263/5/4 1265/5/4
f 1266/5/4 1267/5/4 1268/5/4
f 1268/5/4 1267/5/4 1269/5/4
f 1270/5/4 1271/5/4 1272/5/4
f 1272/5/4 1271/5/4 1273/5/4
f 1274/4/4 1275/4/4 1276/4/4
f 1276/4/4 1275/4/4 1277/4/4
f 1278/5/4 1279/5/4 1280/5/4
f 1280/5/4 1279/5/4 1281/5/4
f 1282/5/4 1283/5/4 1284/5/4
f 1284/5/4 1283/5/4 1285/5/4
f 1286/1/4 1287/1/4 1288/1/4
f 1288/1/4 1287/1/4 1289/1/4
f 1289/1/4 1290/1/4 1297/1/4
f 1297/1/4 1290/1/4 1298/1/4
f 1291/5/4 1292/5/4 1299/5/4
f 1299/5/4 1292/5/4 1300/5/4
f 1293/3/4 1294/3/4 1301/3/4
f 1294/5/4 1295/5/4 1302/5/4
f 1301/3/4 1294/3/4 1302/3/4
f 1302/5/4 1295/5/4 1303/5/4
f 1296/1/4 1297/1/4 1304/1/4
f 1304/1/4 1297/1/4 1305/1/4
f 1306/4/4 1307/4/4 1308/4/4
f 1308/4/4 1307/4/4 1309/4/4
f 1310/5/4 1311/5/4 1315/5/4
f 1315/5/4 1311/5/4 1316/5/4
f 1312/3/4 1313/3/4 1317/3/4
f 1313/5/4 1314/5/4 1318/5/4
f 1317/3/4 1313/3/4 1318/3/4
f 1318/5/4 1314/5/4 1319/5/4
f 1320/1/4 1321/1/4 1324/1/4
f 1324/1/4 1321/1/4 1325/1/4
f 1322/5/4 1323/5/4 1326/5/4
f 1326/5/4 1323/5/4 1327/5/4
f 1328/5/4 1329/5/4 1330/5/4
f 1330/5/4 1329/5/4 1331/5/4
f 1332/5/4 1333/5/4 1334/5/4
f 1334/5/4 1333/5/4 1335/5/4
f 1336/5/4 1337/5/4 1339/5/4
f 1339/5/4 1337/5/4 1340/5/4
f 1338/5/4 1339/5/4 1342/5/4
f 1339/3/4 1340/3/4 1343/3/4
f 1342/5/4 1339/5/4 1343/5/4
f 1340/5/4 1341/5/4 1344/5/4
f 1343/3/4 1340/3/4 1344/3/4
f 1344/5/4 1341/5/4 1345/5/4
f 1345/5/4 1341/5/4 1346/5/4
f 1343/5/4 1344/5/4 1347/5/4
f 1344/5/4 1345/5/4 1347/5/4
f 1347/5/4 1345/5/4 1348/5/4
f 1348/5/4 1345/5/4 1349/5/4
f 1349/5/4 1345/5/4 1350/5/4
f 1349/2/4 1350/2/4 1351/2/4
f 1351/2/4 1350/2/4 1352/2/4
f 1353/5/4 1354/5/4 1356/5/4
f 1354/3/4 1355/3/4 1357/3/4
f 1356/5/4 1354/5/4 1357/5/4
f 1357/3/4 1355/3/4 1358/3/4
f 1359/5/4 1360/5/4 1362/5/4
f 1360/3/4 1361/3/4 1363/3/4
f 1362/5/4 1360/5/4 1363/5/4
f 1363/3/4 1361/3/4 1364/3/4
f 1365/5/4 1366/5/4 1368/5/4
f 1368/5/4 1366/5/4 1369/5/4
f 1367/5/4 1368/5/4 1371/5/4
f 1368/3/4 1369/3/4 1372/3/4
f 1371/5/4 1368/5/4 1372/5/4
f 1369/5/4 1370/5/4 1373/5/4
f 1372/3/4 1369/3/4 1373/3/4
f 1373/5/4 1370/5/4 1374/5/4
f 1374/5/4 1370/5/4 1375/5/4
f 1372/5/4 1373/5/4 1376/5/4
f 1373/5/4 1374/5/4 1376/5/4
f 1376/5/4 1374/5/4 1377/5/4
f 1377/5/4 1374/5/4 1378/5/4
f 1378/5/4 1374/5/4 1379/5/4
f 1378/2/4 1379/2/4 1380/2/4
f 1380/2/4 1379/2/4 1381/2/4
f 1382/5/4 1383/5/4 1386/5/4
f 1386/5/4 1383/5/4 1387/5/4
f 1384/1/4 1385/1/4 1388/1/4
f 1388/1/4 1385/1/4 1389/1/4
f 1389/1/4 1385/1/4 1390/1/4
f 1391/1/4 1392/1/4 1394/1/4
f 1392/1/4 1393/1/4 1394/1/4
f 1394/1/4 1393/1/4 1395/1/4
f 1395/1/4 1393/1/4 1396/1/4
f 1397/1/4 1398/1/4 1400/1/4
f 1398/1/4 1399/1/4 1400/1/4
f 1400/1/4 1399/1/4 1401/1/4
f 1400/4/4 1401/4/4 1403/4/4
f 1401/4/4 1402/4/4 1403/4/4
f 1403/4/4 1402/4/4 1404/4/4
f 1404/4/4 1402/4/4 1405/4/4
f 1406/4/4 1407/4/4 1409/4/4
f 1407/4/4 1408/4/4 1409/4/4
f 1409/4/4 1408/4/4 1410/4/4
f 1410/4/4 1408/4/4 1411/4/4
f 1412/4/4 1413/4/4 1415/4/4
f 1413/4/4 1414/4/4 1415/4/4
f 1415/4/4 1414/4/4 1416/4/4
f 1416/4/4 1414/4/4 1417/4/4
f 1418/4/4 1419/4/4 1421/4/4
f 1419/4/4 1420/4/4 1421/4/4
f 1421/4/4 1420/4/4 1422/4/4
f 1422/4/4 1420/4/4 1423/4/4
f 1424/4/4 1425/4/4 1427/4/4
f 1425/4/4 1426/4/4 1427/4/4
f 1427/4/4 1426/4/4 1428/4/4
f 1429/5/4 1430/5/4 1431/5/4
f 1431/5/4 1430/5/4 1432/5/4
f 1433/5/4 1434/5/4 1436/5/4
f 1436/5/4 1434/5/4 1437/5/4
f 1435/5/4 1436/5/4 1440/5/4
f 1438/5/4 1439/5/4 1443/5/4
f 1435/5/4 1440/5/4 1444/5/4
f 1440/3/4 1441/3/4 1444/3/4
f 1441/6/4 1442/6/4 1445/6/4
f 1444/3/4 1441/3/4 1445/3/4
f 1442/3/4 1443/3/4 1446/3/4
f 1445/6/4 1442/6/4 1446/6/4
f 1443/5/4 1439/5/4 1447/5/4
f 1446/3/4 1443/3/4 1447/3/4
f 1435/5/4 1444/5/4 1448/5/4
f 1447/5/4 1439/5/4 1451/5/4
f 1435/5/4 1448/5/4 1452/5/4
f 1448/3/4 1449/3/4 1452/3/4
f 1449/6/4 1450/6/4 1453/6/4
f 1452/3/4 1449/3/4 1453/3/4
f 1450/3/4 1451/3/4 1454/3/4
f 1453/6/4 1450/6/4 1454/6/4
f 1451/5/4 1439/5/4 1455/5/4
f 1454/3/4 1451/3/4 1455/3/4
f 1435/5/4 1452/5/4 1456/5/4
f 1455/5/4 1439/5/4 1459/5/4
f 1435/5/4 1456/5/4 1460/5/4
f 1456/3/4 1457/3/4 1460/3/4
f 1457/6/4 1458/6/4 1461/6/4
f 1460/3/4 1457/3/4 1461/3/4
f 1458/3/4 1459/3/4 1462/3/4
f 1461/6/4 1458/6/4 1462/6/4
f 1459/5/4 1439/5/4 1463/5/4
f 1462/3/4 1459/3/4 1463/3/4
f 1435/5/4 1460/5/4 1464/5/4
f 1463/5/4 1439/5/4 1467/5/4
f 1435/5/4 1464/5/4 1468/5/4
f 1464/3/4 1465/3/4 1468/3/4
f 1465/6/4 1466/6/4 1469/6/4
f 1468/3/4 1465/3/4 1469/3/4
f 1466/3/4 1467/3/4 1470/3/4
f 1469/6/4 1466/6/4 1470/6/4
f 1467/5/4 1439/5/4 1471/5/4
f 1470/3/4 1467/3/4 1471/3/4
f 1435/5/4 1468/5/4 1472/5/4
f 1471/5/4 1439/5/4 1475/5/4
f 1435/5/4 1472/5/4 1476/5/4
f 1472/3/4 1473/3/4 1476/3/4
f 1473/6/4 1474/6/4 1477/6/4
f 1476/3/4 1473/3/4 1477/3/4
f 1474/3/4 1475/3/4 1478/3/4
f 1477/6/4 1474/6/4 1478/6/4
f 1475/5/4 1439/5/4 1479/5/4
f 1478/3/4 1475/3/4 1479/3/4
f 1435/5/4 1476/5/4 1480/5/4
f 1479/5/4 1439/5/4 1483/5/4
f 1435/5/4 1480/5/4 1484/5/4
f 1480/3/4 1481/3/4 1484/3/4
f 1481/6/4 1482/6/4 1485/6/4
f 1484/3/4 1481/3/4 1485/3/4
f 1482/3/4 1483/3/4 1486/3/4
f 1485/6/4 1482/6/4 1486/6/4
f 1483/5/4 1439/5/4 1487/5/4
f 1486/3/4 1483/3/4 1487/3/4
f 1487/5/4 1439/5/4 1488/5/4
f 1488/5/4 1439/5/4 1489/5/4
f 1435/5/4 1484/5/4 1490/5/4
f 1490/5/4 1484/5/4 1491/5/4
f 1491/5/4 1492/5/4 1493/5/4
f 1493/5/4 1492/5/4 1494/5/4
f 1495/3/4 1496/3/4 1497/3/4
f 1497/3/4 1496/3/4 1498/3/4
f 1499/3/4 1500/3/4 1501/3/4
f 1501/3/4 1500/3/4 1502/3/4
f 1507/5/5 1504/5/5 1503/5/5
f 1508/5/5 1504/5/5 1507/5/5
f 1509/5/5 1506/5/5 1505/5/5
f 1510/5/5 1506/5/5 1509/5/5
f 1511/3/5 1508/3/5 1507/3/5
f 1512/3/5 1508/3/5 1511/3/5
f 1513/3/5 1510/3/5 1509/3/5
f 1514/3/5 1510/3/5 1513/3/5
f 1519/3/5 1516/3/5 1515/3/5
f 1520/3/5 1516/3/5 1519/3/5
f 1521/3/5 1518/3/5 1517/3/5
f 1522/3/5 1518/3/5 1521/3/5
f 1523/5/5 1520/5/5 1519/5/5
f 1524/5/5 1520/5/5 1523/5/5
f 1525/5/5 1522/5/5 1521/5/5
f 1526/5/5 1522/5/5 1525/5/5
f 1535/5/5 1528/5/5 1527/5/5
f 1536/5/5 1528/5/5 1535/5/5
f 1537/5/5 1530/5/5 1529/5/5
f 1538/5/5 1530/5/5 1537/5/5
f 1539/5/5 1532/5/5 1531/5/5
f 1540/5/5 1532/5/5 1539/5/5
f 1541/5/5 1534/5/5 1533/5/5
f 1542/5/5 1534/5/5 1541/5/5
f 1543/3/5 1536/3/5 1535/3/5
f 1544/3/5 1536/3/5 1543/3/5
f 1545/3/5 1538/3/5 1537/3/5
f 1546/3/5 1538/3/5 1545/3/5
f 1547/3/5 1540/3/5 1539/3/5
f 1548/3/5 1540/3/5 1547/3/5
f 1549/3/5 1542/3/5 1541/3/5
f 1550/3/5 1542/3/5 1549/3/5
f 1559/3/5 1552/3/5 1551/3/5
f 1560/3/5 1552/3/5 1559/3/5
f 1561/3/5 1554/3/5 1553/3/5
f 1562/3/5 1554/3/5 1561/3/5
f 1563/3/5 1556/3/5 1555/3/5
f 1564/3/5 1556/3/5 1563/3/5
f 1565/3/5 1558/3/5 1557/3/5
f 1566/3/5 1558/3/5 1565/3/5
f 1567/5/5 1560/5/5 1559/5/5
f 1568/5/5 1560/5/5 1567/5/5
f 1569/5/5 1562/5/5 1561/5/5
f 1570/5/5 1562/5/5 1569/5/5
f 1571/5/5 1564/5/5 1563/5/5
f 1572/5/5 1564/5/5 1571/5/5
f 1573/5/5 1566/5/5 1565/5/5
f 1574/5/5 1566/5/5 1573/5/5
f 1585/5/5 1576/5/5 1575/5/5
f 1586/2/5 1577/2/5 1576/2/5
f 1586/5/5 1576/5/5 1585/5/5
f 1587/2/5 1577/2/5 1586/2/5
f 1588/5/5 1583/5/5 1582/5/5
f 1589/2/5 1584/2/5 1583/2/5
f 1589/5/5 1583/5/5 1588/5/5
f 1590/2/5 1584/2/5 1589/2/5
f 1597/5/5 1592/5/5 1591/5/5
f 1598/2/5 1593/2/5 1592/2/5
f 1598/5/5 1592/5/5 1597/5/5
f 1599/2/5 1593/2/5 1598/2/5
f 1600/5/5 1579/5/5 1578/5/5
f 1601/5/5 1579/5/5 1600/5/5
f 1602/5/5 1581/5/5 1580/5/5
f 1603/5/5 1581/5/5 1602/5/5
f 1604/5/5 1595/5/5 1594/5/5
f 1605/2/5 1596/2/5 1595/2/5
f 1605/5/5 1595/5/5 1604/5/5
f 1606/2/5 1596/2/5 1605/2/5
f 1611/5/5 1608/5/5 1607/5/5
f 1614/5/5 1610/5/5 1609/5/5
f 1615/5/5 1612/5/5 1611/5/5
f 1615/5/5 1611/5/5 1607/5/5
f 1616/5/5 1612/5/5 1615/5/5
f 1617/5/5 1614/5/5 1613/5/5
f 1618/5/5 1610/5/5 1614/5/5
f 1618/5/5 1614/5/5 1617/5/5
f 1619/5/5 1615/5/5 1607/5/5
f 1622/5/5 1610/5/5 1618/5/5
f 1623/5/5 1620/5/5 1619/5/5
f 1623/5/5 1619/5/5 1607/5/5
f 1624/5/5 1620/5/5 1623/5/5
f 1625/5/5 1622/5/5 1621/5/5
f 1626/5/5 1610/5/5 1622/5/5
f 1626/5/5 1622/5/5 1625/5/5
f 1627/5/5 1623/5/5 1607/5/5
f 1628/5/5 1623/5/5 1627/5/5
f 1629/5/5 1610/5/5 1626/5/5
f 1630/5/5 1610/5/5 1629/5/5
f 1637/5/5 1632/5/5 1631/5/5
f 1637/5/5 1636/5/5 1635/5/5
f 1637/5/5 1635/5/5 1634/5/5
f 1637/5/5 1634/5/5 1633/5/5
f 1637/5/5 1633/5/5 1632/5/5
f 1638/5/5 1636/5/5 1637/5/5
f 1639/5/5 1636/5/5 1638/5/5
f 1640/5/5 1636/5/5 1639/5/5
f 1641/5/5 1636/5/5 1640/5/5
f 1642/5/5 1636/5/5 1641/5/5
f 1643/5/5 1636/5/5 1642/5/5
f 1644/5/5 1636/5/5 1643/5/5
f 1645/5/5 1636/5/5 1644/5/5
f 1647/5/5 1639/5/5 1638/5/5
f 1648/5/5 1639/5/5 1647/5/5
f 1653/5/5 1645/5/5 1644/5/5
f 1654/5/5 1645/5/5 1653/5/5
f 1655/5/5 1652/5/5 1651/5/5
f 1655/5/5 1647/5/5 1646/5/5
f 1655/5/5 1654/5/5 1653/5/5
f 1655/5/5 1653/5/5 1652/5/5
f 1655/5/5 1648/5/5 1647/5/5
f 1655/5/5 1651/5/5 1650/5/5
f 1655/5/5 1650/5/5 1649/5/5
f 1655/5/5 1649/5/5 1648/5/5
f 1656/5/5 1654/5/5 1655/5/5
f 1657/5/5 1654/5/5 1656/5/5
f 1658/5/5 1654/5/5 1657/5/5
f 1659/5/5 1654/5/5 1658/5/5
f 1660/5/5 1654/5/5 1659/5/5
f 1665/3/5 1662/3/5 1661/3/5
f 1666/3/5 1662/3/5 1665/3/5
f 1667/3/5 1664/3/5 1663/3/5
f 1668/3/5 1664/3/5 1667/3/5
f 1669/3/5 1665/3/5 1661/3/5
f 1670/5/5 1666/5/5 1665/5/5
f 1670/3/5 1665/3/5 1669/3/5
f 1670/5/5 1667/5/5 1666/5/5
f 1670/5/5 1668/5/5 1667/5/5
f 1671/3/5 1664/3/5 1668/3/5
f 1671/5/5 1668/5/5 1670/5/5
f 1672/3/5 1664/3/5 1671/3/5
f 1673/5/5 1671/5/5 1670/5/5
f 1674/5/5 1671/5/5 1673/5/5
f 1675/5/5 1671/5/5 1674/5/5
f 1676/5/5 1671/5/5 1675/5/5
f 1677/5/5 1673/5/5 1670/5/5
f 1678/5/5 1675/5/5 1674/5/5
f 1679/5/5 1675/5/5 1678/5/5
f 1680/5/5 1671/5/5 1676/5/5
f 1681/5/5 1679/5/5 1678/5/5
f 1681/5/5 1680/5/5 1679/5/5
f 1681/5/5 1677/5/5 1670/5/5
f 1681/5/5 1678/5/5 1677/5/5
f 1682/5/5 1680/5/5 1681/5/5
f 1683/5/5 1680/5/5 1682/5/5
f 1684/5/5 1671/5/5 1680/5/5
f 1684/5/5 1680/5/5 1683/5/5
f 1685/5/5 1681/5/5 1670/5/5
f 1686/5/5 1683/5/5 1682/5/5
f 1687/5/5 1683/5/5 1686/5/5
f 1688/5/5 1671/5/5 1684/5/5
f 1690/5/5 1685/5/5 1670/5/5
f 1690/5/5 1688/5/5 1687/5/5
f 1690/5/5 1687/5/5 1686/5/5
f 1690/5/5 1686/5/5 1685/5/5
f 1691/5/5 1671/5/5 1688/5/5
f 1691/5/5 1688/5/5 1690/5/5
f 1693/3/5 1690/3/5 1689/3/5
f 1693/5/5 1691/5/5 1690/5/5
f 1694/5/5 1691/5/5 1693/5/5
f 1695/5/5 1691/5/5 1694/5/5
f 1696/3/5 1692/3/5 1691/3/5
f 1696/5/5 1691/5/5 1695/5/5
f 1697/3/5 1693/3/5 1689/3/5
f 1697/3/5 1694/3/5 1693/3/5
f 1698/3/5 1694/3/5 1697/3/5
f 1699/3/5 1696/3/5 1695/3/5
f 1700/3/5 1692/3/5 1696/3/5
f 1700/3/5 1696/3/5 1699/3/5
f 1715/5/5 1702/5/5 1701/5/5
f 1716/5/5 1702/5/5 1715/5/5
f 1717/5/5 1704/5/5 1703/5/5
f 1718/5/5 1704/5/5 1717/5/5
f 1719/5/5 1706/5/5 1705/5/5
f 1720/5/5 1706/5/5 1719/5/5
f 1721/5/5 1708/5/5 1707/5/5
f 1722/5/5 1708/5/5 1721/5/5
f 1723/5/5 1710/5/5 1709/5/5
f 1724/5/5 1710/5/5 1723/5/5
f 1725/5/5 1712/5/5 1711/5/5
f 1726/5/5 1712/5/5 1725/5/5
f 1727/5/5 1714/5/5 1713/5/5
f 1728/5/5 1714/5/5 1727/5/5
f 1743/5/5 1730/5/5 1729/5/5
f 1744/5/5 1730/5/5 1743/5/5
f 1745/5/5 1732/5/5 1731/5/5
f 1746/5/5 1732/5/5 1745/5/5
f 1747/5/5 1734/5/5 1733/5/5
f 1748/5/5 1734/5/5 1747/5/5
f 1749/5/5 1736/5/5 1735/5/5
f 1750/5/5 1736/5/5 1749/5/5
f 1751/5/5 1738/5/5 1737/5/5
f 1752/5/5 1738/5/5 1751/5/5
f 1753/5/5 1740/5/5 1739/5/5
f 1754/5/5 1740/5/5 1753/5/5
f 1755/5/5 1742/5/5 1741/5/5
f 1756/5/5 1742/5/5 1755/5/5
f 1761/5/5 1758/5/5 1757/5/5
f 1762/5/5 1758/5/5 1761/5/5
f 1763/5/5 1760/5/5 1759/5/5
f 1764/5/5 1760/5/5 1763/5/5
f 1769/5/5 1766/5/5 1765/5/5
f 1770/5/5 1766/5/5 1769/5/5
f 1771/5/5 1768/5/5 1767/5/5
f 1772/5/5 1768/5/5 1771/5/5
f 1773/5/6 1774/5/6 1777/5/6
f 1777/5/6 1774/5/6 1778/5/6
f 1775/5/6 1776/5/6 1781/5/6
f 1781/5/6 1776/5/6 1782/5/6
f 1777/3/6 1778/3/6 1785/3/6
f 1785/3/6 1778/3/6 1786/3/6
f 1779/3/6 1780/3/6 1787/3/6
f 1787/3/6 1780/3/6 1788/3/6
f 1781/3/6 1782/3/6 1789/3/6
f 1789/3/6 1782/3/6 1790/3/6
f 1783/3/6 1784/3/6 1791/3/6
f 1791/3/6 1784/3/6 1792/3/6
f 1793/3/6 1794/3/6 1801/3/6
f 1801/3/6 1794/3/6 1802/3/6
f 1795/3/6 1796/3/6 1803/3/6
f 1803/3/6 1796/3/6 1804/3/6
f 1797/3/6 1798/3/6 1805/3/6
f 1805/3/6 1798/3/6 1806/3/6
f 1799/3/6 1800/3/6 1807/3/6
f 1807/3/6 1800/3/6 1808/3/6
f 1801/5/6 1802/5/6 1809/5/6
f 1809/5/6 1802/5/6 1810/5/6
f 1805/5/6 1806/5/6 1811/5/6
f 1811/5/6 1806/5/6 1812/5/6
f 1813/5/6 1814/5/6 1819/5/6
f 1814/2/6 1815/2/6 1820/2/6
f 1819/5/6 1814/5/6 1820/5/6
f 1820/2/6 1815/2/6 1821/2/6
f 1816/5/6 1817/5/6 1826/5/6
f 1817/2/6 1818/2/6 1827/2/6
f 1826/5/6 1817/5/6 1827/5/6
f 1827/2/6 1818/2/6 1828/2/6
f 1822/5/6 1823/5/6 1829/5/6
f 1824/5/6 1825/5/6 1830/5/6
f 1829/5/6 1823/5/6 1831/5/6
f 1824/5/6 1830/5/6 1832/5/6
f 1831/5/6 1823/5/6 1833/5/6
f 1824/5/6 1832/5/6 1834/5/6
f 1833/5/6 1823/5/6 1835/5/6
f 1824/5/6 1834/5/6 1836/5/6
f 1835/5/6 1823/5/6 1840/5/6
f 1840/5/6 1823/5/6 1841/5/6
f 1824/5/6 1836/5/6 1842/5/6
f 1842/5/6 1836/5/6 1843/5/6
f 1837/5/6 1838/5/6 1847/5/6
f 1838/2/6 1839/2/6 1848/2/6
f 1847/5/6 1838/5/6 1848/5/6
f 1848/2/6 1839/2/6 1849/2/6
f 1844/5/6 1845/5/6 1850/5/6
f 1845/2/6 1846/2/6 1851/2/6
f 1850/5/6 1845/5/6 1851/5/6
f 1851/2/6 1846/2/6 1852/2/6
f 1853/5/6 1854/5/6 1857/5/6
f 1855/5/6 1856/5/6 1860/5/6
f 1857/5/6 1858/5/6 1861/5/6
f 1853/5/6 1857/5/6 1861/5/6
f 1861/5/6 1858/5/6 1862/5/6
f 1859/5/6 1860/5/6 1863/5/6
f 1860/5/6 1856/5/6 1864/5/6
f 1863/5/6 1860/5/6 1864/5/6
f 1853/5/6 1861/5/6 1865/5/6
f 1864/5/6 1856/5/6 1868/5/6
f 1865/5/6 1866/5/6 1869/5/6
f 1853/5/6 1865/5/6 1869/5/6
f 1869/5/6 1866/5/6 1870/5/6
f 1867/5/6 1868/5/6 1871/5/6
f 1868/5/6 1856/5/6 1872/5/6
f 1871/5/6 1868/5/6 1872/5/6
f 1853/5/6 1869/5/6 1873/5/6
f 1873/5/6 1869/5/6 1874/5/6
f 1872/5/6 1856/5/6 1875/5/6
f 1875/5/6 1856/5/6 1876/5/6
f 1877/5/6 1878/5/6 1885/5/6
f 1879/3/6 1880/3/6 1886/3/6
f 1886/3/6 1880/3/6 1887/3/6
f 1881/3/6 1882/3/6 1888/3/6
f 1888/3/6 1882/3/6 1889/3/6
f 1883/5/6 1884/5/6 1890/5/6
f 1888/5/6 1889/5/6 1891/5/6
f 1889/5/6 1890/5/6 1891/5/6
f 1877/5/6 1885/5/6 1891/5/6
f 1886/5/6 1887/5/6 1891/5/6
f 1887/5/6 1888/5/6 1891/5/6
f 1885/5/6 1886/5/6 1891/5/6
f 1891/5/6 1890/5/6 1892/5/6
f 1892/5/6 1890/5/6 1893/5/6
f 1893/5/6 1890/5/6 1894/5/6
f 1894/5/6 1890/5/6 1895/5/6
f 1895/5/6 1890/5/6 1896/5/6
f 1896/5/6 1890/5/6 1897/5/6
f 1897/5/6 1890/5/6 1898/5/6
f 1890/5/6 1884/5/6 1899/5/6
f 1898/5/6 1890/5/6 1899/5/6
f 1899/5/6 1884/5/6 1900/5/6
f 1892/5/6 1893/5/6 1902/5/6
f 1902/5/6 1893/5/6 1903/5/6
f 1898/5/6 1899/5/6 1908/5/6
f 1908/5/6 1899/5/6 1909/5/6
f 1906/5/6 1907/5/6 1911/5/6
f 1909/5/6 1910/5/6 1911/5/6
f 1908/5/6 1909/5/6 1911/5/6
f 1907/5/6 1908/5/6 1911/5/6
f 1901/5/6 1902/5/6 1911/5/6
f 1905/5/6 1906/5/6 1911/5/6
f 1904/5/6 1905/5/6 1911/5/6
f 1903/5/6 1904/5/6 1911/5/6
f 1902/5/6 1903/5/6 1911/5/6
f 1911/5/6 1910/5/6 1912/5/6
f 1912/5/6 1910/5/6 1913/5/6
f 1913/5/6 1910/5/6 1914/5/6
f 1914/5/6 1910/5/6 1915/5/6
f 1915/5/6 1910/5/6 1916/5/6
f 1901/5/6 1911/5/6 1917/5/6
f 1917/5/6 1911/5/6 1918/5/6
f 1912/3/6 1913/3/6 1919/3/6
f 1919/3/6 1913/3/6 1920/3/6
f 1914/3/6 1915/3/6 1921/3/6
f 1921/3/6 1915/3/6 1922/3/6
f 1916/5/6 1910/5/6 1923/5/6
f 1923/5/6 1910/5/6 1924/5/6
f 1925/3/6 1926/3/6 1929/3/6
f 1929/3/6 1926/3/6 1930/3/6
f 1927/3/6 1928/3/6 1943/3/6
f 1943/3/6 1928/3/6 1944/3/6
f 1925/3/6 1929/3/6 1945/3/6
f 1945/3/6 1929/3/6 1946/3/6
f 1930/5/6 1931/5/6 1947/5/6
f 1947/5/6 1931/5/6 1948/5/6
f 1932/5/6 1933/5/6 1949/5/6
f 1949/5/6 1933/5/6 1950/5/6
f 1934/5/6 1935/5/6 1951/5/6
f 1951/5/6 1935/5/6 1952/5/6
f 1952/5/6 1935/5/6 1953/5/6
f 1936/5/6 1937/5/6 1954/5/6
f 1954/5/6 1937/5/6 1955/5/6
f 1938/5/6 1939/5/6 1956/5/6
f 1956/5/6 1939/5/6 1957/5/6
f 1940/5/6 1941/5/6 1958/5/6
f 1958/5/6 1941/5/6 1959/5/6
f 1942/5/6 1943/5/6 1960/5/6
f 1960/5/6 1943/5/6 1961/5/6
f 1944/3/6 1928/3/6 1962/3/6
f 1962/3/6 1928/3/6 1963/3/6
f 1964/3/6 1965/3/6 1983/3/6
f 1966/5/6 1967/5/6 1984/5/6
f 1984/5/6 1967/5/6 1985/5/6
f 1968/5/6 1969/5/6 1986/5/6
f 1986/5/6 1969/5/6 1987/5/6
f 1970/5/6 1971/5/6 1988/5/6
f 1971/5/6 1972/5/6 1988/5/6
f 1988/5/6 1972/5/6 1989/5/6
f 1973/5/6 1974/5/6 1990/5/6
f 1990/5/6 1974/5/6 1991/5/6
f 1975/5/6 1976/5/6 1992/5/6
f 1992/5/6 1976/5/6 1993/5/6
f 1977/5/6 1978/5/6 1994/5/6
f 1994/5/6 1978/5/6 1995/5/6
f 1979/5/6 1980/5/6 1996/5/6
f 1996/5/6 1980/5/6 1997/5/6
f 1981/3/6 1982/3/6 1998/3/6
f 1964/3/6 1983/3/6 1999/3/6
f 1983/3/6 1984/3/6 1999/3/6
f 1999/3/6 1984/3/6 2000/3/6
f 1997/3/6 1998/3/6 2001/3/6
f 1998/3/6 1982/3/6 2002/3/6
f 2001/3/6 1998/3/6 2002/3/6
f 2003/1/6 2004/1/6 2009/1/6
f 2007/1/6 2008/1/6 2009/1/6
f 2006/1/6 2007/1/6 2009/1/6
f 2005/1/6 2006/1/6 2009/1/6
f 2004/1/6 2005/1/6 2009/1/6
f 2009/1/6 2008/1/6 2010/1/6
f 2003/1/6 2009/1/6 2011/1/6
f 2011/1/6 2009/1/6 2012/1/6
f 2003/1/6 2011/1/6 2013/1/6
f 2013/1/6 2011/1/6 2014/1/6
f 2012/1/6 2009/1/6 2015/1/6
f 2015/1/6 2009/1/6 2016/1/6
f 2016/1/6 2009/1/6 2017/1/6
f 2017/1/6 2009/1/6 2018/1/6
f 2016/1/6 2017/1/6 2019/1/6
f 2003/1/6 2013/1/6 2021/1/6
f 2019/1/6 2020/1/6 2024/1/6
f 2016/1/6 2019/1/6 2024/1/6
f 2024/1/6 2020/1/6 2025/1/6
f 2021/1/6 2022/1/6 2027/1/6
f 2025/1/6 2026/1/6 2028/1/6
f 2024/1/6 2025/1/6 2028/1/6
f 2023/1/6 2024/1/6 2028/1/6
f 2021/1/6 2027/1/6 2029/1/6
f 2027/1/6 2028/1/6 2029/1/6
f 2003/1/6 2021/1/6 2029/1/6
f 2029/1/6 2028/1/6 2030/1/6
f 2030/1/6 2028/1/6 2031/1/6
f 2028/1/6 2026/1/6 2032/1/6
f 2031/1/6 2028/1/6 2032/1/6
f 2032/1/6 2026/1/6 2033/1/6
f 2033/1/6 2026/1/6 2034/1/6
f 2037/4/6 2038/4/6 2049/4/6
f 2038/4/6 2039/4/6 2049/4/6
f 2045/4/6 2046/4/6 2049/4/6
f 2044/4/6 2045/4/6 2049/4/6
f 2043/4/6 2044/4/6 2049/4/6
f 2042/4/6 2043/4/6 2049/4/6
f 2041/4/6 2042/4/6 2049/4/6
f 2040/4/6 2041/4/6 2049/4/6
f 2039/4/6 2040/4/6 2049/4/6
f 2050/1/6 2051/1/6 2053/1/6
f 2053/1/6 2051/1/6 2054/1/6
f 2048/4/6 2049/4/6 2057/4/6
f 2035/5/6 2036/5/6 2058/5/6
f 2058/5/6 2036/5/6 2059/5/6
f 2056/4/6 2057/4/6 2060/4/6
f 2046/5/6 2047/5/6 2060/5/6
f 2049/4/6 2046/4/6 2060/4/6
f 2057/4/6 2049/4/6 2060/4/6
f 2060/5/6 2047/5/6 2061/5/6
f 2056/4/6 2060/4/6 2064/4/6
f 2056/4/6 2064/4/6 2066/4/6
f 2066/4/6 2064/4/6 2067/4/6
f 2052/1/6 2053/1/6 2068/1/6
f 2068/1/6 2053/1/6 2069/1/6
f 2054/1/6 2055/1/6 2070/1/6
f 2070/1/6 2055/1/6 2071/1/6
f 2067/4/6 2064/4/6 2072/4/6
f 2072/4/6 2064/4/6 2073/4/6
f 2069/1/6 2070/1/6 2074/1/6
f 2074/1/6 2070/1/6 2075/1/6
f 2062/5/6 2063/5/6 2076/5/6
f 2076/5/6 2063/5/6 2077/5/6
f 2073/4/6 2064/4/6 2078/4/6
f 2078/4/6 2064/4/6 2079/4/6
f 2079/4/6 2064/4/6 2080/4/6
f 2080/4/6 2064/4/6 2081/4/6
f 2081/4/6 2064/4/6 2082/4/6
f 2082/4/6 2064/4/6 2083/4/6
f 2083/4/6 2064/4/6 2084/4/6
f 2084/4/6 2064/4/6 2085/4/6
f 2085/4/6 2064/4/6 2086/4/6
f 2064/5/6 2065/5/6 2087/5/6
f 2086/4/6 2064/4/6 2087/4/6
f 2087/5/6 2065/5/6 2088/5/6
f 2091/5/6 2092/5/6 2095/5/6
f 2095/5/6 2092/5/6 2096/5/6
f 2093/5/6 2094/5/6 2097/5/6
f 2097/5/6 2094/5/6 2098/5/6
f 2099/5/6 2100/5/6 2103/5/6
f 2103/5/6 2100/5/6 2104/5/6
f 2101/5/6 2102/5/6 2105/5/6
f 2105/5/6 2102/5/6 2106/5/6
f 2089/1/6 2090/1/6 2107/1/6
f 2107/1/6 2090/1/6 2108/1/6
f 2109/5/6 2110/5/6 2115/5/6
f 2115/5/6 2110/5/6 2116/5/6
f 2111/5/6 2112/5/6 2117/5/6
f 2117/5/6 2112/5/6 2118/5/6
f 2113/5/6 2114/5/6 2119/5/6
f 2119/5/6 2114/5/6 2120/5/6
f 2121/5/6 2122/5/6 2127/5/6
f 2127/5/6 2122/5/6 2128/5/6
f 2123/5/6 2124/5/6 2129/5/6
f 2129/5/6 2124/5/6 2130/5/6
f 2125/5/6 2126/5/6 2131/5/6
f 2131/5/6 2126/5/6 2132/5/6
f 2133/5/6 2134/5/6 2137/5/6
f 2137/5/6 2134/5/6 2138/5/6
f 2135/5/6 2136/5/6 2139/5/6
f 2139/5/6 2136/5/6 2140/5/6
