# MagicaVoxel @ Ephtracy

# group
o 

# material
mtllib ivRack.mtl
usemtl palette

# normals
vn -1 0 0
vn 1 0 0
vn 0 0 1
vn 0 0 -1
vn 0 -1 0
vn 0 1 0

# texcoords
vt 0.298828 0.5
vt 0.357422 0.5
vt 0.373047 0.5
vt 0.392578 0.5
vt 0.451172 0.5
vt 0.513672 0.5
vt 0.619141 0.5

# verts
v -1 0 0.1
v -1 0 0
v -1 0.2 0.1
v -1 0.2 0
v -0.9 0.2 0.1
v -0.9 0.2 0
v -0.9 0.3 0.1
v -0.9 0.3 0
v -0.3 3 0
v -0.3 3 -0.2
v -0.3 3.6 0
v -0.3 3.6 -0.2
v -0.2 2.8 0.3
v -0.2 2.8 -0.2
v -0.2 2.9 0.3
v -0.2 2.9 -0.2
v -0.2 3.6 0
v -0.2 3.6 -0.2
v -0.2 3.7 0
v -0.2 3.7 -0.2
v -0.2 5.1 0.1
v -0.2 5.1 0
v -0.2 5.3 0.1
v -0.2 5.3 0
v -0.0999999 0.2 0.2
v -0.0999999 0.2 0.1
v -0.0999999 0.2 0
v -0.0999999 0.2 -0.1
v -0.0999999 0.3 0.1
v -0.0999999 0.3 0
v -0.0999999 0.7 0.2
v -0.0999999 0.7 -0.1
v -0.0999999 3.2 0.2
v -0.0999999 3.2 0
v -0.0999999 3.3 0.2
v -0.0999999 3.3 0
v -0.0999999 4.4 -0.1
v -0.0999999 4.4 -0.2
v -0.0999999 5.1 -0.1
v -0.0999999 5.1 -0.2
v 1.19209e-07 0 1.1
v 1.19209e-07 0 0.9
v 1.19209e-07 0 -0.8
v 1.19209e-07 0 -1
v 1.19209e-07 0.2 1.1
v 1.19209e-07 0.2 1
v 1.19209e-07 0.2 0.9
v 1.19209e-07 0.2 0.2
v 1.19209e-07 0.2 -0.1
v 1.19209e-07 0.2 -0.8
v 1.19209e-07 0.2 -0.9
v 1.19209e-07 0.2 -1
v 1.19209e-07 0.3 1
v 1.19209e-07 0.3 0.2
v 1.19209e-07 0.3 -0.1
v 1.19209e-07 0.3 -0.9
v 1.19209e-07 0.7 0.1
v 1.19209e-07 0.7 0
v 1.19209e-07 2.8 0.1
v 1.19209e-07 2.8 0
v 1.19209e-07 2.9 0.1
v 1.19209e-07 2.9 0
v 1.19209e-07 3 0
v 1.19209e-07 3.2 0.1
v 1.19209e-07 3.2 0
v 1.19209e-07 3.3 0.1
v 1.19209e-07 3.3 0
v 1.19209e-07 3.5 0
v 1.19209e-07 3.6 0
v 1.19209e-07 3.7 0
v 1.19209e-07 4.3 -0.1
v 1.19209e-07 4.3 -0.2
v 1.19209e-07 4.4 -0.1
v 1.19209e-07 4.4 -0.2
v 1.19209e-07 5.1 0.3
v 1.19209e-07 5.1 0.2
v 1.19209e-07 5.1 -0.1
v 1.19209e-07 5.1 -0.2
v 1.19209e-07 5.2 0.2
v 1.19209e-07 5.2 0.1
v 1.19209e-07 5.2 0
v 1.19209e-07 5.2 -0.1
v 1.19209e-07 5.3 0.3
v 1.19209e-07 5.3 0.1
v 1.19209e-07 5.3 0
v 1.19209e-07 5.3 -0.2
v 0.2 5.1 0.1
v 0.2 5.1 0
v 0.2 5.2 0.1
v 0.2 5.2 0
v 0.3 3.5 0
v 0.3 3.5 -0.2
v 0.3 3.6 0
v 0.3 3.6 -0.2
v 0.9 0 0.1
v 0.9 0 0
v 0.9 0.2 0.1
v 0.9 0.2 0
v -0.8 0 0.1
v -0.8 0 0
v -0.8 0.2 0.1
v -0.8 0.2 0
v -0.2 3.5 0
v -0.2 3.5 -0.2
v -0.2 3.6 0
v -0.2 3.6 -0.2
v -0.0999999 5.1 0.1
v -0.0999999 5.1 0
v -0.0999999 5.2 0.1
v -0.0999999 5.2 0
v 0.1 0 1.1
v 0.1 0 0.9
v 0.1 0 -0.8
v 0.1 0 -1
v 0.1 0.2 1.1
v 0.1 0.2 1
v 0.1 0.2 0.9
v 0.1 0.2 0.2
v 0.1 0.2 -0.1
v 0.1 0.2 -0.8
v 0.1 0.2 -0.9
v 0.1 0.2 -1
v 0.1 0.3 1
v 0.1 0.3 0.2
v 0.1 0.3 -0.1
v 0.1 0.3 -0.9
v 0.1 0.7 0.1
v 0.1 0.7 0
v 0.1 2.8 0.1
v 0.1 2.8 0
v 0.1 2.9 0.1
v 0.1 2.9 0
v 0.1 3 0
v 0.1 3.2 0.1
v 0.1 3.2 0
v 0.1 3.3 0.1
v 0.1 3.3 0
v 0.1 3.5 0
v 0.1 3.6 0
v 0.1 3.7 0
v 0.1 4.3 -0.1
v 0.1 4.3 -0.2
v 0.1 4.4 -0.1
v 0.1 4.4 -0.2
v 0.1 5.1 0.3
v 0.1 5.1 0.2
v 0.1 5.1 -0.1
v 0.1 5.1 -0.2
v 0.1 5.2 0.2
v 0.1 5.2 0.1
v 0.1 5.2 0
v 0.1 5.2 -0.1
v 0.1 5.3 0.3
v 0.1 5.3 0.1
v 0.1 5.3 0
v 0.1 5.3 -0.2
v 0.2 0.2 0.2
v 0.2 0.2 0.1
v 0.2 0.2 0
v 0.2 0.2 -0.1
v 0.2 0.3 0.1
v 0.2 0.3 0
v 0.2 0.7 0.2
v 0.2 0.7 -0.1
v 0.2 3.2 0.2
v 0.2 3.2 0
v 0.2 3.3 0.2
v 0.2 3.3 0
v 0.2 4.4 -0.1
v 0.2 4.4 -0.2
v 0.2 5.1 -0.1
v 0.2 5.1 -0.2
v 0.3 2.8 0.3
v 0.3 2.8 -0.2
v 0.3 2.9 0.3
v 0.3 2.9 -0.2
v 0.3 3.6 0
v 0.3 3.6 -0.2
v 0.3 3.7 0
v 0.3 3.7 -0.2
v 0.3 5.1 0.1
v 0.3 5.1 0
v 0.3 5.3 0.1
v 0.3 5.3 0
v 0.4 3 0
v 0.4 3 -0.2
v 0.4 3.6 0
v 0.4 3.6 -0.2
v 1 0.2 0.1
v 1 0.2 0
v 1 0.3 0.1
v 1 0.3 0
v 1.1 0 0.1
v 1.1 0 0
v 1.1 0.2 0.1
v 1.1 0.2 0
v 1.19209e-07 0 1.1
v 1.19209e-07 0.2 1.1
v 0.1 0 1.1
v 0.1 0.2 1.1
v 1.19209e-07 0.2 1
v 1.19209e-07 0.3 1
v 0.1 0.2 1
v 0.1 0.3 1
v -0.2 2.8 0.3
v -0.2 2.9 0.3
v 1.19209e-07 5.1 0.3
v 1.19209e-07 5.3 0.3
v 0.1 5.1 0.3
v 0.1 5.3 0.3
v 0.3 2.8 0.3
v 0.3 2.9 0.3
v -0.0999999 0.2 0.2
v -0.0999999 0.7 0.2
v -0.0999999 3.2 0.2
v -0.0999999 3.3 0.2
v 1.19209e-07 0.2 0.2
v 1.19209e-07 0.3 0.2
v 0.1 0.2 0.2
v 0.1 0.3 0.2
v 0.2 0.2 0.2
v 0.2 0.7 0.2
v 0.2 3.2 0.2
v 0.2 3.3 0.2
v -1 0 0.1
v -1 0.2 0.1
v -0.9 0.2 0.1
v -0.9 0.3 0.1
v -0.8 0 0.1
v -0.8 0.2 0.1
v -0.2 5.1 0.1
v -0.2 5.3 0.1
v -0.0999999 0.2 0.1
v -0.0999999 0.3 0.1
v -0.0999999 5.1 0.1
v -0.0999999 5.2 0.1
v 1.19209e-07 0.7 0.1
v 1.19209e-07 2.8 0.1
v 1.19209e-07 2.9 0.1
v 1.19209e-07 3.2 0.1
v 1.19209e-07 3.3 0.1
v 1.19209e-07 5.2 0.1
v 1.19209e-07 5.3 0.1
v 0.1 0.7 0.1
v 0.1 2.8 0.1
v 0.1 2.9 0.1
v 0.1 3.2 0.1
v 0.1 3.3 0.1
v 0.1 5.2 0.1
v 0.1 5.3 0.1
v 0.2 0.2 0.1
v 0.2 0.3 0.1
v 0.2 5.1 0.1
v 0.2 5.2 0.1
v 0.3 5.1 0.1
v 0.3 5.3 0.1
v 0.9 0 0.1
v 0.9 0.2 0.1
v 1 0.2 0.1
v 1 0.3 0.1
v 1.1 0 0.1
v 1.1 0.2 0.1
v -0.3 3 0
v -0.3 3.6 0
v -0.2 3.5 0
v -0.2 3.6 0
v -0.2 3.7 0
v -0.0999999 3.2 0
v -0.0999999 3.3 0
v 1.19209e-07 3 0
v 1.19209e-07 3.2 0
v 1.19209e-07 3.3 0
v 1.19209e-07 3.5 0
v 1.19209e-07 3.6 0
v 1.19209e-07 3.7 0
v 0.1 3 0
v 0.1 3.2 0
v 0.1 3.3 0
v 0.1 3.5 0
v 0.1 3.6 0
v 0.1 3.7 0
v 0.2 3.2 0
v 0.2 3.3 0
v 0.3 3.5 0
v 0.3 3.6 0
v 0.3 3.7 0
v 0.4 3 0
v 0.4 3.6 0
v -0.0999999 4.4 -0.1
v -0.0999999 5.1 -0.1
v 1.19209e-07 4.3 -0.1
v 1.19209e-07 4.4 -0.1
v 1.19209e-07 5.1 -0.1
v 1.19209e-07 5.2 -0.1
v 0.1 4.3 -0.1
v 0.1 4.4 -0.1
v 0.1 5.1 -0.1
v 0.1 5.2 -0.1
v 0.2 4.4 -0.1
v 0.2 5.1 -0.1
v 1.19209e-07 0 -0.8
v 1.19209e-07 0.2 -0.8
v 0.1 0 -0.8
v 0.1 0.2 -0.8
v 1.19209e-07 0 0.9
v 1.19209e-07 0.2 0.9
v 0.1 0 0.9
v 0.1 0.2 0.9
v 1.19209e-07 5.1 0.2
v 1.19209e-07 5.2 0.2
v 0.1 5.1 0.2
v 0.1 5.2 0.2
v -1 0 0
v -1 0.2 0
v -0.9 0.2 0
v -0.9 0.3 0
v -0.8 0 0
v -0.8 0.2 0
v -0.2 5.1 0
v -0.2 5.3 0
v -0.0999999 0.2 0
v -0.0999999 0.3 0
v -0.0999999 5.1 0
v -0.0999999 5.2 0
v 1.19209e-07 0.7 0
v 1.19209e-07 2.8 0
v 1.19209e-07 2.9 0
v 1.19209e-07 3 0
v 1.19209e-07 3.5 0
v 1.19209e-07 3.6 0
v 1.19209e-07 3.7 0
v 1.19209e-07 5.2 0
v 1.19209e-07 5.3 0
v 0.1 0.7 0
v 0.1 2.8 0
v 0.1 2.9 0
v 0.1 3 0
v 0.1 3.5 0
v 0.1 3.6 0
v 0.1 3.7 0
v 0.1 5.2 0
v 0.1 5.3 0
v 0.2 0.2 0
v 0.2 0.3 0
v 0.2 5.1 0
v 0.2 5.2 0
v 0.3 5.1 0
v 0.3 5.3 0
v 0.9 0 0
v 0.9 0.2 0
v 1 0.2 0
v 1 0.3 0
v 1.1 0 0
v 1.1 0.2 0
v -0.0999999 0.2 -0.1
v -0.0999999 0.7 -0.1
v 1.19209e-07 0.2 -0.1
v 1.19209e-07 0.3 -0.1
v 0.1 0.2 -0.1
v 0.1 0.3 -0.1
v 0.2 0.2 -0.1
v 0.2 0.7 -0.1
v -0.3 3 -0.2
v -0.3 3.6 -0.2
v -0.2 2.8 -0.2
v -0.2 2.9 -0.2
v -0.2 3.1 -0.2
v -0.2 3.2 -0.2
v -0.2 3.3 -0.2
v -0.2 3.4 -0.2
v -0.2 3.5 -0.2
v -0.2 3.6 -0.2
v -0.2 3.7 -0.2
v -0.0999999 3.1 -0.2
v -0.0999999 3.2 -0.2
v -0.0999999 4.4 -0.2
v -0.0999999 5.1 -0.2
v 1.19209e-07 3.1 -0.2
v 1.19209e-07 3.2 -0.2
v 1.19209e-07 4.3 -0.2
v 1.19209e-07 4.4 -0.2
v 1.19209e-07 5.1 -0.2
v 1.19209e-07 5.3 -0.2
v 0.1 3.1 -0.2
v 0.1 3.2 -0.2
v 0.1 3.3 -0.2
v 0.1 3.4 -0.2
v 0.1 4.3 -0.2
v 0.1 4.4 -0.2
v 0.1 5.1 -0.2
v 0.1 5.3 -0.2
v 0.2 3.1 -0.2
v 0.2 3.4 -0.2
v 0.2 4.4 -0.2
v 0.2 5.1 -0.2
v 0.3 2.8 -0.2
v 0.3 2.9 -0.2
v 0.3 3.1 -0.2
v 0.3 3.4 -0.2
v 0.3 3.5 -0.2
v 0.3 3.6 -0.2
v 0.3 3.7 -0.2
v 0.4 3 -0.2
v 0.4 3.6 -0.2
v 1.19209e-07 0.2 -0.9
v 1.19209e-07 0.3 -0.9
v 0.1 0.2 -0.9
v 0.1 0.3 -0.9
v 1.19209e-07 0 -1
v 1.19209e-07 0.2 -1
v 0.1 0 -1
v 0.1 0.2 -1
v 1.19209e-07 0 1.1
v 0.1 0 1.1
v 1.19209e-07 0 0.9
v 0.1 0 0.9
v -1 0 0.1
v -0.8 0 0.1
v 0.9 0 0.1
v 1.1 0 0.1
v -1 0 0
v -0.8 0 0
v 0.9 0 0
v 1.1 0 0
v 1.19209e-07 0 -0.8
v 0.1 0 -0.8
v 1.19209e-07 0 -1
v 0.1 0 -1
v 1.19209e-07 0.2 0.9
v 0.1 0.2 0.9
v -0.0999999 0.2 0.2
v 1.19209e-07 0.2 0.2
v 0.1 0.2 0.2
v 0.2 0.2 0.2
v -0.8 0.2 0.1
v -0.0999999 0.2 0.1
v 0.2 0.2 0.1
v 0.9 0.2 0.1
v -0.8 0.2 0
v -0.0999999 0.2 0
v 0.2 0.2 0
v 0.9 0.2 0
v -0.0999999 0.2 -0.1
v 1.19209e-07 0.2 -0.1
v 0.1 0.2 -0.1
v 0.2 0.2 -0.1
v 1.19209e-07 0.2 -0.8
v 0.1 0.2 -0.8
v -0.2 2.8 0.3
v 0.3 2.8 0.3
v 1.19209e-07 2.8 0.1
v 0.1 2.8 0.1
v 1.19209e-07 2.8 0
v 0.1 2.8 0
v -0.2 2.8 -0.2
v 0.3 2.8 -0.2
v -0.3 3 0
v 1.19209e-07 3 0
v 0.1 3 0
v 0.4 3 0
v -0.3 3 -0.2
v 0.4 3 -0.2
v -0.0999999 3.2 0.2
v 0.2 3.2 0.2
v 1.19209e-07 3.2 0.1
v 0.1 3.2 0.1
v -0.0999999 3.2 0
v 1.19209e-07 3.2 0
v 0.1 3.2 0
v 0.2 3.2 0
v -0.2 3.6 0
v 1.19209e-07 3.6 0
v 0.1 3.6 0
v 0.3 3.6 0
v -0.2 3.6 -0.2
v 0.3 3.6 -0.2
v 1.19209e-07 4.3 -0.1
v 0.1 4.3 -0.1
v 1.19209e-07 4.3 -0.2
v 0.1 4.3 -0.2
v -0.0999999 4.4 -0.1
v 1.19209e-07 4.4 -0.1
v 0.1 4.4 -0.1
v 0.2 4.4 -0.1
v -0.0999999 4.4 -0.2
v 1.19209e-07 4.4 -0.2
v 0.1 4.4 -0.2
v 0.2 4.4 -0.2
v 1.19209e-07 5.1 0.3
v 0.1 5.1 0.3
v 1.19209e-07 5.1 0.2
v 0.1 5.1 0.2
v -0.2 5.1 0.1
v -0.0999999 5.1 0.1
v 0.2 5.1 0.1
v 0.3 5.1 0.1
v -0.2 5.1 0
v -0.0999999 5.1 0
v 0.2 5.1 0
v 0.3 5.1 0
v 1.19209e-07 5.2 0.2
v 0.1 5.2 0.2
v -0.0999999 5.2 0.1
v 1.19209e-07 5.2 0.1
v 0.1 5.2 0.1
v 0.2 5.2 0.1
v -0.0999999 5.2 0
v 1.19209e-07 5.2 0
v 0.1 5.2 0
v 0.2 5.2 0
v 1.19209e-07 5.2 -0.1
v 0.1 5.2 -0.1
v 1.19209e-07 0.2 1.1
v 0.1 0.2 1.1
v 1.19209e-07 0.2 1
v 0.1 0.2 1
v -1 0.2 0.1
v -0.9 0.2 0.1
v 1 0.2 0.1
v 1.1 0.2 0.1
v -1 0.2 0
v -0.9 0.2 0
v 1 0.2 0
v 1.1 0.2 0
v 1.19209e-07 0.2 -0.9
v 0.1 0.2 -0.9
v 1.19209e-07 0.2 -1
v 0.1 0.2 -1
v 1.19209e-07 0.3 1
v 0.1 0.3 1
v 1.19209e-07 0.3 0.2
v 0.1 0.3 0.2
v -0.9 0.3 0.1
v -0.0999999 0.3 0.1
v 0.2 0.3 0.1
v 1 0.3 0.1
v -0.9 0.3 0
v -0.0999999 0.3 0
v 0.2 0.3 0
v 1 0.3 0
v 1.19209e-07 0.3 -0.1
v 0.1 0.3 -0.1
v 1.19209e-07 0.3 -0.9
v 0.1 0.3 -0.9
v -0.0999999 0.7 0.2
v 0.2 0.7 0.2
v 1.19209e-07 0.7 0.1
v 0.1 0.7 0.1
v 1.19209e-07 0.7 0
v 0.1 0.7 0
v -0.0999999 0.7 -0.1
v 0.2 0.7 -0.1
v -0.2 2.9 0.3
v 0.3 2.9 0.3
v 1.19209e-07 2.9 0.1
v 0.1 2.9 0.1
v 1.19209e-07 2.9 0
v 0.1 2.9 0
v -0.2 2.9 -0.2
v 0.3 2.9 -0.2
v -0.0999999 3.3 0.2
v 0.2 3.3 0.2
v 1.19209e-07 3.3 0.1
v 0.1 3.3 0.1
v -0.0999999 3.3 0
v 1.19209e-07 3.3 0
v 0.1 3.3 0
v 0.2 3.3 0
v -0.2 3.5 0
v 1.19209e-07 3.5 0
v 0.1 3.5 0
v 0.3 3.5 0
v -0.2 3.5 -0.2
v 0.3 3.5 -0.2
v -0.3 3.6 0
v -0.2 3.6 0
v 0.3 3.6 0
v 0.4 3.6 0
v -0.3 3.6 -0.2
v -0.2 3.6 -0.2
v 0.3 3.6 -0.2
v 0.4 3.6 -0.2
v -0.2 3.7 0
v 1.19209e-07 3.7 0
v 0.1 3.7 0
v 0.3 3.7 0
v -0.2 3.7 -0.2
v 0.3 3.7 -0.2
v -0.0999999 5.1 -0.1
v 1.19209e-07 5.1 -0.1
v 0.1 5.1 -0.1
v 0.2 5.1 -0.1
v -0.0999999 5.1 -0.2
v 1.19209e-07 5.1 -0.2
v 0.1 5.1 -0.2
v 0.2 5.1 -0.2
v 1.19209e-07 5.3 0.3
v 0.1 5.3 0.3
v -0.2 5.3 0.1
v 1.19209e-07 5.3 0.1
v 0.1 5.3 0.1
v 0.3 5.3 0.1
v -0.2 5.3 0
v 1.19209e-07 5.3 0
v 0.1 5.3 0
v 0.3 5.3 0
v 1.19209e-07 5.3 -0.2
v 0.1 5.3 -0.2

# faces
f 3/7/1 2/7/1 1/7/1
f 4/7/1 2/7/1 3/7/1
f 7/6/1 6/6/1 5/6/1
f 8/6/1 6/6/1 7/6/1
f 11/5/1 10/5/1 9/5/1
f 12/5/1 10/5/1 11/5/1
f 15/6/1 14/6/1 13/6/1
f 16/6/1 14/6/1 15/6/1
f 19/5/1 18/5/1 17/5/1
f 20/5/1 18/5/1 19/5/1
f 23/6/1 22/6/1 21/6/1
f 24/6/1 22/6/1 23/6/1
f 29/6/1 26/6/1 25/6/1
f 30/6/1 28/6/1 27/6/1
f 31/6/1 29/6/1 25/6/1
f 31/6/1 30/6/1 29/6/1
f 32/6/1 28/6/1 30/6/1
f 32/6/1 30/6/1 31/6/1
f 35/6/1 34/6/1 33/6/1
f 36/6/1 34/6/1 35/6/1
f 39/2/1 38/2/1 37/2/1
f 40/2/1 38/2/1 39/2/1
f 45/7/1 42/7/1 41/7/1
f 46/7/1 42/7/1 45/7/1
f 47/7/1 42/7/1 46/7/1
f 50/7/1 44/7/1 43/7/1
f 51/7/1 44/7/1 50/7/1
f 52/7/1 44/7/1 51/7/1
f 53/6/1 48/6/1 47/6/1
f 53/6/1 47/6/1 46/6/1
f 54/6/1 48/6/1 53/6/1
f 55/6/1 51/6/1 50/6/1
f 55/6/1 50/6/1 49/6/1
f 56/6/1 51/6/1 55/6/1
f 59/6/1 58/6/1 57/6/1
f 60/6/1 58/6/1 59/6/1
f 63/6/1 62/6/1 61/6/1
f 64/6/1 63/6/1 61/6/1
f 65/6/1 63/6/1 64/6/1
f 68/6/1 67/6/1 66/6/1
f 69/6/1 68/6/1 66/6/1
f 70/6/1 69/6/1 66/6/1
f 73/2/1 72/2/1 71/2/1
f 74/2/1 72/2/1 73/2/1
f 79/6/1 76/6/1 75/6/1
f 80/6/1 70/6/1 66/6/1
f 81/6/1 70/6/1 80/6/1
f 82/6/1 78/6/1 77/6/1
f 83/6/1 79/6/1 75/6/1
f 83/6/1 80/6/1 79/6/1
f 84/6/1 80/6/1 83/6/1
f 85/6/1 82/6/1 81/6/1
f 86/6/1 78/6/1 82/6/1
f 86/6/1 82/6/1 85/6/1
f 89/6/1 88/6/1 87/6/1
f 90/6/1 88/6/1 89/6/1
f 93/5/1 92/5/1 91/5/1
f 94/5/1 92/5/1 93/5/1
f 97/7/1 96/7/1 95/7/1
f 98/7/1 96/7/1 97/7/1
f 99/7/2 100/7/2 101/7/2
f 101/7/2 100/7/2 102/7/2
f 103/5/2 104/5/2 105/5/2
f 105/5/2 104/5/2 106/5/2
f 107/6/2 108/6/2 109/6/2
f 109/6/2 108/6/2 110/6/2
f 111/7/2 112/7/2 115/7/2
f 115/7/2 112/7/2 116/7/2
f 116/7/2 112/7/2 117/7/2
f 113/7/2 114/7/2 120/7/2
f 120/7/2 114/7/2 121/7/2
f 121/7/2 114/7/2 122/7/2
f 117/6/2 118/6/2 123/6/2
f 116/6/2 117/6/2 123/6/2
f 123/6/2 118/6/2 124/6/2
f 120/6/2 121/6/2 125/6/2
f 119/6/2 120/6/2 125/6/2
f 125/6/2 121/6/2 126/6/2
f 127/6/2 128/6/2 129/6/2
f 129/6/2 128/6/2 130/6/2
f 131/6/2 132/6/2 133/6/2
f 131/6/2 133/6/2 134/6/2
f 134/6/2 133/6/2 135/6/2
f 136/6/2 137/6/2 138/6/2
f 136/6/2 138/6/2 139/6/2
f 136/6/2 139/6/2 140/6/2
f 141/2/2 142/2/2 143/2/2
f 143/2/2 142/2/2 144/2/2
f 145/6/2 146/6/2 149/6/2
f 136/6/2 140/6/2 150/6/2
f 150/6/2 140/6/2 151/6/2
f 147/6/2 148/6/2 152/6/2
f 145/6/2 149/6/2 153/6/2
f 149/6/2 150/6/2 153/6/2
f 153/6/2 150/6/2 154/6/2
f 151/6/2 152/6/2 155/6/2
f 152/6/2 148/6/2 156/6/2
f 155/6/2 152/6/2 156/6/2
f 157/6/2 158/6/2 161/6/2
f 159/6/2 160/6/2 162/6/2
f 157/6/2 161/6/2 163/6/2
f 161/6/2 162/6/2 163/6/2
f 162/6/2 160/6/2 164/6/2
f 163/6/2 162/6/2 164/6/2
f 165/6/2 166/6/2 167/6/2
f 167/6/2 166/6/2 168/6/2
f 169/2/2 170/2/2 171/2/2
f 171/2/2 170/2/2 172/2/2
f 173/6/2 174/6/2 175/6/2
f 175/6/2 174/6/2 176/6/2
f 177/5/2 178/5/2 179/5/2
f 179/5/2 178/5/2 180/5/2
f 181/6/2 182/6/2 183/6/2
f 183/6/2 182/6/2 184/6/2
f 185/5/2 186/5/2 187/5/2
f 187/5/2 186/5/2 188/5/2
f 189/6/2 190/6/2 191/6/2
f 191/6/2 190/6/2 192/6/2
f 193/7/2 194/7/2 195/7/2
f 195/7/2 194/7/2 196/7/2
f 199/7/3 198/7/3 197/7/3
f 200/7/3 198/7/3 199/7/3
f 203/6/3 202/6/3 201/6/3
f 204/6/3 202/6/3 203/6/3
f 209/6/3 208/6/3 207/6/3
f 210/6/3 208/6/3 209/6/3
f 211/6/3 206/6/3 205/6/3
f 212/6/3 206/6/3 211/6/3
f 217/6/3 214/6/3 213/6/3
f 218/6/3 214/6/3 217/6/3
f 220/6/3 214/6/3 218/6/3
f 221/6/3 220/6/3 219/6/3
f 222/6/3 214/6/3 220/6/3
f 222/6/3 220/6/3 221/6/3
f 223/6/3 216/6/3 215/6/3
f 224/6/3 216/6/3 223/6/3
f 227/7/3 226/7/3 225/7/3
f 229/7/3 227/7/3 225/7/3
f 230/6/3 228/6/3 227/6/3
f 230/7/3 227/7/3 229/7/3
f 233/6/3 228/6/3 230/6/3
f 234/6/3 228/6/3 233/6/3
f 235/6/3 232/6/3 231/6/3
f 236/6/3 232/6/3 235/6/3
f 242/6/3 232/6/3 236/6/3
f 243/6/3 232/6/3 242/6/3
f 244/6/3 238/6/3 237/6/3
f 245/6/3 238/6/3 244/6/3
f 246/6/3 240/6/3 239/6/3
f 247/6/3 240/6/3 246/6/3
f 248/6/3 242/6/3 241/6/3
f 249/6/3 242/6/3 248/6/3
f 254/6/3 250/6/3 249/6/3
f 255/6/3 254/6/3 253/6/3
f 256/6/3 250/6/3 254/6/3
f 256/6/3 254/6/3 255/6/3
f 258/6/3 252/6/3 251/6/3
f 259/6/3 252/6/3 258/6/3
f 259/7/3 258/7/3 257/7/3
f 260/6/3 252/6/3 259/6/3
f 261/7/3 259/7/3 257/7/3
f 262/7/3 259/7/3 261/7/3
f 265/5/3 264/5/3 263/5/3
f 266/5/3 264/5/3 265/5/3
f 268/5/3 265/5/3 263/5/3
f 269/5/3 265/5/3 268/5/3
f 270/5/3 268/5/3 263/5/3
f 271/5/3 268/5/3 270/5/3
f 272/5/3 265/5/3 269/5/3
f 273/5/3 265/5/3 272/5/3
f 274/5/3 267/5/3 266/5/3
f 275/5/3 267/5/3 274/5/3
f 282/5/3 277/5/3 276/5/3
f 283/5/3 279/5/3 278/5/3
f 284/5/3 279/5/3 283/5/3
f 284/5/3 283/5/3 282/5/3
f 285/5/3 281/5/3 280/5/3
f 286/5/3 281/5/3 285/5/3
f 287/5/3 284/5/3 282/5/3
f 287/5/3 282/5/3 276/5/3
f 287/5/3 285/5/3 284/5/3
f 288/5/3 285/5/3 287/5/3
f 292/2/3 290/2/3 289/2/3
f 293/2/3 290/2/3 292/2/3
f 295/2/3 292/2/3 291/2/3
f 295/2/3 293/2/3 292/2/3
f 296/2/3 293/2/3 295/2/3
f 297/6/3 294/6/3 293/6/3
f 297/2/3 293/2/3 296/2/3
f 298/6/3 294/6/3 297/6/3
f 299/2/3 297/2/3 296/2/3
f 300/2/3 297/2/3 299/2/3
f 303/7/3 302/7/3 301/7/3
f 304/7/3 302/7/3 303/7/3
f 305/7/4 306/7/4 307/7/4
f 307/7/4 306/7/4 308/7/4
f 309/6/4 310/6/4 311/6/4
f 311/6/4 310/6/4 312/6/4
f 313/7/4 314/7/4 315/7/4
f 313/7/4 315/7/4 317/7/4
f 315/6/4 316/6/4 318/6/4
f 317/7/4 315/7/4 318/7/4
f 318/6/4 316/6/4 321/6/4
f 321/6/4 316/6/4 322/6/4
f 319/6/4 320/6/4 323/6/4
f 323/6/4 320/6/4 324/6/4
f 324/6/4 320/6/4 332/6/4
f 332/6/4 320/6/4 333/6/4
f 325/6/4 326/6/4 334/6/4
f 334/6/4 326/6/4 335/6/4
f 327/6/4 328/6/4 336/6/4
f 336/6/4 328/6/4 337/6/4
f 329/6/4 330/6/4 338/6/4
f 338/6/4 330/6/4 339/6/4
f 331/6/4 332/6/4 340/6/4
f 340/6/4 332/6/4 341/6/4
f 341/6/4 342/6/4 346/6/4
f 345/6/4 346/6/4 347/6/4
f 346/6/4 342/6/4 348/6/4
f 347/6/4 346/6/4 348/6/4
f 343/6/4 344/6/4 350/6/4
f 350/6/4 344/6/4 351/6/4
f 349/7/4 350/7/4 351/7/4
f 351/6/4 344/6/4 352/6/4
f 349/7/4 351/7/4 353/7/4
f 353/7/4 351/7/4 354/7/4
f 355/6/4 356/6/4 357/6/4
f 357/6/4 356/6/4 358/6/4
f 358/6/4 356/6/4 360/6/4
f 359/6/4 360/6/4 361/6/4
f 360/6/4 356/6/4 362/6/4
f 361/6/4 360/6/4 362/6/4
f 363/5/4 364/5/4 367/5/4
f 367/5/4 364/5/4 368/5/4
f 368/5/4 364/5/4 369/5/4
f 369/5/4 364/5/4 370/5/4
f 370/5/4 364/5/4 371/5/4
f 371/5/4 364/5/4 372/5/4
f 363/5/4 367/5/4 374/5/4
f 367/4/4 368/4/4 374/4/4
f 368/3/4 369/3/4 375/3/4
f 374/4/4 368/4/4 375/4/4
f 363/5/4 374/5/4 378/5/4
f 374/1/4 375/1/4 378/1/4
f 375/3/4 369/3/4 379/3/4
f 378/1/4 375/1/4 379/1/4
f 376/2/4 377/2/4 381/2/4
f 381/2/4 377/2/4 382/2/4
f 363/5/4 378/5/4 384/5/4
f 378/4/4 379/4/4 384/4/4
f 379/3/4 369/3/4 385/3/4
f 384/4/4 379/4/4 385/4/4
f 369/2/4 370/2/4 386/2/4
f 385/3/4 369/3/4 386/3/4
f 370/5/4 371/5/4 387/5/4
f 386/2/4 370/2/4 387/2/4
f 381/2/4 382/2/4 388/2/4
f 380/2/4 381/2/4 388/2/4
f 388/2/4 382/2/4 389/2/4
f 382/6/4 383/6/4 390/6/4
f 389/2/4 382/2/4 390/2/4
f 390/6/4 383/6/4 391/6/4
f 385/5/4 386/5/4 392/5/4
f 363/5/4 384/5/4 392/5/4
f 384/5/4 385/5/4 392/5/4
f 386/5/4 387/5/4 392/5/4
f 387/5/4 371/5/4 393/5/4
f 392/5/4 387/5/4 393/5/4
f 389/2/4 390/2/4 394/2/4
f 394/2/4 390/2/4 395/2/4
f 365/6/4 366/6/4 396/6/4
f 396/6/4 366/6/4 397/6/4
f 363/5/4 392/5/4 398/5/4
f 392/2/4 393/2/4 398/2/4
f 393/5/4 371/5/4 399/5/4
f 398/2/4 393/2/4 399/2/4
f 399/5/4 371/5/4 400/5/4
f 372/5/4 373/5/4 401/5/4
f 401/5/4 373/5/4 402/5/4
f 399/5/4 400/5/4 403/5/4
f 363/5/4 398/5/4 403/5/4
f 400/5/4 401/5/4 403/5/4
f 398/5/4 399/5/4 403/5/4
f 403/5/4 401/5/4 404/5/4
f 405/6/4 406/6/4 407/6/4
f 407/6/4 406/6/4 408/6/4
f 409/7/4 410/7/4 411/7/4
f 411/7/4 410/7/4 412/7/4
f 415/7/5 414/7/5 413/7/5
f 416/7/5 414/7/5 415/7/5
f 421/7/5 418/7/5 417/7/5
f 422/7/5 418/7/5 421/7/5
f 423/7/5 420/7/5 419/7/5
f 424/7/5 420/7/5 423/7/5
f 427/7/5 426/7/5 425/7/5
f 428/7/5 426/7/5 427/7/5
f 432/6/5 430/6/5 429/6/5
f 433/6/5 430/6/5 432/6/5
f 436/6/5 432/6/5 431/6/5
f 436/6/5 434/6/5 433/6/5
f 436/6/5 433/6/5 432/6/5
f 437/6/5 434/6/5 436/6/5
f 439/6/5 436/6/5 435/6/5
f 439/6/5 438/6/5 437/6/5
f 439/6/5 437/6/5 436/6/5
f 440/6/5 438/6/5 439/6/5
f 441/6/5 438/6/5 440/6/5
f 442/6/5 438/6/5 441/6/5
f 443/6/5 441/6/5 440/6/5
f 444/6/5 441/6/5 443/6/5
f 445/6/5 441/6/5 444/6/5
f 446/6/5 441/6/5 445/6/5
f 447/6/5 445/6/5 444/6/5
f 448/6/5 445/6/5 447/6/5
f 451/6/5 450/6/5 449/6/5
f 452/6/5 450/6/5 451/6/5
f 453/6/5 451/6/5 449/6/5
f 454/6/5 450/6/5 452/6/5
f 455/6/5 453/6/5 449/6/5
f 455/6/5 454/6/5 453/6/5
f 456/6/5 450/6/5 454/6/5
f 456/6/5 454/6/5 455/6/5
f 461/5/5 458/5/5 457/5/5
f 461/5/5 460/5/5 459/5/5
f 461/5/5 459/5/5 458/5/5
f 462/5/5 460/5/5 461/5/5
f 465/6/5 464/6/5 463/6/5
f 466/6/5 464/6/5 465/6/5
f 467/6/5 465/6/5 463/6/5
f 468/6/5 465/6/5 467/6/5
f 469/6/5 464/6/5 466/6/5
f 470/6/5 464/6/5 469/6/5
f 475/5/5 472/5/5 471/5/5
f 475/5/5 474/5/5 473/5/5
f 475/5/5 473/5/5 472/5/5
f 476/5/5 474/5/5 475/5/5
f 479/2/5 478/2/5 477/2/5
f 480/2/5 478/2/5 479/2/5
f 485/2/5 482/2/5 481/2/5
f 486/2/5 482/2/5 485/2/5
f 487/2/5 484/2/5 483/2/5
f 488/2/5 484/2/5 487/2/5
f 491/6/5 490/6/5 489/6/5
f 492/6/5 490/6/5 491/6/5
f 497/6/5 494/6/5 493/6/5
f 498/6/5 494/6/5 497/6/5
f 499/6/5 496/6/5 495/6/5
f 500/6/5 496/6/5 499/6/5
f 504/6/5 502/6/5 501/6/5
f 505/6/5 502/6/5 504/6/5
f 507/6/5 504/6/5 503/6/5
f 508/6/5 504/6/5 507/6/5
f 509/6/5 506/6/5 505/6/5
f 510/6/5 506/6/5 509/6/5
f 511/6/5 509/6/5 508/6/5
f 512/6/5 509/6/5 511/6/5
f 513/7/6 514/7/6 515/7/6
f 515/7/6 514/7/6 516/7/6
f 517/7/6 518/7/6 521/7/6
f 521/7/6 518/7/6 522/7/6
f 519/7/6 520/7/6 523/7/6
f 523/7/6 520/7/6 524/7/6
f 525/7/6 526/7/6 527/7/6
f 527/7/6 526/7/6 528/7/6
f 529/6/6 530/6/6 531/6/6
f 531/6/6 530/6/6 532/6/6
f 533/6/6 534/6/6 537/6/6
f 537/6/6 534/6/6 538/6/6
f 535/6/6 536/6/6 539/6/6
f 539/6/6 536/6/6 540/6/6
f 541/6/6 542/6/6 543/6/6
f 543/6/6 542/6/6 544/6/6
f 545/6/6 546/6/6 547/6/6
f 547/6/6 546/6/6 548/6/6
f 545/6/6 547/6/6 549/6/6
f 548/6/6 546/6/6 550/6/6
f 545/6/6 549/6/6 551/6/6
f 549/6/6 550/6/6 551/6/6
f 550/6/6 546/6/6 552/6/6
f 551/6/6 550/6/6 552/6/6
f 553/6/6 554/6/6 555/6/6
f 555/6/6 554/6/6 556/6/6
f 553/6/6 555/6/6 557/6/6
f 556/6/6 554/6/6 558/6/6
f 553/6/6 557/6/6 559/6/6
f 557/6/6 558/6/6 559/6/6
f 558/6/6 554/6/6 560/6/6
f 559/6/6 558/6/6 560/6/6
f 561/6/6 562/6/6 563/6/6
f 563/6/6 562/6/6 564/6/6
f 561/6/6 563/6/6 565/6/6
f 565/6/6 563/6/6 566/6/6
f 564/6/6 562/6/6 567/6/6
f 567/6/6 562/6/6 568/6/6
f 569/5/6 570/5/6 573/5/6
f 571/5/6 572/5/6 573/5/6
f 570/5/6 571/5/6 573/5/6
f 573/5/6 572/5/6 574/5/6
f 575/5/6 576/5/6 579/5/6
f 579/5/6 576/5/6 580/5/6
f 577/5/6 578/5/6 581/5/6
f 581/5/6 578/5/6 582/5/6
f 583/5/6 584/5/6 587/5/6
f 585/5/6 586/5/6 587/5/6
f 584/5/6 585/5/6 587/5/6
f 587/5/6 586/5/6 588/5/6
f 589/2/6 590/2/6 593/2/6
f 593/2/6 590/2/6 594/2/6
f 591/2/6 592/2/6 595/2/6
f 595/2/6 592/2/6 596/2/6
f 597/6/6 598/6/6 600/6/6
f 600/6/6 598/6/6 601/6/6
f 599/6/6 600/6/6 603/6/6
f 601/6/6 602/6/6 603/6/6
f 600/6/6 601/6/6 603/6/6
f 603/6/6 602/6/6 604/6/6
f 604/6/6 602/6/6 605/6/6
f 605/6/6 602/6/6 606/6/6
f 604/6/6 605/6/6 607/6/6
f 607/6/6 605/6/6 608/6/6
