# MagicaVoxel @ Ephtracy

# group
o 

# material
mtllib medBayDeskDoor.mtl
usemtl palette

# normals
vn -1 0 0
vn 1 0 0
vn 0 0 1
vn 0 0 -1
vn 0 -1 0
vn 0 1 0

# texcoords
vt 0.349609 0.5
vt 0.353516 0.5
vt 0.365234 0.5

# verts
v -0.0999999 0 1
v -0.0999999 0 -0.9
v -0.0999999 0.2 1
v -0.0999999 0.2 -0.5
v -0.0999999 0.3 1
v -0.0999999 0.3 -0.5
v -0.0999999 0.4 1
v -0.0999999 0.4 -1.19209e-07
v -0.0999999 0.5 1
v -0.0999999 0.5 0.0999999
v -0.0999999 0.5 -1.19209e-07
v -0.0999999 0.5 -0.5
v -0.0999999 0.6 0.0999999
v -0.0999999 0.6 -0.5
v -0.0999999 0.6 -0.6
v -0.0999999 0.6 -0.7
v -0.0999999 0.7 1
v -0.0999999 0.7 -1.19209e-07
v -0.0999999 0.8 1
v -0.0999999 0.8 0.0999999
v -0.0999999 0.8 -1.19209e-07
v -0.0999999 0.8 -0.5
v -0.0999999 0.9 0.0999999
v -0.0999999 0.9 -0.5
v -0.0999999 1 1
v -0.0999999 1 -0.5
v -0.0999999 1 -0.6
v -0.0999999 1 -0.7
v -0.0999999 1.1 1
v -0.0999999 1.1 -0.5
v -0.0999999 1.2 1
v -0.0999999 1.2 -0.9
v 7.45058e-08 0 1
v 7.45058e-08 0 -0.9
v 7.45058e-08 0.2 1
v 7.45058e-08 0.2 -0.5
v 7.45058e-08 0.3 1
v 7.45058e-08 0.3 -0.5
v 7.45058e-08 0.4 1
v 7.45058e-08 0.4 -1.19209e-07
v 7.45058e-08 0.5 1
v 7.45058e-08 0.5 0.0999999
v 7.45058e-08 0.5 -1.19209e-07
v 7.45058e-08 0.5 -0.5
v 7.45058e-08 0.6 0.0999999
v 7.45058e-08 0.6 -0.5
v 7.45058e-08 0.6 -0.6
v 7.45058e-08 0.6 -0.7
v 7.45058e-08 0.7 1
v 7.45058e-08 0.7 -1.19209e-07
v 7.45058e-08 0.8 1
v 7.45058e-08 0.8 0.0999999
v 7.45058e-08 0.8 -1.19209e-07
v 7.45058e-08 0.8 -0.5
v 7.45058e-08 0.9 0.0999999
v 7.45058e-08 0.9 -0.5
v 7.45058e-08 1 1
v 7.45058e-08 1 -0.5
v 7.45058e-08 1 -0.6
v 7.45058e-08 1 -0.7
v 7.45058e-08 1.1 1
v 7.45058e-08 1.1 -0.5
v 7.45058e-08 1.2 1
v 7.45058e-08 1.2 -0.9
v -0.0999999 0 1
v -0.0999999 0.2 1
v -0.0999999 0.3 1
v -0.0999999 0.4 1
v -0.0999999 0.5 1
v -0.0999999 0.7 1
v -0.0999999 0.8 1
v -0.0999999 1 1
v -0.0999999 1.1 1
v -0.0999999 1.2 1
v 7.45058e-08 0 1
v 7.45058e-08 0.2 1
v 7.45058e-08 0.3 1
v 7.45058e-08 0.4 1
v 7.45058e-08 0.5 1
v 7.45058e-08 0.7 1
v 7.45058e-08 0.8 1
v 7.45058e-08 1 1
v 7.45058e-08 1.1 1
v 7.45058e-08 1.2 1
v -0.0999999 0.6 -0.7
v -0.0999999 1 -0.7
v 7.45058e-08 0.6 -0.7
v 7.45058e-08 1 -0.7
v -0.0999999 0.6 -0.6
v -0.0999999 1 -0.6
v 7.45058e-08 0.6 -0.6
v 7.45058e-08 1 -0.6
v -0.0999999 0 -0.9
v -0.0999999 1.2 -0.9
v 7.45058e-08 0 -0.9
v 7.45058e-08 1.2 -0.9
v -0.0999999 0 1
v 7.45058e-08 0 1
v -0.0999999 0 -0.9
v 7.45058e-08 0 -0.9
v -0.0999999 1 -0.6
v 7.45058e-08 1 -0.6
v -0.0999999 1 -0.7
v 7.45058e-08 1 -0.7
v -0.0999999 0.6 -0.6
v 7.45058e-08 0.6 -0.6
v -0.0999999 0.6 -0.7
v 7.45058e-08 0.6 -0.7
v -0.0999999 1.2 1
v 7.45058e-08 1.2 1
v -0.0999999 1.2 -0.9
v 7.45058e-08 1.2 -0.9

# faces
f 3/3/1 2/3/1 1/3/1
f 4/3/1 2/3/1 3/3/1
f 5/2/1 4/2/1 3/2/1
f 6/3/1 2/3/1 4/3/1
f 6/2/1 4/2/1 5/2/1
f 7/3/1 6/3/1 5/3/1
f 8/3/1 6/3/1 7/3/1
f 9/1/1 8/1/1 7/1/1
f 10/1/1 8/1/1 9/1/1
f 11/3/1 6/3/1 8/3/1
f 11/1/1 8/1/1 10/1/1
f 12/3/1 2/3/1 6/3/1
f 12/3/1 6/3/1 11/3/1
f 13/1/1 11/1/1 10/1/1
f 13/3/1 10/3/1 9/3/1
f 13/1/1 12/1/1 11/1/1
f 14/3/1 2/3/1 12/3/1
f 14/1/1 12/1/1 13/1/1
f 15/3/1 2/3/1 14/3/1
f 16/3/1 2/3/1 15/3/1
f 17/3/1 13/3/1 9/3/1
f 17/3/1 14/3/1 13/3/1
f 17/3/1 15/3/1 14/3/1
f 18/3/1 15/3/1 17/3/1
f 19/1/1 18/1/1 17/1/1
f 20/1/1 18/1/1 19/1/1
f 21/3/1 15/3/1 18/3/1
f 21/1/1 18/1/1 20/1/1
f 22/3/1 15/3/1 21/3/1
f 23/3/1 20/3/1 19/3/1
f 23/1/1 21/1/1 20/1/1
f 23/1/1 22/1/1 21/1/1
f 24/3/1 15/3/1 22/3/1
f 24/1/1 22/1/1 23/1/1
f 25/3/1 23/3/1 19/3/1
f 25/3/1 24/3/1 23/3/1
f 26/3/1 15/3/1 24/3/1
f 26/3/1 24/3/1 25/3/1
f 27/3/1 15/3/1 26/3/1
f 28/3/1 2/3/1 16/3/1
f 29/2/1 26/2/1 25/2/1
f 30/3/1 27/3/1 26/3/1
f 30/2/1 26/2/1 29/2/1
f 30/3/1 28/3/1 27/3/1
f 31/3/1 30/3/1 29/3/1
f 32/3/1 2/3/1 28/3/1
f 32/3/1 30/3/1 31/3/1
f 32/3/1 28/3/1 30/3/1
f 33/3/2 34/3/2 35/3/2
f 35/3/2 34/3/2 36/3/2
f 35/2/2 36/2/2 37/2/2
f 36/3/2 34/3/2 38/3/2
f 37/2/2 36/2/2 38/2/2
f 37/3/2 38/3/2 39/3/2
f 39/3/2 38/3/2 40/3/2
f 39/1/2 40/1/2 41/1/2
f 41/1/2 40/1/2 42/1/2
f 40/3/2 38/3/2 43/3/2
f 42/1/2 40/1/2 43/1/2
f 38/3/2 34/3/2 44/3/2
f 43/3/2 38/3/2 44/3/2
f 42/1/2 43/1/2 45/1/2
f 41/3/2 42/3/2 45/3/2
f 43/1/2 44/1/2 45/1/2
f 44/3/2 34/3/2 46/3/2
f 45/1/2 44/1/2 46/1/2
f 46/3/2 34/3/2 47/3/2
f 47/3/2 34/3/2 48/3/2
f 41/3/2 45/3/2 49/3/2
f 45/3/2 46/3/2 49/3/2
f 46/3/2 47/3/2 49/3/2
f 49/3/2 47/3/2 50/3/2
f 49/1/2 50/1/2 51/1/2
f 51/1/2 50/1/2 52/1/2
f 50/3/2 47/3/2 53/3/2
f 52/1/2 50/1/2 53/1/2
f 53/3/2 47/3/2 54/3/2
f 51/3/2 52/3/2 55/3/2
f 52/1/2 53/1/2 55/1/2
f 53/1/2 54/1/2 55/1/2
f 54/3/2 47/3/2 56/3/2
f 55/1/2 54/1/2 56/1/2
f 51/3/2 55/3/2 57/3/2
f 55/3/2 56/3/2 57/3/2
f 56/3/2 47/3/2 58/3/2
f 57/3/2 56/3/2 58/3/2
f 58/3/2 47/3/2 59/3/2
f 48/3/2 34/3/2 60/3/2
f 57/2/2 58/2/2 61/2/2
f 58/3/2 59/3/2 62/3/2
f 61/2/2 58/2/2 62/2/2
f 59/3/2 60/3/2 62/3/2
f 61/3/2 62/3/2 63/3/2
f 60/3/2 34/3/2 64/3/2
f 63/3/2 62/3/2 64/3/2
f 62/3/2 60/3/2 64/3/2
f 75/3/3 66/3/3 65/3/3
f 76/2/3 67/2/3 66/2/3
f 76/3/3 66/3/3 75/3/3
f 77/3/3 68/3/3 67/3/3
f 77/2/3 67/2/3 76/2/3
f 78/1/3 69/1/3 68/1/3
f 78/3/3 68/3/3 77/3/3
f 79/3/3 70/3/3 69/3/3
f 79/1/3 69/1/3 78/1/3
f 80/1/3 71/1/3 70/1/3
f 80/3/3 70/3/3 79/3/3
f 81/3/3 72/3/3 71/3/3
f 81/1/3 71/1/3 80/1/3
f 82/2/3 73/2/3 72/2/3
f 82/3/3 72/3/3 81/3/3
f 83/3/3 74/3/3 73/3/3
f 83/2/3 73/2/3 82/2/3
f 84/3/3 74/3/3 83/3/3
f 87/3/3 86/3/3 85/3/3
f 88/3/3 86/3/3 87/3/3
f 89/3/4 90/3/4 91/3/4
f 91/3/4 90/3/4 92/3/4
f 93/3/4 94/3/4 95/3/4
f 95/3/4 94/3/4 96/3/4
f 99/3/5 98/3/5 97/3/5
f 100/3/5 98/3/5 99/3/5
f 103/3/5 102/3/5 101/3/5
f 104/3/5 102/3/5 103/3/5
f 105/3/6 106/3/6 107/3/6
f 107/3/6 106/3/6 108/3/6
f 109/3/6 110/3/6 111/3/6
f 111/3/6 110/3/6 112/3/6
