# MagicaVoxel @ Ephtracy

# group
o 

# material
mtllib medbayWall.mtl
usemtl palette

# normals
vn -1 0 0
vn 1 0 0
vn 0 0 1
vn 0 0 -1
vn 0 -1 0
vn 0 1 0

# texcoords
vt 0.283203 0.5
vt 0.326172 0.5
vt 0.357422 0.5

# verts
v -12.8 0 0.2
v -12.8 0 -0.3
v -12.8 5.3 0.2
v -12.8 5.3 -0.3
v -12.8 6.9 0.2
v -12.8 6.9 -0.3
v -12.8 25.6 0.2
v -12.8 25.6 -0.3
v 12.8 0 0.2
v 12.8 0 -0.3
v 12.8 5.3 0.2
v 12.8 5.3 -0.3
v 12.8 6.9 0.2
v 12.8 6.9 -0.3
v 12.8 25.6 0.2
v 12.8 25.6 -0.3
v -12.8 0 0.2
v -12.8 5.3 0.2
v -12.8 6.9 0.2
v -12.8 25.6 0.2
v 12.8 0 0.2
v 12.8 5.3 0.2
v 12.8 6.9 0.2
v 12.8 25.6 0.2
v -12.8 0 -0.3
v -12.8 5.3 -0.3
v -12.8 6.9 -0.3
v -12.8 25.6 -0.3
v 12.8 0 -0.3
v 12.8 5.3 -0.3
v 12.8 6.9 -0.3
v 12.8 25.6 -0.3
v -12.8 0 0.2
v 12.8 0 0.2
v -12.7 0 0.1
v 12.7 0 0.1
v -12.7 0 -0.2
v 12.7 0 -0.2
v -12.8 0 -0.3
v 12.8 0 -0.3
v -12.8 25.6 0.2
v 12.8 25.6 0.2
v -12.8 25.6 -0.3
v 12.8 25.6 -0.3

# faces
f 3/2/1 2/2/1 1/2/1
f 4/2/1 2/2/1 3/2/1
f 5/3/1 4/3/1 3/3/1
f 6/3/1 4/3/1 5/3/1
f 7/1/1 6/1/1 5/1/1
f 8/1/1 6/1/1 7/1/1
f 9/2/2 10/2/2 11/2/2
f 11/2/2 10/2/2 12/2/2
f 11/3/2 12/3/2 13/3/2
f 13/3/2 12/3/2 14/3/2
f 13/1/2 14/1/2 15/1/2
f 15/1/2 14/1/2 16/1/2
f 21/2/3 18/2/3 17/2/3
f 22/3/3 19/3/3 18/3/3
f 22/2/3 18/2/3 21/2/3
f 23/1/3 20/1/3 19/1/3
f 23/3/3 19/3/3 22/3/3
f 24/1/3 20/1/3 23/1/3
f 25/2/4 26/2/4 29/2/4
f 26/3/4 27/3/4 30/3/4
f 29/2/4 26/2/4 30/2/4
f 27/1/4 28/1/4 31/1/4
f 30/3/4 27/3/4 31/3/4
f 31/1/4 28/1/4 32/1/4
f 35/2/5 34/2/5 33/2/5
f 36/2/5 34/2/5 35/2/5
f 37/2/5 35/2/5 33/2/5
f 37/1/5 36/1/5 35/1/5
f 38/2/5 34/2/5 36/2/5
f 38/1/5 36/1/5 37/1/5
f 39/2/5 37/2/5 33/2/5
f 39/2/5 38/2/5 37/2/5
f 40/2/5 34/2/5 38/2/5
f 40/2/5 38/2/5 39/2/5
f 41/1/6 42/1/6 43/1/6
f 43/1/6 42/1/6 44/1/6
