# MagicaVoxel @ Ephtracy

# group
o 

# material
mtllib medBayDesk2.mtl
usemtl palette

# normals
vn -1 0 0
vn 1 0 0
vn 0 0 1
vn 0 0 -1
vn 0 -1 0
vn 0 1 0

# texcoords
vt 0.349609 0.5
vt 0.353516 0.5
vt 0.482422 0.5

# verts
v -4.5 0 4.2
v -4.5 0 3.8
v -4.5 0.2 4.2
v -4.5 0.2 3.8
v -4.5 1.3 4.2
v -4.5 1.3 3.8
v -4.5 1.4 4.2
v -4.5 1.4 3.8
v -4.5 1.7 4.2
v -4.5 1.7 3.8
v -4.4 0 3.8
v -4.4 0 -3.9
v -4.4 0.2 3.8
v -4.4 0.2 -3.9
v -4.4 1.3 3.8
v -4.4 1.3 -3.9
v -4.4 1.4 3.8
v -4.4 1.4 -3.9
v -4.4 1.6 3.8
v -4.4 1.6 -3.9
v 3.7 0 3.5
v 3.7 0 2.5
v 3.7 0.2 3.5
v 3.7 0.2 2.5
v 3.7 1.2 3.5
v 3.7 1.2 2.6
v 3.7 1.3 3.5
v 3.7 1.3 2.6
v 3.7 1.3 2.5
v 3.7 1.4 3.5
v 3.7 1.4 2.5
v 3.7 1.6 3.5
v 3.7 1.6 2.5
v -4.4 1.6 4.1
v -4.4 1.6 3.8
v -4.4 1.7 4.1
v -4.4 1.7 3.8
v -4.1 0 4.2
v -4.1 0 4.1
v -4.1 0.2 4.2
v -4.1 0.2 4.1
v -4.1 1.3 4.2
v -4.1 1.3 4.1
v -4.1 1.4 4.2
v -4.1 1.4 4.1
v -4.1 1.6 4.1
v -4.1 1.7 4.2
v -4.1 1.7 4.1
v -3.8 0 3.5
v -3.8 0 -3.5
v -3.8 0.2 3.5
v -3.8 0.2 -3.5
v -3.8 1.2 3.5
v -3.8 1.2 -3.5
v -3.8 1.3 3.5
v -3.8 1.3 -3.5
v -3.8 1.4 3.5
v -3.8 1.4 -3.5
v -3.8 1.6 3.5
v -3.8 1.6 -3.5
v -2.9 1.2 2.6
v -2.9 1.2 -3.5
v -2.9 1.3 2.6
v -2.9 1.3 -3.5
v -2.8 0 -3.5
v -2.8 0 -3.9
v -2.8 0.2 -3.5
v -2.8 0.2 -3.9
v -2.8 1.3 -3.5
v -2.8 1.3 -3.9
v -2.8 1.4 -3.5
v -2.8 1.4 -3.9
v -2.8 1.6 -3.5
v -2.8 1.6 -3.9
v 4.1 0 4.1
v 4.1 0 2.5
v 4.1 0.2 4.1
v 4.1 0.2 2.5
v 4.1 1.3 4.1
v 4.1 1.3 2.5
v 4.1 1.4 4.1
v 4.1 1.4 2.5
v 4.1 1.6 4.1
v 4.1 1.6 2.5
v -4.5 0 4.2
v -4.5 0.2 4.2
v -4.5 1.3 4.2
v -4.5 1.4 4.2
v -4.5 1.7 4.2
v -4.1 0 4.2
v -4.1 0.2 4.2
v -4.1 1.3 4.2
v -4.1 1.4 4.2
v -4.1 1.7 4.2
v -4.1 0 4.1
v -4.1 0.2 4.1
v -4.1 1.3 4.1
v -4.1 1.4 4.1
v -4.1 1.6 4.1
v 4.1 0 4.1
v 4.1 0.2 4.1
v 4.1 1.3 4.1
v 4.1 1.4 4.1
v 4.1 1.6 4.1
v -3.8 0 -3.5
v -3.8 0.2 -3.5
v -3.8 1.2 -3.5
v -3.8 1.3 -3.5
v -3.8 1.4 -3.5
v -3.8 1.6 -3.5
v -2.9 1.2 -3.5
v -2.9 1.3 -3.5
v -2.8 0 -3.5
v -2.8 0.2 -3.5
v -2.8 1.3 -3.5
v -2.8 1.4 -3.5
v -2.8 1.6 -3.5
v -4.4 1.6 4.1
v -4.4 1.7 4.1
v -4.1 1.6 4.1
v -4.1 1.7 4.1
v -4.5 0 3.8
v -4.5 0.2 3.8
v -4.5 1.3 3.8
v -4.5 1.4 3.8
v -4.5 1.7 3.8
v -4.4 0 3.8
v -4.4 0.2 3.8
v -4.4 1.3 3.8
v -4.4 1.4 3.8
v -4.4 1.6 3.8
v -4.4 1.7 3.8
v -3.8 0 3.5
v -3.8 0.2 3.5
v -3.8 1.2 3.5
v -3.8 1.3 3.5
v -3.8 1.4 3.5
v -3.8 1.6 3.5
v 3.7 0 3.5
v 3.7 0.2 3.5
v 3.7 1.2 3.5
v 3.7 1.3 3.5
v 3.7 1.4 3.5
v 3.7 1.6 3.5
v -2.9 1.2 2.6
v -2.9 1.3 2.6
v 3.7 1.2 2.6
v 3.7 1.3 2.6
v 3.7 0 2.5
v 3.7 0.2 2.5
v 3.7 1.3 2.5
v 3.7 1.4 2.5
v 3.7 1.6 2.5
v 4.1 0 2.5
v 4.1 0.2 2.5
v 4.1 1.3 2.5
v 4.1 1.4 2.5
v 4.1 1.6 2.5
v -4.4 0 -3.9
v -4.4 0.2 -3.9
v -4.4 1.3 -3.9
v -4.4 1.4 -3.9
v -4.4 1.6 -3.9
v -2.8 0 -3.9
v -2.8 0.2 -3.9
v -2.8 1.3 -3.9
v -2.8 1.4 -3.9
v -2.8 1.6 -3.9
v -4.5 0 4.2
v -4.1 0 4.2
v -4.1 0 4.1
v 4.1 0 4.1
v -4.3 0 4
v 3.7 0 4
v 3.8 0 4
v 3.9 0 4
v -4.5 0 3.8
v -4.4 0 3.8
v -3.8 0 3.6
v 3.7 0 3.6
v 3.8 0 3.6
v 3.9 0 3.6
v -3.9 0 3.5
v -3.8 0 3.5
v 3.7 0 3.5
v 3.8 0 3.5
v 4 0 3.5
v 3.8 0 2.6
v 4 0 2.6
v 3.7 0 2.5
v 4.1 0 2.5
v -3.8 0 -3.5
v -2.8 0 -3.5
v -4.3 0 -3.6
v -3.9 0 -3.6
v -3.8 0 -3.6
v -2.9 0 -3.6
v -4.3 0 -3.7
v -3.9 0 -3.7
v -4.3 0 -3.8
v -3.9 0 -3.8
v -3.8 0 -3.8
v -2.9 0 -3.8
v -4.4 0 -3.9
v -2.8 0 -3.9
v -3.8 1.2 3.5
v 3.7 1.2 3.5
v -2.9 1.2 2.6
v 3.7 1.2 2.6
v -3.8 1.2 -3.5
v -2.9 1.2 -3.5
v -3.8 1.3 3.5
v 3.7 1.3 3.5
v -2.9 1.3 2.6
v 3.7 1.3 2.6
v -3.8 1.3 -3.5
v -2.9 1.3 -3.5
v -4.4 1.6 4.1
v -4.1 1.6 4.1
v 4.1 1.6 4.1
v -4.4 1.6 3.8
v -3.8 1.6 3.5
v 3.7 1.6 3.5
v 3.7 1.6 2.5
v 4.1 1.6 2.5
v -3.8 1.6 -3.5
v -2.8 1.6 -3.5
v -4.4 1.6 -3.9
v -2.8 1.6 -3.9
v -4.5 1.7 4.2
v -4.1 1.7 4.2
v -4.4 1.7 4.1
v -4.1 1.7 4.1
v -4.5 1.7 3.8
v -4.4 1.7 3.8

# faces
f 3/1/1 2/1/1 1/1/1
f 4/1/1 2/1/1 3/1/1
f 5/3/1 4/3/1 3/3/1
f 6/3/1 4/3/1 5/3/1
f 7/2/1 6/2/1 5/2/1
f 8/2/1 6/2/1 7/2/1
f 9/3/1 8/3/1 7/3/1
f 10/3/1 8/3/1 9/3/1
f 13/1/1 12/1/1 11/1/1
f 14/1/1 12/1/1 13/1/1
f 15/3/1 14/3/1 13/3/1
f 16/3/1 14/3/1 15/3/1
f 17/2/1 16/2/1 15/2/1
f 18/2/1 16/2/1 17/2/1
f 19/3/1 18/3/1 17/3/1
f 20/3/1 18/3/1 19/3/1
f 23/1/1 22/1/1 21/1/1
f 24/1/1 22/1/1 23/1/1
f 25/3/1 24/3/1 23/3/1
f 26/3/1 24/3/1 25/3/1
f 28/3/1 24/3/1 26/3/1
f 29/3/1 24/3/1 28/3/1
f 30/2/1 28/2/1 27/2/1
f 30/2/1 29/2/1 28/2/1
f 31/2/1 29/2/1 30/2/1
f 32/3/1 31/3/1 30/3/1
f 33/3/1 31/3/1 32/3/1
f 34/3/2 35/3/2 36/3/2
f 36/3/2 35/3/2 37/3/2
f 38/1/2 39/1/2 40/1/2
f 40/1/2 39/1/2 41/1/2
f 40/3/2 41/3/2 42/3/2
f 42/3/2 41/3/2 43/3/2
f 42/2/2 43/2/2 44/2/2
f 44/2/2 43/2/2 45/2/2
f 44/3/2 45/3/2 46/3/2
f 44/3/2 46/3/2 47/3/2
f 47/3/2 46/3/2 48/3/2
f 49/1/2 50/1/2 51/1/2
f 51/1/2 50/1/2 52/1/2
f 51/3/2 52/3/2 53/3/2
f 53/3/2 52/3/2 54/3/2
f 55/2/2 56/2/2 57/2/2
f 57/2/2 56/2/2 58/2/2
f 57/3/2 58/3/2 59/3/2
f 59/3/2 58/3/2 60/3/2
f 61/3/2 62/3/2 63/3/2
f 63/3/2 62/3/2 64/3/2
f 65/1/2 66/1/2 67/1/2
f 67/1/2 66/1/2 68/1/2
f 67/3/2 68/3/2 69/3/2
f 69/3/2 68/3/2 70/3/2
f 69/2/2 70/2/2 71/2/2
f 71/2/2 70/2/2 72/2/2
f 71/3/2 72/3/2 73/3/2
f 73/3/2 72/3/2 74/3/2
f 75/1/2 76/1/2 77/1/2
f 77/1/2 76/1/2 78/1/2
f 77/3/2 78/3/2 79/3/2
f 79/3/2 78/3/2 80/3/2
f 79/2/2 80/2/2 81/2/2
f 81/2/2 80/2/2 82/2/2
f 81/3/2 82/3/2 83/3/2
f 83/3/2 82/3/2 84/3/2
f 90/1/3 86/1/3 85/1/3
f 91/3/3 87/3/3 86/3/3
f 91/1/3 86/1/3 90/1/3
f 92/2/3 88/2/3 87/2/3
f 92/3/3 87/3/3 91/3/3
f 93/3/3 89/3/3 88/3/3
f 93/2/3 88/2/3 92/2/3
f 94/3/3 89/3/3 93/3/3
f 100/1/3 96/1/3 95/1/3
f 101/3/3 97/3/3 96/3/3
f 101/1/3 96/1/3 100/1/3
f 102/2/3 98/2/3 97/2/3
f 102/3/3 97/3/3 101/3/3
f 103/3/3 99/3/3 98/3/3
f 103/2/3 98/2/3 102/2/3
f 104/3/3 99/3/3 103/3/3
f 111/3/3 107/3/3 106/3/3
f 112/2/3 109/2/3 108/2/3
f 113/1/3 106/1/3 105/1/3
f 114/3/3 112/3/3 111/3/3
f 114/1/3 106/1/3 113/1/3
f 114/3/3 111/3/3 106/3/3
f 115/2/3 109/2/3 112/2/3
f 115/3/3 112/3/3 114/3/3
f 116/3/3 110/3/3 109/3/3
f 116/2/3 109/2/3 115/2/3
f 117/3/3 110/3/3 116/3/3
f 118/3/4 119/3/4 120/3/4
f 120/3/4 119/3/4 121/3/4
f 122/1/4 123/1/4 127/1/4
f 123/3/4 124/3/4 128/3/4
f 127/1/4 123/1/4 128/1/4
f 124/2/4 125/2/4 129/2/4
f 128/3/4 124/3/4 129/3/4
f 125/3/4 126/3/4 130/3/4
f 129/2/4 125/2/4 130/2/4
f 130/3/4 126/3/4 131/3/4
f 131/3/4 126/3/4 132/3/4
f 133/1/4 134/1/4 139/1/4
f 134/3/4 135/3/4 140/3/4
f 139/1/4 134/1/4 140/1/4
f 140/3/4 135/3/4 141/3/4
f 136/2/4 137/2/4 142/2/4
f 137/3/4 138/3/4 143/3/4
f 142/2/4 137/2/4 143/2/4
f 143/3/4 138/3/4 144/3/4
f 145/3/4 146/3/4 147/3/4
f 147/3/4 146/3/4 148/3/4
f 149/1/4 150/1/4 154/1/4
f 150/3/4 151/3/4 155/3/4
f 154/1/4 150/1/4 155/1/4
f 151/2/4 152/2/4 156/2/4
f 155/3/4 151/3/4 156/3/4
f 152/3/4 153/3/4 157/3/4
f 156/2/4 152/2/4 157/2/4
f 157/3/4 153/3/4 158/3/4
f 159/1/4 160/1/4 164/1/4
f 160/3/4 161/3/4 165/3/4
f 164/1/4 160/1/4 165/1/4
f 161/2/4 162/2/4 166/2/4
f 165/3/4 161/3/4 166/3/4
f 162/3/4 163/3/4 167/3/4
f 166/2/4 162/2/4 167/2/4
f 167/3/4 163/3/4 168/3/4
f 171/1/5 170/1/5 169/1/5
f 173/1/5 171/1/5 169/1/5
f 173/1/5 172/1/5 171/1/5
f 174/1/5 172/1/5 173/1/5
f 175/1/5 172/1/5 174/1/5
f 176/1/5 172/1/5 175/1/5
f 177/1/5 173/1/5 169/1/5
f 178/1/5 173/1/5 177/1/5
f 179/3/5 174/3/5 173/3/5
f 180/1/5 175/1/5 174/1/5
f 180/3/5 174/3/5 179/3/5
f 181/3/5 176/3/5 175/3/5
f 181/1/5 175/1/5 180/1/5
f 182/1/5 172/1/5 176/1/5
f 182/3/5 176/3/5 181/3/5
f 183/3/5 179/3/5 173/3/5
f 184/1/5 181/1/5 180/1/5
f 184/3/5 179/3/5 183/3/5
f 184/1/5 180/1/5 179/1/5
f 184/1/5 182/1/5 181/1/5
f 185/1/5 182/1/5 184/1/5
f 186/1/5 182/1/5 185/1/5
f 187/1/5 172/1/5 182/1/5
f 187/1/5 182/1/5 186/1/5
f 188/1/5 186/1/5 185/1/5
f 188/3/5 187/3/5 186/3/5
f 189/1/5 172/1/5 187/1/5
f 189/3/5 187/3/5 188/3/5
f 190/1/5 188/1/5 185/1/5
f 190/1/5 189/1/5 188/1/5
f 191/1/5 172/1/5 189/1/5
f 191/1/5 189/1/5 190/1/5
f 192/1/5 184/1/5 183/1/5
f 194/3/5 183/3/5 173/3/5
f 194/1/5 173/1/5 178/1/5
f 195/1/5 193/1/5 192/1/5
f 195/3/5 183/3/5 194/3/5
f 195/1/5 192/1/5 183/1/5
f 196/1/5 193/1/5 195/1/5
f 197/1/5 193/1/5 196/1/5
f 198/1/5 194/1/5 178/1/5
f 198/1/5 195/1/5 194/1/5
f 198/1/5 196/1/5 195/1/5
f 199/1/5 196/1/5 198/1/5
f 200/1/5 198/1/5 178/1/5
f 200/3/5 199/3/5 198/3/5
f 201/1/5 196/1/5 199/1/5
f 201/3/5 199/3/5 200/3/5
f 202/3/5 197/3/5 196/3/5
f 202/1/5 196/1/5 201/1/5
f 203/1/5 193/1/5 197/1/5
f 203/3/5 197/3/5 202/3/5
f 204/1/5 202/1/5 201/1/5
f 204/1/5 201/1/5 200/1/5
f 204/1/5 203/1/5 202/1/5
f 204/1/5 200/1/5 178/1/5
f 205/1/5 193/1/5 203/1/5
f 205/1/5 203/1/5 204/1/5
f 208/3/5 207/3/5 206/3/5
f 209/3/5 207/3/5 208/3/5
f 210/3/5 208/3/5 206/3/5
f 211/3/5 208/3/5 210/3/5
f 212/3/6 213/3/6 214/3/6
f 214/3/6 213/3/6 215/3/6
f 212/3/6 214/3/6 216/3/6
f 216/3/6 214/3/6 217/3/6
f 218/3/6 219/3/6 221/3/6
f 219/3/6 220/3/6 221/3/6
f 221/3/6 220/3/6 222/3/6
f 222/3/6 220/3/6 223/3/6
f 223/3/6 220/3/6 224/3/6
f 224/3/6 220/3/6 225/3/6
f 221/3/6 222/3/6 226/3/6
f 221/3/6 226/3/6 228/3/6
f 226/3/6 227/3/6 228/3/6
f 228/3/6 227/3/6 229/3/6
f 230/3/6 231/3/6 232/3/6
f 232/3/6 231/3/6 233/3/6
f 230/3/6 232/3/6 234/3/6
f 234/3/6 232/3/6 235/3/6
