# MagicaVoxel @ Ephtracy

# group
o 

# material
mtllib medicalCart.mtl
usemtl palette

# normals
vn -1 0 0
vn 1 0 0
vn 0 0 1
vn 0 0 -1
vn 0 -1 0
vn 0 1 0

# texcoords
vt 0.314453 0.5
vt 0.318359 0.5
vt 0.330078 0.5
vt 0.349609 0.5
vt 0.357422 0.5
vt 0.361328 0.5
vt 0.373047 0.5
vt 0.451172 0.5
vt 0.482422 0.5
vt 0.619141 0.5
vt 0.642578 0.5

# verts
v -3.1 0.1 0.8
v -3.1 0.1 0.7
v -3.1 0.1 -2.3
v -3.1 0.1 -2.4
v -3.1 0.4 0.7
v -3.1 0.4 -2.3
v -3.1 0.5 0.8
v -3.1 0.5 -2.4
v -3 0 0.9
v -3 0 0.6
v -3 0 -2.2
v -3 0 -2.5
v -3 0.1 0.8
v -3 0.1 0.7
v -3 0.1 -2.3
v -3 0.1 -2.4
v -3 0.3 0.9
v -3 0.3 0.8
v -3 0.3 0.7
v -3 0.3 0.6
v -3 0.3 0.5
v -3 0.3 -2.2
v -3 0.3 -2.3
v -3 0.3 -2.4
v -3 0.3 -2.5
v -3 0.3 -2.6
v -3 0.4 0.7
v -3 0.4 0.5
v -3 0.4 -2.4
v -3 0.4 -2.6
v -3 0.5 0.5
v -3 0.5 -0.9
v -3 0.5 -1.6
v -3 0.5 -2
v -3 0.5 -2.1
v -3 0.5 -2.2
v -3 0.6 -1.2
v -3 0.6 -1.3
v -3 0.6 -1.7
v -3 0.6 -1.8
v -3 0.7 -1.2
v -3 0.7 -1.3
v -3 0.7 -1.7
v -3 0.7 -1.8
v -3 0.7 -1.9
v -3 0.8 -1.6
v -3 0.8 -1.8
v -3 0.8 -1.9
v -3 0.8 -2
v -3 2.2 -0.9
v -3 2.2 -2.1
v -3 2.3 0.5
v -3 2.3 -2.2
v -2.9 0.3 0.8
v -2.9 0.3 0.7
v -2.9 0.3 -2.3
v -2.9 0.3 -2.4
v -2.9 0.4 0.8
v -2.9 0.4 0.7
v -2.9 0.4 -2.3
v -2.9 0.4 -2.4
v -2.9 0.5 0.6
v -2.9 0.5 0.5
v -2.9 0.5 -1.1
v -2.9 0.5 -1.4
v -2.9 0.6 -1.2
v -2.9 0.6 -1.3
v -2.9 0.7 -1.2
v -2.9 0.7 -1.3
v -2.9 0.8 -1.1
v -2.9 0.8 -1.4
v -2.9 0.9 -0.9
v -2.9 0.9 -2.1
v -2.9 1 -0.9
v -2.9 1 -2.1
v -2.9 1.7 -0.9
v -2.9 1.7 -2.1
v -2.9 1.8 -0.9
v -2.9 1.8 -2.1
v -2.9 2.3 0.6
v -2.9 2.3 0.5
v -2.8 1.8 -0.9
v -2.8 1.8 -1.3
v -2.8 1.8 -1.7
v -2.8 1.9 -1
v -2.8 1.9 -1.2
v -2.8 1.9 -1.4
v -2.8 1.9 -1.6
v -2.8 2 -1
v -2.8 2 -1.1
v -2.8 2 -1.4
v -2.8 2 -1.5
v -2.8 2.1 -1.1
v -2.8 2.1 -1.2
v -2.8 2.1 -1.5
v -2.8 2.1 -1.6
v -2.8 2.2 -0.9
v -2.8 2.2 -1.3
v -2.8 2.2 -1.7
v -2.8 2.3 -2.1
v -2.8 2.3 -2.2
v -2.8 2.4 -2.1
v -2.8 2.4 -2.2
v -2.7 1.1 -1.1
v -2.7 1.1 -1.2
v -2.7 1.1 -1.5
v -2.7 1.1 -1.6
v -2.7 1.1 -1.9
v -2.7 1.1 -2
v -2.7 1.2 -1.1
v -2.7 1.2 -1.2
v -2.7 1.2 -1.5
v -2.7 1.2 -1.6
v -2.7 1.2 -1.9
v -2.7 1.2 -2
v -2.7 1.9 -1.9
v -2.7 1.9 -2
v -2.7 2 -1.9
v -2.7 2 -2
v -2.7 2.3 0.1
v -2.7 2.3 -0.3
v -2.7 2.4 0.1
v -2.7 2.4 -0.3
v -2.7 2.4 -2.1
v -2.7 2.4 -2.2
v -2.7 2.4 -2.3
v -2.7 2.5 -2.1
v -2.7 2.5 -2.3
v -2.6 1 -1
v -2.6 1 -1.3
v -2.6 1 -1.4
v -2.6 1 -1.7
v -2.6 1 -1.8
v -2.6 1 -2.1
v -2.6 1.1 -1.1
v -2.6 1.1 -1.2
v -2.6 1.1 -1.5
v -2.6 1.1 -1.6
v -2.6 1.1 -1.9
v -2.6 1.1 -2
v -2.6 1.2 -1.1
v -2.6 1.2 -1.2
v -2.6 1.2 -1.5
v -2.6 1.2 -1.6
v -2.6 1.2 -1.9
v -2.6 1.2 -2
v -2.6 1.3 -1
v -2.6 1.3 -1.3
v -2.6 1.3 -1.4
v -2.6 1.3 -1.7
v -2.6 1.3 -1.8
v -2.6 1.3 -2.1
v -2.6 1.8 -1.8
v -2.6 1.8 -2.1
v -2.6 1.9 -1.9
v -2.6 1.9 -2
v -2.6 2 -1.9
v -2.6 2 -2
v -2.6 2.1 -1.8
v -2.6 2.1 -2.1
v -2.6 2.4 -2.3
v -2.6 2.4 -2.4
v -2.6 2.5 -2.3
v -2.6 2.5 -2.4
v -2.4 2.3 -1
v -2.4 2.3 -1.8
v -2.4 2.4 -1.3
v -2.4 2.4 -1.6
v -2.4 2.5 -1.3
v -2.4 2.5 -1.6
v -2.4 2.6 -1
v -2.4 2.6 -1.8
v -2.2 0.5 -1.3
v -2.2 0.5 -1.6
v -2.2 0.8 -1.3
v -2.2 0.8 -1.6
v -2.2 2.6 -1.1
v -2.2 2.6 -1.7
v -2.2 2.7 -1.6
v -2.2 2.7 -1.7
v -2.2 2.8 -1.1
v -2.2 2.8 -1.6
v -2.1 0.5 -0.9
v -2.1 0.5 -1.2
v -2.1 0.8 -0.9
v -2.1 0.8 -1.2
v -1.8 0.5 -1.7
v -1.8 0.5 -2.1
v -1.8 0.7 -1.7
v -1.8 0.7 -2.1
v -1.7 1 -1
v -1.7 1 -1.3
v -1.7 1 -1.4
v -1.7 1 -1.7
v -1.7 1 -1.8
v -1.7 1 -2.1
v -1.7 1.3 -1
v -1.7 1.3 -1.3
v -1.7 1.3 -1.4
v -1.7 1.3 -1.7
v -1.7 1.3 -1.8
v -1.7 1.3 -2.1
v -1.7 1.8 -1.8
v -1.7 1.8 -2.1
v -1.7 2.1 -1.8
v -1.7 2.1 -2.1
v -1.6 2.3 -0.5
v -1.6 2.3 -0.6
v -1.6 2.6 -0.5
v -1.6 2.6 -0.6
v -1.5 2.3 -0.4
v -1.5 2.3 -0.5
v -1.5 2.3 -0.6
v -1.5 2.3 -0.7
v -1.5 2.6 -0.4
v -1.5 2.6 -0.5
v -1.5 2.6 -0.6
v -1.5 2.6 -0.7
v -1.4 2.4 -0.5
v -1.4 2.4 -0.6
v -1.4 2.6 -0.5
v -1.4 2.6 -0.6
v -1.2 2.4 -2.1
v -1.2 2.4 -2.3
v -1.2 2.5 -2.1
v -1.2 2.5 -2.3
v -1.1 2.3 -2.1
v -1.1 2.3 -2.2
v -1.1 2.4 -2.1
v -1.1 2.4 -2.2
v -0.9 0.1 0.8
v -0.9 0.1 0.7
v -0.9 0.1 -2.3
v -0.9 0.1 -2.4
v -0.9 0.4 0.7
v -0.9 0.4 -2.3
v -0.9 0.5 0.8
v -0.9 0.5 0.7
v -0.9 0.5 -2.3
v -0.9 0.5 -2.4
v -0.8 0 0.9
v -0.8 0 0.6
v -0.8 0 -2.2
v -0.8 0 -2.5
v -0.8 0.1 0.8
v -0.8 0.1 0.7
v -0.8 0.1 -2.3
v -0.8 0.1 -2.4
v -0.8 0.3 0.9
v -0.8 0.3 0.8
v -0.8 0.3 0.7
v -0.8 0.3 0.6
v -0.8 0.3 0.5
v -0.8 0.3 -2.2
v -0.8 0.3 -2.3
v -0.8 0.3 -2.4
v -0.8 0.3 -2.5
v -0.8 0.3 -2.6
v -0.8 0.4 0.7
v -0.8 0.4 0.5
v -0.8 0.4 -2.4
v -0.8 0.4 -2.6
v -0.7 0.3 0.8
v -0.7 0.3 0.7
v -0.7 0.4 0.8
v -0.7 0.4 0.7
v -3 0.3 0.8
v -3 0.3 0.7
v -3 0.3 -2.3
v -3 0.3 -2.4
v -3 0.4 0.8
v -3 0.4 0.7
v -3 0.4 -2.3
v -3 0.4 -2.4
v -2.9 0 0.9
v -2.9 0 0.6
v -2.9 0 -2.2
v -2.9 0 -2.5
v -2.9 0.1 0.8
v -2.9 0.1 0.7
v -2.9 0.1 -2.3
v -2.9 0.1 -2.4
v -2.9 0.3 0.9
v -2.9 0.3 0.8
v -2.9 0.3 0.7
v -2.9 0.3 0.6
v -2.9 0.3 0.5
v -2.9 0.3 -2.2
v -2.9 0.3 -2.3
v -2.9 0.3 -2.4
v -2.9 0.3 -2.5
v -2.9 0.3 -2.6
v -2.9 0.4 0.7
v -2.9 0.4 0.5
v -2.9 0.4 -2.4
v -2.9 0.4 -2.6
v -2.8 0.1 0.8
v -2.8 0.1 0.7
v -2.8 0.1 -2.3
v -2.8 0.1 -2.4
v -2.8 0.4 0.7
v -2.8 0.4 -2.3
v -2.8 0.5 0.8
v -2.8 0.5 0.7
v -2.8 0.5 -2.3
v -2.8 0.5 -2.4
v -2.7 2.3 -2.1
v -2.7 2.3 -2.2
v -2.7 2.4 -2.1
v -2.7 2.4 -2.2
v -2.6 2.4 -2.1
v -2.6 2.4 -2.3
v -2.6 2.5 -2.1
v -2.6 2.5 -2.3
v -2.4 0.5 -1.1
v -2.4 0.5 -1.4
v -2.4 0.5 -1.6
v -2.4 0.5 -2
v -2.4 0.8 -1.1
v -2.4 0.8 -1.4
v -2.4 0.8 -1.6
v -2.4 0.8 -2
v -2.1 1 -1
v -2.1 1 -1.3
v -2.1 1 -1.4
v -2.1 1 -1.7
v -2.1 1 -1.8
v -2.1 1 -2.1
v -2.1 1.3 -1
v -2.1 1.3 -1.3
v -2.1 1.3 -1.4
v -2.1 1.3 -1.7
v -2.1 1.3 -1.8
v -2.1 1.3 -2.1
v -2.1 1.8 -1.8
v -2.1 1.8 -2.1
v -2.1 2.1 -1.8
v -2.1 2.1 -2.1
v -2.1 2.6 -1.1
v -2.1 2.6 -1.7
v -2.1 2.7 -1.6
v -2.1 2.7 -1.7
v -2.1 2.8 -1.1
v -2.1 2.8 -1.6
v -2 2.3 0.1
v -2 2.3 -0.3
v -2 2.4 0.1
v -2 2.4 -0.3
v -1.9 2.3 -1
v -1.9 2.3 -1.6
v -1.9 2.3 -1.7
v -1.9 2.3 -1.8
v -1.9 2.4 -1.1
v -1.9 2.4 -1.4
v -1.9 2.4 -1.6
v -1.9 2.4 -1.7
v -1.9 2.5 -1.1
v -1.9 2.5 -1.4
v -1.9 2.6 -1
v -1.9 2.6 -1.8
v -1.5 2.4 -0.5
v -1.5 2.4 -0.6
v -1.5 2.6 -0.5
v -1.5 2.6 -0.6
v -1.4 2.3 -0.4
v -1.4 2.3 -0.5
v -1.4 2.3 -0.6
v -1.4 2.3 -0.7
v -1.4 2.6 -0.4
v -1.4 2.6 -0.5
v -1.4 2.6 -0.6
v -1.4 2.6 -0.7
v -1.3 2.3 -0.5
v -1.3 2.3 -0.6
v -1.3 2.6 -0.5
v -1.3 2.6 -0.6
v -1.2 1 -1
v -1.2 1 -1.3
v -1.2 1 -1.4
v -1.2 1 -1.7
v -1.2 1 -1.8
v -1.2 1 -2.1
v -1.2 1.1 -1.1
v -1.2 1.1 -1.2
v -1.2 1.1 -1.5
v -1.2 1.1 -1.6
v -1.2 1.1 -1.9
v -1.2 1.1 -2
v -1.2 1.2 -1.1
v -1.2 1.2 -1.2
v -1.2 1.2 -1.5
v -1.2 1.2 -1.6
v -1.2 1.2 -1.9
v -1.2 1.2 -2
v -1.2 1.3 -1
v -1.2 1.3 -1.3
v -1.2 1.3 -1.4
v -1.2 1.3 -1.7
v -1.2 1.3 -1.8
v -1.2 1.3 -2.1
v -1.2 1.8 -1.8
v -1.2 1.8 -2.1
v -1.2 1.9 -1.9
v -1.2 1.9 -2
v -1.2 2 -1.9
v -1.2 2 -2
v -1.2 2.1 -1.8
v -1.2 2.1 -2.1
v -1.2 2.4 -2.3
v -1.2 2.4 -2.4
v -1.2 2.5 -2.3
v -1.2 2.5 -2.4
v -1.1 0.5 -0.9
v -1.1 0.5 -1.2
v -1.1 0.5 -1.3
v -1.1 0.5 -1.6
v -1.1 0.5 -1.7
v -1.1 0.5 -2.1
v -1.1 0.6 -1.1
v -1.1 0.6 -1.2
v -1.1 0.6 -1.5
v -1.1 0.6 -1.6
v -1.1 0.7 -1.1
v -1.1 0.7 -1.2
v -1.1 0.7 -1.5
v -1.1 0.7 -1.6
v -1.1 0.7 -1.7
v -1.1 0.7 -2.1
v -1.1 0.8 -0.9
v -1.1 0.8 -1.2
v -1.1 0.8 -1.3
v -1.1 0.8 -1.6
v -1.1 1.1 -1.1
v -1.1 1.1 -1.2
v -1.1 1.1 -1.5
v -1.1 1.1 -1.6
v -1.1 1.1 -1.9
v -1.1 1.1 -2
v -1.1 1.2 -1.1
v -1.1 1.2 -1.2
v -1.1 1.2 -1.5
v -1.1 1.2 -1.6
v -1.1 1.2 -1.9
v -1.1 1.2 -2
v -1.1 1.9 -1.9
v -1.1 1.9 -2
v -1.1 2 -1.9
v -1.1 2 -2
v -1.1 2.4 -2.1
v -1.1 2.4 -2.2
v -1.1 2.4 -2.3
v -1.1 2.5 -2.1
v -1.1 2.5 -2.3
v -1 1.8 -0.9
v -1 1.8 -1.3
v -1 1.8 -1.7
v -1 1.9 -1
v -1 1.9 -1.2
v -1 1.9 -1.4
v -1 1.9 -1.6
v -1 2 -1.1
v -1 2 -1.2
v -1 2 -1.5
v -1 2 -1.6
v -1 2.1 -1
v -1 2.1 -1.1
v -1 2.1 -1.4
v -1 2.1 -1.5
v -1 2.2 -0.9
v -1 2.2 -1.3
v -1 2.2 -1.7
v -1 2.3 -2.1
v -1 2.3 -2.2
v -1 2.4 -2.1
v -1 2.4 -2.2
v -0.9 0.5 0.6
v -0.9 0.5 0.5
v -0.9 0.9 -0.9
v -0.9 0.9 -2.1
v -0.9 1 -0.9
v -0.9 1 -2.1
v -0.9 1.7 -0.9
v -0.9 1.7 -2.1
v -0.9 1.8 -0.9
v -0.9 1.8 -2.1
v -0.9 2.2 0.6
v -0.9 2.2 0.5
v -0.8 0.3 0.8
v -0.8 0.3 0.7
v -0.8 0.4 0.8
v -0.8 0.4 0.7
v -0.8 0.5 0.5
v -0.8 0.5 -0.9
v -0.8 0.5 -2.1
v -0.8 0.5 -2.2
v -0.8 0.8 0.4
v -0.8 0.8 -0.1
v -0.8 0.8 -0.3
v -0.8 0.8 -0.8
v -0.8 0.9 0.4
v -0.8 0.9 -0.1
v -0.8 0.9 -0.3
v -0.8 0.9 -0.8
v -0.8 1.2 0.4
v -0.8 1.2 -0.1
v -0.8 1.2 -0.3
v -0.8 1.2 -0.8
v -0.8 1.3 0.4
v -0.8 1.3 -0.1
v -0.8 1.3 -0.3
v -0.8 1.3 -0.8
v -0.8 1.5 0.4
v -0.8 1.5 0.3
v -0.8 1.5 0.1
v -0.8 1.5 -0.1
v -0.8 1.5 -0.3
v -0.8 1.5 -0.4
v -0.8 1.5 -0.6
v -0.8 1.5 -0.8
v -0.8 1.6 0.4
v -0.8 1.6 0.3
v -0.8 1.6 0.1
v -0.8 1.6 -0.1
v -0.8 1.6 -0.3
v -0.8 1.6 -0.4
v -0.8 1.6 -0.6
v -0.8 1.6 -0.8
v -0.8 1.8 0.4
v -0.8 1.8 -0.1
v -0.8 1.8 -0.3
v -0.8 1.8 -0.8
v -0.8 1.9 0.4
v -0.8 1.9 -0.1
v -0.8 1.9 -0.3
v -0.8 1.9 -0.8
v -0.8 2.2 0.5
v -0.8 2.2 -0.9
v -0.8 2.2 -2.1
v -0.8 2.2 -2.2
v -0.7 0 0.9
v -0.7 0 0.6
v -0.7 0 -2.2
v -0.7 0 -2.5
v -0.7 0.1 0.8
v -0.7 0.1 0.7
v -0.7 0.1 -2.3
v -0.7 0.1 -2.4
v -0.7 0.3 0.9
v -0.7 0.3 0.8
v -0.7 0.3 0.7
v -0.7 0.3 0.6
v -0.7 0.3 0.5
v -0.7 0.3 -2.2
v -0.7 0.3 -2.3
v -0.7 0.3 -2.4
v -0.7 0.3 -2.5
v -0.7 0.3 -2.6
v -0.7 0.4 0.7
v -0.7 0.4 0.5
v -0.7 0.4 -2.4
v -0.7 0.4 -2.6
v -0.7 0.8 -0.1
v -0.7 0.8 -0.3
v -0.7 0.9 -0.1
v -0.7 0.9 -0.3
v -0.7 1.2 -0.1
v -0.7 1.2 -0.3
v -0.7 1.3 -0.1
v -0.7 1.3 -0.3
v -0.7 1.5 0.3
v -0.7 1.5 0.1
v -0.7 1.5 -0.4
v -0.7 1.5 -0.6
v -0.7 1.6 0.3
v -0.7 1.6 0.1
v -0.7 1.6 -0.4
v -0.7 1.6 -0.6
v -0.7 1.8 -0.1
v -0.7 1.8 -0.3
v -0.7 1.9 -0.1
v -0.7 1.9 -0.3
v -0.6 0.1 0.8
v -0.6 0.1 0.7
v -0.6 0.1 -2.3
v -0.6 0.1 -2.4
v -0.6 0.4 0.7
v -0.6 0.4 -2.3
v -0.6 0.5 0.8
v -0.6 0.5 -2.4
v -0.6 2.2 0.6
v -0.6 2.2 -2.2
v -0.6 2.3 0.6
v -0.6 2.3 -2.2
v -3 0 0.9
v -3 0.3 0.9
v -2.9 0 0.9
v -2.9 0.3 0.9
v -0.8 0 0.9
v -0.8 0.3 0.9
v -0.7 0 0.9
v -0.7 0.3 0.9
v -3.1 0.1 0.8
v -3.1 0.5 0.8
v -3 0.1 0.8
v -3 0.3 0.8
v -3 0.4 0.8
v -2.9 0.1 0.8
v -2.9 0.3 0.8
v -2.9 0.4 0.8
v -2.8 0.1 0.8
v -2.8 0.5 0.8
v -0.9 0.1 0.8
v -0.9 0.5 0.8
v -0.8 0.1 0.8
v -0.8 0.3 0.8
v -0.8 0.4 0.8
v -0.7 0.1 0.8
v -0.7 0.3 0.8
v -0.7 0.4 0.8
v -0.6 0.1 0.8
v -0.6 0.5 0.8
v -3 0.3 0.7
v -3 0.4 0.7
v -2.9 0.3 0.7
v -2.9 0.4 0.7
v -2.8 0.4 0.7
v -2.8 0.5 0.7
v -0.9 0.4 0.7
v -0.9 0.5 0.7
v -0.8 0.3 0.7
v -0.8 0.4 0.7
v -0.7 0.3 0.7
v -0.7 0.4 0.7
v -2.9 0.5 0.6
v -2.9 2.3 0.6
v -0.9 0.5 0.6
v -0.9 2.2 0.6
v -0.6 2.2 0.6
v -0.6 2.3 0.6
v -3 0.5 0.5
v -3 2.3 0.5
v -2.9 0.5 0.5
v -2.9 2.3 0.5
v -0.9 0.5 0.5
v -0.9 2.2 0.5
v -0.8 0.5 0.5
v -0.8 2.2 0.5
v -0.8 1.5 0.3
v -0.8 1.6 0.3
v -0.7 1.5 0.3
v -0.7 1.6 0.3
v -2.7 2.3 0.1
v -2.7 2.4 0.1
v -2 2.3 0.1
v -2 2.4 0.1
v -0.8 0.8 -0.1
v -0.8 0.9 -0.1
v -0.8 1.2 -0.1
v -0.8 1.3 -0.1
v -0.8 1.8 -0.1
v -0.8 1.9 -0.1
v -0.7 0.8 -0.1
v -0.7 0.9 -0.1
v -0.7 1.2 -0.1
v -0.7 1.3 -0.1
v -0.7 1.8 -0.1
v -0.7 1.9 -0.1
v -1.5 2.3 -0.4
v -1.5 2.6 -0.4
v -1.4 2.3 -0.4
v -1.4 2.6 -0.4
v -0.8 1.5 -0.4
v -0.8 1.6 -0.4
v -0.7 1.5 -0.4
v -0.7 1.6 -0.4
v -1.6 2.3 -0.5
v -1.6 2.6 -0.5
v -1.5 2.3 -0.5
v -1.5 2.6 -0.5
v -1.4 2.3 -0.5
v -1.4 2.6 -0.5
v -1.3 2.3 -0.5
v -1.3 2.6 -0.5
v -1.5 2.4 -0.6
v -1.5 2.6 -0.6
v -1.4 2.4 -0.6
v -1.4 2.6 -0.6
v -2.6 1 -1
v -2.6 1.3 -1
v -2.4 2.3 -1
v -2.4 2.6 -1
v -2.1 1 -1
v -2.1 1.3 -1
v -1.9 2.3 -1
v -1.9 2.6 -1
v -1.7 1 -1
v -1.7 1.3 -1
v -1.2 1 -1
v -1.2 1.3 -1
v -2.9 0.5 -1.1
v -2.9 0.8 -1.1
v -2.7 1.1 -1.1
v -2.7 1.2 -1.1
v -2.6 1.1 -1.1
v -2.6 1.2 -1.1
v -2.4 0.5 -1.1
v -2.4 0.8 -1.1
v -2.2 2.6 -1.1
v -2.2 2.8 -1.1
v -2.1 2.6 -1.1
v -2.1 2.8 -1.1
v -1.2 1.1 -1.1
v -1.2 1.2 -1.1
v -1.1 1.1 -1.1
v -1.1 1.2 -1.1
v -3 0.6 -1.2
v -3 0.7 -1.2
v -2.9 0.6 -1.2
v -2.9 0.7 -1.2
v -2.2 0.5 -1.3
v -2.2 0.8 -1.3
v -1.1 0.5 -1.3
v -1.1 0.8 -1.3
v -2.6 1 -1.4
v -2.6 1.3 -1.4
v -2.1 1 -1.4
v -2.1 1.3 -1.4
v -1.7 1 -1.4
v -1.7 1.3 -1.4
v -1.2 1 -1.4
v -1.2 1.3 -1.4
v -2.7 1.1 -1.5
v -2.7 1.2 -1.5
v -2.6 1.1 -1.5
v -2.6 1.2 -1.5
v -1.2 1.1 -1.5
v -1.2 1.2 -1.5
v -1.1 1.1 -1.5
v -1.1 1.2 -1.5
v -3 0.5 -1.6
v -3 0.8 -1.6
v -2.4 0.5 -1.6
v -2.4 0.8 -1.6
v -1.8 0.5 -1.7
v -1.8 0.7 -1.7
v -1.1 0.5 -1.7
v -1.1 0.7 -1.7
v -2.6 1 -1.8
v -2.6 1.3 -1.8
v -2.6 1.8 -1.8
v -2.6 2.1 -1.8
v -2.1 1 -1.8
v -2.1 1.3 -1.8
v -2.1 1.8 -1.8
v -2.1 2.1 -1.8
v -1.7 1 -1.8
v -1.7 1.3 -1.8
v -1.7 1.8 -1.8
v -1.7 2.1 -1.8
v -1.2 1 -1.8
v -1.2 1.3 -1.8
v -1.2 1.8 -1.8
v -1.2 2.1 -1.8
v -2.7 1.1 -1.9
v -2.7 1.2 -1.9
v -2.7 1.9 -1.9
v -2.7 2 -1.9
v -2.6 1.1 -1.9
v -2.6 1.2 -1.9
v -2.6 1.9 -1.9
v -2.6 2 -1.9
v -1.2 1.1 -1.9
v -1.2 1.2 -1.9
v -1.2 1.9 -1.9
v -1.2 2 -1.9
v -1.1 1.1 -1.9
v -1.1 1.2 -1.9
v -1.1 1.9 -1.9
v -1.1 2 -1.9
v -3 0.5 -2.1
v -3 2.2 -2.1
v -2.9 0.9 -2.1
v -2.9 1 -2.1
v -2.9 1.7 -2.1
v -2.9 1.8 -2.1
v -2.8 2.3 -2.1
v -2.8 2.4 -2.1
v -2.7 2.3 -2.1
v -2.7 2.4 -2.1
v -2.7 2.5 -2.1
v -2.6 1 -2.1
v -2.6 1.3 -2.1
v -2.6 1.8 -2.1
v -2.6 2.1 -2.1
v -2.6 2.4 -2.1
v -2.6 2.5 -2.1
v -2.1 1 -2.1
v -2.1 1.3 -2.1
v -2.1 1.8 -2.1
v -2.1 2.1 -2.1
v -1.8 0.5 -2.1
v -1.8 0.7 -2.1
v -1.7 1 -2.1
v -1.7 1.3 -2.1
v -1.7 1.8 -2.1
v -1.7 2.1 -2.1
v -1.2 1 -2.1
v -1.2 1.3 -2.1
v -1.2 1.8 -2.1
v -1.2 2.1 -2.1
v -1.2 2.4 -2.1
v -1.2 2.5 -2.1
v -1.1 0.5 -2.1
v -1.1 0.7 -2.1
v -1.1 2.3 -2.1
v -1.1 2.4 -2.1
v -1.1 2.5 -2.1
v -1 2.3 -2.1
v -1 2.4 -2.1
v -0.9 0.9 -2.1
v -0.9 1 -2.1
v -0.9 1.7 -2.1
v -0.9 1.8 -2.1
v -0.8 0.5 -2.1
v -0.8 2.2 -2.1
v -3 0 -2.2
v -3 0.3 -2.2
v -2.9 0 -2.2
v -2.9 0.3 -2.2
v -0.8 0 -2.2
v -0.8 0.3 -2.2
v -0.7 0 -2.2
v -0.7 0.3 -2.2
v -3.1 0.1 -2.3
v -3.1 0.4 -2.3
v -3 0.1 -2.3
v -3 0.3 -2.3
v -3 0.4 -2.3
v -2.9 0.1 -2.3
v -2.9 0.3 -2.3
v -2.9 0.4 -2.3
v -2.8 0.1 -2.3
v -2.8 0.4 -2.3
v -2.6 2.4 -2.3
v -2.6 2.5 -2.3
v -1.2 2.4 -2.3
v -1.2 2.5 -2.3
v -0.9 0.1 -2.3
v -0.9 0.4 -2.3
v -0.8 0.1 -2.3
v -0.8 0.3 -2.3
v -0.7 0.1 -2.3
v -0.7 0.3 -2.3
v -0.6 0.1 -2.3
v -0.6 0.4 -2.3
v -3 0.3 -2.4
v -3 0.4 -2.4
v -2.9 0.3 -2.4
v -2.9 0.4 -2.4
v -3.1 0.1 0.7
v -3.1 0.4 0.7
v -3 0.1 0.7
v -3 0.3 0.7
v -3 0.4 0.7
v -2.9 0.1 0.7
v -2.9 0.3 0.7
v -2.9 0.4 0.7
v -2.8 0.1 0.7
v -2.8 0.4 0.7
v -0.9 0.1 0.7
v -0.9 0.4 0.7
v -0.8 0.1 0.7
v -0.8 0.3 0.7
v -0.8 0.4 0.7
v -0.7 0.1 0.7
v -0.7 0.3 0.7
v -0.7 0.4 0.7
v -0.6 0.1 0.7
v -0.6 0.4 0.7
v -3 0 0.6
v -3 0.3 0.6
v -2.9 0 0.6
v -2.9 0.3 0.6
v -0.8 0 0.6
v -0.8 0.3 0.6
v -0.7 0 0.6
v -0.7 0.3 0.6
v -3 0.3 0.5
v -3 0.4 0.5
v -2.9 0.3 0.5
v -2.9 0.4 0.5
v -0.8 0.3 0.5
v -0.8 0.4 0.5
v -0.7 0.3 0.5
v -0.7 0.4 0.5
v -0.8 1.5 0.1
v -0.8 1.6 0.1
v -0.7 1.5 0.1
v -0.7 1.6 0.1
v -2.7 2.3 -0.3
v -2.7 2.4 -0.3
v -2 2.3 -0.3
v -2 2.4 -0.3
v -0.8 0.8 -0.3
v -0.8 0.9 -0.3
v -0.8 1.2 -0.3
v -0.8 1.3 -0.3
v -0.8 1.8 -0.3
v -0.8 1.9 -0.3
v -0.7 0.8 -0.3
v -0.7 0.9 -0.3
v -0.7 1.2 -0.3
v -0.7 1.3 -0.3
v -0.7 1.8 -0.3
v -0.7 1.9 -0.3
v -1.5 2.4 -0.5
v -1.5 2.6 -0.5
v -1.4 2.4 -0.5
v -1.4 2.6 -0.5
v -1.6 2.3 -0.6
v -1.6 2.6 -0.6
v -1.5 2.3 -0.6
v -1.5 2.6 -0.6
v -1.4 2.3 -0.6
v -1.4 2.6 -0.6
v -1.3 2.3 -0.6
v -1.3 2.6 -0.6
v -0.8 1.5 -0.6
v -0.8 1.6 -0.6
v -0.7 1.5 -0.6
v -0.7 1.6 -0.6
v -1.5 2.3 -0.7
v -1.5 2.6 -0.7
v -1.4 2.3 -0.7
v -1.4 2.6 -0.7
v -3 0.5 -0.9
v -3 2.2 -0.9
v -2.9 0.9 -0.9
v -2.9 1 -0.9
v -2.9 1.7 -0.9
v -2.9 1.8 -0.9
v -2.8 1.8 -0.9
v -2.8 2.2 -0.9
v -2.1 0.5 -0.9
v -2.1 0.8 -0.9
v -1.1 0.5 -0.9
v -1.1 0.8 -0.9
v -1 1.8 -0.9
v -1 2.2 -0.9
v -0.9 0.9 -0.9
v -0.9 1 -0.9
v -0.9 1.7 -0.9
v -0.9 1.8 -0.9
v -0.8 0.5 -0.9
v -0.8 2.2 -0.9
v -2.7 1.1 -1.2
v -2.7 1.2 -1.2
v -2.6 1.1 -1.2
v -2.6 1.2 -1.2
v -2.1 0.5 -1.2
v -2.1 0.8 -1.2
v -1.4 0.6 -1.2
v -1.4 0.7 -1.2
v -1.2 1.1 -1.2
v -1.2 1.2 -1.2
v -1.1 0.5 -1.2
v -1.1 0.6 -1.2
v -1.1 0.7 -1.2
v -1.1 0.8 -1.2
v -1.1 1.1 -1.2
v -1.1 1.2 -1.2
v -3 0.6 -1.3
v -3 0.7 -1.3
v -2.9 0.6 -1.3
v -2.9 0.7 -1.3
v -2.6 1 -1.3
v -2.6 1.3 -1.3
v -2.1 1 -1.3
v -2.1 1.3 -1.3
v -1.7 1 -1.3
v -1.7 1.3 -1.3
v -1.2 1 -1.3
v -1.2 1.3 -1.3
v -2.9 0.5 -1.4
v -2.9 0.8 -1.4
v -2.4 0.5 -1.4
v -2.4 0.8 -1.4
v -2.7 1.1 -1.6
v -2.7 1.2 -1.6
v -2.6 1.1 -1.6
v -2.6 1.2 -1.6
v -2.2 0.5 -1.6
v -2.2 0.8 -1.6
v -2.2 2.7 -1.6
v -2.2 2.8 -1.6
v -2.1 2.7 -1.6
v -2.1 2.8 -1.6
v -1.5 0.6 -1.6
v -1.5 0.7 -1.6
v -1.2 1.1 -1.6
v -1.2 1.2 -1.6
v -1.1 0.5 -1.6
v -1.1 0.6 -1.6
v -1.1 0.7 -1.6
v -1.1 0.8 -1.6
v -1.1 1.1 -1.6
v -1.1 1.2 -1.6
v -2.8 1.8 -1.7
v -2.8 2.2 -1.7
v -2.6 1 -1.7
v -2.6 1.3 -1.7
v -2.2 2.6 -1.7
v -2.2 2.7 -1.7
v -2.1 1 -1.7
v -2.1 1.3 -1.7
v -2.1 2.6 -1.7
v -2.1 2.7 -1.7
v -1.7 1 -1.7
v -1.7 1.3 -1.7
v -1.2 1 -1.7
v -1.2 1.3 -1.7
v -1 1.8 -1.7
v -1 2.2 -1.7
v -2.4 2.3 -1.8
v -2.4 2.6 -1.8
v -1.9 2.3 -1.8
v -1.9 2.6 -1.8
v -3 0.5 -2
v -3 0.8 -2
v -2.7 1.1 -2
v -2.7 1.2 -2
v -2.7 1.9 -2
v -2.7 2 -2
v -2.6 1.1 -2
v -2.6 1.2 -2
v -2.6 1.9 -2
v -2.6 2 -2
v -2.4 0.5 -2
v -2.4 0.8 -2
v -1.2 1.1 -2
v -1.2 1.2 -2
v -1.2 1.9 -2
v -1.2 2 -2
v -1.1 1.1 -2
v -1.1 1.2 -2
v -1.1 1.9 -2
v -1.1 2 -2
v -3 0.5 -2.2
v -3 2.3 -2.2
v -2.8 2.3 -2.2
v -2.8 2.4 -2.2
v -2.7 2.3 -2.2
v -2.7 2.4 -2.2
v -1.1 2.3 -2.2
v -1.1 2.4 -2.2
v -1 2.3 -2.2
v -1 2.4 -2.2
v -0.8 0.5 -2.2
v -0.8 2.2 -2.2
v -0.6 2.2 -2.2
v -0.6 2.3 -2.2
v -2.8 0.4 -2.3
v -2.8 0.5 -2.3
v -2.7 2.4 -2.3
v -2.7 2.5 -2.3
v -2.6 2.4 -2.3
v -2.6 2.5 -2.3
v -1.2 2.4 -2.3
v -1.2 2.5 -2.3
v -1.1 2.4 -2.3
v -1.1 2.5 -2.3
v -0.9 0.4 -2.3
v -0.9 0.5 -2.3
v -3.1 0.1 -2.4
v -3.1 0.5 -2.4
v -3 0.1 -2.4
v -3 0.3 -2.4
v -3 0.4 -2.4
v -2.9 0.1 -2.4
v -2.9 0.3 -2.4
v -2.9 0.4 -2.4
v -2.8 0.1 -2.4
v -2.8 0.5 -2.4
v -2.6 2.4 -2.4
v -2.6 2.5 -2.4
v -1.2 2.4 -2.4
v -1.2 2.5 -2.4
v -0.9 0.1 -2.4
v -0.9 0.5 -2.4
v -0.8 0.1 -2.4
v -0.8 0.3 -2.4
v -0.8 0.4 -2.4
v -0.7 0.1 -2.4
v -0.7 0.3 -2.4
v -0.7 0.4 -2.4
v -0.6 0.1 -2.4
v -0.6 0.5 -2.4
v -3 0 -2.5
v -3 0.3 -2.5
v -2.9 0 -2.5
v -2.9 0.3 -2.5
v -0.8 0 -2.5
v -0.8 0.3 -2.5
v -0.7 0 -2.5
v -0.7 0.3 -2.5
v -3 0.3 -2.6
v -3 0.4 -2.6
v -2.9 0.3 -2.6
v -2.9 0.4 -2.6
v -0.8 0.3 -2.6
v -0.8 0.4 -2.6
v -0.7 0.3 -2.6
v -0.7 0.4 -2.6
v -3 0 0.9
v -2.9 0 0.9
v -0.8 0 0.9
v -0.7 0 0.9
v -3 0 0.6
v -2.9 0 0.6
v -0.8 0 0.6
v -0.7 0 0.6
v -3 0 -2.2
v -2.9 0 -2.2
v -0.8 0 -2.2
v -0.7 0 -2.2
v -3 0 -2.5
v -2.9 0 -2.5
v -0.8 0 -2.5
v -0.7 0 -2.5
v -3.1 0.1 0.8
v -3 0.1 0.8
v -2.9 0.1 0.8
v -2.8 0.1 0.8
v -0.9 0.1 0.8
v -0.8 0.1 0.8
v -0.7 0.1 0.8
v -0.6 0.1 0.8
v -3.1 0.1 0.7
v -3 0.1 0.7
v -2.9 0.1 0.7
v -2.8 0.1 0.7
v -0.9 0.1 0.7
v -0.8 0.1 0.7
v -0.7 0.1 0.7
v -0.6 0.1 0.7
v -3.1 0.1 -2.3
v -3 0.1 -2.3
v -2.9 0.1 -2.3
v -2.8 0.1 -2.3
v -0.9 0.1 -2.3
v -0.8 0.1 -2.3
v -0.7 0.1 -2.3
v -0.6 0.1 -2.3
v -3.1 0.1 -2.4
v -3 0.1 -2.4
v -2.9 0.1 -2.4
v -2.8 0.1 -2.4
v -0.9 0.1 -2.4
v -0.8 0.1 -2.4
v -0.7 0.1 -2.4
v -0.6 0.1 -2.4
v -3 0.3 0.6
v -2.9 0.3 0.6
v -0.8 0.3 0.6
v -0.7 0.3 0.6
v -3 0.3 0.5
v -2.9 0.3 0.5
v -0.8 0.3 0.5
v -0.7 0.3 0.5
v -3 0.3 -2.5
v -2.9 0.3 -2.5
v -0.8 0.3 -2.5
v -0.7 0.3 -2.5
v -3 0.3 -2.6
v -2.9 0.3 -2.6
v -0.8 0.3 -2.6
v -0.7 0.3 -2.6
v -3 0.4 0.8
v -2.9 0.4 0.8
v -0.8 0.4 0.8
v -0.7 0.4 0.8
v -3.1 0.4 0.7
v -3 0.4 0.7
v -2.9 0.4 0.7
v -2.8 0.4 0.7
v -0.9 0.4 0.7
v -0.8 0.4 0.7
v -0.7 0.4 0.7
v -0.6 0.4 0.7
v -3 0.4 0.5
v -2.9 0.4 0.5
v -0.8 0.4 0.5
v -0.7 0.4 0.5
v -3.1 0.4 -2.3
v -3 0.4 -2.3
v -2.9 0.4 -2.3
v -2.8 0.4 -2.3
v -0.9 0.4 -2.3
v -0.6 0.4 -2.3
v -3 0.4 -2.4
v -2.9 0.4 -2.4
v -3 0.6 -1.2
v -2.9 0.6 -1.2
v -3 0.6 -1.3
v -2.9 0.6 -1.3
v -0.8 0.8 -0.1
v -0.7 0.8 -0.1
v -0.8 0.8 -0.3
v -0.7 0.8 -0.3
v -2.9 0.9 -0.9
v -0.9 0.9 -0.9
v -2.9 0.9 -2.1
v -0.9 0.9 -2.1
v -2.7 1.1 -1.1
v -2.6 1.1 -1.1
v -1.2 1.1 -1.1
v -1.1 1.1 -1.1
v -2.7 1.1 -1.2
v -2.6 1.1 -1.2
v -1.2 1.1 -1.2
v -1.1 1.1 -1.2
v -2.7 1.1 -1.5
v -2.6 1.1 -1.5
v -1.2 1.1 -1.5
v -1.1 1.1 -1.5
v -2.7 1.1 -1.6
v -2.6 1.1 -1.6
v -1.2 1.1 -1.6
v -1.1 1.1 -1.6
v -2.7 1.1 -1.9
v -2.6 1.1 -1.9
v -1.2 1.1 -1.9
v -1.1 1.1 -1.9
v -2.7 1.1 -2
v -2.6 1.1 -2
v -1.2 1.1 -2
v -1.1 1.1 -2
v -0.8 1.2 -0.1
v -0.7 1.2 -0.1
v -0.8 1.2 -0.3
v -0.7 1.2 -0.3
v -0.8 1.5 0.3
v -0.7 1.5 0.3
v -0.8 1.5 0.1
v -0.7 1.5 0.1
v -0.8 1.5 -0.4
v -0.7 1.5 -0.4
v -0.8 1.5 -0.6
v -0.7 1.5 -0.6
v -2.9 1.7 -0.9
v -0.9 1.7 -0.9
v -2.9 1.7 -2.1
v -0.9 1.7 -2.1
v -0.8 1.8 -0.1
v -0.7 1.8 -0.1
v -0.8 1.8 -0.3
v -0.7 1.8 -0.3
v -2.7 1.9 -1.9
v -2.6 1.9 -1.9
v -1.2 1.9 -1.9
v -1.1 1.9 -1.9
v -2.7 1.9 -2
v -2.6 1.9 -2
v -1.2 1.9 -2
v -1.1 1.9 -2
v -0.9 2.2 0.6
v -0.6 2.2 0.6
v -0.9 2.2 0.5
v -0.8 2.2 0.5
v -3 2.2 -0.9
v -2.8 2.2 -0.9
v -1 2.2 -0.9
v -0.8 2.2 -0.9
v -2.8 2.2 -1.3
v -1 2.2 -1.3
v -2.8 2.2 -1.7
v -1 2.2 -1.7
v -3 2.2 -2.1
v -0.8 2.2 -2.1
v -0.8 2.2 -2.2
v -0.6 2.2 -2.2
v -2.7 2.4 -2.1
v -2.6 2.4 -2.1
v -1.2 2.4 -2.1
v -1.1 2.4 -2.1
v -2.7 2.4 -2.2
v -1.1 2.4 -2.2
v -2.7 2.4 -2.3
v -2.6 2.4 -2.3
v -1.2 2.4 -2.3
v -1.1 2.4 -2.3
v -2.6 2.4 -2.4
v -1.2 2.4 -2.4
v -3 0.3 0.9
v -2.9 0.3 0.9
v -0.8 0.3 0.9
v -0.7 0.3 0.9
v -3 0.3 0.8
v -2.9 0.3 0.8
v -0.8 0.3 0.8
v -0.7 0.3 0.8
v -3 0.3 0.7
v -2.9 0.3 0.7
v -0.8 0.3 0.7
v -0.7 0.3 0.7
v -3 0.3 -2.2
v -2.9 0.3 -2.2
v -0.8 0.3 -2.2
v -0.7 0.3 -2.2
v -3 0.3 -2.3
v -2.9 0.3 -2.3
v -0.8 0.3 -2.3
v -0.7 0.3 -2.3
v -3 0.3 -2.4
v -2.9 0.3 -2.4
v -3 0.4 -2.4
v -2.9 0.4 -2.4
v -0.8 0.4 -2.4
v -0.7 0.4 -2.4
v -3 0.4 -2.6
v -2.9 0.4 -2.6
v -0.8 0.4 -2.6
v -0.7 0.4 -2.6
v -3.1 0.5 0.8
v -2.8 0.5 0.8
v -0.9 0.5 0.8
v -0.6 0.5 0.8
v -2.8 0.5 0.7
v -0.9 0.5 0.7
v -2.9 0.5 0.6
v -0.9 0.5 0.6
v -3 0.5 0.5
v -2.9 0.5 0.5
v -0.9 0.5 0.5
v -0.8 0.5 0.5
v -3 0.5 -0.9
v -2.1 0.5 -0.9
v -1.1 0.5 -0.9
v -0.8 0.5 -0.9
v -2.9 0.5 -1.1
v -2.4 0.5 -1.1
v -2.1 0.5 -1.2
v -1.1 0.5 -1.2
v -2.2 0.5 -1.3
v -1.1 0.5 -1.3
v -2.9 0.5 -1.4
v -2.4 0.5 -1.4
v -3 0.5 -1.6
v -2.4 0.5 -1.6
v -2.2 0.5 -1.6
v -1.1 0.5 -1.6
v -1.8 0.5 -1.7
v -1.1 0.5 -1.7
v -3 0.5 -2
v -2.4 0.5 -2
v -3 0.5 -2.1
v -1.8 0.5 -2.1
v -1.1 0.5 -2.1
v -0.8 0.5 -2.1
v -3 0.5 -2.2
v -0.8 0.5 -2.2
v -2.8 0.5 -2.3
v -0.9 0.5 -2.3
v -3.1 0.5 -2.4
v -2.8 0.5 -2.4
v -0.9 0.5 -2.4
v -0.6 0.5 -2.4
v -3 0.7 -1.2
v -2.9 0.7 -1.2
v -3 0.7 -1.3
v -2.9 0.7 -1.3
v -1.8 0.7 -1.7
v -1.1 0.7 -1.7
v -1.6 0.7 -1.8
v -1.3 0.7 -1.8
v -1.6 0.7 -1.9
v -1.4 0.7 -1.9
v -1.3 0.7 -1.9
v -1.2 0.7 -1.9
v -1.4 0.7 -2
v -1.2 0.7 -2
v -1.8 0.7 -2.1
v -1.1 0.7 -2.1
v -2.1 0.8 -0.9
v -1.1 0.8 -0.9
v -2.9 0.8 -1.1
v -2.4 0.8 -1.1
v -2.1 0.8 -1.2
v -1.1 0.8 -1.2
v -2.2 0.8 -1.3
v -1.1 0.8 -1.3
v -2.9 0.8 -1.4
v -2.4 0.8 -1.4
v -3 0.8 -1.6
v -2.4 0.8 -1.6
v -2.2 0.8 -1.6
v -1.1 0.8 -1.6
v -3 0.8 -1.8
v -2.6 0.8 -1.8
v -3 0.8 -1.9
v -2.6 0.8 -1.9
v -3 0.8 -2
v -2.4 0.8 -2
v -0.8 0.9 -0.1
v -0.7 0.9 -0.1
v -0.8 0.9 -0.3
v -0.7 0.9 -0.3
v -2.9 1 -0.9
v -0.9 1 -0.9
v -2.6 1 -1
v -2.1 1 -1
v -1.7 1 -1
v -1.2 1 -1
v -2.6 1 -1.3
v -2.1 1 -1.3
v -1.7 1 -1.3
v -1.2 1 -1.3
v -2.6 1 -1.4
v -2.1 1 -1.4
v -1.7 1 -1.4
v -1.2 1 -1.4
v -2.6 1 -1.7
v -2.1 1 -1.7
v -1.7 1 -1.7
v -1.2 1 -1.7
v -2.6 1 -1.8
v -2.1 1 -1.8
v -1.7 1 -1.8
v -1.2 1 -1.8
v -2.9 1 -2.1
v -2.6 1 -2.1
v -2.1 1 -2.1
v -1.7 1 -2.1
v -1.2 1 -2.1
v -0.9 1 -2.1
v -2.7 1.2 -1.1
v -2.6 1.2 -1.1
v -1.2 1.2 -1.1
v -1.1 1.2 -1.1
v -2.7 1.2 -1.2
v -2.6 1.2 -1.2
v -1.2 1.2 -1.2
v -1.1 1.2 -1.2
v -2.7 1.2 -1.5
v -2.6 1.2 -1.5
v -1.2 1.2 -1.5
v -1.1 1.2 -1.5
v -2.7 1.2 -1.6
v -2.6 1.2 -1.6
v -1.2 1.2 -1.6
v -1.1 1.2 -1.6
v -2.7 1.2 -1.9
v -2.6 1.2 -1.9
v -1.2 1.2 -1.9
v -1.1 1.2 -1.9
v -2.7 1.2 -2
v -2.6 1.2 -2
v -1.2 1.2 -2
v -1.1 1.2 -2
v -0.8 1.3 -0.1
v -0.7 1.3 -0.1
v -0.8 1.3 -0.3
v -0.7 1.3 -0.3
v -2.6 1.3 -1
v -2.1 1.3 -1
v -1.7 1.3 -1
v -1.2 1.3 -1
v -2.6 1.3 -1.3
v -2.1 1.3 -1.3
v -1.7 1.3 -1.3
v -1.2 1.3 -1.3
v -2.6 1.3 -1.4
v -2.1 1.3 -1.4
v -1.7 1.3 -1.4
v -1.2 1.3 -1.4
v -2.6 1.3 -1.7
v -2.1 1.3 -1.7
v -1.7 1.3 -1.7
v -1.2 1.3 -1.7
v -2.6 1.3 -1.8
v -2.1 1.3 -1.8
v -1.7 1.3 -1.8
v -1.2 1.3 -1.8
v -2.6 1.3 -2.1
v -2.1 1.3 -2.1
v -1.7 1.3 -2.1
v -1.2 1.3 -2.1
v -0.8 1.6 0.3
v -0.7 1.6 0.3
v -0.8 1.6 0.1
v -0.7 1.6 0.1
v -0.8 1.6 -0.4
v -0.7 1.6 -0.4
v -0.8 1.6 -0.6
v -0.7 1.6 -0.6
v -2.9 1.8 -0.9
v -2.8 1.8 -0.9
v -1 1.8 -0.9
v -0.9 1.8 -0.9
v -2.8 1.8 -1.3
v -1 1.8 -1.3
v -2.8 1.8 -1.7
v -1 1.8 -1.7
v -2.6 1.8 -1.8
v -2.1 1.8 -1.8
v -1.7 1.8 -1.8
v -1.2 1.8 -1.8
v -2.9 1.8 -2.1
v -2.6 1.8 -2.1
v -2.1 1.8 -2.1
v -1.7 1.8 -2.1
v -1.2 1.8 -2.1
v -0.9 1.8 -2.1
v -0.8 1.9 -0.1
v -0.7 1.9 -0.1
v -0.8 1.9 -0.3
v -0.7 1.9 -0.3
v -2.7 2 -1.9
v -2.6 2 -1.9
v -1.2 2 -1.9
v -1.1 2 -1.9
v -2.7 2 -2
v -2.6 2 -2
v -1.2 2 -2
v -1.1 2 -2
v -2.6 2.1 -1.8
v -2.1 2.1 -1.8
v -1.7 2.1 -1.8
v -1.2 2.1 -1.8
v -2.6 2.1 -2.1
v -2.1 2.1 -2.1
v -1.7 2.1 -2.1
v -1.2 2.1 -2.1
v -2.9 2.3 0.6
v -0.6 2.3 0.6
v -3 2.3 0.5
v -2.9 2.3 0.5
v -2.7 2.3 0.1
v -2 2.3 0.1
v -2.7 2.3 -0.3
v -2 2.3 -0.3
v -1.5 2.3 -0.4
v -1.4 2.3 -0.4
v -1.6 2.3 -0.5
v -1.5 2.3 -0.5
v -1.4 2.3 -0.5
v -1.3 2.3 -0.5
v -1.6 2.3 -0.6
v -1.5 2.3 -0.6
v -1.4 2.3 -0.6
v -1.3 2.3 -0.6
v -1.5 2.3 -0.7
v -1.4 2.3 -0.7
v -2.4 2.3 -1
v -1.9 2.3 -1
v -1.9 2.3 -1.6
v -1.9 2.3 -1.7
v -2.4 2.3 -1.8
v -1.9 2.3 -1.8
v -2.8 2.3 -2.1
v -2.7 2.3 -2.1
v -1.1 2.3 -2.1
v -1 2.3 -2.1
v -3 2.3 -2.2
v -2.8 2.3 -2.2
v -2.7 2.3 -2.2
v -1.1 2.3 -2.2
v -1 2.3 -2.2
v -0.6 2.3 -2.2
v -2.7 2.4 0.1
v -2 2.4 0.1
v -2.6 2.4 0
v -2.1 2.4 0
v -2.6 2.4 -0.2
v -2.1 2.4 -0.2
v -2.7 2.4 -0.3
v -2 2.4 -0.3
v -1.5 2.4 -0.5
v -1.4 2.4 -0.5
v -1.5 2.4 -0.6
v -1.4 2.4 -0.6
v -2.8 2.4 -2.1
v -2.7 2.4 -2.1
v -1.1 2.4 -2.1
v -1 2.4 -2.1
v -2.8 2.4 -2.2
v -2.7 2.4 -2.2
v -1.1 2.4 -2.2
v -1 2.4 -2.2
v -2.7 2.5 -2.1
v -2.6 2.5 -2.1
v -1.2 2.5 -2.1
v -1.1 2.5 -2.1
v -2.7 2.5 -2.3
v -2.6 2.5 -2.3
v -1.2 2.5 -2.3
v -1.1 2.5 -2.3
v -2.6 2.5 -2.4
v -1.2 2.5 -2.4
v -1.5 2.6 -0.4
v -1.4 2.6 -0.4
v -1.6 2.6 -0.5
v -1.5 2.6 -0.5
v -1.4 2.6 -0.5
v -1.3 2.6 -0.5
v -1.6 2.6 -0.6
v -1.5 2.6 -0.6
v -1.4 2.6 -0.6
v -1.3 2.6 -0.6
v -1.5 2.6 -0.7
v -1.4 2.6 -0.7
v -2.4 2.6 -1
v -1.9 2.6 -1
v -2.2 2.6 -1.1
v -2.1 2.6 -1.1
v -2.2 2.6 -1.7
v -2.1 2.6 -1.7
v -2.4 2.6 -1.8
v -1.9 2.6 -1.8
v -2.2 2.7 -1.6
v -2.1 2.7 -1.6
v -2.2 2.7 -1.7
v -2.1 2.7 -1.7
v -2.2 2.8 -1.1
v -2.1 2.8 -1.1
v -2.2 2.8 -1.6
v -2.1 2.8 -1.6

# faces
f 5/11/1 2/11/1 1/11/1
f 6/11/1 4/11/1 3/11/1
f 7/11/1 5/11/1 1/11/1
f 7/11/1 6/11/1 5/11/1
f 8/11/1 4/11/1 6/11/1
f 8/11/1 6/11/1 7/11/1
f 13/10/1 10/10/1 9/10/1
f 14/10/1 10/10/1 13/10/1
f 15/10/1 12/10/1 11/10/1
f 16/10/1 12/10/1 15/10/1
f 17/10/1 13/10/1 9/10/1
f 18/10/1 13/10/1 17/10/1
f 19/10/1 10/10/1 14/10/1
f 20/10/1 10/10/1 19/10/1
f 22/10/1 15/10/1 11/10/1
f 23/10/1 15/10/1 22/10/1
f 24/10/1 12/10/1 16/10/1
f 25/10/1 12/10/1 24/10/1
f 27/1/1 21/1/1 20/1/1
f 27/1/1 20/1/1 19/1/1
f 28/1/1 21/1/1 27/1/1
f 29/1/1 26/1/1 25/1/1
f 29/1/1 25/1/1 24/1/1
f 30/1/1 26/1/1 29/1/1
f 39/1/1 34/1/1 33/1/1
f 40/1/1 34/1/1 39/1/1
f 41/8/1 38/8/1 37/8/1
f 42/8/1 38/8/1 41/8/1
f 43/1/1 39/1/1 33/1/1
f 43/6/1 40/6/1 39/6/1
f 44/1/1 34/1/1 40/1/1
f 44/6/1 40/6/1 43/6/1
f 45/1/1 34/1/1 44/1/1
f 46/1/1 43/1/1 33/1/1
f 46/1/1 44/1/1 43/1/1
f 47/6/1 45/6/1 44/6/1
f 47/1/1 44/1/1 46/1/1
f 48/1/1 34/1/1 45/1/1
f 48/6/1 45/6/1 47/6/1
f 49/1/1 34/1/1 48/1/1
f 50/8/1 32/8/1 31/8/1
f 51/8/1 36/8/1 35/8/1
f 52/8/1 50/8/1 31/8/1
f 52/8/1 51/8/1 50/8/1
f 53/8/1 36/8/1 51/8/1
f 53/8/1 51/8/1 52/8/1
f 58/11/1 55/11/1 54/11/1
f 59/11/1 55/11/1 58/11/1
f 60/11/1 57/11/1 56/11/1
f 61/11/1 57/11/1 60/11/1
f 66/5/1 65/5/1 64/5/1
f 67/5/1 65/5/1 66/5/1
f 68/5/1 66/5/1 64/5/1
f 69/5/1 65/5/1 67/5/1
f 70/5/1 68/5/1 64/5/1
f 70/5/1 69/5/1 68/5/1
f 71/5/1 65/5/1 69/5/1
f 71/5/1 69/5/1 70/5/1
f 74/9/1 73/9/1 72/9/1
f 75/9/1 73/9/1 74/9/1
f 78/9/1 77/9/1 76/9/1
f 79/9/1 77/9/1 78/9/1
f 80/8/1 63/8/1 62/8/1
f 81/8/1 63/8/1 80/8/1
f 85/2/1 83/2/1 82/2/1
f 86/2/1 83/2/1 85/2/1
f 87/3/1 84/3/1 83/3/1
f 88/3/1 84/3/1 87/3/1
f 89/2/1 85/2/1 82/2/1
f 89/3/1 86/3/1 85/3/1
f 90/3/1 86/3/1 89/3/1
f 91/4/1 88/4/1 87/4/1
f 91/3/1 87/3/1 83/3/1
f 92/4/1 88/4/1 91/4/1
f 93/3/1 86/3/1 90/3/1
f 93/2/1 90/2/1 89/2/1
f 94/2/1 83/2/1 86/2/1
f 94/3/1 86/3/1 93/3/1
f 95/4/1 88/4/1 92/4/1
f 95/3/1 92/3/1 91/3/1
f 96/3/1 84/3/1 88/3/1
f 96/4/1 88/4/1 95/4/1
f 97/2/1 93/2/1 89/2/1
f 97/2/1 94/2/1 93/2/1
f 97/2/1 89/2/1 82/2/1
f 98/3/1 95/3/1 91/3/1
f 98/2/1 94/2/1 97/2/1
f 98/2/1 83/2/1 94/2/1
f 98/3/1 91/3/1 83/3/1
f 98/3/1 96/3/1 95/3/1
f 99/3/1 84/3/1 96/3/1
f 99/3/1 96/3/1 98/3/1
f 102/8/1 101/8/1 100/8/1
f 103/8/1 101/8/1 102/8/1
f 110/8/1 105/8/1 104/8/1
f 111/8/1 105/8/1 110/8/1
f 112/8/1 107/8/1 106/8/1
f 113/8/1 107/8/1 112/8/1
f 114/8/1 109/8/1 108/8/1
f 115/8/1 109/8/1 114/8/1
f 118/8/1 117/8/1 116/8/1
f 119/8/1 117/8/1 118/8/1
f 122/5/1 121/5/1 120/5/1
f 123/5/1 121/5/1 122/5/1
f 127/8/1 126/8/1 125/8/1
f 127/8/1 125/8/1 124/8/1
f 128/8/1 126/8/1 127/8/1
f 135/5/1 130/5/1 129/5/1
f 136/5/1 130/5/1 135/5/1
f 137/5/1 132/5/1 131/5/1
f 138/5/1 132/5/1 137/5/1
f 139/5/1 134/5/1 133/5/1
f 140/5/1 134/5/1 139/5/1
f 141/5/1 135/5/1 129/5/1
f 142/5/1 130/5/1 136/5/1
f 143/5/1 137/5/1 131/5/1
f 144/5/1 132/5/1 138/5/1
f 145/5/1 139/5/1 133/5/1
f 146/5/1 134/5/1 140/5/1
f 147/5/1 141/5/1 129/5/1
f 147/5/1 142/5/1 141/5/1
f 148/5/1 130/5/1 142/5/1
f 148/5/1 142/5/1 147/5/1
f 149/5/1 143/5/1 131/5/1
f 149/5/1 144/5/1 143/5/1
f 150/5/1 132/5/1 144/5/1
f 150/5/1 144/5/1 149/5/1
f 151/5/1 146/5/1 145/5/1
f 151/5/1 145/5/1 133/5/1
f 152/5/1 134/5/1 146/5/1
f 152/5/1 146/5/1 151/5/1
f 155/5/1 154/5/1 153/5/1
f 156/5/1 154/5/1 155/5/1
f 157/5/1 155/5/1 153/5/1
f 158/5/1 154/5/1 156/5/1
f 159/5/1 157/5/1 153/5/1
f 159/5/1 158/5/1 157/5/1
f 160/5/1 154/5/1 158/5/1
f 160/5/1 158/5/1 159/5/1
f 163/8/1 162/8/1 161/8/1
f 164/8/1 162/8/1 163/8/1
f 167/7/1 166/7/1 165/7/1
f 168/7/1 166/7/1 167/7/1
f 169/7/1 167/7/1 165/7/1
f 169/4/1 168/4/1 167/4/1
f 170/7/1 166/7/1 168/7/1
f 170/4/1 168/4/1 169/4/1
f 171/7/1 169/7/1 165/7/1
f 171/7/1 170/7/1 169/7/1
f 172/7/1 166/7/1 170/7/1
f 172/7/1 170/7/1 171/7/1
f 175/4/1 174/4/1 173/4/1
f 176/4/1 174/4/1 175/4/1
f 179/8/1 178/8/1 177/8/1
f 180/8/1 178/8/1 179/8/1
f 181/8/1 179/8/1 177/8/1
f 182/8/1 179/8/1 181/8/1
f 185/4/1 184/4/1 183/4/1
f 186/4/1 184/4/1 185/4/1
f 189/6/1 188/6/1 187/6/1
f 190/6/1 188/6/1 189/6/1
f 197/5/1 192/5/1 191/5/1
f 198/5/1 192/5/1 197/5/1
f 199/5/1 194/5/1 193/5/1
f 200/5/1 194/5/1 199/5/1
f 201/5/1 196/5/1 195/5/1
f 202/5/1 196/5/1 201/5/1
f 205/5/1 204/5/1 203/5/1
f 206/5/1 204/5/1 205/5/1
f 209/5/1 208/5/1 207/5/1
f 210/5/1 208/5/1 209/5/1
f 215/5/1 212/5/1 211/5/1
f 216/5/1 212/5/1 215/5/1
f 217/5/1 214/5/1 213/5/1
f 218/5/1 214/5/1 217/5/1
f 221/5/1 220/5/1 219/5/1
f 222/5/1 220/5/1 221/5/1
f 225/8/1 224/8/1 223/8/1
f 226/8/1 224/8/1 225/8/1
f 229/8/1 228/8/1 227/8/1
f 230/8/1 228/8/1 229/8/1
f 235/11/1 232/11/1 231/11/1
f 236/11/1 234/11/1 233/11/1
f 237/11/1 235/11/1 231/11/1
f 238/11/1 235/11/1 237/11/1
f 239/11/1 234/11/1 236/11/1
f 240/11/1 234/11/1 239/11/1
f 245/10/1 242/10/1 241/10/1
f 246/10/1 242/10/1 245/10/1
f 247/10/1 244/10/1 243/10/1
f 248/10/1 244/10/1 247/10/1
f 249/10/1 245/10/1 241/10/1
f 250/10/1 245/10/1 249/10/1
f 251/10/1 242/10/1 246/10/1
f 252/10/1 242/10/1 251/10/1
f 254/10/1 247/10/1 243/10/1
f 255/10/1 247/10/1 254/10/1
f 256/10/1 244/10/1 248/10/1
f 257/10/1 244/10/1 256/10/1
f 259/1/1 253/1/1 252/1/1
f 259/1/1 252/1/1 251/1/1
f 260/1/1 253/1/1 259/1/1
f 261/1/1 258/1/1 257/1/1
f 261/1/1 257/1/1 256/1/1
f 262/1/1 258/1/1 261/1/1
f 265/11/1 264/11/1 263/11/1
f 266/11/1 264/11/1 265/11/1
f 267/11/2 268/11/2 271/11/2
f 271/11/2 268/11/2 272/11/2
f 269/11/2 270/11/2 273/11/2
f 273/11/2 270/11/2 274/11/2
f 275/10/2 276/10/2 279/10/2
f 279/10/2 276/10/2 280/10/2
f 277/10/2 278/10/2 281/10/2
f 281/10/2 278/10/2 282/10/2
f 275/10/2 279/10/2 283/10/2
f 283/10/2 279/10/2 284/10/2
f 280/10/2 276/10/2 285/10/2
f 285/10/2 276/10/2 286/10/2
f 277/10/2 281/10/2 288/10/2
f 288/10/2 281/10/2 289/10/2
f 282/10/2 278/10/2 290/10/2
f 290/10/2 278/10/2 291/10/2
f 286/1/2 287/1/2 293/1/2
f 285/1/2 286/1/2 293/1/2
f 293/1/2 287/1/2 294/1/2
f 291/1/2 292/1/2 295/1/2
f 290/1/2 291/1/2 295/1/2
f 295/1/2 292/1/2 296/1/2
f 297/11/2 298/11/2 301/11/2
f 299/11/2 300/11/2 302/11/2
f 297/11/2 301/11/2 303/11/2
f 303/11/2 301/11/2 304/11/2
f 302/11/2 300/11/2 305/11/2
f 305/11/2 300/11/2 306/11/2
f 307/8/2 308/8/2 309/8/2
f 309/8/2 308/8/2 310/8/2
f 311/8/2 312/8/2 313/8/2
f 313/8/2 312/8/2 314/8/2
f 315/5/2 316/5/2 319/5/2
f 319/5/2 316/5/2 320/5/2
f 317/1/2 318/1/2 321/1/2
f 321/1/2 318/1/2 322/1/2
f 323/5/2 324/5/2 329/5/2
f 329/5/2 324/5/2 330/5/2
f 325/5/2 326/5/2 331/5/2
f 331/5/2 326/5/2 332/5/2
f 327/5/2 328/5/2 333/5/2
f 333/5/2 328/5/2 334/5/2
f 335/5/2 336/5/2 337/5/2
f 337/5/2 336/5/2 338/5/2
f 339/8/2 340/8/2 341/8/2
f 341/8/2 340/8/2 342/8/2
f 339/8/2 341/8/2 343/8/2
f 343/8/2 341/8/2 344/8/2
f 345/5/2 346/5/2 347/5/2
f 347/5/2 346/5/2 348/5/2
f 349/7/2 350/7/2 353/7/2
f 353/7/2 350/7/2 354/7/2
f 350/6/2 351/6/2 355/6/2
f 354/7/2 350/7/2 355/7/2
f 351/7/2 352/7/2 356/7/2
f 355/6/2 351/6/2 356/6/2
f 353/6/2 354/6/2 357/6/2
f 349/7/2 353/7/2 357/7/2
f 354/7/2 355/7/2 358/7/2
f 357/6/2 354/6/2 358/6/2
f 355/7/2 356/7/2 358/7/2
f 349/7/2 357/7/2 359/7/2
f 357/7/2 358/7/2 359/7/2
f 358/7/2 356/7/2 360/7/2
f 359/7/2 358/7/2 360/7/2
f 356/7/2 352/7/2 360/7/2
f 361/5/2 362/5/2 363/5/2
f 363/5/2 362/5/2 364/5/2
f 365/5/2 366/5/2 369/5/2
f 369/5/2 366/5/2 370/5/2
f 367/5/2 368/5/2 371/5/2
f 371/5/2 368/5/2 372/5/2
f 373/5/2 374/5/2 375/5/2
f 375/5/2 374/5/2 376/5/2
f 377/5/2 378/5/2 383/5/2
f 383/5/2 378/5/2 384/5/2
f 379/5/2 380/5/2 385/5/2
f 385/5/2 380/5/2 386/5/2
f 381/5/2 382/5/2 387/5/2
f 387/5/2 382/5/2 388/5/2
f 377/5/2 383/5/2 389/5/2
f 384/5/2 378/5/2 390/5/2
f 379/5/2 385/5/2 391/5/2
f 386/5/2 380/5/2 392/5/2
f 381/5/2 387/5/2 393/5/2
f 388/5/2 382/5/2 394/5/2
f 377/5/2 389/5/2 395/5/2
f 389/5/2 390/5/2 395/5/2
f 390/5/2 378/5/2 396/5/2
f 395/5/2 390/5/2 396/5/2
f 379/5/2 391/5/2 397/5/2
f 391/5/2 392/5/2 397/5/2
f 392/5/2 380/5/2 398/5/2
f 397/5/2 392/5/2 398/5/2
f 393/5/2 394/5/2 399/5/2
f 381/5/2 393/5/2 399/5/2
f 394/5/2 382/5/2 400/5/2
f 399/5/2 394/5/2 400/5/2
f 401/5/2 402/5/2 403/5/2
f 403/5/2 402/5/2 404/5/2
f 401/5/2 403/5/2 405/5/2
f 404/5/2 402/5/2 406/5/2
f 401/5/2 405/5/2 407/5/2
f 405/5/2 406/5/2 407/5/2
f 406/5/2 402/5/2 408/5/2
f 407/5/2 406/5/2 408/5/2
f 409/8/2 410/8/2 411/8/2
f 411/8/2 410/8/2 412/8/2
f 413/4/2 414/4/2 419/4/2
f 419/4/2 414/4/2 420/4/2
f 415/4/2 416/4/2 421/4/2
f 421/4/2 416/4/2 422/4/2
f 419/10/2 420/10/2 423/10/2
f 413/4/2 419/4/2 423/4/2
f 423/10/2 420/10/2 424/10/2
f 421/10/2 422/10/2 425/10/2
f 415/4/2 421/4/2 425/4/2
f 425/10/2 422/10/2 426/10/2
f 417/6/2 418/6/2 427/6/2
f 427/6/2 418/6/2 428/6/2
f 423/4/2 424/4/2 429/4/2
f 413/4/2 423/4/2 429/4/2
f 429/4/2 424/4/2 430/4/2
f 425/4/2 426/4/2 431/4/2
f 415/4/2 425/4/2 431/4/2
f 431/4/2 426/4/2 432/4/2
f 433/8/2 434/8/2 439/8/2
f 439/8/2 434/8/2 440/8/2
f 435/8/2 436/8/2 441/8/2
f 441/8/2 436/8/2 442/8/2
f 437/8/2 438/8/2 443/8/2
f 443/8/2 438/8/2 444/8/2
f 445/8/2 446/8/2 447/8/2
f 447/8/2 446/8/2 448/8/2
f 449/8/2 450/8/2 452/8/2
f 450/8/2 451/8/2 452/8/2
f 452/8/2 451/8/2 453/8/2
f 454/2/2 455/2/2 457/2/2
f 457/2/2 455/2/2 458/2/2
f 455/3/2 456/3/2 459/3/2
f 459/3/2 456/3/2 460/3/2
f 457/3/2 458/3/2 461/3/2
f 458/2/2 455/2/2 462/2/2
f 461/3/2 458/3/2 462/3/2
f 459/4/2 460/4/2 463/4/2
f 460/3/2 456/3/2 464/3/2
f 463/4/2 460/4/2 464/4/2
f 457/3/2 461/3/2 465/3/2
f 454/2/2 457/2/2 465/2/2
f 461/2/2 462/2/2 466/2/2
f 465/3/2 461/3/2 466/3/2
f 459/4/2 463/4/2 467/4/2
f 455/3/2 459/3/2 467/3/2
f 463/3/2 464/3/2 468/3/2
f 467/4/2 463/4/2 468/4/2
f 465/2/2 466/2/2 469/2/2
f 454/2/2 465/2/2 469/2/2
f 455/3/2 467/3/2 470/3/2
f 469/2/2 466/2/2 470/2/2
f 466/2/2 462/2/2 470/2/2
f 467/3/2 468/3/2 470/3/2
f 462/2/2 455/2/2 470/2/2
f 464/3/2 456/3/2 471/3/2
f 470/3/2 468/3/2 471/3/2
f 468/3/2 464/3/2 471/3/2
f 472/8/2 473/8/2 474/8/2
f 474/8/2 473/8/2 475/8/2
f 478/9/2 479/9/2 480/9/2
f 480/9/2 479/9/2 481/9/2
f 482/9/2 483/9/2 484/9/2
f 484/9/2 483/9/2 485/9/2
f 476/8/2 477/8/2 486/8/2
f 486/8/2 477/8/2 487/8/2
f 488/11/2 489/11/2 490/11/2
f 490/11/2 489/11/2 491/11/2
f 492/8/2 493/8/2 496/8/2
f 496/8/2 493/8/2 497/8/2
f 497/8/2 493/8/2 498/8/2
f 498/8/2 493/8/2 499/8/2
f 492/8/2 496/8/2 500/8/2
f 496/7/2 497/7/2 500/7/2
f 500/7/2 497/7/2 501/7/2
f 498/7/2 499/7/2 502/7/2
f 499/8/2 493/8/2 503/8/2
f 502/7/2 499/7/2 503/7/2
f 501/8/2 502/8/2 504/8/2
f 500/8/2 501/8/2 504/8/2
f 502/8/2 503/8/2 504/8/2
f 492/8/2 500/8/2 504/8/2
f 504/8/2 503/8/2 505/8/2
f 505/8/2 503/8/2 506/8/2
f 503/8/2 493/8/2 507/8/2
f 506/8/2 503/8/2 507/8/2
f 492/8/2 504/8/2 508/8/2
f 504/7/2 505/7/2 508/7/2
f 508/7/2 505/7/2 509/7/2
f 506/7/2 507/7/2 510/7/2
f 507/8/2 493/8/2 511/8/2
f 510/7/2 507/7/2 511/7/2
f 509/8/2 510/8/2 512/8/2
f 508/8/2 509/8/2 512/8/2
f 510/8/2 511/8/2 512/8/2
f 492/8/2 508/8/2 512/8/2
f 512/8/2 511/8/2 513/8/2
f 513/8/2 511/8/2 514/8/2
f 514/8/2 511/8/2 515/8/2
f 515/8/2 511/8/2 516/8/2
f 516/8/2 511/8/2 517/8/2
f 517/8/2 511/8/2 518/8/2
f 511/8/2 493/8/2 519/8/2
f 518/8/2 511/8/2 519/8/2
f 492/8/2 512/8/2 520/8/2
f 512/7/2 513/7/2 520/7/2
f 520/7/2 513/7/2 521/7/2
f 514/7/2 515/7/2 522/7/2
f 515/8/2 516/8/2 523/8/2
f 522/7/2 515/7/2 523/7/2
f 516/7/2 517/7/2 524/7/2
f 523/8/2 516/8/2 524/8/2
f 524/7/2 517/7/2 525/7/2
f 518/7/2 519/7/2 526/7/2
f 519/8/2 493/8/2 527/8/2
f 526/7/2 519/7/2 527/7/2
f 525/8/2 526/8/2 528/8/2
f 524/8/2 525/8/2 528/8/2
f 526/8/2 527/8/2 528/8/2
f 522/8/2 523/8/2 528/8/2
f 523/8/2 524/8/2 528/8/2
f 521/8/2 522/8/2 528/8/2
f 492/8/2 520/8/2 528/8/2
f 520/8/2 521/8/2 528/8/2
f 528/8/2 527/8/2 529/8/2
f 529/8/2 527/8/2 530/8/2
f 527/8/2 493/8/2 531/8/2
f 530/8/2 527/8/2 531/8/2
f 492/8/2 528/8/2 532/8/2
f 528/7/2 529/7/2 532/7/2
f 532/7/2 529/7/2 533/7/2
f 530/7/2 531/7/2 534/7/2
f 531/8/2 493/8/2 535/8/2
f 534/7/2 531/7/2 535/7/2
f 533/8/2 534/8/2 536/8/2
f 532/8/2 533/8/2 536/8/2
f 534/8/2 535/8/2 536/8/2
f 492/8/2 532/8/2 536/8/2
f 535/8/2 493/8/2 537/8/2
f 536/8/2 535/8/2 537/8/2
f 494/8/2 495/8/2 538/8/2
f 538/8/2 495/8/2 539/8/2
f 540/10/2 541/10/2 544/10/2
f 544/10/2 541/10/2 545/10/2
f 542/10/2 543/10/2 546/10/2
f 546/10/2 543/10/2 547/10/2
f 540/10/2 544/10/2 548/10/2
f 548/10/2 544/10/2 549/10/2
f 545/10/2 541/10/2 550/10/2
f 550/10/2 541/10/2 551/10/2
f 542/10/2 546/10/2 553/10/2
f 553/10/2 546/10/2 554/10/2
f 547/10/2 543/10/2 555/10/2
f 555/10/2 543/10/2 556/10/2
f 551/1/2 552/1/2 558/1/2
f 550/1/2 551/1/2 558/1/2
f 558/1/2 552/1/2 559/1/2
f 556/1/2 557/1/2 560/1/2
f 555/1/2 556/1/2 560/1/2
f 560/1/2 557/1/2 561/1/2
f 562/11/2 563/11/2 564/11/2
f 564/11/2 563/11/2 565/11/2
f 566/11/2 567/11/2 568/11/2
f 568/11/2 567/11/2 569/11/2
f 570/11/2 571/11/2 574/11/2
f 574/11/2 571/11/2 575/11/2
f 572/11/2 573/11/2 576/11/2
f 576/11/2 573/11/2 577/11/2
f 578/11/2 579/11/2 580/11/2
f 580/11/2 579/11/2 581/11/2
f 582/11/2 583/11/2 586/11/2
f 584/11/2 585/11/2 587/11/2
f 582/11/2 586/11/2 588/11/2
f 586/11/2 587/11/2 588/11/2
f 587/11/2 585/11/2 589/11/2
f 588/11/2 587/11/2 589/11/2
f 590/8/2 591/8/2 592/8/2
f 592/8/2 591/8/2 593/8/2
f 596/10/3 595/10/3 594/10/3
f 597/10/3 595/10/3 596/10/3
f 600/10/3 599/10/3 598/10/3
f 601/10/3 599/10/3 600/10/3
f 604/11/3 603/11/3 602/11/3
f 605/11/3 603/11/3 604/11/3
f 606/11/3 603/11/3 605/11/3
f 609/11/3 603/11/3 606/11/3
f 610/11/3 608/11/3 607/11/3
f 610/11/3 609/11/3 608/11/3
f 611/11/3 603/11/3 609/11/3
f 611/11/3 609/11/3 610/11/3
f 614/11/3 613/11/3 612/11/3
f 615/11/3 613/11/3 614/11/3
f 616/11/3 613/11/3 615/11/3
f 619/11/3 613/11/3 616/11/3
f 620/11/3 618/11/3 617/11/3
f 620/11/3 619/11/3 618/11/3
f 621/11/3 613/11/3 619/11/3
f 621/11/3 619/11/3 620/11/3
f 624/1/3 623/1/3 622/1/3
f 625/1/3 623/1/3 624/1/3
f 628/11/3 627/11/3 626/11/3
f 629/11/3 627/11/3 628/11/3
f 632/1/3 631/1/3 630/1/3
f 633/1/3 631/1/3 632/1/3
f 636/8/3 635/8/3 634/8/3
f 637/8/3 635/8/3 636/8/3
f 638/8/3 635/8/3 637/8/3
f 639/8/3 635/8/3 638/8/3
f 642/8/3 641/8/3 640/8/3
f 643/8/3 641/8/3 642/8/3
f 646/8/3 645/8/3 644/8/3
f 647/8/3 645/8/3 646/8/3
f 650/11/3 649/11/3 648/11/3
f 651/11/3 649/11/3 650/11/3
f 654/5/3 653/5/3 652/5/3
f 655/5/3 653/5/3 654/5/3
f 662/11/3 657/11/3 656/11/3
f 663/11/3 657/11/3 662/11/3
f 664/11/3 659/11/3 658/11/3
f 665/11/3 659/11/3 664/11/3
f 666/11/3 661/11/3 660/11/3
f 667/11/3 661/11/3 666/11/3
f 670/5/3 669/5/3 668/5/3
f 671/5/3 669/5/3 670/5/3
f 674/11/3 673/11/3 672/11/3
f 675/11/3 673/11/3 674/11/3
f 678/5/3 677/5/3 676/5/3
f 679/5/3 677/5/3 678/5/3
f 682/5/3 681/5/3 680/5/3
f 683/5/3 681/5/3 682/5/3
f 686/5/3 685/5/3 684/5/3
f 687/5/3 685/5/3 686/5/3
f 692/5/3 689/5/3 688/5/3
f 693/5/3 689/5/3 692/5/3
f 694/7/3 691/7/3 690/7/3
f 695/7/3 691/7/3 694/7/3
f 698/5/3 697/5/3 696/5/3
f 699/5/3 697/5/3 698/5/3
f 704/8/3 703/8/3 702/8/3
f 705/8/3 703/8/3 704/8/3
f 706/5/3 701/5/3 700/5/3
f 707/5/3 701/5/3 706/5/3
f 710/8/3 709/8/3 708/8/3
f 711/8/3 709/8/3 710/8/3
f 714/8/3 713/8/3 712/8/3
f 715/8/3 713/8/3 714/8/3
f 718/8/3 717/8/3 716/8/3
f 719/8/3 717/8/3 718/8/3
f 722/4/3 721/4/3 720/4/3
f 723/4/3 721/4/3 722/4/3
f 726/5/3 725/5/3 724/5/3
f 727/5/3 725/5/3 726/5/3
f 730/5/3 729/5/3 728/5/3
f 731/5/3 729/5/3 730/5/3
f 734/8/3 733/8/3 732/8/3
f 735/8/3 733/8/3 734/8/3
f 738/8/3 737/8/3 736/8/3
f 739/8/3 737/8/3 738/8/3
f 742/1/3 741/1/3 740/1/3
f 743/1/3 741/1/3 742/1/3
f 746/6/3 745/6/3 744/6/3
f 747/6/3 745/6/3 746/6/3
f 752/5/3 749/5/3 748/5/3
f 753/5/3 749/5/3 752/5/3
f 754/5/3 751/5/3 750/5/3
f 755/5/3 751/5/3 754/5/3
f 760/5/3 757/5/3 756/5/3
f 761/5/3 757/5/3 760/5/3
f 762/5/3 759/5/3 758/5/3
f 763/5/3 759/5/3 762/5/3
f 768/8/3 765/8/3 764/8/3
f 769/8/3 765/8/3 768/8/3
f 770/8/3 767/8/3 766/8/3
f 771/8/3 767/8/3 770/8/3
f 776/8/3 773/8/3 772/8/3
f 777/8/3 773/8/3 776/8/3
f 778/8/3 775/8/3 774/8/3
f 779/8/3 775/8/3 778/8/3
f 782/8/3 781/8/3 780/8/3
f 783/8/3 781/8/3 782/8/3
f 784/8/3 781/8/3 783/8/3
f 785/8/3 781/8/3 784/8/3
f 788/8/3 787/8/3 786/8/3
f 789/8/3 787/8/3 788/8/3
f 791/8/3 784/8/3 783/8/3
f 792/8/3 784/8/3 791/8/3
f 793/8/3 781/8/3 785/8/3
f 794/8/3 781/8/3 793/8/3
f 795/8/3 790/8/3 789/8/3
f 796/8/3 790/8/3 795/8/3
f 798/8/3 784/8/3 792/8/3
f 800/8/3 781/8/3 794/8/3
f 801/8/3 782/8/3 780/8/3
f 802/8/3 782/8/3 801/8/3
f 803/8/3 798/8/3 797/8/3
f 804/8/3 784/8/3 798/8/3
f 804/8/3 798/8/3 803/8/3
f 805/8/3 800/8/3 799/8/3
f 806/8/3 781/8/3 800/8/3
f 806/8/3 800/8/3 805/8/3
f 808/8/3 784/8/3 804/8/3
f 810/8/3 781/8/3 806/8/3
f 814/8/3 782/8/3 802/8/3
f 816/8/3 812/8/3 811/8/3
f 817/8/3 812/8/3 816/8/3
f 818/8/3 816/8/3 815/8/3
f 819/8/3 816/8/3 818/8/3
f 820/8/3 814/8/3 813/8/3
f 820/8/3 782/8/3 814/8/3
f 821/8/3 808/8/3 807/8/3
f 822/8/3 784/8/3 808/8/3
f 822/8/3 808/8/3 821/8/3
f 823/8/3 810/8/3 809/8/3
f 824/8/3 820/8/3 813/8/3
f 824/8/3 823/8/3 822/8/3
f 824/8/3 821/8/3 820/8/3
f 824/8/3 822/8/3 821/8/3
f 825/8/3 810/8/3 823/8/3
f 825/8/3 823/8/3 824/8/3
f 825/8/3 781/8/3 810/8/3
f 828/10/3 827/10/3 826/10/3
f 829/10/3 827/10/3 828/10/3
f 832/10/3 831/10/3 830/10/3
f 833/10/3 831/10/3 832/10/3
f 836/11/3 835/11/3 834/11/3
f 837/11/3 835/11/3 836/11/3
f 838/11/3 835/11/3 837/11/3
f 842/11/3 840/11/3 839/11/3
f 842/11/3 841/11/3 840/11/3
f 843/11/3 841/11/3 842/11/3
f 846/8/3 845/8/3 844/8/3
f 847/8/3 845/8/3 846/8/3
f 850/11/3 849/11/3 848/11/3
f 851/11/3 849/11/3 850/11/3
f 853/11/3 849/11/3 851/11/3
f 854/11/3 853/11/3 852/11/3
f 855/11/3 849/11/3 853/11/3
f 855/11/3 853/11/3 854/11/3
f 858/1/3 857/1/3 856/1/3
f 859/1/3 857/1/3 858/1/3
f 860/11/4 861/11/4 862/11/4
f 862/11/4 861/11/4 863/11/4
f 863/11/4 861/11/4 864/11/4
f 865/11/4 866/11/4 868/11/4
f 866/11/4 867/11/4 868/11/4
f 868/11/4 867/11/4 869/11/4
f 870/11/4 871/11/4 872/11/4
f 872/11/4 871/11/4 873/11/4
f 873/11/4 871/11/4 874/11/4
f 875/11/4 876/11/4 878/11/4
f 876/11/4 877/11/4 878/11/4
f 878/11/4 877/11/4 879/11/4
f 880/10/4 881/10/4 882/10/4
f 882/10/4 881/10/4 883/10/4
f 884/10/4 885/10/4 886/10/4
f 886/10/4 885/10/4 887/10/4
f 888/1/4 889/1/4 890/1/4
f 890/1/4 889/1/4 891/1/4
f 892/1/4 893/1/4 894/1/4
f 894/1/4 893/1/4 895/1/4
f 896/11/4 897/11/4 898/11/4
f 898/11/4 897/11/4 899/11/4
f 900/5/4 901/5/4 902/5/4
f 902/5/4 901/5/4 903/5/4
f 904/11/4 905/11/4 910/11/4
f 910/11/4 905/11/4 911/11/4
f 906/11/4 907/11/4 912/11/4
f 912/11/4 907/11/4 913/11/4
f 908/11/4 909/11/4 914/11/4
f 914/11/4 909/11/4 915/11/4
f 916/5/4 917/5/4 918/5/4
f 918/5/4 917/5/4 919/5/4
f 920/5/4 921/5/4 922/5/4
f 922/5/4 921/5/4 923/5/4
f 924/5/4 925/5/4 926/5/4
f 926/5/4 925/5/4 927/5/4
f 928/11/4 929/11/4 930/11/4
f 930/11/4 929/11/4 931/11/4
f 932/5/4 933/5/4 934/5/4
f 934/5/4 933/5/4 935/5/4
f 936/8/4 937/8/4 938/8/4
f 938/8/4 937/8/4 939/8/4
f 939/8/4 937/8/4 940/8/4
f 940/8/4 937/8/4 941/8/4
f 941/8/4 937/8/4 942/8/4
f 942/8/4 937/8/4 943/8/4
f 936/8/4 938/8/4 944/8/4
f 944/8/4 938/8/4 945/8/4
f 945/8/4 938/8/4 947/8/4
f 947/8/4 938/8/4 950/8/4
f 946/8/4 947/8/4 950/8/4
f 939/8/4 940/8/4 951/8/4
f 951/8/4 940/8/4 952/8/4
f 948/8/4 949/8/4 953/8/4
f 946/8/4 950/8/4 954/8/4
f 952/8/4 953/8/4 954/8/4
f 951/8/4 952/8/4 954/8/4
f 950/8/4 951/8/4 954/8/4
f 953/8/4 949/8/4 955/8/4
f 954/8/4 953/8/4 955/8/4
f 956/8/4 957/8/4 958/8/4
f 958/8/4 957/8/4 959/8/4
f 960/4/4 961/4/4 962/4/4
f 962/4/4 961/4/4 963/4/4
f 960/4/4 962/4/4 966/4/4
f 962/10/4 963/10/4 967/10/4
f 966/4/4 962/4/4 967/4/4
f 963/4/4 961/4/4 968/4/4
f 967/10/4 963/10/4 968/10/4
f 968/4/4 961/4/4 969/4/4
f 964/8/4 965/8/4 970/8/4
f 970/8/4 965/8/4 971/8/4
f 972/8/4 973/8/4 974/8/4
f 974/8/4 973/8/4 975/8/4
f 976/5/4 977/5/4 978/5/4
f 978/5/4 977/5/4 979/5/4
f 980/5/4 981/5/4 982/5/4
f 982/5/4 981/5/4 983/5/4
f 984/5/4 985/5/4 986/5/4
f 986/5/4 985/5/4 987/5/4
f 988/8/4 989/8/4 990/8/4
f 990/8/4 989/8/4 991/8/4
f 994/8/4 995/8/4 996/8/4
f 996/8/4 995/8/4 997/8/4
f 992/4/4 993/4/4 998/4/4
f 998/4/4 993/4/4 999/4/4
f 992/4/4 998/4/4 1002/4/4
f 998/10/4 999/10/4 1003/10/4
f 1002/4/4 998/4/4 1003/4/4
f 999/4/4 993/4/4 1004/4/4
f 1003/10/4 999/10/4 1004/10/4
f 1004/4/4 993/4/4 1005/4/4
f 1000/8/4 1001/8/4 1006/8/4
f 1006/8/4 1001/8/4 1007/8/4
f 1010/5/4 1011/5/4 1014/5/4
f 1014/5/4 1011/5/4 1015/5/4
f 1012/8/4 1013/8/4 1016/8/4
f 1016/8/4 1013/8/4 1017/8/4
f 1018/5/4 1019/5/4 1020/5/4
f 1020/5/4 1019/5/4 1021/5/4
f 1008/3/4 1009/3/4 1022/3/4
f 1022/3/4 1009/3/4 1023/3/4
f 1024/7/4 1025/7/4 1026/7/4
f 1026/7/4 1025/7/4 1027/7/4
f 1030/8/4 1031/8/4 1034/8/4
f 1034/8/4 1031/8/4 1035/8/4
f 1032/8/4 1033/8/4 1036/8/4
f 1036/8/4 1033/8/4 1037/8/4
f 1028/1/4 1029/1/4 1038/1/4
f 1038/1/4 1029/1/4 1039/1/4
f 1040/8/4 1041/8/4 1044/8/4
f 1044/8/4 1041/8/4 1045/8/4
f 1042/8/4 1043/8/4 1046/8/4
f 1046/8/4 1043/8/4 1047/8/4
f 1048/8/4 1049/8/4 1050/8/4
f 1048/8/4 1050/8/4 1052/8/4
f 1050/8/4 1051/8/4 1052/8/4
f 1052/8/4 1051/8/4 1053/8/4
f 1048/8/4 1052/8/4 1054/8/4
f 1048/8/4 1054/8/4 1056/8/4
f 1054/8/4 1055/8/4 1056/8/4
f 1056/8/4 1055/8/4 1057/8/4
f 1048/8/4 1056/8/4 1058/8/4
f 1058/8/4 1056/8/4 1059/8/4
f 1059/8/4 1056/8/4 1060/8/4
f 1060/8/4 1056/8/4 1061/8/4
f 1064/8/4 1065/8/4 1066/8/4
f 1066/8/4 1065/8/4 1067/8/4
f 1068/8/4 1069/8/4 1070/8/4
f 1070/8/4 1069/8/4 1071/8/4
f 1062/11/4 1063/11/4 1072/11/4
f 1072/11/4 1063/11/4 1073/11/4
f 1074/11/4 1075/11/4 1076/11/4
f 1076/11/4 1075/11/4 1077/11/4
f 1077/11/4 1075/11/4 1078/11/4
f 1078/11/4 1075/11/4 1081/11/4
f 1079/11/4 1080/11/4 1082/11/4
f 1080/11/4 1081/11/4 1082/11/4
f 1081/11/4 1075/11/4 1083/11/4
f 1082/11/4 1081/11/4 1083/11/4
f 1084/8/4 1085/8/4 1086/8/4
f 1086/8/4 1085/8/4 1087/8/4
f 1088/11/4 1089/11/4 1090/11/4
f 1090/11/4 1089/11/4 1091/11/4
f 1091/11/4 1089/11/4 1092/11/4
f 1092/11/4 1089/11/4 1095/11/4
f 1093/11/4 1094/11/4 1096/11/4
f 1094/11/4 1095/11/4 1096/11/4
f 1095/11/4 1089/11/4 1097/11/4
f 1096/11/4 1095/11/4 1097/11/4
f 1098/10/4 1099/10/4 1100/10/4
f 1100/10/4 1099/10/4 1101/10/4
f 1102/10/4 1103/10/4 1104/10/4
f 1104/10/4 1103/10/4 1105/10/4
f 1106/1/4 1107/1/4 1108/1/4
f 1108/1/4 1107/1/4 1109/1/4
f 1110/1/4 1111/1/4 1112/1/4
f 1112/1/4 1111/1/4 1113/1/4
f 1118/10/5 1115/10/5 1114/10/5
f 1119/10/5 1115/10/5 1118/10/5
f 1120/10/5 1117/10/5 1116/10/5
f 1121/10/5 1117/10/5 1120/10/5
f 1126/10/5 1123/10/5 1122/10/5
f 1127/10/5 1123/10/5 1126/10/5
f 1128/10/5 1125/10/5 1124/10/5
f 1129/10/5 1125/10/5 1128/10/5
f 1138/11/5 1131/11/5 1130/11/5
f 1139/11/5 1131/11/5 1138/11/5
f 1140/11/5 1133/11/5 1132/11/5
f 1141/11/5 1133/11/5 1140/11/5
f 1142/11/5 1135/11/5 1134/11/5
f 1143/11/5 1135/11/5 1142/11/5
f 1144/11/5 1137/11/5 1136/11/5
f 1145/11/5 1137/11/5 1144/11/5
f 1154/11/5 1147/11/5 1146/11/5
f 1155/11/5 1147/11/5 1154/11/5
f 1156/11/5 1149/11/5 1148/11/5
f 1157/11/5 1149/11/5 1156/11/5
f 1158/11/5 1151/11/5 1150/11/5
f 1159/11/5 1151/11/5 1158/11/5
f 1160/11/5 1153/11/5 1152/11/5
f 1161/11/5 1153/11/5 1160/11/5
f 1166/1/5 1163/1/5 1162/1/5
f 1167/1/5 1163/1/5 1166/1/5
f 1168/1/5 1165/1/5 1164/1/5
f 1169/1/5 1165/1/5 1168/1/5
f 1174/1/5 1171/1/5 1170/1/5
f 1175/1/5 1171/1/5 1174/1/5
f 1176/1/5 1173/1/5 1172/1/5
f 1177/1/5 1173/1/5 1176/1/5
f 1183/11/5 1179/11/5 1178/11/5
f 1184/11/5 1179/11/5 1183/11/5
f 1187/11/5 1181/11/5 1180/11/5
f 1188/11/5 1181/11/5 1187/11/5
f 1190/11/5 1183/11/5 1182/11/5
f 1191/11/5 1186/11/5 1185/11/5
f 1191/11/5 1187/11/5 1186/11/5
f 1191/11/5 1185/11/5 1184/11/5
f 1192/11/5 1187/11/5 1191/11/5
f 1193/11/5 1189/11/5 1188/11/5
f 1194/11/5 1190/11/5 1182/11/5
f 1194/11/5 1193/11/5 1192/11/5
f 1194/11/5 1192/11/5 1191/11/5
f 1194/11/5 1191/11/5 1190/11/5
f 1195/11/5 1193/11/5 1194/11/5
f 1196/11/5 1193/11/5 1195/11/5
f 1197/11/5 1193/11/5 1196/11/5
f 1198/11/5 1193/11/5 1197/11/5
f 1199/11/5 1189/11/5 1193/11/5
f 1199/11/5 1193/11/5 1198/11/5
f 1200/11/5 1196/11/5 1195/11/5
f 1201/11/5 1196/11/5 1200/11/5
f 1204/8/5 1203/8/5 1202/8/5
f 1205/8/5 1203/8/5 1204/8/5
f 1208/11/5 1207/11/5 1206/11/5
f 1209/11/5 1207/11/5 1208/11/5
f 1212/9/5 1211/9/5 1210/9/5
f 1213/9/5 1211/9/5 1212/9/5
f 1218/8/5 1215/8/5 1214/8/5
f 1219/8/5 1215/8/5 1218/8/5
f 1220/8/5 1217/8/5 1216/8/5
f 1221/8/5 1217/8/5 1220/8/5
f 1226/8/5 1223/8/5 1222/8/5
f 1227/8/5 1223/8/5 1226/8/5
f 1228/8/5 1225/8/5 1224/8/5
f 1229/8/5 1225/8/5 1228/8/5
f 1234/8/5 1231/8/5 1230/8/5
f 1235/8/5 1231/8/5 1234/8/5
f 1236/8/5 1233/8/5 1232/8/5
f 1237/8/5 1233/8/5 1236/8/5
f 1240/11/5 1239/11/5 1238/11/5
f 1241/11/5 1239/11/5 1240/11/5
f 1244/11/5 1243/11/5 1242/11/5
f 1245/11/5 1243/11/5 1244/11/5
f 1248/11/5 1247/11/5 1246/11/5
f 1249/11/5 1247/11/5 1248/11/5
f 1252/9/5 1251/9/5 1250/9/5
f 1253/9/5 1251/9/5 1252/9/5
f 1256/11/5 1255/11/5 1254/11/5
f 1257/11/5 1255/11/5 1256/11/5
f 1262/8/5 1259/8/5 1258/8/5
f 1263/8/5 1259/8/5 1262/8/5
f 1264/8/5 1261/8/5 1260/8/5
f 1265/8/5 1261/8/5 1264/8/5
f 1268/8/5 1267/8/5 1266/8/5
f 1269/8/5 1267/8/5 1268/8/5
f 1273/8/5 1267/8/5 1269/8/5
f 1274/8/5 1271/8/5 1270/8/5
f 1275/8/5 1273/8/5 1272/8/5
f 1276/8/5 1274/8/5 1270/8/5
f 1277/8/5 1273/8/5 1275/8/5
f 1278/8/5 1276/8/5 1270/8/5
f 1278/8/5 1277/8/5 1276/8/5
f 1279/8/5 1273/8/5 1277/8/5
f 1279/8/5 1277/8/5 1278/8/5
f 1279/8/5 1267/8/5 1273/8/5
f 1280/8/5 1267/8/5 1279/8/5
f 1281/8/5 1267/8/5 1280/8/5
f 1286/8/5 1283/8/5 1282/8/5
f 1287/8/5 1285/8/5 1284/8/5
f 1288/8/5 1283/8/5 1286/8/5
f 1289/8/5 1283/8/5 1288/8/5
f 1290/8/5 1287/8/5 1284/8/5
f 1291/8/5 1287/8/5 1290/8/5
f 1292/8/5 1290/8/5 1289/8/5
f 1293/8/5 1290/8/5 1292/8/5
f 1294/10/6 1295/10/6 1298/10/6
f 1298/10/6 1295/10/6 1299/10/6
f 1296/10/6 1297/10/6 1300/10/6
f 1300/10/6 1297/10/6 1301/10/6
f 1298/10/6 1299/10/6 1302/10/6
f 1302/10/6 1299/10/6 1303/10/6
f 1300/10/6 1301/10/6 1304/10/6
f 1304/10/6 1301/10/6 1305/10/6
f 1306/10/6 1307/10/6 1310/10/6
f 1310/10/6 1307/10/6 1311/10/6
f 1308/10/6 1309/10/6 1312/10/6
f 1312/10/6 1309/10/6 1313/10/6
f 1310/10/6 1311/10/6 1314/10/6
f 1314/10/6 1311/10/6 1315/10/6
f 1316/1/6 1317/1/6 1320/1/6
f 1320/1/6 1317/1/6 1321/1/6
f 1318/1/6 1319/1/6 1322/1/6
f 1322/1/6 1319/1/6 1323/1/6
f 1324/11/6 1325/11/6 1328/11/6
f 1326/11/6 1327/11/6 1329/11/6
f 1324/11/6 1328/11/6 1330/11/6
f 1328/11/6 1329/11/6 1330/11/6
f 1329/11/6 1327/11/6 1331/11/6
f 1330/11/6 1329/11/6 1331/11/6
f 1324/11/6 1330/11/6 1332/11/6
f 1332/11/6 1330/11/6 1333/11/6
f 1331/11/6 1327/11/6 1334/11/6
f 1334/11/6 1327/11/6 1335/11/6
f 1324/11/6 1332/11/6 1336/11/6
f 1335/11/6 1327/11/6 1339/11/6
f 1336/11/6 1337/11/6 1340/11/6
f 1340/11/6 1337/11/6 1341/11/6
f 1341/11/6 1337/11/6 1342/11/6
f 1338/11/6 1339/11/6 1343/11/6
f 1341/11/6 1342/11/6 1344/11/6
f 1342/11/6 1343/11/6 1344/11/6
f 1343/11/6 1339/11/6 1345/11/6
f 1344/11/6 1343/11/6 1345/11/6
f 1336/11/6 1340/11/6 1346/11/6
f 1341/11/6 1344/11/6 1347/11/6
f 1336/11/6 1346/11/6 1348/11/6
f 1346/11/6 1347/11/6 1348/11/6
f 1324/11/6 1336/11/6 1348/11/6
f 1347/11/6 1344/11/6 1349/11/6
f 1348/11/6 1347/11/6 1349/11/6
f 1349/11/6 1344/11/6 1350/11/6
f 1345/11/6 1339/11/6 1351/11/6
f 1349/11/6 1350/11/6 1352/11/6
f 1350/11/6 1351/11/6 1352/11/6
f 1351/11/6 1339/11/6 1353/11/6
f 1352/11/6 1351/11/6 1353/11/6
f 1324/11/6 1348/11/6 1354/11/6
f 1349/11/6 1352/11/6 1355/11/6
f 1324/11/6 1354/11/6 1356/11/6
f 1354/11/6 1355/11/6 1356/11/6
f 1355/11/6 1352/11/6 1357/11/6
f 1356/11/6 1355/11/6 1357/11/6
f 1353/11/6 1339/11/6 1358/11/6
f 1339/11/6 1327/11/6 1359/11/6
f 1358/11/6 1339/11/6 1359/11/6
f 1324/11/6 1356/11/6 1360/11/6
f 1359/11/6 1327/11/6 1361/11/6
f 1360/11/6 1361/11/6 1362/11/6
f 1362/11/6 1361/11/6 1363/11/6
f 1324/11/6 1360/11/6 1364/11/6
f 1360/11/6 1362/11/6 1364/11/6
f 1364/11/6 1362/11/6 1365/11/6
f 1363/11/6 1361/11/6 1366/11/6
f 1361/11/6 1327/11/6 1367/11/6
f 1366/11/6 1361/11/6 1367/11/6
f 1368/8/6 1369/8/6 1370/8/6
f 1370/8/6 1369/8/6 1371/8/6
f 1372/6/6 1373/6/6 1374/6/6
f 1374/6/6 1373/6/6 1375/6/6
f 1372/6/6 1374/6/6 1376/6/6
f 1374/10/6 1375/10/6 1376/10/6
f 1376/10/6 1375/10/6 1377/10/6
f 1375/6/6 1373/6/6 1378/6/6
f 1377/10/6 1375/10/6 1378/10/6
f 1378/6/6 1373/6/6 1379/6/6
f 1376/6/6 1377/6/6 1380/6/6
f 1377/10/6 1378/10/6 1380/10/6
f 1378/10/6 1379/10/6 1380/10/6
f 1379/6/6 1373/6/6 1381/6/6
f 1380/10/6 1379/10/6 1381/10/6
f 1376/6/6 1380/6/6 1382/6/6
f 1372/6/6 1376/6/6 1382/6/6
f 1380/6/6 1381/6/6 1382/6/6
f 1381/6/6 1373/6/6 1383/6/6
f 1382/6/6 1381/6/6 1383/6/6
f 1384/4/6 1385/4/6 1388/4/6
f 1388/4/6 1385/4/6 1389/4/6
f 1386/5/6 1387/5/6 1392/5/6
f 1392/5/6 1387/5/6 1393/5/6
f 1390/4/6 1391/4/6 1396/4/6
f 1396/4/6 1391/4/6 1397/4/6
f 1394/1/6 1395/1/6 1398/1/6
f 1398/1/6 1395/1/6 1399/1/6
f 1398/6/6 1399/6/6 1400/6/6
f 1399/1/6 1395/1/6 1401/1/6
f 1400/6/6 1399/6/6 1401/6/6
f 1400/1/6 1401/1/6 1402/1/6
f 1401/1/6 1395/1/6 1403/1/6
f 1402/1/6 1401/1/6 1403/1/6
f 1404/11/6 1405/11/6 1406/11/6
f 1406/11/6 1405/11/6 1407/11/6
f 1408/9/6 1409/9/6 1410/9/6
f 1410/9/6 1409/9/6 1411/9/6
f 1411/9/6 1409/9/6 1412/9/6
f 1412/9/6 1409/9/6 1413/9/6
f 1408/9/6 1410/9/6 1414/9/6
f 1411/9/6 1412/9/6 1415/9/6
f 1415/9/6 1412/9/6 1416/9/6
f 1413/9/6 1409/9/6 1417/9/6
f 1415/9/6 1416/9/6 1418/9/6
f 1416/9/6 1417/9/6 1418/9/6
f 1408/9/6 1414/9/6 1418/9/6
f 1414/9/6 1415/9/6 1418/9/6
f 1418/9/6 1417/9/6 1419/9/6
f 1419/9/6 1417/9/6 1420/9/6
f 1417/9/6 1409/9/6 1421/9/6
f 1420/9/6 1417/9/6 1421/9/6
f 1408/9/6 1418/9/6 1422/9/6
f 1419/9/6 1420/9/6 1423/9/6
f 1423/9/6 1420/9/6 1424/9/6
f 1421/9/6 1409/9/6 1425/9/6
f 1408/9/6 1422/9/6 1426/9/6
f 1424/9/6 1425/9/6 1426/9/6
f 1423/9/6 1424/9/6 1426/9/6
f 1422/9/6 1423/9/6 1426/9/6
f 1426/9/6 1425/9/6 1427/9/6
f 1427/9/6 1425/9/6 1428/9/6
f 1425/9/6 1409/9/6 1429/9/6
f 1428/9/6 1425/9/6 1429/9/6
f 1408/9/6 1426/9/6 1430/9/6
f 1430/9/6 1426/9/6 1431/9/6
f 1427/9/6 1428/9/6 1432/9/6
f 1432/9/6 1428/9/6 1433/9/6
f 1429/9/6 1409/9/6 1434/9/6
f 1434/9/6 1409/9/6 1435/9/6
f 1436/8/6 1437/8/6 1440/8/6
f 1440/8/6 1437/8/6 1441/8/6
f 1438/8/6 1439/8/6 1442/8/6
f 1442/8/6 1439/8/6 1443/8/6
f 1444/8/6 1445/8/6 1448/8/6
f 1448/8/6 1445/8/6 1449/8/6
f 1446/8/6 1447/8/6 1450/8/6
f 1450/8/6 1447/8/6 1451/8/6
f 1452/8/6 1453/8/6 1456/8/6
f 1456/8/6 1453/8/6 1457/8/6
f 1454/8/6 1455/8/6 1458/8/6
f 1458/8/6 1455/8/6 1459/8/6
f 1460/11/6 1461/11/6 1462/11/6
f 1462/11/6 1461/11/6 1463/11/6
f 1464/5/6 1465/5/6 1468/5/6
f 1468/5/6 1465/5/6 1469/5/6
f 1466/5/6 1467/5/6 1470/5/6
f 1470/5/6 1467/5/6 1471/5/6
f 1472/5/6 1473/5/6 1476/5/6
f 1476/5/6 1473/5/6 1477/5/6
f 1474/5/6 1475/5/6 1478/5/6
f 1478/5/6 1475/5/6 1479/5/6
f 1480/5/6 1481/5/6 1484/5/6
f 1484/5/6 1481/5/6 1485/5/6
f 1482/5/6 1483/5/6 1486/5/6
f 1486/5/6 1483/5/6 1487/5/6
f 1488/11/6 1489/11/6 1490/11/6
f 1490/11/6 1489/11/6 1491/11/6
f 1492/11/6 1493/11/6 1494/11/6
f 1494/11/6 1493/11/6 1495/11/6
f 1496/9/6 1497/9/6 1500/9/6
f 1498/9/6 1499/9/6 1501/9/6
f 1496/9/6 1500/9/6 1502/9/6
f 1501/9/6 1499/9/6 1503/9/6
f 1502/9/6 1503/9/6 1504/9/6
f 1504/9/6 1503/9/6 1505/9/6
f 1505/9/6 1503/9/6 1506/9/6
f 1506/9/6 1503/9/6 1507/9/6
f 1496/9/6 1502/9/6 1508/9/6
f 1502/9/6 1504/9/6 1508/9/6
f 1508/9/6 1504/9/6 1509/9/6
f 1505/9/6 1506/9/6 1510/9/6
f 1510/9/6 1506/9/6 1511/9/6
f 1507/9/6 1503/9/6 1512/9/6
f 1503/9/6 1499/9/6 1513/9/6
f 1512/9/6 1503/9/6 1513/9/6
f 1514/11/6 1515/11/6 1516/11/6
f 1516/11/6 1515/11/6 1517/11/6
f 1518/8/6 1519/8/6 1522/8/6
f 1522/8/6 1519/8/6 1523/8/6
f 1520/8/6 1521/8/6 1524/8/6
f 1524/8/6 1521/8/6 1525/8/6
f 1526/5/6 1527/5/6 1530/5/6
f 1530/5/6 1527/5/6 1531/5/6
f 1528/5/6 1529/5/6 1532/5/6
f 1532/5/6 1529/5/6 1533/5/6
f 1534/8/6 1535/8/6 1537/8/6
f 1537/8/6 1535/8/6 1538/8/6
f 1536/8/6 1537/8/6 1538/8/6
f 1538/8/6 1535/8/6 1539/8/6
f 1536/8/6 1538/8/6 1540/8/6
f 1539/8/6 1535/8/6 1541/8/6
f 1541/8/6 1535/8/6 1542/8/6
f 1540/8/6 1541/8/6 1542/8/6
f 1542/8/6 1535/8/6 1543/8/6
f 1540/8/6 1542/8/6 1544/8/6
f 1544/8/6 1542/8/6 1545/8/6
f 1543/8/6 1535/8/6 1546/8/6
f 1546/8/6 1535/8/6 1547/8/6
f 1540/8/6 1544/8/6 1548/8/6
f 1547/8/6 1535/8/6 1551/8/6
f 1548/8/6 1549/8/6 1552/8/6
f 1550/8/6 1551/8/6 1553/8/6
f 1548/8/6 1552/8/6 1554/8/6
f 1552/8/6 1553/8/6 1554/8/6
f 1540/8/6 1548/8/6 1554/8/6
f 1554/8/6 1553/8/6 1555/8/6
f 1555/8/6 1553/8/6 1556/8/6
f 1556/8/6 1553/8/6 1557/8/6
f 1540/8/6 1554/8/6 1558/8/6
f 1557/8/6 1553/8/6 1559/8/6
f 1536/8/6 1540/8/6 1560/8/6
f 1558/8/6 1559/8/6 1560/8/6
f 1540/8/6 1558/8/6 1560/8/6
f 1560/8/6 1559/8/6 1561/8/6
f 1559/8/6 1553/8/6 1562/8/6
f 1561/8/6 1559/8/6 1562/8/6
f 1553/8/6 1551/8/6 1562/8/6
f 1551/8/6 1535/8/6 1562/8/6
f 1562/8/6 1535/8/6 1563/8/6
f 1536/8/6 1560/8/6 1564/8/6
f 1564/8/6 1560/8/6 1565/8/6
f 1561/8/6 1562/8/6 1566/8/6
f 1566/8/6 1562/8/6 1567/8/6
f 1563/8/6 1535/8/6 1568/8/6
f 1568/8/6 1535/8/6 1569/8/6
f 1570/5/6 1571/5/6 1572/5/6
f 1572/5/6 1571/5/6 1573/5/6
f 1570/5/6 1572/5/6 1574/5/6
f 1572/8/6 1573/8/6 1574/8/6
f 1573/5/6 1571/5/6 1575/5/6
f 1574/8/6 1573/8/6 1575/8/6
f 1570/5/6 1574/5/6 1576/5/6
f 1574/5/6 1575/5/6 1576/5/6
f 1575/5/6 1571/5/6 1577/5/6
f 1576/5/6 1575/5/6 1577/5/6
f 1578/5/6 1579/5/6 1580/5/6
f 1580/5/6 1579/5/6 1581/5/6
f 1582/8/6 1583/8/6 1586/8/6
f 1586/8/6 1583/8/6 1587/8/6
f 1584/8/6 1585/8/6 1588/8/6
f 1588/8/6 1585/8/6 1589/8/6
f 1590/8/6 1591/8/6 1594/8/6
f 1594/8/6 1591/8/6 1595/8/6
f 1592/8/6 1593/8/6 1596/8/6
f 1596/8/6 1593/8/6 1597/8/6
f 1595/8/6 1596/8/6 1598/8/6
f 1598/8/6 1596/8/6 1599/8/6
f 1600/5/6 1601/5/6 1603/5/6
f 1603/5/6 1601/5/6 1604/5/6
f 1602/5/6 1603/5/6 1606/5/6
f 1606/5/6 1603/5/6 1607/5/6
f 1604/5/6 1605/5/6 1608/5/6
f 1608/5/6 1605/5/6 1609/5/6
f 1607/5/6 1608/5/6 1610/5/6
f 1610/5/6 1608/5/6 1611/5/6
f 1612/7/6 1613/7/6 1614/7/6
f 1614/7/6 1613/7/6 1615/7/6
f 1612/7/6 1614/7/6 1616/7/6
f 1615/7/6 1613/7/6 1617/7/6
f 1612/7/6 1616/7/6 1618/7/6
f 1616/7/6 1617/7/6 1618/7/6
f 1617/7/6 1613/7/6 1619/7/6
f 1618/7/6 1617/7/6 1619/7/6
f 1620/8/6 1621/8/6 1622/8/6
f 1622/8/6 1621/8/6 1623/8/6
f 1624/8/6 1625/8/6 1626/8/6
f 1626/8/6 1625/8/6 1627/8/6
