# MagicaVoxel @ Ephtracy

# group
o 

# material
mtllib medicalComp.mtl
usemtl palette

# normals
vn -1 0 0
vn 1 0 0
vn 0 0 1
vn 0 0 -1
vn 0 -1 0
vn 0 1 0

# texcoords
vt 0.314453 0.5
vt 0.345703 0.5
vt 0.349609 0.5
vt 0.373047 0.5
vt 0.451172 0.5
vt 0.580078 0.5
vt 0.619141 0.5
vt 0.642578 0.5
vt 0.994141 0.5

# verts
v -1.5 0.1 0.3
v -1.5 0.1 0.2
v -1.5 0.1 -1.1
v -1.5 0.1 -1.2
v -1.5 0.2 0.3
v -1.5 0.2 0.2
v -1.5 0.2 -1.1
v -1.5 0.2 -1.2
v -1.4 0 0.4
v -1.4 0 0.0999999
v -1.4 0 -1
v -1.4 0 -1.3
v -1.4 0.1 0.3
v -1.4 0.1 0.2
v -1.4 0.1 -1.1
v -1.4 0.1 -1.2
v -1.4 0.2 0.3
v -1.4 0.2 0.2
v -1.4 0.2 -1.1
v -1.4 0.2 -1.2
v -1.4 0.3 0.4
v -1.4 0.3 0.3
v -1.4 0.3 0.2
v -1.4 0.3 0.0999999
v -1.4 0.3 -1
v -1.4 0.3 -1.1
v -1.4 0.3 -1.2
v -1.4 0.3 -1.3
v -1.4 0.4 0.3
v -1.4 0.4 0.2
v -1.4 0.4 -1.1
v -1.4 0.4 -1.2
v -1.3 0.4 0.3
v -1.3 0.4 0.2
v -1.3 0.4 -1.1
v -1.3 0.4 -1.2
v -1.3 0.5 0.3
v -1.3 0.5 0.2
v -1.3 0.5 -1.1
v -1.3 0.5 -1.2
v -1.1 1.1 0.5
v -1.1 1.1 0.2
v -1.1 1.2 0.4
v -1.1 1.2 0.3
v -1.1 1.4 0.4
v -1.1 1.4 0.3
v -1.1 1.5 0.5
v -1.1 1.5 0.2
v -1.1 2.3 0.4
v -1.1 2.3 -0.2
v -1.1 2.3 -0.6
v -1.1 2.3 -1.3
v -1.1 2.4 -0.2
v -1.1 2.4 -0.3
v -1.1 2.4 -0.5
v -1.1 2.4 -0.6
v -1.1 2.7 0.4
v -1.1 2.7 -0.2
v -1.1 2.7 -0.3
v -1.1 2.7 -0.5
v -1.1 2.7 -0.6
v -1.1 2.7 -1.3
v -1.1 2.8 -0.2
v -1.1 2.8 -0.3
v -1.1 2.8 -0.5
v -1.1 2.8 -0.6
v -1.1 3.2 0.2
v -1.1 3.2 -0.3
v -1.1 3.2 -0.5
v -1.1 3.2 -1
v -1.1 3.3 0.0999999
v -1.1 3.3 -1.19209e-07
v -1.1 3.3 -0.1
v -1.1 3.3 -0.2
v -1.1 3.3 -0.3
v -1.1 3.3 -0.4
v -1.1 3.3 -0.5
v -1.1 3.3 -0.6
v -1.1 3.3 -0.7
v -1.1 3.3 -0.8
v -1.1 3.4 0.0999999
v -1.1 3.4 -1.19209e-07
v -1.1 3.4 -0.1
v -1.1 3.4 -0.2
v -1.1 3.4 -0.3
v -1.1 3.4 -0.4
v -1.1 3.4 -0.5
v -1.1 3.4 -0.6
v -1.1 3.4 -0.7
v -1.1 3.4 -0.8
v -1.1 3.9 0.2
v -1.1 3.9 -1
v -1 0.8 0.2
v -1 0.8 -1.1
v -1 1.1 0.2
v -1 1.5 0.2
v -1 2.3 0.2
v -1 2.3 -0.2
v -1 2.3 -0.6
v -1 2.3 -1.1
v -1 3.1 0.3
v -1 3.1 -0.3
v -1 3.1 -0.5
v -1 3.1 -1.1
v -1 3.2 0.2
v -1 3.2 -0.3
v -1 3.2 -0.5
v -1 3.2 -1
v -1 3.9 0.2
v -1 3.9 -1
v -1 4 0.3
v -1 4 -1.1
v -0.9 0.5 0.3
v -0.9 0.5 0.2
v -0.9 0.5 0.0999999
v -0.9 0.5 -1
v -0.9 0.5 -1.1
v -0.9 0.5 -1.2
v -0.9 0.6 0.3
v -0.9 0.6 0.0999999
v -0.9 0.6 -1
v -0.9 0.6 -1.2
v -0.9 0.9 0.4
v -0.9 0.9 0.2
v -0.9 1.1 0.4
v -0.9 1.1 0.2
v -0.9 1.5 0.4
v -0.9 1.5 0.2
v -0.9 1.6 0.4
v -0.9 1.6 0.2
v -0.9 1.7 -1.1
v -0.9 1.7 -1.3
v -0.9 1.9 -1.1
v -0.9 1.9 -1.3
v -0.8 0.6 0.2
v -0.8 0.6 0.0999999
v -0.8 0.6 -1
v -0.8 0.6 -1.1
v -0.8 0.7 0.2
v -0.8 0.7 -1.1
v -0.8 1.9 -1.1
v -0.8 1.9 -1.2
v -0.8 2.1 -1.1
v -0.8 2.1 -1.2
v -0.7 1.6 0.3
v -0.7 1.6 0.2
v -0.7 1.7 0.3
v -0.7 1.7 0.2
v -0.7 1.8 -1.1
v -0.7 1.8 -1.2
v -0.7 1.9 -1.1
v -0.7 1.9 -1.2
v -0.7 2.1 -1.1
v -0.7 2.1 -1.2
v -0.7 2.3 -1.1
v -0.7 2.3 -1.2
v -0.6 0.7 -1.19209e-07
v -0.6 0.7 -0.9
v -0.6 0.8 -1.19209e-07
v -0.6 0.8 -0.9
v -0.6 1.7 0.3
v -0.6 1.7 0.2
v -0.6 1.8 0.3
v -0.6 1.8 0.2
v -0.3 2.4 0.2
v -0.3 2.4 -0.6
v -0.3 2.4 -0.8
v -0.3 2.4 -0.9
v -0.3 2.4 -1
v -0.3 2.5 0.2
v -0.3 2.5 -0.6
v -0.3 2.5 -0.8
v -0.3 2.5 -0.9
v -0.3 2.5 -1
v -0.2 0.5 0.2
v -0.2 0.5 0.0999999
v -0.2 0.5 -1
v -0.2 0.5 -1.1
v -0.2 0.6 0.0999999
v -0.2 0.6 -1
v -0.2 0.7 0.2
v -0.2 0.7 0.0999999
v -0.2 0.7 -1
v -0.2 0.7 -1.1
v -0.2 1.8 -1.1
v -0.2 1.8 -1.2
v -0.2 1.9 -1.1
v -0.2 1.9 -1.2
v -0.2 2.6 -1.19209e-07
v -0.2 2.6 -0.9
v -0.2 2.7 -1.19209e-07
v -0.2 2.7 -0.9
v -0.0999999 0.4 0.3
v -0.0999999 0.4 0.0999999
v -0.0999999 0.4 -1.1
v -0.0999999 0.4 -1.2
v -0.0999999 0.5 0.2
v -0.0999999 0.5 0.0999999
v -0.0999999 0.5 -1.1
v -0.0999999 0.6 0.3
v -0.0999999 0.6 0.2
v -0.0999999 0.6 -1.1
v -0.0999999 0.6 -1.2
v -0.0999999 1.6 0.3
v -0.0999999 1.6 0.2
v -0.0999999 1.7 0.3
v -0.0999999 1.7 0.2
v 0.3 0.1 0.3
v 0.3 0.1 0.2
v 0.3 0.1 -1.1
v 0.3 0.1 -1.2
v 0.3 0.2 0.3
v 0.3 0.2 0.2
v 0.3 0.2 -1.1
v 0.3 0.2 -1.2
v 0.3 0.3 0.3
v 0.3 0.3 0.2
v 0.3 0.3 -1.1
v 0.3 0.3 -1.2
v 0.3 0.4 0.3
v 0.3 0.4 0.2
v 0.3 0.4 -1.1
v 0.3 0.4 -1.2
v 0.4 0 0.4
v 0.4 0 0.0999999
v 0.4 0 -1
v 0.4 0 -1.3
v 0.4 0.1 0.3
v 0.4 0.1 0.2
v 0.4 0.1 -1.1
v 0.4 0.1 -1.2
v 0.4 0.2 0.3
v 0.4 0.2 0.2
v 0.4 0.2 -1.1
v 0.4 0.2 -1.2
v 0.4 0.3 0.4
v 0.4 0.3 0.3
v 0.4 0.3 0.2
v 0.4 0.3 0.0999999
v 0.4 0.3 -1
v 0.4 0.3 -1.1
v 0.4 0.3 -1.2
v 0.4 0.3 -1.3
v -1.3 0 0.4
v -1.3 0 0.0999999
v -1.3 0 -1
v -1.3 0 -1.3
v -1.3 0.1 0.3
v -1.3 0.1 0.2
v -1.3 0.1 -1.1
v -1.3 0.1 -1.2
v -1.3 0.2 0.3
v -1.3 0.2 0.2
v -1.3 0.2 -1.1
v -1.3 0.2 -1.2
v -1.3 0.3 0.4
v -1.3 0.3 0.3
v -1.3 0.3 0.2
v -1.3 0.3 0.0999999
v -1.3 0.3 -1
v -1.3 0.3 -1.1
v -1.3 0.3 -1.2
v -1.3 0.3 -1.3
v -1.2 0.1 0.3
v -1.2 0.1 0.2
v -1.2 0.1 -1.1
v -1.2 0.1 -1.2
v -1.2 0.2 0.3
v -1.2 0.2 0.2
v -1.2 0.2 -1.1
v -1.2 0.2 -1.2
v -1.2 0.3 0.3
v -1.2 0.3 0.2
v -1.2 0.3 -1.1
v -1.2 0.3 -1.2
v -1.2 0.4 0.3
v -1.2 0.4 0.2
v -1.2 0.4 -1.1
v -1.2 0.4 -1.2
v -1 2.8 -0.3
v -1 2.8 -0.5
v -1 3.1 -0.3
v -1 3.1 -0.5
v -0.9 1.1 0.5
v -0.9 1.1 0.4
v -0.9 1.5 0.5
v -0.9 1.5 0.4
v -0.9 2.7 -0.2
v -0.9 2.7 -0.6
v -0.9 2.8 -0.2
v -0.9 2.8 -0.6
v -0.9 3.1 0.3
v -0.9 3.1 -1.1
v -0.9 3.2 0.2
v -0.9 3.2 -1
v -0.9 3.9 0.2
v -0.9 3.9 -1
v -0.9 4 0.3
v -0.9 4 -1.1
v -0.8 0.4 0.3
v -0.8 0.4 0.2
v -0.8 0.4 -1.1
v -0.8 0.4 -1.2
v -0.8 0.5 0.2
v -0.8 0.5 -1.1
v -0.8 0.6 0.3
v -0.8 0.6 0.2
v -0.8 0.6 -1.1
v -0.8 0.6 -1.2
v -0.8 1.8 -1.1
v -0.8 1.8 -1.2
v -0.8 1.9 -1.1
v -0.8 1.9 -1.2
v -0.8 2.4 0.4
v -0.8 2.4 -1.3
v -0.8 2.5 0.4
v -0.8 2.5 -1.3
v -0.7 0.5 0.2
v -0.7 0.5 0.0999999
v -0.7 0.5 -1
v -0.7 0.5 -1.1
v -0.7 0.6 0.0999999
v -0.7 0.6 -1
v -0.7 0.7 0.2
v -0.7 0.7 0.0999999
v -0.7 0.7 -1
v -0.7 0.7 -1.1
v -0.7 2.5 0.4
v -0.7 2.5 -1.3
v -0.7 2.6 0.4
v -0.7 2.6 -1.3
v -0.6 1.6 0.3
v -0.6 1.6 0.2
v -0.6 1.7 0.3
v -0.6 1.7 0.2
v -0.6 1.8 -1.1
v -0.6 1.8 -1.2
v -0.6 1.9 -1.1
v -0.6 1.9 -1.2
v -0.3 0.7 -1.19209e-07
v -0.3 0.7 -0.9
v -0.3 0.8 -1.19209e-07
v -0.3 0.8 -0.9
v -0.3 2.6 0.4
v -0.3 2.6 0.3
v -0.3 2.6 -1.19209e-07
v -0.3 2.6 -0.9
v -0.3 2.6 -1.2
v -0.3 2.6 -1.3
v -0.3 2.7 0.4
v -0.3 2.7 0.3
v -0.3 2.7 -1.19209e-07
v -0.3 2.7 -0.9
v -0.3 2.7 -1.2
v -0.3 2.7 -1.3
v -0.2 1.9 -1.1
v -0.2 1.9 -1.2
v -0.2 2.3 -1.1
v -0.2 2.3 -1.2
v -0.2 2.6 0.3
v -0.2 2.6 0.2
v -0.2 2.6 -1.1
v -0.2 2.6 -1.2
v -0.2 2.7 0.3
v -0.2 2.7 0.2
v -0.2 2.7 -1.1
v -0.2 2.7 -1.2
v -0.0999999 0.6 0.2
v -0.0999999 0.6 0.0999999
v -0.0999999 0.6 -1
v -0.0999999 0.6 -1.1
v -0.0999999 0.7 0.2
v -0.0999999 0.7 -1.1
v -0.0999999 1.7 0.3
v -0.0999999 1.7 0.2
v -0.0999999 1.7 -1.1
v -0.0999999 1.7 -1.3
v -0.0999999 1.8 0.3
v -0.0999999 1.8 0.2
v -0.0999999 1.9 -1.1
v -0.0999999 1.9 -1.3
v -0.0999999 2.6 0.2
v -0.0999999 2.6 -1.1
v -0.0999999 2.7 0.2
v -0.0999999 2.7 -1.1
v 1.19209e-07 0.5 0.3
v 1.19209e-07 0.5 0.0999999
v 1.19209e-07 0.5 -1
v 1.19209e-07 0.5 -1.1
v 1.19209e-07 0.5 -1.2
v 1.19209e-07 0.6 0.3
v 1.19209e-07 0.6 0.0999999
v 1.19209e-07 0.6 -1
v 1.19209e-07 0.6 -1.2
v 1.19209e-07 1.6 0.3
v 1.19209e-07 1.6 0.2
v 1.19209e-07 1.7 0.3
v 1.19209e-07 1.7 0.2
v 1.19209e-07 2.2 0.2
v 1.19209e-07 2.2 -1.1
v 1.19209e-07 2.3 0.2
v 1.19209e-07 2.3 -1.1
v 1.19209e-07 2.4 -0.8
v 1.19209e-07 2.4 -1
v 1.19209e-07 2.5 -0.8
v 1.19209e-07 2.5 -1
v 0.1 0.4 0.2
v 0.1 0.4 0.0999999
v 0.1 0.5 0.2
v 0.1 0.5 0.0999999
v 0.1 0.9 0.4
v 0.1 0.9 0.2
v 0.1 1.2 0.4
v 0.1 1.2 0.3
v 0.1 1.3 0.4
v 0.1 1.3 0.3
v 0.1 1.6 0.4
v 0.1 1.6 0.2
v 0.1 2.1 0.2
v 0.1 2.1 -1.1
v 0.1 2.2 0.2
v 0.1 2.2 -1.1
v 0.1 2.4 0.2
v 0.1 2.4 -0.6
v 0.1 2.5 0.2
v 0.1 2.5 -0.6
v 0.2 0.8 0.2
v 0.2 0.8 -1.1
v 0.2 1.1 0.2
v 0.2 1.1 -1.1
v 0.2 1.2 0.2
v 0.2 1.2 -1.1
v 0.2 1.5 0.0999999
v 0.2 1.5 -0.3
v 0.2 1.5 -0.6
v 0.2 1.5 -0.9
v 0.2 1.6 0.0999999
v 0.2 1.6 -0.3
v 0.2 1.6 -0.6
v 0.2 1.6 -0.9
v 0.2 1.9 0.0999999
v 0.2 1.9 -0.3
v 0.2 1.9 -0.6
v 0.2 1.9 -0.9
v 0.2 2 0.0999999
v 0.2 2 -0.3
v 0.2 2 -0.6
v 0.2 2 -0.9
v 0.2 2.1 0.2
v 0.2 2.1 -1.1
v 0.3 1.1 0.2
v 0.3 1.1 -1.1
v 0.3 1.2 0.2
v 0.3 1.2 -1.1
v 0.3 1.5 0.0999999
v 0.3 1.5 -0.3
v 0.3 1.5 -0.6
v 0.3 1.5 -0.9
v 0.3 1.6 0.0999999
v 0.3 1.6 -0.3
v 0.3 1.6 -0.6
v 0.3 1.6 -0.9
v 0.3 1.9 0.0999999
v 0.3 1.9 -0.3
v 0.3 1.9 -0.6
v 0.3 1.9 -0.9
v 0.3 2 0.0999999
v 0.3 2 -0.3
v 0.3 2 -0.6
v 0.3 2 -0.9
v 0.3 2.3 0.4
v 0.3 2.3 -1.3
v 0.3 2.4 0.4
v 0.3 2.4 -1.3
v 0.4 0.4 0.3
v 0.4 0.4 0.2
v 0.4 0.4 -1.1
v 0.4 0.4 -1.2
v 0.4 0.5 0.3
v 0.4 0.5 0.2
v 0.4 0.5 -1.1
v 0.4 0.5 -1.2
v 0.5 0 0.4
v 0.5 0 0.0999999
v 0.5 0 -1
v 0.5 0 -1.3
v 0.5 0.1 0.3
v 0.5 0.1 0.2
v 0.5 0.1 -1.1
v 0.5 0.1 -1.2
v 0.5 0.2 0.3
v 0.5 0.2 0.2
v 0.5 0.2 -1.1
v 0.5 0.2 -1.2
v 0.5 0.3 0.4
v 0.5 0.3 0.3
v 0.5 0.3 0.2
v 0.5 0.3 0.0999999
v 0.5 0.3 -1
v 0.5 0.3 -1.1
v 0.5 0.3 -1.2
v 0.5 0.3 -1.3
v 0.5 0.4 0.3
v 0.5 0.4 0.2
v 0.5 0.4 -1.1
v 0.5 0.4 -1.2
v 0.6 0.1 0.3
v 0.6 0.1 0.2
v 0.6 0.1 -1.1
v 0.6 0.1 -1.2
v 0.6 0.2 0.3
v 0.6 0.2 0.2
v 0.6 0.2 -1.1
v 0.6 0.2 -1.2
v -1.1 1.1 0.5
v -1.1 1.5 0.5
v -0.9 1.1 0.5
v -0.9 1.5 0.5
v -1.4 0 0.4
v -1.4 0.3 0.4
v -1.3 0 0.4
v -1.3 0.3 0.4
v -1.1 2.3 0.4
v -1.1 2.7 0.4
v -0.9 0.9 0.4
v -0.9 1.1 0.4
v -0.9 1.5 0.4
v -0.9 1.6 0.4
v -0.8 1.3 0.4
v -0.8 1.5 0.4
v -0.8 2.4 0.4
v -0.8 2.5 0.4
v -0.7 2.5 0.4
v -0.7 2.6 0.4
v -0.6 1.3 0.4
v -0.6 1.5 0.4
v -0.4 1.3 0.4
v -0.4 1.5 0.4
v -0.3 2.6 0.4
v -0.3 2.7 0.4
v -0.0999999 1.3 0.4
v -0.0999999 1.5 0.4
v 1.19209e-07 1.2 0.4
v 1.19209e-07 1.3 0.4
v 0.1 0.9 0.4
v 0.1 1.2 0.4
v 0.1 1.3 0.4
v 0.1 1.6 0.4
v 0.3 2.3 0.4
v 0.3 2.4 0.4
v 0.4 0 0.4
v 0.4 0.3 0.4
v 0.5 0 0.4
v 0.5 0.3 0.4
v -1.5 0.1 0.3
v -1.5 0.2 0.3
v -1.4 0.1 0.3
v -1.4 0.2 0.3
v -1.4 0.3 0.3
v -1.4 0.4 0.3
v -1.3 0.1 0.3
v -1.3 0.2 0.3
v -1.3 0.3 0.3
v -1.3 0.4 0.3
v -1.3 0.5 0.3
v -1.2 0.1 0.3
v -1.2 0.2 0.3
v -1.2 0.3 0.3
v -1.2 0.4 0.3
v -1 3.1 0.3
v -1 4 0.3
v -0.9 0.5 0.3
v -0.9 0.6 0.3
v -0.9 3.1 0.3
v -0.9 4 0.3
v -0.8 0.4 0.3
v -0.8 0.6 0.3
v -0.7 1.6 0.3
v -0.7 1.7 0.3
v -0.6 1.6 0.3
v -0.6 1.7 0.3
v -0.6 1.8 0.3
v -0.3 2.6 0.3
v -0.3 2.7 0.3
v -0.2 2.6 0.3
v -0.2 2.7 0.3
v -0.0999999 0.4 0.3
v -0.0999999 0.6 0.3
v -0.0999999 1.6 0.3
v -0.0999999 1.7 0.3
v -0.0999999 1.8 0.3
v 1.19209e-07 0.5 0.3
v 1.19209e-07 0.6 0.3
v 1.19209e-07 1.6 0.3
v 1.19209e-07 1.7 0.3
v 0.3 0.1 0.3
v 0.3 0.2 0.3
v 0.3 0.3 0.3
v 0.3 0.4 0.3
v 0.4 0.1 0.3
v 0.4 0.2 0.3
v 0.4 0.3 0.3
v 0.4 0.4 0.3
v 0.4 0.5 0.3
v 0.5 0.1 0.3
v 0.5 0.2 0.3
v 0.5 0.3 0.3
v 0.5 0.4 0.3
v 0.6 0.1 0.3
v 0.6 0.2 0.3
v -1.1 3.2 0.2
v -1.1 3.9 0.2
v -1 0.8 0.2
v -1 1.1 0.2
v -1 1.5 0.2
v -1 2.3 0.2
v -1 3.2 0.2
v -1 3.9 0.2
v -0.9 0.9 0.2
v -0.9 1.1 0.2
v -0.9 1.5 0.2
v -0.9 1.6 0.2
v -0.8 0.5 0.2
v -0.8 0.6 0.2
v -0.8 0.7 0.2
v -0.7 0.5 0.2
v -0.7 0.7 0.2
v -0.7 1.6 0.2
v -0.7 1.7 0.2
v -0.6 1.6 0.2
v -0.6 1.7 0.2
v -0.6 1.8 0.2
v -0.3 2.4 0.2
v -0.3 2.5 0.2
v -0.2 0.5 0.2
v -0.2 0.7 0.2
v -0.2 2.6 0.2
v -0.2 2.7 0.2
v -0.0999999 0.5 0.2
v -0.0999999 0.6 0.2
v -0.0999999 0.7 0.2
v -0.0999999 1.6 0.2
v -0.0999999 1.7 0.2
v -0.0999999 1.8 0.2
v -0.0999999 2.6 0.2
v -0.0999999 2.7 0.2
v 1.19209e-07 1.6 0.2
v 1.19209e-07 1.7 0.2
v 1.19209e-07 2.2 0.2
v 1.19209e-07 2.3 0.2
v 0.1 0.9 0.2
v 0.1 1.6 0.2
v 0.1 2.1 0.2
v 0.1 2.2 0.2
v 0.1 2.4 0.2
v 0.1 2.5 0.2
v 0.2 0.8 0.2
v 0.2 1.1 0.2
v 0.2 1.2 0.2
v 0.2 2.1 0.2
v 0.3 1.1 0.2
v 0.3 1.2 0.2
v -0.7 0.6 0.0999999
v -0.7 0.7 0.0999999
v -0.2 0.6 0.0999999
v -0.2 0.7 0.0999999
v 0.2 1.5 0.0999999
v 0.2 1.6 0.0999999
v 0.2 1.9 0.0999999
v 0.2 2 0.0999999
v 0.3 1.5 0.0999999
v 0.3 1.6 0.0999999
v 0.3 1.9 0.0999999
v 0.3 2 0.0999999
v -0.6 0.7 -1.19209e-07
v -0.6 0.8 -1.19209e-07
v -0.3 0.7 -1.19209e-07
v -0.3 0.8 -1.19209e-07
v -1.1 2.7 -0.2
v -1.1 2.8 -0.2
v -0.9 2.7 -0.2
v -0.9 2.8 -0.2
v -1.1 2.8 -0.3
v -1.1 3.2 -0.3
v -1 2.8 -0.3
v -1 3.1 -0.3
v -1 3.2 -0.3
v 0.2 1.5 -0.6
v 0.2 1.6 -0.6
v 0.2 1.9 -0.6
v 0.2 2 -0.6
v 0.3 1.5 -0.6
v 0.3 1.6 -0.6
v 0.3 1.9 -0.6
v 0.3 2 -0.6
v -0.3 2.4 -0.8
v -0.3 2.5 -0.8
v -0.2 2.4 -0.8
v -0.2 2.5 -0.8
v 1.19209e-07 2.4 -0.8
v 1.19209e-07 2.5 -0.8
v -0.3 2.6 -0.9
v -0.3 2.7 -0.9
v -0.2 2.6 -0.9
v -0.2 2.7 -0.9
v -1.4 0 -1
v -1.4 0.3 -1
v -1.3 0 -1
v -1.3 0.3 -1
v -0.9 0.5 -1
v -0.9 0.6 -1
v -0.8 0.6 -1
v -0.7 0.5 -1
v -0.7 0.6 -1
v -0.2 0.5 -1
v -0.2 0.6 -1
v -0.0999999 0.6 -1
v 1.19209e-07 0.5 -1
v 1.19209e-07 0.6 -1
v 0.4 0 -1
v 0.4 0.3 -1
v 0.5 0 -1
v 0.5 0.3 -1
v -1.5 0.1 -1.1
v -1.5 0.2 -1.1
v -1.4 0.1 -1.1
v -1.4 0.2 -1.1
v -1.4 0.3 -1.1
v -1.4 0.4 -1.1
v -1.3 0.1 -1.1
v -1.3 0.2 -1.1
v -1.3 0.3 -1.1
v -1.3 0.4 -1.1
v -1.3 0.5 -1.1
v -1.2 0.1 -1.1
v -1.2 0.2 -1.1
v -1.2 0.3 -1.1
v -1.2 0.4 -1.1
v -0.9 0.5 -1.1
v -0.8 0.4 -1.1
v -0.8 0.5 -1.1
v -0.0999999 0.4 -1.1
v -0.0999999 0.5 -1.1
v 1.19209e-07 0.5 -1.1
v 0.3 0.1 -1.1
v 0.3 0.2 -1.1
v 0.3 0.3 -1.1
v 0.3 0.4 -1.1
v 0.4 0.1 -1.1
v 0.4 0.2 -1.1
v 0.4 0.3 -1.1
v 0.4 0.4 -1.1
v 0.4 0.5 -1.1
v 0.5 0.1 -1.1
v 0.5 0.2 -1.1
v 0.5 0.3 -1.1
v 0.5 0.4 -1.1
v 0.6 0.1 -1.1
v 0.6 0.2 -1.1
v -0.8 1.8 -1.2
v -0.8 1.9 -1.2
v -0.7 1.8 -1.2
v -0.7 1.9 -1.2
v -0.6 1.8 -1.2
v -0.6 1.9 -1.2
v -0.2 1.8 -1.2
v -0.2 1.9 -1.2
v -1.5 0.1 0.2
v -1.5 0.2 0.2
v -1.4 0.1 0.2
v -1.4 0.2 0.2
v -1.4 0.3 0.2
v -1.4 0.4 0.2
v -1.3 0.1 0.2
v -1.3 0.2 0.2
v -1.3 0.3 0.2
v -1.3 0.4 0.2
v -1.3 0.5 0.2
v -1.2 0.1 0.2
v -1.2 0.2 0.2
v -1.2 0.3 0.2
v -1.2 0.4 0.2
v -1.1 1.1 0.2
v -1.1 1.5 0.2
v -1 1.1 0.2
v -1 1.5 0.2
v -0.9 0.5 0.2
v -0.8 0.4 0.2
v -0.8 0.5 0.2
v 0.1 0.4 0.2
v 0.1 0.5 0.2
v 0.3 0.1 0.2
v 0.3 0.2 0.2
v 0.3 0.3 0.2
v 0.3 0.4 0.2
v 0.4 0.1 0.2
v 0.4 0.2 0.2
v 0.4 0.3 0.2
v 0.4 0.4 0.2
v 0.4 0.5 0.2
v 0.5 0.1 0.2
v 0.5 0.2 0.2
v 0.5 0.3 0.2
v 0.5 0.4 0.2
v 0.6 0.1 0.2
v 0.6 0.2 0.2
v -1.4 0 0.0999999
v -1.4 0.3 0.0999999
v -1.3 0 0.0999999
v -1.3 0.3 0.0999999
v -0.9 0.5 0.0999999
v -0.9 0.6 0.0999999
v -0.8 0.6 0.0999999
v -0.7 0.5 0.0999999
v -0.7 0.6 0.0999999
v -0.2 0.5 0.0999999
v -0.2 0.6 0.0999999
v -0.0999999 0.4 0.0999999
v -0.0999999 0.5 0.0999999
v -0.0999999 0.6 0.0999999
v 1.19209e-07 0.5 0.0999999
v 1.19209e-07 0.6 0.0999999
v 0.1 0.4 0.0999999
v 0.1 0.5 0.0999999
v 0.4 0 0.0999999
v 0.4 0.3 0.0999999
v 0.5 0 0.0999999
v 0.5 0.3 0.0999999
v -0.3 2.6 -1.19209e-07
v -0.3 2.7 -1.19209e-07
v -0.2 2.6 -1.19209e-07
v -0.2 2.7 -1.19209e-07
v 0.2 1.5 -0.3
v 0.2 1.6 -0.3
v 0.2 1.9 -0.3
v 0.2 2 -0.3
v 0.3 1.5 -0.3
v 0.3 1.6 -0.3
v 0.3 1.9 -0.3
v 0.3 2 -0.3
v -1.1 2.8 -0.5
v -1.1 3.2 -0.5
v -1 2.8 -0.5
v -1 3.1 -0.5
v -1 3.2 -0.5
v -1.1 2.7 -0.6
v -1.1 2.8 -0.6
v -0.9 2.7 -0.6
v -0.9 2.8 -0.6
v -0.3 2.4 -0.6
v -0.3 2.5 -0.6
v 0.1 2.4 -0.6
v 0.1 2.5 -0.6
v -0.6 0.7 -0.9
v -0.6 0.8 -0.9
v -0.3 0.7 -0.9
v -0.3 0.8 -0.9
v 0.2 1.5 -0.9
v 0.2 1.6 -0.9
v 0.2 1.9 -0.9
v 0.2 2 -0.9
v 0.3 1.5 -0.9
v 0.3 1.6 -0.9
v 0.3 1.9 -0.9
v 0.3 2 -0.9
v -1.1 3.2 -1
v -1.1 3.9 -1
v -1 3.2 -1
v -1 3.9 -1
v -0.7 0.6 -1
v -0.7 0.7 -1
v -0.3 2.4 -1
v -0.3 2.5 -1
v -0.2 0.6 -1
v -0.2 0.7 -1
v 1.19209e-07 2.4 -1
v 1.19209e-07 2.5 -1
v -1 0.8 -1.1
v -1 2.3 -1.1
v -1 3.1 -1.1
v -1 4 -1.1
v -0.9 1.7 -1.1
v -0.9 1.9 -1.1
v -0.9 3.1 -1.1
v -0.9 4 -1.1
v -0.8 0.5 -1.1
v -0.8 0.6 -1.1
v -0.8 0.7 -1.1
v -0.8 1.8 -1.1
v -0.8 1.9 -1.1
v -0.8 2.1 -1.1
v -0.7 0.5 -1.1
v -0.7 0.7 -1.1
v -0.7 1.8 -1.1
v -0.7 1.9 -1.1
v -0.7 2.1 -1.1
v -0.7 2.3 -1.1
v -0.6 1.8 -1.1
v -0.6 1.9 -1.1
v -0.2 0.5 -1.1
v -0.2 0.7 -1.1
v -0.2 1.8 -1.1
v -0.2 1.9 -1.1
v -0.2 2.3 -1.1
v -0.2 2.6 -1.1
v -0.2 2.7 -1.1
v -0.0999999 0.5 -1.1
v -0.0999999 0.6 -1.1
v -0.0999999 0.7 -1.1
v -0.0999999 1.7 -1.1
v -0.0999999 1.9 -1.1
v -0.0999999 2.6 -1.1
v -0.0999999 2.7 -1.1
v 1.19209e-07 2.2 -1.1
v 1.19209e-07 2.3 -1.1
v 0.1 2.1 -1.1
v 0.1 2.2 -1.1
v 0.2 0.8 -1.1
v 0.2 1.1 -1.1
v 0.2 1.2 -1.1
v 0.2 2.1 -1.1
v 0.3 1.1 -1.1
v 0.3 1.2 -1.1
v -1.5 0.1 -1.2
v -1.5 0.2 -1.2
v -1.4 0.1 -1.2
v -1.4 0.2 -1.2
v -1.4 0.3 -1.2
v -1.4 0.4 -1.2
v -1.3 0.1 -1.2
v -1.3 0.2 -1.2
v -1.3 0.3 -1.2
v -1.3 0.4 -1.2
v -1.3 0.5 -1.2
v -1.2 0.1 -1.2
v -1.2 0.2 -1.2
v -1.2 0.3 -1.2
v -1.2 0.4 -1.2
v -0.9 0.5 -1.2
v -0.9 0.6 -1.2
v -0.8 0.4 -1.2
v -0.8 0.6 -1.2
v -0.8 1.9 -1.2
v -0.8 2.1 -1.2
v -0.7 1.9 -1.2
v -0.7 2.1 -1.2
v -0.7 2.3 -1.2
v -0.3 2.6 -1.2
v -0.3 2.7 -1.2
v -0.2 1.9 -1.2
v -0.2 2.3 -1.2
v -0.2 2.6 -1.2
v -0.2 2.7 -1.2
v -0.0999999 0.4 -1.2
v -0.0999999 0.6 -1.2
v 1.19209e-07 0.5 -1.2
v 1.19209e-07 0.6 -1.2
v 0.3 0.1 -1.2
v 0.3 0.2 -1.2
v 0.3 0.3 -1.2
v 0.3 0.4 -1.2
v 0.4 0.1 -1.2
v 0.4 0.2 -1.2
v 0.4 0.3 -1.2
v 0.4 0.4 -1.2
v 0.4 0.5 -1.2
v 0.5 0.1 -1.2
v 0.5 0.2 -1.2
v 0.5 0.3 -1.2
v 0.5 0.4 -1.2
v 0.6 0.1 -1.2
v 0.6 0.2 -1.2
v -1.4 0 -1.3
v -1.4 0.3 -1.3
v -1.3 0 -1.3
v -1.3 0.3 -1.3
v -1.1 2.3 -1.3
v -1.1 2.7 -1.3
v -0.9 1.7 -1.3
v -0.9 1.9 -1.3
v -0.8 2.4 -1.3
v -0.8 2.5 -1.3
v -0.7 2.5 -1.3
v -0.7 2.6 -1.3
v -0.3 2.6 -1.3
v -0.3 2.7 -1.3
v -0.0999999 1.7 -1.3
v -0.0999999 1.9 -1.3
v 0.3 2.3 -1.3
v 0.3 2.4 -1.3
v 0.4 0 -1.3
v 0.4 0.3 -1.3
v 0.5 0 -1.3
v 0.5 0.3 -1.3
v -1.4 0 0.4
v -1.3 0 0.4
v 0.4 0 0.4
v 0.5 0 0.4
v -1.4 0 0.0999999
v -1.3 0 0.0999999
v 0.4 0 0.0999999
v 0.5 0 0.0999999
v -1.4 0 -1
v -1.3 0 -1
v 0.4 0 -1
v 0.5 0 -1
v -1.4 0 -1.3
v -1.3 0 -1.3
v 0.4 0 -1.3
v 0.5 0 -1.3
v -1.5 0.1 0.3
v -1.4 0.1 0.3
v -1.3 0.1 0.3
v -1.2 0.1 0.3
v 0.3 0.1 0.3
v 0.4 0.1 0.3
v 0.5 0.1 0.3
v 0.6 0.1 0.3
v -1.5 0.1 0.2
v -1.4 0.1 0.2
v -1.3 0.1 0.2
v -1.2 0.1 0.2
v 0.3 0.1 0.2
v 0.4 0.1 0.2
v 0.5 0.1 0.2
v 0.6 0.1 0.2
v -1.5 0.1 -1.1
v -1.4 0.1 -1.1
v -1.3 0.1 -1.1
v -1.2 0.1 -1.1
v 0.3 0.1 -1.1
v 0.4 0.1 -1.1
v 0.5 0.1 -1.1
v 0.6 0.1 -1.1
v -1.5 0.1 -1.2
v -1.4 0.1 -1.2
v -1.3 0.1 -1.2
v -1.2 0.1 -1.2
v 0.3 0.1 -1.2
v 0.4 0.1 -1.2
v 0.5 0.1 -1.2
v 0.6 0.1 -1.2
v -1.3 0.3 0.3
v -1.2 0.3 0.3
v 0.3 0.3 0.3
v 0.4 0.3 0.3
v -1.3 0.3 0.2
v -1.2 0.3 0.2
v 0.3 0.3 0.2
v 0.4 0.3 0.2
v -1.3 0.3 -1.1
v -1.2 0.3 -1.1
v 0.3 0.3 -1.1
v 0.4 0.3 -1.1
v -1.3 0.3 -1.2
v -1.2 0.3 -1.2
v 0.3 0.3 -1.2
v 0.4 0.3 -1.2
v -1.2 0.4 0.3
v -0.8 0.4 0.3
v -0.0999999 0.4 0.3
v 0.3 0.4 0.3
v -1.2 0.4 0.2
v -0.8 0.4 0.2
v 0.1 0.4 0.2
v 0.3 0.4 0.2
v -0.0999999 0.4 0.0999999
v 0.1 0.4 0.0999999
v -1.2 0.4 -1.1
v -0.8 0.4 -1.1
v -0.0999999 0.4 -1.1
v 0.3 0.4 -1.1
v -1.2 0.4 -1.2
v -0.8 0.4 -1.2
v -0.0999999 0.4 -1.2
v 0.3 0.4 -1.2
v -0.9 0.5 0.2
v -0.8 0.5 0.2
v -0.7 0.5 0.2
v -0.2 0.5 0.2
v -0.0999999 0.5 0.2
v -0.9 0.5 0.0999999
v -0.7 0.5 0.0999999
v -0.2 0.5 0.0999999
v -0.0999999 0.5 0.0999999
v -0.9 0.5 -1
v -0.7 0.5 -1
v -0.2 0.5 -1
v 1.19209e-07 0.5 -1
v -0.9 0.5 -1.1
v -0.8 0.5 -1.1
v -0.7 0.5 -1.1
v -0.2 0.5 -1.1
v -0.0999999 0.5 -1.1
v 1.19209e-07 0.5 -1.1
v -0.8 0.6 0.0999999
v -0.7 0.6 0.0999999
v -0.2 0.6 0.0999999
v -0.0999999 0.6 0.0999999
v -0.8 0.6 -1
v -0.7 0.6 -1
v -0.2 0.6 -1
v -0.0999999 0.6 -1
v -1 0.8 0.2
v 0.2 0.8 0.2
v -0.6 0.8 -1.19209e-07
v -0.3 0.8 -1.19209e-07
v -0.6 0.8 -0.9
v -0.3 0.8 -0.9
v -1 0.8 -1.1
v 0.2 0.8 -1.1
v -0.9 0.9 0.4
v 0.1 0.9 0.4
v -0.9 0.9 0.2
v 0.1 0.9 0.2
v -1.1 1.1 0.5
v -0.9 1.1 0.5
v -0.9 1.1 0.4
v -1.1 1.1 0.2
v -1 1.1 0.2
v -0.9 1.1 0.2
v 0.2 1.1 0.2
v 0.3 1.1 0.2
v 0.2 1.1 -1.1
v 0.3 1.1 -1.1
v 0.2 1.5 0.0999999
v 0.3 1.5 0.0999999
v 0.2 1.5 -0.3
v 0.3 1.5 -0.3
v 0.2 1.5 -0.6
v 0.3 1.5 -0.6
v 0.2 1.5 -0.9
v 0.3 1.5 -0.9
v -0.6 1.7 0.3
v -0.0999999 1.7 0.3
v -0.6 1.7 0.2
v -0.0999999 1.7 0.2
v -0.9 1.7 -1.1
v -0.0999999 1.7 -1.1
v -0.9 1.7 -1.3
v -0.0999999 1.7 -1.3
v 0.2 1.9 0.0999999
v 0.3 1.9 0.0999999
v 0.2 1.9 -0.3
v 0.3 1.9 -0.3
v 0.2 1.9 -0.6
v 0.3 1.9 -0.6
v 0.2 1.9 -0.9
v 0.3 1.9 -0.9
v -0.8 1.9 -1.1
v -0.7 1.9 -1.1
v -0.6 1.9 -1.1
v -0.2 1.9 -1.1
v -0.8 1.9 -1.2
v -0.7 1.9 -1.2
v -0.6 1.9 -1.2
v -0.2 1.9 -1.2
v -1.1 2.3 0.4
v 0.3 2.3 0.4
v -1 2.3 0.2
v 1.19209e-07 2.3 0.2
v -1.1 2.3 -0.2
v -1 2.3 -0.2
v -1.1 2.3 -0.6
v -1 2.3 -0.6
v -1 2.3 -1.1
v -0.7 2.3 -1.1
v -0.2 2.3 -1.1
v 1.19209e-07 2.3 -1.1
v -0.7 2.3 -1.2
v -0.2 2.3 -1.2
v -1.1 2.3 -1.3
v 0.3 2.3 -1.3
v -0.8 2.5 0.4
v -0.7 2.5 0.4
v -0.8 2.5 -1.3
v -0.7 2.5 -1.3
v -0.7 2.6 0.4
v -0.3 2.6 0.4
v -0.3 2.6 0.3
v -0.2 2.6 0.3
v -0.2 2.6 0.2
v -0.0999999 2.6 0.2
v -0.3 2.6 -1.19209e-07
v -0.2 2.6 -1.19209e-07
v -0.3 2.6 -0.9
v -0.2 2.6 -0.9
v -0.2 2.6 -1.1
v -0.0999999 2.6 -1.1
v -0.3 2.6 -1.2
v -0.2 2.6 -1.2
v -0.7 2.6 -1.3
v -0.3 2.6 -1.3
v -1 3.1 0.3
v -0.9 3.1 0.3
v -1 3.1 -0.3
v -1 3.1 -0.5
v -1 3.1 -1.1
v -0.9 3.1 -1.1
v -1.1 3.2 0.2
v -1 3.2 0.2
v -1.1 3.2 -0.3
v -1 3.2 -0.3
v -1.1 3.2 -0.5
v -1 3.2 -0.5
v -1.1 3.2 -1
v -1 3.2 -1
v -1.5 0.2 0.3
v -1.4 0.2 0.3
v -1.3 0.2 0.3
v -1.2 0.2 0.3
v 0.3 0.2 0.3
v 0.4 0.2 0.3
v 0.5 0.2 0.3
v 0.6 0.2 0.3
v -1.5 0.2 0.2
v -1.4 0.2 0.2
v -1.3 0.2 0.2
v -1.2 0.2 0.2
v 0.3 0.2 0.2
v 0.4 0.2 0.2
v 0.5 0.2 0.2
v 0.6 0.2 0.2
v -1.5 0.2 -1.1
v -1.4 0.2 -1.1
v -1.3 0.2 -1.1
v -1.2 0.2 -1.1
v 0.3 0.2 -1.1
v 0.4 0.2 -1.1
v 0.5 0.2 -1.1
v 0.6 0.2 -1.1
v -1.5 0.2 -1.2
v -1.4 0.2 -1.2
v -1.3 0.2 -1.2
v -1.2 0.2 -1.2
v 0.3 0.2 -1.2
v 0.4 0.2 -1.2
v 0.5 0.2 -1.2
v 0.6 0.2 -1.2
v -1.4 0.3 0.4
v -1.3 0.3 0.4
v 0.4 0.3 0.4
v 0.5 0.3 0.4
v -1.4 0.3 0.3
v -1.3 0.3 0.3
v 0.4 0.3 0.3
v 0.5 0.3 0.3
v -1.4 0.3 0.2
v -1.3 0.3 0.2
v 0.4 0.3 0.2
v 0.5 0.3 0.2
v -1.4 0.3 0.0999999
v -1.3 0.3 0.0999999
v 0.4 0.3 0.0999999
v 0.5 0.3 0.0999999
v -1.4 0.3 -1
v -1.3 0.3 -1
v 0.4 0.3 -1
v 0.5 0.3 -1
v -1.4 0.3 -1.1
v -1.3 0.3 -1.1
v 0.4 0.3 -1.1
v 0.5 0.3 -1.1
v -1.4 0.3 -1.2
v -1.3 0.3 -1.2
v 0.4 0.3 -1.2
v 0.5 0.3 -1.2
v -1.4 0.3 -1.3
v -1.3 0.3 -1.3
v 0.4 0.3 -1.3
v 0.5 0.3 -1.3
v -1.4 0.4 0.3
v -1.3 0.4 0.3
v 0.4 0.4 0.3
v 0.5 0.4 0.3
v -1.4 0.4 0.2
v -1.3 0.4 0.2
v 0.4 0.4 0.2
v 0.5 0.4 0.2
v -1.4 0.4 -1.1
v -1.3 0.4 -1.1
v 0.4 0.4 -1.1
v 0.5 0.4 -1.1
v -1.4 0.4 -1.2
v -1.3 0.4 -1.2
v 0.4 0.4 -1.2
v 0.5 0.4 -1.2
v -1.3 0.5 0.3
v -0.9 0.5 0.3
v 1.19209e-07 0.5 0.3
v 0.4 0.5 0.3
v -1.3 0.5 0.2
v -0.9 0.5 0.2
v 0.1 0.5 0.2
v 0.4 0.5 0.2
v 1.19209e-07 0.5 0.0999999
v 0.1 0.5 0.0999999
v -1.3 0.5 -1.1
v -0.9 0.5 -1.1
v 1.19209e-07 0.5 -1.1
v 0.4 0.5 -1.1
v -1.3 0.5 -1.2
v -0.9 0.5 -1.2
v 1.19209e-07 0.5 -1.2
v 0.4 0.5 -1.2
v -0.9 0.6 0.3
v -0.8 0.6 0.3
v -0.0999999 0.6 0.3
v 1.19209e-07 0.6 0.3
v -0.8 0.6 0.2
v -0.0999999 0.6 0.2
v -0.9 0.6 0.0999999
v -0.8 0.6 0.0999999
v -0.0999999 0.6 0.0999999
v 1.19209e-07 0.6 0.0999999
v -0.9 0.6 -1
v -0.8 0.6 -1
v -0.0999999 0.6 -1
v 1.19209e-07 0.6 -1
v -0.8 0.6 -1.1
v -0.0999999 0.6 -1.1
v -0.9 0.6 -1.2
v -0.8 0.6 -1.2
v -0.0999999 0.6 -1.2
v 1.19209e-07 0.6 -1.2
v -0.8 0.7 0.2
v -0.7 0.7 0.2
v -0.2 0.7 0.2
v -0.0999999 0.7 0.2
v -0.7 0.7 0.0999999
v -0.2 0.7 0.0999999
v -0.6 0.7 -1.19209e-07
v -0.3 0.7 -1.19209e-07
v -0.6 0.7 -0.9
v -0.3 0.7 -0.9
v -0.7 0.7 -1
v -0.2 0.7 -1
v -0.8 0.7 -1.1
v -0.7 0.7 -1.1
v -0.2 0.7 -1.1
v -0.0999999 0.7 -1.1
v 0.2 1.2 0.2
v 0.3 1.2 0.2
v 0.2 1.2 -1.1
v 0.3 1.2 -1.1
v -1.1 1.5 0.5
v -0.9 1.5 0.5
v -0.9 1.5 0.4
v -1.1 1.5 0.2
v -1 1.5 0.2
v -0.9 1.5 0.2
v -0.9 1.6 0.4
v 0.1 1.6 0.4
v -0.7 1.6 0.3
v -0.6 1.6 0.3
v -0.0999999 1.6 0.3
v 1.19209e-07 1.6 0.3
v -0.9 1.6 0.2
v -0.7 1.6 0.2
v -0.6 1.6 0.2
v -0.0999999 1.6 0.2
v 1.19209e-07 1.6 0.2
v 0.1 1.6 0.2
v 0.2 1.6 0.0999999
v 0.3 1.6 0.0999999
v 0.2 1.6 -0.3
v 0.3 1.6 -0.3
v 0.2 1.6 -0.6
v 0.3 1.6 -0.6
v 0.2 1.6 -0.9
v 0.3 1.6 -0.9
v -0.7 1.7 0.3
v -0.6 1.7 0.3
v -0.0999999 1.7 0.3
v 1.19209e-07 1.7 0.3
v -0.7 1.7 0.2
v -0.6 1.7 0.2
v -0.0999999 1.7 0.2
v 1.19209e-07 1.7 0.2
v -0.6 1.8 0.3
v -0.0999999 1.8 0.3
v -0.6 1.8 0.2
v -0.0999999 1.8 0.2
v -0.8 1.8 -1.1
v -0.7 1.8 -1.1
v -0.6 1.8 -1.1
v -0.2 1.8 -1.1
v -0.8 1.8 -1.2
v -0.7 1.8 -1.2
v -0.6 1.8 -1.2
v -0.2 1.8 -1.2
v -0.9 1.9 -1.1
v -0.8 1.9 -1.1
v -0.2 1.9 -1.1
v -0.0999999 1.9 -1.1
v -0.8 1.9 -1.2
v -0.7 1.9 -1.2
v -0.2 1.9 -1.2
v -0.9 1.9 -1.3
v -0.0999999 1.9 -1.3
v 0.2 2 0.0999999
v 0.3 2 0.0999999
v 0.2 2 -0.3
v 0.3 2 -0.3
v 0.2 2 -0.6
v 0.3 2 -0.6
v 0.2 2 -0.9
v 0.3 2 -0.9
v 0.1 2.1 0.2
v 0.2 2.1 0.2
v -0.8 2.1 -1.1
v -0.7 2.1 -1.1
v 0.1 2.1 -1.1
v 0.2 2.1 -1.1
v -0.8 2.1 -1.2
v -0.7 2.1 -1.2
v 1.19209e-07 2.2 0.2
v 0.1 2.2 0.2
v 1.19209e-07 2.2 -1.1
v 0.1 2.2 -1.1
v -0.8 2.4 0.4
v 0.3 2.4 0.4
v -0.3 2.4 0.2
v 0.1 2.4 0.2
v -0.3 2.4 -0.6
v 0.1 2.4 -0.6
v -0.3 2.4 -0.8
v -0.2 2.4 -0.8
v 1.19209e-07 2.4 -0.8
v -0.3 2.4 -0.9
v -0.3 2.4 -1
v 1.19209e-07 2.4 -1
v -0.8 2.4 -1.3
v 0.3 2.4 -1.3
v -0.3 2.5 0.2
v 0.1 2.5 0.2
v -0.2 2.5 0.0999999
v 1.19209e-07 2.5 0.0999999
v -0.0999999 2.5 -0.1
v 1.19209e-07 2.5 -0.1
v -0.2 2.5 -0.2
v -0.0999999 2.5 -0.2
v 1.19209e-07 2.5 -0.2
v -0.2 2.5 -0.3
v -0.0999999 2.5 -0.3
v 1.19209e-07 2.5 -0.3
v -0.2 2.5 -0.4
v -0.0999999 2.5 -0.4
v 1.19209e-07 2.5 -0.4
v -0.0999999 2.5 -0.5
v 1.19209e-07 2.5 -0.5
v -0.3 2.5 -0.6
v 0.1 2.5 -0.6
v -0.3 2.5 -0.8
v -0.2 2.5 -0.8
v 1.19209e-07 2.5 -0.8
v -0.3 2.5 -0.9
v -0.2 2.5 -0.9
v -0.3 2.5 -1
v 1.19209e-07 2.5 -1
v -1.1 2.7 0.4
v -0.3 2.7 0.4
v -0.3 2.7 0.3
v -0.2 2.7 0.3
v -0.2 2.7 0.2
v -0.0999999 2.7 0.2
v -0.3 2.7 -1.19209e-07
v -0.2 2.7 -1.19209e-07
v -1.1 2.7 -0.2
v -0.9 2.7 -0.2
v -1.1 2.7 -0.6
v -0.9 2.7 -0.6
v -0.3 2.7 -0.9
v -0.2 2.7 -0.9
v -0.2 2.7 -1.1
v -0.0999999 2.7 -1.1
v -0.3 2.7 -1.2
v -0.2 2.7 -1.2
v -1.1 2.7 -1.3
v -0.3 2.7 -1.3
v -1.1 2.8 -0.2
v -0.9 2.8 -0.2
v -1.1 2.8 -0.3
v -1 2.8 -0.3
v -1.1 2.8 -0.5
v -1 2.8 -0.5
v -1.1 2.8 -0.6
v -0.9 2.8 -0.6
v -1.1 3.9 0.2
v -1 3.9 0.2
v -1.1 3.9 -1
v -1 3.9 -1
v -1 4 0.3
v -0.9 4 0.3
v -1 4 -1.1
v -0.9 4 -1.1

# faces
f 5/8/1 2/8/1 1/8/1
f 6/8/1 2/8/1 5/8/1
f 7/8/1 4/8/1 3/8/1
f 8/8/1 4/8/1 7/8/1
f 13/7/1 10/7/1 9/7/1
f 14/7/1 10/7/1 13/7/1
f 15/7/1 12/7/1 11/7/1
f 16/7/1 12/7/1 15/7/1
f 17/7/1 13/7/1 9/7/1
f 18/7/1 10/7/1 14/7/1
f 19/7/1 15/7/1 11/7/1
f 20/7/1 12/7/1 16/7/1
f 21/7/1 17/7/1 9/7/1
f 21/7/1 18/7/1 17/7/1
f 22/7/1 18/7/1 21/7/1
f 23/7/1 10/7/1 18/7/1
f 23/7/1 18/7/1 22/7/1
f 24/7/1 10/7/1 23/7/1
f 25/7/1 20/7/1 19/7/1
f 25/7/1 19/7/1 11/7/1
f 26/7/1 20/7/1 25/7/1
f 27/7/1 12/7/1 20/7/1
f 27/7/1 20/7/1 26/7/1
f 28/7/1 12/7/1 27/7/1
f 29/8/1 23/8/1 22/8/1
f 30/8/1 23/8/1 29/8/1
f 31/8/1 27/8/1 26/8/1
f 32/8/1 27/8/1 31/8/1
f 37/8/1 34/8/1 33/8/1
f 38/8/1 34/8/1 37/8/1
f 39/8/1 36/8/1 35/8/1
f 40/8/1 36/8/1 39/8/1
f 43/2/1 42/2/1 41/2/1
f 44/2/1 42/2/1 43/2/1
f 45/2/1 43/2/1 41/2/1
f 45/1/1 44/1/1 43/1/1
f 46/2/1 42/2/1 44/2/1
f 46/1/1 44/1/1 45/1/1
f 47/2/1 45/2/1 41/2/1
f 47/2/1 46/2/1 45/2/1
f 48/2/1 42/2/1 46/2/1
f 48/2/1 46/2/1 47/2/1
f 53/6/1 50/6/1 49/6/1
f 53/5/1 51/5/1 50/5/1
f 54/5/1 51/5/1 53/5/1
f 55/5/1 51/5/1 54/5/1
f 56/6/1 52/6/1 51/6/1
f 56/5/1 51/5/1 55/5/1
f 57/6/1 53/6/1 49/6/1
f 57/6/1 54/6/1 53/6/1
f 58/6/1 54/6/1 57/6/1
f 59/5/1 55/5/1 54/5/1
f 59/6/1 54/6/1 58/6/1
f 60/6/1 56/6/1 55/6/1
f 60/5/1 55/5/1 59/5/1
f 61/6/1 52/6/1 56/6/1
f 61/6/1 56/6/1 60/6/1
f 62/6/1 52/6/1 61/6/1
f 63/5/1 60/5/1 59/5/1
f 63/5/1 61/5/1 60/5/1
f 63/5/1 59/5/1 58/5/1
f 64/5/1 61/5/1 63/5/1
f 65/5/1 61/5/1 64/5/1
f 66/5/1 61/5/1 65/5/1
f 68/5/1 65/5/1 64/5/1
f 69/5/1 65/5/1 68/5/1
f 71/5/1 69/5/1 68/5/1
f 71/5/1 70/5/1 69/5/1
f 71/5/1 68/5/1 67/5/1
f 72/5/1 70/5/1 71/5/1
f 73/5/1 70/5/1 72/5/1
f 74/5/1 70/5/1 73/5/1
f 75/5/1 70/5/1 74/5/1
f 76/5/1 70/5/1 75/5/1
f 77/5/1 70/5/1 76/5/1
f 78/5/1 70/5/1 77/5/1
f 79/5/1 70/5/1 78/5/1
f 80/5/1 70/5/1 79/5/1
f 81/5/1 71/5/1 67/5/1
f 81/7/1 72/7/1 71/7/1
f 82/5/1 73/5/1 72/5/1
f 82/7/1 72/7/1 81/7/1
f 83/7/1 74/7/1 73/7/1
f 83/5/1 73/5/1 82/5/1
f 84/5/1 75/5/1 74/5/1
f 84/7/1 74/7/1 83/7/1
f 85/7/1 76/7/1 75/7/1
f 85/5/1 75/5/1 84/5/1
f 86/5/1 77/5/1 76/5/1
f 86/7/1 76/7/1 85/7/1
f 87/7/1 78/7/1 77/7/1
f 87/5/1 77/5/1 86/5/1
f 88/5/1 79/5/1 78/5/1
f 88/7/1 78/7/1 87/7/1
f 89/7/1 80/7/1 79/7/1
f 89/5/1 79/5/1 88/5/1
f 90/5/1 70/5/1 80/5/1
f 90/7/1 80/7/1 89/7/1
f 91/5/1 89/5/1 88/5/1
f 91/5/1 88/5/1 87/5/1
f 91/5/1 90/5/1 89/5/1
f 91/5/1 87/5/1 86/5/1
f 91/5/1 86/5/1 85/5/1
f 91/5/1 85/5/1 84/5/1
f 91/5/1 84/5/1 83/5/1
f 91/5/1 83/5/1 82/5/1
f 91/5/1 82/5/1 81/5/1
f 91/5/1 81/5/1 67/5/1
f 92/5/1 70/5/1 90/5/1
f 92/5/1 90/5/1 91/5/1
f 95/5/1 94/5/1 93/5/1
f 96/5/1 94/5/1 95/5/1
f 97/5/1 94/5/1 96/5/1
f 98/5/1 94/5/1 97/5/1
f 99/5/1 94/5/1 98/5/1
f 100/5/1 94/5/1 99/5/1
f 105/5/1 102/5/1 101/5/1
f 106/5/1 102/5/1 105/5/1
f 107/5/1 104/5/1 103/5/1
f 108/5/1 104/5/1 107/5/1
f 109/5/1 105/5/1 101/5/1
f 110/5/1 104/5/1 108/5/1
f 111/5/1 109/5/1 101/5/1
f 111/5/1 110/5/1 109/5/1
f 112/5/1 104/5/1 110/5/1
f 112/5/1 110/5/1 111/5/1
f 119/8/1 114/8/1 113/8/1
f 119/8/1 115/8/1 114/8/1
f 120/8/1 115/8/1 119/8/1
f 121/8/1 118/8/1 117/8/1
f 121/8/1 117/8/1 116/8/1
f 122/8/1 118/8/1 121/8/1
f 125/2/1 124/2/1 123/2/1
f 126/2/1 124/2/1 125/2/1
f 129/2/1 128/2/1 127/2/1
f 130/2/1 128/2/1 129/2/1
f 133/5/1 132/5/1 131/5/1
f 134/5/1 132/5/1 133/5/1
f 139/8/1 136/8/1 135/8/1
f 139/8/1 138/8/1 137/8/1
f 139/8/1 137/8/1 136/8/1
f 140/8/1 138/8/1 139/8/1
f 143/3/1 142/3/1 141/3/1
f 144/3/1 142/3/1 143/3/1
f 147/2/1 146/2/1 145/2/1
f 148/2/1 146/2/1 147/2/1
f 151/4/1 150/4/1 149/4/1
f 152/4/1 150/4/1 151/4/1
f 155/4/1 154/4/1 153/4/1
f 156/4/1 154/4/1 155/4/1
f 159/8/1 158/8/1 157/8/1
f 160/8/1 158/8/1 159/8/1
f 163/2/1 162/2/1 161/2/1
f 164/2/1 162/2/1 163/2/1
f 170/5/1 166/5/1 165/5/1
f 171/5/1 166/5/1 170/5/1
f 172/5/1 168/5/1 167/5/1
f 173/7/1 169/7/1 168/7/1
f 173/5/1 168/5/1 172/5/1
f 174/7/1 169/7/1 173/7/1
f 179/8/1 176/8/1 175/8/1
f 180/8/1 178/8/1 177/8/1
f 181/8/1 179/8/1 175/8/1
f 182/8/1 179/8/1 181/8/1
f 183/8/1 178/8/1 180/8/1
f 184/8/1 178/8/1 183/8/1
f 187/5/1 186/5/1 185/5/1
f 188/5/1 186/5/1 187/5/1
f 191/6/1 190/6/1 189/6/1
f 192/6/1 190/6/1 191/6/1
f 197/8/1 194/8/1 193/8/1
f 198/8/1 194/8/1 197/8/1
f 199/8/1 196/8/1 195/8/1
f 200/8/1 197/8/1 193/8/1
f 201/8/1 197/8/1 200/8/1
f 202/8/1 196/8/1 199/8/1
f 203/8/1 196/8/1 202/8/1
f 206/2/1 205/2/1 204/2/1
f 207/2/1 205/2/1 206/2/1
f 212/8/1 209/8/1 208/8/1
f 213/8/1 209/8/1 212/8/1
f 214/8/1 211/8/1 210/8/1
f 215/8/1 211/8/1 214/8/1
f 220/8/1 217/8/1 216/8/1
f 221/8/1 217/8/1 220/8/1
f 222/8/1 219/8/1 218/8/1
f 223/8/1 219/8/1 222/8/1
f 228/7/1 225/7/1 224/7/1
f 229/7/1 225/7/1 228/7/1
f 230/7/1 227/7/1 226/7/1
f 231/7/1 227/7/1 230/7/1
f 232/7/1 228/7/1 224/7/1
f 233/7/1 225/7/1 229/7/1
f 234/7/1 230/7/1 226/7/1
f 235/7/1 227/7/1 231/7/1
f 236/7/1 232/7/1 224/7/1
f 236/7/1 233/7/1 232/7/1
f 237/7/1 233/7/1 236/7/1
f 238/7/1 225/7/1 233/7/1
f 238/7/1 233/7/1 237/7/1
f 239/7/1 225/7/1 238/7/1
f 240/7/1 235/7/1 234/7/1
f 240/7/1 234/7/1 226/7/1
f 241/7/1 235/7/1 240/7/1
f 242/7/1 227/7/1 235/7/1
f 242/7/1 235/7/1 241/7/1
f 243/7/1 227/7/1 242/7/1
f 244/7/2 245/7/2 248/7/2
f 248/7/2 245/7/2 249/7/2
f 246/7/2 247/7/2 250/7/2
f 250/7/2 247/7/2 251/7/2
f 244/7/2 248/7/2 252/7/2
f 249/7/2 245/7/2 253/7/2
f 246/7/2 250/7/2 254/7/2
f 251/7/2 247/7/2 255/7/2
f 244/7/2 252/7/2 256/7/2
f 252/7/2 253/7/2 256/7/2
f 256/7/2 253/7/2 257/7/2
f 253/7/2 245/7/2 258/7/2
f 257/7/2 253/7/2 258/7/2
f 258/7/2 245/7/2 259/7/2
f 254/7/2 255/7/2 260/7/2
f 246/7/2 254/7/2 260/7/2
f 260/7/2 255/7/2 261/7/2
f 255/7/2 247/7/2 262/7/2
f 261/7/2 255/7/2 262/7/2
f 262/7/2 247/7/2 263/7/2
f 264/8/2 265/8/2 268/8/2
f 268/8/2 265/8/2 269/8/2
f 266/8/2 267/8/2 270/8/2
f 270/8/2 267/8/2 271/8/2
f 272/8/2 273/8/2 276/8/2
f 276/8/2 273/8/2 277/8/2
f 274/8/2 275/8/2 278/8/2
f 278/8/2 275/8/2 279/8/2
f 280/5/2 281/5/2 282/5/2
f 282/5/2 281/5/2 283/5/2
f 284/2/2 285/2/2 286/2/2
f 286/2/2 285/2/2 287/2/2
f 288/5/2 289/5/2 290/5/2
f 290/5/2 289/5/2 291/5/2
f 292/5/2 293/5/2 294/5/2
f 294/5/2 293/5/2 295/5/2
f 292/5/2 294/5/2 296/5/2
f 294/9/2 295/9/2 296/9/2
f 295/5/2 293/5/2 297/5/2
f 296/9/2 295/9/2 297/9/2
f 292/5/2 296/5/2 298/5/2
f 296/5/2 297/5/2 298/5/2
f 297/5/2 293/5/2 299/5/2
f 298/5/2 297/5/2 299/5/2
f 300/8/2 301/8/2 304/8/2
f 302/8/2 303/8/2 305/8/2
f 300/8/2 304/8/2 306/8/2
f 306/8/2 304/8/2 307/8/2
f 305/8/2 303/8/2 308/8/2
f 308/8/2 303/8/2 309/8/2
f 310/5/2 311/5/2 312/5/2
f 312/5/2 311/5/2 313/5/2
f 314/6/2 315/6/2 316/6/2
f 316/6/2 315/6/2 317/6/2
f 318/8/2 319/8/2 322/8/2
f 320/8/2 321/8/2 323/8/2
f 318/8/2 322/8/2 324/8/2
f 324/8/2 322/8/2 325/8/2
f 323/8/2 321/8/2 326/8/2
f 326/8/2 321/8/2 327/8/2
f 328/6/2 329/6/2 330/6/2
f 330/6/2 329/6/2 331/6/2
f 332/2/2 333/2/2 334/2/2
f 334/2/2 333/2/2 335/2/2
f 336/4/2 337/4/2 338/4/2
f 338/4/2 337/4/2 339/4/2
f 340/8/2 341/8/2 342/8/2
f 342/8/2 341/8/2 343/8/2
f 344/6/2 345/6/2 350/6/2
f 350/6/2 345/6/2 351/6/2
f 346/6/2 347/6/2 352/6/2
f 352/6/2 347/6/2 353/6/2
f 348/6/2 349/6/2 354/6/2
f 354/6/2 349/6/2 355/6/2
f 356/4/2 357/4/2 358/4/2
f 358/4/2 357/4/2 359/4/2
f 360/6/2 361/6/2 364/6/2
f 364/6/2 361/6/2 365/6/2
f 362/6/2 363/6/2 366/6/2
f 366/6/2 363/6/2 367/6/2
f 368/8/2 369/8/2 372/8/2
f 370/8/2 371/8/2 372/8/2
f 369/8/2 370/8/2 372/8/2
f 372/8/2 371/8/2 373/8/2
f 374/2/2 375/2/2 378/2/2
f 378/2/2 375/2/2 379/2/2
f 376/5/2 377/5/2 380/5/2
f 380/5/2 377/5/2 381/5/2
f 382/6/2 383/6/2 384/6/2
f 384/6/2 383/6/2 385/6/2
f 386/8/2 387/8/2 391/8/2
f 391/8/2 387/8/2 392/8/2
f 389/8/2 390/8/2 393/8/2
f 388/8/2 389/8/2 393/8/2
f 393/8/2 390/8/2 394/8/2
f 395/2/2 396/2/2 397/2/2
f 397/2/2 396/2/2 398/2/2
f 399/5/2 400/5/2 401/5/2
f 401/5/2 400/5/2 402/5/2
f 403/7/2 404/7/2 405/7/2
f 405/7/2 404/7/2 406/7/2
f 407/8/2 408/8/2 409/8/2
f 409/8/2 408/8/2 410/8/2
f 411/2/2 412/2/2 413/2/2
f 413/2/2 412/2/2 414/2/2
f 413/7/2 414/7/2 415/7/2
f 414/2/2 412/2/2 416/2/2
f 415/7/2 414/7/2 416/7/2
f 415/2/2 416/2/2 417/2/2
f 416/2/2 412/2/2 418/2/2
f 417/2/2 416/2/2 418/2/2
f 419/5/2 420/5/2 421/5/2
f 421/5/2 420/5/2 422/5/2
f 423/5/2 424/5/2 425/5/2
f 425/5/2 424/5/2 426/5/2
f 427/5/2 428/5/2 429/5/2
f 429/5/2 428/5/2 430/5/2
f 431/5/2 432/5/2 433/5/2
f 433/5/2 432/5/2 434/5/2
f 434/5/2 432/5/2 435/5/2
f 435/5/2 432/5/2 436/5/2
f 431/5/2 433/5/2 437/5/2
f 434/5/2 435/5/2 438/5/2
f 438/5/2 435/5/2 439/5/2
f 436/5/2 432/5/2 440/5/2
f 438/5/2 439/5/2 441/5/2
f 439/5/2 440/5/2 441/5/2
f 431/5/2 437/5/2 441/5/2
f 437/5/2 438/5/2 441/5/2
f 441/5/2 440/5/2 442/5/2
f 442/5/2 440/5/2 443/5/2
f 440/5/2 432/5/2 444/5/2
f 443/5/2 440/5/2 444/5/2
f 431/5/2 441/5/2 445/5/2
f 442/5/2 443/5/2 446/5/2
f 446/5/2 443/5/2 447/5/2
f 444/5/2 432/5/2 448/5/2
f 431/5/2 445/5/2 449/5/2
f 447/5/2 448/5/2 449/5/2
f 446/5/2 447/5/2 449/5/2
f 445/5/2 446/5/2 449/5/2
f 448/5/2 432/5/2 450/5/2
f 449/5/2 448/5/2 450/5/2
f 451/8/2 452/8/2 453/8/2
f 453/8/2 452/8/2 454/8/2
f 455/8/2 456/8/2 459/8/2
f 459/8/2 456/8/2 460/8/2
f 457/8/2 458/8/2 461/8/2
f 461/8/2 458/8/2 462/8/2
f 463/8/2 464/8/2 467/8/2
f 467/8/2 464/8/2 468/8/2
f 465/8/2 466/8/2 469/8/2
f 469/8/2 466/8/2 470/8/2
f 471/6/2 472/6/2 473/6/2
f 473/6/2 472/6/2 474/6/2
f 475/8/2 476/8/2 479/8/2
f 479/8/2 476/8/2 480/8/2
f 477/8/2 478/8/2 481/8/2
f 481/8/2 478/8/2 482/8/2
f 483/7/2 484/7/2 487/7/2
f 487/7/2 484/7/2 488/7/2
f 485/7/2 486/7/2 489/7/2
f 489/7/2 486/7/2 490/7/2
f 483/7/2 487/7/2 491/7/2
f 488/7/2 484/7/2 492/7/2
f 485/7/2 489/7/2 493/7/2
f 490/7/2 486/7/2 494/7/2
f 483/7/2 491/7/2 495/7/2
f 491/7/2 492/7/2 495/7/2
f 495/7/2 492/7/2 496/7/2
f 492/7/2 484/7/2 497/7/2
f 496/7/2 492/7/2 497/7/2
f 497/7/2 484/7/2 498/7/2
f 493/7/2 494/7/2 499/7/2
f 485/7/2 493/7/2 499/7/2
f 499/7/2 494/7/2 500/7/2
f 494/7/2 486/7/2 501/7/2
f 500/7/2 494/7/2 501/7/2
f 501/7/2 486/7/2 502/7/2
f 496/8/2 497/8/2 503/8/2
f 503/8/2 497/8/2 504/8/2
f 500/8/2 501/8/2 505/8/2
f 505/8/2 501/8/2 506/8/2
f 507/8/2 508/8/2 511/8/2
f 511/8/2 508/8/2 512/8/2
f 509/8/2 510/8/2 513/8/2
f 513/8/2 510/8/2 514/8/2
f 517/2/3 516/2/3 515/2/3
f 518/2/3 516/2/3 517/2/3
f 521/7/3 520/7/3 519/7/3
f 522/7/3 520/7/3 521/7/3
f 529/2/3 526/2/3 525/2/3
f 529/2/3 528/2/3 527/2/3
f 529/2/3 527/2/3 526/2/3
f 530/2/3 528/2/3 529/2/3
f 531/6/3 524/6/3 523/6/3
f 532/6/3 524/6/3 531/6/3
f 533/6/3 524/6/3 532/6/3
f 534/6/3 524/6/3 533/6/3
f 535/2/3 529/2/3 525/2/3
f 535/1/3 530/1/3 529/1/3
f 536/2/3 528/2/3 530/2/3
f 536/1/3 530/1/3 535/1/3
f 537/2/3 535/2/3 525/2/3
f 537/2/3 536/2/3 535/2/3
f 538/2/3 528/2/3 536/2/3
f 538/2/3 536/2/3 537/2/3
f 539/6/3 524/6/3 534/6/3
f 540/6/3 524/6/3 539/6/3
f 541/2/3 537/2/3 525/2/3
f 541/1/3 538/1/3 537/1/3
f 542/2/3 528/2/3 538/2/3
f 542/1/3 538/1/3 541/1/3
f 543/2/3 541/2/3 525/2/3
f 543/2/3 542/2/3 541/2/3
f 544/2/3 542/2/3 543/2/3
f 545/2/3 543/2/3 525/2/3
f 546/7/3 544/7/3 543/7/3
f 546/2/3 543/2/3 545/2/3
f 547/2/3 542/2/3 544/2/3
f 547/7/3 544/7/3 546/7/3
f 548/2/3 528/2/3 542/2/3
f 548/2/3 542/2/3 547/2/3
f 549/6/3 531/6/3 523/6/3
f 550/6/3 531/6/3 549/6/3
f 553/7/3 552/7/3 551/7/3
f 554/7/3 552/7/3 553/7/3
f 557/8/3 556/8/3 555/8/3
f 558/8/3 556/8/3 557/8/3
f 563/8/3 560/8/3 559/8/3
f 564/8/3 560/8/3 563/8/3
f 566/8/3 562/8/3 561/8/3
f 567/8/3 562/8/3 566/8/3
f 568/8/3 565/8/3 564/8/3
f 568/8/3 564/8/3 563/8/3
f 569/8/3 565/8/3 568/8/3
f 572/8/3 565/8/3 569/8/3
f 574/5/3 571/5/3 570/5/3
f 575/5/3 571/5/3 574/5/3
f 576/8/3 573/8/3 572/8/3
f 576/8/3 572/8/3 569/8/3
f 577/8/3 573/8/3 576/8/3
f 580/2/3 579/2/3 578/2/3
f 581/2/3 579/2/3 580/2/3
f 585/6/3 584/6/3 583/6/3
f 586/6/3 584/6/3 585/6/3
f 590/2/3 582/2/3 581/2/3
f 591/2/3 582/2/3 590/2/3
f 592/8/3 588/8/3 587/8/3
f 593/8/3 588/8/3 592/8/3
f 594/2/3 590/2/3 589/2/3
f 595/2/3 590/2/3 594/2/3
f 599/8/3 592/8/3 587/8/3
f 600/8/3 597/8/3 596/8/3
f 601/8/3 597/8/3 600/8/3
f 602/8/3 599/8/3 598/8/3
f 603/8/3 592/8/3 599/8/3
f 603/8/3 599/8/3 602/8/3
f 604/8/3 592/8/3 603/8/3
f 607/8/3 603/8/3 602/8/3
f 608/8/3 603/8/3 607/8/3
f 609/8/3 606/8/3 605/8/3
f 610/8/3 606/8/3 609/8/3
f 617/5/3 612/5/3 611/5/3
f 618/5/3 612/5/3 617/5/3
f 619/5/3 614/5/3 613/5/3
f 620/5/3 614/5/3 619/5/3
f 621/5/3 616/5/3 615/5/3
f 622/5/3 616/5/3 621/5/3
f 626/8/3 624/8/3 623/8/3
f 626/8/3 625/8/3 624/8/3
f 627/8/3 625/8/3 626/8/3
f 628/5/3 616/5/3 622/5/3
f 629/5/3 616/5/3 628/5/3
f 631/5/3 616/5/3 629/5/3
f 632/5/3 616/5/3 631/5/3
f 639/8/3 636/8/3 635/8/3
f 640/8/3 636/8/3 639/8/3
f 641/8/3 636/8/3 640/8/3
f 642/5/3 631/5/3 630/5/3
f 643/5/3 631/5/3 642/5/3
f 644/5/3 616/5/3 632/5/3
f 645/6/3 638/6/3 637/6/3
f 646/6/3 638/6/3 645/6/3
f 648/5/3 644/5/3 643/5/3
f 649/5/3 616/5/3 644/5/3
f 649/5/3 644/5/3 648/5/3
f 650/5/3 616/5/3 649/5/3
f 651/5/3 619/5/3 613/5/3
f 652/5/3 648/5/3 647/5/3
f 652/5/3 649/5/3 648/5/3
f 653/5/3 649/5/3 652/5/3
f 654/5/3 649/5/3 653/5/3
f 655/5/3 634/5/3 633/5/3
f 656/5/3 634/5/3 655/5/3
f 657/5/3 653/5/3 652/5/3
f 657/5/3 651/5/3 613/5/3
f 657/5/3 652/5/3 651/5/3
f 658/5/3 653/5/3 657/5/3
f 659/5/3 653/5/3 658/5/3
f 660/5/3 653/5/3 659/5/3
f 661/8/3 659/8/3 658/8/3
f 662/8/3 659/8/3 661/8/3
f 665/8/3 664/8/3 663/8/3
f 666/8/3 664/8/3 665/8/3
f 671/8/3 668/8/3 667/8/3
f 672/8/3 668/8/3 671/8/3
f 673/8/3 670/8/3 669/8/3
f 674/8/3 670/8/3 673/8/3
f 677/8/3 676/8/3 675/8/3
f 678/8/3 676/8/3 677/8/3
f 681/5/3 680/5/3 679/5/3
f 682/5/3 680/5/3 681/5/3
f 685/5/3 684/5/3 683/5/3
f 686/5/3 684/5/3 685/5/3
f 687/5/3 684/5/3 686/5/3
f 692/8/3 689/8/3 688/8/3
f 693/8/3 689/8/3 692/8/3
f 694/8/3 691/8/3 690/8/3
f 695/8/3 691/8/3 694/8/3
f 698/5/3 697/5/3 696/5/3
f 699/5/3 697/5/3 698/5/3
f 700/7/3 699/7/3 698/7/3
f 701/7/3 699/7/3 700/7/3
f 704/6/3 703/6/3 702/6/3
f 705/6/3 703/6/3 704/6/3
f 708/7/3 707/7/3 706/7/3
f 709/7/3 707/7/3 708/7/3
f 712/8/3 711/8/3 710/8/3
f 713/8/3 712/8/3 710/8/3
f 714/8/3 712/8/3 713/8/3
f 717/8/3 716/8/3 715/8/3
f 718/8/3 717/8/3 715/8/3
f 719/8/3 717/8/3 718/8/3
f 722/7/3 721/7/3 720/7/3
f 723/7/3 721/7/3 722/7/3
f 726/8/3 725/8/3 724/8/3
f 727/8/3 725/8/3 726/8/3
f 732/8/3 729/8/3 728/8/3
f 733/8/3 729/8/3 732/8/3
f 735/8/3 731/8/3 730/8/3
f 736/8/3 731/8/3 735/8/3
f 737/8/3 734/8/3 733/8/3
f 737/8/3 733/8/3 732/8/3
f 738/8/3 734/8/3 737/8/3
f 739/8/3 734/8/3 738/8/3
f 740/8/3 739/8/3 738/8/3
f 741/8/3 739/8/3 740/8/3
f 744/8/3 743/8/3 742/8/3
f 748/8/3 744/8/3 742/8/3
f 749/8/3 746/8/3 745/8/3
f 750/8/3 746/8/3 749/8/3
f 751/8/3 748/8/3 747/8/3
f 752/8/3 744/8/3 748/8/3
f 752/8/3 748/8/3 751/8/3
f 753/8/3 744/8/3 752/8/3
f 756/8/3 752/8/3 751/8/3
f 757/8/3 752/8/3 756/8/3
f 758/8/3 755/8/3 754/8/3
f 759/8/3 755/8/3 758/8/3
f 762/5/3 761/5/3 760/5/3
f 763/5/3 761/5/3 762/5/3
f 766/5/3 765/5/3 764/5/3
f 767/5/3 765/5/3 766/5/3
f 768/8/4 769/8/4 770/8/4
f 770/8/4 769/8/4 771/8/4
f 772/8/4 773/8/4 776/8/4
f 776/8/4 773/8/4 777/8/4
f 774/8/4 775/8/4 779/8/4
f 779/8/4 775/8/4 780/8/4
f 777/8/4 778/8/4 781/8/4
f 776/8/4 777/8/4 781/8/4
f 781/8/4 778/8/4 782/8/4
f 783/2/4 784/2/4 785/2/4
f 785/2/4 784/2/4 786/2/4
f 782/8/4 778/8/4 787/8/4
f 782/8/4 787/8/4 788/8/4
f 788/8/4 787/8/4 789/8/4
f 790/8/4 791/8/4 795/8/4
f 792/8/4 793/8/4 796/8/4
f 796/8/4 793/8/4 797/8/4
f 794/8/4 795/8/4 798/8/4
f 795/8/4 791/8/4 799/8/4
f 798/8/4 795/8/4 799/8/4
f 799/8/4 791/8/4 800/8/4
f 798/8/4 799/8/4 803/8/4
f 803/8/4 799/8/4 804/8/4
f 801/8/4 802/8/4 805/8/4
f 805/8/4 802/8/4 806/8/4
f 807/7/4 808/7/4 809/7/4
f 809/7/4 808/7/4 810/7/4
f 811/8/4 812/8/4 813/8/4
f 811/8/4 813/8/4 814/8/4
f 814/8/4 813/8/4 815/8/4
f 816/8/4 817/8/4 819/8/4
f 819/8/4 817/8/4 820/8/4
f 818/8/4 819/8/4 821/8/4
f 819/8/4 820/8/4 821/8/4
f 821/8/4 820/8/4 822/8/4
f 818/8/4 821/8/4 823/8/4
f 823/8/4 821/8/4 824/8/4
f 825/7/4 826/7/4 827/7/4
f 827/7/4 826/7/4 828/7/4
f 829/6/4 830/6/4 831/6/4
f 831/6/4 830/6/4 832/6/4
f 833/8/4 834/8/4 837/8/4
f 837/8/4 834/8/4 838/8/4
f 835/8/4 836/8/4 839/8/4
f 839/8/4 836/8/4 840/8/4
f 841/5/4 842/5/4 843/5/4
f 843/5/4 842/5/4 844/5/4
f 844/5/4 842/5/4 845/5/4
f 846/5/4 847/5/4 848/5/4
f 848/5/4 847/5/4 849/5/4
f 850/5/4 851/5/4 852/5/4
f 852/5/4 851/5/4 853/5/4
f 854/8/4 855/8/4 856/8/4
f 856/8/4 855/8/4 857/8/4
f 858/8/4 859/8/4 862/8/4
f 862/8/4 859/8/4 863/8/4
f 860/8/4 861/8/4 864/8/4
f 864/8/4 861/8/4 865/8/4
f 866/5/4 867/5/4 868/5/4
f 868/5/4 867/5/4 869/5/4
f 870/8/4 871/8/4 874/8/4
f 874/8/4 871/8/4 875/8/4
f 872/7/4 873/7/4 876/7/4
f 876/7/4 873/7/4 877/7/4
f 878/5/4 879/5/4 882/5/4
f 882/5/4 879/5/4 883/5/4
f 880/5/4 881/5/4 884/5/4
f 884/5/4 881/5/4 885/5/4
f 883/5/4 879/5/4 890/5/4
f 890/5/4 879/5/4 891/5/4
f 887/8/4 888/8/4 892/8/4
f 886/8/4 887/8/4 892/8/4
f 892/8/4 888/8/4 893/8/4
f 889/5/4 890/5/4 894/5/4
f 894/5/4 890/5/4 895/5/4
f 891/5/4 879/5/4 896/5/4
f 896/5/4 879/5/4 897/5/4
f 898/5/4 899/5/4 902/5/4
f 902/5/4 899/5/4 903/5/4
f 900/8/4 901/8/4 907/8/4
f 907/8/4 901/8/4 908/8/4
f 908/8/4 901/8/4 909/8/4
f 878/5/4 882/5/4 910/5/4
f 903/5/4 904/5/4 911/5/4
f 905/6/4 906/6/4 912/6/4
f 912/6/4 906/6/4 913/6/4
f 910/5/4 911/5/4 914/5/4
f 911/5/4 904/5/4 914/5/4
f 914/5/4 904/5/4 915/5/4
f 910/5/4 914/5/4 916/5/4
f 916/5/4 914/5/4 917/5/4
f 878/5/4 910/5/4 918/5/4
f 910/5/4 916/5/4 918/5/4
f 918/5/4 916/5/4 919/5/4
f 919/5/4 916/5/4 920/5/4
f 920/5/4 916/5/4 921/5/4
f 919/8/4 920/8/4 922/8/4
f 922/8/4 920/8/4 923/8/4
f 924/8/4 925/8/4 926/8/4
f 926/8/4 925/8/4 927/8/4
f 928/8/4 929/8/4 932/8/4
f 932/8/4 929/8/4 933/8/4
f 930/8/4 931/8/4 935/8/4
f 935/8/4 931/8/4 936/8/4
f 933/8/4 934/8/4 937/8/4
f 932/8/4 933/8/4 937/8/4
f 937/8/4 934/8/4 938/8/4
f 938/8/4 934/8/4 939/8/4
f 938/8/4 939/8/4 941/8/4
f 939/8/4 940/8/4 941/8/4
f 941/8/4 940/8/4 942/8/4
f 943/3/4 944/3/4 945/3/4
f 945/3/4 944/3/4 946/3/4
f 945/4/4 946/4/4 950/4/4
f 946/4/4 947/4/4 950/4/4
f 950/4/4 947/4/4 951/4/4
f 948/6/4 949/6/4 952/6/4
f 952/6/4 949/6/4 953/6/4
f 954/8/4 955/8/4 956/8/4
f 956/8/4 955/8/4 957/8/4
f 954/8/4 956/8/4 961/8/4
f 958/8/4 959/8/4 962/8/4
f 962/8/4 959/8/4 963/8/4
f 960/8/4 961/8/4 964/8/4
f 961/8/4 956/8/4 965/8/4
f 964/8/4 961/8/4 965/8/4
f 965/8/4 956/8/4 966/8/4
f 964/8/4 965/8/4 969/8/4
f 969/8/4 965/8/4 970/8/4
f 967/8/4 968/8/4 971/8/4
f 971/8/4 968/8/4 972/8/4
f 973/7/4 974/7/4 975/7/4
f 975/7/4 974/7/4 976/7/4
f 977/6/4 978/6/4 981/6/4
f 981/6/4 978/6/4 982/6/4
f 982/6/4 978/6/4 983/6/4
f 983/6/4 978/6/4 984/6/4
f 984/6/4 978/6/4 985/6/4
f 985/6/4 978/6/4 986/6/4
f 979/5/4 980/5/4 987/5/4
f 987/5/4 980/5/4 988/5/4
f 977/6/4 981/6/4 989/6/4
f 989/6/4 981/6/4 990/6/4
f 991/7/4 992/7/4 993/7/4
f 993/7/4 992/7/4 994/7/4
f 999/7/5 996/7/5 995/7/5
f 1000/7/5 996/7/5 999/7/5
f 1001/7/5 998/7/5 997/7/5
f 1002/7/5 998/7/5 1001/7/5
f 1007/7/5 1004/7/5 1003/7/5
f 1008/7/5 1004/7/5 1007/7/5
f 1009/7/5 1006/7/5 1005/7/5
f 1010/7/5 1006/7/5 1009/7/5
f 1019/8/5 1012/8/5 1011/8/5
f 1020/8/5 1012/8/5 1019/8/5
f 1021/8/5 1014/8/5 1013/8/5
f 1022/8/5 1014/8/5 1021/8/5
f 1023/8/5 1016/8/5 1015/8/5
f 1024/8/5 1016/8/5 1023/8/5
f 1025/8/5 1018/8/5 1017/8/5
f 1026/8/5 1018/8/5 1025/8/5
f 1035/8/5 1028/8/5 1027/8/5
f 1036/8/5 1028/8/5 1035/8/5
f 1037/8/5 1030/8/5 1029/8/5
f 1038/8/5 1030/8/5 1037/8/5
f 1039/8/5 1032/8/5 1031/8/5
f 1040/8/5 1032/8/5 1039/8/5
f 1041/8/5 1034/8/5 1033/8/5
f 1042/8/5 1034/8/5 1041/8/5
f 1047/8/5 1044/8/5 1043/8/5
f 1048/8/5 1044/8/5 1047/8/5
f 1049/8/5 1046/8/5 1045/8/5
f 1050/8/5 1046/8/5 1049/8/5
f 1055/8/5 1052/8/5 1051/8/5
f 1056/8/5 1052/8/5 1055/8/5
f 1057/8/5 1054/8/5 1053/8/5
f 1058/8/5 1054/8/5 1057/8/5
f 1063/8/5 1060/8/5 1059/8/5
f 1064/8/5 1060/8/5 1063/8/5
f 1065/8/5 1062/8/5 1061/8/5
f 1066/8/5 1062/8/5 1065/8/5
f 1067/8/5 1065/8/5 1061/8/5
f 1068/8/5 1065/8/5 1067/8/5
f 1073/8/5 1070/8/5 1069/8/5
f 1074/8/5 1070/8/5 1073/8/5
f 1075/8/5 1072/8/5 1071/8/5
f 1076/8/5 1072/8/5 1075/8/5
f 1082/8/5 1078/8/5 1077/8/5
f 1082/8/5 1079/8/5 1078/8/5
f 1083/8/5 1079/8/5 1082/8/5
f 1084/8/5 1081/8/5 1080/8/5
f 1085/8/5 1081/8/5 1084/8/5
f 1090/8/5 1087/8/5 1086/8/5
f 1091/8/5 1087/8/5 1090/8/5
f 1092/8/5 1087/8/5 1091/8/5
f 1093/8/5 1089/8/5 1088/8/5
f 1094/8/5 1089/8/5 1093/8/5
f 1095/8/5 1089/8/5 1094/8/5
f 1100/8/5 1097/8/5 1096/8/5
f 1100/8/5 1099/8/5 1098/8/5
f 1100/8/5 1098/8/5 1097/8/5
f 1101/8/5 1099/8/5 1100/8/5
f 1102/8/5 1099/8/5 1101/8/5
f 1103/8/5 1099/8/5 1102/8/5
f 1106/5/5 1105/5/5 1104/5/5
f 1107/5/5 1105/5/5 1106/5/5
f 1108/5/5 1106/5/5 1104/5/5
f 1109/5/5 1105/5/5 1107/5/5
f 1110/5/5 1108/5/5 1104/5/5
f 1110/5/5 1109/5/5 1108/5/5
f 1111/5/5 1105/5/5 1109/5/5
f 1111/5/5 1109/5/5 1110/5/5
f 1114/2/5 1113/2/5 1112/2/5
f 1115/2/5 1113/2/5 1114/2/5
f 1118/2/5 1117/2/5 1116/2/5
f 1119/2/5 1118/2/5 1116/2/5
f 1120/2/5 1118/2/5 1119/2/5
f 1121/2/5 1118/2/5 1120/2/5
f 1124/8/5 1123/8/5 1122/8/5
f 1125/8/5 1123/8/5 1124/8/5
f 1128/8/5 1127/8/5 1126/8/5
f 1129/8/5 1127/8/5 1128/8/5
f 1132/8/5 1131/8/5 1130/8/5
f 1133/8/5 1131/8/5 1132/8/5
f 1136/2/5 1135/2/5 1134/2/5
f 1137/2/5 1135/2/5 1136/2/5
f 1140/5/5 1139/5/5 1138/5/5
f 1141/5/5 1139/5/5 1140/5/5
f 1144/8/5 1143/8/5 1142/8/5
f 1145/8/5 1143/8/5 1144/8/5
f 1148/8/5 1147/8/5 1146/8/5
f 1149/8/5 1147/8/5 1148/8/5
f 1154/3/5 1151/3/5 1150/3/5
f 1155/3/5 1151/3/5 1154/3/5
f 1156/4/5 1153/4/5 1152/4/5
f 1157/4/5 1153/4/5 1156/4/5
f 1160/6/5 1159/6/5 1158/6/5
f 1161/6/5 1159/6/5 1160/6/5
f 1162/6/5 1160/6/5 1158/6/5
f 1163/6/5 1160/6/5 1162/6/5
f 1164/5/5 1163/5/5 1162/5/5
f 1165/5/5 1163/5/5 1164/5/5
f 1166/6/5 1165/6/5 1164/6/5
f 1169/6/5 1159/6/5 1161/6/5
f 1170/6/5 1167/6/5 1166/6/5
f 1171/6/5 1169/6/5 1168/6/5
f 1172/6/5 1170/6/5 1166/6/5
f 1172/6/5 1171/6/5 1170/6/5
f 1172/6/5 1166/6/5 1164/6/5
f 1173/6/5 1169/6/5 1171/6/5
f 1173/6/5 1171/6/5 1172/6/5
f 1173/6/5 1159/6/5 1169/6/5
f 1176/6/5 1175/6/5 1174/6/5
f 1177/6/5 1175/6/5 1176/6/5
f 1180/6/5 1179/6/5 1178/6/5
f 1182/6/5 1181/6/5 1180/6/5
f 1184/6/5 1180/6/5 1178/6/5
f 1184/6/5 1183/6/5 1182/6/5
f 1184/6/5 1182/6/5 1180/6/5
f 1185/6/5 1183/6/5 1184/6/5
f 1186/6/5 1184/6/5 1178/6/5
f 1187/6/5 1183/6/5 1185/6/5
f 1188/6/5 1183/6/5 1187/6/5
f 1188/6/5 1187/6/5 1186/6/5
f 1189/6/5 1183/6/5 1188/6/5
f 1190/6/5 1186/6/5 1178/6/5
f 1190/6/5 1188/6/5 1186/6/5
f 1191/6/5 1188/6/5 1190/6/5
f 1192/6/5 1190/6/5 1178/6/5
f 1193/6/5 1190/6/5 1192/6/5
f 1196/5/5 1195/5/5 1194/5/5
f 1197/5/5 1195/5/5 1196/5/5
f 1198/5/5 1195/5/5 1197/5/5
f 1199/5/5 1195/5/5 1198/5/5
f 1202/5/5 1201/5/5 1200/5/5
f 1203/5/5 1201/5/5 1202/5/5
f 1206/5/5 1205/5/5 1204/5/5
f 1207/5/5 1205/5/5 1206/5/5
f 1208/8/6 1209/8/6 1216/8/6
f 1216/8/6 1209/8/6 1217/8/6
f 1210/8/6 1211/8/6 1218/8/6
f 1218/8/6 1211/8/6 1219/8/6
f 1212/8/6 1213/8/6 1220/8/6
f 1220/8/6 1213/8/6 1221/8/6
f 1214/8/6 1215/8/6 1222/8/6
f 1222/8/6 1215/8/6 1223/8/6
f 1224/8/6 1225/8/6 1232/8/6
f 1232/8/6 1225/8/6 1233/8/6
f 1226/8/6 1227/8/6 1234/8/6
f 1234/8/6 1227/8/6 1235/8/6
f 1228/8/6 1229/8/6 1236/8/6
f 1236/8/6 1229/8/6 1237/8/6
f 1230/8/6 1231/8/6 1238/8/6
f 1238/8/6 1231/8/6 1239/8/6
f 1240/7/6 1241/7/6 1244/7/6
f 1244/7/6 1241/7/6 1245/7/6
f 1242/7/6 1243/7/6 1246/7/6
f 1246/7/6 1243/7/6 1247/7/6
f 1248/7/6 1249/7/6 1252/7/6
f 1252/7/6 1249/7/6 1253/7/6
f 1250/7/6 1251/7/6 1254/7/6
f 1254/7/6 1251/7/6 1255/7/6
f 1256/7/6 1257/7/6 1260/7/6
f 1260/7/6 1257/7/6 1261/7/6
f 1258/7/6 1259/7/6 1262/7/6
f 1262/7/6 1259/7/6 1263/7/6
f 1264/7/6 1265/7/6 1268/7/6
f 1268/7/6 1265/7/6 1269/7/6
f 1266/7/6 1267/7/6 1270/7/6
f 1270/7/6 1267/7/6 1271/7/6
f 1272/8/6 1273/8/6 1276/8/6
f 1276/8/6 1273/8/6 1277/8/6
f 1274/8/6 1275/8/6 1278/8/6
f 1278/8/6 1275/8/6 1279/8/6
f 1280/8/6 1281/8/6 1284/8/6
f 1284/8/6 1281/8/6 1285/8/6
f 1282/8/6 1283/8/6 1286/8/6
f 1286/8/6 1283/8/6 1287/8/6
f 1288/8/6 1289/8/6 1292/8/6
f 1292/8/6 1289/8/6 1293/8/6
f 1290/8/6 1291/8/6 1294/8/6
f 1294/8/6 1291/8/6 1295/8/6
f 1290/8/6 1294/8/6 1296/8/6
f 1296/8/6 1294/8/6 1297/8/6
f 1298/8/6 1299/8/6 1302/8/6
f 1302/8/6 1299/8/6 1303/8/6
f 1300/8/6 1301/8/6 1304/8/6
f 1304/8/6 1301/8/6 1305/8/6
f 1306/8/6 1307/8/6 1310/8/6
f 1308/8/6 1309/8/6 1311/8/6
f 1306/8/6 1310/8/6 1312/8/6
f 1312/8/6 1310/8/6 1313/8/6
f 1311/8/6 1309/8/6 1314/8/6
f 1314/8/6 1309/8/6 1315/8/6
f 1316/8/6 1317/8/6 1320/8/6
f 1318/8/6 1319/8/6 1321/8/6
f 1316/8/6 1320/8/6 1322/8/6
f 1322/8/6 1320/8/6 1323/8/6
f 1321/8/6 1319/8/6 1324/8/6
f 1324/8/6 1319/8/6 1325/8/6
f 1326/8/6 1327/8/6 1330/8/6
f 1328/8/6 1329/8/6 1331/8/6
f 1330/8/6 1331/8/6 1332/8/6
f 1332/8/6 1331/8/6 1333/8/6
f 1330/8/6 1332/8/6 1334/8/6
f 1333/8/6 1331/8/6 1335/8/6
f 1326/8/6 1330/8/6 1336/8/6
f 1334/8/6 1335/8/6 1336/8/6
f 1330/8/6 1334/8/6 1336/8/6
f 1335/8/6 1331/8/6 1337/8/6
f 1336/8/6 1335/8/6 1337/8/6
f 1331/8/6 1329/8/6 1337/8/6
f 1326/8/6 1336/8/6 1338/8/6
f 1338/8/6 1336/8/6 1339/8/6
f 1337/8/6 1329/8/6 1340/8/6
f 1340/8/6 1329/8/6 1341/8/6
f 1342/8/6 1343/8/6 1344/8/6
f 1344/8/6 1343/8/6 1345/8/6
f 1346/2/6 1347/2/6 1348/2/6
f 1346/2/6 1348/2/6 1349/2/6
f 1349/2/6 1348/2/6 1350/2/6
f 1350/2/6 1348/2/6 1351/2/6
f 1352/2/6 1353/2/6 1354/2/6
f 1354/2/6 1353/2/6 1355/2/6
f 1355/2/6 1353/2/6 1356/2/6
f 1356/2/6 1353/2/6 1357/2/6
f 1352/2/6 1354/2/6 1358/2/6
f 1358/2/6 1354/2/6 1359/2/6
f 1355/2/6 1356/2/6 1360/2/6
f 1360/2/6 1356/2/6 1361/2/6
f 1357/2/6 1353/2/6 1362/2/6
f 1362/2/6 1353/2/6 1363/2/6
f 1364/8/6 1365/8/6 1366/8/6
f 1366/8/6 1365/8/6 1367/8/6
f 1368/8/6 1369/8/6 1370/8/6
f 1370/8/6 1369/8/6 1371/8/6
f 1372/2/6 1373/2/6 1376/2/6
f 1376/2/6 1373/2/6 1377/2/6
f 1374/2/6 1375/2/6 1378/2/6
f 1378/2/6 1375/2/6 1379/2/6
f 1380/2/6 1381/2/6 1382/2/6
f 1382/2/6 1381/2/6 1383/2/6
f 1384/5/6 1385/5/6 1388/5/6
f 1388/5/6 1385/5/6 1389/5/6
f 1386/5/6 1387/5/6 1390/5/6
f 1390/5/6 1387/5/6 1391/5/6
f 1392/5/6 1393/5/6 1396/5/6
f 1394/5/6 1395/5/6 1398/5/6
f 1396/5/6 1397/5/6 1399/5/6
f 1397/5/6 1398/5/6 1399/5/6
f 1392/5/6 1396/5/6 1399/5/6
f 1398/5/6 1395/5/6 1400/5/6
f 1399/5/6 1398/5/6 1400/5/6
f 1401/8/6 1402/8/6 1403/8/6
f 1403/8/6 1402/8/6 1404/8/6
f 1405/8/6 1406/8/6 1407/8/6
f 1407/8/6 1406/8/6 1408/8/6
f 1409/5/6 1410/5/6 1413/5/6
f 1413/5/6 1410/5/6 1414/5/6
f 1411/3/6 1412/3/6 1415/3/6
f 1415/3/6 1412/3/6 1416/3/6
f 1417/5/6 1418/5/6 1419/5/6
f 1419/5/6 1418/5/6 1420/5/6
f 1421/6/6 1422/6/6 1423/6/6
f 1423/6/6 1422/6/6 1424/6/6
f 1421/6/6 1423/6/6 1425/6/6
f 1424/6/6 1422/6/6 1426/6/6
f 1421/6/6 1425/6/6 1427/6/6
f 1425/6/6 1426/6/6 1427/6/6
f 1427/6/6 1426/6/6 1428/6/6
f 1428/6/6 1426/6/6 1429/6/6
f 1421/6/6 1427/6/6 1430/6/6
f 1421/6/6 1430/6/6 1431/6/6
f 1429/6/6 1426/6/6 1432/6/6
f 1421/6/6 1431/6/6 1433/6/6
f 1431/6/6 1432/6/6 1433/6/6
f 1426/6/6 1422/6/6 1434/6/6
f 1433/6/6 1432/6/6 1434/6/6
f 1432/6/6 1426/6/6 1434/6/6
f 1435/5/6 1436/5/6 1437/5/6
f 1437/5/6 1436/5/6 1438/5/6
f 1437/8/6 1438/8/6 1439/8/6
f 1438/5/6 1436/5/6 1440/5/6
f 1439/8/6 1438/8/6 1440/8/6
f 1435/5/6 1437/5/6 1441/5/6
f 1437/8/6 1439/8/6 1441/8/6
f 1439/5/6 1440/5/6 1442/5/6
f 1441/8/6 1439/8/6 1442/8/6
f 1440/5/6 1436/5/6 1443/5/6
f 1442/5/6 1440/5/6 1443/5/6
f 1441/5/6 1442/5/6 1444/5/6
f 1435/5/6 1441/5/6 1444/5/6
f 1442/8/6 1443/8/6 1445/8/6
f 1444/5/6 1442/5/6 1445/5/6
f 1443/5/6 1436/5/6 1446/5/6
f 1445/8/6 1443/8/6 1446/8/6
f 1444/8/6 1445/8/6 1447/8/6
f 1435/5/6 1444/5/6 1447/5/6
f 1445/5/6 1446/5/6 1448/5/6
f 1447/8/6 1445/8/6 1448/8/6
f 1446/5/6 1436/5/6 1449/5/6
f 1448/5/6 1446/5/6 1449/5/6
f 1447/5/6 1448/5/6 1450/5/6
f 1448/8/6 1449/8/6 1450/8/6
f 1449/5/6 1436/5/6 1451/5/6
f 1450/8/6 1449/8/6 1451/8/6
f 1447/5/6 1450/5/6 1452/5/6
f 1435/5/6 1447/5/6 1452/5/6
f 1450/5/6 1451/5/6 1452/5/6
f 1451/5/6 1436/5/6 1453/5/6
f 1452/5/6 1451/5/6 1453/5/6
f 1454/5/6 1455/5/6 1457/5/6
f 1455/7/6 1456/7/6 1458/7/6
f 1457/5/6 1455/5/6 1458/5/6
f 1457/7/6 1458/7/6 1459/7/6
f 1458/7/6 1456/7/6 1460/7/6
f 1459/7/6 1458/7/6 1460/7/6
f 1461/6/6 1462/6/6 1463/6/6
f 1463/6/6 1464/6/6 1465/6/6
f 1461/6/6 1463/6/6 1467/6/6
f 1465/6/6 1466/6/6 1467/6/6
f 1463/6/6 1465/6/6 1467/6/6
f 1467/6/6 1466/6/6 1468/6/6
f 1461/6/6 1467/6/6 1469/6/6
f 1469/6/6 1467/6/6 1470/6/6
f 1470/6/6 1467/6/6 1472/6/6
f 1472/6/6 1467/6/6 1473/6/6
f 1471/6/6 1472/6/6 1473/6/6
f 1468/6/6 1466/6/6 1474/6/6
f 1474/6/6 1466/6/6 1475/6/6
f 1473/6/6 1474/6/6 1475/6/6
f 1475/6/6 1466/6/6 1476/6/6
f 1471/6/6 1473/6/6 1477/6/6
f 1473/6/6 1475/6/6 1477/6/6
f 1477/6/6 1475/6/6 1478/6/6
f 1471/6/6 1477/6/6 1479/6/6
f 1479/6/6 1477/6/6 1480/6/6
f 1481/5/6 1482/5/6 1483/5/6
f 1483/5/6 1482/5/6 1484/5/6
f 1484/5/6 1482/5/6 1486/5/6
f 1485/5/6 1486/5/6 1487/5/6
f 1486/5/6 1482/5/6 1488/5/6
f 1487/5/6 1486/5/6 1488/5/6
f 1489/5/6 1490/5/6 1491/5/6
f 1491/5/6 1490/5/6 1492/5/6
f 1493/5/6 1494/5/6 1495/5/6
f 1495/5/6 1494/5/6 1496/5/6
